<svg width="146" height="27" viewBox="0 0 146 27" fill="none" xmlns="http://www.w3.org/2000/svg">
<circle cx="13.0002" cy="13.0822" r="12.1511" stroke="url(#paint0_linear_506_2555)" stroke-width="1.69824"/>
<path d="M8.18858 14.0371C6.98708 13.9379 6.0625 12.9337 6.0625 11.7281C10.6779 12.1095 15.3168 12.1095 19.9322 11.7281C19.9322 12.9337 19.0076 13.9379 17.8061 14.0371L17.4506 14.0665C14.4868 14.3114 11.5079 14.3114 8.54408 14.0665L8.18858 14.0371Z" fill="url(#paint1_linear_506_2555)"/>
<path d="M14.3491 8.27257C14.4484 7.07106 15.4525 6.14648 16.6581 6.14648L16.4309 8.89677C16.2008 11.6817 16.2008 14.4809 16.4309 17.2659L16.4824 17.8901C16.577 19.0348 15.6734 20.0161 14.5248 20.0161L14.3197 17.5346C14.0749 14.5708 14.0749 11.5918 14.3197 8.62806L14.3491 8.27257Z" fill="url(#paint2_linear_506_2555)"/>
<path d="M11.646 8.27257C11.5467 7.07106 10.5426 6.14648 9.33698 6.14648L9.56421 8.89677C9.7943 11.6817 9.7943 14.4809 9.56421 17.2659L9.51264 17.8901C9.41806 19.0348 10.3216 20.0161 11.4703 20.0161L11.6753 17.5346C11.9202 14.5708 11.9202 11.5918 11.6753 8.62806L11.646 8.27257Z" fill="url(#paint3_linear_506_2555)"/>
<path d="M38.6729 17.7396C37.9766 17.7396 37.3398 17.6038 36.7624 17.3321C36.185 17.0518 35.7264 16.674 35.3868 16.1985C35.0556 15.723 34.8901 15.205 34.8901 14.6446V11.6769C34.8901 11.1165 35.0556 10.6028 35.3868 10.1358C35.7264 9.66027 36.185 9.28665 36.7624 9.01494C37.3398 8.73473 37.9766 8.59462 38.6729 8.59462C39.3692 8.59462 40.006 8.73473 40.5834 9.01494C41.1693 9.28665 41.6278 9.66027 41.959 10.1358C42.2986 10.6028 42.4684 11.1165 42.4684 11.6769V14.6446C42.4684 15.205 42.2986 15.723 41.959 16.1985C41.6278 16.674 41.1693 17.0518 40.5834 17.3321C40.006 17.6038 39.3692 17.7396 38.6729 17.7396ZM38.6729 16.2494C39.3097 16.2494 39.8192 16.1008 40.2013 15.8036C40.5834 15.498 40.7745 15.1031 40.7745 14.6191V11.7151C40.7745 11.2226 40.5834 10.8278 40.2013 10.5306C39.8192 10.2249 39.3097 10.0721 38.6729 10.0721C38.0445 10.0721 37.5393 10.2249 37.1572 10.5306C36.7751 10.8278 36.5841 11.2226 36.5841 11.7151V14.6191C36.5841 15.1031 36.7751 15.498 37.1572 15.8036C37.5393 16.1008 38.0445 16.2494 38.6729 16.2494ZM51.6698 17.7396C51.2622 17.7396 50.9862 17.5528 50.8419 17.1792L47.594 8.7602C47.6789 8.71774 47.7936 8.67953 47.9379 8.64557C48.0823 8.6116 48.2096 8.59462 48.32 8.59462C48.9908 8.59462 49.4239 8.86634 49.6192 9.40978L51.5806 14.8993L51.2749 15.7145L51.415 15.7654L53.7077 9.40978C53.9115 8.86634 54.3445 8.59462 55.0068 8.59462C55.1172 8.59462 55.2446 8.6116 55.3889 8.64557C55.5333 8.67953 55.6521 8.71774 55.7455 8.7602L52.4977 17.1792C52.4297 17.3575 52.3236 17.4976 52.1792 17.5995C52.0434 17.6929 51.8736 17.7396 51.6698 17.7396ZM61.9336 9.4862C61.9336 9.27392 62.0143 9.09136 62.1756 8.93852C62.3455 8.78567 62.5492 8.70925 62.787 8.70925H68.4676C68.4676 9.21872 68.3784 9.59234 68.2001 9.83009C68.0303 10.0594 67.7501 10.174 67.3595 10.174H63.6404V12.3902H67.0283C67.0283 12.8997 66.9392 13.2733 66.7609 13.511C66.591 13.7403 66.3108 13.8549 65.9202 13.8549H63.6404V16.1603H67.627C68.0091 16.1603 68.285 16.2791 68.4549 16.5169C68.6332 16.7462 68.7223 17.1155 68.7223 17.625H62.787C62.5492 17.625 62.3455 17.5528 62.1756 17.4085C62.0143 17.2556 61.9336 17.0688 61.9336 16.8481V9.4862ZM74.9237 9.4862C74.9237 9.26543 75.0043 9.08287 75.1657 8.93852C75.327 8.78567 75.5308 8.70925 75.777 8.70925H79.1777C80.0948 8.70925 80.8038 8.95125 81.3048 9.43525C81.8143 9.91925 82.069 10.5985 82.069 11.4731C82.069 11.9741 81.9671 12.3987 81.7633 12.7468C81.5595 13.0865 81.2496 13.3582 80.8335 13.562V13.6002C81.5807 13.9313 81.9544 14.5597 81.9544 15.4852V16.4787C81.9544 16.8863 81.81 17.2004 81.5213 17.4212C81.2326 17.6335 80.8081 17.7396 80.2476 17.7396V15.5616C80.2476 15.1116 80.1585 14.7805 79.9802 14.5682C79.8018 14.3559 79.5301 14.2498 79.165 14.2498H76.6049V16.4787C76.6049 16.8948 76.4606 17.2089 76.1719 17.4212C75.8917 17.6335 75.4756 17.7396 74.9237 17.7396V9.4862ZM79.0886 12.7978C79.4962 12.7978 79.8103 12.6831 80.0311 12.4539C80.2519 12.2161 80.3623 11.885 80.3623 11.4604C80.3623 10.5943 79.9377 10.1612 79.0886 10.1612H76.6049V12.7978H79.0886ZM91.9138 17.7396C91.1496 17.7396 90.4831 17.6462 89.9142 17.4594C89.3452 17.2726 88.9079 17.0094 88.6023 16.6697C88.3051 16.3216 88.1565 15.9183 88.1565 15.4597C88.1565 14.7635 88.6277 14.4153 89.5703 14.4153C89.6042 15.0607 89.8207 15.5489 90.2198 15.8801C90.6274 16.2112 91.1963 16.3768 91.9266 16.3768C92.5294 16.3768 92.9965 16.2749 93.3276 16.0711C93.6588 15.8588 93.8243 15.5659 93.8243 15.1923C93.8243 14.946 93.7607 14.7465 93.6333 14.5936C93.5059 14.4323 93.2894 14.2922 92.9837 14.1733C92.678 14.046 92.2322 13.9186 91.6464 13.7912C90.8142 13.5959 90.1561 13.3794 89.6722 13.1417C89.1966 12.9039 88.8528 12.6194 88.6405 12.2883C88.4282 11.9486 88.3221 11.5283 88.3221 11.0273C88.3221 10.5433 88.4622 10.1188 88.7424 9.75367C89.0311 9.38855 89.4344 9.10409 89.9524 8.9003C90.4788 8.69652 91.0817 8.59462 91.761 8.59462C92.4148 8.59462 92.9965 8.68378 93.5059 8.86209C94.0239 9.03192 94.4272 9.27392 94.7159 9.58809C95.0131 9.90227 95.1617 10.2631 95.1617 10.6707C95.1617 11.2991 94.7074 11.626 93.7989 11.6514C93.7479 11.0656 93.5611 10.6368 93.2385 10.365C92.9158 10.0933 92.4233 9.95746 91.761 9.95746C91.1921 9.95746 90.7548 10.0509 90.4491 10.2377C90.1434 10.4245 89.9906 10.6877 89.9906 11.0273C89.9906 11.2651 90.05 11.4646 90.1689 11.626C90.2878 11.7788 90.4873 11.9147 90.7675 12.0336C91.0477 12.1439 91.4468 12.2586 91.9648 12.3774C92.8394 12.5727 93.5314 12.7935 94.0409 13.0398C94.5503 13.2775 94.9197 13.5705 95.149 13.9186C95.3782 14.2582 95.4929 14.6786 95.4929 15.1795C95.4929 15.6975 95.3443 16.1518 95.0471 16.5424C94.7584 16.9245 94.3423 17.2217 93.7989 17.4339C93.2639 17.6377 92.6356 17.7396 91.9138 17.7396ZM101.687 9.4862C101.687 9.27392 101.768 9.09136 101.929 8.93852C102.099 8.78567 102.303 8.70925 102.541 8.70925H108.221C108.221 9.21872 108.132 9.59234 107.954 9.83009C107.784 10.0594 107.504 10.174 107.113 10.174H103.394V12.3902H106.782C106.782 12.8997 106.693 13.2733 106.515 13.511C106.345 13.7403 106.065 13.8549 105.674 13.8549H103.394V16.1603H107.381C107.763 16.1603 108.039 16.2791 108.209 16.5169C108.387 16.7462 108.476 17.1155 108.476 17.625H102.541C102.303 17.625 102.099 17.5528 101.929 17.4085C101.768 17.2556 101.687 17.0688 101.687 16.8481V9.4862ZM114.677 9.4862C114.677 9.27392 114.758 9.09136 114.919 8.93852C115.089 8.78567 115.293 8.70925 115.531 8.70925H121.211C121.211 9.21872 121.122 9.59234 120.944 9.83009C120.774 10.0594 120.494 10.174 120.103 10.174H116.384V12.3902H119.772C119.772 12.8997 119.683 13.2733 119.505 13.511C119.335 13.7403 119.055 13.8549 118.664 13.8549H116.384V16.1603H120.371C120.753 16.1603 121.029 16.2791 121.199 16.5169C121.377 16.7462 121.466 17.1155 121.466 17.625H115.531C115.293 17.625 115.089 17.5528 114.919 17.4085C114.758 17.2556 114.677 17.0688 114.677 16.8481V9.4862ZM127.667 9.4862C127.667 9.26543 127.748 9.08287 127.909 8.93852C128.071 8.78567 128.274 8.70925 128.521 8.70925H131.921C132.838 8.70925 133.548 8.95125 134.048 9.43525C134.558 9.91925 134.813 10.5985 134.813 11.4731C134.813 11.9741 134.711 12.3987 134.507 12.7468C134.303 13.0865 133.993 13.3582 133.577 13.562V13.6002C134.324 13.9313 134.698 14.5597 134.698 15.4852V16.4787C134.698 16.8863 134.554 17.2004 134.265 17.4212C133.976 17.6335 133.552 17.7396 132.991 17.7396V15.5616C132.991 15.1116 132.902 14.7805 132.724 14.5682C132.546 14.3559 132.274 14.2498 131.909 14.2498H129.349V16.4787C129.349 16.8948 129.204 17.2089 128.916 17.4212C128.635 17.6335 128.219 17.7396 127.667 17.7396V9.4862ZM131.832 12.7978C132.24 12.7978 132.554 12.6831 132.775 12.4539C132.996 12.2161 133.106 11.885 133.106 11.4604C133.106 10.5943 132.681 10.1612 131.832 10.1612H129.349V12.7978H131.832Z" fill="url(#paint4_linear_506_2555)"/>
<defs>
<linearGradient id="paint0_linear_506_2555" x1="135.222" y1="13.0822" x2="1.30543" y2="13.0822" gradientUnits="userSpaceOnUse">
<stop stop-color="#EFEAB7"/>
<stop offset="1" stop-color="#C9A351"/>
</linearGradient>
<linearGradient id="paint1_linear_506_2555" x1="6.99043" y1="19.2415" x2="19.1781" y2="7.05379" gradientUnits="userSpaceOnUse">
<stop stop-color="#C9A351"/>
<stop offset="1" stop-color="#EFEAB7"/>
</linearGradient>
<linearGradient id="paint2_linear_506_2555" x1="6.99043" y1="19.2415" x2="19.1781" y2="7.05379" gradientUnits="userSpaceOnUse">
<stop stop-color="#C9A351"/>
<stop offset="1" stop-color="#EFEAB7"/>
</linearGradient>
<linearGradient id="paint3_linear_506_2555" x1="6.99043" y1="19.2415" x2="19.1781" y2="7.05379" gradientUnits="userSpaceOnUse">
<stop stop-color="#C9A351"/>
<stop offset="1" stop-color="#EFEAB7"/>
</linearGradient>
<linearGradient id="paint4_linear_506_2555" x1="133.568" y1="8.625" x2="-13.8471" y2="8.625" gradientUnits="userSpaceOnUse">
<stop stop-color="#EFEBBA"/>
<stop offset="1" stop-color="#C9A351"/>
</linearGradient>
</defs>
</svg>
