<svg width="290" height="58" viewBox="0 0 290 58" fill="none" xmlns="http://www.w3.org/2000/svg">
<path d="M0.117122 28.9492L5.89062 34.7227L11.6641 28.9492L5.89062 23.1757L0.117122 28.9492ZM289.887 28.9492L284.113 23.1757L278.34 28.9492L284.113 34.7227L289.887 28.9492ZM5.89062 29.9492H284.113V27.9492H5.89062V29.9492Z" fill="#FFD67E"/>
<rect x="145" y="2.07828" width="38" height="38" transform="rotate(45 145 2.07828)" fill="#090A0C" stroke="#FFD67E" stroke-width="2"/>
<path d="M141.285 20.7266L145.797 18.5254H146.248V34.1797C146.248 34.7174 146.257 35.1413 146.275 35.4512C146.294 35.752 146.326 35.9844 146.371 36.1484C146.417 36.3125 146.485 36.431 146.576 36.5039C146.667 36.5768 146.781 36.6452 146.918 36.709C147.201 36.8548 147.757 36.9323 148.586 36.9414V37.4473H141.613V36.9414C142.06 36.9323 142.415 36.9095 142.68 36.873C142.953 36.8366 143.167 36.7865 143.322 36.7227C143.477 36.6589 143.591 36.5814 143.664 36.4902C143.737 36.3991 143.796 36.2988 143.842 36.1895C143.942 35.9434 143.992 35.2734 143.992 34.1797V24.1719C143.992 22.8047 143.947 21.9388 143.855 21.5742C143.783 21.2826 143.664 21.0684 143.5 20.9316C143.336 20.7949 143.135 20.7266 142.898 20.7266C142.552 20.7266 142.083 20.8678 141.49 21.1504L141.285 20.7266Z" fill="#FFD67E"/>
<rect x="180.355" y="21.877" width="10" height="10" transform="rotate(45 180.355 21.877)" fill="#FFD67E"/>
<rect x="109.645" y="21.877" width="10" height="10" transform="rotate(45 109.645 21.877)" fill="#FFD67E"/>
</svg>
