<svg width="290" height="58" viewBox="0 0 290 58" fill="none" xmlns="http://www.w3.org/2000/svg">
<path d="M0.187435 28.9492L5.96094 34.7227L11.7344 28.9492L5.96094 23.1757L0.187435 28.9492ZM289.957 28.9492L284.184 23.1757L278.41 28.9492L284.184 34.7227L289.957 28.9492ZM5.96094 29.9492H284.184V27.9492H5.96094V29.9492Z" fill="#FFD67E"/>
<rect x="145.07" y="2.07828" width="38" height="38" transform="rotate(45 145.07 2.07828)" fill="#090A0C" stroke="#FFD67E" stroke-width="2"/>
<path d="M150.912 33.8789L149.613 37.4473H138.676V36.9414C140.289 35.4648 141.661 34.1341 142.791 32.9492C143.921 31.7552 144.814 30.6888 145.471 29.75C146.783 27.8906 147.439 26.1908 147.439 24.6504C147.439 24.0671 147.339 23.5293 147.139 23.0371C146.947 22.5358 146.683 22.1074 146.346 21.752C146.018 21.3965 145.63 21.1185 145.184 20.918C144.737 20.7174 144.268 20.6172 143.775 20.6172C143.32 20.6172 142.882 20.6855 142.463 20.8223C142.053 20.9499 141.67 21.1458 141.314 21.4102C140.968 21.6745 140.658 22.0026 140.385 22.3945C140.111 22.7865 139.888 23.2422 139.715 23.7617H139.209C139.327 22.9141 139.537 22.1667 139.838 21.5195C140.139 20.8724 140.517 20.3255 140.973 19.8789C141.428 19.4323 141.952 19.0951 142.545 18.8672C143.137 18.6393 143.789 18.5254 144.5 18.5254C145.247 18.5254 145.945 18.6576 146.592 18.9219C147.239 19.1862 147.795 19.5417 148.26 19.9883C148.734 20.4349 149.103 20.9544 149.367 21.5469C149.641 22.1302 149.777 22.7454 149.777 23.3926C149.777 24.3314 149.559 25.2702 149.121 26.209C148.456 27.6764 147.362 29.2396 145.84 30.8984C144.701 32.1471 143.775 33.1452 143.064 33.8926C142.363 34.6309 141.87 35.1276 141.588 35.3828H146.428C147.038 35.3828 147.553 35.3691 147.973 35.3418C148.392 35.3145 148.747 35.2507 149.039 35.1504C149.331 35.041 149.581 34.8906 149.791 34.6992C150.001 34.4987 150.206 34.2253 150.406 33.8789H150.912Z" fill="#FFD67E"/>
<rect x="180.426" y="21.877" width="10" height="10" transform="rotate(45 180.426 21.877)" fill="#FFD67E"/>
<rect x="109.715" y="21.877" width="10" height="10" transform="rotate(45 109.715 21.877)" fill="#FFD67E"/>
</svg>
