<svg width="290" height="58" viewBox="0 0 290 58" fill="none" xmlns="http://www.w3.org/2000/svg">
<path d="M0.117122 29.2266L5.89062 35.0001L11.6641 29.2266L5.89062 23.4531L0.117122 29.2266ZM289.887 29.2266L284.113 23.4531L278.34 29.2266L284.113 35.0001L289.887 29.2266ZM5.89062 30.2266H284.113V28.2266H5.89062V30.2266Z" fill="#FFD67E"/>
<rect x="145" y="2.35562" width="38" height="38" transform="rotate(45 145 2.35562)" fill="#090A0C" stroke="#FFD67E" stroke-width="2"/>
<path d="M139.426 22.7129C139.954 21.4642 140.62 20.5026 141.422 19.8281C142.233 19.1445 143.24 18.8027 144.443 18.8027C145.081 18.8027 145.665 18.9076 146.193 19.1172C146.722 19.3177 147.178 19.5911 147.561 19.9375C147.943 20.2839 148.24 20.6849 148.449 21.1406C148.659 21.5964 148.764 22.0703 148.764 22.5625C148.764 23.9206 147.916 25.3151 146.221 26.7461C147.369 27.1927 148.23 27.8307 148.805 28.6602C149.388 29.4805 149.68 30.4557 149.68 31.5859C149.68 32.5247 149.502 33.3906 149.146 34.1836C148.8 34.9766 148.308 35.6602 147.67 36.2344C147.032 36.8086 146.262 37.2552 145.359 37.5742C144.457 37.8932 143.459 38.0527 142.365 38.0527C141.727 38.0527 141.199 38.0072 140.779 37.916C140.369 37.834 140.041 37.7246 139.795 37.5879C139.549 37.4421 139.376 37.2826 139.275 37.1094C139.184 36.9362 139.139 36.763 139.139 36.5898C139.139 36.3255 139.243 36.0931 139.453 35.8926C139.672 35.6921 139.932 35.5918 140.232 35.5918C140.36 35.5918 140.46 35.5918 140.533 35.5918C140.606 35.5918 140.693 35.61 140.793 35.6465C140.902 35.6829 141.044 35.7422 141.217 35.8242C141.399 35.9062 141.654 36.0339 141.982 36.207C142.311 36.3802 142.575 36.5124 142.775 36.6035C142.985 36.6855 143.163 36.7493 143.309 36.7949C143.464 36.8314 143.605 36.8542 143.732 36.8633C143.86 36.8633 144.015 36.8633 144.197 36.8633C144.662 36.8633 145.104 36.7676 145.523 36.5762C145.943 36.3757 146.307 36.1068 146.617 35.7695C146.936 35.4323 147.187 35.0449 147.369 34.6074C147.561 34.1699 147.656 33.7096 147.656 33.2266C147.656 32.9258 147.62 32.6159 147.547 32.2969C147.483 31.9779 147.392 31.6725 147.273 31.3809C147.164 31.0801 147.032 30.8066 146.877 30.5605C146.731 30.3145 146.572 30.1139 146.398 29.959C146.207 29.7858 145.97 29.6126 145.688 29.4395C145.405 29.2663 145.1 29.1113 144.771 28.9746C144.443 28.8379 144.102 28.7285 143.746 28.6465C143.391 28.5645 143.04 28.5234 142.693 28.5234H142.256V28.1133C142.967 28.0221 143.687 27.7624 144.416 27.334C145.154 26.8965 145.683 26.3815 146.002 25.7891C146.33 25.1875 146.494 24.5267 146.494 23.8066C146.494 23.3418 146.412 22.918 146.248 22.5352C146.093 22.1432 145.874 21.8105 145.592 21.5371C145.318 21.2546 144.995 21.0404 144.621 20.8945C144.247 20.7396 143.846 20.6621 143.418 20.6621C141.996 20.6621 140.816 21.4186 139.877 22.9316L139.426 22.7129Z" fill="#FFD67E"/>
<rect x="180.355" y="22.1543" width="10" height="10" transform="rotate(45 180.355 22.1543)" fill="#FFD67E"/>
<rect x="109.645" y="22.1543" width="10" height="10" transform="rotate(45 109.645 22.1543)" fill="#FFD67E"/>
</svg>
