<svg width="290" height="58" viewBox="0 0 290 58" fill="none" xmlns="http://www.w3.org/2000/svg">
<path d="M0.191341 29.2266L5.96484 35.0001L11.7383 29.2266L5.96484 23.4531L0.191341 29.2266ZM289.961 29.2266L284.188 23.4531L278.414 29.2266L284.188 35.0001L289.961 29.2266ZM5.96484 30.2266H284.188V28.2266H5.96484V30.2266Z" fill="#FFD67E"/>
<rect x="145.074" y="2.35562" width="38" height="38" transform="rotate(45 145.074 2.35562)" fill="#090A0C" stroke="#FFD67E" stroke-width="2"/>
<path d="M151.107 30.8887V32.8301H148.619V37.7246H146.363V32.8301H138.516V31.0801L147.115 18.8027H148.619V30.8887H151.107ZM146.363 30.8887V21.6875L139.855 30.8887H146.363Z" fill="#FFD67E"/>
<rect x="180.43" y="22.1543" width="10" height="10" transform="rotate(45 180.43 22.1543)" fill="#FFD67E"/>
<rect x="109.719" y="22.1543" width="10" height="10" transform="rotate(45 109.719 22.1543)" fill="#FFD67E"/>
</svg>
