<svg width="290" height="102" viewBox="0 0 290 102" fill="none" xmlns="http://www.w3.org/2000/svg">
<path d="M0.878841 51.3477L6.65234 57.1212L12.4258 51.3477L6.65234 45.5742L0.878841 51.3477ZM109.277 51.3477L103.504 45.5742L97.7304 51.3477L103.504 57.1212L109.277 51.3477ZM6.65234 52.3477H103.504V50.3477H6.65234V52.3477Z" fill="#FFD67E"/>
<path d="M180.723 51.3477L186.496 57.1212L192.27 51.3477L186.496 45.5742L180.723 51.3477ZM289.121 51.3477L283.348 45.5742L277.574 51.3477L283.348 57.1212L289.121 51.3477ZM186.496 52.3477H283.348V50.3477H186.496V52.3477Z" fill="#FFD67E"/>
<rect x="144.184" y="2.13296" width="40" height="40" transform="rotate(45 144.184 2.13296)" stroke="#FFD67E" stroke-width="2"/>
<rect x="100.344" y="45.6916" width="8" height="8" transform="rotate(45 100.344 45.6916)" stroke="#FFD67E" stroke-width="2"/>
<rect x="190.117" y="45.6916" width="8" height="8" transform="rotate(45 190.117 45.6916)" stroke="#FFD67E" stroke-width="2"/>
<rect x="114.484" y="38.6212" width="18" height="18" transform="rotate(45 114.484 38.6212)" stroke="#FFD67E" stroke-width="2"/>
<rect x="144.184" y="43.5216" width="40" height="40" transform="rotate(45 144.184 43.5216)" stroke="#FFD67E" stroke-width="2"/>
<rect x="175.516" y="38.6212" width="18" height="18" transform="rotate(45 175.516 38.6212)" stroke="#FFD67E" stroke-width="2"/>
<rect x="168.445" y="45.6916" width="8" height="8" transform="rotate(45 168.445 45.6916)" stroke="#FFD67E" stroke-width="2"/>
<rect x="121.555" y="45.6916" width="8" height="8" transform="rotate(45 121.555 45.6916)" stroke="#FFD67E" stroke-width="2"/>
</svg>
