<svg width="219" height="299" viewBox="0 0 219 299" fill="none" xmlns="http://www.w3.org/2000/svg">
<path d="M192.39 293.084C192.39 296.03 190.003 298.417 187.057 298.417C184.112 298.417 181.724 296.03 181.724 293.084C181.724 290.138 184.112 287.751 187.057 287.751C190.003 287.751 192.39 290.138 192.39 293.084ZM198.951 167.607L198.487 168.493L198.951 167.607ZM185.608 293.2C185.18 292.852 185.115 292.222 185.463 291.793C185.811 291.365 186.441 291.3 186.87 291.648L185.608 293.2ZM183.771 289.057C184.19 289.418 184.237 290.049 183.876 290.468C183.516 290.886 182.885 290.933 182.466 290.573L183.771 289.057ZM180.985 289.277C180.572 288.91 180.534 288.278 180.901 287.865C181.268 287.452 181.9 287.415 182.313 287.782L180.985 289.277ZM179.473 285.174C179.873 285.555 179.889 286.187 179.509 286.588C179.128 286.988 178.495 287.004 178.095 286.623L179.473 285.174ZM176.607 285.18C176.214 284.792 176.211 284.159 176.599 283.766C176.987 283.374 177.621 283.37 178.013 283.759L176.607 285.18ZM175.316 280.977C175.692 281.382 175.668 282.015 175.263 282.39C174.859 282.766 174.226 282.743 173.85 282.338L175.316 280.977ZM172.548 280.901C172.181 280.488 172.22 279.856 172.633 279.49C173.047 279.124 173.679 279.162 174.045 279.576L172.548 280.901ZM171.472 276.503C171.814 276.936 171.739 277.565 171.306 277.907C170.872 278.249 170.244 278.175 169.901 277.742L171.472 276.503ZM168.713 276.188C168.385 275.744 168.478 275.118 168.922 274.79C169.366 274.461 169.992 274.554 170.321 274.998L168.713 276.188ZM168.097 271.761C168.392 272.228 168.253 272.846 167.787 273.141C167.32 273.436 166.702 273.297 166.407 272.831L168.097 271.761ZM165.37 271.117C165.095 270.638 165.259 270.027 165.737 269.751C166.216 269.475 166.827 269.639 167.103 270.118L165.37 271.117ZM165.331 266.686C165.56 267.188 165.338 267.781 164.835 268.01C164.333 268.239 163.74 268.017 163.511 267.514L165.331 266.686ZM162.722 265.649C162.521 265.134 162.775 264.554 163.289 264.353C163.804 264.152 164.384 264.406 164.585 264.921L162.722 265.649ZM163.409 261.275C163.544 261.81 163.22 262.354 162.685 262.49C162.149 262.626 161.606 262.302 161.47 261.766L163.409 261.275ZM161.039 259.786C160.94 259.243 161.301 258.722 161.844 258.623C162.387 258.525 162.908 258.885 163.007 259.429L161.039 259.786ZM162.603 255.638C162.62 256.19 162.186 256.651 161.634 256.668C161.082 256.684 160.621 256.25 160.604 255.698L162.603 255.638ZM160.62 253.668C160.646 253.116 161.114 252.69 161.666 252.715C162.217 252.741 162.644 253.209 162.618 253.761L160.62 253.668ZM163.091 249.979C162.981 250.52 162.453 250.87 161.911 250.759C161.37 250.648 161.021 250.12 161.132 249.579L163.091 249.979ZM161.616 247.588C161.766 247.056 162.319 246.747 162.85 246.897C163.382 247.047 163.691 247.6 163.541 248.131L161.616 247.588ZM164.832 244.533C164.611 245.039 164.022 245.271 163.516 245.051C163.009 244.83 162.777 244.241 162.998 243.735L164.832 244.533ZM163.866 241.894C164.116 241.402 164.718 241.206 165.21 241.456C165.703 241.707 165.899 242.309 165.649 242.801L163.866 241.894ZM167.578 239.465C167.278 239.929 166.659 240.061 166.195 239.761C165.732 239.46 165.599 238.841 165.9 238.378L167.578 239.465ZM167.045 236.697C167.366 236.247 167.991 236.143 168.44 236.464C168.889 236.785 168.993 237.41 168.672 237.859L167.045 236.697ZM171.05 234.796C170.696 235.219 170.065 235.275 169.641 234.921C169.218 234.566 169.162 233.936 169.516 233.512L171.05 234.796ZM170.848 231.974C171.216 231.563 171.848 231.527 172.26 231.896C172.672 232.264 172.707 232.896 172.339 233.308L170.848 231.974ZM175.016 230.48C174.626 230.871 173.993 230.872 173.602 230.482C173.211 230.091 173.211 229.458 173.601 229.067L175.016 230.48ZM175.039 227.661C175.438 227.279 176.071 227.293 176.452 227.693C176.834 228.092 176.82 228.725 176.421 229.106L175.039 227.661ZM179.311 226.452C178.897 226.818 178.266 226.78 177.9 226.366C177.534 225.952 177.572 225.32 177.986 224.954L179.311 226.452ZM179.492 223.644C179.912 223.285 180.543 223.333 180.902 223.753C181.262 224.173 181.213 224.804 180.793 225.163L179.492 223.644ZM183.822 222.641C183.393 222.989 182.763 222.924 182.415 222.495C182.067 222.066 182.133 221.436 182.562 221.088L183.822 222.641ZM184.114 219.842C184.547 219.498 185.176 219.57 185.519 220.003C185.863 220.435 185.791 221.064 185.358 221.408L184.114 219.842ZM188.471 218.978C188.033 219.315 187.405 219.233 187.068 218.795C186.732 218.357 186.814 217.729 187.252 217.393L188.471 218.978ZM188.834 216.183C189.274 215.849 189.901 215.935 190.235 216.375C190.57 216.814 190.484 217.442 190.044 217.776L188.834 216.183ZM193.203 215.394C192.761 215.725 192.134 215.636 191.803 215.194C191.472 214.752 191.561 214.125 192.003 213.794L193.203 215.394ZM193.595 212.601C194.037 212.27 194.664 212.36 194.995 212.802C195.326 213.244 195.236 213.871 194.794 214.202L193.595 212.601ZM197.968 211.82C197.527 212.152 196.9 212.065 196.567 211.624C196.234 211.183 196.322 210.556 196.763 210.223L197.968 211.82ZM198.341 209.027C198.78 208.693 199.407 208.777 199.742 209.217C200.077 209.656 199.992 210.283 199.553 210.618L198.341 209.027ZM202.706 208.178C202.272 208.52 201.644 208.446 201.302 208.012C200.96 207.578 201.034 206.949 201.468 206.608L202.706 208.178ZM202.998 205.388C203.428 205.041 204.057 205.108 204.404 205.537C204.751 205.967 204.684 206.596 204.255 206.943L202.998 205.388ZM207.336 204.372C206.918 204.734 206.287 204.689 205.925 204.271C205.563 203.854 205.608 203.222 206.026 202.861L207.336 204.372ZM207.475 201.576C207.884 201.204 208.516 201.235 208.888 201.644C209.259 202.052 209.229 202.685 208.82 203.056L207.475 201.576ZM211.708 200.267C211.324 200.664 210.691 200.676 210.294 200.292C209.896 199.909 209.885 199.276 210.268 198.878L211.708 200.267ZM211.611 197.423C211.976 197.008 212.607 196.967 213.022 197.331C213.437 197.696 213.478 198.328 213.114 198.743L211.611 197.423ZM215.623 195.512C215.316 195.971 214.694 196.094 214.235 195.787C213.776 195.48 213.653 194.859 213.961 194.4L215.623 195.512ZM214.924 192.813C215.188 192.328 215.795 192.149 216.281 192.413C216.766 192.676 216.945 193.284 216.681 193.769L214.924 192.813ZM218.225 189.835C218.098 190.372 217.56 190.705 217.022 190.578C216.485 190.451 216.152 189.913 216.279 189.375L218.225 189.835ZM216.544 187.593C216.576 187.041 217.05 186.621 217.601 186.654C218.152 186.686 218.573 187.16 218.54 187.711L216.544 187.593ZM218.008 183.462C218.174 183.989 217.881 184.55 217.354 184.715C216.827 184.881 216.265 184.588 216.1 184.061L218.008 183.462ZM215.42 182.379C215.175 181.884 215.378 181.284 215.873 181.039C216.368 180.794 216.968 180.997 217.213 181.492L215.42 182.379ZM214.916 178.011C215.268 178.436 215.208 179.067 214.782 179.418C214.357 179.77 213.726 179.71 213.375 179.284L214.916 178.011ZM212.11 177.88C211.725 177.485 211.733 176.852 212.128 176.466C212.524 176.081 213.157 176.089 213.543 176.484L212.11 177.88ZM210.459 173.706C210.89 174.052 210.958 174.681 210.613 175.112C210.267 175.543 209.637 175.611 209.207 175.266L210.459 173.706ZM207.76 174.154C207.315 173.827 207.22 173.201 207.548 172.756C207.875 172.312 208.501 172.216 208.946 172.544L207.76 174.154ZM205.516 170.212C205.983 170.507 206.122 171.125 205.827 171.592C205.532 172.059 204.915 172.198 204.448 171.903L205.516 170.212ZM202.882 170.942C202.407 170.659 202.252 170.045 202.535 169.571C202.818 169.097 203.432 168.942 203.906 169.224L202.882 170.942ZM200.367 167.226C200.854 167.487 201.037 168.093 200.776 168.58C200.515 169.067 199.908 169.25 199.422 168.989L200.367 167.226ZM197.625 168.047C197.134 167.796 196.939 167.193 197.191 166.702C197.442 166.21 198.045 166.015 198.536 166.267L197.625 168.047ZM194.944 164.507C195.444 164.742 195.659 165.337 195.424 165.837C195.189 166.337 194.594 166.552 194.094 166.318L194.944 164.507ZM192.281 165.484C191.778 165.257 191.553 164.665 191.78 164.162C192.007 163.658 192.599 163.434 193.102 163.661L192.281 165.484ZM189.455 162.08C189.965 162.293 190.205 162.878 189.993 163.388C189.78 163.898 189.194 164.138 188.685 163.926L189.455 162.08ZM186.845 163.172C186.332 162.966 186.084 162.383 186.29 161.871C186.496 161.359 187.079 161.11 187.591 161.317L186.845 163.172ZM183.875 159.872C184.392 160.066 184.654 160.643 184.459 161.16C184.265 161.677 183.688 161.938 183.171 161.744L183.875 159.872ZM181.315 161.057C180.797 160.867 180.529 160.294 180.718 159.775C180.907 159.256 181.481 158.988 182 159.177L181.315 161.057ZM178.226 157.842C178.749 158.022 179.026 158.591 178.847 159.113C178.667 159.635 178.098 159.913 177.576 159.734L178.226 157.842ZM175.711 159.101C175.187 158.926 174.905 158.359 175.08 157.836C175.255 157.312 175.822 157.029 176.346 157.205L175.711 159.101ZM172.529 155.96C173.056 156.127 173.346 156.69 173.179 157.216C173.011 157.742 172.449 158.033 171.923 157.866L172.529 155.96ZM170.047 157.275C169.519 157.111 169.225 156.551 169.389 156.023C169.553 155.496 170.114 155.201 170.641 155.366L170.047 157.275ZM166.829 154.203C167.358 154.362 167.659 154.919 167.501 155.448C167.343 155.977 166.785 156.278 166.256 156.12L166.829 154.203ZM164.338 155.552C163.808 155.396 163.504 154.84 163.66 154.31C163.815 153.781 164.371 153.477 164.901 153.632L164.338 155.552ZM161.094 152.533C161.625 152.684 161.933 153.237 161.782 153.769C161.631 154.3 161.078 154.608 160.547 154.457L161.094 152.533ZM158.632 153.917C158.1 153.768 157.79 153.216 157.939 152.684C158.088 152.152 158.64 151.842 159.172 151.991L158.632 153.917ZM155.332 150.927C155.865 151.073 156.178 151.623 156.032 152.156C155.887 152.689 155.336 153.002 154.804 152.856L155.332 150.927ZM152.893 152.336C152.36 152.191 152.046 151.642 152.19 151.109C152.335 150.576 152.884 150.261 153.417 150.405L152.893 152.336ZM149.559 149.367C150.093 149.509 150.41 150.058 150.267 150.591C150.124 151.125 149.576 151.442 149.043 151.299L149.559 149.367ZM147.131 150.789C146.597 150.647 146.279 150.1 146.421 149.566C146.563 149.032 147.111 148.715 147.645 148.856L147.131 150.789ZM143.803 147.839C144.337 147.98 144.656 148.527 144.515 149.061C144.374 149.595 143.826 149.913 143.292 149.772L143.803 147.839ZM141.362 149.263C140.828 149.122 140.509 148.575 140.65 148.041C140.791 147.507 141.338 147.188 141.872 147.329L141.362 149.263ZM138.036 146.317C138.57 146.458 138.889 147.005 138.748 147.539C138.607 148.073 138.059 148.392 137.525 148.25L138.036 146.317ZM135.603 147.742C135.069 147.601 134.75 147.053 134.892 146.519C135.033 145.985 135.581 145.667 136.114 145.809L135.603 147.742ZM132.267 144.786C132.801 144.928 133.118 145.476 132.975 146.01C132.833 146.544 132.285 146.861 131.751 146.718L132.267 144.786ZM129.834 146.205C129.301 146.061 128.985 145.513 129.128 144.979C129.271 144.446 129.82 144.13 130.353 144.273L129.834 146.205ZM126.517 143.235C127.05 143.38 127.364 143.93 127.218 144.463C127.073 144.995 126.523 145.309 125.99 145.164L126.517 143.235ZM124.067 144.637C123.534 144.49 123.221 143.939 123.368 143.407C123.515 142.875 124.065 142.562 124.598 142.709L124.067 144.637ZM120.778 141.645C121.31 141.795 121.62 142.347 121.47 142.879C121.32 143.41 120.768 143.72 120.236 143.57L120.778 141.645ZM118.319 143.027C117.788 142.876 117.48 142.323 117.632 141.791C117.783 141.26 118.336 140.953 118.867 141.104L118.319 143.027ZM115.053 140.002C115.583 140.157 115.887 140.713 115.732 141.243C115.576 141.773 115.021 142.077 114.491 141.921L115.053 140.002ZM112.581 141.358C112.052 141.2 111.751 140.643 111.908 140.114C112.065 139.585 112.622 139.283 113.152 139.441L112.581 141.358ZM109.353 138.292C109.881 138.454 110.177 139.014 110.015 139.542C109.853 140.07 109.293 140.366 108.765 140.204L109.353 138.292ZM106.861 139.614C106.334 139.449 106.041 138.888 106.205 138.361C106.37 137.834 106.931 137.54 107.458 137.705L106.861 139.614ZM103.681 136.501C104.206 136.672 104.494 137.236 104.323 137.761C104.153 138.287 103.589 138.574 103.063 138.404L103.681 136.501ZM101.169 137.782C100.644 137.609 100.36 137.043 100.534 136.519C100.707 135.994 101.273 135.71 101.797 135.884L101.169 137.782ZM98.042 134.614C98.564 134.794 98.8411 135.364 98.6609 135.886C98.4807 136.408 97.9114 136.685 97.3894 136.505L98.042 134.614ZM95.5058 135.847C94.985 135.664 94.7117 135.093 94.8955 134.572C95.0792 134.051 95.6504 133.778 96.1712 133.961L95.5058 135.847ZM92.4463 132.617C92.9644 132.809 93.2294 133.384 93.0382 133.902C92.847 134.42 92.2719 134.685 91.7538 134.494L92.4463 132.617ZM89.8829 133.795C89.3662 133.6 89.1057 133.023 89.3008 132.506C89.496 131.99 90.0731 131.729 90.5898 131.924L89.8829 133.795ZM86.8967 130.495C87.4101 130.698 87.6612 131.28 87.4576 131.793C87.254 132.306 86.6727 132.557 86.1594 132.354L86.8967 130.495ZM84.3081 131.61C83.7965 131.402 83.5504 130.819 83.7585 130.307C83.9665 129.796 84.5499 129.55 85.0615 129.758L84.3081 131.61ZM81.4072 128.233C81.9149 128.45 82.1503 129.038 81.9329 129.546C81.7155 130.054 81.1277 130.289 80.62 130.072L81.4072 128.233ZM78.7874 129.277C78.2818 129.054 78.0521 128.464 78.2744 127.959C78.4967 127.453 79.0867 127.223 79.5923 127.446L78.7874 129.277ZM75.99 125.819C76.491 126.051 76.7086 126.646 76.4761 127.147C76.2437 127.648 75.6491 127.865 75.1481 127.633L75.99 125.819ZM73.3377 126.781C72.8392 126.543 72.628 125.946 72.8658 125.448C73.1036 124.949 73.7005 124.738 74.199 124.976L73.3377 126.781ZM70.6505 123.234C71.1435 123.483 71.3414 124.085 71.0924 124.578C70.8435 125.071 70.242 125.268 69.749 125.019L70.6505 123.234ZM67.9717 124.109C67.4817 123.854 67.2909 123.25 67.5456 122.76C67.8003 122.27 68.4041 122.08 68.8941 122.334L67.9717 124.109ZM65.4081 120.468C65.8918 120.735 66.0676 121.343 65.801 121.827C65.5343 122.31 64.9261 122.486 64.4424 122.22L65.4081 120.468ZM62.697 121.243C62.2168 120.97 62.0488 120.359 62.3216 119.879C62.5944 119.399 63.2049 119.231 63.6851 119.504L62.697 121.243ZM60.279 117.508C60.7518 117.794 60.9035 118.409 60.618 118.881C60.3324 119.354 59.7177 119.506 59.2449 119.22L60.279 117.508ZM57.5384 118.173C57.0696 117.881 56.9264 117.264 57.2185 116.796C57.5106 116.327 58.1273 116.184 58.5961 116.476L57.5384 118.173ZM55.2768 114.341C55.737 114.647 55.8624 115.267 55.5569 115.727C55.2514 116.188 54.6308 116.313 54.1707 116.007L55.2768 114.341ZM52.511 114.888C52.0555 114.576 51.9393 113.953 52.2516 113.498C52.5639 113.042 53.1863 112.926 53.6418 113.238L52.511 114.888ZM50.4236 110.959C50.8693 111.285 50.9662 111.911 50.6401 112.357C50.3139 112.802 49.6882 112.899 49.2425 112.573L50.4236 110.959ZM47.6342 111.377C47.1938 111.043 47.1068 110.416 47.44 109.976C47.7732 109.535 48.4003 109.448 48.8408 109.782L47.6342 111.377ZM45.7374 107.354C46.1667 107.701 46.2332 108.331 45.8858 108.76C45.5385 109.19 44.9088 109.256 44.4794 108.909L45.7374 107.354ZM42.9327 107.636C42.5092 107.281 42.4533 106.651 42.8078 106.227C43.1623 105.804 43.793 105.748 44.2165 106.102L42.9327 107.636ZM41.2333 103.517C41.6444 103.886 41.6786 104.518 41.3097 104.929C40.9409 105.34 40.3087 105.374 39.8976 105.006L41.2333 103.517ZM38.4216 103.658C38.017 103.282 37.9938 102.649 38.3698 102.245C38.7457 101.84 39.3785 101.817 39.783 102.193L38.4216 103.658ZM36.9472 99.4621C37.3382 99.8522 37.3388 100.485 36.9487 100.876C36.5585 101.267 35.9254 101.268 35.5345 100.878L36.9472 99.4621ZM34.1227 99.4431C33.7389 99.046 33.7498 98.4129 34.1469 98.0291C34.5441 97.6454 35.1771 97.6562 35.5609 98.0533L34.1227 99.4431ZM32.8837 95.18C33.2528 95.5909 33.2188 96.2232 32.8079 96.5922C32.397 96.9612 31.7648 96.9273 31.3958 96.5164L32.8837 95.18ZM30.0699 95.0125C29.7085 94.5949 29.7541 93.9633 30.1717 93.6019C30.5894 93.2406 31.2209 93.2861 31.5823 93.7038L30.0699 95.0125ZM29.0507 90.6656C29.3962 91.0964 29.3271 91.7258 28.8963 92.0713C28.4655 92.4169 27.8361 92.3478 27.4905 91.9169L29.0507 90.6656ZM26.2601 90.3536C25.9226 89.9164 26.0034 89.2884 26.4405 88.9509C26.8776 88.6134 27.5056 88.6941 27.8432 89.1312L26.2601 90.3536ZM25.496 85.9715C25.8171 86.4209 25.713 87.0455 25.2636 87.3665C24.8142 87.6875 24.1896 87.5834 23.8686 87.134L25.496 85.9715ZM22.7083 85.477C22.3958 85.0217 22.5116 84.3992 22.9669 84.0866C23.4223 83.7741 24.0447 83.8899 24.3573 84.3452L22.7083 85.477ZM22.2024 81.0784C22.498 81.5449 22.3594 82.1627 21.8929 82.4583C21.4264 82.7539 20.8085 82.6154 20.513 82.1488L22.2024 81.0784ZM19.4559 80.4463C19.1689 79.9744 19.3188 79.3593 19.7906 79.0723C20.2625 78.7853 20.8777 78.9351 21.1647 79.407L19.4559 80.4463ZM19.1619 75.974C19.4315 76.456 19.2592 77.0653 18.7772 77.3349C18.2951 77.6044 17.6859 77.4322 17.4163 76.9502L19.1619 75.974ZM16.4672 75.2171C16.2061 74.7304 16.3891 74.1243 16.8758 73.8632C17.3625 73.6022 17.9687 73.7852 18.2297 74.2719L16.4672 75.2171ZM16.4341 70.7774C16.6779 71.2729 16.4738 71.8723 15.9782 72.1161C15.4827 72.3598 14.8833 72.1557 14.6395 71.6602L16.4341 70.7774ZM13.7617 69.8356C13.5266 69.3358 13.7411 68.7401 14.2409 68.505C14.7406 68.2699 15.3363 68.4845 15.5714 68.9842L13.7617 69.8356ZM13.9612 65.4052C14.1793 65.9126 13.9448 66.5007 13.4375 66.7188C12.9301 66.937 12.3419 66.7025 12.1238 66.1951L13.9612 65.4052ZM11.3528 64.3601C11.1431 63.8492 11.3872 63.2649 11.8981 63.0552C12.409 62.8455 12.9932 63.0896 13.203 63.6005L11.3528 64.3601ZM11.7549 59.9023C11.948 60.4198 11.6849 60.9957 11.1675 61.1887C10.65 61.3817 10.0741 61.1187 9.88104 60.6013L11.7549 59.9023ZM9.18982 58.7021C9.00505 58.1816 9.27718 57.6099 9.79764 57.4251C10.3181 57.2404 10.8898 57.5125 11.0746 58.033L9.18982 58.7021ZM9.82866 54.3467C9.99762 54.8725 9.70834 55.4357 9.18254 55.6047C8.65674 55.7737 8.09352 55.4844 7.92456 54.9586L9.82866 54.3467ZM7.32541 53.0451C7.16429 52.5168 7.46193 51.9579 7.9902 51.7968C8.51846 51.6357 9.0773 51.9334 9.23842 52.4616L7.32541 53.0451ZM8.12482 48.6068C8.27034 49.1396 7.95642 49.6894 7.42365 49.835C6.89088 49.9805 6.34102 49.6666 6.1955 49.1338L8.12482 48.6068ZM5.69331 47.2444C5.55508 46.7097 5.8765 46.1642 6.41121 46.0259C6.94591 45.8877 7.49144 46.2091 7.62965 46.7438L5.69331 47.2444ZM6.70103 42.9395C6.82481 43.4777 6.48883 44.0144 5.95061 44.1381C5.41237 44.2619 4.8757 43.9259 4.75192 43.3877L6.70103 42.9395ZM4.31313 41.42C4.19647 40.8802 4.53954 40.348 5.07936 40.2313C5.61919 40.1147 6.15135 40.4577 6.26801 40.9976L4.31313 41.42ZM5.47559 37.086C5.57834 37.6286 5.22174 38.1518 4.67909 38.2546C4.13646 38.3573 3.61325 38.0007 3.51051 37.4581L5.47559 37.086ZM3.15784 35.5321C3.06161 34.9882 3.42448 34.4694 3.96832 34.3731C4.51216 34.2769 5.03104 34.6398 5.12724 35.1836L3.15784 35.5321ZM4.48866 31.3058C4.57201 31.8517 4.19699 32.3619 3.65103 32.4452C3.10507 32.5286 2.59491 32.1535 2.51157 31.6076L4.48866 31.3058ZM2.21832 29.6088C2.14131 29.0619 2.52223 28.5562 3.06912 28.4791C3.61601 28.4021 4.12178 28.783 4.19879 29.3299L2.21832 29.6088ZM3.68683 25.3716C3.75159 25.9201 3.35947 26.4172 2.81099 26.482C2.26251 26.5467 1.76538 26.1546 1.70062 25.6061L3.68683 25.3716ZM1.48161 23.6635C1.42259 23.1144 1.8199 22.6214 2.36903 22.5624C2.91815 22.5034 3.41115 22.9007 3.47015 23.4498L1.48161 23.6635ZM3.09076 19.5391C3.13849 20.0893 2.73114 20.574 2.18091 20.6217C1.63069 20.6694 1.14597 20.2621 1.09824 19.7119L3.09076 19.5391ZM0.934189 17.7025C0.891998 17.1518 1.30421 16.6712 1.85489 16.629C2.40556 16.5868 2.88617 16.9991 2.92834 17.5497L0.934189 17.7025ZM2.66061 13.5338C2.69199 14.0852 2.27043 14.5576 1.71904 14.589C1.16765 14.6204 0.695221 14.1988 0.663834 13.6474L2.66061 13.5338ZM0.56218 11.7053C0.535797 11.1536 0.961609 10.685 1.51326 10.6587C2.06491 10.6323 2.53351 11.0581 2.55989 11.6098L0.56218 11.7053ZM2.408 7.70048C2.42458 8.25252 1.99051 8.71347 1.43846 8.73004C0.886429 8.74662 0.425476 8.31254 0.408905 7.7605L2.408 7.70048ZM0.357544 5.75757C0.345779 5.20541 0.783859 4.74826 1.33603 4.7365C1.88818 4.72474 2.34534 5.16282 2.35709 5.71498L0.357544 5.75757ZM2.30592 1.68164C2.30826 2.23392 1.86243 2.68351 1.31013 2.68583C0.757858 2.68815 0.308273 2.24232 0.305954 1.69004L2.30592 1.68164ZM186.432 293.864C186.155 293.642 185.88 293.421 185.608 293.2L186.87 291.648C187.138 291.866 187.409 292.084 187.682 292.304L186.432 293.864ZM182.466 290.573C181.962 290.139 181.469 289.707 180.985 289.277L182.313 287.782C182.789 288.205 183.275 288.63 183.771 289.057L182.466 290.573ZM178.095 286.623C177.587 286.14 177.09 285.659 176.607 285.18L178.013 283.759C178.487 284.228 178.974 284.699 179.473 285.174L178.095 286.623ZM173.85 282.338C173.403 281.857 172.969 281.378 172.548 280.901L174.045 279.576C174.456 280.04 174.88 280.507 175.316 280.977L173.85 282.338ZM169.901 277.742C169.491 277.221 169.095 276.703 168.713 276.188L170.321 274.998C170.69 275.496 171.073 275.998 171.472 276.503L169.901 277.742ZM166.407 272.831C166.043 272.256 165.698 271.684 165.37 271.117L167.103 270.118C167.416 270.661 167.748 271.209 168.097 271.761L166.407 272.831ZM163.511 267.514C163.226 266.888 162.963 266.266 162.722 265.649L164.585 264.921C164.812 265.504 165.061 266.092 165.331 266.686L163.511 267.514ZM161.47 261.766C161.301 261.101 161.158 260.441 161.039 259.786L163.007 259.429C163.117 260.038 163.251 260.653 163.409 261.275L161.47 261.766ZM160.604 255.698C160.583 255.015 160.589 254.338 160.62 253.668L162.618 253.761C162.589 254.38 162.584 255.006 162.603 255.638L160.604 255.698ZM161.132 249.579C161.269 248.908 161.431 248.245 161.616 247.588L163.541 248.131C163.368 248.742 163.218 249.358 163.091 249.979L161.132 249.579ZM162.998 243.735C163.267 243.115 163.557 242.502 163.866 241.894L165.649 242.801C165.357 243.374 165.085 243.951 164.832 244.533L162.998 243.735ZM165.9 238.378C166.267 237.812 166.649 237.252 167.045 236.697L168.672 237.859C168.293 238.391 167.928 238.926 167.578 239.465L165.9 238.378ZM169.516 233.512C169.949 232.995 170.393 232.482 170.848 231.974L172.339 233.308C171.898 233.8 171.468 234.296 171.05 234.796L169.516 233.512ZM173.601 229.067C174.072 228.595 174.552 228.126 175.039 227.661L176.421 229.106C175.945 229.562 175.476 230.02 175.016 230.48L173.601 229.067ZM177.986 224.954C178.483 224.514 178.986 224.078 179.492 223.644L180.793 225.163C180.294 225.59 179.8 226.02 179.311 226.452L177.986 224.954ZM182.562 221.088C183.077 220.67 183.594 220.255 184.114 219.842L185.358 221.408C184.843 221.817 184.331 222.228 183.822 222.641L182.562 221.088ZM187.252 217.393C187.779 216.987 188.307 216.584 188.834 216.183L190.044 217.776C189.519 218.175 188.994 218.576 188.471 218.978L187.252 217.393ZM192.003 213.794C192.536 213.394 193.067 212.997 193.595 212.601L194.794 214.202C194.265 214.598 193.735 214.995 193.203 215.394L192.003 213.794ZM196.763 210.223C197.293 209.823 197.82 209.424 198.341 209.027L199.553 210.618C199.029 211.017 198.5 211.418 197.968 211.82L196.763 210.223ZM201.468 206.608C201.986 206.199 202.496 205.793 202.998 205.388L204.255 206.943C203.746 207.354 203.23 207.766 202.706 208.178L201.468 206.608ZM206.026 202.861C206.522 202.431 207.005 202.003 207.475 201.576L208.82 203.056C208.337 203.495 207.842 203.933 207.336 204.372L206.026 202.861ZM210.268 198.878C210.738 198.391 211.186 197.906 211.611 197.423L213.114 198.743C212.666 199.252 212.197 199.76 211.708 200.267L210.268 198.878ZM213.961 194.4C214.316 193.868 214.638 193.34 214.924 192.813L216.681 193.769C216.363 194.354 216.009 194.935 215.623 195.512L213.961 194.4ZM216.279 189.375C216.419 188.78 216.508 188.186 216.544 187.593L218.54 187.711C218.498 188.425 218.391 189.133 218.225 189.835L216.279 189.375ZM216.1 184.061C215.927 183.507 215.701 182.947 215.42 182.379L217.213 181.492C217.538 182.148 217.802 182.805 218.008 183.462L216.1 184.061ZM213.375 179.284C212.992 178.821 212.571 178.353 212.11 177.88L213.543 176.484C214.039 176.994 214.497 177.502 214.916 178.011L213.375 179.284ZM209.207 175.266C208.749 174.898 208.267 174.527 207.76 174.154L208.946 172.544C209.474 172.933 209.978 173.32 210.459 173.706L209.207 175.266ZM204.448 171.903C203.944 171.584 203.422 171.264 202.882 170.942L203.906 169.224C204.46 169.555 204.997 169.884 205.516 170.212L204.448 171.903ZM199.422 168.989C199.115 168.824 198.803 168.659 198.487 168.493L199.415 166.721C199.737 166.89 200.054 167.058 200.367 167.226L199.422 168.989ZM198.487 168.493C198.201 168.344 197.914 168.195 197.625 168.047L198.536 166.267C198.831 166.418 199.123 166.569 199.415 166.721L198.487 168.493ZM194.094 166.318C193.495 166.036 192.891 165.759 192.281 165.484L193.102 163.661C193.721 163.939 194.335 164.221 194.944 164.507L194.094 166.318ZM188.685 163.926C188.076 163.672 187.463 163.421 186.845 163.172L187.591 161.317C188.217 161.568 188.838 161.823 189.455 162.08L188.685 163.926ZM183.171 161.744C182.557 161.512 181.938 161.283 181.315 161.057L182 159.177C182.629 159.407 183.254 159.638 183.875 159.872L183.171 161.744ZM177.576 159.734C176.958 159.521 176.336 159.31 175.711 159.101L176.346 157.205C176.976 157.415 177.603 157.628 178.226 157.842L177.576 159.734ZM171.923 157.866C171.3 157.667 170.675 157.471 170.047 157.275L170.641 155.366C171.273 155.562 171.903 155.76 172.529 155.96L171.923 157.866ZM166.256 156.12C165.619 155.929 164.98 155.74 164.338 155.552L164.901 153.632C165.546 153.822 166.189 154.012 166.829 154.203L166.256 156.12ZM160.547 154.457C159.911 154.276 159.272 154.096 158.632 153.917L159.172 151.991C159.815 152.171 160.455 152.352 161.094 152.533L160.547 154.457ZM154.804 152.856C154.169 152.682 153.532 152.509 152.893 152.336L153.417 150.405C154.057 150.579 154.695 150.753 155.332 150.927L154.804 152.856ZM149.043 151.299C148.407 151.129 147.769 150.959 147.131 150.789L147.645 148.856C148.284 149.026 148.922 149.197 149.559 149.367L149.043 151.299ZM143.292 149.772C142.65 149.603 142.007 149.433 141.362 149.263L141.872 147.329C142.517 147.499 143.161 147.669 143.803 147.839L143.292 149.772ZM137.525 148.25C136.885 148.081 136.244 147.912 135.603 147.742L136.114 145.809C136.756 145.978 137.396 146.148 138.036 146.317L137.525 148.25ZM131.751 146.718C131.113 146.548 130.474 146.376 129.834 146.205L130.353 144.273C130.992 144.445 131.63 144.616 132.267 144.786L131.751 146.718ZM125.99 145.164C125.349 144.989 124.708 144.813 124.067 144.637L124.598 142.709C125.238 142.885 125.877 143.06 126.517 143.235L125.99 145.164ZM120.236 143.57C119.597 143.39 118.958 143.21 118.319 143.027L118.867 141.104C119.504 141.285 120.141 141.466 120.778 141.645L120.236 143.57ZM114.491 141.921C113.854 141.735 113.218 141.547 112.581 141.358L113.152 139.441C113.785 139.629 114.419 139.816 115.053 140.002L114.491 141.921ZM108.765 140.204C108.13 140.009 107.496 139.812 106.861 139.614L107.458 137.705C108.089 137.902 108.721 138.098 109.353 138.292L108.765 140.204ZM103.063 138.404C102.431 138.198 101.8 137.991 101.169 137.782L101.797 135.884C102.425 136.091 103.052 136.297 103.681 136.501L103.063 138.404ZM97.3894 136.505C96.7608 136.288 96.1329 136.069 95.5058 135.847L96.1712 133.961C96.7939 134.181 97.4175 134.399 98.042 134.614L97.3894 136.505ZM91.7538 134.494C91.1292 134.263 90.5055 134.03 89.8829 133.795L90.5898 131.924C91.2075 132.158 91.8264 132.389 92.4463 132.617L91.7538 134.494ZM86.1594 132.354C85.5411 132.109 84.924 131.861 84.3081 131.61L85.0615 129.758C85.6719 130.006 86.2837 130.252 86.8967 130.495L86.1594 132.354ZM80.62 130.072C80.0077 129.809 79.3968 129.544 78.7874 129.277L79.5923 127.446C80.1957 127.711 80.8007 127.973 81.4072 128.233L80.62 130.072ZM75.1481 127.633C74.5429 127.352 73.9394 127.068 73.3377 126.781L74.199 124.976C74.7942 125.26 75.3912 125.541 75.99 125.819L75.1481 127.633ZM69.749 125.019C69.1546 124.719 68.5622 124.416 67.9717 124.109L68.8941 122.334C69.4775 122.638 70.063 122.937 70.6505 123.234L69.749 125.019ZM64.4424 122.22C63.8584 121.898 63.2766 121.572 62.697 121.243L63.6851 119.504C64.2571 119.829 64.8315 120.15 65.4081 120.468L64.4424 122.22ZM59.2449 119.22C58.6736 118.875 58.1048 118.526 57.5384 118.173L58.5961 116.476C59.1545 116.824 59.7155 117.168 60.279 117.508L59.2449 119.22ZM54.1707 116.007C53.6148 115.638 53.0615 115.265 52.511 114.888L53.6418 113.238C54.1841 113.61 54.7291 113.978 55.2768 114.341L54.1707 116.007ZM49.2425 112.573C48.7035 112.179 48.1674 111.78 47.6342 111.377L48.8408 109.782C49.3654 110.178 49.893 110.571 50.4236 110.959L49.2425 112.573ZM44.4794 108.909C43.9607 108.489 43.4451 108.065 42.9327 107.636L44.2165 106.102C44.7203 106.524 45.2272 106.941 45.7374 107.354L44.4794 108.909ZM39.8976 105.006C39.4022 104.561 38.9102 104.112 38.4216 103.658L39.783 102.193C40.2631 102.639 40.7465 103.08 41.2333 103.517L39.8976 105.006ZM35.5345 100.878C35.0603 100.405 34.5897 99.9264 34.1227 99.4431L35.5609 98.0533C36.0194 98.5278 36.4816 98.9974 36.9472 99.4621L35.5345 100.878ZM31.3958 96.5164C30.9501 96.0202 30.5081 95.5189 30.0699 95.0125L31.5823 93.7038C32.0124 94.2009 32.4462 94.6929 32.8837 95.18L31.3958 96.5164ZM27.4905 91.9169C27.0766 91.4009 26.6665 90.8798 26.2601 90.3536L27.8432 89.1312C28.2419 89.6477 28.6445 90.1591 29.0507 90.6656L27.4905 91.9169ZM23.8686 87.134C23.4778 86.587 23.0911 86.0347 22.7083 85.477L24.3573 84.3452C24.7329 84.8925 25.1125 85.4346 25.496 85.9715L23.8686 87.134ZM20.513 82.1488C20.1566 81.5865 19.8043 81.019 19.4559 80.4463L21.1647 79.407C21.5067 79.9693 21.8526 80.5264 22.2024 81.0784L20.513 82.1488ZM17.4163 76.9502C17.0961 76.3775 16.7797 75.7998 16.4672 75.2171L18.2297 74.2719C18.5367 74.8442 18.8474 75.4116 19.1619 75.974L17.4163 76.9502ZM14.6395 71.6602C14.3429 71.0571 14.0502 70.449 13.7617 69.8356L15.5714 68.9842C15.8551 69.5871 16.1426 70.1848 16.4341 70.7774L14.6395 71.6602ZM12.1238 66.1951C11.8629 65.5883 11.6059 64.9766 11.3528 64.3601L13.203 63.6005C13.4519 64.207 13.7047 64.8085 13.9612 65.4052L12.1238 66.1951ZM9.88104 60.6013C9.64674 59.9731 9.41632 59.34 9.18982 58.7021L11.0746 58.033C11.2975 58.661 11.5243 59.2841 11.7549 59.9023L9.88104 60.6013ZM7.92456 54.9586C7.72108 54.3254 7.52136 53.6876 7.32541 53.0451L9.23842 52.4616C9.43149 53.0947 9.62825 53.723 9.82866 54.3467L7.92456 54.9586ZM6.1955 49.1338C6.02464 48.5083 5.85722 47.8785 5.69331 47.2444L7.62965 46.7438C7.79131 47.3692 7.95638 47.9901 8.12482 48.6068L6.1955 49.1338ZM4.75192 43.3877C4.60208 42.7362 4.45581 42.0803 4.31313 41.42L6.26801 40.9976C6.40883 41.6493 6.55319 42.2966 6.70103 42.9395L4.75192 43.3877ZM3.51051 37.4581C3.38969 36.8201 3.27213 36.1781 3.15784 35.5321L5.12724 35.1836C5.24016 35.8218 5.35628 36.4559 5.47559 37.086L3.51051 37.4581ZM2.51157 31.6076C2.41048 30.9454 2.31273 30.2792 2.21832 29.6088L4.19879 29.3299C4.29211 29.9927 4.38875 30.6513 4.48866 31.3058L2.51157 31.6076ZM1.70062 25.6061C1.6246 24.9623 1.55159 24.3147 1.48161 23.6635L3.47015 23.4498C3.5394 24.0941 3.61163 24.7347 3.68683 25.3716L1.70062 25.6061ZM1.09824 19.7119C1.04047 19.0458 0.985779 18.376 0.934189 17.7025L2.92834 17.5497C2.97943 18.2166 3.03357 18.8797 3.09076 19.5391L1.09824 19.7119ZM0.663834 13.6474C0.627197 13.0034 0.593292 12.356 0.56218 11.7053L2.55989 11.6098C2.59073 12.2545 2.6243 12.8958 2.66061 13.5338L0.663834 13.6474ZM0.408905 7.7605C0.388962 7.09626 0.371841 6.42863 0.357544 5.75757L2.35709 5.71498C2.37126 6.38026 2.38824 7.04209 2.408 7.70048L0.408905 7.7605ZM0.305954 1.69004C0.304504 1.34761 0.303787 1.00432 0.303787 0.660156H2.30379C2.30379 1.00153 2.3045 1.34202 2.30592 1.68164L0.305954 1.69004Z" fill="url(#paint0_linear_562_4509)"/>
<defs>
<linearGradient id="paint0_linear_562_4509" x1="185.291" y1="293.084" x2="1.30613" y2="0.660239" gradientUnits="userSpaceOnUse">
<stop stop-color="#FFEF99"/>
<stop offset="1" stop-color="#FFEF99" stop-opacity="0"/>
</linearGradient>
</defs>
</svg>
