<svg width="250" height="299" viewBox="0 0 250 299" fill="none" xmlns="http://www.w3.org/2000/svg">
<path d="M57.448 293.084C57.448 296.03 59.8358 298.417 62.7814 298.417C65.7269 298.417 68.1147 296.03 68.1147 293.084C68.1147 290.138 65.7269 287.751 62.7814 287.751C59.8358 287.751 57.448 290.138 57.448 293.084ZM16.8196 126.499L17.4819 127.248L16.8196 126.499ZM64.2319 293.197C64.6599 292.848 64.7238 292.218 64.3748 291.79C64.0257 291.362 63.3958 291.298 62.9678 291.647L64.2319 293.197ZM66.0412 289.047C65.6264 289.412 65.5857 290.044 65.9503 290.459C66.3149 290.873 66.9468 290.914 67.3616 290.549L66.0412 289.047ZM68.8251 289.238C69.2327 288.865 69.2609 288.232 68.8882 287.825C68.5155 287.417 67.883 287.389 67.4754 287.762L68.8251 289.238ZM70.2462 285.117C69.8555 285.507 69.8551 286.14 70.2453 286.531C70.6356 286.922 71.2688 286.922 71.6595 286.532L70.2462 285.117ZM73.1092 285.046C73.4896 284.646 73.4734 284.013 73.0731 283.632C72.6727 283.252 72.0398 283.268 71.6593 283.668L73.1092 285.046ZM74.23 280.81C73.8728 281.231 73.9246 281.862 74.3458 282.219C74.767 282.577 75.398 282.525 75.7553 282.104L74.23 280.81ZM76.9929 280.598C77.3367 280.165 77.265 279.536 76.8328 279.193C76.4005 278.849 75.7714 278.92 75.4276 279.353L76.9929 280.598ZM77.7821 276.159C77.472 276.616 77.5911 277.238 78.0481 277.548C78.5051 277.858 79.1269 277.739 79.437 277.282L77.7821 276.159ZM80.5031 275.64C80.7942 275.171 80.6497 274.555 80.1804 274.263C79.7111 273.972 79.0946 274.117 78.8035 274.586L80.5031 275.64ZM80.6969 271.186C80.4527 271.681 80.6563 272.281 81.1516 272.525C81.647 272.769 82.2465 272.566 82.4907 272.07L80.6969 271.186ZM83.3301 270.247C83.5474 269.74 83.3118 269.152 82.8041 268.935C82.2963 268.717 81.7086 268.953 81.4913 269.461L83.3301 270.247ZM82.7845 265.862C82.6303 266.393 82.9352 266.948 83.4656 267.102C83.9959 267.256 84.5508 266.951 84.705 266.421L82.7845 265.862ZM85.2079 264.452C85.3267 263.913 84.9858 263.379 84.4464 263.261C83.907 263.142 83.3735 263.483 83.2547 264.022L85.2079 264.452ZM83.811 260.268C83.7691 260.819 84.1815 261.299 84.7322 261.341C85.2829 261.383 85.7633 260.97 85.8052 260.42L83.811 260.268ZM85.8864 258.381C85.8883 257.828 85.4422 257.379 84.8899 257.377C84.3377 257.375 83.8884 257.821 83.8864 258.374L85.8864 258.381ZM83.6273 254.589C83.7039 255.136 84.2095 255.518 84.7564 255.441C85.3033 255.364 85.6846 254.859 85.6079 254.312L83.6273 254.589ZM85.2544 252.297C85.1406 251.757 84.6102 251.411 84.0698 251.525C83.5293 251.639 83.1835 252.169 83.2974 252.709L85.2544 252.297ZM82.2758 249.041C82.4562 249.563 83.0256 249.84 83.5476 249.659C84.0696 249.479 84.3465 248.909 84.1661 248.387L82.2758 249.041ZM83.4412 246.47C83.2315 245.96 82.6472 245.715 82.1363 245.925C81.6255 246.135 81.3813 246.719 81.5911 247.23L83.4412 246.47ZM79.9592 243.768C80.2183 244.256 80.8238 244.441 81.3115 244.182C81.7992 243.923 81.9845 243.317 81.7254 242.83L79.9592 243.768ZM80.7246 241.043C80.4443 240.568 79.8314 240.409 79.3555 240.689C78.8796 240.97 78.721 241.583 79.0013 242.058L80.7246 241.043ZM76.924 238.823C77.2389 239.276 77.862 239.389 78.3157 239.074C78.7694 238.759 78.882 238.136 78.5671 237.682L76.924 238.823ZM77.3779 236.028C77.0483 235.585 76.4219 235.493 75.9787 235.823C75.5356 236.152 75.4435 236.779 75.7731 237.222L77.3779 236.028ZM73.3779 234.187C73.7315 234.611 74.3621 234.668 74.7863 234.314C75.2105 233.961 75.2677 233.33 74.9141 232.906L73.3779 234.187ZM73.6011 231.37C73.2372 230.954 72.6054 230.912 72.1899 231.276C71.7744 231.64 71.7326 232.272 72.0964 232.687L73.6011 231.37ZM69.4701 229.815C69.8508 230.215 70.4838 230.23 70.8839 229.85C71.284 229.469 71.2997 228.836 70.919 228.436L69.4701 229.815ZM69.5251 226.998C69.1372 226.604 68.5041 226.6 68.1109 226.988C67.7177 227.376 67.7134 228.009 68.1013 228.402L69.5251 226.998ZM65.3037 225.656C65.7036 226.037 66.3365 226.021 66.7175 225.621C67.0985 225.222 67.0832 224.589 66.6833 224.208L65.3037 225.656ZM65.2359 222.847C64.831 222.471 64.1983 222.495 63.8227 222.9C63.447 223.305 63.4708 223.938 63.8756 224.313L65.2359 222.847ZM60.9519 221.665C61.3652 222.031 61.9973 221.993 62.3635 221.579C62.7297 221.166 62.6915 220.534 62.2781 220.168L60.9519 221.665ZM60.7938 218.866C60.3769 218.503 59.7453 218.548 59.3831 218.965C59.0209 219.382 59.0652 220.013 59.4821 220.375L60.7938 218.866ZM56.4728 217.806C56.8957 218.161 57.5265 218.107 57.8818 217.684C58.237 217.261 58.1822 216.63 57.7594 216.275L56.4728 217.806ZM56.2454 215.012C55.8202 214.659 55.1898 214.718 54.8374 215.144C54.485 215.569 54.5441 216.199 54.9693 216.552L56.2454 215.012ZM51.9196 214.055C52.3487 214.402 52.9785 214.336 53.3261 213.907C53.6737 213.478 53.6076 212.848 53.1784 212.5L51.9196 214.055ZM51.6298 211.252C51.1991 210.906 50.5697 210.975 50.224 211.406C49.8783 211.836 49.9471 212.466 50.3778 212.811L51.6298 211.252ZM47.2977 210.357C47.7306 210.7 48.3595 210.627 48.7024 210.194C49.0453 209.761 48.9723 209.132 48.5394 208.789L47.2977 210.357ZM46.9848 207.561C46.5511 207.219 45.9224 207.293 45.5804 207.727C45.2385 208.16 45.3129 208.789 45.7466 209.131L46.9848 207.561ZM42.6386 206.688C43.0731 207.029 43.7017 206.953 44.0427 206.518C44.3836 206.084 44.3077 205.455 43.8732 205.114L42.6386 206.688ZM42.3182 203.895C41.8837 203.554 41.2551 203.63 40.9142 204.064C40.5734 204.499 40.6493 205.127 41.0838 205.468L42.3182 203.895ZM37.9731 203.025C38.407 203.366 39.0357 203.291 39.3774 202.857C39.719 202.424 39.6442 201.795 39.2103 201.453L37.9731 203.025ZM37.6566 200.228C37.2234 199.885 36.5945 199.959 36.252 200.392C35.9095 200.825 35.9831 201.454 36.4163 201.796L37.6566 200.228ZM33.325 199.339C33.7561 199.684 34.3855 199.614 34.7306 199.183C35.0757 198.752 35.006 198.122 34.5748 197.777L33.325 199.339ZM33.0307 196.536C32.601 196.189 31.9714 196.256 31.6244 196.686C31.2775 197.116 31.3446 197.745 31.7743 198.092L33.0307 196.536ZM28.7022 195.586C29.1281 195.937 29.7584 195.877 30.11 195.451C30.4616 195.025 30.4013 194.395 29.9754 194.043L28.7022 195.586ZM28.472 192.794C28.0484 192.44 27.4177 192.496 27.0633 192.919C26.7089 193.343 26.765 193.973 27.1886 194.328L28.472 192.794ZM24.1457 191.741C24.5634 192.102 25.1949 192.056 25.5563 191.639C25.9176 191.221 25.8719 190.589 25.4542 190.228L24.1457 191.741ZM23.9831 188.943C23.569 188.578 22.937 188.617 22.5717 189.031C22.2063 189.446 22.2458 190.078 22.66 190.443L23.9831 188.943ZM19.6953 187.768C20.1009 188.143 20.7335 188.118 21.1085 187.712C21.4834 187.307 21.4586 186.674 21.053 186.299L19.6953 187.768ZM19.624 184.96C19.2237 184.58 18.5907 184.596 18.2103 184.996C17.8299 185.397 17.8461 186.03 18.2465 186.41L19.624 184.96ZM15.3997 183.62C15.7877 184.013 16.4208 184.018 16.8139 183.63C17.2069 183.242 17.211 182.608 16.823 182.215L15.3997 183.62ZM15.456 180.805C15.0755 180.405 14.4425 180.389 14.0422 180.769C13.642 181.15 13.626 181.783 14.0065 182.183L15.456 180.805ZM11.3244 179.24C11.687 179.656 12.3187 179.7 12.7352 179.337C13.1518 178.975 13.1955 178.343 12.8328 177.926L11.3244 179.24ZM11.5601 176.426C11.2084 176.001 10.578 175.94 10.1522 176.292C9.72643 176.644 9.66637 177.274 10.0181 177.7L11.5601 176.426ZM7.56768 174.552C7.89317 174.998 8.51873 175.096 8.96491 174.77C9.41108 174.445 9.50892 173.819 9.18343 173.373L7.56768 174.552ZM8.05522 171.768C7.74594 171.31 7.1243 171.19 6.66673 171.499C6.20917 171.809 6.08896 172.43 6.39823 172.888L8.05522 171.768ZM4.28625 169.476C4.55654 169.958 5.16608 170.129 5.64771 169.859C6.12934 169.589 6.30067 168.979 6.03038 168.497L4.28625 169.476ZM5.12028 166.78C4.87401 166.285 4.27363 166.084 3.77929 166.331C3.28495 166.577 3.08385 167.177 3.33012 167.672L5.12028 166.78ZM1.72644 163.956C1.91548 164.475 2.48941 164.743 3.00833 164.554C3.52725 164.365 3.79466 163.791 3.60562 163.272L1.72644 163.956ZM3.00762 161.451C2.85262 160.921 2.29725 160.617 1.76716 160.772C1.23707 160.927 0.933004 161.483 1.088 162.013L3.00762 161.451ZM0.221674 158.029C0.299263 158.576 0.805437 158.956 1.35224 158.879C1.89905 158.801 2.27943 158.295 2.20184 157.748L0.221674 158.029ZM2.00788 155.86C1.97293 155.309 1.49778 154.89 0.946606 154.925C0.395428 154.96 -0.0230597 155.435 0.0118879 155.987L2.00788 155.86ZM0.0767527 151.903C0.0241982 152.453 0.427278 152.941 0.977056 152.994C1.52684 153.046 2.01512 152.643 2.06768 152.094L0.0767527 151.903ZM2.32535 150.198C2.42127 149.654 2.05812 149.136 1.51423 149.04C0.970334 148.944 0.451664 149.307 0.355744 149.851L2.32535 150.198ZM1.35375 145.923C1.17969 146.448 1.46349 147.014 1.98763 147.188C2.51177 147.362 3.07777 147.078 3.25183 146.554L1.35375 145.923ZM3.93031 144.725C4.13986 144.214 3.8955 143.63 3.38451 143.421C2.87352 143.211 2.28941 143.456 2.07986 143.967L3.93031 144.725ZM3.81498 140.367C3.54737 140.85 3.72207 141.458 4.20518 141.726C4.6883 141.994 5.29689 141.819 5.5645 141.336L3.81498 140.367ZM6.56449 139.64C6.85732 139.172 6.71511 138.555 6.24685 138.262C5.77859 137.969 5.1616 138.111 4.86877 138.58L6.56449 139.64ZM7.12668 135.31C6.79368 135.751 6.88091 136.378 7.32151 136.711C7.76212 137.044 8.38924 136.957 8.72224 136.516L7.12668 135.31ZM9.92598 134.987C10.2759 134.56 10.2132 133.93 9.78592 133.58C9.35864 133.23 8.72859 133.293 8.37866 133.72L9.92598 134.987ZM11.0495 130.682C10.6715 131.085 10.6914 131.717 11.0939 132.095C11.4965 132.473 12.1294 132.454 12.5075 132.051L11.0495 130.682ZM13.8199 130.693C14.2092 130.301 14.2073 129.668 13.8156 129.279C13.4239 128.89 12.7908 128.892 12.4014 129.283L13.8199 130.693ZM15.3626 126.461C14.9532 126.831 14.922 127.464 15.2927 127.873C15.6635 128.282 16.2959 128.314 16.7052 127.943L15.3626 126.461ZM18.2202 126.608C18.6406 126.25 18.6912 125.618 18.3331 125.198C17.975 124.777 17.3439 124.727 16.9234 125.085L18.2202 126.608ZM20.0971 122.573C19.6522 122.9 19.5569 123.526 19.8841 123.971C20.2114 124.416 20.8373 124.511 21.2822 124.184L20.0971 122.573ZM22.8761 123.053C23.332 122.741 23.4487 122.119 23.1369 121.663C22.8251 121.208 22.2028 121.091 21.7469 121.403L22.8761 123.053ZM25.1481 119.236C24.673 119.518 24.5161 120.131 24.7977 120.607C25.0793 121.082 25.6927 121.239 26.1678 120.957L25.1481 119.236ZM27.8734 119.982C28.3569 119.715 28.5326 119.106 28.2658 118.623C27.999 118.139 27.3907 117.964 26.9071 118.23L27.8734 119.982ZM30.481 116.392C29.983 116.63 29.7728 117.228 30.0116 117.726C30.2503 118.224 30.8476 118.434 31.3456 118.195L30.481 116.392ZM33.1305 117.369C33.6348 117.144 33.8608 116.552 33.6355 116.048C33.4102 115.544 32.8187 115.318 32.3145 115.543L33.1305 117.369ZM36.0237 113.996C35.509 114.196 35.2541 114.775 35.4543 115.29C35.6546 115.805 36.2342 116.06 36.7489 115.859L36.0237 113.996ZM38.5868 115.168C39.1059 114.98 39.3739 114.406 39.1853 113.887C38.9967 113.368 38.4231 113.1 37.904 113.288L38.5868 115.168ZM41.7183 111.994C41.1919 112.161 40.9003 112.723 41.0671 113.249C41.2339 113.776 41.7959 114.067 42.3224 113.9L41.7183 111.994ZM44.1933 113.327C44.7228 113.17 45.0249 112.614 44.868 112.084C44.7112 111.555 44.1548 111.253 43.6252 111.41L44.1933 113.327ZM47.5145 110.332C46.9798 110.47 46.6586 111.016 46.7969 111.551C46.9353 112.085 47.4809 112.407 48.0156 112.268L47.5145 110.332ZM49.9125 111.793C50.4492 111.663 50.7789 111.123 50.6488 110.586C50.5188 110.049 49.9782 109.719 49.4415 109.849L49.9125 111.793ZM53.3462 108.963C52.806 109.078 52.4611 109.609 52.5759 110.149C52.6907 110.689 53.2217 111.034 53.7619 110.919L53.3462 108.963ZM55.7161 110.517C56.2578 110.41 56.6095 109.883 56.5017 109.341C56.3939 108.8 55.8674 108.448 55.3258 108.556L55.7161 110.517ZM59.2308 107.826C58.6868 107.921 58.3232 108.44 58.4185 108.984C58.5139 109.528 59.0322 109.891 59.5762 109.796L59.2308 107.826ZM61.535 109.463C62.08 109.374 62.449 108.859 62.3593 108.314C62.2696 107.769 61.7551 107.4 61.2101 107.49L61.535 109.463ZM65.1556 106.879C64.6091 106.958 64.2306 107.466 64.3103 108.012C64.3899 108.559 64.8976 108.937 65.4441 108.858L65.1556 106.879ZM67.3997 108.581C67.9468 108.506 68.3294 108.001 68.2543 107.454C68.1791 106.907 67.6746 106.524 67.1275 106.599L67.3997 108.581ZM71.1095 106.083C70.5614 106.15 70.1714 106.649 70.2386 107.197C70.3058 107.745 70.8047 108.135 71.3529 108.068L71.1095 106.083ZM73.3042 107.835C73.8528 107.771 74.2458 107.275 74.1821 106.726C74.1183 106.178 73.6219 105.785 73.0733 105.848L73.3042 107.835ZM77.0373 105.411C76.4881 105.468 76.0896 105.96 76.1473 106.51C76.205 107.059 76.6971 107.457 77.2463 107.4L77.0373 105.411ZM79.2362 107.195C79.7857 107.14 80.1865 106.65 80.1314 106.101C80.0763 105.551 79.5862 105.15 79.0366 105.205L79.2362 107.195ZM82.9831 104.826C82.4331 104.877 82.0285 105.364 82.0792 105.914C82.13 106.464 82.617 106.868 83.1669 106.818L82.9831 104.826ZM85.1469 106.638C85.6971 106.589 86.1033 106.104 86.0543 105.553C86.0054 105.003 85.5197 104.597 84.9696 104.646L85.1469 106.638ZM88.944 104.303C88.3936 104.349 87.9849 104.833 88.031 105.383C88.0771 105.934 88.5607 106.342 89.111 106.296L88.944 104.303ZM91.0837 106.133C91.6341 106.088 92.0438 105.605 91.9987 105.054C91.9536 104.504 91.4709 104.094 90.9204 104.139L91.0837 106.133ZM94.8949 103.82C94.3443 103.863 93.9334 104.345 93.977 104.896C94.0207 105.446 94.5024 105.857 95.0529 105.813L94.8949 103.82ZM97.0376 105.657C97.5882 105.614 97.9994 105.132 97.9562 104.582C97.9129 104.031 97.4315 103.62 96.8809 103.663L97.0376 105.657ZM100.837 103.353C100.286 103.396 99.8749 103.878 99.918 104.428C99.9611 104.979 100.442 105.39 100.993 105.347L100.837 103.353ZM102.98 105.191C103.53 105.148 103.941 104.666 103.898 104.116C103.855 103.565 103.373 103.154 102.823 103.197L102.98 105.191ZM106.786 102.882C106.236 102.926 105.825 103.408 105.87 103.959C105.914 104.509 106.397 104.92 106.947 104.875L106.786 102.882ZM108.928 104.714C109.478 104.668 109.888 104.185 109.842 103.635C109.797 103.085 109.314 102.675 108.764 102.72L108.928 104.714ZM112.728 102.386C112.178 102.434 111.771 102.919 111.818 103.469C111.866 104.019 112.35 104.426 112.901 104.379L112.728 102.386ZM114.884 104.205C115.434 104.156 115.84 103.67 115.791 103.12C115.742 102.57 115.256 102.164 114.706 102.213L114.884 104.205ZM118.657 101.848C118.107 101.901 117.704 102.389 117.756 102.939C117.809 103.489 118.297 103.892 118.847 103.839L118.657 101.848ZM120.831 103.646C121.381 103.592 121.782 103.102 121.728 102.552C121.673 102.003 121.184 101.601 120.634 101.656L120.831 103.646ZM124.582 101.248C124.033 101.307 123.636 101.8 123.695 102.349C123.754 102.899 124.247 103.296 124.796 103.237L124.582 101.248ZM126.777 103.019C127.326 102.957 127.721 102.462 127.659 101.913C127.597 101.365 127.102 100.97 126.553 101.031L126.777 103.019ZM130.494 100.568C129.946 100.635 129.556 101.134 129.623 101.682C129.691 102.231 130.19 102.62 130.738 102.553L130.494 100.568ZM132.717 102.303C133.265 102.233 133.652 101.731 133.581 101.184C133.51 100.636 133.009 100.249 132.461 100.32L132.717 102.303ZM136.389 99.7884C135.843 99.866 135.462 100.372 135.54 100.919C135.617 101.466 136.124 101.846 136.67 101.769L136.389 99.7884ZM138.645 101.482C139.191 101.4 139.568 100.891 139.486 100.345C139.405 99.7989 138.896 99.422 138.35 99.5034L138.645 101.482ZM142.265 98.891C141.72 98.9805 141.351 99.4948 141.441 100.04C141.53 100.585 142.044 100.954 142.589 100.865L142.265 98.891ZM144.559 100.533C145.103 100.439 145.468 99.9221 145.374 99.3778C145.28 98.8336 144.763 98.4684 144.219 98.5623L144.559 100.533ZM148.113 97.8569C147.57 97.9601 147.214 98.4836 147.317 99.0261C147.42 99.5687 147.944 99.9249 148.486 99.8217L148.113 97.8569ZM150.448 99.4393C150.99 99.3311 151.341 98.8044 151.233 98.2628C151.125 97.7212 150.598 97.3699 150.057 97.478L150.448 99.4393ZM153.931 96.6654C153.391 96.7841 153.05 97.3176 153.169 97.857C153.288 98.3964 153.821 98.7374 154.361 98.6186L153.931 96.6654ZM156.309 98.1792C156.847 98.0549 157.182 97.5179 157.058 96.9798C156.934 96.4417 156.397 96.1062 155.859 96.2306L156.309 98.1792ZM159.703 95.2983C159.168 95.4344 158.844 95.9787 158.98 96.5139C159.116 97.0492 159.661 97.3727 160.196 97.2366L159.703 95.2983ZM162.132 96.7323C162.665 96.5899 162.983 96.042 162.84 95.5083C162.698 94.9747 162.15 94.6575 161.616 94.7999L162.132 96.7323ZM165.419 93.736C164.889 93.8914 164.585 94.447 164.741 94.977C164.896 95.5069 165.452 95.8106 165.982 95.6553L165.419 93.736ZM167.9 95.0797C168.428 94.9175 168.724 94.358 168.562 93.8301C168.4 93.3022 167.84 93.0056 167.312 93.1678L167.9 95.0797ZM171.072 91.9575C170.549 92.1339 170.268 92.7012 170.444 93.2245C170.621 93.7479 171.188 94.0292 171.711 93.8528L171.072 91.9575ZM173.603 93.2003C174.124 93.0166 174.397 92.4454 174.213 91.9246C174.03 91.4038 173.459 91.1305 172.938 91.3143L173.603 93.2003ZM176.639 89.9471C176.124 90.1461 175.868 90.7251 176.067 91.2403C176.266 91.7555 176.845 92.0117 177.36 91.8127L176.639 89.9471ZM179.224 91.0764C179.736 90.8694 179.983 90.2866 179.776 89.7745C179.569 89.2625 178.986 89.0151 178.474 89.2221L179.224 91.0764ZM182.108 87.6861C181.603 87.9093 181.374 88.4997 181.598 89.0049C181.821 89.5101 182.411 89.7387 182.916 89.5156L182.108 87.6861ZM184.741 88.6916C185.242 88.4601 185.461 87.8659 185.23 87.3645C184.998 86.8631 184.404 86.6442 183.903 86.8757L184.741 88.6916ZM187.453 85.1633C186.959 85.4117 186.761 86.013 187.009 86.5062C187.258 86.9995 187.859 87.1979 188.352 86.9494L187.453 85.1633ZM190.139 86.0298C190.627 85.7727 190.815 85.168 190.558 84.6792C190.301 84.1905 189.696 84.0027 189.207 84.2598L190.139 86.0298ZM192.654 82.3669C192.175 82.6415 192.009 83.2525 192.284 83.7317C192.558 84.2109 193.169 84.3768 193.649 84.1022L192.654 82.3669ZM195.38 83.0888C195.854 82.8054 196.008 82.1913 195.725 81.7173C195.442 81.2433 194.828 81.0887 194.354 81.3722L195.38 83.0888ZM197.704 79.2826C197.241 79.5837 197.109 80.2032 197.411 80.6661C197.712 81.1291 198.331 81.2603 198.794 80.9591L197.704 79.2826ZM200.456 79.8552C200.914 79.5453 201.033 78.9234 200.723 78.4663C200.413 78.0092 199.791 77.8898 199.334 78.1998L200.456 79.8552ZM202.548 75.9285C202.104 76.256 202.008 76.8819 202.336 77.3267C202.663 77.7714 203.289 77.8665 203.734 77.539L202.548 75.9285ZM205.349 76.3255C205.787 75.9893 205.869 75.3616 205.533 74.9234C205.197 74.4852 204.569 74.4026 204.131 74.7388L205.349 76.3255ZM207.191 72.2938C206.767 72.6469 206.709 73.2774 207.062 73.702C207.415 74.1266 208.046 74.1846 208.47 73.8314L207.191 72.2938ZM210 72.5335C210.417 72.172 210.462 71.5404 210.101 71.1229C209.739 70.7054 209.108 70.66 208.69 71.0215L210 72.5335ZM211.637 68.3652C211.234 68.7431 211.214 69.376 211.592 69.7787C211.97 70.1815 212.603 70.2016 213.005 69.8237L211.637 68.3652ZM214.437 68.454C214.832 68.0683 214.84 67.4352 214.454 67.0399C214.069 66.6446 213.435 66.6368 213.04 67.0225L214.437 68.454ZM215.796 64.2264C215.416 64.6272 215.433 65.2602 215.834 65.6401C216.235 66.02 216.868 66.003 217.247 65.6022L215.796 64.2264ZM218.626 64.1189C218.998 63.7107 218.968 63.0782 218.56 62.7062C218.152 62.3342 217.52 62.3636 217.148 62.7718L218.626 64.1189ZM219.733 59.8229C219.377 60.245 219.431 60.8759 219.853 61.2321C220.275 61.5882 220.906 61.5348 221.262 61.1127L219.733 59.8229ZM222.533 59.5771C222.881 59.1484 222.816 58.5186 222.387 58.1704C221.959 57.8222 221.329 57.8875 220.981 58.3162L222.533 59.5771ZM223.423 55.1912C223.091 55.6325 223.18 56.2595 223.621 56.5915C224.063 56.9235 224.69 56.8348 225.022 56.3935L223.423 55.1912ZM226.222 54.7663C226.546 54.319 226.446 53.6938 225.999 53.3699C225.552 53.046 224.926 53.146 224.602 53.5934L226.222 54.7663ZM226.827 50.405C226.519 50.8633 226.641 51.4847 227.099 51.7928C227.557 52.1009 228.179 51.9791 228.487 51.5207L226.827 50.405ZM229.593 49.8443C229.893 49.3807 229.76 48.7616 229.297 48.4614C228.833 48.1612 228.214 48.2937 227.914 48.7573L229.593 49.8443ZM230.033 45.3579C229.749 45.8314 229.903 46.4457 230.376 46.7299C230.85 47.0142 231.464 46.8607 231.748 46.3872L230.033 45.3579ZM232.742 44.7015C233.018 44.2236 232.855 43.6118 232.377 43.3351C231.899 43.0584 231.288 43.2216 231.011 43.6996L232.742 44.7015ZM232.918 40.2822C232.656 40.7685 232.839 41.3749 233.325 41.6365C233.811 41.8981 234.418 41.7159 234.679 41.2295L232.918 40.2822ZM235.623 39.4425C235.877 38.9521 235.685 38.3486 235.195 38.0945C234.705 37.8404 234.101 38.032 233.847 38.5223L235.623 39.4425ZM235.626 34.959C235.387 35.4567 235.596 36.0542 236.094 36.2936C236.592 36.533 237.189 36.3236 237.429 35.8259L235.626 34.959ZM238.266 34.0545C238.498 33.5535 238.28 32.959 237.779 32.7265C237.278 32.4941 236.684 32.7118 236.451 33.2128L238.266 34.0545ZM238.056 29.6261C237.837 30.1332 238.071 30.7216 238.578 30.9402C239.085 31.1589 239.674 30.925 239.892 30.4178L238.056 29.6261ZM240.682 28.552C240.894 28.0419 240.652 27.4567 240.142 27.2449C239.632 27.0331 239.046 27.2749 238.835 27.7849L240.682 28.552ZM240.314 24.087C240.116 24.6024 240.372 25.1811 240.888 25.3797C241.403 25.5783 241.982 25.3216 242.18 24.8062L240.314 24.087ZM242.872 22.978C243.065 22.4603 242.801 21.8847 242.283 21.6923C241.766 21.4999 241.19 21.7636 240.998 22.2813L242.872 22.978ZM242.322 18.5832C242.142 19.1053 242.419 19.6746 242.941 19.8547C243.463 20.0348 244.033 19.7576 244.213 19.2355L242.322 18.5832ZM244.861 17.3207C245.035 16.7966 244.751 16.2306 244.227 16.0565C243.703 15.8825 243.137 16.1663 242.963 16.6904L244.861 17.3207ZM244.187 12.8586C244.025 13.3865 244.321 13.946 244.849 14.1083C245.377 14.2705 245.937 13.9741 246.099 13.4462L244.187 12.8586ZM246.66 11.5868C246.817 11.0572 246.515 10.5008 245.985 10.344C245.456 10.1871 244.899 10.4893 244.742 11.0189L246.66 11.5868ZM245.814 7.26087C245.668 7.79348 245.981 8.34369 246.514 8.48979C247.046 8.63589 247.596 8.32257 247.743 7.78996L245.814 7.26087ZM248.264 5.85229C248.405 5.31826 248.086 4.77118 247.552 4.63035C247.018 4.48952 246.471 4.80826 246.33 5.34229L248.264 5.85229ZM247.322 1.4249C247.192 1.96155 247.521 2.50236 248.058 2.63283C248.594 2.7633 249.135 2.43403 249.266 1.89737L247.322 1.4249ZM63.4066 293.864C63.6846 293.642 63.9597 293.419 64.2319 293.197L62.9678 291.647C62.7001 291.866 62.4296 292.084 62.1561 292.304L63.4066 293.864ZM67.3616 290.549C67.8606 290.111 68.3484 289.674 68.8251 289.238L67.4754 287.762C67.0086 288.189 66.5306 288.617 66.0412 289.047L67.3616 290.549ZM71.6595 286.532C72.157 286.035 72.6402 285.54 73.1092 285.046L71.6593 283.668C71.2027 284.149 70.7317 284.632 70.2462 285.117L71.6595 286.532ZM75.7553 282.104C76.1824 281.6 76.5948 281.098 76.9929 280.598L75.4276 279.353C75.043 279.836 74.6439 280.322 74.23 280.81L75.7553 282.104ZM79.437 277.282C79.8095 276.733 80.1648 276.186 80.5031 275.64L78.8035 274.586C78.48 275.108 78.1396 275.632 77.7821 276.159L79.437 277.282ZM82.4907 272.07C82.7914 271.46 83.0711 270.853 83.3301 270.247L81.4913 269.461C81.2467 270.032 80.9821 270.607 80.6969 271.186L82.4907 272.07ZM84.705 266.421C84.8966 265.762 85.064 265.106 85.2079 264.452L83.2547 264.022C83.1204 264.632 82.9639 265.245 82.7845 265.862L84.705 266.421ZM85.8052 260.42C85.8572 259.737 85.884 259.057 85.8864 258.381L83.8864 258.374C83.8841 259.002 83.8593 259.633 83.811 260.268L85.8052 260.42ZM85.6079 254.312C85.5133 253.637 85.3951 252.965 85.2544 252.297L83.2974 252.709C83.4289 253.334 83.5391 253.96 83.6273 254.589L85.6079 254.312ZM84.1661 248.387C83.9441 247.745 83.7022 247.106 83.4412 246.47L81.5911 247.23C81.8382 247.832 82.0666 248.435 82.2758 249.041L84.1661 248.387ZM81.7254 242.83C81.4075 242.231 81.0737 241.636 80.7246 241.043L79.0013 242.058C79.3361 242.627 79.6556 243.197 79.9592 243.768L81.7254 242.83ZM78.5671 237.682C78.1829 237.129 77.7863 236.577 77.3779 236.028L75.7731 237.222C76.169 237.754 76.5528 238.288 76.924 238.823L78.5671 237.682ZM74.9141 232.906C74.4859 232.392 74.048 231.88 73.6011 231.37L72.0964 232.687C72.5331 233.186 72.9604 233.686 73.3779 234.187L74.9141 232.906ZM70.919 228.436C70.4615 227.955 69.9967 227.476 69.5251 226.998L68.1013 228.402C68.5649 228.872 69.0213 229.343 69.4701 229.815L70.919 228.436ZM66.6833 224.208C66.2063 223.753 65.7237 223.3 65.2359 222.847L63.8756 224.313C64.3572 224.76 64.8334 225.208 65.3037 225.656L66.6833 224.208ZM62.2781 220.168C61.7874 219.733 61.2925 219.299 60.7938 218.866L59.4821 220.375C59.9762 220.805 60.4662 221.234 60.9519 221.665L62.2781 220.168ZM57.7594 216.275C57.2576 215.853 56.7528 215.432 56.2454 215.012L54.9693 216.552C55.4734 216.969 55.9747 217.388 56.4728 217.806L57.7594 216.275ZM53.1784 212.5C52.664 212.084 52.1477 211.668 51.6298 211.252L50.3778 212.811C50.8937 213.226 51.4077 213.64 51.9196 214.055L53.1784 212.5ZM48.5394 208.789C48.022 208.379 47.5037 207.97 46.9848 207.561L45.7466 209.131C46.2645 209.54 46.7816 209.948 47.2977 210.357L48.5394 208.789ZM43.8732 205.114C43.3548 204.708 42.8363 204.301 42.3182 203.895L41.0838 205.468C41.6021 205.875 42.1204 206.281 42.6386 206.688L43.8732 205.114ZM39.2103 201.453C38.6913 201.045 38.1733 200.636 37.6566 200.228L36.4163 201.796C36.9342 202.206 37.4532 202.615 37.9731 203.025L39.2103 201.453ZM34.5748 197.777C34.058 197.363 33.5432 196.95 33.0307 196.536L31.7743 198.092C32.2892 198.508 32.8062 198.923 33.325 199.339L34.5748 197.777ZM29.9754 194.043C29.4711 193.627 28.9698 193.21 28.472 192.794L27.1886 194.328C27.69 194.747 28.1947 195.167 28.7022 195.586L29.9754 194.043ZM25.4542 190.228C24.9594 189.8 24.4689 189.372 23.9831 188.943L22.66 190.443C23.1509 190.876 23.6463 191.309 24.1457 191.741L25.4542 190.228ZM21.053 186.299C20.5707 185.853 20.0942 185.407 19.624 184.96L18.2465 186.41C18.7236 186.863 19.2067 187.316 19.6953 187.768L21.053 186.299ZM16.823 182.215C16.3594 181.746 15.9036 181.276 15.456 180.805L14.0065 182.183C14.4631 182.663 14.9276 183.142 15.3997 183.62L16.823 182.215ZM12.8328 177.926C12.3981 177.427 11.9737 176.927 11.5601 176.426L10.0181 177.7C10.4432 178.215 10.8788 178.728 11.3244 179.24L12.8328 177.926ZM9.18343 173.373C8.79375 172.839 8.41748 172.304 8.05522 171.768L6.39823 172.888C6.77448 173.444 7.16453 173.999 7.56768 174.552L9.18343 173.373ZM6.03038 168.497C5.70967 167.926 5.40608 167.353 5.12028 166.78L3.33012 167.672C3.63116 168.276 3.95017 168.877 4.28625 169.476L6.03038 168.497ZM3.60562 163.272C3.38508 162.667 3.1855 162.06 3.00762 161.451L1.088 162.013C1.27843 162.664 1.4916 163.312 1.72644 163.956L3.60562 163.272ZM2.20184 157.748C2.11286 157.121 2.04793 156.492 2.00788 155.86L0.0118879 155.987C0.055271 156.671 0.125555 157.352 0.221674 158.029L2.20184 157.748ZM2.06768 152.094C2.12776 151.465 2.21334 150.833 2.32535 150.198L0.355744 149.851C0.234594 150.538 0.141882 151.222 0.0767527 151.903L2.06768 152.094ZM3.25183 146.554C3.45301 145.948 3.67889 145.339 3.93031 144.725L2.07986 143.967C1.81146 144.621 1.56963 145.273 1.35375 145.923L3.25183 146.554ZM5.5645 141.336C5.87584 140.774 6.20897 140.209 6.56449 139.64L4.86877 138.58C4.49505 139.177 4.14393 139.773 3.81498 140.367L5.5645 141.336ZM8.72224 136.516C9.10546 136.009 9.50657 135.499 9.92598 134.987L8.37866 133.72C7.94326 134.252 7.52603 134.782 7.12668 135.31L8.72224 136.516ZM12.5075 132.051C12.9307 131.6 13.3681 131.148 13.8199 130.693L12.4014 129.283C11.9366 129.751 11.4861 130.217 11.0495 130.682L12.5075 132.051ZM16.7052 127.943C16.9604 127.712 17.2192 127.48 17.4819 127.248L16.1574 125.75C15.8888 125.987 15.6238 126.224 15.3626 126.461L16.7052 127.943ZM17.4819 127.248C17.7261 127.032 17.9722 126.819 18.2202 126.608L16.9234 125.085C16.6662 125.304 16.4109 125.526 16.1574 125.75L17.4819 127.248ZM21.2822 124.184C21.8065 123.798 22.3379 123.422 22.8761 123.053L21.7469 121.403C21.1901 121.784 20.6401 122.174 20.0971 122.573L21.2822 124.184ZM26.1678 120.957C26.7298 120.624 27.2983 120.299 27.8734 119.982L26.9071 118.23C26.3145 118.558 25.7281 118.893 25.1481 119.236L26.1678 120.957ZM31.3456 118.195C31.9346 117.913 32.5297 117.637 33.1305 117.369L32.3145 115.543C31.6977 115.819 31.0865 116.101 30.481 116.392L31.3456 118.195ZM36.7489 115.859C37.3563 115.623 37.969 115.393 38.5868 115.168L37.904 113.288C37.2723 113.518 36.6454 113.754 36.0237 113.996L36.7489 115.859ZM42.3224 113.9C42.9414 113.704 43.5651 113.513 44.1933 113.327L43.6252 111.41C42.9853 111.599 42.3497 111.794 41.7183 111.994L42.3224 113.9ZM48.0156 112.268C48.6439 112.106 49.2762 111.947 49.9125 111.793L49.4415 109.849C48.7954 110.006 48.1531 110.167 47.5145 110.332L48.0156 112.268ZM53.7619 110.919C54.4097 110.782 55.0611 110.648 55.7161 110.517L55.3258 108.556C54.6626 108.688 54.0027 108.823 53.3462 108.963L53.7619 110.919ZM59.5762 109.796C60.226 109.682 60.879 109.571 61.535 109.463L61.2101 107.49C60.5475 107.599 59.8877 107.711 59.2308 107.826L59.5762 109.796ZM65.4441 108.858C66.0933 108.763 66.7452 108.671 67.3997 108.581L67.1275 106.599C66.4677 106.69 65.8104 106.783 65.1556 106.879L65.4441 108.858ZM71.3529 108.068C72.001 107.988 72.6515 107.911 73.3042 107.835L73.0733 105.848C72.4166 105.925 71.762 106.003 71.1095 106.083L71.3529 108.068ZM77.2463 107.4C77.9076 107.33 78.5709 107.262 79.2362 107.195L79.0366 105.205C78.3684 105.272 77.7019 105.341 77.0373 105.411L77.2463 107.4ZM83.1669 106.818C83.8252 106.757 84.4853 106.697 85.1469 106.638L84.9696 104.646C84.3059 104.705 83.6437 104.765 82.9831 104.826L83.1669 106.818ZM89.111 106.296C89.7672 106.241 90.4247 106.187 91.0837 106.133L90.9204 104.139C90.2604 104.193 89.6015 104.248 88.944 104.303L89.111 106.296ZM95.0529 105.813C95.7133 105.761 96.3749 105.709 97.0376 105.657L96.8809 103.663C96.2179 103.715 95.5559 103.767 94.8949 103.82L95.0529 105.813ZM100.993 105.347C101.654 105.295 102.316 105.243 102.98 105.191L102.823 103.197C102.16 103.25 101.498 103.301 100.837 103.353L100.993 105.347ZM106.947 104.875C107.607 104.822 108.267 104.768 108.928 104.714L108.764 102.72C108.104 102.775 107.445 102.828 106.786 102.882L106.947 104.875ZM112.901 104.379C113.561 104.322 114.222 104.264 114.884 104.205L114.706 102.213C114.046 102.271 113.387 102.329 112.728 102.386L112.901 104.379ZM118.847 103.839C119.508 103.776 120.17 103.712 120.831 103.646L120.634 101.656C119.975 101.721 119.316 101.785 118.657 101.848L118.847 103.839ZM124.796 103.237C125.456 103.166 126.117 103.093 126.777 103.019L126.553 101.031C125.896 101.105 125.239 101.177 124.582 101.248L124.796 103.237ZM130.738 102.553C131.398 102.472 132.058 102.389 132.717 102.303L132.461 100.32C131.806 100.404 131.15 100.487 130.494 100.568L130.738 102.553ZM136.67 101.769C137.329 101.675 137.987 101.58 138.645 101.482L138.35 99.5034C137.697 99.6006 137.043 99.6956 136.389 99.7884L136.67 101.769ZM142.589 100.865C143.246 100.757 143.903 100.646 144.559 100.533L144.219 98.5623C143.568 98.6744 142.917 98.784 142.265 98.891L142.589 100.865ZM148.486 99.8217C149.141 99.6972 149.795 99.5698 150.448 99.4393L150.057 97.478C149.409 97.6073 148.761 97.7335 148.113 97.8569L148.486 99.8217ZM154.361 98.6186C155.011 98.4755 155.66 98.3291 156.309 98.1792L155.859 96.2306C155.217 96.3788 154.574 96.5237 153.931 96.6654L154.361 98.6186ZM160.196 97.2366C160.842 97.0722 161.488 96.9041 162.132 96.7323L161.616 94.7999C160.98 94.9696 160.342 95.1357 159.703 95.2983L160.196 97.2366ZM165.982 95.6553C166.622 95.4675 167.262 95.2756 167.9 95.0797L167.312 93.1678C166.683 93.3612 166.052 93.5506 165.419 93.736L165.982 95.6553ZM171.711 93.8528C172.343 93.6397 172.974 93.4223 173.603 93.2003L172.938 91.3143C172.318 91.533 171.696 91.7474 171.072 91.9575L171.711 93.8528ZM177.36 91.8127C177.983 91.572 178.604 91.3266 179.224 91.0764L178.474 89.2221C177.865 89.4684 177.253 89.7101 176.639 89.9471L177.36 91.8127ZM182.916 89.5156C183.527 89.246 184.135 88.9714 184.741 88.6916L183.903 86.8757C183.307 87.1509 182.708 87.421 182.108 87.6861L182.916 89.5156ZM188.352 86.9494C188.95 86.6484 189.545 86.3419 190.139 86.0298L189.207 84.2598C188.625 84.5663 188.04 84.8674 187.453 85.1633L188.352 86.9494ZM193.649 84.1022C194.228 83.7701 194.805 83.4323 195.38 83.0888L194.354 81.3722C193.79 81.7093 193.223 82.0409 192.654 82.3669L193.649 84.1022ZM198.794 80.9591C199.351 80.5971 199.905 80.2291 200.456 79.8552L199.334 78.1998C198.793 78.5665 198.25 78.9274 197.704 79.2826L198.794 80.9591ZM203.734 77.539C204.275 77.1407 204.813 76.7363 205.349 76.3255L204.131 74.7388C203.606 75.1415 203.079 75.538 202.548 75.9285L203.734 77.539ZM208.47 73.8314C208.983 73.405 209.493 72.9724 210 72.5335L208.69 71.0215C208.193 71.4518 207.694 71.8758 207.191 72.2938L208.47 73.8314ZM213.005 69.8237C213.485 69.3733 213.963 68.9168 214.437 68.454L213.04 67.0225C212.575 67.4762 212.107 67.9237 211.637 68.3652L213.005 69.8237ZM217.247 65.6022C217.71 65.1142 218.169 64.6198 218.626 64.1189L217.148 62.7718C216.7 63.263 216.249 63.7479 215.796 64.2264L217.247 65.6022ZM221.262 61.1127C221.689 60.607 222.112 60.0952 222.533 59.5771L220.981 58.3162C220.568 58.8246 220.152 59.3268 219.733 59.8229L221.262 61.1127ZM225.022 56.3935C225.425 55.8573 225.825 55.315 226.222 54.7663L224.602 53.5934C224.212 54.1322 223.819 54.6648 223.423 55.1912L225.022 56.3935ZM228.487 51.5207C228.858 50.9679 229.227 50.4091 229.593 49.8443L227.914 48.7573C227.555 49.3125 227.192 49.8617 226.827 50.405L228.487 51.5207ZM231.748 46.3872C232.082 45.8308 232.413 45.269 232.742 44.7015L231.011 43.6996C230.688 44.2579 230.362 44.8107 230.033 45.3579L231.748 46.3872ZM234.679 41.2295C234.997 40.6396 235.311 40.0439 235.623 39.4425L233.847 38.5223C233.54 39.1147 233.23 39.7013 232.918 40.2822L234.679 41.2295ZM237.429 35.8259C237.71 35.2406 237.989 34.6502 238.266 34.0545L236.451 33.2128C236.179 33.8001 235.904 34.3821 235.626 34.959L237.429 35.8259ZM239.892 30.4178C240.158 29.8012 240.421 29.1793 240.682 28.552L238.835 27.7849C238.578 28.404 238.318 29.0177 238.056 29.6261L239.892 30.4178ZM242.18 24.8062C242.414 24.2015 242.644 23.5921 242.872 22.978L240.998 22.2813C240.772 22.888 240.544 23.4899 240.314 24.087L242.18 24.8062ZM244.213 19.2355C244.431 18.6021 244.647 17.9638 244.861 17.3207L242.963 16.6904C242.752 17.3263 242.538 17.9572 242.322 18.5832L244.213 19.2355ZM246.099 13.4462C246.288 12.8307 246.475 12.2109 246.66 11.5868L244.742 11.0189C244.559 11.6364 244.374 12.2497 244.187 12.8586L246.099 13.4462ZM247.743 7.78996C247.919 7.14846 248.092 6.50258 248.264 5.85229L246.33 5.34229C246.16 5.98625 245.988 6.62577 245.814 7.26087L247.743 7.78996ZM249.266 1.89737C249.347 1.56329 249.427 1.22809 249.507 0.891772L247.562 0.42854C247.483 0.76179 247.403 1.09391 247.322 1.4249L249.266 1.89737Z" fill="url(#paint0_linear_562_4508)"/>
<defs>
<linearGradient id="paint0_linear_562_4508" x1="64.5497" y1="293.084" x2="248.535" y2="0.660152" gradientUnits="userSpaceOnUse">
<stop stop-color="#FFEF99"/>
<stop offset="1" stop-color="#FFEF99" stop-opacity="0"/>
</linearGradient>
</defs>
</svg>
