<svg width="82" height="457" viewBox="0 0 82 457" fill="none" xmlns="http://www.w3.org/2000/svg">
<path d="M27.5795 451C27.5795 453.945 29.9673 456.333 32.9128 456.333C35.8583 456.333 38.2462 453.945 38.2462 451C38.2462 448.054 35.8583 445.666 32.9128 445.666C29.9673 445.666 27.5795 448.054 27.5795 451ZM20.041 282.406L20.7709 281.722L20.041 282.406ZM23.9561 1.6825C23.9963 2.23332 24.4755 2.64721 25.0263 2.60696C25.5771 2.56671 25.991 2.08756 25.9507 1.53675L23.9561 1.6825ZM26.2237 5.5646C26.1893 5.01339 25.7145 4.59447 25.1633 4.62891C24.6121 4.66336 24.1932 5.13812 24.2276 5.68933L26.2237 5.5646ZM24.347 7.68386C24.3786 8.23524 24.8511 8.65663 25.4025 8.62506C25.9539 8.5935 26.3753 8.12092 26.3437 7.56954L24.347 7.68386ZM26.5516 11.5614C26.5257 11.0097 26.0575 10.5835 25.5058 10.6094C24.9542 10.6353 24.5279 11.1035 24.5538 11.6551L26.5516 11.5614ZM24.6419 13.6424C24.6649 14.1942 25.1309 14.6229 25.6827 14.5998C26.2345 14.5768 26.6632 14.1108 26.6401 13.559L24.6419 13.6424ZM26.7879 17.5951C26.7705 17.0431 26.3089 16.6097 25.7569 16.6271C25.2049 16.6444 24.7715 17.106 24.7889 17.658L26.7879 17.5951ZM24.8467 19.6566C24.8612 20.2087 25.3206 20.6444 25.8727 20.6298C26.4248 20.6153 26.8605 20.1559 26.846 19.6038L24.8467 19.6566ZM26.9313 23.6024C26.9223 23.0502 26.4673 22.6099 25.9151 22.6189C25.3629 22.6279 24.9226 23.0829 24.9316 23.6351L26.9313 23.6024ZM24.9591 25.621C24.9654 26.1732 25.4181 26.6158 25.9704 26.6095C26.5226 26.6032 26.9652 26.1505 26.9589 25.5982L24.9591 25.621ZM26.9847 29.6372C26.9839 29.0849 26.5356 28.6378 25.9833 28.6386C25.431 28.6394 24.9839 29.0877 24.9847 29.64L26.9847 29.6372ZM24.9826 31.6399C24.9807 32.1922 25.4268 32.6414 25.9791 32.6434C26.5314 32.6453 26.9807 32.1992 26.9826 31.6469L24.9826 31.6399ZM26.9492 35.6467C26.9565 35.0944 26.5147 34.6409 25.9625 34.6336C25.4102 34.6263 24.9567 35.0681 24.9494 35.6203L26.9492 35.6467ZM24.9185 37.6069C24.9086 38.1591 25.3482 38.6147 25.9004 38.6247C26.4526 38.6346 26.9083 38.195 26.9182 37.6428L24.9185 37.6069ZM26.8264 41.6795C26.8416 41.1274 26.4063 40.6676 25.8543 40.6524C25.3022 40.6372 24.8423 41.0725 24.8272 41.6245L26.8264 41.6795ZM24.7675 43.6234C24.7497 44.1754 25.1828 44.6372 25.7348 44.655C26.2868 44.6728 26.7487 44.2397 26.7665 43.6877L24.7675 43.6234ZM26.6194 47.6837C26.6422 47.1319 26.2134 46.666 25.6616 46.6431C25.1098 46.6203 24.6439 47.0491 24.6211 47.6009L26.6194 47.6837ZM24.5341 49.59C24.5088 50.1417 24.9355 50.6095 25.4872 50.6349C26.0389 50.6602 26.5067 50.2335 26.532 49.6818L24.5341 49.59ZM26.3284 53.7119C26.3588 53.1605 25.9363 52.6888 25.3849 52.6585C24.8334 52.6281 24.3618 53.0505 24.3314 53.602L26.3284 53.7119ZM24.2172 55.5976C24.1844 56.1489 24.6047 56.6224 25.156 56.6552C25.7073 56.688 26.1808 56.2676 26.2136 55.7163L24.2172 55.5976ZM25.959 59.7039C25.9965 59.1529 25.5803 58.6758 25.0293 58.6382C24.4783 58.6006 24.0012 59.0168 23.9636 59.5678L25.959 59.7039ZM23.8233 61.5614C23.7834 62.1122 24.1975 62.5911 24.7484 62.6311C25.2992 62.671 25.7781 62.2569 25.8181 61.706L23.8233 61.5614ZM25.5094 65.7254C25.5541 65.1749 25.144 64.6925 24.5935 64.6479C24.043 64.6033 23.5606 65.0134 23.516 65.5639L25.5094 65.7254ZM23.3506 67.5543C23.3037 68.1046 23.7118 68.5887 24.2621 68.6356C24.8124 68.6825 25.2965 68.2744 25.3433 67.7241L23.3506 67.5543ZM24.9885 71.6993C25.0398 71.1494 24.6356 70.662 24.0858 70.6107C23.5359 70.5594 23.0485 70.9636 22.9972 71.5135L24.9885 71.6993ZM22.8065 73.5137C22.753 74.0634 23.1553 74.5523 23.705 74.6058C24.2547 74.6593 24.7436 74.2571 24.7971 73.7074L22.8065 73.5137ZM24.3915 77.7127C24.4493 77.1634 24.0509 76.6713 23.5016 76.6135C22.9524 76.5558 22.4603 76.9542 22.4025 77.5034L24.3915 77.7127ZM22.1901 79.4871C22.1302 80.0361 22.5268 80.5297 23.0758 80.5895C23.6248 80.6494 24.1184 80.2528 24.1783 79.7038L22.1901 79.4871ZM23.7307 83.6738C23.7946 83.1252 23.4016 82.6287 22.8531 82.5648C22.3045 82.501 21.808 82.8939 21.7441 83.4425L23.7307 83.6738ZM21.5077 85.4413C21.4418 85.9896 21.8329 86.4875 22.3813 86.5534C22.9296 86.6192 23.4275 86.2281 23.4934 85.6798L21.5077 85.4413ZM23.0001 89.6678C23.0698 89.1199 22.6822 88.6193 22.1343 88.5496C21.5864 88.4799 21.0858 88.8675 21.0161 89.4154L23.0001 89.6678ZM20.7614 91.3908C20.6898 91.9384 21.0758 92.4403 21.6234 92.5119C22.171 92.5834 22.673 92.1975 22.7445 91.6499L20.7614 91.3908ZM22.2122 95.6222C22.2873 95.075 21.9047 94.5706 21.3575 94.4954C20.8104 94.4203 20.3059 94.8029 20.2308 95.3501L22.2122 95.6222ZM19.9542 97.3403C19.8773 97.8872 20.2583 98.3929 20.8052 98.4698C21.3521 98.5467 21.8578 98.1656 21.9347 97.6187L19.9542 97.3403ZM21.3643 101.587C21.4446 101.04 21.0666 100.532 20.5202 100.452C19.9738 100.372 19.4658 100.75 19.3855 101.296L21.3643 101.587ZM19.094 103.262C19.0121 103.808 19.3886 104.317 19.9348 104.399C20.4809 104.481 20.9901 104.105 21.0719 103.558L19.094 103.262ZM20.4644 107.536C20.5493 106.99 20.1758 106.479 19.6301 106.394C19.0844 106.309 18.5731 106.682 18.4882 107.228L20.4644 107.536ZM18.1773 109.209C18.0909 109.754 18.4631 110.267 19.0085 110.353C19.554 110.439 20.0663 110.067 20.1527 109.522L18.1773 109.209ZM19.5173 113.468C19.6065 112.922 19.2369 112.408 18.6919 112.319C18.1469 112.23 17.6327 112.6 17.5436 113.145L19.5173 113.468ZM17.2196 115.11C17.1291 115.655 17.4974 116.17 18.0423 116.26C18.5871 116.351 19.1021 115.982 19.1926 115.437L17.2196 115.11ZM18.5228 119.413C18.6158 118.869 18.2498 118.352 17.7054 118.259C17.161 118.166 16.6443 118.532 16.5513 119.077L18.5228 119.413ZM16.2127 121.047C16.1185 121.591 16.4834 122.108 17.0276 122.202C17.5718 122.297 18.0893 121.932 18.1834 121.388L16.2127 121.047ZM17.4961 125.314C17.5924 124.77 17.2296 124.251 16.6857 124.155C16.1419 124.058 15.623 124.421 15.5267 124.965L17.4961 125.314ZM15.1731 126.951C15.0758 127.495 15.4376 128.015 15.9812 128.112C16.5249 128.209 17.0445 127.847 17.1418 127.304L15.1731 126.951ZM16.4276 131.255C16.5267 130.712 16.1666 130.191 15.6233 130.092C15.08 129.993 14.5592 130.353 14.4601 130.896L16.4276 131.255ZM14.1013 132.855C14.0013 133.398 14.3607 133.92 14.9038 134.02C15.447 134.119 15.9683 133.76 16.0683 133.217L14.1013 132.855ZM15.3372 137.161C15.4386 136.618 15.0806 136.096 14.5377 135.994C13.9948 135.893 13.4726 136.251 13.3712 136.794L15.3372 137.161ZM13.0013 138.769C12.8993 139.312 13.2566 139.835 13.7994 139.937C14.3422 140.038 14.8649 139.681 14.9669 139.138L13.0013 138.769ZM14.2255 143.064C14.3284 142.521 13.9721 141.998 13.4295 141.895C12.8869 141.792 12.3635 142.148 12.2605 142.691L14.2255 143.064ZM11.8887 144.646C11.7853 145.188 12.1413 145.712 12.6838 145.815C13.2263 145.919 13.75 145.563 13.8533 145.02L11.8887 144.646ZM13.0964 148.98C13.2003 148.437 12.8449 147.913 12.3025 147.809C11.7601 147.705 11.2361 148.061 11.1321 148.603L13.0964 148.98ZM10.7554 150.567C10.6513 151.109 11.0066 151.633 11.5489 151.737C12.0913 151.842 12.6154 151.486 12.7196 150.944L10.7554 150.567ZM11.967 154.86C12.0713 154.318 11.7161 153.794 11.1737 153.69C10.6314 153.585 10.1072 153.941 10.003 154.483L11.967 154.86ZM9.62212 156.466C9.51798 157.008 9.87324 157.532 10.4156 157.636C10.958 157.74 11.4821 157.385 11.5862 156.843L9.62212 156.466ZM10.8328 160.774C10.9365 160.232 10.5808 159.708 10.0384 159.604C9.49591 159.5 8.9721 159.856 8.86841 160.399L10.8328 160.774ZM8.49625 162.349C8.39293 162.892 8.74898 163.415 9.29151 163.518C9.83404 163.622 10.3576 163.266 10.4609 162.723L8.49625 162.349ZM9.71129 166.679C9.81357 166.136 9.45651 165.613 8.91377 165.511C8.37104 165.409 7.84816 165.766 7.74589 166.309L9.71129 166.679ZM7.37591 168.278C7.27432 168.821 7.63204 169.344 8.1749 169.445C8.71776 169.547 9.24019 169.189 9.34178 168.646L7.37591 168.278ZM8.61609 172.556C8.71598 172.013 8.35663 171.492 7.81346 171.392C7.27028 171.292 6.74897 171.651 6.64908 172.195L8.61609 172.556ZM6.28475 174.186C6.1859 174.73 6.54625 175.25 7.08961 175.349C7.63298 175.448 8.1536 175.088 8.25245 174.544L6.28475 174.186ZM7.54484 178.482C7.64124 177.939 7.27854 177.42 6.73473 177.323C6.19093 177.227 5.67194 177.59 5.57554 178.133L7.54484 178.482ZM5.23147 180.089C5.13649 180.633 5.50053 181.151 6.04459 181.246C6.58864 181.341 7.10669 180.977 7.20167 180.433L5.23147 180.089ZM6.52125 184.399C6.61292 183.855 6.24573 183.339 5.7011 183.247C5.15648 183.156 4.64066 183.523 4.54899 184.067L6.52125 184.399ZM4.21968 186.044C4.12989 186.589 4.49886 187.104 5.04379 187.194C5.58873 187.284 6.10328 186.915 6.19307 186.37L4.21968 186.044ZM5.56071 190.3C5.64626 189.754 5.27331 189.243 4.7277 189.157C4.18208 189.072 3.67041 189.444 3.58485 189.99L5.56071 190.3ZM3.27567 191.99C3.19252 192.536 3.56773 193.046 4.11372 193.129C4.65971 193.213 5.16972 192.837 5.25287 192.291L3.27567 191.99ZM4.67198 196.232C4.74979 195.685 4.36963 195.179 3.82286 195.101C3.27608 195.023 2.76975 195.403 2.69193 195.95L4.67198 196.232ZM2.41543 197.931C2.34058 198.478 2.72348 198.982 3.27067 199.057C3.81786 199.132 4.32212 198.749 4.39698 198.202L2.41543 197.931ZM3.8763 202.183C3.94451 201.635 3.55552 201.136 3.00746 201.068C2.45941 200.999 1.95982 201.388 1.89161 201.936L3.8763 202.183ZM1.6516 203.918C1.58702 204.466 1.9793 204.963 2.5278 205.028C3.07629 205.092 3.57329 204.7 3.63788 204.151L1.6516 203.918ZM3.19862 208.128C3.25513 207.579 2.85557 207.088 2.30618 207.031C1.75679 206.975 1.26562 207.374 1.20912 207.924L3.19862 208.128ZM1.01117 209.927C0.959103 210.477 1.36262 210.965 1.91244 211.017C2.46227 211.069 2.9502 210.665 3.00226 210.116L1.01117 209.927ZM2.66225 214.069C2.70462 213.519 2.29257 213.038 1.74192 212.996C1.19126 212.953 0.710515 213.365 0.668145 213.916L2.66225 214.069ZM0.5222 215.941C0.485213 216.492 0.90194 216.969 1.45298 217.006C2.00403 217.043 2.48072 216.626 2.51771 216.075L0.5222 215.941ZM2.29312 220.033C2.31848 219.481 1.8918 219.013 1.34009 218.988C0.788391 218.962 0.320588 219.389 0.295225 219.941L2.29312 220.033ZM0.213958 221.961C0.194998 222.513 0.627079 222.976 1.17904 222.995C1.731 223.014 2.19382 222.582 2.21278 222.03L0.213958 221.961ZM2.12525 226.015C2.13028 225.462 1.68666 225.011 1.1344 225.006C0.582141 225.001 0.130367 225.444 0.125337 225.997L2.12525 226.015ZM0.120557 227.99C0.123005 228.542 0.572701 228.988 1.12498 228.985C1.67726 228.983 2.12299 228.533 2.12054 227.981L0.120557 227.99ZM2.19713 231.982C2.17814 231.431 1.71529 230.998 1.16333 231.017C0.611376 231.036 0.179321 231.499 0.198314 232.051L2.19713 231.982ZM0.283125 234.054C0.310952 234.605 0.780657 235.03 1.33224 235.002C1.88382 234.974 2.30841 234.504 2.28059 233.953L0.283125 234.054ZM2.54962 237.926C2.5025 237.376 2.01823 236.968 1.46796 237.015C0.917684 237.062 0.509794 237.547 0.556907 238.097L2.54962 237.926ZM0.747532 240.103C0.804964 240.653 1.29681 241.051 1.8461 240.994C2.39539 240.937 2.79412 240.445 2.73669 239.895L0.747532 240.103ZM3.22752 243.83C3.14789 243.284 2.6403 242.905 2.09379 242.985C1.54727 243.064 1.16879 243.572 1.24841 244.118L3.22752 243.83ZM1.5619 246.119C1.65337 246.663 2.16905 247.031 2.71371 246.939C3.25837 246.848 3.62575 246.332 3.53427 245.787L1.5619 246.119ZM4.27761 249.669C4.16104 249.129 3.62891 248.786 3.08907 248.903C2.54923 249.019 2.2061 249.552 2.32267 250.091L4.27761 249.669ZM2.77561 252.071C2.90546 252.608 3.44589 252.938 3.9827 252.808C4.5195 252.678 4.8494 252.138 4.71954 251.601L2.77561 252.071ZM5.74499 255.409C5.58745 254.88 5.03062 254.579 4.50128 254.736C3.97195 254.894 3.67055 255.451 3.82809 255.98L5.74499 255.409ZM4.43471 257.921C4.60669 258.446 5.17156 258.732 5.69639 258.56C6.22121 258.388 6.50725 257.823 6.33526 257.298L4.43471 257.921ZM7.66762 261.007C7.46606 260.493 6.88583 260.239 6.37164 260.441C5.85745 260.643 5.60401 261.223 5.80557 261.737L7.66762 261.007ZM6.57522 263.618C6.79187 264.126 7.37933 264.363 7.88735 264.146C8.39537 263.929 8.63157 263.342 8.41491 262.834L6.57522 263.618ZM10.07 266.412C9.82304 265.918 9.22237 265.718 8.72839 265.965C8.23442 266.212 8.0342 266.813 8.28119 267.307L10.07 266.412ZM9.21599 269.107C9.47806 269.593 10.0846 269.774 10.5708 269.512C11.0569 269.25 11.2386 268.644 10.9765 268.158L9.21599 269.107ZM12.9582 271.575C12.6664 271.106 12.0497 270.962 11.5808 271.254C11.1119 271.546 10.9684 272.163 11.2602 272.632L12.9582 271.575ZM12.3535 274.329C12.6596 274.789 13.2804 274.914 13.7401 274.607C14.1998 274.301 14.3243 273.681 14.0181 273.221L12.3535 274.329ZM16.3119 276.444C15.9781 276.004 15.3508 275.918 14.9108 276.252C14.4709 276.586 14.3849 277.214 14.7188 277.653L16.3119 276.444ZM15.9616 279.241C16.3085 279.671 16.9381 279.738 17.3678 279.391C17.7976 279.044 17.8647 278.414 17.5178 277.985L15.9616 279.241ZM20.0909 280.985C19.7193 280.577 19.0868 280.547 18.6782 280.918C18.2697 281.29 18.2397 281.922 18.6113 282.331L20.0909 280.985ZM20.0025 283.827C20.3803 284.23 21.0131 284.25 21.416 283.872C21.8188 283.494 21.839 282.861 21.4612 282.459L20.0025 283.827ZM24.2241 285.397C23.8453 284.995 23.2124 284.976 22.8105 285.355C22.4085 285.734 22.3897 286.367 22.7685 286.768L24.2241 285.397ZM24.1517 288.235C24.5308 288.637 25.1637 288.655 25.5653 288.276C25.967 287.897 25.9854 287.264 25.6063 286.863L24.1517 288.235ZM28.3785 289.798C27.9993 289.397 27.3664 289.379 26.9649 289.758C26.5634 290.137 26.5454 290.77 26.9246 291.172L28.3785 289.798ZM28.307 292.636C28.6861 293.037 29.3191 293.055 29.7206 292.676C30.1222 292.297 30.1404 291.664 29.7612 291.263L28.307 292.636ZM32.5341 294.203C32.1555 293.801 31.5226 293.782 31.1206 294.16C30.7185 294.539 30.6994 295.172 31.078 295.574L32.5341 294.203ZM32.457 297.04C32.8352 297.442 33.468 297.462 33.8705 297.084C34.2731 296.706 34.2928 296.073 33.9147 295.671L32.457 297.04ZM36.6782 298.621C36.3014 298.218 35.6686 298.196 35.2648 298.573C34.8611 298.949 34.8392 299.582 35.216 299.986L36.6782 298.621ZM36.5876 301.459C36.9635 301.863 37.5963 301.887 38.0009 301.511C38.4055 301.135 38.4287 300.502 38.0528 300.097L36.5876 301.459ZM40.7974 303.067C40.4237 302.66 39.7911 302.633 39.3845 303.007C38.9779 303.381 38.9512 304.014 39.325 304.42L40.7974 303.067ZM40.6848 305.904C41.0572 306.312 41.6897 306.341 42.0976 305.968C42.5054 305.596 42.5341 304.964 42.1617 304.556L40.6848 305.904ZM44.8775 307.552C44.5082 307.141 43.8759 307.108 43.4652 307.477C43.0546 307.846 43.021 308.478 43.3903 308.889L44.8775 307.552ZM44.7334 310.389C45.1009 310.801 45.733 310.838 46.1453 310.47C46.5576 310.103 46.5939 309.471 46.2264 309.058L44.7334 310.389ZM48.9024 312.091C48.5391 311.675 47.9073 311.632 47.4914 311.995C47.0754 312.358 47.0327 312.99 47.3959 313.406L48.9024 312.091ZM48.7164 314.927C49.0773 315.345 49.7087 315.391 50.1268 315.03C50.5449 314.669 50.5912 314.038 50.2303 313.62L48.7164 314.927ZM52.8542 316.698C52.4987 316.275 51.8679 316.221 51.4452 316.576C51.0225 316.932 50.9681 317.563 51.3235 317.985L52.8542 316.698ZM52.6145 319.531C52.9669 319.957 53.5973 320.016 54.0225 319.663C54.4477 319.311 54.5067 318.68 54.1543 318.255L52.6145 319.531ZM56.712 321.391C56.3664 320.96 55.7371 320.891 55.3063 321.236C54.8755 321.582 54.8064 322.211 55.152 322.642L56.712 321.391ZM56.4051 324.218C56.7469 324.652 57.3756 324.727 57.8095 324.385C58.2433 324.043 58.318 323.415 57.9762 322.981L56.4051 324.218ZM60.4513 326.185C60.1181 325.745 59.4909 325.658 59.0505 325.991C58.61 326.324 58.5231 326.952 58.8563 327.392L60.4513 326.185ZM60.0617 329.003C60.3902 329.447 61.0164 329.541 61.4604 329.212C61.9044 328.884 61.9981 328.258 61.6697 327.814L60.0617 329.003ZM64.0423 331.1C63.7245 330.649 63.1007 330.54 62.649 330.858C62.1974 331.176 62.0889 331.8 62.4068 332.251L64.0423 331.1ZM63.5526 333.902C63.8646 334.358 64.4869 334.474 64.9426 334.162C65.3984 333.85 65.5149 333.228 65.203 332.772L63.5526 333.902ZM67.4491 336.154C67.1502 335.689 66.5314 335.555 66.067 335.854C65.6026 336.153 65.4685 336.772 65.7674 337.236L67.4491 336.154ZM66.8395 338.93C67.1312 339.399 67.7478 339.543 68.2168 339.251C68.6858 338.96 68.8295 338.343 68.5379 337.874L66.8395 338.93ZM70.6279 341.362C70.3523 340.884 69.7409 340.719 69.2623 340.995C68.7837 341.271 68.6192 341.882 68.8948 342.361L70.6279 341.362ZM69.8767 344.102C70.1435 344.585 70.7518 344.761 71.2353 344.494C71.7189 344.228 71.8946 343.619 71.6279 343.136L69.8767 344.102ZM73.526 346.742C73.2787 346.248 72.678 346.048 72.1841 346.295C71.6902 346.543 71.4903 347.143 71.7376 347.637L73.526 346.742ZM72.6101 349.428C72.8466 349.927 73.4429 350.14 73.942 349.903C74.4411 349.667 74.6539 349.07 74.4174 348.571L72.6101 349.428ZM76.0809 352.301C75.868 351.792 75.2824 351.551 74.7728 351.764C74.2631 351.977 74.0226 352.563 74.2355 353.072L76.0809 352.301ZM74.9775 354.913C75.1775 355.427 75.7569 355.683 76.2717 355.483C76.7865 355.283 77.0417 354.703 76.8417 354.188L74.9775 354.913ZM78.2219 358.042C78.05 357.517 77.4852 357.231 76.9603 357.403C76.4355 357.575 76.1493 358.139 76.3212 358.664L78.2219 358.042ZM76.911 360.556C77.0678 361.085 77.6242 361.388 78.1538 361.231C78.6833 361.074 78.9855 360.518 78.8288 359.988L76.911 360.556ZM79.873 363.951C79.7489 363.413 79.212 363.077 78.6738 363.202C78.1357 363.326 77.8001 363.863 77.9242 364.401L79.873 363.951ZM78.3392 366.341C78.446 366.882 78.9719 367.235 79.5137 367.128C80.0556 367.021 80.4083 366.496 80.3015 365.954L78.3392 366.341ZM80.9605 370.001C80.8902 369.453 80.3891 369.066 79.8414 369.136C79.2936 369.207 78.9065 369.708 78.9768 370.256L80.9605 370.001ZM79.195 372.224C79.2463 372.773 79.7337 373.178 80.2836 373.126C80.8335 373.075 81.2376 372.588 81.1863 372.038L79.195 372.224ZM81.4231 376.135C81.4109 375.583 80.9534 375.146 80.4013 375.158C79.8491 375.17 79.4114 375.628 79.4236 376.18L81.4231 376.135ZM79.432 378.156C79.4244 378.709 79.8659 379.162 80.4181 379.17C80.9703 379.178 81.4242 378.736 81.4318 378.184L79.432 378.156ZM81.2276 382.282C81.2749 381.732 80.8672 381.248 80.3169 381.2C79.7667 381.153 79.2823 381.561 79.235 382.111L81.2276 382.282ZM79.0301 384.081C78.9632 384.629 79.3533 385.128 79.9015 385.195C80.4498 385.262 80.9484 384.872 81.0154 384.323L79.0301 384.081ZM80.3761 388.37C80.4812 387.828 80.1269 387.303 79.5847 387.198C79.0425 387.093 78.5177 387.448 78.4126 387.99L80.3761 388.37ZM78.0004 389.936C77.8767 390.475 78.2129 391.011 78.7511 391.135C79.2894 391.258 79.826 390.922 79.9496 390.384L78.0004 389.936ZM78.9037 394.334C79.0623 393.805 78.7621 393.248 78.2331 393.089C77.7041 392.93 77.1466 393.231 76.988 393.76L78.9037 394.334ZM76.3829 395.667C76.2075 396.19 76.49 396.757 77.0137 396.932C77.5374 397.108 78.1041 396.825 78.2794 396.302L76.3829 395.667ZM76.8707 400.123C77.0769 399.611 76.8287 399.028 76.3164 398.822C75.804 398.616 75.2215 398.864 75.0154 399.376L76.8707 400.123ZM74.2386 401.229C74.0179 401.735 74.2493 402.325 74.7555 402.545C75.2618 402.766 75.8512 402.535 76.0719 402.028L74.2386 401.229ZM74.3494 405.706C74.5966 405.212 74.3967 404.611 73.9029 404.364C73.409 404.117 72.8082 404.317 72.561 404.811L74.3494 405.706ZM71.6378 406.597C71.3782 407.085 71.5628 407.69 72.0503 407.95C72.5377 408.21 73.1434 408.025 73.403 407.538L71.6378 406.597ZM71.4116 411.072C71.6936 410.597 71.5374 409.984 71.0626 409.702C70.5878 409.42 69.9742 409.576 69.6921 410.051L71.4116 411.072ZM68.6488 411.763C68.3563 412.232 68.499 412.849 68.9675 413.141C69.436 413.434 70.0528 413.291 70.3453 412.823L68.6488 411.763ZM68.1203 416.227C68.4317 415.771 68.3143 415.149 67.8582 414.838C67.402 414.526 66.7799 414.644 66.4685 415.1L68.1203 416.227ZM65.3301 416.733C65.0101 417.184 65.1155 417.808 65.5657 418.128C66.0158 418.448 66.6401 418.342 66.9601 417.892L65.3301 416.733ZM64.5255 421.188C64.8614 420.749 64.7785 420.122 64.3402 419.786C63.9019 419.45 63.2741 419.533 62.9381 419.971L64.5255 421.188ZM61.7271 421.524C61.384 421.957 61.4566 422.586 61.8894 422.929C62.3221 423.272 62.9511 423.199 63.2942 422.767L61.7271 421.524ZM60.6881 425.947C61.0447 425.526 60.992 424.895 60.5703 424.538C60.1486 424.181 59.5176 424.234 59.161 424.656L60.6881 425.947ZM57.8719 426.158C57.5092 426.574 57.5528 427.206 57.9693 427.569C58.3858 427.931 59.0175 427.888 59.3802 427.471L57.8719 426.158ZM56.6858 430.481C57.0596 430.074 57.0332 429.442 56.6267 429.068C56.2202 428.694 55.5876 428.72 55.2137 429.127L56.6858 430.481ZM53.8193 430.623C53.4402 431.024 53.4583 431.657 53.8599 432.036C54.2615 432.416 54.8944 432.397 55.2735 431.996L53.8193 430.623ZM52.4857 434.878C52.8743 434.485 52.8712 433.852 52.4788 433.464C52.0864 433.075 51.4532 433.078 51.0646 433.471L52.4857 434.878ZM49.6465 434.886C49.2535 435.274 49.2494 435.908 49.6374 436.301C50.0254 436.694 50.6585 436.698 51.0516 436.31L49.6465 434.886ZM48.0919 439.168C48.4932 438.789 48.511 438.156 48.1316 437.754C47.7522 437.353 47.1192 437.335 46.7179 437.715L48.0919 439.168ZM45.2873 439.054C44.8823 439.429 44.8583 440.062 45.2338 440.467C45.6092 440.872 46.2419 440.896 46.647 440.521L45.2873 439.054ZM43.6528 443.243C44.0649 442.876 44.1008 442.243 43.7331 441.831C43.3654 441.419 42.7332 441.383 42.3212 441.751L43.6528 443.243ZM40.7852 443.109C40.3698 443.473 40.328 444.105 40.692 444.52C41.0559 444.936 41.6877 444.977 42.1031 444.613L40.7852 443.109ZM39.0676 447.228C39.489 446.871 39.5413 446.24 39.1844 445.818C38.8275 445.397 38.1965 445.345 37.775 445.701L39.0676 447.228ZM36.2468 446.985C35.8225 447.339 35.7651 447.969 36.1187 448.394C36.4722 448.818 37.1028 448.875 37.5271 448.522L36.2468 446.985ZM34.3517 451.126C34.7814 450.779 34.8485 450.149 34.5015 449.72C34.1546 449.29 33.525 449.223 33.0953 449.57L34.3517 451.126ZM23.8812 0.677089C23.9066 1.01247 23.9316 1.34761 23.9561 1.6825L25.9507 1.53675C25.9261 1.20009 25.9011 0.863188 25.8755 0.526036L23.8812 0.677089ZM24.2276 5.68933C24.2692 6.35516 24.309 7.02 24.347 7.68386L26.3437 7.56954C26.3055 6.90223 26.2655 6.23392 26.2237 5.5646L24.2276 5.68933ZM24.5538 11.6551C24.5849 12.3186 24.6143 12.981 24.6419 13.6424L26.6401 13.559C26.6124 12.8941 26.5829 12.2283 26.5516 11.5614L24.5538 11.6551ZM24.7889 17.658C24.8099 18.3252 24.8291 18.9914 24.8467 19.6566L26.846 19.6038C26.8283 18.9353 26.809 18.2657 26.7879 17.5951L24.7889 17.658ZM24.9316 23.6351C24.9424 24.2981 24.9516 24.96 24.9591 25.621L26.9589 25.5982C26.9514 24.934 26.9422 24.2687 26.9313 23.6024L24.9316 23.6351ZM24.9847 29.64C24.9856 30.3077 24.9849 30.9743 24.9826 31.6399L26.9826 31.6469C26.9849 30.9781 26.9857 30.3082 26.9847 29.6372L24.9847 29.64ZM24.9494 35.6203C24.9407 36.2836 24.9303 36.9458 24.9185 37.6069L26.9182 37.6428C26.9301 36.9785 26.9404 36.3131 26.9492 35.6467L24.9494 35.6203ZM24.8272 41.6245C24.8088 42.2919 24.7889 42.9582 24.7675 43.6234L26.7665 43.6877C26.788 43.0194 26.808 42.35 26.8264 41.6795L24.8272 41.6245ZM24.6211 47.6009C24.5936 48.2651 24.5646 48.9281 24.5341 49.59L26.532 49.6818C26.5626 49.0169 26.5917 48.3509 26.6194 47.6837L24.6211 47.6009ZM24.3314 53.602C24.2948 54.2683 24.2567 54.9335 24.2172 55.5976L26.2136 55.7163C26.2533 55.0494 26.2916 54.3812 26.3284 53.7119L24.3314 53.602ZM23.9636 59.5678C23.9182 60.2335 23.8714 60.898 23.8233 61.5614L25.8181 61.706C25.8664 61.0399 25.9134 60.3725 25.959 59.7039L23.9636 59.5678ZM23.516 65.5639C23.4621 66.2286 23.407 66.8921 23.3506 67.5543L25.3433 67.7241C25.4 67.0591 25.4554 66.3929 25.5094 65.7254L23.516 65.5639ZM22.9972 71.5135C22.9349 72.1815 22.8713 72.8482 22.8065 73.5137L24.7971 73.7074C24.8622 73.0393 24.926 72.3699 24.9885 71.6993L22.9972 71.5135ZM22.4025 77.5034C22.3328 78.1659 22.262 78.8271 22.1901 79.4871L24.1783 79.7038C24.2505 79.0414 24.3216 78.3776 24.3915 77.7127L22.4025 77.5034ZM21.7441 83.4425C21.6664 84.11 21.5876 84.7763 21.5077 85.4413L23.4934 85.6798C23.5736 85.0124 23.6527 84.3438 23.7307 83.6738L21.7441 83.4425ZM21.0161 89.4154C20.9322 90.0752 20.8472 90.7336 20.7614 91.3908L22.7445 91.6499C22.8307 90.9905 22.9159 90.3298 23.0001 89.6678L21.0161 89.4154ZM20.2308 95.3501C20.1395 96.0148 20.0472 96.6782 19.9542 97.3403L21.9347 97.6187C22.0281 96.9546 22.1206 96.2891 22.2122 95.6222L20.2308 95.3501ZM19.3855 101.296C19.2891 101.953 19.1919 102.608 19.094 103.262L21.0719 103.558C21.1701 102.903 21.2676 102.245 21.3643 101.587L19.3855 101.296ZM18.4882 107.228C18.3853 107.89 18.2816 108.55 18.1773 109.209L20.1527 109.522C20.2573 108.861 20.3612 108.199 20.4644 107.536L18.4882 107.228ZM17.5436 113.145C17.4362 113.801 17.3282 114.456 17.2196 115.11L19.1926 115.437C19.3014 114.782 19.4097 114.126 19.5173 113.468L17.5436 113.145ZM16.5513 119.077C16.4389 119.735 16.326 120.391 16.2127 121.047L18.1834 121.388C18.297 120.731 18.4101 120.073 18.5228 119.413L16.5513 119.077ZM15.5267 124.965C15.4092 125.629 15.2913 126.291 15.1731 126.951L17.1418 127.304C17.2602 126.642 17.3783 125.979 17.4961 125.314L15.5267 124.965ZM14.4601 130.896C14.3407 131.551 14.2211 132.204 14.1013 132.855L16.0683 133.217C16.1882 132.565 16.308 131.911 16.4276 131.255L14.4601 130.896ZM13.3712 136.794C13.248 137.454 13.1247 138.112 13.0013 138.769L14.9669 139.138C15.0904 138.481 15.2139 137.822 15.3372 137.161L13.3712 136.794ZM12.2605 142.691C12.1365 143.344 12.0126 143.996 11.8887 144.646L13.8533 145.02C13.9773 144.37 14.1014 143.718 14.2255 143.064L12.2605 142.691ZM11.1321 148.603C11.0063 149.26 10.8808 149.914 10.7554 150.567L12.7196 150.944C12.8449 150.291 12.9705 149.636 13.0964 148.98L11.1321 148.603ZM10.003 154.483C9.87564 155.146 9.74867 155.806 9.62212 156.466L11.5862 156.843C11.7128 156.184 11.8397 155.523 11.967 154.86L10.003 154.483ZM8.86841 160.399C8.7438 161.051 8.61973 161.701 8.49625 162.349L10.4609 162.723C10.5843 162.075 10.7083 161.426 10.8328 160.774L8.86841 160.399ZM7.74589 166.309C7.62179 166.967 7.49844 167.624 7.37591 168.278L9.34178 168.646C9.46415 167.992 9.58734 167.337 9.71129 166.679L7.74589 166.309ZM6.64908 172.195C6.52662 172.861 6.40515 173.524 6.28475 174.186L8.25245 174.544C8.37262 173.884 8.49385 173.221 8.61609 172.556L6.64908 172.195ZM5.57554 178.133C5.45963 178.787 5.34492 179.439 5.23147 180.089L7.20167 180.433C7.31481 179.785 7.42922 179.135 7.54484 178.482L5.57554 178.133ZM4.54899 184.067C4.43771 184.729 4.32792 185.388 4.21968 186.044L6.19307 186.37C6.30092 185.715 6.41034 185.058 6.52125 184.399L4.54899 184.067ZM3.58485 189.99C3.47995 190.659 3.37686 191.326 3.27567 191.99L5.25287 192.291C5.35361 191.63 5.45624 190.966 5.56071 190.3L3.58485 189.99ZM2.69193 195.95C2.59763 196.612 2.50544 197.273 2.41543 197.931L4.39698 198.202C4.48648 197.547 4.57817 196.891 4.67198 196.232L2.69193 195.95ZM1.89161 201.936C1.80911 202.599 1.72908 203.26 1.6516 203.918L3.63788 204.151C3.71483 203.498 3.79433 202.842 3.8763 202.183L1.89161 201.936ZM1.20912 207.924C1.14017 208.594 1.07416 209.262 1.01117 209.927L3.00226 210.116C3.06473 209.456 3.13021 208.793 3.19862 208.128L1.20912 207.924ZM0.668145 213.916C0.616002 214.594 0.567316 215.269 0.5222 215.941L2.51771 216.075C2.56238 215.409 2.61059 214.741 2.66225 214.069L0.668145 213.916ZM0.295225 219.941C0.264126 220.617 0.236997 221.291 0.213958 221.961L2.21278 222.03C2.23555 221.367 2.26236 220.701 2.29312 220.033L0.295225 219.941ZM0.125337 225.997C0.119259 226.664 0.117624 227.328 0.120557 227.99L2.12054 227.981C2.11765 227.329 2.11926 226.673 2.12525 226.015L0.125337 225.997ZM0.198314 232.051C0.221388 232.722 0.249612 233.389 0.283125 234.054L2.28059 233.953C2.24762 233.299 2.21985 232.643 2.19713 231.982L0.198314 232.051ZM0.556907 238.097C0.614461 238.769 0.677951 239.438 0.747532 240.103L2.73669 239.895C2.66844 239.243 2.60613 238.586 2.54962 237.926L0.556907 238.097ZM1.24841 244.118C1.34608 244.789 1.45052 245.456 1.5619 246.119L3.53427 245.787C3.42534 245.139 3.32314 244.486 3.22752 243.83L1.24841 244.118ZM2.32267 250.091C2.46598 250.755 2.61689 251.415 2.77561 252.071L4.71954 251.601C4.56476 250.961 4.4175 250.317 4.27761 249.669L2.32267 250.091ZM3.82809 255.98C4.02183 256.631 4.22397 257.278 4.43471 257.921L6.33526 257.298C6.13029 256.673 5.93359 256.043 5.74499 255.409L3.82809 255.98ZM5.80557 261.737C6.05299 262.368 6.30948 262.995 6.57522 263.618L8.41491 262.834C8.15696 262.229 7.90792 261.62 7.66762 261.007L5.80557 261.737ZM8.28119 267.307C8.58321 267.911 8.89475 268.511 9.21599 269.107L10.9765 268.158C10.665 267.58 10.3629 266.998 10.07 266.412L8.28119 267.307ZM11.2602 272.632C11.6148 273.202 11.9792 273.767 12.3535 274.329L14.0181 273.221C13.6553 272.676 13.302 272.127 12.9582 271.575L11.2602 272.632ZM14.7188 277.653C15.1233 278.186 15.5375 278.716 15.9616 279.241L17.5178 277.985C17.1062 277.475 16.7043 276.961 16.3119 276.444L14.7188 277.653ZM18.6113 282.331C18.8421 282.585 19.0753 282.837 19.3111 283.089L20.7709 281.722C20.5417 281.477 20.3151 281.232 20.0909 280.985L18.6113 282.331ZM19.3111 283.089C19.5415 283.335 19.772 283.581 20.0025 283.827L21.4612 282.459C21.2311 282.213 21.001 281.968 20.7709 281.722L19.3111 283.089ZM22.7685 286.768C23.2297 287.258 23.6909 287.747 24.1517 288.235L25.6063 286.863C25.1457 286.375 24.6849 285.886 24.2241 285.397L22.7685 286.768ZM26.9246 291.172C27.3859 291.66 27.8468 292.148 28.307 292.636L29.7612 291.263C29.3008 290.775 28.8399 290.287 28.3785 289.798L26.9246 291.172ZM31.078 295.574C31.5386 296.063 31.9983 296.552 32.457 297.04L33.9147 295.671C33.4554 295.182 32.9951 294.692 32.5341 294.203L31.078 295.574ZM35.216 299.986C35.6745 300.477 36.1317 300.968 36.5876 301.459L38.0528 300.097C37.5958 299.606 37.1376 299.114 36.6782 298.621L35.216 299.986ZM39.325 304.42C39.7799 304.915 40.2333 305.41 40.6848 305.904L42.1617 304.556C41.7086 304.06 41.2538 303.563 40.7974 303.067L39.325 304.42ZM43.3903 308.889C43.8401 309.389 44.2879 309.889 44.7334 310.389L46.2264 309.058C45.7789 308.556 45.3292 308.054 44.8775 307.552L43.3903 308.889ZM47.3959 313.406C47.8387 313.913 48.2789 314.42 48.7164 314.927L50.2303 313.62C49.7902 313.11 49.3475 312.6 48.9024 312.091L47.3959 313.406ZM51.3235 317.985C51.757 318.501 52.1873 319.016 52.6145 319.531L54.1543 318.255C53.724 317.736 53.2906 317.217 52.8542 316.698L51.3235 317.985ZM55.152 322.642C55.5734 323.168 55.9912 323.693 56.4051 324.218L57.9762 322.981C57.5585 322.451 57.1371 321.921 56.712 321.391L55.152 322.642ZM58.8563 327.392C59.2625 327.929 59.6644 328.466 60.0617 329.003L61.6697 327.814C61.2679 327.271 60.8617 326.728 60.4513 326.185L58.8563 327.392ZM62.4068 332.251C62.7938 332.801 63.1758 333.351 63.5526 333.902L65.203 332.772C64.8211 332.214 64.4342 331.657 64.0423 331.1L62.4068 332.251ZM65.7674 337.236C66.1306 337.8 66.488 338.365 66.8395 338.93L68.5379 337.874C68.1808 337.3 67.8178 336.726 67.4491 336.154L65.7674 337.236ZM68.8948 342.361C69.2288 342.94 69.5562 343.521 69.8767 344.102L71.6279 343.136C71.3013 342.544 70.9679 341.953 70.6279 341.362L68.8948 342.361ZM71.7376 347.637C72.036 348.233 72.3269 348.83 72.6101 349.428L74.4174 348.571C74.128 347.96 73.8307 347.351 73.526 346.742L71.7376 347.637ZM74.2355 353.072C74.4914 353.685 74.7388 354.298 74.9775 354.913L76.8417 354.188C76.5968 353.558 76.3431 352.929 76.0809 352.301L74.2355 353.072ZM76.3212 358.664C76.5274 359.294 76.7241 359.924 76.911 360.556L78.8288 359.988C78.6363 359.338 78.4339 358.689 78.2219 358.042L76.3212 358.664ZM77.9242 364.401C78.0731 365.046 78.2115 365.693 78.3392 366.341L80.3015 365.954C80.1695 365.285 80.0266 364.617 79.873 363.951L77.9242 364.401ZM78.9768 370.256C79.0608 370.91 79.1336 371.566 79.195 372.224L81.1863 372.038C81.1228 371.357 81.0474 370.678 80.9605 370.001L78.9768 370.256ZM79.4236 376.18C79.4382 376.837 79.441 377.496 79.432 378.156L81.4318 378.184C81.4412 377.499 81.4382 376.816 81.4231 376.135L79.4236 376.18ZM79.235 382.111C79.1787 382.766 79.1105 383.422 79.0301 384.081L81.0154 384.323C81.0986 383.641 81.1693 382.961 81.2276 382.282L79.235 382.111ZM78.4126 387.99C78.2872 388.637 78.1498 389.285 78.0004 389.936L79.9496 390.384C80.1042 389.711 80.2463 389.04 80.3761 388.37L78.4126 387.99ZM76.988 393.76C76.798 394.393 76.5963 395.029 76.3829 395.667L78.2794 396.302C78.4995 395.644 78.7076 394.988 78.9037 394.334L76.988 393.76ZM75.0154 399.376C74.7676 399.992 74.5088 400.609 74.2386 401.229L76.0719 402.028C76.3496 401.392 76.6158 400.756 76.8707 400.123L75.0154 399.376ZM72.561 404.811C72.2637 405.404 71.9561 406 71.6378 406.597L73.403 407.538C73.7291 406.926 74.0445 406.315 74.3494 405.706L72.561 404.811ZM69.6921 410.051C69.354 410.62 69.0062 411.191 68.6488 411.763L70.3453 412.823C70.7105 412.238 71.0658 411.654 71.4116 411.072L69.6921 410.051ZM66.4685 415.1C66.0978 415.643 65.7184 416.187 65.3301 416.733L66.9601 417.892C67.3557 417.336 67.7424 416.781 68.1203 416.227L66.4685 415.1ZM62.9381 419.971C62.5424 420.487 62.1388 421.005 61.7271 421.524L63.2942 422.767C63.7126 422.239 64.123 421.713 64.5255 421.188L62.9381 419.971ZM59.161 424.656C58.7387 425.155 58.309 425.656 57.8719 426.158L59.3802 427.471C59.8235 426.962 60.2595 426.454 60.6881 425.947L59.161 424.656ZM55.2137 429.127C54.7562 429.624 54.2915 430.123 53.8193 430.623L55.2735 431.996C55.7516 431.49 56.2223 430.985 56.6858 430.481L55.2137 429.127ZM51.0646 433.471C50.5984 433.941 50.1257 434.413 49.6465 434.886L51.0516 436.31C51.5361 435.831 52.0141 435.354 52.4857 434.878L51.0646 433.471ZM46.7179 437.715C46.2468 438.16 45.77 438.607 45.2873 439.054L46.647 440.521C47.1344 440.069 47.616 439.618 48.0919 439.168L46.7179 437.715ZM42.3212 441.751C41.8151 442.203 41.3031 442.655 40.7852 443.109L42.1031 444.613C42.6256 444.156 43.1421 443.699 43.6528 443.243L42.3212 441.751ZM37.775 445.701C37.2709 446.128 36.7615 446.556 36.2468 446.985L37.5271 448.522C38.0458 448.089 38.5593 447.658 39.0676 447.228L37.775 445.701ZM33.0953 449.57C32.8274 449.786 32.5581 450.003 32.2876 450.219L33.5381 451.78C33.8106 451.562 34.0818 451.344 34.3517 451.126L33.0953 449.57Z" fill="url(#paint0_linear_562_4510)"/>
<defs>
<linearGradient id="paint0_linear_562_4510" x1="26.6466" y1="451" x2="210.631" y2="158.576" gradientUnits="userSpaceOnUse">
<stop stop-color="#FFEF99"/>
<stop offset="1" stop-color="#FFEF99" stop-opacity="0"/>
</linearGradient>
</defs>
</svg>
