<svg width="286" height="57" viewBox="0 0 286 57" fill="none" xmlns="http://www.w3.org/2000/svg">
<path d="M-6.51919e-05 28.4805L5.77344 34.254L11.5469 28.4805L5.77344 22.707L-6.51919e-05 28.4805ZM285.608 28.4805L279.834 22.707L274.061 28.4805L279.834 34.254L285.608 28.4805ZM5.77344 29.4805H279.834V27.4805H5.77344V29.4805Z" fill="#FFD67E"/>
<rect y="1.42483" width="37.702" height="37.702" transform="matrix(0.701758 0.712415 -0.701758 0.712415 143.801 0.607025)" fill="#090A0C" stroke="#FFD67E" stroke-width="2"/>
<g clip-path="url(#clip0_562_4362)">
<path d="M145.669 23.9267L139.669 20.9267L134.734 23.0417V35.6897L139.799 33.5197L145.799 36.5197L150.734 34.4027V21.7557L145.669 23.9257V23.9267ZM132.734 21.7227L139.734 18.7227L145.734 21.7227L152.037 19.0217C152.113 18.989 152.196 18.9758 152.279 18.9832C152.361 18.9906 152.441 19.0183 152.51 19.0639C152.579 19.1095 152.636 19.1715 152.675 19.2445C152.714 19.3174 152.734 19.3989 152.734 19.4817V35.7227L145.734 38.7227L139.734 35.7227L133.431 38.4237C133.355 38.4563 133.272 38.4695 133.19 38.4621C133.107 38.4547 133.028 38.427 132.959 38.3814C132.89 38.3358 132.833 38.2738 132.794 38.2009C132.755 38.1279 132.734 38.0464 132.734 37.9637V21.7227ZM136.734 27.7227H138.734V29.7227H136.734V27.7227ZM140.734 27.7227H142.734V29.7227H140.734V27.7227ZM146.732 27.6597L147.97 26.4227L149.03 27.4827L147.793 28.7207L149.03 29.9587L147.97 31.0187L146.732 29.7817L145.495 31.0187L144.434 29.9587L145.671 28.7207L144.434 27.4837L145.494 26.4227L146.732 27.6597V27.6597Z" fill="#FFD67E"/>
</g>
<rect width="9.92549" height="9.92549" transform="matrix(0.701758 0.712415 -0.701758 0.712415 177.629 21.4102)" fill="#FFD67E"/>
<rect width="9.92549" height="9.92549" transform="matrix(0.701758 0.712415 -0.701758 0.712415 107.977 21.4102)" fill="#FFD67E"/>
<defs>
<clipPath id="clip0_562_4362">
<rect width="24" height="24" fill="white" transform="translate(130.734 16.7227)"/>
</clipPath>
</defs>
</svg>
