<svg width="234" height="83" viewBox="0 0 234 83" fill="none" xmlns="http://www.w3.org/2000/svg">
<path d="M0.846647 41.6719L3.7334 44.5586L6.62015 41.6719L3.7334 38.7851L0.846647 41.6719ZM85.9121 41.6719L83.0254 38.7851L80.1386 41.6719L83.0254 44.5586L85.9121 41.6719ZM3.7334 42.1719H83.0254V41.1719H3.7334V42.1719Z" fill="#FFEF99"/>
<path d="M148.087 41.6719L150.974 44.5586L153.861 41.6719L150.974 38.7851L148.087 41.6719ZM233.153 41.6719L230.266 38.7851L227.379 41.6719L230.266 44.5586L233.153 41.6719ZM150.974 42.1719H230.266V41.1719H150.974V42.1719Z" fill="#FFEF99"/>
<rect x="116.332" y="0.92781" width="33.3842" height="33.3842" transform="rotate(45 116.332 0.92781)" stroke="#FFEF99"/>
<rect x="80.4409" y="36.5899" width="7.18598" height="7.18598" transform="rotate(45 80.4409 36.5899)" stroke="#FFEF99"/>
<rect x="153.935" y="36.5899" width="7.18598" height="7.18598" transform="rotate(45 153.935 36.5899)" stroke="#FFEF99"/>
<rect x="92.0171" y="30.7989" width="15.3732" height="15.3732" transform="rotate(45 92.0171 30.7989)" stroke="#FFEF99"/>
<rect x="116.332" y="34.8145" width="33.3842" height="33.3842" transform="rotate(45 116.332 34.8145)" stroke="#FFEF99"/>
<rect x="141.98" y="30.7989" width="15.3732" height="15.3732" transform="rotate(45 141.98 30.7989)" stroke="#FFEF99"/>
<rect x="136.196" y="36.5899" width="7.18598" height="7.18598" transform="rotate(45 136.196 36.5899)" stroke="#FFEF99"/>
<rect x="97.8052" y="36.5899" width="7.18598" height="7.18598" transform="rotate(45 97.8052 36.5899)" stroke="#FFEF99"/>
</svg>
