<svg width="62" height="327" viewBox="0 0 62 327" fill="none" xmlns="http://www.w3.org/2000/svg">
<path d="M30.5044 47.5291L25.7776 52.2559L30.5044 56.9827L35.2312 52.2559L30.5044 47.5291ZM30.5044 360.853L35.2312 352.666H25.7776L30.5044 360.853ZM29.6857 52.2559V53.0723H31.3231L31.3231 52.2559H29.6857ZM29.6857 56.3378L29.6857 57.9706H31.3231V56.3378H29.6857ZM29.6857 61.2362L29.6857 62.869L31.3231 62.869L31.3231 61.2362H29.6857ZM29.6857 66.1346V67.7674H31.3231L31.3231 66.1346H29.6857ZM29.6857 71.0329L29.6857 72.6657H31.3231L31.3231 71.0329L29.6857 71.0329ZM29.6857 75.9313L29.6857 77.5641L31.3231 77.5641V75.9313L29.6857 75.9313ZM29.6857 80.8297L29.6857 82.4625L31.3231 82.4625L31.3231 80.8297L29.6857 80.8297ZM29.6857 85.728V87.3608L31.3231 87.3608L31.3231 85.728H29.6857ZM29.6857 90.6264L29.6857 92.2592H31.3231L31.3231 90.6264L29.6857 90.6264ZM29.6857 95.5248L29.6857 97.1576H31.3231L31.3231 95.5248L29.6857 95.5248ZM29.6857 100.423L29.6857 102.056L31.3231 102.056L31.3231 100.423H29.6857ZM29.6857 105.322V106.954L31.3231 106.954L31.3231 105.322L29.6857 105.322ZM29.6857 110.22L29.6857 111.853H31.3231L31.3231 110.22L29.6857 110.22ZM29.6857 115.118L29.6857 116.751H31.3231L31.3231 115.118H29.6857ZM29.6857 120.017L29.6857 121.649H31.3231L31.3231 120.017H29.6857ZM29.6857 124.915V126.548H31.3231L31.3231 124.915H29.6857ZM29.6857 129.813L29.6857 131.446H31.3231L31.3231 129.813H29.6857ZM29.6857 134.712L29.6857 136.345H31.3231L31.3231 134.712H29.6857ZM29.6857 139.61L29.6857 141.243H31.3231L31.3231 139.61H29.6857ZM29.6857 144.508V146.141H31.3231L31.3231 144.508H29.6857ZM29.6857 149.407L29.6857 151.04H31.3231L31.3231 149.407H29.6857ZM29.6857 154.305L29.6857 155.938H31.3231L31.3231 154.305H29.6857ZM29.6857 159.204L29.6857 160.836H31.3231L31.3231 159.204H29.6857ZM29.6857 164.102L29.6857 165.735H31.3231L31.3231 164.102H29.6857ZM29.6857 169L29.6857 170.633H31.3231L31.3231 169H29.6857ZM29.6857 173.899L29.6857 175.531H31.3231L31.3231 173.899H29.6857ZM29.6857 178.797L29.6857 180.43H31.3231L31.3231 178.797H29.6857ZM29.6857 183.695V185.328H31.3231L31.3231 183.695H29.6857ZM29.6857 188.594L29.6857 190.227H31.3231L31.3231 188.594H29.6857ZM29.6857 193.492L29.6857 195.125H31.3231L31.3231 193.492L29.6857 193.492ZM29.6857 198.391L29.6857 200.023H31.3231L31.3231 198.391H29.6857ZM29.6857 203.289L29.6857 204.922H31.3231L31.3231 203.289H29.6857ZM29.6857 208.187L29.6857 209.82H31.3231L31.3231 208.187L29.6857 208.187ZM29.6857 213.086L29.6857 214.718H31.3231L31.3231 213.086H29.6857ZM29.6857 217.984L29.6857 219.617H31.3231L31.3231 217.984H29.6857ZM29.6857 222.882L29.6857 224.515H31.3231L31.3231 222.882L29.6857 222.882ZM29.6857 227.781L29.6857 229.413H31.3231L31.3231 227.781H29.6857ZM29.6857 232.679L29.6857 234.312H31.3231L31.3231 232.679H29.6857ZM29.6857 237.577L29.6857 239.21H31.3231L31.3231 237.577L29.6857 237.577ZM29.6857 242.476L29.6857 244.109H31.3231L31.3231 242.476H29.6857ZM29.6857 247.374L29.6857 249.007H31.3231L31.3231 247.374H29.6857ZM29.6857 252.272L29.6857 253.905L31.3231 253.905L31.3231 252.272L29.6857 252.272ZM29.6857 257.171L29.6857 258.804H31.3231L31.3231 257.171H29.6857ZM29.6857 262.069L29.6857 263.702H31.3231L31.3231 262.069H29.6857ZM29.6857 266.968L29.6857 268.6H31.3231L31.3231 266.968H29.6857ZM29.6857 271.866L29.6857 273.499H31.3231L31.3231 271.866H29.6857ZM29.6857 276.764L29.6857 278.397H31.3231L31.3231 276.764H29.6857ZM29.6857 281.663L29.6857 283.295H31.3231L31.3231 281.663H29.6857ZM29.6857 286.561L29.6857 288.194H31.3231L31.3231 286.561H29.6857ZM29.6857 291.459L29.6857 293.092H31.3231L31.3231 291.459H29.6857ZM29.6857 296.358L29.6857 297.99L31.3231 297.99L31.3231 296.358H29.6857ZM29.6857 301.256L29.6857 302.889H31.3231L31.3231 301.256H29.6857ZM29.6857 306.154L29.6857 307.787H31.3231L31.3231 306.154H29.6857ZM29.6857 311.053L29.6857 312.686L31.3231 312.686L31.3231 311.053L29.6857 311.053ZM29.6857 315.951L29.6857 317.584L31.3231 317.584L31.3231 315.951L29.6857 315.951ZM29.6857 320.849L29.6857 322.482L31.3231 322.482L31.3231 320.849H29.6857ZM29.6857 325.748L29.6857 327.381L31.3231 327.381V325.748L29.6857 325.748ZM29.6857 330.646L29.6857 332.279L31.3231 332.279L31.3231 330.646L29.6857 330.646ZM29.6857 335.545L29.6857 337.177L31.3231 337.177L31.3231 335.545L29.6857 335.545ZM29.6857 340.443L29.6857 342.076L31.3231 342.076L31.3231 340.443L29.6857 340.443ZM29.6857 345.341L29.6857 346.974L31.3231 346.974V345.341L29.6857 345.341ZM29.6857 350.24L29.6857 351.872L31.3231 351.872L31.3231 350.24H29.6857ZM29.6857 355.138L29.6857 356.771L31.3231 356.771L31.3231 355.138L29.6857 355.138Z" fill="#FFD67E"/>
<rect y="1.15714" width="41.1751" height="41.1751" transform="matrix(0.707523 0.706691 -0.707523 0.706691 31.5775 0.841353)" fill="#090A0C" stroke="#FFD67E" stroke-width="1.63741" stroke-dasharray="1.64 3.27"/>
<rect x="28.981" y="17.7363" width="2.33902" height="2.33902" transform="rotate(-45 28.981 17.7363)" fill="#FFD67E"/>
<rect x="41.4502" y="30.7832" width="2.33902" height="2.33902" transform="rotate(-45 41.4502 30.7832)" fill="#FFD67E"/>
<rect x="39.3364" y="19.6016" width="2.33902" height="2.33902" fill="#FFD67E"/>
<rect x="19.1992" y="19.6016" width="2.33902" height="2.33902" fill="#FFD67E"/>
<rect x="39.3364" y="39.0918" width="2.33902" height="2.33902" fill="#FFD67E"/>
<rect x="19.1992" y="39.0918" width="2.33902" height="2.33902" fill="#FFD67E"/>
<rect x="16.5078" y="30.7832" width="2.33902" height="2.33902" transform="rotate(-45 16.5078 30.7832)" fill="#FFD67E"/>
<rect x="28.981" y="44.0254" width="2.33902" height="2.33902" transform="rotate(-45 28.981 44.0254)" fill="#FFD67E"/>
<mask id="path-11-outside-1_595_5153" maskUnits="userSpaceOnUse" x="19.7137" y="19.7302" width="22.5081" height="22.5081" fill="black">
<rect fill="white" x="19.7137" y="19.7302" width="22.5081" height="22.5081"/>
<path d="M40.4992 30.5311C40.6253 35.9253 36.3547 40.4003 30.9605 40.5264C25.5663 40.6525 21.0912 36.3819 20.9651 30.9877C20.839 25.5936 25.1097 21.1185 30.5038 20.9924C35.898 20.8663 40.3731 25.1369 40.4992 30.5311Z"/>
</mask>
<path d="M40.4992 30.5311C40.6253 35.9253 36.3547 40.4003 30.9605 40.5264C25.5663 40.6525 21.0912 36.3819 20.9651 30.9877C20.839 25.5936 25.1097 21.1185 30.5038 20.9924C35.898 20.8663 40.3731 25.1369 40.4992 30.5311Z" fill="#090A0C"/>
<path d="M40.9084 30.5215C40.9022 30.2528 40.8855 29.9866 40.8589 29.7235L40.0443 29.8059C40.0688 30.0481 40.0842 30.2931 40.09 30.5406L40.9084 30.5215ZM40.5739 28.1518C40.4364 27.6314 40.259 27.1277 40.045 26.6441L39.2963 26.9753C39.4929 27.4198 39.656 27.8826 39.7823 28.3608L40.5739 28.1518ZM39.2856 25.2385C38.9953 24.7897 38.6708 24.3654 38.3158 23.9693L37.7061 24.5157C38.0327 24.8801 38.3312 25.2704 38.5982 25.6831L39.2856 25.2385ZM37.1605 22.8667C36.7482 22.5307 36.3092 22.2263 35.8473 21.9573L35.4353 22.6648C35.8601 22.9122 36.2639 23.1921 36.6431 23.5013L37.1605 22.8667ZM34.4078 21.2644C33.9147 21.0733 33.4033 20.9196 32.8771 20.8066L32.7052 21.6071C33.1888 21.7109 33.6588 21.8522 34.1119 22.0278L34.4078 21.2644ZM31.2938 20.5954C31.0297 20.5811 30.763 20.5769 30.4943 20.5831L30.5134 21.4016C30.761 21.3958 31.0064 21.3997 31.2495 21.4129L31.2938 20.5954ZM30.4943 20.5831C30.2255 20.5894 29.9594 20.6061 29.6962 20.6327L29.7787 21.4473C30.0208 21.4227 30.2659 21.4074 30.5134 21.4016L30.4943 20.5831ZM28.1245 20.9177C27.6042 21.0551 27.1005 21.2326 26.6169 21.4465L26.9481 22.1953C27.3925 21.9987 27.8554 21.8356 28.3336 21.7093L28.1245 20.9177ZM25.2113 22.206C24.7625 22.4963 24.3382 22.8208 23.9421 23.1758L24.4885 23.7855C24.8529 23.4589 25.2432 23.1604 25.6559 22.8934L25.2113 22.206ZM22.8395 24.3311C22.5034 24.7434 22.1991 25.1824 21.9301 25.6443L22.6376 26.0563C22.8849 25.6315 23.1649 25.2277 23.4741 24.8484L22.8395 24.3311ZM21.2372 27.0838C21.0461 27.5769 20.8923 28.0883 20.7794 28.6145L21.5799 28.7863C21.6837 28.3028 21.8249 27.8328 22.0006 27.3796L21.2372 27.0838ZM20.5681 30.1978C20.5538 30.4619 20.5496 30.7286 20.5559 30.9973L21.3744 30.9782C21.3686 30.7306 21.3725 30.4851 21.3856 30.2421L20.5681 30.1978ZM20.5559 30.9973C20.5622 31.266 20.5788 31.5322 20.6055 31.7953L21.42 31.7129C21.3955 31.4707 21.3802 31.2257 21.3744 30.9782L20.5559 30.9973ZM20.8905 33.3671C21.0279 33.8874 21.2054 34.3911 21.4193 34.8747L22.168 34.5435C21.9714 34.099 21.8083 33.6362 21.682 33.158L20.8905 33.3671ZM22.1787 36.2803C22.469 36.7291 22.7935 37.1534 23.1485 37.5495L23.7582 37.0031C23.4316 36.6387 23.1331 36.2484 22.8662 35.8357L22.1787 36.2803ZM24.3039 38.6521C24.7161 38.9881 25.1551 39.2925 25.617 39.5615L26.029 38.854C25.6043 38.6066 25.2005 38.3267 24.8212 38.0175L24.3039 38.6521ZM27.0565 40.2544C27.5496 40.4455 28.0611 40.5992 28.5873 40.7122L28.7591 39.9117C28.2756 39.8079 27.8056 39.6666 27.3524 39.491L27.0565 40.2544ZM30.1706 40.9234C30.4347 40.9378 30.7013 40.942 30.9701 40.9357L30.9509 40.1172C30.7034 40.123 30.4579 40.1191 30.2149 40.1059L30.1706 40.9234ZM30.9701 40.9357C31.2388 40.9294 31.5049 40.9127 31.7681 40.8861L31.6856 40.0716C31.4435 40.0961 31.1985 40.1114 30.9509 40.1172L30.9701 40.9357ZM33.3398 40.6011C33.8602 40.4637 34.3638 40.2862 34.8475 40.0723L34.5163 39.3235C34.0718 39.5202 33.6089 39.6832 33.1308 39.8095L33.3398 40.6011ZM36.253 39.3128C36.7019 39.0226 37.1261 38.698 37.5222 38.3431L36.9759 37.7334C36.6114 38.0599 36.2212 38.3584 35.8084 38.6254L36.253 39.3128ZM38.6248 37.1877C38.9609 36.7754 39.2653 36.3365 39.5342 35.8746L38.8268 35.4626C38.5794 35.8873 38.2995 36.2911 37.9903 36.6704L38.6248 37.1877ZM40.2272 34.435C40.4183 33.9419 40.572 33.4305 40.685 32.9043L39.8845 32.7325C39.7807 33.216 39.6394 33.686 39.4638 34.1392L40.2272 34.435ZM40.8962 31.321C40.9105 31.0569 40.9147 30.7903 40.9084 30.5215L40.09 30.5406C40.0957 30.7882 40.0919 31.0337 40.0787 31.2767L40.8962 31.321ZM41.3177 30.5119C41.3112 30.2326 41.2938 29.9559 41.2661 29.6822L39.6371 29.8472C39.6605 30.0788 39.6752 30.3132 39.6807 30.5502L41.3177 30.5119ZM40.9696 28.0472C40.8266 27.5058 40.642 26.9817 40.4194 26.4785L38.922 27.1409C39.1099 27.5658 39.2658 28.0083 39.3865 28.4653L40.9696 28.0472ZM39.6293 25.0162C39.3274 24.5494 38.9898 24.1081 38.6207 23.6961L37.4013 24.7889C37.7137 25.1375 37.9992 25.5108 38.2544 25.9055L39.6293 25.0162ZM37.4191 22.5495C36.9904 22.2 36.5338 21.8834 36.0533 21.6036L35.2293 23.0186C35.6355 23.2551 36.0217 23.5228 36.3845 23.8186L37.4191 22.5495ZM34.5557 20.8827C34.0427 20.6839 33.5105 20.5239 32.963 20.4064L32.6193 22.0073C33.0816 22.1066 33.5308 22.2416 33.964 22.4095L34.5557 20.8827ZM31.3159 20.1866C31.0413 20.1717 30.764 20.1674 30.4847 20.1739L30.523 21.8109C30.76 21.8053 30.9948 21.809 31.2273 21.8216L31.3159 20.1866ZM30.4847 20.1739C30.2054 20.1804 29.9287 20.1977 29.655 20.2254L29.8199 21.8545C30.0516 21.8311 30.286 21.8164 30.523 21.8109L30.4847 20.1739ZM28.02 20.5219C27.4786 20.6649 26.9545 20.8496 26.4513 21.0722L27.1137 22.5696C27.5386 22.3817 27.981 22.2258 28.4381 22.1051L28.02 20.5219ZM24.989 21.8622C24.5221 22.1642 24.0808 22.5017 23.6689 22.8709L24.7617 24.0903C25.1103 23.7779 25.4835 23.4924 25.8782 23.2372L24.989 21.8622ZM22.5222 24.0725C22.1727 24.5012 21.8562 24.9578 21.5764 25.4383L22.9913 26.2623C23.2279 25.8561 23.4956 25.4699 23.7914 25.1071L22.5222 24.0725ZM20.8555 26.9359C20.6567 27.4489 20.4967 27.9811 20.3792 28.5286L21.9801 28.8723C22.0793 28.41 22.2144 27.9608 22.3823 27.5276L20.8555 26.9359ZM20.1594 30.1757C20.1445 30.4503 20.1401 30.7275 20.1467 31.0069L21.7836 30.9686C21.7781 30.7316 21.7818 30.4967 21.7944 30.2643L20.1594 30.1757ZM20.1467 31.0069C20.1532 31.2862 20.1705 31.5629 20.1982 31.8366L21.8273 31.6716C21.8038 31.44 21.7892 31.2056 21.7836 30.9686L20.1467 31.0069ZM20.4947 33.4716C20.6377 34.013 20.8224 34.5371 21.0449 35.0403L22.5424 34.3779C22.3544 33.953 22.1986 33.5106 22.0778 33.0535L20.4947 33.4716ZM21.835 36.5026C22.137 36.9695 22.4745 37.4107 22.8437 37.8227L24.0631 36.7299C23.7507 36.3813 23.4652 36.0081 23.2099 35.6134L21.835 36.5026ZM24.0452 38.9693C24.474 39.3189 24.9305 39.6354 25.411 39.9152L26.235 38.5003C25.8288 38.2637 25.4426 37.996 25.0799 37.7002L24.0452 38.9693ZM26.9086 40.6361C27.4217 40.8349 27.9538 40.9949 28.5013 41.1124L28.845 39.5115C28.3828 39.4123 27.9335 39.2772 27.5003 39.1093L26.9086 40.6361ZM30.1484 41.3322C30.4231 41.3471 30.7003 41.3514 30.9796 41.3449L30.9414 39.708C30.7044 39.7135 30.4695 39.7098 30.2371 39.6972L30.1484 41.3322ZM30.9796 41.3449C31.259 41.3384 31.5357 41.3211 31.8093 41.2934L31.6444 39.6643C31.4128 39.6877 31.1783 39.7024 30.9414 39.708L30.9796 41.3449ZM33.4443 40.9969C33.9858 40.8539 34.5099 40.6692 35.0131 40.4466L34.3507 38.9492C33.9258 39.1371 33.4833 39.293 33.0262 39.4137L33.4443 40.9969ZM36.4754 39.6566C36.9422 39.3546 37.3835 39.0171 37.7954 38.6479L36.7027 37.4285C36.3541 37.7409 35.9808 38.0264 35.5861 38.2817L36.4754 39.6566ZM38.9421 37.4463C39.2916 37.0176 39.6082 36.561 39.888 36.0806L38.473 35.2566C38.2365 35.6627 37.9687 36.0489 37.673 36.4117L38.9421 37.4463ZM40.6089 34.583C40.8077 34.0699 40.9677 33.5377 41.0852 32.9902L39.4843 32.6466C39.385 33.1088 39.25 33.5581 39.0821 33.9913L40.6089 34.583ZM41.305 31.3432C41.3199 31.0685 41.3242 30.7913 41.3177 30.5119L39.6807 30.5502C39.6863 30.7872 39.6826 31.0221 39.67 31.2545L41.305 31.3432Z" fill="#FFD67E" mask="url(#path-11-outside-1_595_5153)"/>
<mask id="path-13-outside-2_595_5153" maskUnits="userSpaceOnUse" x="21.9453" y="21.9629" width="18" height="18" fill="black">
<rect fill="white" x="21.9453" y="21.9629" width="18" height="18"/>
<path d="M38.5399 30.7602C38.5399 35.0665 35.049 38.5575 30.7426 38.5575C26.4363 38.5575 22.9453 35.0665 22.9453 30.7602C22.9453 26.4539 26.4363 22.9629 30.7426 22.9629C35.049 22.9629 38.5399 26.4539 38.5399 30.7602Z"/>
</mask>
<path d="M38.5399 30.7602C38.5399 35.0665 35.049 38.5575 30.7426 38.5575C26.4363 38.5575 22.9453 35.0665 22.9453 30.7602C22.9453 26.4539 26.4363 22.9629 30.7426 22.9629C35.049 22.9629 38.5399 26.4539 38.5399 30.7602Z" fill="#090A0C"/>
<path d="M37.7212 30.7602C37.7212 34.6144 34.5968 37.7388 30.7426 37.7388V39.3762C35.5011 39.3762 39.3586 35.5187 39.3586 30.7602H37.7212ZM30.7426 37.7388C26.8884 37.7388 23.764 34.6144 23.764 30.7602H22.1266C22.1266 35.5187 25.9841 39.3762 30.7426 39.3762V37.7388ZM23.764 30.7602C23.764 26.906 26.8884 23.7816 30.7426 23.7816V22.1442C25.9841 22.1442 22.1266 26.0017 22.1266 30.7602H23.764ZM30.7426 23.7816C34.5968 23.7816 37.7212 26.906 37.7212 30.7602H39.3586C39.3586 26.0017 35.5011 22.1442 30.7426 22.1442V23.7816Z" fill="#FFD67E" mask="url(#path-13-outside-2_595_5153)"/>
<path d="M32.8322 27.9472C31.5651 28.9916 29.7364 28.992 28.4704 27.9484L26.3328 26.1862L28.0951 28.3238C29.1388 29.59 29.1384 31.4186 28.0938 32.6856L26.3328 34.8216L28.4689 33.0607C29.736 32.0162 31.5646 32.0158 32.8306 33.0594L34.9682 34.8216L33.206 32.684C32.1622 31.4178 32.1627 29.5892 33.2073 28.3223L34.9682 26.1862L32.8322 27.9472Z" fill="#FFD67E"/>
<rect x="30.5088" y="76.3649" width="22.6759" height="22.6759" transform="rotate(45 30.5088 76.3649)" fill="#090A0C" stroke="#FFEF99" stroke-width="1.63741" stroke-dasharray="1.64 3.27"/>
<rect x="30.5439" y="163.054" width="22.6759" height="22.6759" transform="rotate(45 30.5439 163.054)" fill="#090A0C" stroke="#FFEF99" stroke-width="1.63741" stroke-dasharray="1.64 3.27"/>
<rect x="30.5439" y="217.089" width="22.6759" height="22.6759" transform="rotate(45 30.5439 217.089)" fill="#090A0C" stroke="#FFEF99" stroke-width="1.63741" stroke-dasharray="1.64 3.27"/>
<rect x="30.5439" y="271.123" width="22.6759" height="22.6759" transform="rotate(45 30.5439 271.123)" fill="#090A0C" stroke="#FFEF99" stroke-width="1.63741" stroke-dasharray="1.64 3.27"/>
</svg>
