<svg width="103" height="359" viewBox="0 0 103 359" fill="none" xmlns="http://www.w3.org/2000/svg">
<path d="M51.0957 47.4978L46.3689 52.2246L51.0957 56.9514L55.8225 52.2246L51.0957 47.4978ZM51.0957 358.834L55.8225 350.647H46.3689L51.0957 358.834ZM51.0957 200.241H51.9144H51.0957ZM50.277 52.2246L50.277 200.241H51.9144L51.9144 52.2246H50.277ZM50.277 200.241L50.277 351.465L51.9144 351.465L51.9144 200.241H50.277Z" fill="#FFD67E"/>
<rect y="1.15714" width="41.1751" height="41.1751" transform="matrix(0.707523 0.706691 -0.707523 0.706691 52.159 0.810103)" fill="#090A0C" stroke="#FFD67E" stroke-width="1.63741"/>
<path d="M39.2568 31.0098L45.6387 31.0098" stroke="#FFD67E" stroke-width="0.818704" stroke-miterlimit="10"/>
<path d="M42.8516 22.3333L47.538 27" stroke="#FFD67E" stroke-width="0.818704" stroke-miterlimit="10"/>
<path d="M47.538 35.0227L42.8516 39.6895" stroke="#FFD67E" stroke-width="0.818704" stroke-miterlimit="10"/>
<path d="M40.1294 26.4267L46.2778 28.8906" stroke="#FFD67E" stroke-width="0.818704" stroke-miterlimit="10"/>
<path d="M49.4343 36.2778L46.96 42.4004" stroke="#FFD67E" stroke-width="0.818704" stroke-miterlimit="10"/>
<path d="M46.7339 19.7176L49.3319 25.7891" stroke="#FFD67E" stroke-width="0.818704" stroke-miterlimit="10"/>
<path d="M46.3197 33.2371L40.2227 35.8242" stroke="#FFD67E" stroke-width="0.818704" stroke-miterlimit="10"/>
<path d="M39.498 28.4864L45.9834 29.8457" stroke="#FFD67E" stroke-width="0.818704" stroke-miterlimit="10"/>
<path d="M50.3887 36.5634L49.0239 43.0215" stroke="#FFD67E" stroke-width="0.818704" stroke-miterlimit="10"/>
<path d="M44.8218 20.7281L48.4426 26.2559" stroke="#FFD67E" stroke-width="0.818704" stroke-miterlimit="10"/>
<path d="M46.794 34.1151L41.2432 37.7207" stroke="#FFD67E" stroke-width="0.818704" stroke-miterlimit="10"/>
<path d="M41.3091 24.1855L46.816 27.8574" stroke="#FFD67E" stroke-width="0.818704" stroke-miterlimit="10"/>
<path d="M48.3925 35.7291L44.7051 41.2129" stroke="#FFD67E" stroke-width="0.818704" stroke-miterlimit="10"/>
<path d="M49.1758 18.9692L50.4623 25.4434" stroke="#FFD67E" stroke-width="0.818704" stroke-miterlimit="10"/>
<path d="M45.9688 32.1132L39.4673 33.3945" stroke="#FFD67E" stroke-width="0.818704" stroke-miterlimit="10"/>
<path d="M63.8169 31.0059H53.6867" stroke="#FFD67E" stroke-width="0.818704" stroke-miterlimit="10"/>
<path d="M51.5727 36.9311L51.5728 43.1973" stroke="#FFD67E" stroke-width="0.818704" stroke-miterlimit="10"/>
<path d="M60.269 22.3294L55.5826 26.9961" stroke="#FFD67E" stroke-width="0.818704" stroke-miterlimit="10"/>
<path d="M55.5826 35.0188L60.269 39.6855" stroke="#FFD67E" stroke-width="0.818704" stroke-miterlimit="10"/>
<path d="M62.9912 26.4228L56.8428 28.8867" stroke="#FFD67E" stroke-width="0.818704" stroke-miterlimit="10"/>
<path d="M53.6863 36.2681L56.1606 42.3906" stroke="#FFD67E" stroke-width="0.818704" stroke-miterlimit="10"/>
<path d="M56.394 19.7118L53.796 25.7832" stroke="#FFD67E" stroke-width="0.818704" stroke-miterlimit="10"/>
<path d="M56.8009 33.2293L62.8979 35.8164" stroke="#FFD67E" stroke-width="0.818704" stroke-miterlimit="10"/>
<path d="M63.626 28.4786L57.1406 29.8379" stroke="#FFD67E" stroke-width="0.818704" stroke-miterlimit="10"/>
<path d="M52.7392 36.5614L54.104 43.0195" stroke="#FFD67E" stroke-width="0.818704" stroke-miterlimit="10"/>
<path d="M58.2905 20.7242L54.6697 26.252" stroke="#FFD67E" stroke-width="0.818704" stroke-miterlimit="10"/>
<path d="M56.3344 34.1073L61.8853 37.7129" stroke="#FFD67E" stroke-width="0.818704" stroke-miterlimit="10"/>
<path d="M61.8037 24.1757L56.2967 27.8477" stroke="#FFD67E" stroke-width="0.818704" stroke-miterlimit="10"/>
<path d="M54.7242 35.7252L58.4116 41.209" stroke="#FFD67E" stroke-width="0.818704" stroke-miterlimit="10"/>
<path d="M53.9443 18.9633L52.6578 25.4375" stroke="#FFD67E" stroke-width="0.818704" stroke-miterlimit="10"/>
<path d="M57.1518 32.1093L63.6533 33.3906" stroke="#FFD67E" stroke-width="0.818704" stroke-miterlimit="10"/>
<path d="M51.5649 18.6334L51.5649 25.3281" stroke="#FFD67E" stroke-width="0.818704" stroke-miterlimit="10"/>
<mask id="path-35-outside-1_595_5151" maskUnits="userSpaceOnUse" x="42.481" y="21.7871" width="19" height="19" fill="black">
<rect fill="white" x="42.481" y="21.7871" width="19" height="19"/>
<path d="M59.8584 30.9747C59.8584 35.4966 56.1921 39.1624 51.6697 39.1624C47.1472 39.1624 43.481 35.4966 43.481 30.9747C43.481 26.4528 47.1472 22.7871 51.6697 22.7871C56.1921 22.7871 59.8584 26.4528 59.8584 30.9747Z"/>
</mask>
<path d="M59.8584 30.9747C59.8584 35.4966 56.1921 39.1624 51.6697 39.1624C47.1472 39.1624 43.481 35.4966 43.481 30.9747C43.481 26.4528 47.1472 22.7871 51.6697 22.7871C56.1921 22.7871 59.8584 26.4528 59.8584 30.9747Z" fill="#090A0C"/>
<path d="M59.0396 30.9747C59.0396 35.0444 55.7401 38.3437 51.6697 38.3437V39.9811C56.6442 39.9811 60.6771 35.9489 60.6771 30.9747H59.0396ZM51.6697 38.3437C47.5992 38.3437 44.2997 35.0444 44.2997 30.9747H42.6623C42.6623 35.9489 46.6951 39.9811 51.6697 39.9811V38.3437ZM44.2997 30.9747C44.2997 26.9051 47.5992 23.6058 51.6697 23.6058V21.9684C46.6951 21.9684 42.6623 26.0006 42.6623 30.9747H44.2997ZM51.6697 23.6058C55.7401 23.6058 59.0396 26.9051 59.0396 30.9747H60.6771C60.6771 26.0006 56.6442 21.9684 51.6697 21.9684V23.6058Z" fill="#FFD67E" mask="url(#path-35-outside-1_595_5151)"/>
<path d="M53.2394 29.4032L51.5295 23.9453L50.3593 27.6806L52.4517 29.2428L53.2394 29.4032Z" fill="#FFD67E"/>
<path d="M45.1494 34.9634L48.979 34.1065L49.2898 31.5186L49.0349 30.7582L45.1494 34.9634Z" fill="#FFD67E"/>
<path d="M55.2505 32.0852L52.8473 33.111L52.3142 33.711L57.9095 34.9634L55.2505 32.0852Z" fill="#FFD67E"/>
<path d="M51.9827 30.284L49.4108 28.3637L50.429 31.4022L50.0469 34.5833L52.1771 32.1846L55.1308 30.9241L51.9827 30.284Z" fill="#FFD67E"/>
<path d="M7.48483 85.4282L1.16311 83.4505L2.7078 81.9815L2.99538 81.708L2.73094 81.4121L0.785355 79.2349L0.785615 77.6664C0.785851 76.2451 1.93817 75.0929 3.35954 75.0929H51.0922H63.7711H70.0241L72.4986 76.1854L72.6029 76.2314L72.716 76.2169L75.6475 75.841L80.9926 77.6043L82.125 77.9779L81.4608 76.9875L80.5807 75.6753L82.8412 75.0929H89.1288H98.3716C99.9368 75.0929 101.14 76.4784 100.92 78.0282L100.737 79.3169L100.729 79.3773L100.738 79.4375L101.385 83.5825L99.6039 87.8586L96.1986 90.7101L95.6109 91.2023L96.3468 91.417L101.359 92.8787L101.081 95.1407L99.6036 97.3386L99.4956 97.4992L99.5512 97.6845L100.296 100.167L99.9622 101.856L98.2858 101.681L98.1925 101.672L98.1043 101.704L95.8967 102.501L94.6703 102.945L95.9301 103.282L97.7262 103.763L99.3832 105.216L99.4216 105.249L99.467 105.272L101.31 106.213L100.753 107.919L101.143 108.046L100.748 108.154C101.011 109.121 100.284 110.073 99.2821 110.073H76.4499H51.0922H38.4133H32.2086L30.0339 108.468L29.8666 108.345L29.6681 108.407L27.4918 109.091L27.4557 109.103L27.4222 109.12L25.6323 110.073H19.4539L16.1024 109.089L15.9777 109.052L15.8548 109.094L12.9877 110.073H3.53082C2.05303 110.073 0.878697 108.832 0.960879 107.356L1.09028 105.033L1.60509 103.609L1.66045 103.455L1.59541 103.306L0.807865 101.498L1.31725 99.4796L1.34162 99.3831L1.31892 99.2861L0.841364 97.2467L3.80539 95.3499L4.30084 95.0328L3.83138 94.6784L0.907221 92.4707L1.99413 90.5111L2.10591 90.3096L1.99158 90.1095L0.936252 88.2624L3.71595 86.6921L7.4139 86.225L7.48483 85.4282Z" fill="url(#paint0_radial_595_5151)" stroke="#69FF93" stroke-width="0.818704"/>
<path d="M3.0868 79.1797L5.4502 81.5431L7.81359 79.1797L5.4502 76.8163L3.0868 79.1797ZM43.6115 79.1797L41.2481 76.8163L38.8847 79.1797L41.2481 81.5431L43.6115 79.1797ZM5.4502 79.589H41.2481V78.7703H5.4502V79.589Z" fill="#69FF93"/>
<path d="M57.3012 79.1797L59.6646 81.5431L62.0279 79.1797L59.6646 76.8163L57.3012 79.1797ZM97.8258 79.1797L95.4624 76.8163L93.099 79.1797L95.4624 81.5431L97.8258 79.1797ZM59.6646 79.589H95.4624V78.7703H59.6646V79.589Z" fill="#69FF93"/>
<path d="M50.9355 75.2675L56.0769 75.2675L50.9355 80.4088L45.7942 75.2675L50.9355 75.2675Z" stroke="#69FF93" stroke-width="0.818704"/>
<rect x="41.8867" y="78.2996" width="1.24523" height="1.24523" transform="rotate(45 41.8867 78.2996)" stroke="#69FF93" stroke-width="0.818704"/>
<rect x="60.4175" y="78.2996" width="1.24523" height="1.24523" transform="rotate(45 60.4175 78.2996)" stroke="#69FF93" stroke-width="0.818704"/>
<rect x="44.8081" y="76.8387" width="3.30917" height="3.30917" transform="rotate(45 44.8081 76.8387)" stroke="#69FF93" stroke-width="0.818704"/>
<rect x="57.4023" y="76.8387" width="3.30917" height="3.30917" transform="rotate(45 57.4023 76.8387)" stroke="#69FF93" stroke-width="0.818704"/>
<rect x="55.9434" y="78.2996" width="1.24523" height="1.24523" transform="rotate(45 55.9434 78.2996)" stroke="#69FF93" stroke-width="0.818704"/>
<rect x="46.2632" y="78.2996" width="1.24523" height="1.24523" transform="rotate(45 46.2632 78.2996)" stroke="#69FF93" stroke-width="0.818704"/>
<path d="M3.08631 106.133L5.44971 103.769L7.8131 106.133L5.44971 108.496L3.08631 106.133ZM43.611 106.133L41.2476 108.496L38.8842 106.133L41.2476 103.769L43.611 106.133ZM5.44971 105.723H41.2476V106.542H5.44971V105.723Z" fill="#69FF93"/>
<path d="M57.3007 106.133L59.6641 103.769L62.0275 106.133L59.6641 108.496L57.3007 106.133ZM97.8253 106.133L95.462 108.496L93.0986 106.133L95.462 103.769L97.8253 106.133ZM59.6641 105.723H95.462V106.542H59.6641V105.723Z" fill="#69FF93"/>
<path d="M50.9351 110.045L56.0764 110.045L50.9351 104.904L45.7937 110.045L50.9351 110.045Z" stroke="#69FF93" stroke-width="0.818704"/>
<rect y="-0.578911" width="1.24523" height="1.24523" transform="matrix(0.707107 -0.707107 -0.707107 -0.707107 41.4774 106.605)" stroke="#69FF93" stroke-width="0.818704"/>
<rect y="-0.578911" width="1.24523" height="1.24523" transform="matrix(0.707107 -0.707107 -0.707107 -0.707107 60.0076 106.605)" stroke="#69FF93" stroke-width="0.818704"/>
<rect y="-0.578911" width="3.30917" height="3.30917" transform="matrix(0.707107 -0.707107 -0.707107 -0.707107 44.3983 108.064)" stroke="#69FF93" stroke-width="0.818704"/>
<rect y="-0.578911" width="3.30917" height="3.30917" transform="matrix(0.707107 -0.707107 -0.707107 -0.707107 56.9925 108.064)" stroke="#69FF93" stroke-width="0.818704"/>
<rect y="-0.578911" width="1.24523" height="1.24523" transform="matrix(0.707107 -0.707107 -0.707107 -0.707107 55.534 106.605)" stroke="#69FF93" stroke-width="0.818704"/>
<rect y="-0.578911" width="1.24523" height="1.24523" transform="matrix(0.707107 -0.707107 -0.707107 -0.707107 45.8533 106.605)" stroke="#69FF93" stroke-width="0.818704"/>
<path d="M21.7877 99.9902V99.5298H22.4223C23.1274 99.5298 23.6334 99.3017 23.9403 98.8455C24.1228 98.58 24.2141 97.9662 24.2141 97.0039V86.104C24.2141 85.0422 24.0979 84.3827 23.8657 84.1255C23.5422 83.7606 23.061 83.5781 22.4223 83.5781H21.7877V83.1177H28.6562C31.1779 83.1177 33.0941 83.4039 34.4048 83.9762C35.7237 84.5486 36.7814 85.5026 37.5777 86.8381C38.3824 88.1653 38.7847 89.7083 38.7847 91.4669C38.7847 92.7111 38.5815 93.8559 38.175 94.9011C37.7768 95.9463 37.1796 96.8463 36.3832 97.6012C35.5952 98.3478 34.608 98.9326 33.4218 99.3556C32.2439 99.7787 30.8793 99.9902 29.3281 99.9902H21.7877ZM26.6031 98.7708C27.64 99.0031 28.5235 99.1192 29.2534 99.1192C30.2074 99.1192 31.0908 98.945 31.9038 98.5966C32.725 98.2399 33.4343 97.7381 34.0315 97.091C34.6288 96.4357 35.0975 95.6435 35.4376 94.7144C35.7777 93.7854 35.9477 92.7443 35.9477 91.5913C35.9477 90.4299 35.7777 89.3847 35.4376 88.4557C35.1057 87.5266 34.6371 86.7386 34.0315 86.0915C33.4343 85.4362 32.7167 84.9343 31.8789 84.5859C31.0494 84.2375 30.141 84.0633 29.1539 84.0633C28.7806 84.0633 28.3824 84.0965 27.9594 84.1629C27.5363 84.2209 27.0842 84.308 26.6031 84.4242V98.7708ZM46.1384 88.2566C46.9431 88.2566 47.6814 88.4142 48.3533 88.7294C49.0252 89.0446 49.6017 89.4677 50.0828 89.9986C50.5723 90.5295 50.9497 91.1475 51.2151 91.8526C51.4889 92.5577 51.6258 93.3001 51.6258 94.0799C51.6258 94.9011 51.4847 95.6891 51.2027 96.444C50.929 97.1906 50.5432 97.8542 50.0455 98.4349C49.5478 99.0155 48.9547 99.4801 48.2662 99.8285C47.5777 100.169 46.8228 100.339 46.0016 100.339C45.1969 100.339 44.4628 100.173 43.7992 99.8409C43.1439 99.5091 42.5798 99.0695 42.1069 98.522C41.6341 97.9662 41.2691 97.3316 41.012 96.6182C40.7548 95.9048 40.6262 95.1665 40.6262 94.4034C40.6262 93.6319 40.759 92.877 41.0244 92.1388C41.2899 91.4005 41.6632 90.7452 42.1443 90.1728C42.6337 89.5921 43.2144 89.1276 43.8863 88.7792C44.5665 88.4308 45.3172 88.2566 46.1384 88.2566ZM45.7527 89.0654C45.3877 89.0654 45.0352 89.1442 44.6951 89.3018C44.3633 89.4511 44.0646 89.7 43.7992 90.0484C43.542 90.3885 43.3346 90.8323 43.177 91.3798C43.0194 91.9189 42.9406 92.5784 42.9406 93.3582C42.9406 94.1628 43.0236 94.9343 43.1895 95.6726C43.3637 96.4108 43.6042 97.062 43.9112 97.6261C44.2264 98.1819 44.6038 98.6257 45.0435 98.9575C45.4914 99.2893 45.9891 99.4552 46.5366 99.4552C46.9348 99.4552 47.2998 99.3805 47.6316 99.2312C47.9717 99.0736 48.2662 98.8248 48.515 98.4846C48.7639 98.1362 48.9588 97.68 49.0999 97.1159C49.2409 96.5518 49.3114 95.8592 49.3114 95.038C49.3114 94.2167 49.2326 93.4453 49.075 92.7236C48.9174 92.0019 48.6851 91.3715 48.3782 90.8323C48.0795 90.2848 47.7063 89.8534 47.2583 89.5382C46.8187 89.223 46.3168 89.0654 45.7527 89.0654ZM56.6278 90.6705C57.9633 89.0612 59.2367 88.2566 60.4478 88.2566C60.8708 88.2566 61.2607 88.3271 61.6174 88.4681C61.9741 88.6091 62.2852 88.8456 62.5506 89.1774C62.8161 89.5092 63.0235 89.9488 63.1728 90.4963C63.3221 91.0438 63.3967 91.7282 63.3967 92.5494V97.4146C63.3967 97.904 63.4216 98.2897 63.4714 98.5717C63.5295 98.8538 63.6249 99.0695 63.7576 99.2188C63.8903 99.3598 64.0687 99.451 64.2926 99.4925C64.5166 99.5257 64.7986 99.5423 65.1387 99.5423V99.9902H59.5021V99.5423H59.7385C60.1118 99.5423 60.4022 99.5091 60.6095 99.4427C60.8252 99.3764 60.987 99.2644 61.0948 99.1068C61.2026 98.9409 61.269 98.7211 61.2939 98.4473C61.3271 98.1736 61.3437 97.8293 61.3437 97.4146V92.7485C61.3437 91.7116 61.2068 90.9608 60.933 90.4963C60.6676 90.0235 60.2155 89.7871 59.5768 89.7871C58.5896 89.7871 57.6066 90.3263 56.6278 91.4046V97.4146C56.6278 98.1694 56.6734 98.6464 56.7647 98.8455C56.8227 98.9699 56.885 99.0778 56.9513 99.169C57.026 99.2603 57.1214 99.3349 57.2375 99.393C57.3619 99.4427 57.5195 99.4801 57.7103 99.505C57.9094 99.5298 58.1666 99.5423 58.4818 99.5423V99.9902H52.8452V99.5423H53.094C53.3927 99.5423 53.6374 99.5091 53.8282 99.4427C54.0189 99.3764 54.1683 99.2603 54.2761 99.0943C54.3922 98.9284 54.471 98.7128 54.5125 98.4473C54.554 98.1736 54.5747 97.8293 54.5747 97.4146V93.184C54.5747 91.8318 54.5415 90.9982 54.4752 90.683C54.4171 90.3843 54.3217 90.1811 54.189 90.0732C54.0646 89.9654 53.8945 89.9115 53.6788 89.9115C53.4466 89.9115 53.1687 89.9737 52.8452 90.0981L52.6585 89.6502L56.0928 88.2566H56.6278V90.6705ZM70.5763 84.0384V90.7078H74.2843C74.8235 90.7078 75.259 90.6622 75.5908 90.571C75.9309 90.4714 76.1963 90.3221 76.3871 90.123C76.5779 89.9156 76.7106 89.6585 76.7853 89.3516C76.8599 89.0446 76.9097 88.6796 76.9346 88.2566H77.395V94.1296H76.9346C76.8765 93.7149 76.8185 93.3789 76.7604 93.1218C76.7023 92.8563 76.6443 92.6655 76.5862 92.5494C76.5115 92.4001 76.4162 92.2715 76.3 92.1637C76.1839 92.0475 76.0346 91.948 75.8521 91.865C75.6696 91.7821 75.4498 91.7199 75.1926 91.6784C74.9354 91.6369 74.6327 91.6162 74.2843 91.6162H70.5763V97.1781C70.5763 97.9164 70.6095 98.3727 70.6758 98.5469C70.709 98.6215 70.7505 98.692 70.8003 98.7584C70.85 98.8248 70.9205 98.8828 71.0118 98.9326C71.1113 98.9741 71.2358 99.0072 71.3851 99.0321C71.5427 99.057 71.7376 99.0695 71.9699 99.0695H74.8318C75.3212 99.0695 75.7276 99.057 76.0512 99.0321C76.383 98.999 76.6692 98.9492 76.9097 98.8828C77.1586 98.8082 77.3743 98.7086 77.5567 98.5842C77.7475 98.4515 77.9466 98.2856 78.154 98.0865C78.4112 97.8376 78.6725 97.5182 78.9379 97.1284C79.2034 96.7385 79.4688 96.2823 79.7343 95.7597H80.232L78.7762 99.9902H65.7733V99.5298H66.3706C66.5282 99.5298 66.6941 99.5133 66.8683 99.4801C67.0425 99.4469 67.2043 99.393 67.3536 99.3183C67.5112 99.2437 67.6522 99.1524 67.7766 99.0446C67.9011 98.9284 67.9882 98.7957 68.0379 98.6464C68.1375 98.3892 68.1873 97.8459 68.1873 97.0164V86.0542C68.1873 84.9924 68.0794 84.3329 67.8637 84.0758C67.5651 83.744 67.0674 83.5781 66.3706 83.5781H65.7733V83.1177H78.7762V86.8132H78.4775C78.3863 86.3653 78.295 85.9961 78.2038 85.7058C78.1125 85.4155 78.0088 85.1749 77.8927 84.9841C77.7766 84.7933 77.6438 84.644 77.4945 84.5362C77.3452 84.42 77.1669 84.3163 76.9595 84.2251C76.6194 84.1007 76.0346 84.0384 75.205 84.0384H70.5763Z" fill="#69FF93"/>
<rect x="50.4639" y="183.748" width="22.6759" height="22.6759" transform="rotate(45 50.4639 183.748)" fill="#090A0C" stroke="#FFEF99" stroke-width="1.63741" stroke-dasharray="1.64 3.27"/>
<rect x="51.1338" y="130.468" width="22.6759" height="22.6759" transform="rotate(45 51.1338 130.468)" fill="#090A0C" stroke="#FFEF99" stroke-width="1.63741" stroke-dasharray="1.64 3.27"/>
<rect x="50.4639" y="237.81" width="22.6759" height="22.6759" transform="rotate(45 50.4639 237.81)" fill="#090A0C" stroke="#FFEF99" stroke-width="1.63741" stroke-dasharray="1.64 3.27"/>
<rect x="50.4639" y="291.869" width="22.6759" height="22.6759" transform="rotate(45 50.4639 291.869)" fill="#090A0C" stroke="#FFEF99" stroke-width="1.63741" stroke-dasharray="1.64 3.27"/>
<defs>
<radialGradient id="paint0_radial_595_5151" cx="0" cy="0" r="1" gradientUnits="userSpaceOnUse" gradientTransform="translate(51.0918 92.5832) rotate(90) scale(30.7461 87.1147)">
<stop stop-color="#201E15"/>
<stop offset="1" stop-color="#090A0C"/>
</radialGradient>
</defs>
</svg>
