<svg width="103" height="360" viewBox="0 0 103 360" fill="none" xmlns="http://www.w3.org/2000/svg">
<path d="M51.3838 47.5681L46.657 52.2949L51.3838 57.0217L56.1106 52.2949L51.3838 47.5681ZM51.3838 359.614L56.1106 351.427H46.657L51.3838 359.614ZM50.5651 52.2949L50.5651 352.245L52.2025 352.245L52.2025 52.2949H50.5651Z" fill="#FFD67E"/>
<rect y="1.15714" width="41.1751" height="41.1751" transform="matrix(0.707523 0.706691 -0.707523 0.706691 52.4418 0.886275)" fill="#090A0C" stroke="#FFD67E" stroke-width="1.63741"/>
<path d="M39.0742 30.8984L45.455 30.8984" stroke="#FFD67E" stroke-width="0.818704" stroke-miterlimit="10"/>
<path d="M42.6807 22.22L47.3663 26.8867" stroke="#FFD67E" stroke-width="0.818704" stroke-miterlimit="10"/>
<path d="M47.3663 34.9134L42.6807 39.5801" stroke="#FFD67E" stroke-width="0.818704" stroke-miterlimit="10"/>
<path d="M39.9502 26.3173L46.0975 28.7812" stroke="#FFD67E" stroke-width="0.818704" stroke-miterlimit="10"/>
<path d="M49.2552 36.1646L46.7812 42.2871" stroke="#FFD67E" stroke-width="0.818704" stroke-miterlimit="10"/>
<path d="M46.5518 19.6083L49.1494 25.6797" stroke="#FFD67E" stroke-width="0.818704" stroke-miterlimit="10"/>
<path d="M46.1439 33.1238L40.0479 35.7109" stroke="#FFD67E" stroke-width="0.818704" stroke-miterlimit="10"/>
<path d="M39.3311 28.379L45.8153 29.7383" stroke="#FFD67E" stroke-width="0.818704" stroke-miterlimit="10"/>
<path d="M50.1986 36.454L48.834 42.9121" stroke="#FFD67E" stroke-width="0.818704" stroke-miterlimit="10"/>
<path d="M44.6396 20.6187L48.2598 26.1465" stroke="#FFD67E" stroke-width="0.818704" stroke-miterlimit="10"/>
<path d="M46.6066 34.0018L41.0566 37.6074" stroke="#FFD67E" stroke-width="0.818704" stroke-miterlimit="10"/>
<path d="M41.1309 24.0722L46.6369 27.7441" stroke="#FFD67E" stroke-width="0.818704" stroke-miterlimit="10"/>
<path d="M48.2132 35.6178L44.5264 41.1016" stroke="#FFD67E" stroke-width="0.818704" stroke-miterlimit="10"/>
<path d="M48.9854 18.8598L50.2716 25.334" stroke="#FFD67E" stroke-width="0.818704" stroke-miterlimit="10"/>
<path d="M45.7963 32.0019L39.2959 33.2832" stroke="#FFD67E" stroke-width="0.818704" stroke-miterlimit="10"/>
<path d="M63.6377 30.8965H53.5093" stroke="#FFD67E" stroke-width="0.818704" stroke-miterlimit="10"/>
<path d="M51.3857 36.8217L51.3857 43.0879" stroke="#FFD67E" stroke-width="0.818704" stroke-miterlimit="10"/>
<path d="M60.0859 22.218L55.4003 26.8848" stroke="#FFD67E" stroke-width="0.818704" stroke-miterlimit="10"/>
<path d="M55.4003 34.9075L60.0859 39.5742" stroke="#FFD67E" stroke-width="0.818704" stroke-miterlimit="10"/>
<path d="M62.8125 26.3115L56.6651 28.7754" stroke="#FFD67E" stroke-width="0.818704" stroke-miterlimit="10"/>
<path d="M53.5036 36.1587L55.9775 42.2812" stroke="#FFD67E" stroke-width="0.818704" stroke-miterlimit="10"/>
<path d="M56.207 19.6024L53.6094 25.6738" stroke="#FFD67E" stroke-width="0.818704" stroke-miterlimit="10"/>
<path d="M56.6227 33.118L62.7188 35.7051" stroke="#FFD67E" stroke-width="0.818704" stroke-miterlimit="10"/>
<path d="M63.4434 28.3692L56.9591 29.7285" stroke="#FFD67E" stroke-width="0.818704" stroke-miterlimit="10"/>
<path d="M52.5563 36.4521L53.9209 42.9102" stroke="#FFD67E" stroke-width="0.818704" stroke-miterlimit="10"/>
<path d="M58.1152 20.6148L54.4951 26.1426" stroke="#FFD67E" stroke-width="0.818704" stroke-miterlimit="10"/>
<path d="M56.1483 33.996L61.6982 37.6016" stroke="#FFD67E" stroke-width="0.818704" stroke-miterlimit="10"/>
<path d="M61.624 24.0644L56.118 27.7363" stroke="#FFD67E" stroke-width="0.818704" stroke-miterlimit="10"/>
<path d="M54.5573 35.6158L58.2441 41.0996" stroke="#FFD67E" stroke-width="0.818704" stroke-miterlimit="10"/>
<path d="M53.7656 18.8559L52.4793 25.3301" stroke="#FFD67E" stroke-width="0.818704" stroke-miterlimit="10"/>
<path d="M56.9742 31.9999L63.4746 33.2812" stroke="#FFD67E" stroke-width="0.818704" stroke-miterlimit="10"/>
<path d="M51.3818 18.526L51.3818 25.2207" stroke="#FFD67E" stroke-width="0.818704" stroke-miterlimit="10"/>
<mask id="path-35-outside-1_595_5150" maskUnits="userSpaceOnUse" x="41.0635" y="20.3594" width="21" height="21" fill="black">
<rect fill="white" x="41.0635" y="20.3594" width="21" height="21"/>
<path d="M60.9569 30.8065C60.9569 36.024 56.7275 40.2536 51.5102 40.2536C46.2929 40.2536 42.0635 36.024 42.0635 30.8065C42.0635 25.589 46.2929 21.3594 51.5102 21.3594C56.7275 21.3594 60.9569 25.589 60.9569 30.8065Z"/>
</mask>
<path d="M60.9569 30.8065C60.9569 36.024 56.7275 40.2536 51.5102 40.2536C46.2929 40.2536 42.0635 36.024 42.0635 30.8065C42.0635 25.589 46.2929 21.3594 51.5102 21.3594C56.7275 21.3594 60.9569 25.589 60.9569 30.8065Z" fill="#090A0C"/>
<path d="M60.1382 30.8065C60.1382 35.5719 56.2753 39.4349 51.5102 39.4349V41.0723C57.1797 41.0723 61.7756 36.4761 61.7756 30.8065H60.1382ZM51.5102 39.4349C46.7451 39.4349 42.8822 35.5719 42.8822 30.8065H41.2448C41.2448 36.4761 45.8407 41.0723 51.5102 41.0723V39.4349ZM42.8822 30.8065C42.8822 26.0411 46.7451 22.1781 51.5102 22.1781V20.5407C45.8407 20.5407 41.2448 25.1369 41.2448 30.8065H42.8822ZM51.5102 22.1781C56.2753 22.1781 60.1382 26.0411 60.1382 30.8065H61.7756C61.7756 25.1369 57.1797 20.5407 51.5102 20.5407V22.1781Z" fill="#FFD67E" mask="url(#path-35-outside-1_595_5150)"/>
<path d="M51.3505 22.6914C50.7673 27.7623 48.1023 32.3652 43.9902 35.4047C48.6855 33.3728 54.0155 33.3728 58.7108 35.4047C54.5987 32.3656 51.934 27.7623 51.3505 22.6914Z" fill="#FED680"/>
<path d="M7.76705 85.9419L1.44534 83.9641L2.99002 82.4952L3.2776 82.2217L3.01316 81.9258L1.06758 79.7486L1.06784 78.1801C1.06808 76.7587 2.22039 75.6066 3.64177 75.6066H51.3744H64.0533H70.3064L72.7808 76.6991L72.8851 76.7451L72.9982 76.7306L75.9297 76.3547L81.2748 78.118L82.4072 78.4915L81.743 77.5012L80.8629 76.189L83.1235 75.6066H89.411H98.6538C100.219 75.6066 101.422 76.9921 101.202 78.5419L101.019 79.8306L101.011 79.8909L101.02 79.9512L101.668 84.0962L99.8861 88.3723L96.4809 91.2238L95.8931 91.716L96.6291 91.9306L101.641 93.3924L101.363 95.6544L99.8858 97.8523L99.7779 98.0129L99.8335 98.1982L100.578 100.681L100.244 102.369L98.568 102.195L98.4747 102.185L98.3865 102.217L96.179 103.015L94.9525 103.458L96.2123 103.796L98.0084 104.276L99.6655 105.729L99.7038 105.763L99.7492 105.786L101.592 106.727L101.036 108.433L101.425 108.56L101.03 108.668C101.294 109.634 100.566 110.587 99.5643 110.587H76.7321H51.3744H38.6956H32.4908L30.3162 108.982L30.1488 108.859L29.9503 108.921L27.7741 109.605L27.7379 109.616L27.7044 109.634L25.9145 110.587H19.7362L16.3846 109.603L16.2599 109.566L16.137 109.608L13.2699 110.587H3.81305C2.33525 110.587 1.16092 109.345 1.24311 107.87L1.3725 105.547L1.88731 104.122L1.94268 103.969L1.87763 103.82L1.09009 102.011L1.59948 99.9933L1.62385 99.8967L1.60114 99.7998L1.12359 97.7604L4.08762 95.8635L4.58307 95.5465L4.11361 95.192L1.18945 92.9844L2.27635 91.0248L2.38813 90.8232L2.27381 90.6232L1.21848 88.776L3.99817 87.2058L7.69613 86.7387L7.76705 85.9419Z" fill="url(#paint0_radial_595_5150)" stroke="#69FF93" stroke-width="0.818704"/>
<path d="M3.36414 79.6953L5.72754 82.0587L8.09093 79.6953L5.72754 77.3319L3.36414 79.6953ZM43.8888 79.6953L41.5254 77.3319L39.162 79.6953L41.5254 82.0587L43.8888 79.6953ZM5.72754 80.1047H41.5254V79.286H5.72754V80.1047Z" fill="#69FF93"/>
<path d="M57.579 79.6953L59.9424 82.0587L62.3058 79.6953L59.9424 77.3319L57.579 79.6953ZM98.1037 79.6953L95.7403 77.3319L93.3769 79.6953L95.7403 82.0587L98.1037 79.6953ZM59.9424 80.1047H95.7403V79.286H59.9424V80.1047Z" fill="#69FF93"/>
<path d="M51.2129 75.7831L56.3542 75.7831L51.2129 80.9244L46.0716 75.7831L51.2129 75.7831Z" stroke="#69FF93" stroke-width="0.818704"/>
<rect x="42.1641" y="78.8133" width="1.24523" height="1.24523" transform="rotate(45 42.1641 78.8133)" stroke="#69FF93" stroke-width="0.818704"/>
<rect x="60.6943" y="78.8133" width="1.24523" height="1.24523" transform="rotate(45 60.6943 78.8133)" stroke="#69FF93" stroke-width="0.818704"/>
<rect x="45.0859" y="77.3543" width="3.30917" height="3.30917" transform="rotate(45 45.0859 77.3543)" stroke="#69FF93" stroke-width="0.818704"/>
<rect x="57.6797" y="77.3543" width="3.30917" height="3.30917" transform="rotate(45 57.6797 77.3543)" stroke="#69FF93" stroke-width="0.818704"/>
<rect x="56.2207" y="78.8133" width="1.24523" height="1.24523" transform="rotate(45 56.2207 78.8133)" stroke="#69FF93" stroke-width="0.818704"/>
<rect x="46.54" y="78.8133" width="1.24523" height="1.24523" transform="rotate(45 46.54 78.8133)" stroke="#69FF93" stroke-width="0.818704"/>
<path d="M3.36414 106.648L5.72754 104.285L8.09093 106.648L5.72754 109.012L3.36414 106.648ZM43.8888 106.648L41.5254 109.012L39.162 106.648L41.5254 104.285L43.8888 106.648ZM5.72754 106.239H41.5254V107.058H5.72754V106.239Z" fill="#69FF93"/>
<path d="M57.579 106.648L59.9424 104.285L62.3058 106.648L59.9424 109.012L57.579 106.648ZM98.1037 106.648L95.7403 109.012L93.3769 106.648L95.7403 104.285L98.1037 106.648ZM59.9424 106.239H95.7403V107.058H59.9424V106.239Z" fill="#69FF93"/>
<path d="M51.2129 110.561L56.3542 110.561L51.2129 105.419L46.0716 110.561L51.2129 110.561Z" stroke="#69FF93" stroke-width="0.818704"/>
<rect y="-0.578911" width="1.24523" height="1.24523" transform="matrix(0.707107 -0.707107 -0.707107 -0.707107 41.7547 107.121)" stroke="#69FF93" stroke-width="0.818704"/>
<rect y="-0.578911" width="1.24523" height="1.24523" transform="matrix(0.707107 -0.707107 -0.707107 -0.707107 60.285 107.121)" stroke="#69FF93" stroke-width="0.818704"/>
<rect y="-0.578911" width="3.30917" height="3.30917" transform="matrix(0.707107 -0.707107 -0.707107 -0.707107 44.6766 108.58)" stroke="#69FF93" stroke-width="0.818704"/>
<rect y="-0.578911" width="3.30917" height="3.30917" transform="matrix(0.707107 -0.707107 -0.707107 -0.707107 57.2703 108.58)" stroke="#69FF93" stroke-width="0.818704"/>
<rect y="-0.578911" width="1.24523" height="1.24523" transform="matrix(0.707107 -0.707107 -0.707107 -0.707107 55.8114 107.121)" stroke="#69FF93" stroke-width="0.818704"/>
<rect y="-0.578911" width="1.24523" height="1.24523" transform="matrix(0.707107 -0.707107 -0.707107 -0.707107 46.1307 107.121)" stroke="#69FF93" stroke-width="0.818704"/>
<path d="M22.0699 100.504V100.044H22.7045C23.4096 100.044 23.9156 99.8154 24.2226 99.3592C24.405 99.0937 24.4963 98.4799 24.4963 97.5176V86.6176C24.4963 85.5558 24.3802 84.8964 24.1479 84.6392C23.8244 84.2742 23.3433 84.0917 22.7045 84.0917H22.0699V83.6313H28.9384C31.4602 83.6313 33.3764 83.9175 34.687 84.4899C36.006 85.0623 37.0636 86.0162 37.86 87.3518C38.6646 88.679 39.0669 90.2219 39.0669 91.9805C39.0669 93.2248 38.8637 94.3696 38.4572 95.4148C38.059 96.46 37.4618 97.36 36.6654 98.1149C35.8774 98.8614 34.8903 99.4463 33.704 99.8693C32.5261 100.292 31.1615 100.504 29.6103 100.504H22.0699ZM26.8853 99.2845C27.9222 99.5168 28.8057 99.6329 29.5357 99.6329C30.4896 99.6329 31.3731 99.4587 32.186 99.1103C33.0072 98.7536 33.7165 98.2517 34.3137 97.6047C34.911 96.9494 35.3797 96.1572 35.7198 95.2281C36.0599 94.2991 36.2299 93.258 36.2299 92.105C36.2299 90.9436 36.0599 89.8984 35.7198 88.9693C35.388 88.0403 34.9193 87.2522 34.3137 86.6052C33.7165 85.9499 32.9989 85.448 32.1611 85.0996C31.3316 84.7512 30.4233 84.577 29.4361 84.577C29.0628 84.577 28.6647 84.6102 28.2416 84.6765C27.8185 84.7346 27.3665 84.8217 26.8853 84.9378V99.2845ZM46.4207 88.7703C47.2253 88.7703 47.9636 88.9279 48.6355 89.2431C49.3074 89.5583 49.8839 89.9814 50.3651 90.5123C50.8545 91.0432 51.2319 91.6612 51.4974 92.3663C51.7711 93.0714 51.908 93.8138 51.908 94.5935C51.908 95.4148 51.767 96.2028 51.4849 96.9577C51.2112 97.7043 50.8255 98.3679 50.3277 98.9485C49.83 99.5292 49.2369 99.9937 48.5484 100.342C47.8599 100.682 47.105 100.852 46.2838 100.852C45.4792 100.852 44.745 100.686 44.0814 100.355C43.4261 100.023 42.862 99.5831 42.3892 99.0356C41.9163 98.4799 41.5514 97.8453 41.2942 97.1319C41.037 96.4185 40.9085 95.6802 40.9085 94.917C40.9085 94.1456 41.0412 93.3907 41.3066 92.6524C41.5721 91.9142 41.9454 91.2588 42.4265 90.6865C42.9159 90.1058 43.4966 89.6413 44.1685 89.2929C44.8487 88.9445 45.5994 88.7703 46.4207 88.7703ZM46.0349 89.579C45.67 89.579 45.3174 89.6579 44.9773 89.8155C44.6455 89.9648 44.3469 90.2136 44.0814 90.562C43.8243 90.9021 43.6169 91.3459 43.4593 91.8934C43.3017 92.4326 43.2228 93.0921 43.2228 93.8718C43.2228 94.6765 43.3058 95.4479 43.4717 96.1862C43.6459 96.9245 43.8865 97.5757 44.1934 98.1398C44.5086 98.6955 44.886 99.1393 45.3257 99.4711C45.7736 99.803 46.2714 99.9689 46.8188 99.9689C47.217 99.9689 47.582 99.8942 47.9138 99.7449C48.2539 99.5873 48.5484 99.3384 48.7973 98.9983C49.0461 98.6499 49.2411 98.1937 49.3821 97.6296C49.5231 97.0655 49.5936 96.3729 49.5936 95.5516C49.5936 94.7304 49.5148 93.9589 49.3572 93.2373C49.1996 92.5156 48.9673 91.8851 48.6604 91.3459C48.3618 90.7985 47.9885 90.3671 47.5405 90.0519C47.1009 89.7367 46.599 89.579 46.0349 89.579ZM56.91 91.1842C58.2456 89.5749 59.5189 88.7703 60.73 88.7703C61.1531 88.7703 61.5429 88.8408 61.8996 88.9818C62.2563 89.1228 62.5674 89.3592 62.8328 89.691C63.0983 90.0228 63.3057 90.4625 63.455 91.01C63.6043 91.5575 63.679 92.2418 63.679 93.0631V97.9282C63.679 98.4176 63.7039 98.8034 63.7536 99.0854C63.8117 99.3675 63.9071 99.5831 64.0398 99.7324C64.1725 99.8735 64.3509 99.9647 64.5749 100.006C64.7988 100.039 65.0809 100.056 65.421 100.056V100.504H59.7843V100.056H60.0208C60.394 100.056 60.6844 100.023 60.8918 99.9564C61.1074 99.8901 61.2692 99.7781 61.377 99.6205C61.4849 99.4546 61.5512 99.2347 61.5761 98.961C61.6093 98.6872 61.6259 98.343 61.6259 97.9282V93.2621C61.6259 92.2252 61.489 91.4745 61.2153 91.01C60.9498 90.5371 60.4977 90.3007 59.859 90.3007C58.8719 90.3007 57.8889 90.8399 56.91 91.9183V97.9282C56.91 98.6831 56.9557 99.1601 57.0469 99.3592C57.105 99.4836 57.1672 99.5914 57.2335 99.6827C57.3082 99.7739 57.4036 99.8486 57.5197 99.9066C57.6442 99.9564 57.8018 99.9937 57.9926 100.019C58.1917 100.044 58.4488 100.056 58.764 100.056V100.504H53.1274V100.056H53.3763C53.6749 100.056 53.9196 100.023 54.1104 99.9564C54.3012 99.8901 54.4505 99.7739 54.5583 99.608C54.6745 99.4421 54.7533 99.2264 54.7947 98.961C54.8362 98.6872 54.857 98.343 54.857 97.9282V93.6976C54.857 92.3455 54.8238 91.5118 54.7574 91.1966C54.6993 90.898 54.6039 90.6948 54.4712 90.5869C54.3468 90.4791 54.1767 90.4252 53.9611 90.4252C53.7288 90.4252 53.4509 90.4874 53.1274 90.6118L52.9407 90.1639L56.375 88.7703H56.91V91.1842ZM70.8585 84.5521V91.2215H74.5665C75.1057 91.2215 75.5412 91.1759 75.873 91.0846C76.2131 90.9851 76.4786 90.8358 76.6693 90.6367C76.8601 90.4293 76.9929 90.1722 77.0675 89.8652C77.1422 89.5583 77.1919 89.1933 77.2168 88.7703H77.6772V94.6433H77.2168C77.1588 94.2285 77.1007 93.8926 77.0426 93.6354C76.9846 93.37 76.9265 93.1792 76.8684 93.0631C76.7938 92.9137 76.6984 92.7852 76.5822 92.6773C76.4661 92.5612 76.3168 92.4617 76.1343 92.3787C75.9518 92.2957 75.732 92.2335 75.4748 92.1921C75.2177 92.1506 74.9149 92.1298 74.5665 92.1298H70.8585V97.6918C70.8585 98.4301 70.8917 98.8863 70.9581 99.0605C70.9912 99.1352 71.0327 99.2057 71.0825 99.2721C71.1323 99.3384 71.2028 99.3965 71.294 99.4463C71.3936 99.4877 71.518 99.5209 71.6673 99.5458C71.8249 99.5707 72.0198 99.5831 72.2521 99.5831H75.114C75.6034 99.5831 76.0099 99.5707 76.3334 99.5458C76.6652 99.5126 76.9514 99.4629 77.1919 99.3965C77.4408 99.3218 77.6565 99.2223 77.839 99.0979C78.0298 98.9651 78.2289 98.7992 78.4362 98.6001C78.6934 98.3513 78.9547 98.0319 79.2201 97.642C79.4856 97.2522 79.751 96.7959 80.0165 96.2733H80.5142L79.0584 100.504H66.0556V100.044H66.6528C66.8104 100.044 66.9763 100.027 67.1505 99.9937C67.3247 99.9606 67.4865 99.9066 67.6358 99.832C67.7934 99.7573 67.9344 99.6661 68.0589 99.5582C68.1833 99.4421 68.2704 99.3094 68.3202 99.1601C68.4197 98.9029 68.4695 98.3596 68.4695 97.5301V86.5679C68.4695 85.5061 68.3616 84.8466 68.146 84.5894C67.8473 84.2576 67.3496 84.0917 66.6528 84.0917H66.0556V83.6313H79.0584V87.3269H78.7597C78.6685 86.8789 78.5773 86.5098 78.486 86.2195C78.3948 85.9291 78.2911 85.6886 78.1749 85.4978C78.0588 85.307 77.9261 85.1577 77.7768 85.0498C77.6274 84.9337 77.4491 84.83 77.2417 84.7388C76.9016 84.6143 76.3168 84.5521 75.4873 84.5521H70.8585Z" fill="#69FF93"/>
<path d="M7.79412 139.855L1.61947 137.924L3.05249 136.561L3.40375 136.227L3.08076 135.865L1.15823 133.714L1.15849 132.18C1.15872 130.809 2.27045 129.697 3.64177 129.697H51.3744H64.0533H70.2873L72.7442 130.782L72.8716 130.838L73.0097 130.821L75.9209 130.447L81.2464 132.204L82.6296 132.66L81.8183 131.451L81.0095 130.245L83.1349 129.697H89.411H98.6538C100.164 129.697 101.324 131.034 101.112 132.529L100.93 133.818L100.919 133.892L100.931 133.965L101.574 138.085L99.811 142.317L96.4227 145.154L95.7047 145.756L96.6037 146.018L101.542 147.458L101.276 149.622L99.8106 151.802L99.6787 151.998L99.7466 152.224L100.485 154.685L100.172 156.27L98.5774 156.105L98.4634 156.093L98.3557 156.132L96.1481 156.93L94.6501 157.471L96.1889 157.883L97.9646 158.358L99.6057 159.797L99.6525 159.838L99.708 159.867L101.482 160.773L100.949 162.405L101.425 162.56L100.942 162.692C101.191 163.6 100.506 164.496 99.5643 164.496H76.7321H51.3744H38.6956H32.5207L30.37 162.909L30.1656 162.758L29.9232 162.835L27.7469 163.519L27.7027 163.532L27.6618 163.554L25.8919 164.496H19.7492L16.4101 163.516L16.2579 163.471L16.1077 163.522L13.2548 164.496H3.81305C2.3873 164.496 1.25433 163.299 1.33361 161.875L1.46227 159.565L1.97257 158.153L2.04019 157.966L1.96074 157.783L1.18556 156.003L1.68737 154.015L1.71714 153.898L1.6894 153.779L1.22647 151.802L4.13648 149.94L4.74164 149.553L4.16823 149.12L1.30691 146.96L2.35563 145.069L2.49216 144.823L2.35252 144.578L1.34237 142.81L4.02723 141.293L7.70749 140.829L7.79412 139.855Z" fill="url(#paint1_radial_595_5150)" stroke="#69FF93"/>
<path d="M2.84079 133.693L5.72754 136.58L8.61429 133.693L5.72754 130.807L2.84079 133.693ZM44.4122 133.693L41.5254 130.807L38.6387 133.693L41.5254 136.58L44.4122 133.693ZM5.72754 134.193H41.5254V133.193H5.72754V134.193Z" fill="#69FF93"/>
<path d="M57.0556 133.693L59.9424 136.58L62.8291 133.693L59.9424 130.807L57.0556 133.693ZM98.627 133.693L95.7403 130.807L92.8535 133.693L95.7403 136.58L98.627 133.693ZM59.9424 134.193H95.7403V133.193H59.9424V134.193Z" fill="#69FF93"/>
<path d="M51.2129 129.872L56.1354 129.872L51.2129 134.794L46.2904 129.872L51.2129 129.872Z" stroke="#69FF93"/>
<rect x="42.1641" y="132.94" width="1.06394" height="1.06394" transform="rotate(45 42.1641 132.94)" stroke="#69FF93"/>
<rect x="60.6943" y="132.94" width="1.06394" height="1.06394" transform="rotate(45 60.6943 132.94)" stroke="#69FF93"/>
<rect x="45.0859" y="131.481" width="3.12788" height="3.12788" transform="rotate(45 45.0859 131.481)" stroke="#69FF93"/>
<rect x="57.6797" y="131.481" width="3.12788" height="3.12788" transform="rotate(45 57.6797 131.481)" stroke="#69FF93"/>
<rect x="56.2207" y="132.94" width="1.06394" height="1.06394" transform="rotate(45 56.2207 132.94)" stroke="#69FF93"/>
<rect x="46.54" y="132.94" width="1.06394" height="1.06394" transform="rotate(45 46.54 132.94)" stroke="#69FF93"/>
<path d="M2.84079 160.646L5.72754 157.76L8.61429 160.646L5.72754 163.533L2.84079 160.646ZM44.4122 160.646L41.5254 163.533L38.6387 160.646L41.5254 157.76L44.4122 160.646ZM5.72754 160.146H41.5254V161.146H5.72754V160.146Z" fill="#69FF93"/>
<path d="M57.0556 160.646L59.9424 157.76L62.8291 160.646L59.9424 163.533L57.0556 160.646ZM98.627 160.646L95.7403 163.533L92.8535 160.646L95.7403 157.76L98.627 160.646ZM59.9424 160.146H95.7403V161.146H59.9424V160.146Z" fill="#69FF93"/>
<path d="M51.2129 164.468L56.1354 164.468L51.2129 159.546L46.2904 164.468L51.2129 164.468Z" stroke="#69FF93"/>
<rect y="-0.707107" width="1.06394" height="1.06394" transform="matrix(0.707107 -0.707107 -0.707107 -0.707107 41.6641 160.9)" stroke="#69FF93"/>
<rect y="-0.707107" width="1.06394" height="1.06394" transform="matrix(0.707107 -0.707107 -0.707107 -0.707107 60.1943 160.9)" stroke="#69FF93"/>
<rect y="-0.707107" width="3.12788" height="3.12788" transform="matrix(0.707107 -0.707107 -0.707107 -0.707107 44.5859 162.359)" stroke="#69FF93"/>
<rect y="-0.707107" width="3.12788" height="3.12788" transform="matrix(0.707107 -0.707107 -0.707107 -0.707107 57.1797 162.359)" stroke="#69FF93"/>
<rect y="-0.707107" width="1.06394" height="1.06394" transform="matrix(0.707107 -0.707107 -0.707107 -0.707107 55.7207 160.9)" stroke="#69FF93"/>
<rect y="-0.707107" width="1.06394" height="1.06394" transform="matrix(0.707107 -0.707107 -0.707107 -0.707107 46.04 160.9)" stroke="#69FF93"/>
<path d="M22.0738 154.504V154.044H22.7084C23.4135 154.044 23.9195 153.815 24.2265 153.359C24.409 153.094 24.5002 152.48 24.5002 151.518V140.618C24.5002 139.556 24.3841 138.896 24.1518 138.639C23.8283 138.274 23.3472 138.092 22.7084 138.092H22.0738V137.631H28.9423C31.4641 137.631 33.3803 137.918 34.6909 138.49C36.0099 139.062 37.0675 140.016 37.8639 141.352C38.6685 142.679 39.0708 144.222 39.0708 145.981C39.0708 147.225 38.8676 148.37 38.4611 149.415C38.063 150.46 37.4657 151.36 36.6694 152.115C35.8813 152.861 34.8942 153.446 33.7079 153.869C32.53 154.292 31.1654 154.504 29.6142 154.504H22.0738ZM26.8892 153.285C27.9261 153.517 28.8096 153.633 29.5396 153.633C30.4935 153.633 31.377 153.459 32.1899 153.11C33.0111 152.754 33.7204 152.252 34.3176 151.605C34.9149 150.949 35.3836 150.157 35.7237 149.228C36.0638 148.299 36.2338 147.258 36.2338 146.105C36.2338 144.944 36.0638 143.898 35.7237 142.969C35.3919 142.04 34.9232 141.252 34.3176 140.605C33.7204 139.95 33.0028 139.448 32.165 139.1C31.3355 138.751 30.4272 138.577 29.44 138.577C29.0667 138.577 28.6686 138.61 28.2455 138.677C27.8225 138.735 27.3704 138.822 26.8892 138.938V153.285ZM46.4246 142.77C47.2292 142.77 47.9675 142.928 48.6394 143.243C49.3113 143.558 49.8879 143.981 50.369 144.512C50.8584 145.043 51.2358 145.661 51.5013 146.366C51.775 147.071 51.9119 147.814 51.9119 148.594C51.9119 149.415 51.7709 150.203 51.4888 150.958C51.2151 151.704 50.8294 152.368 50.3316 152.949C49.8339 153.529 49.2408 153.994 48.5523 154.342C47.8638 154.682 47.1089 154.852 46.2877 154.852C45.4831 154.852 44.7489 154.686 44.0853 154.355C43.43 154.023 42.8659 153.583 42.3931 153.036C41.9203 152.48 41.5553 151.845 41.2981 151.132C41.041 150.418 40.9124 149.68 40.9124 148.917C40.9124 148.146 41.0451 147.391 41.3105 146.652C41.576 145.914 41.9493 145.259 42.4304 144.686C42.9198 144.106 43.5005 143.641 44.1724 143.293C44.8526 142.944 45.6033 142.77 46.4246 142.77ZM46.0388 143.579C45.6739 143.579 45.3213 143.658 44.9812 143.815C44.6494 143.965 44.3508 144.214 44.0853 144.562C43.8282 144.902 43.6208 145.346 43.4632 145.893C43.3056 146.433 43.2268 147.092 43.2268 147.872C43.2268 148.676 43.3097 149.448 43.4756 150.186C43.6498 150.925 43.8904 151.576 44.1973 152.14C44.5125 152.696 44.89 153.139 45.3296 153.471C45.7775 153.803 46.2753 153.969 46.8228 153.969C47.2209 153.969 47.5859 153.894 47.9177 153.745C48.2578 153.587 48.5523 153.338 48.8012 152.998C49.05 152.65 49.245 152.194 49.386 151.63C49.527 151.066 49.5975 150.373 49.5975 149.552C49.5975 148.73 49.5187 147.959 49.3611 147.237C49.2035 146.516 48.9712 145.885 48.6643 145.346C48.3657 144.798 47.9924 144.367 47.5444 144.052C47.1048 143.737 46.6029 143.579 46.0388 143.579ZM56.9139 145.184C58.2495 143.575 59.5228 142.77 60.7339 142.77C61.157 142.77 61.5468 142.841 61.9035 142.982C62.2602 143.123 62.5713 143.359 62.8368 143.691C63.1022 144.023 63.3096 144.462 63.4589 145.01C63.6082 145.557 63.6829 146.242 63.6829 147.063V151.928C63.6829 152.418 63.7078 152.803 63.7575 153.085C63.8156 153.367 63.911 153.583 64.0437 153.732C64.1764 153.873 64.3548 153.965 64.5788 154.006C64.8027 154.039 65.0848 154.056 65.4249 154.056V154.504H59.7882V154.056H60.0247C60.3979 154.056 60.6883 154.023 60.8957 153.956C61.1113 153.89 61.2731 153.778 61.3809 153.62C61.4888 153.455 61.5551 153.235 61.58 152.961C61.6132 152.687 61.6298 152.343 61.6298 151.928V147.262C61.6298 146.225 61.4929 145.475 61.2192 145.01C60.9537 144.537 60.5016 144.301 59.8629 144.301C58.8758 144.301 57.8928 144.84 56.9139 145.918V151.928C56.9139 152.683 56.9596 153.16 57.0508 153.359C57.1089 153.484 57.1711 153.591 57.2375 153.683C57.3121 153.774 57.4075 153.849 57.5236 153.907C57.6481 153.956 57.8057 153.994 57.9965 154.019C58.1956 154.044 58.4527 154.056 58.7679 154.056V154.504H53.1313V154.056H53.3802C53.6788 154.056 53.9235 154.023 54.1143 153.956C54.3051 153.89 54.4544 153.774 54.5622 153.608C54.6784 153.442 54.7572 153.226 54.7986 152.961C54.8401 152.687 54.8609 152.343 54.8609 151.928V147.698C54.8609 146.346 54.8277 145.512 54.7613 145.197C54.7033 144.898 54.6079 144.695 54.4751 144.587C54.3507 144.479 54.1807 144.425 53.965 144.425C53.7327 144.425 53.4548 144.487 53.1313 144.612L52.9447 144.164L56.3789 142.77H56.9139V145.184ZM70.8624 138.552V145.222H74.5704C75.1096 145.222 75.5451 145.176 75.8769 145.085C76.217 144.985 76.4825 144.836 76.6733 144.637C76.864 144.429 76.9968 144.172 77.0714 143.865C77.1461 143.558 77.1959 143.193 77.2207 142.77H77.6811V148.643H77.2207C77.1627 148.229 77.1046 147.893 77.0465 147.635C76.9885 147.37 76.9304 147.179 76.8723 147.063C76.7977 146.914 76.7023 146.785 76.5861 146.677C76.47 146.561 76.3207 146.462 76.1382 146.379C75.9557 146.296 75.7359 146.234 75.4787 146.192C75.2216 146.151 74.9188 146.13 74.5704 146.13H70.8624V151.692C70.8624 152.43 70.8956 152.886 70.962 153.061C70.9951 153.135 71.0366 153.206 71.0864 153.272C71.1362 153.338 71.2067 153.396 71.2979 153.446C71.3975 153.488 71.5219 153.521 71.6712 153.546C71.8288 153.571 72.0238 153.583 72.256 153.583H75.1179C75.6073 153.583 76.0138 153.571 76.3373 153.546C76.6691 153.513 76.9553 153.463 77.1959 153.396C77.4447 153.322 77.6604 153.222 77.8429 153.098C78.0337 152.965 78.2328 152.799 78.4401 152.6C78.6973 152.351 78.9586 152.032 79.224 151.642C79.4895 151.252 79.7549 150.796 80.0204 150.273H80.5181L79.0623 154.504H66.0595V154.044H66.6567C66.8143 154.044 66.9802 154.027 67.1544 153.994C67.3286 153.961 67.4904 153.907 67.6397 153.832C67.7973 153.757 67.9383 153.666 68.0628 153.558C68.1872 153.442 68.2743 153.309 68.3241 153.16C68.4236 152.903 68.4734 152.36 68.4734 151.53V140.568C68.4734 139.506 68.3655 138.847 68.1499 138.589C67.8512 138.258 67.3535 138.092 66.6567 138.092H66.0595V137.631H79.0623V141.327H78.7637C78.6724 140.879 78.5812 140.51 78.4899 140.219C78.3987 139.929 78.295 139.689 78.1788 139.498C78.0627 139.307 77.93 139.158 77.7807 139.05C77.6314 138.934 77.453 138.83 77.2456 138.739C76.9055 138.614 76.3207 138.552 75.4912 138.552H70.8624Z" fill="#69FF93"/>
<path d="M7.76705 193.938L1.44534 191.96L2.99002 190.491L3.2776 190.218L3.01316 189.922L1.06758 187.745L1.06784 186.176C1.06808 184.755 2.22039 183.603 3.64177 183.603H51.3744H64.0533H70.3064L72.7808 184.695L72.8851 184.741L72.9982 184.727L75.9297 184.351L81.2748 186.114L82.4072 186.488L81.743 185.497L80.8629 184.185L83.1235 183.603H89.411H98.6538C100.219 183.603 101.422 184.988 101.202 186.538L101.019 187.827L101.011 187.887L101.02 187.947L101.668 192.092L99.8861 196.368L96.4809 199.22L95.8931 199.712L96.6291 199.927L101.641 201.388L101.363 203.65L99.8858 205.848L99.7779 206.009L99.8335 206.194L100.578 208.677L100.244 210.365L98.568 210.191L98.4747 210.181L98.3865 210.213L96.179 211.011L94.9525 211.454L96.2123 211.792L98.0084 212.272L99.6655 213.725L99.7038 213.759L99.7492 213.782L101.592 214.723L101.036 216.429L101.425 216.556L101.03 216.664C101.294 217.63 100.566 218.583 99.5643 218.583H76.7321H51.3744H38.6956H32.4908L30.3162 216.978L30.1488 216.855L29.9503 216.917L27.7741 217.601L27.7379 217.612L27.7044 217.63L25.9145 218.583H19.7362L16.3846 217.599L16.2599 217.562L16.137 217.604L13.2699 218.583H3.81305C2.33525 218.583 1.16092 217.342 1.24311 215.866L1.3725 213.543L1.88731 212.118L1.94268 211.965L1.87763 211.816L1.09009 210.007L1.59948 207.989L1.62385 207.893L1.60114 207.796L1.12359 205.756L4.08762 203.86L4.58307 203.543L4.11361 203.188L1.18945 200.98L2.27635 199.021L2.38813 198.819L2.27381 198.619L1.21848 196.772L3.99817 195.202L7.69613 194.735L7.76705 193.938Z" fill="url(#paint2_radial_595_5150)" stroke="#69FF93" stroke-width="0.818704"/>
<path d="M3.36414 187.689L5.72754 190.053L8.09093 187.689L5.72754 185.326L3.36414 187.689ZM43.8888 187.689L41.5254 185.326L39.162 187.689L41.5254 190.053L43.8888 187.689ZM5.72754 188.099H41.5254V187.28H5.72754V188.099Z" fill="#69FF93"/>
<path d="M57.579 187.689L59.9424 190.053L62.3058 187.689L59.9424 185.326L57.579 187.689ZM98.1037 187.689L95.7403 185.326L93.3769 187.689L95.7403 190.053L98.1037 187.689ZM59.9424 188.099H95.7403V187.28H59.9424V188.099Z" fill="#69FF93"/>
<path d="M51.2129 183.777L56.3542 183.777L51.2129 188.919L46.0716 183.777L51.2129 183.777Z" stroke="#69FF93" stroke-width="0.818704"/>
<rect x="42.1641" y="186.807" width="1.24523" height="1.24523" transform="rotate(45 42.1641 186.807)" stroke="#69FF93" stroke-width="0.818704"/>
<rect x="60.6943" y="186.807" width="1.24523" height="1.24523" transform="rotate(45 60.6943 186.807)" stroke="#69FF93" stroke-width="0.818704"/>
<rect x="45.0859" y="185.348" width="3.30917" height="3.30917" transform="rotate(45 45.0859 185.348)" stroke="#69FF93" stroke-width="0.818704"/>
<rect x="57.6797" y="185.348" width="3.30917" height="3.30917" transform="rotate(45 57.6797 185.348)" stroke="#69FF93" stroke-width="0.818704"/>
<rect x="56.2207" y="186.807" width="1.24523" height="1.24523" transform="rotate(45 56.2207 186.807)" stroke="#69FF93" stroke-width="0.818704"/>
<rect x="46.54" y="186.807" width="1.24523" height="1.24523" transform="rotate(45 46.54 186.807)" stroke="#69FF93" stroke-width="0.818704"/>
<path d="M3.36414 214.643L5.72754 212.279L8.09093 214.643L5.72754 217.006L3.36414 214.643ZM43.8888 214.643L41.5254 217.006L39.162 214.643L41.5254 212.279L43.8888 214.643ZM5.72754 214.233H41.5254V215.052H5.72754V214.233Z" fill="#69FF93"/>
<path d="M57.579 214.643L59.9424 212.279L62.3058 214.643L59.9424 217.006L57.579 214.643ZM98.1037 214.643L95.7403 217.006L93.3769 214.643L95.7403 212.279L98.1037 214.643ZM59.9424 214.233H95.7403V215.052H59.9424V214.233Z" fill="#69FF93"/>
<path d="M51.2129 218.555L56.3542 218.555L51.2129 213.413L46.0716 218.555L51.2129 218.555Z" stroke="#69FF93" stroke-width="0.818704"/>
<rect y="-0.578911" width="1.24523" height="1.24523" transform="matrix(0.707107 -0.707107 -0.707107 -0.707107 41.7547 215.115)" stroke="#69FF93" stroke-width="0.818704"/>
<rect y="-0.578911" width="1.24523" height="1.24523" transform="matrix(0.707107 -0.707107 -0.707107 -0.707107 60.285 215.115)" stroke="#69FF93" stroke-width="0.818704"/>
<rect y="-0.578911" width="3.30917" height="3.30917" transform="matrix(0.707107 -0.707107 -0.707107 -0.707107 44.6766 216.574)" stroke="#69FF93" stroke-width="0.818704"/>
<rect y="-0.578911" width="3.30917" height="3.30917" transform="matrix(0.707107 -0.707107 -0.707107 -0.707107 57.2703 216.574)" stroke="#69FF93" stroke-width="0.818704"/>
<rect y="-0.578911" width="1.24523" height="1.24523" transform="matrix(0.707107 -0.707107 -0.707107 -0.707107 55.8114 215.115)" stroke="#69FF93" stroke-width="0.818704"/>
<rect y="-0.578911" width="1.24523" height="1.24523" transform="matrix(0.707107 -0.707107 -0.707107 -0.707107 46.1307 215.115)" stroke="#69FF93" stroke-width="0.818704"/>
<path d="M22.0699 208.5V208.04H22.7045C23.4096 208.04 23.9156 207.811 24.2226 207.355C24.405 207.09 24.4963 206.476 24.4963 205.514V194.614C24.4963 193.552 24.3802 192.892 24.1479 192.635C23.8244 192.27 23.3433 192.088 22.7045 192.088H22.0699V191.627H28.9384C31.4602 191.627 33.3764 191.914 34.687 192.486C36.006 193.058 37.0636 194.012 37.86 195.348C38.6646 196.675 39.0669 198.218 39.0669 199.977C39.0669 201.221 38.8637 202.366 38.4572 203.411C38.059 204.456 37.4618 205.356 36.6654 206.111C35.8774 206.858 34.8903 207.442 33.704 207.865C32.5261 208.288 31.1615 208.5 29.6103 208.5H22.0699ZM26.8853 207.281C27.9222 207.513 28.8057 207.629 29.5357 207.629C30.4896 207.629 31.3731 207.455 32.186 207.106C33.0072 206.75 33.7165 206.248 34.3137 205.601C34.911 204.945 35.3797 204.153 35.7198 203.224C36.0599 202.295 36.2299 201.254 36.2299 200.101C36.2299 198.94 36.0599 197.895 35.7198 196.965C35.388 196.036 34.9193 195.248 34.3137 194.601C33.7165 193.946 32.9989 193.444 32.1611 193.096C31.3316 192.747 30.4233 192.573 29.4361 192.573C29.0628 192.573 28.6647 192.606 28.2416 192.673C27.8185 192.731 27.3665 192.818 26.8853 192.934V207.281ZM46.4207 196.766C47.2253 196.766 47.9636 196.924 48.6355 197.239C49.3074 197.554 49.8839 197.977 50.3651 198.508C50.8545 199.039 51.2319 199.657 51.4974 200.362C51.7711 201.067 51.908 201.81 51.908 202.59C51.908 203.411 51.767 204.199 51.4849 204.954C51.2112 205.7 50.8255 206.364 50.3277 206.945C49.83 207.525 49.2369 207.99 48.5484 208.338C47.8599 208.678 47.105 208.848 46.2838 208.848C45.4792 208.848 44.745 208.682 44.0814 208.351C43.4261 208.019 42.862 207.579 42.3892 207.032C41.9163 206.476 41.5514 205.841 41.2942 205.128C41.037 204.415 40.9085 203.676 40.9085 202.913C40.9085 202.142 41.0412 201.387 41.3066 200.649C41.5721 199.91 41.9454 199.255 42.4265 198.683C42.9159 198.102 43.4966 197.637 44.1685 197.289C44.8487 196.941 45.5994 196.766 46.4207 196.766ZM46.0349 197.575C45.67 197.575 45.3174 197.654 44.9773 197.812C44.6455 197.961 44.3469 198.21 44.0814 198.558C43.8243 198.898 43.6169 199.342 43.4593 199.89C43.3017 200.429 43.2228 201.088 43.2228 201.868C43.2228 202.673 43.3058 203.444 43.4717 204.182C43.6459 204.921 43.8865 205.572 44.1934 206.136C44.5086 206.692 44.886 207.135 45.3257 207.467C45.7736 207.799 46.2714 207.965 46.8188 207.965C47.217 207.965 47.582 207.89 47.9138 207.741C48.2539 207.583 48.5484 207.335 48.7973 206.994C49.0461 206.646 49.2411 206.19 49.3821 205.626C49.5231 205.062 49.5936 204.369 49.5936 203.548C49.5936 202.726 49.5148 201.955 49.3572 201.233C49.1996 200.512 48.9673 199.881 48.6604 199.342C48.3618 198.795 47.9885 198.363 47.5405 198.048C47.1009 197.733 46.599 197.575 46.0349 197.575ZM56.91 199.18C58.2456 197.571 59.5189 196.766 60.73 196.766C61.1531 196.766 61.5429 196.837 61.8996 196.978C62.2563 197.119 62.5674 197.355 62.8328 197.687C63.0983 198.019 63.3057 198.459 63.455 199.006C63.6043 199.554 63.679 200.238 63.679 201.059V205.924C63.679 206.414 63.7039 206.799 63.7536 207.082C63.8117 207.364 63.9071 207.579 64.0398 207.729C64.1725 207.87 64.3509 207.961 64.5749 208.002C64.7988 208.035 65.0809 208.052 65.421 208.052V208.5H59.7843V208.052H60.0208C60.394 208.052 60.6844 208.019 60.8918 207.953C61.1074 207.886 61.2692 207.774 61.377 207.617C61.4849 207.451 61.5512 207.231 61.5761 206.957C61.6093 206.683 61.6259 206.339 61.6259 205.924V201.258C61.6259 200.221 61.489 199.471 61.2153 199.006C60.9498 198.533 60.4977 198.297 59.859 198.297C58.8719 198.297 57.8889 198.836 56.91 199.914V205.924C56.91 206.679 56.9557 207.156 57.0469 207.355C57.105 207.48 57.1672 207.588 57.2335 207.679C57.3082 207.77 57.4036 207.845 57.5197 207.903C57.6442 207.953 57.8018 207.99 57.9926 208.015C58.1917 208.04 58.4488 208.052 58.764 208.052V208.5H53.1274V208.052H53.3763C53.6749 208.052 53.9196 208.019 54.1104 207.953C54.3012 207.886 54.4505 207.77 54.5583 207.604C54.6745 207.438 54.7533 207.223 54.7947 206.957C54.8362 206.683 54.857 206.339 54.857 205.924V201.694C54.857 200.342 54.8238 199.508 54.7574 199.193C54.6993 198.894 54.6039 198.691 54.4712 198.583C54.3468 198.475 54.1767 198.421 53.9611 198.421C53.7288 198.421 53.4509 198.483 53.1274 198.608L52.9407 198.16L56.375 196.766H56.91V199.18ZM70.8585 192.548V199.218H74.5665C75.1057 199.218 75.5412 199.172 75.873 199.081C76.2131 198.981 76.4786 198.832 76.6693 198.633C76.8601 198.425 76.9929 198.168 77.0675 197.861C77.1422 197.554 77.1919 197.189 77.2168 196.766H77.6772V202.639H77.2168C77.1588 202.225 77.1007 201.889 77.0426 201.632C76.9846 201.366 76.9265 201.175 76.8684 201.059C76.7938 200.91 76.6984 200.781 76.5822 200.673C76.4661 200.557 76.3168 200.458 76.1343 200.375C75.9518 200.292 75.732 200.23 75.4748 200.188C75.2177 200.147 74.9149 200.126 74.5665 200.126H70.8585V205.688C70.8585 206.426 70.8917 206.882 70.9581 207.057C70.9912 207.131 71.0327 207.202 71.0825 207.268C71.1323 207.335 71.2028 207.393 71.294 207.442C71.3936 207.484 71.518 207.517 71.6673 207.542C71.8249 207.567 72.0198 207.579 72.2521 207.579H75.114C75.6034 207.579 76.0099 207.567 76.3334 207.542C76.6652 207.509 76.9514 207.459 77.1919 207.393C77.4408 207.318 77.6565 207.218 77.839 207.094C78.0298 206.961 78.2289 206.795 78.4362 206.596C78.6934 206.347 78.9547 206.028 79.2201 205.638C79.4856 205.248 79.751 204.792 80.0165 204.269H80.5142L79.0584 208.5H66.0556V208.04H66.6528C66.8104 208.04 66.9763 208.023 67.1505 207.99C67.3247 207.957 67.4865 207.903 67.6358 207.828C67.7934 207.753 67.9344 207.662 68.0589 207.554C68.1833 207.438 68.2704 207.305 68.3202 207.156C68.4197 206.899 68.4695 206.356 68.4695 205.526V194.564C68.4695 193.502 68.3616 192.843 68.146 192.586C67.8473 192.254 67.3496 192.088 66.6528 192.088H66.0556V191.627H79.0584V195.323H78.7597C78.6685 194.875 78.5773 194.506 78.486 194.216C78.3948 193.925 78.2911 193.685 78.1749 193.494C78.0588 193.303 77.9261 193.154 77.7768 193.046C77.6274 192.93 77.4491 192.826 77.2417 192.735C76.9016 192.61 76.3168 192.548 75.4873 192.548H70.8585Z" fill="#69FF93"/>
<path d="M7.76705 247.936L1.44534 245.958L2.99002 244.489L3.2776 244.216L3.01316 243.92L1.06758 241.743L1.06784 240.174C1.06808 238.753 2.22039 237.601 3.64177 237.601H51.3744H64.0533H70.3064L72.7808 238.693L72.8851 238.739L72.9982 238.725L75.9297 238.349L81.2748 240.112L82.4072 240.486L81.743 239.495L80.8629 238.183L83.1235 237.601H89.411H98.6538C100.219 237.601 101.422 238.986 101.202 240.536L101.019 241.825L101.011 241.885L101.02 241.945L101.668 246.09L99.8861 250.366L96.4809 253.218L95.8931 253.71L96.6291 253.925L101.641 255.386L101.363 257.649L99.8858 259.846L99.7779 260.007L99.8335 260.192L100.578 262.675L100.244 264.363L98.568 264.189L98.4747 264.179L98.3865 264.211L96.179 265.009L94.9525 265.453L96.2123 265.79L98.0084 266.27L99.6655 267.723L99.7038 267.757L99.7492 267.78L101.592 268.721L101.036 270.427L101.425 270.554L101.03 270.662C101.294 271.628 100.566 272.581 99.5643 272.581H76.7321H51.3744H38.6956H32.4908L30.3162 270.976L30.1488 270.853L29.9503 270.915L27.7741 271.599L27.7379 271.61L27.7044 271.628L25.9145 272.581H19.7362L16.3846 271.597L16.2599 271.56L16.137 271.602L13.2699 272.581H3.81305C2.33525 272.581 1.16092 271.34 1.24311 269.864L1.3725 267.541L1.88731 266.116L1.94268 265.963L1.87763 265.814L1.09009 264.005L1.59948 261.987L1.62385 261.891L1.60114 261.794L1.12359 259.755L4.08762 257.858L4.58307 257.541L4.11361 257.186L1.18945 254.979L2.27635 253.019L2.38813 252.817L2.27381 252.617L1.21848 250.77L3.99817 249.2L7.69613 248.733L7.76705 247.936Z" fill="url(#paint3_radial_595_5150)" stroke="#69FF93" stroke-width="0.818704"/>
<path d="M3.36414 241.688L5.72754 244.051L8.09093 241.688L5.72754 239.324L3.36414 241.688ZM43.8888 241.688L41.5254 239.324L39.162 241.688L41.5254 244.051L43.8888 241.688ZM5.72754 242.097H41.5254V241.278H5.72754V242.097Z" fill="#69FF93"/>
<path d="M57.579 241.688L59.9424 244.051L62.3058 241.688L59.9424 239.324L57.579 241.688ZM98.1037 241.688L95.7403 239.324L93.3769 241.688L95.7403 244.051L98.1037 241.688ZM59.9424 242.097H95.7403V241.278H59.9424V242.097Z" fill="#69FF93"/>
<path d="M51.2129 237.775L56.3542 237.775L51.2129 242.917L46.0716 237.775L51.2129 237.775Z" stroke="#69FF93" stroke-width="0.818704"/>
<rect x="42.1641" y="240.805" width="1.24523" height="1.24523" transform="rotate(45 42.1641 240.805)" stroke="#69FF93" stroke-width="0.818704"/>
<rect x="60.6943" y="240.805" width="1.24523" height="1.24523" transform="rotate(45 60.6943 240.805)" stroke="#69FF93" stroke-width="0.818704"/>
<rect x="45.0859" y="239.346" width="3.30917" height="3.30917" transform="rotate(45 45.0859 239.346)" stroke="#69FF93" stroke-width="0.818704"/>
<rect x="57.6797" y="239.346" width="3.30917" height="3.30917" transform="rotate(45 57.6797 239.346)" stroke="#69FF93" stroke-width="0.818704"/>
<rect x="56.2207" y="240.805" width="1.24523" height="1.24523" transform="rotate(45 56.2207 240.805)" stroke="#69FF93" stroke-width="0.818704"/>
<rect x="46.54" y="240.805" width="1.24523" height="1.24523" transform="rotate(45 46.54 240.805)" stroke="#69FF93" stroke-width="0.818704"/>
<path d="M3.36414 268.641L5.72754 266.277L8.09093 268.641L5.72754 271.004L3.36414 268.641ZM43.8888 268.641L41.5254 271.004L39.162 268.641L41.5254 266.277L43.8888 268.641ZM5.72754 268.231H41.5254V269.05H5.72754V268.231Z" fill="#69FF93"/>
<path d="M57.579 268.641L59.9424 266.277L62.3058 268.641L59.9424 271.004L57.579 268.641ZM98.1037 268.641L95.7403 271.004L93.3769 268.641L95.7403 266.277L98.1037 268.641ZM59.9424 268.231H95.7403V269.05H59.9424V268.231Z" fill="#69FF93"/>
<path d="M51.2129 272.553L56.3542 272.553L51.2129 267.412L46.0716 272.553L51.2129 272.553Z" stroke="#69FF93" stroke-width="0.818704"/>
<rect y="-0.578911" width="1.24523" height="1.24523" transform="matrix(0.707107 -0.707107 -0.707107 -0.707107 41.7547 269.113)" stroke="#69FF93" stroke-width="0.818704"/>
<rect y="-0.578911" width="1.24523" height="1.24523" transform="matrix(0.707107 -0.707107 -0.707107 -0.707107 60.285 269.113)" stroke="#69FF93" stroke-width="0.818704"/>
<rect y="-0.578911" width="3.30917" height="3.30917" transform="matrix(0.707107 -0.707107 -0.707107 -0.707107 44.6766 270.572)" stroke="#69FF93" stroke-width="0.818704"/>
<rect y="-0.578911" width="3.30917" height="3.30917" transform="matrix(0.707107 -0.707107 -0.707107 -0.707107 57.2703 270.572)" stroke="#69FF93" stroke-width="0.818704"/>
<rect y="-0.578911" width="1.24523" height="1.24523" transform="matrix(0.707107 -0.707107 -0.707107 -0.707107 55.8114 269.113)" stroke="#69FF93" stroke-width="0.818704"/>
<rect y="-0.578911" width="1.24523" height="1.24523" transform="matrix(0.707107 -0.707107 -0.707107 -0.707107 46.1307 269.113)" stroke="#69FF93" stroke-width="0.818704"/>
<path d="M22.0738 262.498V262.038H22.7084C23.4135 262.038 23.9195 261.81 24.2265 261.353C24.409 261.088 24.5002 260.474 24.5002 259.512V248.612C24.5002 247.55 24.3841 246.891 24.1518 246.633C23.8283 246.268 23.3472 246.086 22.7084 246.086H22.0738V245.625H28.9423C31.4641 245.625 33.3803 245.912 34.6909 246.484C36.0099 247.056 37.0675 248.01 37.8639 249.346C38.6685 250.673 39.0708 252.216 39.0708 253.975C39.0708 255.219 38.8676 256.364 38.4611 257.409C38.063 258.454 37.4657 259.354 36.6694 260.109C35.8813 260.856 34.8942 261.44 33.7079 261.863C32.53 262.287 31.1654 262.498 29.6142 262.498H22.0738ZM26.8892 261.279C27.9261 261.511 28.8096 261.627 29.5396 261.627C30.4935 261.627 31.377 261.453 32.1899 261.104C33.0111 260.748 33.7204 260.246 34.3176 259.599C34.9149 258.944 35.3836 258.151 35.7237 257.222C36.0638 256.293 36.2338 255.252 36.2338 254.099C36.2338 252.938 36.0638 251.893 35.7237 250.963C35.3919 250.034 34.9232 249.246 34.3176 248.599C33.7204 247.944 33.0028 247.442 32.165 247.094C31.3355 246.745 30.4272 246.571 29.44 246.571C29.0667 246.571 28.6686 246.604 28.2455 246.671C27.8225 246.729 27.3704 246.816 26.8892 246.932V261.279ZM46.4246 250.764C47.2292 250.764 47.9675 250.922 48.6394 251.237C49.3113 251.552 49.8879 251.976 50.369 252.506C50.8584 253.037 51.2358 253.655 51.5013 254.36C51.775 255.065 51.9119 255.808 51.9119 256.588C51.9119 257.409 51.7709 258.197 51.4888 258.952C51.2151 259.698 50.8294 260.362 50.3316 260.943C49.8339 261.523 49.2408 261.988 48.5523 262.336C47.8638 262.676 47.1089 262.846 46.2877 262.846C45.4831 262.846 44.7489 262.681 44.0853 262.349C43.43 262.017 42.8659 261.577 42.3931 261.03C41.9203 260.474 41.5553 259.839 41.2981 259.126C41.041 258.413 40.9124 257.674 40.9124 256.911C40.9124 256.14 41.0451 255.385 41.3105 254.647C41.576 253.908 41.9493 253.253 42.4304 252.681C42.9198 252.1 43.5005 251.635 44.1724 251.287C44.8526 250.939 45.6033 250.764 46.4246 250.764ZM46.0388 251.573C45.6739 251.573 45.3213 251.652 44.9812 251.81C44.6494 251.959 44.3508 252.208 44.0853 252.556C43.8282 252.896 43.6208 253.34 43.4632 253.888C43.3056 254.427 43.2268 255.086 43.2268 255.866C43.2268 256.671 43.3097 257.442 43.4756 258.18C43.6498 258.919 43.8904 259.57 44.1973 260.134C44.5125 260.69 44.89 261.133 45.3296 261.465C45.7775 261.797 46.2753 261.963 46.8228 261.963C47.2209 261.963 47.5859 261.888 47.9177 261.739C48.2578 261.581 48.5523 261.333 48.8012 260.992C49.05 260.644 49.245 260.188 49.386 259.624C49.527 259.06 49.5975 258.367 49.5975 257.546C49.5975 256.725 49.5187 255.953 49.3611 255.231C49.2035 254.51 48.9712 253.879 48.6643 253.34C48.3657 252.793 47.9924 252.361 47.5444 252.046C47.1048 251.731 46.6029 251.573 46.0388 251.573ZM56.9139 253.178C58.2495 251.569 59.5228 250.764 60.7339 250.764C61.157 250.764 61.5468 250.835 61.9035 250.976C62.2602 251.117 62.5713 251.353 62.8368 251.685C63.1022 252.017 63.3096 252.457 63.4589 253.004C63.6082 253.552 63.6829 254.236 63.6829 255.057V259.922C63.6829 260.412 63.7078 260.798 63.7575 261.08C63.8156 261.362 63.911 261.577 64.0437 261.727C64.1764 261.868 64.3548 261.959 64.5788 262C64.8027 262.034 65.0848 262.05 65.4249 262.05V262.498H59.7882V262.05H60.0247C60.3979 262.05 60.6883 262.017 60.8957 261.951C61.1113 261.884 61.2731 261.772 61.3809 261.615C61.4888 261.449 61.5551 261.229 61.58 260.955C61.6132 260.681 61.6298 260.337 61.6298 259.922V255.256C61.6298 254.219 61.4929 253.469 61.2192 253.004C60.9537 252.531 60.5016 252.295 59.8629 252.295C58.8758 252.295 57.8928 252.834 56.9139 253.912V259.922C56.9139 260.677 56.9596 261.154 57.0508 261.353C57.1089 261.478 57.1711 261.586 57.2375 261.677C57.3121 261.768 57.4075 261.843 57.5236 261.901C57.6481 261.951 57.8057 261.988 57.9965 262.013C58.1956 262.038 58.4527 262.05 58.7679 262.05V262.498H53.1313V262.05H53.3802C53.6788 262.05 53.9235 262.017 54.1143 261.951C54.3051 261.884 54.4544 261.768 54.5622 261.602C54.6784 261.436 54.7572 261.221 54.7986 260.955C54.8401 260.681 54.8609 260.337 54.8609 259.922V255.692C54.8609 254.34 54.8277 253.506 54.7613 253.191C54.7033 252.892 54.6079 252.689 54.4751 252.581C54.3507 252.473 54.1807 252.419 53.965 252.419C53.7327 252.419 53.4548 252.482 53.1313 252.606L52.9447 252.158L56.3789 250.764H56.9139V253.178ZM70.8624 246.546V253.216H74.5704C75.1096 253.216 75.5451 253.17 75.8769 253.079C76.217 252.979 76.4825 252.83 76.6733 252.631C76.864 252.423 76.9968 252.166 77.0714 251.859C77.1461 251.552 77.1959 251.187 77.2207 250.764H77.6811V256.637H77.2207C77.1627 256.223 77.1046 255.887 77.0465 255.63C76.9885 255.364 76.9304 255.173 76.8723 255.057C76.7977 254.908 76.7023 254.779 76.5861 254.671C76.47 254.555 76.3207 254.456 76.1382 254.373C75.9557 254.29 75.7359 254.228 75.4787 254.186C75.2216 254.145 74.9188 254.124 74.5704 254.124H70.8624V259.686C70.8624 260.424 70.8956 260.88 70.962 261.055C70.9951 261.129 71.0366 261.2 71.0864 261.266C71.1362 261.333 71.2067 261.391 71.2979 261.44C71.3975 261.482 71.5219 261.515 71.6712 261.54C71.8288 261.565 72.0238 261.577 72.256 261.577H75.1179C75.6073 261.577 76.0138 261.565 76.3373 261.54C76.6691 261.507 76.9553 261.457 77.1959 261.391C77.4447 261.316 77.6604 261.216 77.8429 261.092C78.0337 260.959 78.2328 260.793 78.4401 260.594C78.6973 260.345 78.9586 260.026 79.224 259.636C79.4895 259.246 79.7549 258.79 80.0204 258.267H80.5181L79.0623 262.498H66.0595V262.038H66.6567C66.8143 262.038 66.9802 262.021 67.1544 261.988C67.3286 261.955 67.4904 261.901 67.6397 261.826C67.7973 261.751 67.9383 261.66 68.0628 261.552C68.1872 261.436 68.2743 261.304 68.3241 261.154C68.4236 260.897 68.4734 260.354 68.4734 259.524V248.562C68.4734 247.5 68.3655 246.841 68.1499 246.584C67.8512 246.252 67.3535 246.086 66.6567 246.086H66.0595V245.625H79.0623V249.321H78.7637C78.6724 248.873 78.5812 248.504 78.4899 248.214C78.3987 247.923 78.295 247.683 78.1788 247.492C78.0627 247.301 77.93 247.152 77.7807 247.044C77.6314 246.928 77.453 246.824 77.2456 246.733C76.9055 246.608 76.3207 246.546 75.4912 246.546H70.8624Z" fill="#69FF93"/>
<path d="M7.76705 301.932L1.44534 299.954L2.99002 298.485L3.2776 298.212L3.01316 297.916L1.06758 295.739L1.06784 294.17C1.06808 292.749 2.22039 291.597 3.64177 291.597H51.3744H64.0533H70.3064L72.7808 292.689L72.8851 292.735L72.9982 292.721L75.9297 292.345L81.2748 294.108L82.4072 294.482L81.743 293.491L80.8629 292.179L83.1235 291.597H89.411H98.6538C100.219 291.597 101.422 292.982 101.202 294.532L101.019 295.821L101.011 295.881L101.02 295.941L101.668 300.086L99.8861 304.362L96.4809 307.214L95.8931 307.706L96.6291 307.921L101.641 309.383L101.363 311.645L99.8858 313.843L99.7779 314.003L99.8335 314.188L100.578 316.671L100.244 318.359L98.568 318.185L98.4747 318.176L98.3865 318.207L96.179 319.005L94.9525 319.449L96.2123 319.786L98.0084 320.266L99.6655 321.719L99.7038 321.753L99.7492 321.776L101.592 322.717L101.036 324.423L101.425 324.55L101.03 324.658C101.294 325.625 100.566 326.577 99.5643 326.577H76.7321H51.3744H38.6956H32.4908L30.3162 324.972L30.1488 324.849L29.9503 324.911L27.7741 325.595L27.7379 325.607L27.7044 325.624L25.9145 326.577H19.7362L16.3846 325.593L16.2599 325.556L16.137 325.598L13.2699 326.577H3.81305C2.33525 326.577 1.16092 325.336 1.24311 323.86L1.3725 321.537L1.88731 320.112L1.94268 319.959L1.87763 319.81L1.09009 318.002L1.59948 315.984L1.62385 315.887L1.60114 315.79L1.12359 313.751L4.08762 311.854L4.58307 311.537L4.11361 311.182L1.18945 308.975L2.27635 307.015L2.38813 306.813L2.27381 306.613L1.21848 304.766L3.99817 303.196L7.69613 302.729L7.76705 301.932Z" fill="url(#paint4_radial_595_5150)" stroke="#69FF93" stroke-width="0.818704"/>
<path d="M3.36414 295.684L5.72754 298.047L8.09093 295.684L5.72754 293.32L3.36414 295.684ZM43.8888 295.684L41.5254 293.32L39.162 295.684L41.5254 298.047L43.8888 295.684ZM5.72754 296.093H41.5254V295.274H5.72754V296.093Z" fill="#69FF93"/>
<path d="M57.579 295.684L59.9424 298.047L62.3058 295.684L59.9424 293.32L57.579 295.684ZM98.1037 295.684L95.7403 293.32L93.3769 295.684L95.7403 298.047L98.1037 295.684ZM59.9424 296.093H95.7403V295.274H59.9424V296.093Z" fill="#69FF93"/>
<path d="M51.2129 291.771L56.3542 291.771L51.2129 296.913L46.0716 291.771L51.2129 291.771Z" stroke="#69FF93" stroke-width="0.818704"/>
<rect x="42.1641" y="294.802" width="1.24523" height="1.24523" transform="rotate(45 42.1641 294.802)" stroke="#69FF93" stroke-width="0.818704"/>
<rect x="60.6943" y="294.802" width="1.24523" height="1.24523" transform="rotate(45 60.6943 294.802)" stroke="#69FF93" stroke-width="0.818704"/>
<rect x="45.0859" y="293.343" width="3.30917" height="3.30917" transform="rotate(45 45.0859 293.343)" stroke="#69FF93" stroke-width="0.818704"/>
<rect x="57.6797" y="293.343" width="3.30917" height="3.30917" transform="rotate(45 57.6797 293.343)" stroke="#69FF93" stroke-width="0.818704"/>
<rect x="56.2207" y="294.802" width="1.24523" height="1.24523" transform="rotate(45 56.2207 294.802)" stroke="#69FF93" stroke-width="0.818704"/>
<rect x="46.54" y="294.802" width="1.24523" height="1.24523" transform="rotate(45 46.54 294.802)" stroke="#69FF93" stroke-width="0.818704"/>
<path d="M3.36414 322.637L5.72754 320.273L8.09093 322.637L5.72754 325L3.36414 322.637ZM43.8888 322.637L41.5254 325L39.162 322.637L41.5254 320.273L43.8888 322.637ZM5.72754 322.227H41.5254V323.046H5.72754V322.227Z" fill="#69FF93"/>
<path d="M57.579 322.637L59.9424 320.273L62.3058 322.637L59.9424 325L57.579 322.637ZM98.1037 322.637L95.7403 325L93.3769 322.637L95.7403 320.273L98.1037 322.637ZM59.9424 322.227H95.7403V323.046H59.9424V322.227Z" fill="#69FF93"/>
<path d="M51.2129 326.549L56.3542 326.549L51.2129 321.408L46.0716 326.549L51.2129 326.549Z" stroke="#69FF93" stroke-width="0.818704"/>
<rect y="-0.578911" width="1.24523" height="1.24523" transform="matrix(0.707107 -0.707107 -0.707107 -0.707107 41.7547 323.109)" stroke="#69FF93" stroke-width="0.818704"/>
<rect y="-0.578911" width="1.24523" height="1.24523" transform="matrix(0.707107 -0.707107 -0.707107 -0.707107 60.285 323.109)" stroke="#69FF93" stroke-width="0.818704"/>
<rect y="-0.578911" width="3.30917" height="3.30917" transform="matrix(0.707107 -0.707107 -0.707107 -0.707107 44.6766 324.568)" stroke="#69FF93" stroke-width="0.818704"/>
<rect y="-0.578911" width="3.30917" height="3.30917" transform="matrix(0.707107 -0.707107 -0.707107 -0.707107 57.2703 324.568)" stroke="#69FF93" stroke-width="0.818704"/>
<rect y="-0.578911" width="1.24523" height="1.24523" transform="matrix(0.707107 -0.707107 -0.707107 -0.707107 55.8114 323.109)" stroke="#69FF93" stroke-width="0.818704"/>
<rect y="-0.578911" width="1.24523" height="1.24523" transform="matrix(0.707107 -0.707107 -0.707107 -0.707107 46.1307 323.109)" stroke="#69FF93" stroke-width="0.818704"/>
<path d="M22.0738 316.494V316.034H22.7084C23.4135 316.034 23.9195 315.806 24.2265 315.349C24.409 315.084 24.5002 314.47 24.5002 313.508V302.608C24.5002 301.546 24.3841 300.887 24.1518 300.629C23.8283 300.264 23.3472 300.082 22.7084 300.082H22.0738V299.622H28.9423C31.4641 299.622 33.3803 299.908 34.6909 300.48C36.0099 301.053 37.0675 302.006 37.8639 303.342C38.6685 304.669 39.0708 306.212 39.0708 307.971C39.0708 309.215 38.8676 310.36 38.4611 311.405C38.063 312.45 37.4657 313.35 36.6694 314.105C35.8813 314.852 34.8942 315.436 33.7079 315.86C32.53 316.283 31.1654 316.494 29.6142 316.494H22.0738ZM26.8892 315.275C27.9261 315.507 28.8096 315.623 29.5396 315.623C30.4935 315.623 31.377 315.449 32.1899 315.101C33.0111 314.744 33.7204 314.242 34.3176 313.595C34.9149 312.94 35.3836 312.147 35.7237 311.218C36.0638 310.289 36.2338 309.248 36.2338 308.095C36.2338 306.934 36.0638 305.889 35.7237 304.96C35.3919 304.031 34.9232 303.242 34.3176 302.595C33.7204 301.94 33.0028 301.438 32.165 301.09C31.3355 300.741 30.4272 300.567 29.44 300.567C29.0667 300.567 28.6686 300.6 28.2455 300.667C27.8225 300.725 27.3704 300.812 26.8892 300.928V315.275ZM46.4246 304.76C47.2292 304.76 47.9675 304.918 48.6394 305.233C49.3113 305.549 49.8879 305.972 50.369 306.502C50.8584 307.033 51.2358 307.651 51.5013 308.356C51.775 309.062 51.9119 309.804 51.9119 310.584C51.9119 311.405 51.7709 312.193 51.4888 312.948C51.2151 313.694 50.8294 314.358 50.3316 314.939C49.8339 315.519 49.2408 315.984 48.5523 316.332C47.8638 316.672 47.1089 316.843 46.2877 316.843C45.4831 316.843 44.7489 316.677 44.0853 316.345C43.43 316.013 42.8659 315.573 42.3931 315.026C41.9203 314.47 41.5553 313.836 41.2981 313.122C41.041 312.409 40.9124 311.67 40.9124 310.907C40.9124 310.136 41.0451 309.381 41.3105 308.643C41.576 307.904 41.9493 307.249 42.4304 306.677C42.9198 306.096 43.5005 305.631 44.1724 305.283C44.8526 304.935 45.6033 304.76 46.4246 304.76ZM46.0388 305.569C45.6739 305.569 45.3213 305.648 44.9812 305.806C44.6494 305.955 44.3508 306.204 44.0853 306.552C43.8282 306.892 43.6208 307.336 43.4632 307.884C43.3056 308.423 43.2268 309.082 43.2268 309.862C43.2268 310.667 43.3097 311.438 43.4756 312.176C43.6498 312.915 43.8904 313.566 44.1973 314.13C44.5125 314.686 44.89 315.13 45.3296 315.461C45.7775 315.793 46.2753 315.959 46.8228 315.959C47.2209 315.959 47.5859 315.884 47.9177 315.735C48.2578 315.578 48.5523 315.329 48.8012 314.989C49.05 314.64 49.245 314.184 49.386 313.62C49.527 313.056 49.5975 312.363 49.5975 311.542C49.5975 310.721 49.5187 309.949 49.3611 309.227C49.2035 308.506 48.9712 307.875 48.6643 307.336C48.3657 306.789 47.9924 306.357 47.5444 306.042C47.1048 305.727 46.6029 305.569 46.0388 305.569ZM56.9139 307.174C58.2495 305.565 59.5228 304.76 60.7339 304.76C61.157 304.76 61.5468 304.831 61.9035 304.972C62.2602 305.113 62.5713 305.349 62.8368 305.681C63.1022 306.013 63.3096 306.453 63.4589 307C63.6082 307.548 63.6829 308.232 63.6829 309.053V313.918C63.6829 314.408 63.7078 314.794 63.7575 315.076C63.8156 315.358 63.911 315.573 64.0437 315.723C64.1764 315.864 64.3548 315.955 64.5788 315.996C64.8027 316.03 65.0848 316.046 65.4249 316.046V316.494H59.7882V316.046H60.0247C60.3979 316.046 60.6883 316.013 60.8957 315.947C61.1113 315.88 61.2731 315.768 61.3809 315.611C61.4888 315.445 61.5551 315.225 61.58 314.951C61.6132 314.677 61.6298 314.333 61.6298 313.918V309.252C61.6298 308.215 61.4929 307.465 61.2192 307C60.9537 306.527 60.5016 306.291 59.8629 306.291C58.8758 306.291 57.8928 306.83 56.9139 307.909V313.918C56.9139 314.673 56.9596 315.15 57.0508 315.349C57.1089 315.474 57.1711 315.582 57.2375 315.673C57.3121 315.764 57.4075 315.839 57.5236 315.897C57.6481 315.947 57.8057 315.984 57.9965 316.009C58.1956 316.034 58.4527 316.046 58.7679 316.046V316.494H53.1313V316.046H53.3802C53.6788 316.046 53.9235 316.013 54.1143 315.947C54.3051 315.88 54.4544 315.764 54.5622 315.598C54.6784 315.432 54.7572 315.217 54.7986 314.951C54.8401 314.677 54.8609 314.333 54.8609 313.918V309.688C54.8609 308.336 54.8277 307.502 54.7613 307.187C54.7033 306.888 54.6079 306.685 54.4751 306.577C54.3507 306.469 54.1807 306.415 53.965 306.415C53.7327 306.415 53.4548 306.478 53.1313 306.602L52.9447 306.154L56.3789 304.76H56.9139V307.174ZM70.8624 300.542V307.212H74.5704C75.1096 307.212 75.5451 307.166 75.8769 307.075C76.217 306.975 76.4825 306.826 76.6733 306.627C76.864 306.42 76.9968 306.162 77.0714 305.855C77.1461 305.549 77.1959 305.184 77.2207 304.76H77.6811V310.634H77.2207C77.1627 310.219 77.1046 309.883 77.0465 309.626C76.9885 309.36 76.9304 309.169 76.8723 309.053C76.7977 308.904 76.7023 308.775 76.5861 308.668C76.47 308.551 76.3207 308.452 76.1382 308.369C75.9557 308.286 75.7359 308.224 75.4787 308.182C75.2216 308.141 74.9188 308.12 74.5704 308.12H70.8624V313.682C70.8624 314.42 70.8956 314.877 70.962 315.051C70.9951 315.125 71.0366 315.196 71.0864 315.262C71.1362 315.329 71.2067 315.387 71.2979 315.436C71.3975 315.478 71.5219 315.511 71.6712 315.536C71.8288 315.561 72.0238 315.573 72.256 315.573H75.1179C75.6073 315.573 76.0138 315.561 76.3373 315.536C76.6691 315.503 76.9553 315.453 77.1959 315.387C77.4447 315.312 77.6604 315.213 77.8429 315.088C78.0337 314.955 78.2328 314.789 78.4401 314.59C78.6973 314.342 78.9586 314.022 79.224 313.632C79.4895 313.242 79.7549 312.786 80.0204 312.264H80.5181L79.0623 316.494H66.0595V316.034H66.6567C66.8143 316.034 66.9802 316.017 67.1544 315.984C67.3286 315.951 67.4904 315.897 67.6397 315.822C67.7973 315.748 67.9383 315.656 68.0628 315.548C68.1872 315.432 68.2743 315.3 68.3241 315.15C68.4236 314.893 68.4734 314.35 68.4734 313.52V302.558C68.4734 301.496 68.3655 300.837 68.1499 300.58C67.8512 300.248 67.3535 300.082 66.6567 300.082H66.0595V299.622H79.0623V303.317H78.7637C78.6724 302.869 78.5812 302.5 78.4899 302.21C78.3987 301.919 78.295 301.679 78.1788 301.488C78.0627 301.297 77.93 301.148 77.7807 301.04C77.6314 300.924 77.453 300.82 77.2456 300.729C76.9055 300.605 76.3207 300.542 75.4912 300.542H70.8624Z" fill="#69FF93"/>
<defs>
<radialGradient id="paint0_radial_595_5150" cx="0" cy="0" r="1" gradientUnits="userSpaceOnUse" gradientTransform="translate(51.374 93.0968) rotate(90) scale(30.7461 87.1147)">
<stop stop-color="#201E15"/>
<stop offset="1" stop-color="#090A0C"/>
</radialGradient>
<radialGradient id="paint1_radial_595_5150" cx="0" cy="0" r="1" gradientUnits="userSpaceOnUse" gradientTransform="translate(51.374 147.097) rotate(90) scale(30.7461 87.1147)">
<stop stop-color="#201E15"/>
<stop offset="1" stop-color="#090A0C"/>
</radialGradient>
<radialGradient id="paint2_radial_595_5150" cx="0" cy="0" r="1" gradientUnits="userSpaceOnUse" gradientTransform="translate(51.374 201.093) rotate(90) scale(30.7461 87.1147)">
<stop stop-color="#201E15"/>
<stop offset="1" stop-color="#090A0C"/>
</radialGradient>
<radialGradient id="paint3_radial_595_5150" cx="0" cy="0" r="1" gradientUnits="userSpaceOnUse" gradientTransform="translate(51.374 255.091) rotate(90) scale(30.7461 87.1147)">
<stop stop-color="#201E15"/>
<stop offset="1" stop-color="#090A0C"/>
</radialGradient>
<radialGradient id="paint4_radial_595_5150" cx="0" cy="0" r="1" gradientUnits="userSpaceOnUse" gradientTransform="translate(51.374 309.087) rotate(90) scale(30.7461 87.1147)">
<stop stop-color="#201E15"/>
<stop offset="1" stop-color="#090A0C"/>
</radialGradient>
</defs>
</svg>
