<svg width="62" height="195" viewBox="0 0 62 195" fill="none" xmlns="http://www.w3.org/2000/svg">
<path d="M30.9131 47.49L26.1863 52.2168L30.9131 56.9436L35.6399 52.2168L30.9131 47.49ZM30.9131 194.537L35.6399 186.35L26.1863 186.35L30.9131 194.537ZM30.0944 52.2168L30.0944 53.0347L31.7318 53.0347V52.2168H30.0944ZM30.0944 56.3065L30.0944 57.9423L31.7318 57.9423L31.7318 56.3065L30.0944 56.3065ZM30.0944 61.2141L30.0944 62.85L31.7318 62.85L31.7318 61.2141L30.0944 61.2141ZM30.0944 66.1217L30.0944 67.7576L31.7318 67.7576L31.7318 66.1217L30.0944 66.1217ZM30.0944 71.0293L30.0944 72.6652H31.7318L31.7318 71.0293L30.0944 71.0293ZM30.0944 75.9369L30.0944 77.5728L31.7318 77.5728L31.7318 75.9369L30.0944 75.9369ZM30.0944 80.8445L30.0944 82.4804L31.7318 82.4804L31.7318 80.8445H30.0944ZM30.0944 85.7521L30.0944 87.388L31.7318 87.388L31.7318 85.7521H30.0944ZM30.0944 90.6597L30.0944 92.2956H31.7318L31.7318 90.6597H30.0944ZM30.0944 95.5674L30.0944 97.2032H31.7318L31.7318 95.5674H30.0944ZM30.0944 100.475L30.0944 102.111H31.7318L31.7318 100.475H30.0944ZM30.0944 105.383L30.0944 107.018H31.7318L31.7318 105.383H30.0944ZM30.0944 110.29L30.0944 111.926H31.7318L31.7318 110.29L30.0944 110.29ZM30.0944 115.198L30.0944 116.834H31.7318L31.7318 115.198H30.0944ZM30.0944 120.105L30.0944 121.741H31.7318L31.7318 120.105H30.0944ZM30.0944 125.013L30.0944 126.649H31.7318L31.7318 125.013H30.0944ZM30.0944 129.921L30.0944 131.557H31.7318L31.7318 129.921H30.0944ZM30.0944 134.828L30.0944 136.464H31.7318L31.7318 134.828H30.0944ZM30.0944 139.736L30.0944 141.372H31.7318L31.7318 139.736H30.0944ZM30.0944 144.643L30.0944 146.279H31.7318L31.7318 144.643L30.0944 144.643ZM30.0944 149.551L30.0944 151.187H31.7318L31.7318 149.551H30.0944ZM30.0944 154.459L30.0944 156.095H31.7318L31.7318 154.459H30.0944ZM30.0944 159.366L30.0944 161.002H31.7318L31.7318 159.366L30.0944 159.366ZM30.0944 164.274L30.0944 165.91H31.7318L31.7318 164.274H30.0944ZM30.0944 169.182L30.0944 170.817H31.7318L31.7318 169.182H30.0944ZM30.0944 174.089L30.0944 175.725L31.7318 175.725L31.7318 174.089H30.0944ZM30.0944 178.997L30.0944 180.633H31.7318L31.7318 178.997H30.0944ZM30.0944 183.904L30.0944 185.54H31.7318L31.7318 183.904H30.0944ZM30.0944 188.812L30.0944 190.448H31.7318L31.7318 188.812H30.0944Z" fill="#FFD67E"/>
<rect y="1.15714" width="41.1751" height="41.1751" transform="matrix(0.707523 0.706691 -0.707523 0.706691 31.9876 0.804244)" fill="#090A0C" stroke="#FFD67E" stroke-width="1.63741" stroke-dasharray="1.64 3.27"/>
<path d="M18.3579 25.0313L25.1748 27.7637" stroke="#FFD67E" stroke-width="0.818704" stroke-miterlimit="10"/>
<path d="M28.6799 35.9506L25.9365 42.7402" stroke="#FFD67E" stroke-width="0.818704" stroke-miterlimit="10"/>
<path d="M25.6792 17.5913L28.5597 24.3242" stroke="#FFD67E" stroke-width="0.818704" stroke-miterlimit="10"/>
<path d="M25.2228 32.5783L18.4629 35.4473" stroke="#FFD67E" stroke-width="0.818704" stroke-miterlimit="10"/>
<path d="M17.6646 27.311L24.855 28.8184" stroke="#FFD67E" stroke-width="0.818704" stroke-miterlimit="10"/>
<path d="M29.7315 36.2718L28.2183 43.4336" stroke="#FFD67E" stroke-width="0.818704" stroke-miterlimit="10"/>
<path d="M23.5645 18.7098L27.5789 24.8398" stroke="#FFD67E" stroke-width="0.818704" stroke-miterlimit="10"/>
<path d="M25.7428 33.5543L19.5884 37.5527" stroke="#FFD67E" stroke-width="0.818704" stroke-miterlimit="10"/>
<path d="M19.6816 22.5374L25.7873 26.6094" stroke="#FFD67E" stroke-width="0.818704" stroke-miterlimit="10"/>
<path d="M27.5244 35.3425L23.436 41.4238" stroke="#FFD67E" stroke-width="0.818704" stroke-miterlimit="10"/>
<path d="M28.3818 16.7599L29.8082 23.9395" stroke="#FFD67E" stroke-width="0.818704" stroke-miterlimit="10"/>
<path d="M24.8338 31.333L17.6255 32.7539" stroke="#FFD67E" stroke-width="0.818704" stroke-miterlimit="10"/>
<path d="M43.7139 25.0313L36.897 27.7637" stroke="#FFD67E" stroke-width="0.818704" stroke-miterlimit="10"/>
<path d="M33.3924 35.9545L36.1357 42.7441" stroke="#FFD67E" stroke-width="0.818704" stroke-miterlimit="10"/>
<path d="M36.3965 17.5893L33.516 24.3223" stroke="#FFD67E" stroke-width="0.818704" stroke-miterlimit="10"/>
<path d="M36.8528 32.5783L43.6128 35.4473" stroke="#FFD67E" stroke-width="0.818704" stroke-miterlimit="10"/>
<path d="M44.4111 27.309L37.2207 28.8164" stroke="#FFD67E" stroke-width="0.818704" stroke-miterlimit="10"/>
<path d="M32.3364 36.2718L33.8496 43.4336" stroke="#FFD67E" stroke-width="0.818704" stroke-miterlimit="10"/>
<path d="M38.4995 18.7118L34.485 24.8418" stroke="#FFD67E" stroke-width="0.818704" stroke-miterlimit="10"/>
<path d="M36.329 33.5543L42.4834 37.5527" stroke="#FFD67E" stroke-width="0.818704" stroke-miterlimit="10"/>
<path d="M42.3979 22.5374L36.2923 26.6094" stroke="#FFD67E" stroke-width="0.818704" stroke-miterlimit="10"/>
<path d="M34.5474 35.3464L38.6357 41.4277" stroke="#FFD67E" stroke-width="0.818704" stroke-miterlimit="10"/>
<path d="M33.6899 16.7599L32.2636 23.9395" stroke="#FFD67E" stroke-width="0.818704" stroke-miterlimit="10"/>
<path d="M37.234 31.3349L44.4424 32.7559" stroke="#FFD67E" stroke-width="0.818704" stroke-miterlimit="10"/>
<path d="M44.4424 30.1113L17.5717 30.1113" stroke="#FFD67E" stroke-width="0.818704" stroke-miterlimit="10"/>
<path d="M31.0107 16.385L31.0107 44.5527" stroke="#FFD67E" stroke-width="0.818704" stroke-miterlimit="10"/>
<path d="M21.041 39.8145L40.5731 20.1503" stroke="#FFD67E" stroke-width="0.818704" stroke-miterlimit="10"/>
<path d="M41.1027 39.816L20.9629 20.123" stroke="#FFD67E" stroke-width="0.818704" stroke-miterlimit="10"/>
<rect x="30.0687" y="15.209" width="1.37385" height="1.37385" transform="rotate(-45 30.0687 15.209)" fill="#FFEF99" stroke="#FFD67E" stroke-width="0.818704"/>
<rect x="40.4299" y="19.1203" width="1.37385" height="1.37385" fill="#FFEF99" stroke="#FFD67E" stroke-width="0.818704"/>
<rect x="19.9924" y="19.132" width="1.37385" height="1.37385" fill="#FFEF99" stroke="#FFD67E" stroke-width="0.818704"/>
<rect x="40.4299" y="39.1652" width="1.37385" height="1.37385" fill="#FFEF99" stroke="#FFD67E" stroke-width="0.818704"/>
<rect x="19.9924" y="39.1301" width="1.37385" height="1.37385" fill="#FFEF99" stroke="#FFD67E" stroke-width="0.818704"/>
<rect x="30.0687" y="45.6289" width="1.37385" height="1.37385" transform="rotate(-45 30.0687 45.6289)" fill="#FFEF99" stroke="#FFD67E" stroke-width="0.818704"/>
<mask id="path-37-outside-1_595_5155" maskUnits="userSpaceOnUse" x="18.6275" y="17.5679" width="25.0917" height="25.0917" fill="black">
<rect fill="white" x="18.6275" y="17.5679" width="25.0917" height="25.0917"/>
<path d="M40.9802 28.5673C41.8176 34.0062 38.0874 39.0941 32.6486 39.9315C27.2097 40.769 22.1218 37.0387 21.2844 31.5999C20.4469 26.161 24.1771 21.0731 29.616 20.2357C35.0549 19.3982 40.1428 23.1285 40.9802 28.5673Z"/>
</mask>
<path d="M40.9802 28.5673C41.8176 34.0062 38.0874 39.0941 32.6486 39.9315C27.2097 40.769 22.1218 37.0387 21.2844 31.5999C20.4469 26.161 24.1771 21.0731 29.616 20.2357C35.0549 19.3982 40.1428 23.1285 40.9802 28.5673Z" fill="#0A0A0A"/>
<path d="M41.3848 28.505C41.3431 28.2343 41.2913 27.9675 41.2298 27.7051L40.4327 27.8919C40.4894 28.1338 40.5372 28.3798 40.5756 28.6296L41.3848 28.505ZM40.7351 26.1542C40.5278 25.6465 40.2822 25.1608 40.0024 24.7002L39.3027 25.1252C39.5602 25.5492 39.7863 25.9963 39.9771 26.4637L40.7351 26.1542ZM39.0501 23.3796C38.6977 22.9642 38.314 22.5781 37.9032 22.2245L37.3691 22.845C37.7477 23.1709 38.1012 23.5266 38.4258 23.9092L39.0501 23.3796ZM36.5906 21.2622C36.1298 20.9768 35.6462 20.727 35.144 20.5159L34.8267 21.2706C35.2893 21.465 35.7349 21.6952 36.1595 21.9582L36.5906 21.2622ZM33.5982 20.0049C33.0747 19.8767 32.5377 19.7886 31.9911 19.7436L31.924 20.5595C32.4271 20.6009 32.9214 20.682 33.4033 20.8001L33.5982 20.0049ZM30.3633 19.7383C30.0945 19.7586 29.8245 19.7894 29.5537 19.8311L29.6783 20.6403C29.9281 20.6018 30.1771 20.5734 30.4248 20.5547L30.3633 19.7383ZM29.5537 19.8311C29.2829 19.8728 29.0162 19.9246 28.7537 19.9861L28.9406 20.7832C29.1825 20.7265 29.4285 20.6787 29.6783 20.6403L29.5537 19.8311ZM27.2029 20.4808C26.6951 20.6881 26.2095 20.9337 25.7489 21.2135L26.1739 21.9132C26.5979 21.6557 27.045 21.4296 27.5124 21.2388L27.2029 20.4808ZM24.4283 22.1658C24.0129 22.5181 23.6268 22.9019 23.2732 23.3127L23.8937 23.8468C24.2196 23.4682 24.5753 23.1147 24.9579 22.7901L24.4283 22.1658ZM22.3109 24.6253C22.0255 25.0861 21.7757 25.5697 21.5646 26.0719L22.3193 26.3891C22.5137 25.9266 22.7439 25.481 23.0069 25.0564L22.3109 24.6253ZM21.0536 27.6177C20.9253 28.1412 20.8372 28.6782 20.7923 29.2248L21.6082 29.2919C21.6496 28.7888 21.7307 28.2944 21.8488 27.8126L21.0536 27.6177ZM20.787 30.8526C20.8073 31.1214 20.8381 31.3914 20.8798 31.6622L21.6889 31.5376C21.6505 31.2878 21.6221 31.0388 21.6034 30.7911L20.787 30.8526ZM20.8798 31.6622C20.9215 31.9329 20.9733 32.1997 21.0348 32.4621L21.8319 32.2753C21.7752 32.0334 21.7274 31.7874 21.6889 31.5376L20.8798 31.6622ZM21.5295 34.013C21.7368 34.5207 21.9824 35.0064 22.2622 35.467L22.9619 35.042C22.7043 34.618 22.4783 34.1709 22.2875 33.7035L21.5295 34.013ZM23.2145 36.7876C23.5668 37.203 23.9506 37.5891 24.3614 37.9427L24.8955 37.3222C24.5169 36.9963 24.1634 36.6406 23.8388 36.258L23.2145 36.7876ZM25.674 38.905C26.1348 39.1904 26.6184 39.4402 27.1206 39.6513L27.4378 38.8966C26.9753 38.7022 26.5297 38.472 26.1051 38.209L25.674 38.905ZM28.6664 40.1623C29.1898 40.2905 29.7269 40.3787 30.2735 40.4236L30.3406 39.6077C29.8375 39.5663 29.3431 39.4852 28.8613 39.3671L28.6664 40.1623ZM31.9013 40.4289C32.1701 40.4086 32.4401 40.3778 32.7109 40.3361L32.5863 39.5269C32.3365 39.5654 32.0875 39.5938 31.8398 39.6125L31.9013 40.4289ZM32.7109 40.3361C32.9816 40.2944 33.2484 40.2426 33.5108 40.1811L33.3239 39.384C33.0821 39.4407 32.8361 39.4885 32.5863 39.5269L32.7109 40.3361ZM35.0617 39.6864C35.5694 39.4791 36.0551 39.2335 36.5157 38.9537L36.0907 38.254C35.6667 38.5115 35.2196 38.7376 34.7522 38.9284L35.0617 39.6864ZM37.8363 38.0014C38.2517 37.6491 38.6377 37.2653 38.9913 36.8545L38.3708 36.3204C38.045 36.699 37.6893 37.0525 37.3067 37.3771L37.8363 38.0014ZM39.9537 35.5419C40.2391 35.0811 40.4889 34.5975 40.7 34.0953L39.9453 33.7781C39.7508 34.2406 39.5207 34.6862 39.2576 35.1108L39.9537 35.5419ZM41.211 32.5495C41.3392 32.026 41.4273 31.489 41.4723 30.9424L40.6563 30.8753C40.615 31.3784 40.5339 31.8728 40.4158 32.3546L41.211 32.5495ZM41.4776 29.3146C41.4573 29.0458 41.4265 28.7758 41.3848 28.505L40.5756 28.6296C40.6141 28.8794 40.6425 29.1284 40.6612 29.3761L41.4776 29.3146ZM41.7894 28.4427C41.7461 28.1615 41.6922 27.8843 41.6283 27.6116L40.0341 27.9854C40.0884 28.217 40.1342 28.4526 40.171 28.6919L41.7894 28.4427ZM41.114 25.9995C40.8985 25.4716 40.6432 24.9666 40.3523 24.4877L38.9528 25.3377C39.1993 25.7435 39.4155 26.1712 39.5981 26.6184L41.114 25.9995ZM39.3623 23.1148C38.996 22.683 38.5972 22.2818 38.1702 21.9143L37.102 23.1553C37.4645 23.4673 37.8029 23.8078 38.1136 24.174L39.3623 23.1148ZM36.8062 20.9142C36.3273 20.6176 35.8246 20.3579 35.3026 20.1385L34.6681 21.648C35.1108 21.8341 35.5374 22.0544 35.944 22.3062L36.8062 20.9142ZM33.6956 19.6073C33.1514 19.474 32.593 19.3824 32.0246 19.3356L31.8904 20.9675C32.3718 21.0071 32.8448 21.0847 33.3059 21.1977L33.6956 19.6073ZM30.3325 19.3301C30.0532 19.3512 29.7726 19.3832 29.4914 19.4265L29.7406 21.0448C29.9799 21.008 30.2184 20.9808 30.4556 20.9629L30.3325 19.3301ZM29.4914 19.4265C29.2102 19.4698 28.933 19.5236 28.6603 19.5876L29.0341 21.1818C29.2656 21.1275 29.5012 21.0817 29.7406 21.0448L29.4914 19.4265ZM27.0482 20.1018C26.5202 20.3174 26.0153 20.5727 25.5363 20.8636L26.3864 22.2631C26.7921 22.0166 27.2199 21.8004 27.6671 21.6178L27.0482 20.1018ZM24.1635 21.8536C23.7317 22.2199 23.3305 22.6187 22.963 23.0457L24.204 24.1138C24.5159 23.7514 24.8565 23.4129 25.2227 23.1023L24.1635 21.8536ZM21.9629 24.4097C21.6663 24.8886 21.4066 25.3913 21.1872 25.9132L22.6967 26.5478C22.8828 26.105 23.1031 25.6785 23.3549 25.2719L21.9629 24.4097ZM20.656 27.5203C20.5227 28.0645 20.431 28.6229 20.3843 29.1912L22.0162 29.3255C22.0558 28.8441 22.1334 28.3711 22.2464 27.91L20.656 27.5203ZM20.3788 30.8834C20.3999 31.1627 20.4319 31.4432 20.4752 31.7245L22.0935 31.4753C22.0567 31.2359 22.0295 30.9975 22.0116 30.7603L20.3788 30.8834ZM20.4752 31.7245C20.5185 32.0057 20.5723 32.2829 20.6363 32.5556L22.2304 32.1818C22.1762 31.9502 22.1304 31.7147 22.0935 31.4753L20.4752 31.7245ZM21.1505 34.1677C21.3661 34.6956 21.6214 35.2006 21.9123 35.6795L23.3118 34.8295C23.0653 34.4237 22.849 33.996 22.6665 33.5488L21.1505 34.1677ZM22.9023 37.0524C23.2686 37.4842 23.6674 37.8854 24.0943 38.2529L25.1625 37.0119C24.8001 36.6999 24.4616 36.3594 24.151 35.9932L22.9023 37.0524ZM25.4584 39.253C25.9373 39.5496 26.44 39.8093 26.9619 40.0287L27.5965 38.5192C27.1537 38.3331 26.7272 38.1128 26.3206 37.861L25.4584 39.253ZM28.569 40.5599C29.1132 40.6932 29.6716 40.7848 30.2399 40.8316L30.3742 39.1997C29.8928 39.1601 29.4198 39.0825 28.9587 38.9695L28.569 40.5599ZM31.9321 40.8371C32.2114 40.816 32.4919 40.784 32.7732 40.7407L32.524 39.1224C32.2846 39.1592 32.0462 39.1864 31.809 39.2043L31.9321 40.8371ZM32.7732 40.7407C33.0544 40.6974 33.3315 40.6436 33.6043 40.5796L33.2305 38.9854C32.9989 39.0397 32.7633 39.0855 32.524 39.1224L32.7732 40.7407ZM35.2164 40.0654C35.7443 39.8498 36.2493 39.5945 36.7282 39.3036L35.8781 37.9041C35.4724 38.1506 35.0447 38.3668 34.5975 38.5494L35.2164 40.0654ZM38.1011 38.3136C38.5329 37.9473 38.9341 37.5485 39.3016 37.1215L38.0606 36.0534C37.7486 36.4158 37.4081 36.7543 37.0419 37.0649L38.1011 38.3136ZM40.3017 35.7575C40.5983 35.2786 40.858 34.7759 41.0774 34.254L39.5679 33.6194C39.3818 34.0622 39.1615 34.4887 38.9096 34.8953L40.3017 35.7575ZM41.6085 32.6469C41.7419 32.1027 41.8335 31.5443 41.8803 30.976L40.2484 30.8417C40.2088 31.3231 40.1312 31.7961 40.0182 32.2572L41.6085 32.6469ZM41.8858 29.2838C41.8647 29.0045 41.8327 28.724 41.7894 28.4427L40.171 28.6919C40.2079 28.9313 40.2351 29.1697 40.253 29.4069L41.8858 29.2838Z" fill="#FFD67E" mask="url(#path-37-outside-1_595_5155)"/>
<mask id="path-39-outside-2_595_5155" maskUnits="userSpaceOnUse" x="22.8237" y="21.7754" width="17" height="17" fill="black">
<rect fill="white" x="22.8237" y="21.7754" width="17" height="17"/>
<path d="M38.4418 30.0844C38.4418 34.1211 35.1695 37.3935 31.1328 37.3935C27.0961 37.3935 23.8237 34.1211 23.8237 30.0844C23.8237 26.0478 27.0961 22.7754 31.1328 22.7754C35.1695 22.7754 38.4418 26.0478 38.4418 30.0844Z"/>
</mask>
<path d="M38.4418 30.0844C38.4418 34.1211 35.1695 37.3935 31.1328 37.3935C27.0961 37.3935 23.8237 34.1211 23.8237 30.0844C23.8237 26.0478 27.0961 22.7754 31.1328 22.7754C35.1695 22.7754 38.4418 26.0478 38.4418 30.0844Z" fill="#0A0A0A"/>
<path d="M37.6231 30.0844C37.6231 33.669 34.7173 36.5748 31.1328 36.5748V38.2122C35.6216 38.2122 39.2605 34.5733 39.2605 30.0844H37.6231ZM31.1328 36.5748C27.5483 36.5748 24.6424 33.669 24.6424 30.0844H23.005C23.005 34.5733 26.6439 38.2122 31.1328 38.2122V36.5748ZM24.6424 30.0844C24.6424 26.4999 27.5483 23.5941 31.1328 23.5941V21.9567C26.6439 21.9567 23.005 25.5956 23.005 30.0844H24.6424ZM31.1328 23.5941C34.7173 23.5941 37.6231 26.4999 37.6231 30.0844H39.2605C39.2605 25.5956 35.6216 21.9567 31.1328 21.9567V23.5941Z" fill="#FFD67E" mask="url(#path-39-outside-2_595_5155)"/>
<path d="M27.0658 26.5253L31.6293 29.1064L31.5754 30.7317L27.0658 26.5253ZM27.2423 26.2161L26.8217 26.7845L31.3313 30.9909L31.9322 30.7433L31.9861 29.118L31.8057 28.7972L27.2423 26.2161Z" fill="#FFD67E"/>
<path d="M36.492 26.5274L34.1991 28.6645C33.9234 28.9216 33.5914 29.0371 33.2661 29.0368C32.9853 29.0368 32.7096 28.9505 32.479 28.795L36.492 26.5274ZM36.4923 26.1719V26.4567L36.3162 26.2182L32.3032 28.4858L32.279 29.0893C32.5727 29.2875 32.9142 29.3924 33.2664 29.3924C33.7011 29.3924 34.1192 29.2262 34.4432 28.924L36.7361 26.7869L36.4923 26.457V26.1722V26.1719Z" fill="#FFD67E"/>
<path d="M27.0658 26.5253L29.2123 28.8081C29.6932 29.3195 29.681 30.0249 29.3434 30.5207L27.0658 26.5253ZM27.3265 26.2823L26.7553 26.7006L29.0329 30.6961L29.639 30.7201C29.8525 30.4067 29.96 30.0276 29.9416 29.6528C29.9217 29.246 29.7597 28.8697 29.4733 28.5651L27.3268 26.2823H27.3265Z" fill="#FFD67E"/>
<path d="M36.492 26.5274L33.8996 31.0708L32.267 31.0172L36.492 26.5274ZM36.4923 26.1719V26.4753L36.2317 26.2844L32.0067 30.7741L32.2554 31.3724L33.8879 31.4261L34.2101 31.2465L36.8026 26.7031L36.4923 26.4756V26.1722V26.1719Z" fill="#FFD67E"/>
<path d="M34.2123 31.9164L36.4899 35.9119L34.3434 33.629C33.8625 33.1176 33.8747 32.4123 34.2123 31.9164ZM33.9167 31.717C33.7032 32.0305 33.5957 32.4095 33.6141 32.7843C33.634 33.1911 33.796 33.5674 34.0824 33.8721L36.2289 36.1549L36.8002 35.7365L34.5226 31.7411L33.9164 31.717H33.9167Z" fill="#FFD67E"/>
<path d="M31.9803 31.7054L36.4899 35.9119L31.9264 33.3308L31.9803 31.7054ZM32.2244 31.4462L31.6235 31.6938L31.5696 33.3192L31.75 33.64L36.3135 36.2211L36.734 35.6526L32.2244 31.4462Z" fill="#FFD67E"/>
<path d="M30.2896 33.4003C30.5705 33.4003 30.8461 33.4866 31.0768 33.6421L27.0637 35.9097L29.3566 33.7727C29.6323 33.5156 29.9643 33.4 30.2893 33.4003M30.2896 33.0451C29.8549 33.0451 29.4369 33.2113 29.1128 33.5135L26.8199 35.6505L27.2401 36.2192L31.2532 33.9517L31.2774 33.3482C30.9836 33.15 30.6421 33.0451 30.2899 33.0451H30.2896Z" fill="#FFD67E"/>
<path d="M29.6562 31.3666L31.2887 31.4203L27.0637 35.91L29.6562 31.3666ZM29.6681 31.0111L29.3459 31.1907L26.7534 35.7341L27.3243 36.1528L31.5494 31.663L31.3007 31.0647L29.6681 31.0111Z" fill="#FFD67E"/>
<rect x="30.9189" y="76.5719" width="22.6759" height="22.6759" transform="rotate(45 30.9189 76.5719)" fill="#090A0C" stroke="#FFEF99" stroke-width="1.63741" stroke-dasharray="1.64 3.27"/>
<rect x="30.9189" y="130.578" width="22.6759" height="22.6759" transform="rotate(45 30.9189 130.578)" fill="#090A0C" stroke="#FFEF99" stroke-width="1.63741" stroke-dasharray="1.64 3.27"/>
</svg>
