<svg width="62" height="194" viewBox="0 0 62 194" fill="none" xmlns="http://www.w3.org/2000/svg">
<path d="M30.5635 47.49L25.8367 52.2167L30.5634 56.9436L35.2903 52.2168L30.5635 47.49ZM30.5619 193.207L35.2888 185.02L25.8352 185.02L30.5619 193.207ZM29.7448 52.2168L29.7448 53.0271L31.3822 53.0271L31.3822 52.2168L29.7448 52.2168ZM29.7447 56.2682L29.7447 57.8888L31.3821 57.8888L31.3821 56.2683L29.7447 56.2682ZM29.7447 61.13L29.7447 62.7506L31.3821 62.7506L31.3821 61.13L29.7447 61.13ZM29.7446 65.9917L29.7446 67.6123L31.382 67.6123L31.382 65.9917L29.7446 65.9917ZM29.7446 70.8535L29.7446 72.474L31.382 72.4741L31.382 70.8535L29.7446 70.8535ZM29.7445 75.7152L29.7445 77.3358L31.3819 77.3358L31.3819 75.7152L29.7445 75.7152ZM29.7445 80.5769L29.7444 82.1975L31.3819 82.1975L31.3819 80.577L29.7445 80.5769ZM29.7444 85.4387L29.7444 87.0593L31.3818 87.0593L31.3818 85.4387L29.7444 85.4387ZM29.7444 90.3004L29.7443 91.921L31.3818 91.921L31.3818 90.3004L29.7444 90.3004ZM29.7443 95.1622L29.7443 96.7827L31.3817 96.7828L31.3817 95.1622L29.7443 95.1622ZM29.7443 100.024L29.7442 101.644L31.3816 101.644L31.3817 100.024L29.7443 100.024ZM29.7442 104.886L29.7442 106.506L31.3816 106.506L31.3816 104.886L29.7442 104.886ZM29.7441 109.747L29.7441 111.368L31.3815 111.368L31.3816 109.747L29.7441 109.747ZM29.7441 114.609L29.7441 116.23L31.3815 116.23L31.3815 114.609L29.7441 114.609ZM29.744 119.471L29.744 121.091L31.3814 121.091L31.3815 119.471L29.744 119.471ZM29.744 124.333L29.744 125.953L31.3814 125.953L31.3814 124.333L29.744 124.333ZM29.7439 129.194L29.7439 130.815L31.3813 130.815L31.3813 129.194L29.7439 129.194ZM29.7439 134.056L29.7439 135.677L31.3813 135.677L31.3813 134.056L29.7439 134.056ZM29.7438 138.918L29.7438 140.538L31.3812 140.538L31.3812 138.918L29.7438 138.918ZM29.7438 143.78L29.7438 145.4L31.3812 145.4L31.3812 143.78L29.7438 143.78ZM29.7437 148.641L29.7437 150.262L31.3811 150.262L31.3811 148.641L29.7437 148.641ZM29.7437 153.503L29.7437 155.124L31.3811 155.124L31.3811 153.503L29.7437 153.503ZM29.7436 158.365L29.7436 159.985L31.381 159.985L31.381 158.365L29.7436 158.365ZM29.7436 163.227L29.7436 164.847L31.381 164.847L31.381 163.227L29.7436 163.227ZM29.7435 168.088L29.7435 169.709L31.3809 169.709L31.3809 168.088L29.7435 168.088ZM29.7435 172.95L29.7434 174.571L31.3809 174.571L31.3809 172.95L29.7435 172.95ZM29.7434 177.812L29.7434 179.432L31.3808 179.432L31.3808 177.812L29.7434 177.812ZM29.7434 182.673L29.7433 184.294L31.3807 184.294L31.3808 182.674L29.7434 182.673ZM29.7433 187.535L29.7433 189.156L31.3807 189.156L31.3807 187.535L29.7433 187.535Z" fill="#FFD67E"/>
<rect y="1.15714" width="41.1751" height="41.1751" transform="matrix(0.707523 0.706691 -0.707523 0.706691 31.6214 0.802291)" fill="#090A0C" stroke="#FFD67E" stroke-width="1.63741" stroke-dasharray="1.64 3.27"/>
<path d="M44.915 30.5L16.8591 30.5" stroke="#FFD67E" stroke-width="0.818704" stroke-miterlimit="10"/>
<path d="M30.8838 16.168L30.8838 45.5781" stroke="#FFD67E" stroke-width="0.818704" stroke-miterlimit="10"/>
<path d="M20.4795 40.6309L40.8731 20.0994" stroke="#FFD67E" stroke-width="0.818704" stroke-miterlimit="10"/>
<path d="M41.4304 40.6338L20.4023 20.0723" stroke="#FFD67E" stroke-width="0.818704" stroke-miterlimit="10"/>
<rect x="29.2861" y="14.9395" width="2.28926" height="2.28926" transform="rotate(-45 29.2861 14.9395)" fill="#FFD67E"/>
<rect x="42.0635" y="30.4922" width="2.28926" height="2.28926" transform="rotate(-45 42.0635 30.4922)" fill="#FFD67E"/>
<rect x="40.2812" y="18.5938" width="2.28926" height="2.28926" fill="#FFD67E"/>
<rect x="18.9463" y="18.6074" width="2.28926" height="2.28926" fill="#FFD67E"/>
<rect x="40.2812" y="39.5254" width="2.28926" height="2.28926" fill="#FFD67E"/>
<rect x="18.9463" y="39.4883" width="2.28926" height="2.28926" fill="#FFD67E"/>
<rect x="16.4697" y="30.4922" width="2.28926" height="2.28926" transform="rotate(-45 16.4697 30.4922)" fill="#FFD67E"/>
<rect x="29.2861" y="46.7012" width="2.28926" height="2.28926" transform="rotate(-45 29.2861 46.7012)" fill="#FFD67E"/>
<mask id="path-15-outside-1_595_5154" maskUnits="userSpaceOnUse" x="18.0069" y="17.4333" width="26.2322" height="26.2322" fill="black">
<rect fill="white" x="18.0069" y="17.4333" width="26.2322" height="26.2322"/>
<path d="M41.2952 28.8855C42.1696 34.5643 38.2748 39.8766 32.5961 40.751C26.9173 41.6253 21.605 37.7306 20.7306 32.0518C19.8563 26.3731 23.751 21.0607 29.4298 20.1864C35.1085 19.312 40.4209 23.2067 41.2952 28.8855Z"/>
</mask>
<path d="M41.2952 28.8855C42.1696 34.5643 38.2748 39.8766 32.5961 40.751C26.9173 41.6253 21.605 37.7306 20.7306 32.0518C19.8563 26.3731 23.751 21.0607 29.4298 20.1864C35.1085 19.312 40.4209 23.2067 41.2952 28.8855Z" fill="#090A0C"/>
<path d="M41.6998 28.8232C41.6563 28.541 41.6023 28.2629 41.5382 27.9893L40.7411 28.1762C40.8004 28.4292 40.8504 28.6865 40.8906 28.9478L41.6998 28.8232ZM41.0225 26.3728C40.8065 25.8435 40.5505 25.3373 40.2588 24.8572L39.5591 25.2822C39.8285 25.7257 40.065 26.1934 40.2646 26.6822L41.0225 26.3728ZM39.2662 23.4807C38.8989 23.0477 38.4989 22.6452 38.0707 22.2766L37.5366 22.8971C37.9326 23.238 38.3024 23.6101 38.6419 24.0103L39.2662 23.4807ZM36.7025 21.2736C36.2222 20.976 35.718 20.7156 35.1946 20.4956L34.8773 21.2503C35.3611 21.4537 35.8272 21.6945 36.2714 21.9696L36.7025 21.2736ZM33.5833 19.963C33.0377 19.8293 32.4779 19.7374 31.9081 19.6906L31.841 20.5065C32.3673 20.5498 32.8844 20.6346 33.3884 20.7582L33.5833 19.963ZM30.2113 19.6851C29.9312 19.7062 29.6497 19.7383 29.3675 19.7818L29.4921 20.591C29.7534 20.5507 30.0138 20.521 30.2729 20.5015L30.2113 19.6851ZM29.3675 19.7818C29.0852 19.8252 28.8072 19.8793 28.5336 19.9434L28.7205 20.7405C28.9735 20.6812 29.2308 20.6312 29.4921 20.591L29.3675 19.7818ZM26.917 20.4591C26.3878 20.6751 25.8815 20.9311 25.4014 21.2227L25.8265 21.9225C26.27 21.6531 26.7376 21.4166 27.2265 21.217L26.917 20.4591ZM24.0249 22.2154C23.5919 22.5827 23.1895 22.9827 22.8209 23.4109L23.4414 23.945C23.7822 23.549 24.1543 23.1792 24.5545 22.8397L24.0249 22.2154ZM21.8178 24.7791C21.5203 25.2594 21.2599 25.7636 21.0398 26.287L21.7946 26.6043C21.9979 26.1204 22.2387 25.6544 22.5138 25.2102L21.8178 24.7791ZM20.5072 27.8983C20.3735 28.4439 20.2817 29.0037 20.2348 29.5735L21.0508 29.6406C21.0941 29.1143 21.1789 28.5972 21.3024 28.0932L20.5072 27.8983ZM20.2293 31.2703C20.2505 31.5504 20.2826 31.8319 20.326 32.1141L21.1352 31.9895C21.095 31.7282 21.0653 31.4678 21.0457 31.2087L20.2293 31.2703ZM20.326 32.1141C20.3695 32.3964 20.4235 32.6744 20.4877 32.948L21.2847 32.7611C21.2254 32.5081 21.1754 32.2508 21.1352 31.9895L20.326 32.1141ZM21.0033 34.5645C21.2194 35.0938 21.4754 35.6 21.767 36.0802L22.4667 35.6551C22.1973 35.2116 21.9609 34.744 21.7613 34.2551L21.0033 34.5645ZM22.7596 37.4567C23.1269 37.8897 23.5269 38.2921 23.9552 38.6607L24.4893 38.0402C24.0933 37.6993 23.7235 37.3273 23.384 36.9271L22.7596 37.4567ZM25.3234 39.6638C25.8037 39.9613 26.3078 40.2217 26.8312 40.4418L27.1485 39.687C26.6647 39.4836 26.1986 39.2429 25.7545 38.9678L25.3234 39.6638ZM28.4426 40.9743C28.9882 41.1081 29.548 41.1999 30.1177 41.2468L30.1848 40.4308C29.6586 40.3875 29.1415 40.3027 28.6375 40.1792L28.4426 40.9743ZM31.8145 41.2523C32.0947 41.2311 32.3761 41.199 32.6584 41.1555L32.5338 40.3464C32.2725 40.3866 32.0121 40.4163 31.753 40.4359L31.8145 41.2523ZM32.6584 41.1555C32.9406 41.1121 33.2187 41.0581 33.4923 40.9939L33.3054 40.1968C33.0524 40.2562 32.7951 40.3061 32.5338 40.3464L32.6584 41.1555ZM35.1088 40.4783C35.6381 40.2622 36.1443 40.0062 36.6244 39.7146L36.1994 39.0149C35.7559 39.2843 35.2882 39.5207 34.7993 39.7203L35.1088 40.4783ZM38.0009 38.722C38.4339 38.3547 38.8363 37.9547 39.2049 37.5264L38.5844 36.9923C38.2436 37.3883 37.8715 37.7581 37.4713 38.0976L38.0009 38.722ZM40.208 36.1582C40.5055 35.6779 40.766 35.1738 40.986 34.6503L40.2313 34.3331C40.0279 34.8169 39.7871 35.283 39.512 35.7271L40.208 36.1582ZM41.5186 33.039C41.6523 32.4934 41.7441 31.9336 41.791 31.3639L40.9751 31.2967C40.9318 31.823 40.8469 32.3401 40.7234 32.8441L41.5186 33.039ZM41.7965 29.6671C41.7754 29.3869 41.7433 29.1054 41.6998 28.8232L40.8906 28.9478C40.9309 29.2091 40.9606 29.4695 40.9801 29.7286L41.7965 29.6671ZM42.1044 28.7609C42.0593 28.4682 42.0033 28.1797 41.9367 27.8959L40.3426 28.2697C40.3995 28.5124 40.4474 28.7593 40.4861 29.0101L42.1044 28.7609ZM41.4015 26.2181C41.1772 25.6686 40.9115 25.1431 40.6087 24.6447L39.2093 25.4947C39.4675 25.92 39.6942 26.3683 39.8856 26.837L41.4015 26.2181ZM39.5784 23.2159C39.1972 22.7665 38.7821 22.3489 38.3377 21.9664L37.2695 23.2074C37.6494 23.5344 38.0041 23.8912 38.3297 24.2751L39.5784 23.2159ZM36.918 20.9255C36.4196 20.6168 35.8965 20.3466 35.3532 20.1182L34.7187 21.6277C35.1827 21.8227 35.6298 22.0537 36.0558 22.3176L36.918 20.9255ZM33.6807 19.5654C33.1143 19.4266 32.5331 19.3313 31.9417 19.2826L31.8074 20.9145C32.312 20.956 32.8077 21.0373 33.291 21.1558L33.6807 19.5654ZM30.1806 19.2769C29.8898 19.2988 29.5979 19.3321 29.3052 19.3772L29.5543 20.9955C29.8052 20.9569 30.0551 20.9284 30.3036 20.9097L30.1806 19.2769ZM29.3052 19.3772C29.0125 19.4223 28.724 19.4783 28.4401 19.5449L28.8139 21.139C29.0566 21.0821 29.3035 21.0342 29.5543 20.9955L29.3052 19.3772ZM26.7623 20.0801C26.2129 20.3044 25.6873 20.5701 25.1889 20.8729L26.039 22.2723C26.4642 22.014 26.9125 21.7874 27.3812 21.596L26.7623 20.0801ZM23.7601 21.9032C23.3107 22.2844 22.8931 22.6995 22.5107 23.1439L23.7516 24.212C24.0786 23.8322 24.4355 23.4775 24.8193 23.1519L23.7601 21.9032ZM21.4698 24.5636C21.1611 25.062 20.8908 25.5851 20.6625 26.1284L22.1719 26.7629C22.367 26.2989 22.5979 25.8518 22.8618 25.4257L21.4698 24.5636ZM20.1097 27.8009C19.9709 28.3673 19.8755 28.9484 19.8269 29.5399L21.4588 29.6741C21.5003 29.1696 21.5816 28.6739 21.7 28.1906L20.1097 27.8009ZM19.8211 31.301C19.8431 31.5917 19.8764 31.8837 19.9215 32.1764L21.5398 31.9272C21.5012 31.6764 21.4727 31.4265 21.4539 31.1779L19.8211 31.301ZM19.9215 32.1764C19.9665 32.4691 20.0226 32.7576 20.0891 33.0414L21.6833 32.6677C21.6264 32.425 21.5784 32.1781 21.5398 31.9272L19.9215 32.1764ZM20.6243 34.7193C20.8486 35.2687 21.1144 35.7943 21.4171 36.2927L22.8166 35.4426C22.5583 35.0174 22.3316 34.5691 22.1403 34.1004L20.6243 34.7193ZM22.4475 37.7215C22.8287 38.1708 23.2438 38.5885 23.6881 38.9709L24.7563 37.7299C24.3764 37.403 24.0217 37.0461 23.6961 36.6623L22.4475 37.7215ZM25.1078 40.0118C25.6062 40.3205 26.1294 40.5908 26.6726 40.8191L27.3072 39.3097C26.8431 39.1146 26.3961 38.8837 25.97 38.6198L25.1078 40.0118ZM28.3451 41.3719C28.9115 41.5107 29.4927 41.6061 30.0842 41.6547L30.2184 40.0228C29.7138 39.9813 29.2181 39.9 28.7349 39.7816L28.3451 41.3719ZM31.8453 41.6604C32.136 41.6385 32.428 41.6052 32.7207 41.5601L32.4715 39.9418C32.2207 39.9804 31.9708 40.0089 31.7222 40.0277L31.8453 41.6604ZM32.7207 41.5601C33.0134 41.5151 33.3018 41.459 33.5857 41.3925L33.2119 39.7983C32.9692 39.8552 32.7223 39.9032 32.4715 39.9418L32.7207 41.5601ZM35.2635 40.8573C35.813 40.6329 36.3385 40.3672 36.8369 40.0644L35.9869 38.665C35.5616 38.9233 35.1133 39.15 34.6446 39.3413L35.2635 40.8573ZM38.2657 39.0341C38.7151 38.6529 39.1327 38.2378 39.5152 37.7935L38.2742 36.7253C37.9472 37.1051 37.5903 37.4599 37.2065 37.7855L38.2657 39.0341ZM40.556 36.3738C40.8648 35.8754 41.135 35.3522 41.3634 34.809L39.8539 34.1744C39.6589 34.6384 39.4279 35.0855 39.164 35.5116L40.556 36.3738ZM41.9162 33.1364C42.055 32.57 42.1503 31.9889 42.199 31.3974L40.5671 31.2632C40.5256 31.7677 40.4443 32.2635 40.3258 32.7467L41.9162 33.1364ZM42.2047 29.6363C42.1828 29.3456 42.1495 29.0536 42.1044 28.7609L40.4861 29.0101C40.5247 29.2609 40.5532 29.5108 40.5719 29.7594L42.2047 29.6363Z" fill="#FFD67E" mask="url(#path-15-outside-1_595_5154)"/>
<mask id="path-17-outside-2_595_5154" maskUnits="userSpaceOnUse" x="22.3701" y="21.8398" width="18" height="18" fill="black">
<rect fill="white" x="22.3701" y="21.8398" width="18" height="18"/>
<path d="M38.633 30.4713C38.633 34.686 35.2163 38.1027 31.0015 38.1027C26.7868 38.1027 23.3701 34.686 23.3701 30.4713C23.3701 26.2566 26.7868 22.8398 31.0015 22.8398C35.2163 22.8398 38.633 26.2566 38.633 30.4713Z"/>
</mask>
<path d="M38.633 30.4713C38.633 34.686 35.2163 38.1027 31.0015 38.1027C26.7868 38.1027 23.3701 34.686 23.3701 30.4713C23.3701 26.2566 26.7868 22.8398 31.0015 22.8398C35.2163 22.8398 38.633 26.2566 38.633 30.4713Z" fill="#090A0C"/>
<path d="M37.8143 30.4713C37.8143 34.2338 34.7641 37.284 31.0015 37.284V38.9214C35.6684 38.9214 39.4517 35.1381 39.4517 30.4713H37.8143ZM31.0015 37.284C27.239 37.284 24.1888 34.2338 24.1888 30.4713H22.5514C22.5514 35.1381 26.3347 38.9214 31.0015 38.9214V37.284ZM24.1888 30.4713C24.1888 26.7087 27.239 23.6585 31.0015 23.6585V22.0211C26.3347 22.0211 22.5514 25.8044 22.5514 30.4713H24.1888ZM31.0015 23.6585C34.7641 23.6585 37.8143 26.7087 37.8143 30.4713H39.4517C39.4517 25.8044 35.6684 22.0211 31.0015 22.0211V23.6585Z" fill="#FFD67E" mask="url(#path-17-outside-2_595_5154)"/>
<path d="M30.2189 28.751L30.5393 28.3239L26.457 26.0059L27.8745 28.5027L30.2189 28.751Z" fill="#FFD67E"/>
<path d="M35.5505 26.0059L33.0536 27.4236L32.8053 29.7678L33.2325 30.0884L35.5505 26.0059Z" fill="#FFD67E"/>
<path d="M26.457 35.0993L28.9536 33.6818L29.2022 31.3374L28.775 31.017L26.457 35.0993Z" fill="#FFD67E"/>
<path d="M31.7886 32.3542L31.4682 32.7813L35.5505 35.0993L34.133 32.6027L31.7886 32.3542Z" fill="#FFD67E"/>
<path d="M31.7969 30.2072L32.0397 27.9177L30.6581 29.7594L28.3688 29.5169L30.2106 30.8982L29.9678 33.1875L31.3494 31.346L33.6387 31.5886L31.7969 30.2072Z" fill="#FFD67E"/>
<rect x="30.5605" y="76.3238" width="22.6759" height="22.6759" transform="rotate(45 30.5605 76.3238)" fill="#090A0C" stroke="#FFEF99" stroke-width="1.63741" stroke-dasharray="1.64 3.27"/>
<rect x="30.5918" y="127.81" width="22.6759" height="22.6759" transform="rotate(45 30.5918 127.81)" fill="#090A0C" stroke="#FFEF99" stroke-width="1.63741" stroke-dasharray="1.64 3.27"/>
</svg>
