<svg width="62" height="327" viewBox="0 0 62 327" fill="none" xmlns="http://www.w3.org/2000/svg">
<path d="M30.9736 47.5291L26.2468 52.2559L30.9736 56.9827L35.7004 52.2559L30.9736 47.5291ZM30.9736 358.238L35.7004 350.051L26.2468 350.051L30.9736 358.238ZM30.1549 52.2559L30.1549 53.0784L31.7923 53.0784L31.7923 52.2559L30.1549 52.2559ZM30.1549 56.3685L30.1549 58.0136L31.7923 58.0136L31.7923 56.3685L30.1549 56.3685ZM30.1549 61.3037L30.1549 62.9488L31.7923 62.9488L31.7923 61.3037L30.1549 61.3037ZM30.1549 66.2389L30.1549 67.884L31.7923 67.884L31.7923 66.2389L30.1549 66.2389ZM30.1549 71.1741L30.1549 72.8192L31.7923 72.8192L31.7923 71.1741L30.1549 71.1741ZM30.1549 76.1093L30.1549 77.7544L31.7923 77.7544L31.7923 76.1093L30.1549 76.1093ZM30.1549 81.0445L30.1549 82.6896L31.7923 82.6896L31.7923 81.0445L30.1549 81.0445ZM30.1549 85.9797L30.1549 87.6248L31.7923 87.6248L31.7923 85.9797L30.1549 85.9797ZM30.1549 90.9149L30.1549 92.56L31.7923 92.56L31.7923 90.9149L30.1549 90.9149ZM30.1549 95.8501L30.1549 97.4952L31.7923 97.4952L31.7923 95.8501L30.1549 95.8501ZM30.1549 100.785L30.1549 102.43L31.7923 102.43L31.7923 100.785L30.1549 100.785ZM30.1549 105.72L30.1549 107.366L31.7923 107.366L31.7923 105.72L30.1549 105.72ZM30.1549 110.656L30.1549 112.301L31.7923 112.301L31.7923 110.656L30.1549 110.656ZM30.1549 115.591L30.1549 117.236L31.7923 117.236L31.7923 115.591L30.1549 115.591ZM30.1549 120.526L30.1549 122.171L31.7923 122.171L31.7923 120.526L30.1549 120.526ZM30.1549 125.461L30.1549 127.106L31.7923 127.106L31.7923 125.461L30.1549 125.461ZM30.1549 130.396L30.1549 132.042L31.7923 132.042L31.7923 130.396L30.1549 130.396ZM30.1549 135.332L30.1549 136.977L31.7923 136.977L31.7923 135.332L30.1549 135.332ZM30.1549 140.267L30.1549 141.912L31.7923 141.912L31.7923 140.267L30.1549 140.267ZM30.1549 145.202L30.1549 146.847L31.7923 146.847L31.7923 145.202L30.1549 145.202ZM30.1549 150.137L30.1549 151.782H31.7923L31.7923 150.137L30.1549 150.137ZM30.1549 155.072L30.1549 156.717H31.7923L31.7923 155.072L30.1549 155.072ZM30.1549 160.008L30.1549 161.653L31.7923 161.653L31.7923 160.008L30.1549 160.008ZM30.1549 164.943L30.1549 166.588H31.7923L31.7923 164.943L30.1549 164.943ZM30.1549 169.878L30.1549 171.523H31.7923L31.7923 169.878L30.1549 169.878ZM30.1549 174.813L30.1549 176.458L31.7923 176.458L31.7923 174.813L30.1549 174.813ZM30.1549 179.748L30.1549 181.393L31.7923 181.393L31.7923 179.748L30.1549 179.748ZM30.1549 184.684L30.1549 186.329L31.7923 186.329L31.7923 184.684L30.1549 184.684ZM30.1549 189.619L30.1549 191.264L31.7923 191.264L31.7923 189.619L30.1549 189.619ZM30.1549 194.554L30.1549 196.199L31.7923 196.199L31.7923 194.554L30.1549 194.554ZM30.1549 199.489L30.1549 201.134L31.7923 201.134L31.7923 199.489L30.1549 199.489ZM30.1549 204.424L30.1549 206.069L31.7923 206.069L31.7923 204.424L30.1549 204.424ZM30.1549 209.36L30.1549 211.005L31.7923 211.005L31.7923 209.36L30.1549 209.36ZM30.1549 214.295L30.1549 215.94L31.7923 215.94L31.7923 214.295L30.1549 214.295ZM30.1549 219.23L30.1549 220.875L31.7923 220.875L31.7923 219.23L30.1549 219.23ZM30.1549 224.165L30.1549 225.81L31.7923 225.81L31.7923 224.165L30.1549 224.165ZM30.1549 229.1L30.1549 230.745L31.7923 230.745L31.7923 229.1L30.1549 229.1ZM30.1549 234.036L30.1549 235.681L31.7923 235.681L31.7923 234.036L30.1549 234.036ZM30.1549 238.971L30.1549 240.616L31.7923 240.616L31.7923 238.971L30.1549 238.971ZM30.1549 243.906L30.1549 245.551L31.7923 245.551L31.7923 243.906L30.1549 243.906ZM30.1549 248.841L30.1549 250.486L31.7923 250.486L31.7923 248.841L30.1549 248.841ZM30.1549 253.776L30.1549 255.421L31.7923 255.421L31.7923 253.776L30.1549 253.776ZM30.1549 258.712L30.1549 260.357L31.7923 260.357L31.7923 258.712L30.1549 258.712ZM30.1549 263.647L30.1549 265.292L31.7923 265.292L31.7923 263.647L30.1549 263.647ZM30.1549 268.582L30.1549 270.227L31.7923 270.227L31.7923 268.582L30.1549 268.582ZM30.1549 273.517L30.1549 275.162L31.7923 275.162L31.7923 273.517L30.1549 273.517ZM30.1549 278.452L30.1549 280.097L31.7923 280.097L31.7923 278.452L30.1549 278.452ZM30.1549 283.388L30.1549 285.033L31.7923 285.033L31.7923 283.388L30.1549 283.388ZM30.1549 288.323L30.1549 289.968L31.7923 289.968L31.7923 288.323L30.1549 288.323ZM30.1549 293.258L30.1549 294.903L31.7923 294.903L31.7923 293.258L30.1549 293.258ZM30.1549 298.193L30.1549 299.838L31.7923 299.838L31.7923 298.193L30.1549 298.193ZM30.1549 303.128L30.1549 304.773L31.7923 304.773L31.7923 303.128L30.1549 303.128ZM30.1549 308.063L30.1549 309.709L31.7923 309.709L31.7923 308.063L30.1549 308.063ZM30.1549 312.999L30.1549 314.644L31.7923 314.644L31.7923 312.999L30.1549 312.999ZM30.1549 317.934L30.1549 319.579L31.7923 319.579L31.7923 317.934L30.1549 317.934ZM30.1549 322.869L30.1549 324.514L31.7923 324.514L31.7923 322.869L30.1549 322.869ZM30.1549 327.804L30.1549 329.449L31.7923 329.449L31.7923 327.804L30.1549 327.804ZM30.1549 332.739L30.1549 334.384L31.7923 334.384L31.7923 332.739L30.1549 332.739ZM30.1549 337.675L30.1549 339.32L31.7923 339.32L31.7923 337.675L30.1549 337.675ZM30.1549 342.61L30.1549 344.255L31.7923 344.255L31.7923 342.61L30.1549 342.61ZM30.1549 347.545L30.1549 349.19L31.7923 349.19L31.7923 347.545L30.1549 347.545ZM30.1549 352.48L30.1549 354.125L31.7923 354.125L31.7923 352.48L30.1549 352.48Z" fill="#FFD67E"/>
<rect y="1.15714" width="41.1751" height="41.1751" transform="matrix(0.707523 0.706691 -0.707523 0.706691 32.0316 0.841353)" fill="#090A0C" stroke="#FFD67E" stroke-width="1.63741" stroke-dasharray="1.64 3.27"/>
<rect x="29.2664" y="12.2715" width="2.42735" height="2.42735" transform="rotate(-45 29.2664 12.2715)" fill="#FFEF99" stroke="#FFD67E" stroke-width="0.818704"/>
<rect x="46.5682" y="30.3789" width="2.42735" height="2.42735" transform="rotate(-45 46.5682 30.3789)" fill="#FFEF99" stroke="#FFD67E" stroke-width="0.818704"/>
<rect x="11.949" y="30.3789" width="2.42735" height="2.42735" transform="rotate(-45 11.949 30.3789)" fill="#FFEF99" stroke="#FFD67E" stroke-width="0.818704"/>
<rect x="29.2664" y="48.7578" width="2.42735" height="2.42735" transform="rotate(-45 29.2664 48.7578)" fill="#FFEF99" stroke="#FFD67E" stroke-width="0.818704"/>
<path d="M19.543 18.9838L25.6951 25.1113" stroke="#FFD67E" stroke-width="0.818704" stroke-miterlimit="10"/>
<path d="M25.6951 35.6537L19.543 41.7812" stroke="#FFD67E" stroke-width="0.818704" stroke-miterlimit="10"/>
<path d="M15.9639 24.3644L24.0352 27.5996" stroke="#FFD67E" stroke-width="0.818704" stroke-miterlimit="10"/>
<path d="M28.1847 37.2949L24.9365 45.334" stroke="#FFD67E" stroke-width="0.818704" stroke-miterlimit="10"/>
<path d="M24.6406 15.5534L28.0512 23.5254" stroke="#FFD67E" stroke-width="0.818704" stroke-miterlimit="10"/>
<path d="M24.0928 33.3003L16.0889 36.6973" stroke="#FFD67E" stroke-width="0.818704" stroke-miterlimit="10"/>
<path d="M15.1426 27.0629L23.6562 28.8477" stroke="#FFD67E" stroke-width="0.818704" stroke-miterlimit="10"/>
<path d="M29.4352 37.6727L27.6436 46.1523" stroke="#FFD67E" stroke-width="0.818704" stroke-miterlimit="10"/>
<path d="M22.1445 16.8825L26.8977 24.1406" stroke="#FFD67E" stroke-width="0.818704" stroke-miterlimit="10"/>
<path d="M24.7117 34.4552L17.4248 39.1895" stroke="#FFD67E" stroke-width="0.818704" stroke-miterlimit="10"/>
<path d="M17.5254 21.4111L24.7547 26.2324" stroke="#FFD67E" stroke-width="0.818704" stroke-miterlimit="10"/>
<path d="M26.8104 36.575L21.9697 43.7754" stroke="#FFD67E" stroke-width="0.818704" stroke-miterlimit="10"/>
<path d="M27.8457 14.5715L29.5346 23.0723" stroke="#FFD67E" stroke-width="0.818704" stroke-miterlimit="10"/>
<path d="M23.6423 31.8254L15.1074 33.5078" stroke="#FFD67E" stroke-width="0.818704" stroke-miterlimit="10"/>
<path d="M49.0156 30.3809L12.8634 30.3809" stroke="#FFD67E" stroke-width="0.818704" stroke-miterlimit="10"/>
<path d="M42.4268 18.9838L36.2747 25.1113" stroke="#FFD67E" stroke-width="0.818704" stroke-miterlimit="10"/>
<path d="M36.2747 35.6518L42.4268 41.7793" stroke="#FFD67E" stroke-width="0.818704" stroke-miterlimit="10"/>
<path d="M45.9893 24.3644L37.9179 27.5996" stroke="#FFD67E" stroke-width="0.818704" stroke-miterlimit="10"/>
<path d="M33.7645 37.2949L37.0127 45.334" stroke="#FFD67E" stroke-width="0.818704" stroke-miterlimit="10"/>
<path d="M37.3203 15.5534L33.9097 23.5254" stroke="#FFD67E" stroke-width="0.818704" stroke-miterlimit="10"/>
<path d="M37.8574 33.3003L45.8613 36.6973" stroke="#FFD67E" stroke-width="0.818704" stroke-miterlimit="10"/>
<path d="M46.8115 27.0609L38.2979 28.8457" stroke="#FFD67E" stroke-width="0.818704" stroke-miterlimit="10"/>
<path d="M32.5228 37.6746L34.3145 46.1543" stroke="#FFD67E" stroke-width="0.818704" stroke-miterlimit="10"/>
<path d="M39.8213 16.8845L35.0681 24.1426" stroke="#FFD67E" stroke-width="0.818704" stroke-miterlimit="10"/>
<path d="M37.2463 34.4533L44.5332 39.1875" stroke="#FFD67E" stroke-width="0.818704" stroke-miterlimit="10"/>
<path d="M44.4238 21.413L37.1946 26.2344" stroke="#FFD67E" stroke-width="0.818704" stroke-miterlimit="10"/>
<path d="M35.1515 36.577L39.9922 43.7773" stroke="#FFD67E" stroke-width="0.818704" stroke-miterlimit="10"/>
<path d="M34.1152 14.5715L32.4264 23.0723" stroke="#FFD67E" stroke-width="0.818704" stroke-miterlimit="10"/>
<path d="M38.3197 31.8293L46.8545 33.5117" stroke="#FFD67E" stroke-width="0.818704" stroke-miterlimit="10"/>
<path d="M30.9375 11.9133L30.9375 49.8105" stroke="#FFD67E" stroke-width="0.818704" stroke-miterlimit="10"/>
<mask id="path-37-outside-1_595_5152" maskUnits="userSpaceOnUse" x="19.2988" y="18.5293" width="24" height="24" fill="black">
<rect fill="white" x="19.2988" y="18.5293" width="24" height="24"/>
<path d="M41.9405 30.3501C41.9405 36.3263 37.0958 41.1709 31.1197 41.1709C25.1435 41.1709 20.2988 36.3263 20.2988 30.3501C20.2988 24.3739 25.1435 19.5293 31.1197 19.5293C37.0958 19.5293 41.9405 24.3739 41.9405 30.3501Z"/>
</mask>
<path d="M41.9405 30.3501C41.9405 36.3263 37.0958 41.1709 31.1197 41.1709C25.1435 41.1709 20.2988 36.3263 20.2988 30.3501C20.2988 24.3739 25.1435 19.5293 31.1197 19.5293C37.0958 19.5293 41.9405 24.3739 41.9405 30.3501Z" fill="#090A0C"/>
<path d="M41.1218 30.3501C41.1218 35.8741 36.6437 40.3522 31.1197 40.3522V41.9897C37.548 41.9897 42.7592 36.7785 42.7592 30.3501H41.1218ZM31.1197 40.3522C25.5956 40.3522 21.1175 35.8741 21.1175 30.3501H19.4801C19.4801 36.7785 24.6913 41.9897 31.1197 41.9897V40.3522ZM21.1175 30.3501C21.1175 24.8261 25.5956 20.348 31.1197 20.348V18.7106C24.6913 18.7106 19.4801 23.9218 19.4801 30.3501H21.1175ZM31.1197 20.348C36.6437 20.348 41.1218 24.8261 41.1218 30.3501H42.7592C42.7592 23.9218 37.548 18.7106 31.1197 18.7106V20.348Z" fill="#FFD67E" mask="url(#path-37-outside-1_595_5152)"/>
<path d="M33.7861 28.7611C33.2955 29.7884 33.5862 31.108 34.6597 31.7871L36.0915 32.6926L39.1573 32.8302L33.7861 28.7607V28.7611Z" fill="#FFD67E"/>
<path d="M31.1384 29.1721L33.2227 28.0896L32.3707 21.0291L30.9073 23.7854L31.1384 29.1721Z" fill="#FFD67E"/>
<path d="M30.5867 25.4432L30.6547 23.859L29.1741 21.0176L28.3129 27.7148C29.4836 27.6599 30.5315 26.7365 30.5867 25.4436V25.4432Z" fill="#FFD67E"/>
<path d="M31.1384 30.3979L31.0349 32.808L37.548 35.5797L35.806 32.8219L31.1384 30.3979Z" fill="#FFD67E"/>
<path d="M30.0713 29.7848L28.0274 28.4922L22.2959 32.7662L25.5497 32.6448L30.0713 29.7848Z" fill="#FFD67E"/>
<path d="M27.1014 32.1249L25.5529 32.9289L23.8832 35.5268L30.1853 32.9027C29.5407 31.9534 28.2365 31.5349 27.1014 32.1245V32.1249Z" fill="#FFD67E"/>
<rect x="30.9707" y="76.3649" width="22.6759" height="22.6759" transform="rotate(45 30.9707 76.3649)" fill="#090A0C" stroke="#FFEF99" stroke-width="1.63741" stroke-dasharray="1.64 3.27"/>
<rect x="31.002" y="130.304" width="22.6759" height="22.6759" transform="rotate(45 31.002 130.304)" fill="#090A0C" stroke="#FFEF99" stroke-width="1.63741" stroke-dasharray="1.64 3.27"/>
<rect x="31.002" y="185.976" width="22.6759" height="22.6759" transform="rotate(45 31.002 185.976)" fill="#090A0C" stroke="#FFEF99" stroke-width="1.63741" stroke-dasharray="1.64 3.27"/>
<rect x="31.002" y="269.484" width="22.6759" height="22.6759" transform="rotate(45 31.002 269.484)" fill="#090A0C" stroke="#FFEF99" stroke-width="1.63741" stroke-dasharray="1.64 3.27"/>
</svg>
