<svg width="1300" height="254" viewBox="0 0 1300 254" fill="none" xmlns="http://www.w3.org/2000/svg">
<g opacity="0.5">
<mask id="mask0_590_5148" style="mask-type:alpha" maskUnits="userSpaceOnUse" x="531" y="0" width="769" height="271">
<rect x="531.694" y="0.919922" width="767.414" height="269.558" fill="#D9D9D9"/>
</mask>
<g mask="url(#mask0_590_5148)">
<path d="M36.5465 86.9414L43.6367 94.0316L50.7269 86.9414L43.6367 79.8512L36.5465 86.9414ZM1262.09 86.9414L1249.81 79.8512V94.0316L1262.09 86.9414ZM43.6367 88.1695H44.9906V85.7133H43.6367V88.1695ZM50.4059 88.1695H53.1136V85.7133H50.4059V88.1695ZM58.5289 88.1695H61.2366V85.7133H58.5289V88.1695ZM66.652 88.1695H69.3596V85.7133H66.652V88.1695ZM74.775 88.1695H77.4827V85.7133H74.775V88.1695ZM82.898 88.1695H85.6057V85.7133H82.898V88.1695ZM91.0211 88.1695H93.7287V85.7133H91.0211V88.1695ZM99.1441 88.1695H101.852V85.7133H99.1441V88.1695ZM107.267 88.1695H109.975V85.7133H107.267V88.1695ZM115.39 88.1695H118.098V85.7133H115.39V88.1695ZM123.513 88.1695H126.221V85.7133H123.513V88.1695ZM131.636 88.1695H134.344V85.7133H131.636V88.1695ZM139.759 88.1695H142.467V85.7133H139.759V88.1695ZM147.882 88.1695H150.59V85.7133H147.882V88.1695ZM156.005 88.1695H158.713V85.7133H156.005V88.1695ZM164.128 88.1695H166.836V85.7133H164.128V88.1695ZM172.251 88.1695H174.959V85.7133H172.251V88.1695ZM180.374 88.1695H183.082V85.7133H180.374V88.1695ZM188.497 88.1695H191.205V85.7133H188.497V88.1695ZM196.62 88.1695H199.328V85.7133H196.62V88.1695ZM204.744 88.1695H207.451V85.7133H204.744V88.1695ZM212.867 88.1695H215.574V85.7133H212.867V88.1695ZM220.99 88.1695H223.697V85.7133H220.99V88.1695ZM229.113 88.1695H231.82V85.7133H229.113V88.1695ZM237.236 88.1695H239.943V85.7133H237.236V88.1695ZM245.359 88.1695H248.066V85.7133H245.359V88.1695ZM253.482 88.1695H256.189V85.7133H253.482V88.1695ZM261.605 88.1695H264.312V85.7133H261.605V88.1695ZM269.728 88.1695H272.435V85.7133H269.728V88.1695ZM277.851 88.1695H280.558V85.7133H277.851V88.1695ZM285.974 88.1695H288.681V85.7133H285.974V88.1695ZM294.097 88.1695H296.805V85.7133H294.097V88.1695ZM302.22 88.1695H304.928V85.7133H302.22V88.1695ZM310.343 88.1695H313.051V85.7133H310.343V88.1695ZM318.466 88.1695H321.174V85.7133H318.466V88.1695ZM326.589 88.1695H329.297V85.7133H326.589V88.1695ZM334.712 88.1695H337.42V85.7133H334.712V88.1695ZM342.835 88.1695H345.543V85.7133H342.835V88.1695ZM350.958 88.1695H353.666V85.7133H350.958V88.1695ZM359.081 88.1695H361.789V85.7133H359.081V88.1695ZM367.204 88.1695H369.912V85.7133H367.204V88.1695ZM375.327 88.1695H378.035V85.7133H375.327V88.1695ZM383.45 88.1695H386.158V85.7133H383.45V88.1695ZM391.573 88.1695H394.281V85.7133H391.573V88.1695ZM399.696 88.1695H402.404V85.7133H399.696V88.1695ZM407.819 88.1695H410.527V85.7133H407.819V88.1695ZM415.942 88.1695H418.65V85.7133H415.942V88.1695ZM424.065 88.1695H426.773V85.7133H424.065V88.1695ZM432.188 88.1695H434.896V85.7133H432.188V88.1695ZM440.311 88.1695H443.019V85.7133H440.311V88.1695ZM448.434 88.1695H451.142V85.7133H448.434V88.1695ZM456.557 88.1695H459.265V85.7133H456.557V88.1695ZM464.68 88.1695H467.388V85.7133H464.68V88.1695ZM472.803 88.1695H475.511V85.7133H472.803V88.1695ZM480.926 88.1695H483.634V85.7133H480.926V88.1695ZM489.049 88.1695H491.757V85.7133H489.049V88.1695ZM497.172 88.1695H499.88V85.7133H497.172V88.1695ZM505.295 88.1695H508.003V85.7133H505.295V88.1695ZM513.418 88.1695H516.126V85.7133H513.418V88.1695ZM521.541 88.1695H524.249V85.7133H521.541V88.1695ZM529.664 88.1695H532.372V85.7133H529.664V88.1695ZM537.787 88.1695H540.495V85.7133H537.787V88.1695ZM545.91 88.1695H548.618V85.7133H545.91V88.1695ZM554.033 88.1695H556.741V85.7133H554.033V88.1695ZM562.156 88.1695H564.864V85.7133H562.156V88.1695ZM570.279 88.1695H572.987V85.7133H570.279V88.1695ZM578.403 88.1695H581.11V85.7133H578.403V88.1695ZM586.526 88.1695H589.233V85.7133H586.526V88.1695ZM594.649 88.1695H597.356V85.7133H594.649V88.1695ZM602.772 88.1695H605.479V85.7133H602.772V88.1695ZM610.895 88.1695H613.602V85.7133H610.895V88.1695ZM619.018 88.1695H621.725V85.7133H619.018V88.1695ZM627.141 88.1695H629.849V85.7133H627.141V88.1695ZM635.264 88.1695H637.972V85.7133H635.264V88.1695ZM643.387 88.1695H646.095V85.7133H643.387V88.1695ZM651.51 88.1695H654.218V85.7133H651.51V88.1695ZM659.633 88.1695H662.341V85.7133H659.633V88.1695ZM667.756 88.1695H670.464V85.7133H667.756V88.1695ZM675.879 88.1695H678.587V85.7133H675.879V88.1695ZM684.002 88.1695H686.71V85.7133H684.002V88.1695ZM692.125 88.1695H694.833V85.7133H692.125V88.1695ZM700.248 88.1695H702.956V85.7133H700.248V88.1695ZM708.371 88.1695H711.079V85.7133H708.371V88.1695ZM716.494 88.1695H719.202V85.7133H716.494V88.1695ZM724.617 88.1695H727.325V85.7133H724.617V88.1695ZM732.74 88.1695H735.448V85.7133H732.74V88.1695ZM740.863 88.1695H743.571V85.7133H740.863V88.1695ZM748.986 88.1695H751.694V85.7133H748.986V88.1695ZM757.11 88.1695H759.817V85.7133H757.11V88.1695ZM765.233 88.1695H767.94V85.7133H765.233V88.1695ZM773.356 88.1695H776.063V85.7133H773.356V88.1695ZM781.479 88.1695H784.186V85.7133H781.479V88.1695ZM789.602 88.1695H792.309V85.7133H789.602V88.1695ZM797.725 88.1695H800.433V85.7133H797.725V88.1695ZM805.848 88.1695H808.556V85.7133H805.848V88.1695ZM813.971 88.1695H816.679V85.7133H813.971V88.1695ZM822.094 88.1695H824.802V85.7133H822.094V88.1695ZM830.217 88.1695H832.925V85.7133H830.217V88.1695ZM838.34 88.1695H841.048V85.7133H838.34V88.1695ZM846.463 88.1695H849.171V85.7133H846.463V88.1695ZM854.586 88.1695H857.294V85.7133H854.586V88.1695ZM862.709 88.1695H865.417V85.7133H862.709V88.1695ZM870.832 88.1695H873.54V85.7133H870.832V88.1695ZM878.955 88.1695H881.663V85.7133H878.955V88.1695ZM887.078 88.1695H889.786V85.7133H887.078V88.1695ZM895.201 88.1695H897.909V85.7133H895.201V88.1695ZM903.324 88.1695H906.032V85.7133H903.324V88.1695ZM911.447 88.1695H914.155V85.7133H911.447V88.1695ZM919.57 88.1695H922.278V85.7133H919.57V88.1695ZM927.694 88.1695H930.401V85.7133H927.694V88.1695ZM935.817 88.1695H938.524V85.7133H935.817V88.1695ZM943.94 88.1695H946.647V85.7133H943.94V88.1695ZM952.063 88.1695H954.77V85.7133H952.063V88.1695ZM960.186 88.1695H962.893V85.7133H960.186V88.1695ZM968.309 88.1695H971.016V85.7133H968.309V88.1695ZM976.432 88.1695H979.14V85.7133H976.432V88.1695ZM984.555 88.1695H987.263V85.7133H984.555V88.1695ZM992.678 88.1695H995.386V85.7133H992.678V88.1695ZM1000.8 88.1695H1003.51V85.7133H1000.8V88.1695ZM1008.92 88.1695H1011.63V85.7133H1008.92V88.1695ZM1017.05 88.1695H1019.75V85.7133H1017.05V88.1695ZM1025.17 88.1695H1027.88V85.7133H1025.17V88.1695ZM1033.29 88.1695H1036V85.7133H1033.29V88.1695ZM1041.42 88.1695H1044.12V85.7133H1041.42V88.1695ZM1049.54 88.1695H1052.25V85.7133H1049.54V88.1695ZM1057.66 88.1695H1060.37V85.7133H1057.66V88.1695ZM1065.79 88.1695H1068.49V85.7133H1065.79V88.1695ZM1073.91 88.1695H1076.62V85.7133H1073.91V88.1695ZM1082.03 88.1695H1084.74V85.7133H1082.03V88.1695ZM1090.15 88.1695H1092.86V85.7133H1090.15V88.1695ZM1098.28 88.1695H1100.99V85.7133H1098.28V88.1695ZM1106.4 88.1695H1109.11V85.7133H1106.4V88.1695ZM1114.52 88.1695H1117.23V85.7133H1114.52V88.1695ZM1122.65 88.1695H1125.35V85.7133H1122.65V88.1695ZM1130.77 88.1695H1133.48V85.7133H1130.77V88.1695ZM1138.89 88.1695H1141.6V85.7133H1138.89V88.1695ZM1147.02 88.1695H1149.72V85.7133H1147.02V88.1695ZM1155.14 88.1695H1157.85V85.7133H1155.14V88.1695ZM1163.26 88.1695H1165.97V85.7133H1163.26V88.1695ZM1171.39 88.1695H1174.09V85.7133H1171.39V88.1695ZM1179.51 88.1695H1182.22V85.7133H1179.51V88.1695ZM1187.63 88.1695H1190.34V85.7133H1187.63V88.1695ZM1195.75 88.1695H1198.46V85.7133H1195.75V88.1695ZM1203.88 88.1695H1206.58V85.7133H1203.88V88.1695ZM1212 88.1695H1214.71V85.7133H1212V88.1695ZM1220.12 88.1695H1222.83V85.7133H1220.12V88.1695ZM1228.25 88.1695H1230.95V85.7133H1228.25V88.1695ZM1236.37 88.1695H1239.08V85.7133H1236.37V88.1695ZM1244.49 88.1695H1247.2V85.7133H1244.49V88.1695ZM1252.62 88.1695H1255.32V85.7133H1252.62V88.1695Z" fill="#FFD67E"/>
<rect x="701.451" y="79.0922" width="11.0998" height="11.0998" transform="rotate(45 701.451 79.0922)" fill="#FFD67E" stroke="#FFD67E" stroke-width="2.45611" stroke-dasharray="2.71 5.42"/>
<rect x="605.588" y="79.0922" width="11.0998" height="11.0998" transform="rotate(45 605.588 79.0922)" fill="#FFD67E" stroke="#FFD67E" stroke-width="2.45611" stroke-dasharray="2.71 5.42"/>
<rect x="653.52" y="50.2875" width="51.7685" height="51.7685" transform="rotate(45 653.52 50.2875)" fill="#090A0C" stroke="#FFD67E" stroke-width="2.45611" stroke-dasharray="2.71 5.42"/>
<rect x="652.286" y="69.4277" width="2.1639" height="2.1639" transform="rotate(-45 652.286 69.4277)" fill="#FFEF99" stroke="#FFD67E" stroke-width="1.08216"/>
<rect x="669.587" y="87.5352" width="2.1639" height="2.1639" transform="rotate(-45 669.587 87.5352)" fill="#FFEF99" stroke="#FFD67E" stroke-width="1.08216"/>
<rect x="634.968" y="87.5352" width="2.1639" height="2.1639" transform="rotate(-45 634.968 87.5352)" fill="#FFEF99" stroke="#FFD67E" stroke-width="1.08216"/>
<rect x="652.286" y="105.912" width="2.1639" height="2.1639" transform="rotate(-45 652.286 105.912)" fill="#FFEF99" stroke="#FFD67E" stroke-width="1.08216"/>
<path d="M642.371 76.1381L648.523 82.2656" stroke="#FFD67E" stroke-width="1.08216" stroke-miterlimit="10"/>
<path d="M648.523 92.8061L642.371 98.9336" stroke="#FFD67E" stroke-width="1.08216" stroke-miterlimit="10"/>
<path d="M638.8 81.5206L646.871 84.7559" stroke="#FFD67E" stroke-width="1.08216" stroke-miterlimit="10"/>
<path d="M651.021 94.4492L647.772 102.488" stroke="#FFD67E" stroke-width="1.08216" stroke-miterlimit="10"/>
<path d="M647.469 72.7058L650.879 80.6777" stroke="#FFD67E" stroke-width="1.08216" stroke-miterlimit="10"/>
<path d="M646.924 90.4565L638.92 93.8535" stroke="#FFD67E" stroke-width="1.08216" stroke-miterlimit="10"/>
<path d="M637.974 84.2172L646.488 86.002" stroke="#FFD67E" stroke-width="1.08216" stroke-miterlimit="10"/>
<path d="M652.259 94.827L650.467 103.307" stroke="#FFD67E" stroke-width="1.08216" stroke-miterlimit="10"/>
<path d="M644.968 74.0349L649.721 81.293" stroke="#FFD67E" stroke-width="1.08216" stroke-miterlimit="10"/>
<path d="M647.543 91.6115L640.256 96.3457" stroke="#FFD67E" stroke-width="1.08216" stroke-miterlimit="10"/>
<path d="M640.361 78.5673L647.591 83.3887" stroke="#FFD67E" stroke-width="1.08216" stroke-miterlimit="10"/>
<path d="M649.638 93.7293L644.797 100.93" stroke="#FFD67E" stroke-width="1.08216" stroke-miterlimit="10"/>
<path d="M650.674 71.7258L652.363 80.2266" stroke="#FFD67E" stroke-width="1.08216" stroke-miterlimit="10"/>
<path d="M646.47 88.9817L637.935 90.6641" stroke="#FFD67E" stroke-width="1.08216" stroke-miterlimit="10"/>
<path d="M671.851 87.5371L635.699 87.5371" stroke="#FFD67E" stroke-width="1.08216" stroke-miterlimit="10"/>
<path d="M665.262 76.14L659.11 82.2676" stroke="#FFD67E" stroke-width="1.08216" stroke-miterlimit="10"/>
<path d="M659.11 92.81L665.262 98.9375" stroke="#FFD67E" stroke-width="1.08216" stroke-miterlimit="10"/>
<path d="M668.821 81.5206L660.75 84.7559" stroke="#FFD67E" stroke-width="1.08216" stroke-miterlimit="10"/>
<path d="M656.604 94.455L659.853 102.494" stroke="#FFD67E" stroke-width="1.08216" stroke-miterlimit="10"/>
<path d="M660.156 72.7097L656.746 80.6816" stroke="#FFD67E" stroke-width="1.08216" stroke-miterlimit="10"/>
<path d="M660.697 90.4585L668.701 93.8555" stroke="#FFD67E" stroke-width="1.08216" stroke-miterlimit="10"/>
<path d="M669.647 84.2172L661.133 86.002" stroke="#FFD67E" stroke-width="1.08216" stroke-miterlimit="10"/>
<path d="M655.35 94.8309L657.142 103.311" stroke="#FFD67E" stroke-width="1.08216" stroke-miterlimit="10"/>
<path d="M662.656 74.0388L657.903 81.2969" stroke="#FFD67E" stroke-width="1.08216" stroke-miterlimit="10"/>
<path d="M660.078 91.6095L667.365 96.3438" stroke="#FFD67E" stroke-width="1.08216" stroke-miterlimit="10"/>
<path d="M667.26 78.5693L660.031 83.3906" stroke="#FFD67E" stroke-width="1.08216" stroke-miterlimit="10"/>
<path d="M657.979 93.7332L662.82 100.934" stroke="#FFD67E" stroke-width="1.08216" stroke-miterlimit="10"/>
<path d="M656.947 71.7278L655.258 80.2285" stroke="#FFD67E" stroke-width="1.08216" stroke-miterlimit="10"/>
<path d="M661.151 88.9856L669.686 90.668" stroke="#FFD67E" stroke-width="1.08216" stroke-miterlimit="10"/>
<path d="M653.77 69.0695L653.77 106.967" stroke="#FFD67E" stroke-width="1.08216" stroke-miterlimit="10"/>
<mask id="path-40-outside-1_590_5148" maskUnits="userSpaceOnUse" x="641.127" y="74.6816" width="25" height="25" fill="black">
<rect fill="white" x="641.127" y="74.6816" width="25" height="25"/>
<path d="M664.769 87.5025C664.769 93.4786 659.924 98.3233 653.948 98.3233C647.972 98.3233 643.127 93.4786 643.127 87.5025C643.127 81.5263 647.972 76.6816 653.948 76.6816C659.924 76.6816 664.769 81.5263 664.769 87.5025Z"/>
</mask>
<path d="M664.769 87.5025C664.769 93.4786 659.924 98.3233 653.948 98.3233C647.972 98.3233 643.127 93.4786 643.127 87.5025C643.127 81.5263 647.972 76.6816 653.948 76.6816C659.924 76.6816 664.769 81.5263 664.769 87.5025Z" fill="#090A0C"/>
<path d="M663.686 87.5025C663.686 92.881 659.326 97.2411 653.948 97.2411V99.4054C660.522 99.4054 665.851 94.0763 665.851 87.5025H663.686ZM653.948 97.2411C648.569 97.2411 644.209 92.881 644.209 87.5025H642.045C642.045 94.0763 647.374 99.4054 653.948 99.4054V97.2411ZM644.209 87.5025C644.209 82.1239 648.569 77.7638 653.948 77.7638V75.5995C647.374 75.5995 642.045 80.9286 642.045 87.5025H644.209ZM653.948 77.7638C659.326 77.7638 663.686 82.1239 663.686 87.5025H665.851C665.851 80.9286 660.522 75.5995 653.948 75.5995V77.7638Z" fill="#FFD67E" mask="url(#path-40-outside-1_590_5148)"/>
<path d="M656.62 85.9174C656.129 86.9446 656.42 88.2643 657.494 88.9434L658.925 89.8488L661.991 89.9865L656.62 85.917V85.9174Z" fill="#FFD67E"/>
<path d="M653.972 86.3283L656.057 85.2458L655.205 78.1854L653.741 80.9416L653.972 86.3283Z" fill="#FFD67E"/>
<path d="M653.421 82.5994L653.489 81.0152L652.008 78.1738L651.147 84.8711C652.318 84.8162 653.365 83.8928 653.421 82.5998V82.5994Z" fill="#FFD67E"/>
<path d="M653.972 87.5541L653.869 89.9642L660.382 92.736L658.64 89.9781L653.972 87.5541Z" fill="#FFD67E"/>
<path d="M652.905 86.941L650.861 85.6484L645.13 89.9224L648.384 89.8011L652.905 86.941Z" fill="#FFD67E"/>
<path d="M649.935 89.2811L648.387 90.0852L646.717 92.6831L653.019 90.0589C652.375 89.1097 651.07 88.6911 649.935 89.2807V89.2811Z" fill="#FFD67E"/>
<rect x="925.386" y="79.0922" width="11.0998" height="11.0998" transform="rotate(45 925.386 79.0922)" fill="#FFD67E" stroke="#FFD67E" stroke-width="2.45611" stroke-dasharray="2.71 5.42"/>
<rect x="829.524" y="79.0922" width="11.0998" height="11.0998" transform="rotate(45 829.524 79.0922)" fill="#FFD67E" stroke="#FFD67E" stroke-width="2.45611" stroke-dasharray="2.71 5.42"/>
<rect x="877.455" y="50.2875" width="51.7685" height="51.7685" transform="rotate(45 877.455 50.2875)" fill="#090A0C" stroke="#FFD67E" stroke-width="2.45611" stroke-dasharray="2.71 5.42"/>
<rect x="874.77" y="69.416" width="3.27823" height="3.27823" transform="rotate(-45 874.77 69.416)" fill="#FFD67E"/>
<rect x="892.243" y="87.7012" width="3.27823" height="3.27823" transform="rotate(-45 892.243 87.7012)" fill="#FFD67E"/>
<rect x="889.279" y="72.0293" width="3.27823" height="3.27823" fill="#FFD67E"/>
<rect x="861.052" y="72.0293" width="3.27823" height="3.27823" fill="#FFD67E"/>
<rect x="889.279" y="99.3477" width="3.27823" height="3.27823" fill="#FFD67E"/>
<rect x="861.052" y="99.3477" width="3.27823" height="3.27823" fill="#FFD67E"/>
<rect x="857.285" y="87.7012" width="3.27823" height="3.27823" transform="rotate(-45 857.285 87.7012)" fill="#FFD67E"/>
<rect x="874.77" y="106.262" width="3.27823" height="3.27823" transform="rotate(-45 874.77 106.262)" fill="#FFD67E"/>
<mask id="path-54-outside-2_590_5148" maskUnits="userSpaceOnUse" x="861.17" y="71.6255" width="31.716" height="31.716" fill="black">
<rect fill="white" x="861.17" y="71.6255" width="31.716" height="31.716"/>
<path d="M890.915 87.352C891.092 94.9124 885.106 101.185 877.546 101.361C869.985 101.538 863.713 95.5524 863.536 87.992C863.36 80.4316 869.345 74.1595 876.906 73.9827C884.466 73.806 890.738 79.7916 890.915 87.352Z"/>
</mask>
<path d="M890.915 87.352C891.092 94.9124 885.106 101.185 877.546 101.361C869.985 101.538 863.713 95.5524 863.536 87.992C863.36 80.4316 869.345 74.1595 876.906 73.9827C884.466 73.806 890.738 79.7916 890.915 87.352Z" fill="#090A0C"/>
<path d="M891.461 87.3392C891.452 86.9633 891.429 86.591 891.392 86.2228L890.305 86.3329C890.339 86.673 890.361 87.0171 890.369 87.3648L891.461 87.3392ZM890.993 84.0242C890.801 83.2963 890.553 82.5917 890.253 81.9151L889.254 82.3572C889.53 82.9815 889.759 83.6316 889.937 84.3032L890.993 84.0242ZM889.191 79.9489C888.785 79.321 888.331 78.7275 887.834 78.1734L887.021 78.9028C887.479 79.4146 887.898 79.9627 888.273 80.5424L889.191 79.9489ZM886.218 76.631C885.641 76.1608 885.027 75.7351 884.381 75.3588L883.831 76.3032C884.428 76.6506 884.995 77.0438 885.528 77.478L886.218 76.631ZM882.367 74.3895C881.678 74.1221 880.962 73.9071 880.226 73.7491L879.997 74.8176C880.676 74.9634 881.336 75.1618 881.973 75.4085L882.367 74.3895ZM878.011 73.4535C877.642 73.4335 877.269 73.4276 876.893 73.4364L876.918 74.529C877.266 74.5209 877.611 74.5263 877.952 74.5448L878.011 73.4535ZM876.893 73.4364C876.517 73.4452 876.145 73.4685 875.776 73.5058L875.887 74.5931C876.227 74.5587 876.571 74.5371 876.918 74.529L876.893 73.4364ZM873.578 73.9045C872.85 74.0967 872.145 74.345 871.469 74.6442L871.911 75.6437C872.535 75.3676 873.185 75.1385 873.857 74.9611L873.578 73.9045ZM869.502 75.7066C868.875 76.1127 868.281 76.5667 867.727 77.0632L868.456 77.8771C868.968 77.4184 869.516 76.9992 870.096 76.6243L869.502 75.7066ZM866.185 78.6795C865.714 79.2562 865.289 79.8703 864.912 80.5165L865.857 81.0664C866.204 80.4699 866.597 79.9028 867.032 79.3701L866.185 78.6795ZM863.943 82.5302C863.676 83.22 863.461 83.9354 863.303 84.6715L864.371 84.9009C864.517 84.2217 864.715 83.5616 864.962 82.9251L863.943 82.5302ZM863.007 86.8864C862.987 87.2559 862.981 87.6289 862.99 88.0048L864.083 87.9793C864.074 87.6316 864.08 87.2869 864.098 86.9455L863.007 86.8864ZM862.99 88.0048C862.999 88.3808 863.022 88.7531 863.059 89.1212L864.147 89.0111C864.112 88.6711 864.091 88.327 864.083 87.9793L862.99 88.0048ZM863.458 91.3199C863.65 92.0478 863.899 92.7524 864.198 93.4289L865.197 92.9868C864.921 92.3625 864.692 91.7124 864.515 91.0408L863.458 91.3199ZM865.26 95.3952C865.666 96.023 866.12 96.6166 866.617 97.1707L867.431 96.4413C866.972 95.9295 866.553 95.3814 866.178 94.8017L865.26 95.3952ZM868.233 98.7131C868.81 99.1832 869.424 99.609 870.07 99.9853L870.62 99.0409C870.023 98.6935 869.456 98.3003 868.924 97.866L868.233 98.7131ZM872.084 100.955C872.774 101.222 873.489 101.437 874.225 101.595L874.454 100.526C873.775 100.381 873.115 100.182 872.479 99.9356L872.084 100.955ZM876.44 101.891C876.809 101.911 877.182 101.916 877.558 101.908L877.533 100.815C877.185 100.823 876.84 100.818 876.499 100.799L876.44 101.891ZM877.558 101.908C877.934 101.899 878.307 101.876 878.675 101.838L878.565 100.751C878.225 100.785 877.881 100.807 877.533 100.815L877.558 101.908ZM880.874 101.44C881.601 101.247 882.306 100.999 882.983 100.7L882.54 99.7004C881.916 99.9765 881.266 100.206 880.594 100.383L880.874 101.44ZM884.949 99.6375C885.577 99.2314 886.17 98.7774 886.724 98.2808L885.995 97.4669C885.483 97.9256 884.935 98.3449 884.355 98.7198L884.949 99.6375ZM888.267 96.6646C888.737 96.0878 889.163 95.4738 889.539 94.8276L888.594 94.2776C888.247 94.8742 887.854 95.4413 887.42 95.974L888.267 96.6646ZM890.508 92.8139C890.776 92.1241 890.991 91.4086 891.149 90.6726L890.08 90.4432C889.934 91.1223 889.736 91.7824 889.489 92.4189L890.508 92.8139ZM891.444 88.4577C891.464 88.0882 891.47 87.7152 891.461 87.3392L890.369 87.3648C890.377 87.7125 890.371 88.0572 890.353 88.3985L891.444 88.4577ZM892.008 87.3265C891.998 86.9364 891.974 86.55 891.936 86.1678L889.761 86.388C889.794 86.714 889.815 87.044 889.822 87.3776L892.008 87.3265ZM891.522 83.8846C891.322 83.1286 891.064 82.3968 890.753 81.6941L888.754 82.5783C889.019 83.1764 889.238 83.7993 889.408 84.4428L891.522 83.8846ZM889.65 79.6521C889.228 79.0002 888.757 78.384 888.241 77.8087L886.614 79.2675C887.053 79.7581 887.455 80.2835 887.815 80.8392L889.65 79.6521ZM886.563 76.2074C885.965 75.7193 885.327 75.2773 884.656 74.8866L883.556 76.7754C884.128 77.1084 884.672 77.4853 885.182 77.9016L886.563 76.2074ZM882.565 73.8799C881.848 73.6023 881.105 73.3789 880.341 73.2148L879.882 75.3519C880.533 75.4916 881.165 75.6817 881.775 75.918L882.565 73.8799ZM878.041 72.9079C877.657 72.8871 877.27 72.881 876.88 72.8901L876.931 75.0753C877.265 75.0675 877.595 75.0727 877.923 75.0905L878.041 72.9079ZM876.88 72.8901C876.49 72.8992 876.104 72.9234 875.721 72.9621L875.942 75.1368C876.268 75.1038 876.598 75.0831 876.931 75.0753L876.88 72.8901ZM873.438 73.3761C872.682 73.5758 871.95 73.8337 871.248 74.1445L872.132 76.1434C872.73 75.8789 873.353 75.6594 873.996 75.4895L873.438 73.3761ZM869.206 75.2478C868.554 75.6694 867.938 76.1408 867.362 76.6563L868.821 78.2841C869.312 77.8443 869.837 77.4425 870.393 77.0831L869.206 75.2478ZM865.761 78.3342C865.273 78.933 864.831 79.5705 864.44 80.2415L866.329 81.3414C866.662 80.7696 867.039 80.226 867.455 79.7153L865.761 78.3342ZM863.434 82.3327C863.156 83.0492 862.933 83.7923 862.768 84.5568L864.905 85.0156C865.045 84.3649 865.235 83.7324 865.472 83.1226L863.434 82.3327ZM862.462 86.8568C862.441 87.2404 862.435 87.6275 862.444 88.0176L864.629 87.9665C864.621 87.633 864.626 87.3023 864.644 86.9751L862.462 86.8568ZM862.444 88.0176C862.453 88.4077 862.477 88.7941 862.516 89.1763L864.69 88.9561C864.657 88.6301 864.637 88.3001 864.629 87.9665L862.444 88.0176ZM862.93 91.4594C863.129 92.2155 863.387 92.9473 863.698 93.65L865.697 92.7658C865.432 92.1676 865.213 91.5448 865.043 90.9013L862.93 91.4594ZM864.801 95.6919C865.223 96.3439 865.694 96.9601 866.21 97.5354L867.838 96.0766C867.398 95.5859 866.996 95.0605 866.637 94.5049L864.801 95.6919ZM867.888 99.1366C868.487 99.6247 869.124 100.067 869.795 100.457L870.895 98.5687C870.323 98.2357 869.78 97.8588 869.269 97.4425L867.888 99.1366ZM871.886 101.464C872.603 101.742 873.346 101.965 874.11 102.129L874.569 99.9922C873.918 99.8525 873.286 99.6624 872.676 99.4261L871.886 101.464ZM876.41 102.436C876.794 102.457 877.181 102.463 877.571 102.454L877.52 100.269C877.187 100.277 876.856 100.271 876.529 100.254L876.41 102.436ZM877.571 102.454C877.961 102.445 878.348 102.421 878.73 102.382L878.51 100.207C878.184 100.24 877.854 100.261 877.52 100.269L877.571 102.454ZM881.013 101.968C881.769 101.768 882.501 101.51 883.204 101.2L882.319 99.2006C881.721 99.4652 881.098 99.6847 880.455 99.8546L881.013 101.968ZM885.246 100.096C885.897 99.6747 886.514 99.2033 887.089 98.6878L885.63 97.06C885.14 97.4997 884.614 97.9016 884.059 98.2609L885.246 100.096ZM888.69 97.0098C889.178 96.4111 889.62 95.7735 890.011 95.1026L888.122 94.0026C887.789 94.5744 887.412 95.118 886.996 95.6287L888.69 97.0098ZM891.018 93.0113C891.295 92.2949 891.519 91.5518 891.683 90.7873L889.546 90.3285C889.406 90.9792 889.216 91.6116 888.98 92.2215L891.018 93.0113ZM891.99 88.4873C892.011 88.1037 892.017 87.7166 892.008 87.3265L889.822 87.3776C889.83 87.7111 889.825 88.0417 889.807 88.3689L891.99 88.4873Z" fill="#FFD67E" mask="url(#path-54-outside-2_590_5148)"/>
<mask id="path-56-outside-3_590_5148" maskUnits="userSpaceOnUse" x="864.304" y="74.7441" width="25" height="25" fill="black">
<rect fill="white" x="864.304" y="74.7441" width="25" height="25"/>
<path d="M888.16 87.6722C888.16 93.7077 883.267 98.6003 877.232 98.6003C871.196 98.6003 866.304 93.7077 866.304 87.6722C866.304 81.6368 871.196 76.7441 877.232 76.7441C883.267 76.7441 888.16 81.6368 888.16 87.6722Z"/>
</mask>
<path d="M888.16 87.6722C888.16 93.7077 883.267 98.6003 877.232 98.6003C871.196 98.6003 866.304 93.7077 866.304 87.6722C866.304 81.6368 871.196 76.7441 877.232 76.7441C883.267 76.7441 888.16 81.6368 888.16 87.6722Z" fill="#090A0C"/>
<path d="M887.067 87.6722C887.067 93.1041 882.664 97.5074 877.232 97.5074V99.6932C883.871 99.6932 889.253 94.3112 889.253 87.6722H887.067ZM877.232 97.5074C871.8 97.5074 867.397 93.1041 867.397 87.6722H865.211C865.211 94.3112 870.593 99.6932 877.232 99.6932V97.5074ZM867.397 87.6722C867.397 82.2404 871.8 77.837 877.232 77.837V75.6513C870.593 75.6513 865.211 81.0332 865.211 87.6722H867.397ZM877.232 77.837C882.664 77.837 887.067 82.2404 887.067 87.6722H889.253C889.253 81.0332 883.871 75.6513 877.232 75.6513V77.837Z" fill="#FFD67E" mask="url(#path-56-outside-3_590_5148)"/>
<path d="M880.17 83.7272C878.394 85.1909 875.831 85.1915 874.057 83.729L871.061 81.2591L873.531 84.255C874.993 86.0297 874.993 88.5926 873.529 90.3682L871.061 93.362L874.054 90.8939C875.83 89.4302 878.393 89.4296 880.168 90.8921L883.164 93.362L880.694 90.3661C879.231 88.5914 879.231 86.0285 880.696 84.2529L883.164 81.2591L880.17 83.7272Z" fill="#FFD67E"/>
<rect x="1149.32" y="79.0922" width="11.0998" height="11.0998" transform="rotate(45 1149.32 79.0922)" fill="#FFD67E" stroke="#FFD67E" stroke-width="2.45611" stroke-dasharray="2.71 5.42"/>
<rect x="1053.46" y="79.0922" width="11.0998" height="11.0998" transform="rotate(45 1053.46 79.0922)" fill="#FFD67E" stroke="#FFD67E" stroke-width="2.45611" stroke-dasharray="2.71 5.42"/>
<rect x="1101.39" y="50.2875" width="51.7685" height="51.7685" transform="rotate(45 1101.39 50.2875)" fill="#090A0C" stroke="#FFD67E" stroke-width="2.45611" stroke-dasharray="2.71 5.42"/>
<path d="M1120.32 87.7031L1082.71 87.7031" stroke="#FFD67E" stroke-width="1.02303" stroke-miterlimit="10"/>
<path d="M1101.51 68.4944L1101.51 107.918" stroke="#FFD67E" stroke-width="1.02303" stroke-miterlimit="10"/>
<path d="M1087.57 101.285L1114.91 73.7633" stroke="#FFD67E" stroke-width="1.02303" stroke-miterlimit="10"/>
<path d="M1115.64 101.289L1087.45 73.7266" stroke="#FFD67E" stroke-width="1.02303" stroke-miterlimit="10"/>
<rect x="1099.38" y="66.8438" width="3.06869" height="3.06869" transform="rotate(-45 1099.38 66.8438)" fill="#FFD67E"/>
<rect x="1116.5" y="87.6934" width="3.06869" height="3.06869" transform="rotate(-45 1116.5 87.6934)" fill="#FFD67E"/>
<rect x="1114.11" y="71.7422" width="3.06869" height="3.06869" fill="#FFD67E"/>
<rect x="1085.52" y="71.7617" width="3.06869" height="3.06869" fill="#FFD67E"/>
<rect x="1114.11" y="99.8008" width="3.06869" height="3.06869" fill="#FFD67E"/>
<rect x="1085.52" y="99.75" width="3.06869" height="3.06869" fill="#FFD67E"/>
<rect x="1082.19" y="87.6934" width="3.06869" height="3.06869" transform="rotate(-45 1082.19 87.6934)" fill="#FFD67E"/>
<rect x="1099.38" y="109.42" width="3.06869" height="3.06869" transform="rotate(-45 1099.38 109.42)" fill="#FFD67E"/>
<mask id="path-74-outside-4_590_5148" maskUnits="userSpaceOnUse" x="1083.47" y="69.6141" width="35.3564" height="35.3564" fill="black">
<rect fill="white" x="1083.47" y="69.6141" width="35.3564" height="35.3564"/>
<path d="M1115.44 85.543C1116.61 93.1554 1111.39 100.277 1103.78 101.449C1096.17 102.621 1089.05 97.3999 1087.87 89.7875C1086.7 82.175 1091.92 75.0537 1099.54 73.8817C1107.15 72.7096 1114.27 77.9305 1115.44 85.543Z"/>
</mask>
<path d="M1115.44 85.543C1116.61 93.1554 1111.39 100.277 1103.78 101.449C1096.17 102.621 1089.05 97.3999 1087.87 89.7875C1086.7 82.175 1091.92 75.0537 1099.54 73.8817C1107.15 72.7096 1114.27 77.9305 1115.44 85.543Z" fill="#090A0C"/>
<path d="M1114.94 85.6208C1114.99 85.972 1115.03 86.3221 1115.06 86.6704L1116.08 86.5935C1116.05 86.2188 1116 85.8425 1115.95 85.4651L1114.94 85.6208ZM1115.05 88.7783C1114.99 89.4858 1114.88 90.1809 1114.71 90.8584L1115.7 91.1019C1115.88 90.3724 1116.01 89.624 1116.07 88.8622L1115.05 88.7783ZM1114.05 92.8599C1113.78 93.5103 1113.45 94.1368 1113.08 94.7339L1113.95 95.2726C1114.35 94.6303 1114.7 93.9562 1114.99 93.2564L1114.05 92.8599ZM1111.84 96.4346C1111.38 96.9668 1110.88 97.464 1110.34 97.9203L1111 98.7005C1111.58 98.2094 1112.12 97.6745 1112.61 97.102L1111.84 96.4346ZM1108.63 99.1533C1108.03 99.5155 1107.4 99.8333 1106.75 100.102L1107.13 101.049C1107.84 100.76 1108.52 100.418 1109.16 100.028L1108.63 99.1533ZM1104.74 100.742C1104.4 100.822 1104.05 100.889 1103.7 100.943L1103.86 101.954C1104.23 101.896 1104.61 101.824 1104.97 101.738L1104.74 100.742ZM1103.7 100.943C1103.35 100.997 1103 101.037 1102.65 101.063L1102.73 102.084C1103.1 102.055 1103.48 102.012 1103.86 101.954L1103.7 100.943ZM1100.54 101.057C1099.84 100.999 1099.14 100.884 1098.46 100.718L1098.22 101.712C1098.95 101.891 1099.7 102.014 1100.46 102.076L1100.54 101.057ZM1096.46 100.057C1095.81 99.7835 1095.19 99.4598 1094.59 99.09L1094.05 99.9597C1094.69 100.358 1095.37 100.706 1096.07 101L1096.46 100.057ZM1092.89 97.8432C1092.36 97.385 1091.86 96.8849 1091.4 96.3469L1090.62 97.0086C1091.11 97.5876 1091.65 98.1257 1092.22 98.6185L1092.89 97.8432ZM1090.17 94.6371C1089.81 94.0408 1089.49 93.4122 1089.22 92.755L1088.27 93.1417C1088.56 93.8494 1088.9 94.5262 1089.29 95.1682L1090.17 94.6371ZM1088.58 90.7468C1088.5 90.4067 1088.43 90.0609 1088.38 89.7096L1087.37 89.8653C1087.43 90.2427 1087.5 90.6145 1087.58 90.9803L1088.58 90.7468ZM1088.38 89.7096C1088.33 89.3584 1088.29 89.0083 1088.26 88.6601L1087.24 88.737C1087.27 89.1116 1087.31 89.4879 1087.37 89.8653L1088.38 89.7096ZM1088.27 86.5521C1088.32 85.8446 1088.44 85.1495 1088.6 84.472L1087.61 84.2285C1087.43 84.958 1087.31 85.7065 1087.25 86.4682L1088.27 86.5521ZM1089.27 82.4705C1089.54 81.8201 1089.86 81.1936 1090.23 80.5966L1089.36 80.0579C1088.96 80.7001 1088.62 81.3742 1088.32 82.074L1089.27 82.4705ZM1091.48 78.8959C1091.94 78.3636 1092.44 77.8665 1092.98 77.4101L1092.31 76.6299C1091.73 77.1211 1091.2 77.6559 1090.7 78.2285L1091.48 78.8959ZM1094.69 76.1771C1095.28 75.815 1095.91 75.4971 1096.57 75.2288L1096.18 74.2817C1095.47 74.5706 1094.8 74.9128 1094.15 75.3028L1094.69 76.1771ZM1098.58 74.5882C1098.92 74.5085 1099.26 74.4413 1099.61 74.3872L1099.46 73.3761C1099.08 73.4342 1098.71 73.5064 1098.34 73.5922L1098.58 74.5882ZM1099.61 74.3872C1099.96 74.3331 1100.31 74.2932 1100.66 74.2669L1100.59 73.2468C1100.21 73.275 1099.83 73.318 1099.46 73.3761L1099.61 74.3872ZM1102.77 74.2737C1103.48 74.3319 1104.17 74.446 1104.85 74.612L1105.09 73.6184C1104.36 73.4396 1103.62 73.3168 1102.85 73.2541L1102.77 74.2737ZM1106.85 75.2736C1107.5 75.547 1108.13 75.8706 1108.73 76.2404L1109.26 75.3707C1108.62 74.9729 1107.95 74.6247 1107.25 74.3305L1106.85 75.2736ZM1110.43 77.4873C1110.96 77.9454 1111.46 78.4456 1111.91 78.9836L1112.69 78.3218C1112.2 77.7428 1111.67 77.2048 1111.09 76.7119L1110.43 77.4873ZM1113.15 80.6934C1113.51 81.2896 1113.83 81.9182 1114.09 82.5754L1115.04 82.1887C1114.75 81.4811 1114.41 80.8042 1114.02 80.1623L1113.15 80.6934ZM1114.73 84.5837C1114.81 84.9237 1114.88 85.2696 1114.94 85.6208L1115.95 85.4651C1115.89 85.0877 1115.82 84.7159 1115.73 84.3501L1114.73 84.5837ZM1114.43 85.6986C1114.48 86.0368 1114.52 86.3737 1114.55 86.7088L1116.59 86.555C1116.56 86.1672 1116.51 85.7778 1116.45 85.3873L1114.43 85.6986ZM1114.54 88.7364C1114.48 89.4167 1114.37 90.0851 1114.21 90.7367L1116.2 91.2237C1116.39 90.4682 1116.51 89.693 1116.58 88.9041L1114.54 88.7364ZM1113.58 92.6617C1113.31 93.2873 1113 93.8901 1112.65 94.4645L1114.39 95.5419C1114.8 94.877 1115.16 94.1792 1115.46 93.4546L1113.58 92.6617ZM1111.45 96.1009C1111.01 96.613 1110.53 97.0913 1110.01 97.5302L1111.33 99.0906C1111.93 98.5821 1112.49 98.0284 1113 97.4357L1111.45 96.1009ZM1108.36 98.7161C1107.79 99.0644 1107.19 99.3701 1106.55 99.6281L1107.33 101.522C1108.06 101.223 1108.76 100.869 1109.43 100.465L1108.36 98.7161ZM1104.62 100.244C1104.29 100.321 1103.96 100.386 1103.62 100.438L1103.94 102.46C1104.33 102.4 1104.71 102.325 1105.09 102.236L1104.62 100.244ZM1103.62 100.438C1103.29 100.49 1102.95 100.528 1102.61 100.553L1102.77 102.594C1103.16 102.564 1103.54 102.52 1103.94 102.46L1103.62 100.438ZM1100.59 100.547C1099.91 100.491 1099.24 100.381 1098.59 100.222L1098.1 102.209C1098.85 102.394 1099.63 102.521 1100.42 102.586L1100.59 100.547ZM1096.66 99.5853C1096.04 99.3223 1095.43 99.011 1094.86 98.6552L1093.78 100.395C1094.45 100.806 1095.14 101.167 1095.87 101.472L1096.66 99.5853ZM1093.22 97.4555C1092.71 97.0147 1092.23 96.5335 1091.79 96.016L1090.23 97.3395C1090.74 97.9389 1091.29 98.496 1091.89 99.0062L1093.22 97.4555ZM1090.61 94.3715C1090.26 93.7982 1089.95 93.1937 1089.69 92.5617L1087.8 93.3351C1088.1 94.0679 1088.45 94.7689 1088.86 95.4337L1090.61 94.3715ZM1089.08 90.63C1089 90.3028 1088.94 89.9699 1088.88 89.6318L1086.86 89.9431C1086.92 90.3336 1087 90.7184 1087.09 91.0971L1089.08 90.63ZM1088.88 89.6318C1088.83 89.2936 1088.79 88.9567 1088.77 88.6216L1086.73 88.7754C1086.76 89.1632 1086.8 89.5527 1086.86 89.9431L1088.88 89.6318ZM1088.78 86.594C1088.83 85.9137 1088.94 85.2453 1089.1 84.5938L1087.11 84.1067C1086.93 84.8622 1086.8 85.6374 1086.74 86.4263L1088.78 86.594ZM1089.74 82.6687C1090 82.0431 1090.31 81.4404 1090.67 80.8659L1088.93 79.7885C1088.52 80.4534 1088.16 81.1512 1087.85 81.8758L1089.74 82.6687ZM1091.87 79.2296C1092.31 78.7174 1092.79 78.2392 1093.31 77.8002L1091.98 76.2399C1091.38 76.7483 1090.83 77.3021 1090.32 77.8948L1091.87 79.2296ZM1094.95 76.6143C1095.52 76.266 1096.13 75.9604 1096.76 75.7024L1095.99 73.8081C1095.25 74.1073 1094.55 74.4617 1093.89 74.8656L1094.95 76.6143ZM1098.69 75.0862C1099.02 75.0095 1099.35 74.9448 1099.69 74.8928L1099.38 72.8705C1098.99 72.9307 1098.6 73.0054 1098.23 73.0942L1098.69 75.0862ZM1099.69 74.8928C1100.03 74.8407 1100.37 74.8023 1100.7 74.777L1100.55 72.7367C1100.16 72.766 1099.77 72.8104 1099.38 72.8705L1099.69 74.8928ZM1102.73 74.7835C1103.41 74.8395 1104.08 74.9491 1104.73 75.1088L1105.22 73.1216C1104.46 72.9364 1103.69 72.8092 1102.9 72.7444L1102.73 74.7835ZM1106.65 75.7451C1107.28 76.0081 1107.88 76.3194 1108.46 76.6753L1109.53 74.9358C1108.87 74.524 1108.17 74.1635 1107.45 73.8589L1106.65 75.7451ZM1110.09 77.8749C1110.61 78.3158 1111.08 78.7969 1111.52 79.3145L1113.08 77.9909C1112.57 77.3915 1112.02 76.8344 1111.43 76.3242L1110.09 77.8749ZM1112.71 80.9589C1113.06 81.5323 1113.36 82.1368 1113.62 82.7687L1115.51 81.9954C1115.22 81.2625 1114.86 80.5615 1114.46 79.8967L1112.71 80.9589ZM1114.24 84.7004C1114.31 85.0276 1114.38 85.3605 1114.43 85.6986L1116.45 85.3873C1116.39 84.9968 1116.32 84.612 1116.23 84.2334L1114.24 84.7004Z" fill="#FFD67E" mask="url(#path-74-outside-4_590_5148)"/>
<mask id="path-76-outside-5_590_5148" maskUnits="userSpaceOnUse" x="1089.44" y="75.4375" width="24" height="24" fill="black">
<rect fill="white" x="1089.44" y="75.4375" width="24" height="24"/>
<path d="M1111.9 87.6671C1111.9 93.3167 1107.32 97.8967 1101.67 97.8967C1096.02 97.8967 1091.44 93.3167 1091.44 87.6671C1091.44 82.0174 1096.02 77.4375 1101.67 77.4375C1107.32 77.4375 1111.9 82.0174 1111.9 87.6671Z"/>
</mask>
<path d="M1111.9 87.6671C1111.9 93.3167 1107.32 97.8967 1101.67 97.8967C1096.02 97.8967 1091.44 93.3167 1091.44 87.6671C1091.44 82.0174 1096.02 77.4375 1101.67 77.4375C1107.32 77.4375 1111.9 82.0174 1111.9 87.6671Z" fill="#090A0C"/>
<path d="M1110.88 87.6671C1110.88 92.7517 1106.75 96.8736 1101.67 96.8736V98.9197C1107.88 98.9197 1112.92 93.8817 1112.92 87.6671H1110.88ZM1101.67 96.8736C1096.59 96.8736 1092.46 92.7517 1092.46 87.6671H1090.42C1090.42 93.8817 1095.46 98.9197 1101.67 98.9197V96.8736ZM1092.46 87.6671C1092.46 82.5824 1096.59 78.4605 1101.67 78.4605V76.4145C1095.46 76.4145 1090.42 81.4524 1090.42 87.6671H1092.46ZM1101.67 78.4605C1106.75 78.4605 1110.88 82.5824 1110.88 87.6671H1112.92C1112.92 81.4524 1107.88 76.4145 1101.67 76.4145V78.4605Z" fill="#FFD67E" mask="url(#path-76-outside-5_590_5148)"/>
<path d="M1100.62 85.3595L1101.05 84.7869L1095.58 81.6797L1097.48 85.0266L1100.62 85.3595Z" fill="#FFD67E"/>
<path d="M1107.77 81.6797L1104.42 83.5802L1104.09 86.7224L1104.66 87.1522L1107.77 81.6797Z" fill="#FFD67E"/>
<path d="M1095.58 93.8692L1098.93 91.9691L1099.26 88.8265L1098.69 88.397L1095.58 93.8692Z" fill="#FFD67E"/>
<path d="M1102.73 90.1894L1102.3 90.762L1107.77 93.8692L1105.87 90.5226L1102.73 90.1894Z" fill="#FFD67E"/>
<path d="M1102.74 87.3115L1103.06 84.2424L1101.21 86.7113L1098.14 86.3861L1100.61 88.2377L1100.29 91.3065L1102.14 88.838L1105.21 89.1632L1102.74 87.3115Z" fill="#FFD67E"/>
</g>
</g>
<mask id="mask1_590_5148" style="mask-type:alpha" maskUnits="userSpaceOnUse" x="0" y="0" width="532" height="271">
<rect x="0.890625" y="0.919922" width="530.808" height="269.558" fill="#D9D9D9"/>
</mask>
<g mask="url(#mask1_590_5148)">
<path d="M37.7721 86.9414L44.8623 94.0316L51.9525 86.9414L44.8623 79.8512L37.7721 86.9414ZM1263.32 86.9414L1251.04 79.8512V94.0316L1263.32 86.9414ZM44.8623 88.1695H1252.26V85.7133H44.8623V88.1695Z" fill="#FFD67E"/>
<rect x="478.094" y="79.0922" width="11.0998" height="11.0998" transform="rotate(45 478.094 79.0922)" fill="#FFD67E" stroke="#FFD67E" stroke-width="2.45611"/>
<rect x="382.232" y="79.0922" width="11.0998" height="11.0998" transform="rotate(45 382.232 79.0922)" fill="#FFD67E" stroke="#FFD67E" stroke-width="2.45611"/>
<rect x="430.163" y="50.2875" width="51.7685" height="51.7685" transform="rotate(45 430.163 50.2875)" fill="#090A0C" stroke="#FFD67E" stroke-width="2.45611"/>
<rect x="254.151" y="79.0922" width="11.0998" height="11.0998" transform="rotate(45 254.151 79.0922)" fill="#FFD67E" stroke="#FFD67E" stroke-width="2.45611"/>
<rect x="158.29" y="79.0922" width="11.0998" height="11.0998" transform="rotate(45 158.29 79.0922)" fill="#FFD67E" stroke="#FFD67E" stroke-width="2.45611"/>
<rect x="206.221" y="50.2875" width="51.7685" height="51.7685" transform="rotate(45 206.221 50.2875)" fill="#090A0C" stroke="#FFD67E" stroke-width="2.45611"/>
<path d="M189.005 87.7949L197.938 87.7949" stroke="#FFD67E" stroke-width="1.32274" stroke-miterlimit="10"/>
<path d="M194.04 75.6479L200.6 82.1816" stroke="#FFD67E" stroke-width="1.32274" stroke-miterlimit="10"/>
<path d="M200.6 93.4116L194.04 99.9453" stroke="#FFD67E" stroke-width="1.32274" stroke-miterlimit="10"/>
<path d="M190.231 81.3804L198.838 84.8301" stroke="#FFD67E" stroke-width="1.32274" stroke-miterlimit="10"/>
<path d="M203.26 95.1682L199.796 103.74" stroke="#FFD67E" stroke-width="1.32274" stroke-miterlimit="10"/>
<path d="M199.473 71.9859L203.11 80.4863" stroke="#FFD67E" stroke-width="1.32274" stroke-miterlimit="10"/>
<path d="M198.903 90.913L190.368 94.5352" stroke="#FFD67E" stroke-width="1.32274" stroke-miterlimit="10"/>
<path d="M189.355 84.2668L198.434 86.1699" stroke="#FFD67E" stroke-width="1.32274" stroke-miterlimit="10"/>
<path d="M204.6 95.5715L202.689 104.613" stroke="#FFD67E" stroke-width="1.32274" stroke-miterlimit="10"/>
<path d="M196.813 73.4013L201.882 81.1406" stroke="#FFD67E" stroke-width="1.32274" stroke-miterlimit="10"/>
<path d="M199.559 92.1433L191.789 97.1914" stroke="#FFD67E" stroke-width="1.32274" stroke-miterlimit="10"/>
<path d="M191.902 78.2379L199.611 83.3789" stroke="#FFD67E" stroke-width="1.32274" stroke-miterlimit="10"/>
<path d="M201.803 94.4023L196.642 102.08" stroke="#FFD67E" stroke-width="1.32274" stroke-miterlimit="10"/>
<path d="M202.889 70.9376L204.69 80.002" stroke="#FFD67E" stroke-width="1.32274" stroke-miterlimit="10"/>
<path d="M198.414 89.3389L189.312 91.1328" stroke="#FFD67E" stroke-width="1.32274" stroke-miterlimit="10"/>
<path d="M223.418 87.7988H209.238" stroke="#FFD67E" stroke-width="1.32274" stroke-miterlimit="10"/>
<path d="M206.255 96.0902L206.255 104.863" stroke="#FFD67E" stroke-width="1.32274" stroke-miterlimit="10"/>
<path d="M218.46 75.6459L211.9 82.1797" stroke="#FFD67E" stroke-width="1.32274" stroke-miterlimit="10"/>
<path d="M211.9 93.4116L218.46 99.9453" stroke="#FFD67E" stroke-width="1.32274" stroke-miterlimit="10"/>
<path d="M222.262 81.3784L213.655 84.8281" stroke="#FFD67E" stroke-width="1.32274" stroke-miterlimit="10"/>
<path d="M209.233 95.1623L212.696 103.734" stroke="#FFD67E" stroke-width="1.32274" stroke-miterlimit="10"/>
<path d="M213.02 71.982L209.383 80.4824" stroke="#FFD67E" stroke-width="1.32274" stroke-miterlimit="10"/>
<path d="M213.598 90.9091L222.133 94.5312" stroke="#FFD67E" stroke-width="1.32274" stroke-miterlimit="10"/>
<path d="M223.134 84.259L214.055 86.1621" stroke="#FFD67E" stroke-width="1.32274" stroke-miterlimit="10"/>
<path d="M207.892 95.5715L209.803 104.613" stroke="#FFD67E" stroke-width="1.32274" stroke-miterlimit="10"/>
<path d="M215.68 73.3974L210.611 81.1367" stroke="#FFD67E" stroke-width="1.32274" stroke-miterlimit="10"/>
<path d="M212.941 92.1336L220.711 97.1816" stroke="#FFD67E" stroke-width="1.32274" stroke-miterlimit="10"/>
<path d="M220.595 78.2321L212.886 83.373" stroke="#FFD67E" stroke-width="1.32274" stroke-miterlimit="10"/>
<path d="M210.698 94.4043L215.859 102.082" stroke="#FFD67E" stroke-width="1.32274" stroke-miterlimit="10"/>
<path d="M209.608 70.9357L207.807 80" stroke="#FFD67E" stroke-width="1.32274" stroke-miterlimit="10"/>
<path d="M214.087 89.3389L223.188 91.1328" stroke="#FFD67E" stroke-width="1.32274" stroke-miterlimit="10"/>
<path d="M206.251 70.4765L206.251 79.8496" stroke="#FFD67E" stroke-width="1.32274" stroke-miterlimit="10"/>
<mask id="path-119-outside-6_590_5148" maskUnits="userSpaceOnUse" x="191.222" y="72.4395" width="30" height="30" fill="black">
<rect fill="white" x="191.222" y="72.4395" width="30" height="30"/>
<path d="M219.675 87.6665C219.675 94.9716 213.753 100.894 206.448 100.894C199.143 100.894 193.222 94.9716 193.222 87.6665C193.222 80.3614 199.143 74.4395 206.448 74.4395C213.753 74.4395 219.675 80.3614 219.675 87.6665Z"/>
</mask>
<path d="M219.675 87.6665C219.675 94.9716 213.753 100.894 206.448 100.894C199.143 100.894 193.222 94.9716 193.222 87.6665C193.222 80.3614 199.143 74.4395 206.448 74.4395C213.753 74.4395 219.675 80.3614 219.675 87.6665Z" fill="#090A0C"/>
<path d="M218.352 87.6665C218.352 94.2412 213.023 99.5709 206.448 99.5709V102.216C214.484 102.216 220.998 95.7021 220.998 87.6665H218.352ZM206.448 99.5709C199.874 99.5709 194.544 94.2412 194.544 87.6665H191.899C191.899 95.7021 198.413 102.216 206.448 102.216V99.5709ZM194.544 87.6665C194.544 81.0919 199.874 75.7622 206.448 75.7622V73.1167C198.413 73.1167 191.899 79.6309 191.899 87.6665H194.544ZM206.448 75.7622C213.023 75.7622 218.352 81.0919 218.352 87.6665H220.998C220.998 79.6309 214.484 73.1167 206.448 73.1167V75.7622Z" fill="#FFD67E" mask="url(#path-119-outside-6_590_5148)"/>
<path d="M206.217 76.3086C205.401 83.4083 201.669 89.8527 195.912 94.1081C202.486 91.2634 209.948 91.2634 216.522 94.1081C210.765 89.8532 207.034 83.4083 206.217 76.3086Z" fill="#FED680"/>
</g>
<path d="M413.033 87.793L421.965 87.793" stroke="#FFD67E" stroke-width="1.14622" stroke-miterlimit="10"/>
<path d="M418.064 75.6487L424.624 82.1816" stroke="#FFD67E" stroke-width="1.14622" stroke-miterlimit="10"/>
<path d="M424.624 93.4085L418.064 99.9414" stroke="#FFD67E" stroke-width="1.14622" stroke-miterlimit="10"/>
<path d="M414.251 81.3808L422.857 84.8301" stroke="#FFD67E" stroke-width="1.14622" stroke-miterlimit="10"/>
<path d="M427.284 95.1654L423.82 103.736" stroke="#FFD67E" stroke-width="1.14622" stroke-miterlimit="10"/>
<path d="M423.501 71.9869L427.137 80.4863" stroke="#FFD67E" stroke-width="1.14622" stroke-miterlimit="10"/>
<path d="M422.925 90.9115L414.392 94.5332" stroke="#FFD67E" stroke-width="1.14622" stroke-miterlimit="10"/>
<path d="M413.375 84.2632L422.453 86.166" stroke="#FFD67E" stroke-width="1.14622" stroke-miterlimit="10"/>
<path d="M428.632 95.5667L426.722 104.607" stroke="#FFD67E" stroke-width="1.14622" stroke-miterlimit="10"/>
<path d="M420.837 73.4023L425.905 81.1406" stroke="#FFD67E" stroke-width="1.14622" stroke-miterlimit="10"/>
<path d="M423.583 92.14L415.813 97.1875" stroke="#FFD67E" stroke-width="1.14622" stroke-miterlimit="10"/>
<path d="M415.922 78.2386L423.63 83.3789" stroke="#FFD67E" stroke-width="1.14622" stroke-miterlimit="10"/>
<path d="M425.823 94.4013L420.662 102.078" stroke="#FFD67E" stroke-width="1.14622" stroke-miterlimit="10"/>
<path d="M426.913 70.9407L428.713 80.0039" stroke="#FFD67E" stroke-width="1.14622" stroke-miterlimit="10"/>
<path d="M422.436 89.3352L413.336 91.1289" stroke="#FFD67E" stroke-width="1.14622" stroke-miterlimit="10"/>
<path d="M447.419 87.7949H433.241" stroke="#FFD67E" stroke-width="1.14622" stroke-miterlimit="10"/>
<path d="M430.272 96.0873L430.272 104.859" stroke="#FFD67E" stroke-width="1.14622" stroke-miterlimit="10"/>
<path d="M442.461 75.6467L435.902 82.1797" stroke="#FFD67E" stroke-width="1.14622" stroke-miterlimit="10"/>
<path d="M435.902 93.4104L442.461 99.9434" stroke="#FFD67E" stroke-width="1.14622" stroke-miterlimit="10"/>
<path d="M446.266 81.3769L437.661 84.8262" stroke="#FFD67E" stroke-width="1.14622" stroke-miterlimit="10"/>
<path d="M433.242 95.1595L436.706 103.73" stroke="#FFD67E" stroke-width="1.14622" stroke-miterlimit="10"/>
<path d="M437.033 71.9811L433.396 80.4805" stroke="#FFD67E" stroke-width="1.14622" stroke-miterlimit="10"/>
<path d="M437.596 90.9095L446.13 94.5312" stroke="#FFD67E" stroke-width="1.14622" stroke-miterlimit="10"/>
<path d="M447.146 84.2573L438.069 86.1602" stroke="#FFD67E" stroke-width="1.14622" stroke-miterlimit="10"/>
<path d="M431.906 95.5706L433.816 104.611" stroke="#FFD67E" stroke-width="1.14622" stroke-miterlimit="10"/>
<path d="M439.681 73.3984L434.613 81.1367" stroke="#FFD67E" stroke-width="1.14622" stroke-miterlimit="10"/>
<path d="M436.959 92.1361L444.728 97.1836" stroke="#FFD67E" stroke-width="1.14622" stroke-miterlimit="10"/>
<path d="M444.604 78.2308L436.896 83.3711" stroke="#FFD67E" stroke-width="1.14622" stroke-miterlimit="10"/>
<path d="M434.703 94.3994L439.864 102.076" stroke="#FFD67E" stroke-width="1.14622" stroke-miterlimit="10"/>
<path d="M433.609 70.9349L431.809 79.998" stroke="#FFD67E" stroke-width="1.14622" stroke-miterlimit="10"/>
<path d="M438.089 89.3332L447.189 91.127" stroke="#FFD67E" stroke-width="1.14622" stroke-miterlimit="10"/>
<path d="M430.26 70.4757L430.26 79.8477" stroke="#FFD67E" stroke-width="1.14622" stroke-miterlimit="10"/>
<mask id="path-154-outside-7_590_5148" maskUnits="userSpaceOnUse" x="416.969" y="74.2891" width="27" height="27" fill="black">
<rect fill="white" x="416.969" y="74.2891" width="27" height="27"/>
<path d="M441.892 87.7511C441.892 94.0814 436.761 99.2131 430.431 99.2131C424.101 99.2131 418.969 94.0814 418.969 87.7511C418.969 81.4208 424.101 76.2891 430.431 76.2891C436.761 76.2891 441.892 81.4208 441.892 87.7511Z"/>
</mask>
<path d="M441.892 87.7511C441.892 94.0814 436.761 99.2131 430.431 99.2131C424.101 99.2131 418.969 94.0814 418.969 87.7511C418.969 81.4208 424.101 76.2891 430.431 76.2891C436.761 76.2891 441.892 81.4208 441.892 87.7511Z" fill="#090A0C"/>
<path d="M440.746 87.7511C440.746 93.4484 436.128 98.0669 430.431 98.0669V100.359C437.394 100.359 443.038 94.7144 443.038 87.7511H440.746ZM430.431 98.0669C424.734 98.0669 420.115 93.4484 420.115 87.7511H417.823C417.823 94.7144 423.468 100.359 430.431 100.359V98.0669ZM420.115 87.7511C420.115 82.0538 424.734 77.4353 430.431 77.4353V75.1428C423.468 75.1428 417.823 80.7878 417.823 87.7511H420.115ZM430.431 77.4353C436.128 77.4353 440.746 82.0538 440.746 87.7511H443.038C443.038 80.7878 437.394 75.1428 430.431 75.1428V77.4353Z" fill="#FFD67E" mask="url(#path-154-outside-7_590_5148)"/>
<path d="M432.628 85.5487L430.234 77.9082L428.597 83.1373L431.525 85.3242L432.628 85.5487Z" fill="#FFD67E"/>
<path d="M421.305 93.3324L426.665 92.1329L427.1 88.51L426.743 87.4455L421.305 93.3324Z" fill="#FFD67E"/>
<path d="M435.443 89.3033L432.079 90.7392L431.333 91.5793L439.164 93.3324L435.443 89.3033Z" fill="#FFD67E"/>
<path d="M430.869 86.7817L427.269 84.0935L428.694 88.3471L428.159 92.8003L431.141 89.4424L435.275 87.6778L430.869 86.7817Z" fill="#FFD67E"/>
</svg>
