<svg width="286" height="66" viewBox="0 0 286 66" fill="none" xmlns="http://www.w3.org/2000/svg">
<path d="M0.0155598 27.6602L5.78906 33.4337L11.5626 27.6602L5.78906 21.8867L0.0155598 27.6602ZM285.623 27.6602L279.85 21.8867L274.076 27.6602L279.85 33.4337L285.623 27.6602ZM5.78906 28.6602H279.85V26.6602H5.78906V28.6602Z" fill="#FFD67E"/>
<rect width="9.92549" height="9.92549" transform="matrix(0.701758 0.712415 -0.701758 0.712415 164.316 20.5879)" fill="#FFD67E"/>
<rect width="9.92549" height="9.92549" transform="matrix(0.701758 0.712415 -0.701758 0.712415 121.094 20.5879)" fill="#FFD67E"/>
<mask id="path-4-outside-1_554_3417" maskUnits="userSpaceOnUse" x="120.127" y="4.41211" width="46" height="61" fill="black">
<rect fill="white" x="120.127" y="4.41211" width="46" height="61"/>
<path d="M142.995 62.503L126.074 49.3833C123.6 47.4645 122.127 44.337 122.127 41.0005L122.127 12.7338L142.995 7.41211L163.263 12.7338L163.263 41.0005C163.263 44.3433 161.81 47.4831 159.354 49.443L142.995 62.503Z"/>
</mask>
<path d="M142.995 62.503L126.074 49.3833C123.6 47.4645 122.127 44.337 122.127 41.0005L122.127 12.7338L142.995 7.41211L163.263 12.7338L163.263 41.0005C163.263 44.3433 161.81 47.4831 159.354 49.443L142.995 62.503Z" fill="#653407"/>
<path d="M126.074 49.3833L124.849 50.9638L124.849 50.9638L126.074 49.3833ZM142.995 62.503L141.769 64.0835L143.013 65.0477L144.243 64.066L142.995 62.503ZM122.127 12.7338L121.633 10.7959L120.127 11.1799L120.127 12.7338L122.127 12.7338ZM122.127 41.0005L124.127 41.0005L124.127 41.0005L122.127 41.0005ZM142.995 7.41211L143.503 5.47768L143.002 5.34624L142.501 5.47413L142.995 7.41211ZM163.263 12.7338L165.263 12.7338L165.263 11.1912L163.771 10.7994L163.263 12.7338ZM163.263 41.0005L161.263 41.0005L161.263 41.0005L163.263 41.0005ZM159.354 49.443L160.602 51.006L160.602 51.006L159.354 49.443ZM124.849 50.9638L141.769 64.0835L144.22 60.9224L127.3 47.8027L124.849 50.9638ZM120.127 12.7338L120.127 41.0005L124.127 41.0005L124.127 12.7338L120.127 12.7338ZM142.501 5.47413L121.633 10.7959L122.621 14.6718L143.489 9.35008L142.501 5.47413ZM163.771 10.7994L143.503 5.47768L142.487 9.34654L162.755 14.6683L163.771 10.7994ZM165.263 41.0005L165.263 12.7338L161.263 12.7338L161.263 41.0005L165.263 41.0005ZM144.243 64.066L160.602 51.006L158.107 47.88L141.747 60.94L144.243 64.066ZM160.602 51.006C163.567 48.6395 165.263 44.9066 165.263 41.0005L161.263 41.0005C161.263 43.7799 160.052 46.3268 158.107 47.88L160.602 51.006ZM127.3 47.8027C125.35 46.2906 124.127 43.7656 124.127 41.0005L120.127 41.0005C120.127 44.9083 121.85 48.6384 124.849 50.9638L127.3 47.8027Z" fill="#0A0A0A" mask="url(#path-4-outside-1_554_3417)"/>
<mask id="path-6-inside-2_554_3417" fill="white">
<path d="M142.995 57.5928L126.074 44.4731C123.6 42.5544 122.127 39.4268 122.127 36.0904L122.127 7.82367L142.995 2.50195L163.263 7.82367V14.8903V21.957V29.0237L163.263 36.0904C163.263 39.4331 161.81 42.573 159.354 44.5329L142.995 57.5928Z"/>
</mask>
<path d="M142.995 57.5928L126.074 44.4731C123.6 42.5544 122.127 39.4268 122.127 36.0904L122.127 7.82367L142.995 2.50195L163.263 7.82367V14.8903V21.957V29.0237L163.263 36.0904C163.263 39.4331 161.81 42.573 159.354 44.5329L142.995 57.5928Z" fill="#0A0A0A"/>
<path d="M126.074 44.4731L125.462 45.2634L125.462 45.2634L126.074 44.4731ZM142.995 57.5928L142.382 58.3831L143.004 58.8652L143.619 58.3744L142.995 57.5928ZM122.127 7.82367L121.88 6.85468L121.127 7.04668L121.127 7.82367L122.127 7.82367ZM122.127 36.0904L123.127 36.0904L123.127 36.0904L122.127 36.0904ZM142.995 2.50195L143.249 1.53474L142.999 1.46902L142.748 1.53297L142.995 2.50195ZM163.263 7.82367H164.263V7.05234L163.517 6.85645L163.263 7.82367ZM163.263 36.0904L164.263 36.0904L164.263 36.0904L163.263 36.0904ZM159.354 44.5329L159.978 45.3144L159.978 45.3144L159.354 44.5329ZM163.263 29.0237L162.263 29.0237L162.263 29.0237L163.263 29.0237ZM125.462 45.2634L142.382 58.3831L143.608 56.8026L126.687 43.6829L125.462 45.2634ZM121.127 7.82367L121.127 36.0904L123.127 36.0904L123.127 7.82367L121.127 7.82367ZM142.748 1.53297L121.88 6.85468L122.374 8.79266L143.242 3.47094L142.748 1.53297ZM163.517 6.85645L143.249 1.53474L142.741 3.46917L163.009 8.79089L163.517 6.85645ZM143.619 58.3744L159.978 45.3144L158.731 43.7513L142.371 56.8113L143.619 58.3744ZM159.978 45.3144C162.688 43.1512 164.263 39.7148 164.263 36.0904L162.263 36.0904C162.263 39.1514 160.931 41.9948 158.731 43.7513L159.978 45.3144ZM126.687 43.6829C124.475 41.9674 123.127 39.1411 123.127 36.0904L121.127 36.0903C121.127 39.7125 122.725 43.1413 125.462 45.2634L126.687 43.6829ZM164.263 21.957V14.8903H162.263V21.957H164.263ZM164.263 14.8903V7.82367H162.263V14.8903H164.263ZM164.263 36.0904L164.263 29.0237L162.263 29.0237L162.263 36.0904L164.263 36.0904ZM164.263 29.0237V21.957H162.263V29.0237H164.263Z" fill="#FFEF99" mask="url(#path-6-inside-2_554_3417)"/>
<path d="M161.088 27.418L124.325 27.418" stroke="#FFEF99" stroke-miterlimit="10"/>
<path d="M142.706 8.63814L142.706 47.1758" stroke="#FFEF99" stroke-miterlimit="10"/>
<path d="M129.071 40.6953L155.794 13.7919" stroke="#FFEF99" stroke-miterlimit="10"/>
<path d="M156.516 40.6968L128.962 13.7539" stroke="#FFEF99" stroke-miterlimit="10"/>
<rect x="140.614" y="7.0293" width="3" height="3" transform="rotate(-45 140.614 7.0293)" fill="#FFEF99"/>
<rect x="157.353" y="27.4102" width="3" height="3" transform="rotate(-45 157.353 27.4102)" fill="#FFEF99"/>
<rect x="155.016" y="11.8203" width="3" height="3" fill="#FFEF99"/>
<rect x="127.062" y="11.8359" width="3" height="3" fill="#FFEF99"/>
<rect x="155.016" y="39.2441" width="3" height="3" fill="#FFEF99"/>
<rect x="127.062" y="39.1953" width="3" height="3" fill="#FFEF99"/>
<rect x="123.816" y="27.4102" width="3" height="3" transform="rotate(-45 123.816 27.4102)" fill="#FFEF99"/>
<rect x="140.614" y="48.6465" width="3" height="3" transform="rotate(-45 140.614 48.6465)" fill="#FFEF99"/>
<mask id="path-20-outside-3_554_3417" maskUnits="userSpaceOnUse" x="126.172" y="10.579" width="34.2159" height="34.2159" fill="black">
<rect fill="white" x="126.172" y="10.579" width="34.2159" height="34.2159"/>
<path d="M156.335 25.3052C157.48 32.7466 152.377 39.7078 144.935 40.8536C137.494 41.9993 130.533 36.8957 129.387 29.4543C128.241 22.0129 133.345 15.0517 140.786 13.9059C148.228 12.7602 155.189 17.8638 156.335 25.3052Z"/>
</mask>
<path d="M156.335 25.3052C157.48 32.7466 152.377 39.7078 144.935 40.8536C137.494 41.9993 130.533 36.8957 129.387 29.4543C128.241 22.0129 133.345 15.0517 140.786 13.9059C148.228 12.7602 155.189 17.8638 156.335 25.3052Z" fill="#0A0A0A"/>
<path d="M156.829 25.2291C156.772 24.8602 156.701 24.4967 156.618 24.1391L155.644 24.3674C155.722 24.6998 155.788 25.0379 155.841 25.3813L156.829 25.2291ZM155.944 22.0263C155.661 21.3346 155.327 20.6729 154.946 20.0454L154.091 20.5646C154.445 21.1474 154.756 21.7618 155.018 22.4043L155.944 22.0263ZM153.648 18.2463C153.168 17.6803 152.645 17.1543 152.086 16.6726L151.433 17.4305C151.954 17.8784 152.439 18.3673 152.886 18.8932L153.648 18.2463ZM150.297 15.3615C149.669 14.9726 149.011 14.6322 148.326 14.3447L147.939 15.2665C148.575 15.5338 149.187 15.8501 149.771 16.2116L150.297 15.3615ZM146.22 13.6486C145.507 13.4738 144.776 13.3538 144.031 13.2925L143.949 14.2892C144.641 14.346 145.32 14.4575 145.982 14.6198L146.22 13.6486ZM141.813 13.2853C141.447 13.3129 141.079 13.3549 140.71 13.4117L140.862 14.4001C141.206 14.3472 141.548 14.3082 141.888 14.2825L141.813 13.2853ZM140.71 13.4117C140.341 13.4685 139.978 13.5391 139.62 13.623L139.849 14.5966C140.181 14.5186 140.519 14.4529 140.862 14.4001L140.71 13.4117ZM137.507 14.2969C136.816 14.5794 136.154 14.9139 135.527 15.2951L136.046 16.1498C136.629 15.7957 137.243 15.485 137.885 15.2228L137.507 14.2969ZM133.727 16.5925C133.162 17.0725 132.636 17.5954 132.154 18.1551L132.912 18.8074C133.36 18.2871 133.848 17.8012 134.374 17.355L133.727 16.5925ZM130.843 19.9433C130.454 20.5712 130.113 21.2301 129.826 21.9142L130.748 22.3017C131.015 21.666 131.331 21.0536 131.693 20.4699L130.843 19.9433ZM129.13 24.0202C128.955 24.7334 128.835 25.465 128.774 26.2097L129.77 26.2916C129.827 25.6001 129.939 24.9206 130.101 24.2583L129.13 24.0202ZM128.766 28.4274C128.794 28.7936 128.836 29.1615 128.893 29.5304L129.881 29.3782C129.828 29.0349 129.789 28.6927 129.764 28.3522L128.766 28.4274ZM128.893 29.5304C128.95 29.8993 129.02 30.2628 129.104 30.6203L130.078 30.392C130 30.0596 129.934 29.7215 129.881 29.3782L128.893 29.5304ZM129.778 32.7332C130.061 33.4249 130.395 34.0866 130.776 34.7141L131.631 34.1949C131.277 33.6121 130.966 32.9976 130.704 32.3552L129.778 32.7332ZM132.074 36.5132C132.554 37.0791 133.077 37.6051 133.636 38.0869L134.289 37.329C133.768 36.8811 133.282 36.3922 132.836 35.8663L132.074 36.5132ZM135.425 39.398C136.052 39.7868 136.711 40.1272 137.395 40.4148L137.783 39.4929C137.147 39.2257 136.535 38.9093 135.951 38.5478L135.425 39.398ZM139.501 41.1109C140.215 41.2857 140.946 41.4057 141.691 41.4669L141.773 40.4703C141.081 40.4134 140.402 40.3019 139.739 40.1396L139.501 41.1109ZM143.909 41.4741C144.275 41.4465 144.643 41.4045 145.012 41.3477L144.859 40.3594C144.516 40.4122 144.174 40.4513 143.833 40.477L143.909 41.4741ZM145.012 41.3477C145.38 41.2909 145.744 41.2203 146.101 41.1365L145.873 40.1629C145.541 40.2408 145.203 40.3065 144.859 40.3594L145.012 41.3477ZM148.214 40.4625C148.906 40.1801 149.568 39.8455 150.195 39.4644L149.676 38.6097C149.093 38.9637 148.479 39.2744 147.836 39.5367L148.214 40.4625ZM151.994 38.167C152.56 37.6869 153.086 37.1641 153.568 36.6044L152.81 35.952C152.362 36.4724 151.873 36.9583 151.347 37.4044L151.994 38.167ZM154.879 34.8161C155.268 34.1883 155.608 33.5294 155.896 32.8452L154.974 32.4577C154.707 33.0935 154.39 33.7059 154.029 34.2895L154.879 34.8161ZM156.592 30.7392C156.767 30.0261 156.887 29.2945 156.948 28.5498L155.951 28.4678C155.895 29.1594 155.783 29.8389 155.621 30.5012L156.592 30.7392ZM156.955 26.3321C156.928 25.9659 156.886 25.598 156.829 25.2291L155.841 25.3813C155.893 25.7246 155.932 26.0668 155.958 26.4072L156.955 26.3321ZM157.323 25.153C157.264 24.7713 157.191 24.3951 157.104 24.025L155.157 24.4816C155.232 24.8014 155.295 25.1268 155.346 25.4573L157.323 25.153ZM156.407 21.8373C156.114 21.1209 155.768 20.4357 155.373 19.7858L153.664 20.8241C154.004 21.3846 154.303 21.9755 154.555 22.5933L156.407 21.8373ZM154.029 17.9229C153.532 17.3369 152.991 16.7923 152.412 16.2936L151.107 17.8094C151.608 18.2404 152.075 18.7107 152.504 19.2166L154.029 17.9229ZM150.561 14.9364C149.911 14.5339 149.228 14.1815 148.52 13.8837L147.745 15.7274C148.357 15.9845 148.946 16.2889 149.507 16.6367L150.561 14.9364ZM146.339 13.1629C145.601 12.9819 144.843 12.8576 144.072 12.7942L143.908 14.7875C144.573 14.8422 145.226 14.9494 145.863 15.1054L146.339 13.1629ZM141.776 12.7867C141.397 12.8153 141.016 12.8588 140.634 12.9176L140.938 14.8943C141.269 14.8434 141.598 14.8058 141.926 14.7811L141.776 12.7867ZM140.634 12.9176C140.252 12.9763 139.876 13.0494 139.506 13.1362L139.963 15.0834C140.283 15.0084 140.608 14.9452 140.938 14.8943L140.634 12.9176ZM137.318 13.834C136.602 14.1265 135.917 14.473 135.267 14.8677L136.305 16.5771C136.866 16.2367 137.457 15.9379 138.074 15.6857L137.318 13.834ZM133.404 16.2112C132.818 16.7082 132.274 17.2495 131.775 17.8289L133.291 19.1336C133.722 18.633 134.192 18.1655 134.698 17.7363L133.404 16.2112ZM130.418 19.6801C130.015 20.33 129.663 21.0121 129.365 21.7205L131.209 22.4955C131.466 21.8839 131.77 21.2947 132.118 20.7332L130.418 19.6801ZM128.644 23.9012C128.463 24.6397 128.339 25.3975 128.275 26.1687L130.269 26.3326C130.323 25.6676 130.431 25.0142 130.587 24.3773L128.644 23.9012ZM128.268 28.465C128.296 28.8441 128.34 29.2248 128.399 29.6065L130.375 29.3021C130.325 28.9716 130.287 28.6422 130.262 28.3146L128.268 28.465ZM128.399 29.6065C128.457 29.9882 128.531 30.3643 128.617 30.7344L130.565 30.2779C130.49 29.9581 130.426 29.6327 130.375 29.3021L128.399 29.6065ZM129.315 32.9221C129.608 33.6385 129.954 34.3238 130.349 34.9737L132.058 33.9353C131.718 33.3749 131.419 32.784 131.167 32.1662L129.315 32.9221ZM131.692 36.8366C132.189 37.4226 132.731 37.9671 133.31 38.4658L134.615 36.95C134.114 36.5191 133.647 36.0487 133.218 35.5429L131.692 36.8366ZM135.161 39.823C135.811 40.2256 136.493 40.578 137.202 40.8757L137.977 39.032C137.365 38.7749 136.776 38.4706 136.214 38.1228L135.161 39.823ZM139.382 41.5965C140.121 41.7775 140.879 41.9018 141.65 41.9653L141.814 39.972C141.149 39.9173 140.495 39.8101 139.858 39.654L139.382 41.5965ZM143.946 41.9727C144.325 41.9441 144.706 41.9007 145.088 41.8419L144.783 39.8652C144.453 39.9161 144.123 39.9537 143.796 39.9784L143.946 41.9727ZM145.088 41.8419C145.469 41.7831 145.845 41.7101 146.216 41.6233L145.759 39.6761C145.439 39.7511 145.114 39.8143 144.783 39.8652L145.088 41.8419ZM148.403 40.9254C149.12 40.6329 149.805 40.2865 150.455 39.8917L149.416 38.1824C148.856 38.5228 148.265 38.8216 147.647 39.0738L148.403 40.9254ZM152.318 38.5483C152.904 38.0513 153.448 37.51 153.947 36.9306L152.431 35.6258C152 36.1265 151.53 36.594 151.024 37.0231L152.318 38.5483ZM155.304 35.0794C155.707 34.4295 156.059 33.7473 156.357 33.039L154.513 32.264C154.256 32.8755 153.952 33.4647 153.604 34.0263L155.304 35.0794ZM157.078 30.8582C157.259 30.1197 157.383 29.362 157.446 28.5908L155.453 28.4268C155.398 29.0919 155.291 29.7453 155.135 30.3822L157.078 30.8582ZM157.454 26.2945C157.425 25.9154 157.382 25.5347 157.323 25.153L155.346 25.4573C155.397 25.7879 155.435 26.1172 155.46 26.4448L157.454 26.2945Z" fill="#FFEF99" mask="url(#path-20-outside-3_554_3417)"/>
<mask id="path-22-outside-4_554_3417" maskUnits="userSpaceOnUse" x="131.861" y="16.3828" width="22" height="22" fill="black">
<rect fill="white" x="131.861" y="16.3828" width="22" height="22"/>
<path d="M152.861 27.3828C152.861 32.9057 148.384 37.3828 142.861 37.3828C137.338 37.3828 132.861 32.9057 132.861 27.3828C132.861 21.86 137.338 17.3828 142.861 17.3828C148.384 17.3828 152.861 21.86 152.861 27.3828Z"/>
</mask>
<path d="M152.861 27.3828C152.861 32.9057 148.384 37.3828 142.861 37.3828C137.338 37.3828 132.861 32.9057 132.861 27.3828C132.861 21.86 137.338 17.3828 142.861 17.3828C148.384 17.3828 152.861 21.86 152.861 27.3828Z" fill="#0A0A0A"/>
<path d="M151.861 27.3828C151.861 32.3534 147.832 36.3828 142.861 36.3828V38.3828C148.936 38.3828 153.861 33.4579 153.861 27.3828H151.861ZM142.861 36.3828C137.891 36.3828 133.861 32.3534 133.861 27.3828H131.861C131.861 33.4579 136.786 38.3828 142.861 38.3828V36.3828ZM133.861 27.3828C133.861 22.4122 137.891 18.3828 142.861 18.3828V16.3828C136.786 16.3828 131.861 21.3077 131.861 27.3828H133.861ZM142.861 18.3828C147.832 18.3828 151.861 22.4122 151.861 27.3828H153.861C153.861 21.3077 148.936 16.3828 142.861 16.3828V18.3828Z" fill="#FFEF99" mask="url(#path-22-outside-4_554_3417)"/>
<path d="M141.831 25.1267L142.251 24.567L136.901 21.5293L138.759 24.8013L141.831 25.1267Z" fill="white"/>
<path d="M148.818 21.5293L145.546 23.3872L145.221 26.4591L145.78 26.8793L148.818 21.5293Z" fill="white"/>
<path d="M136.901 33.446L140.173 31.5884L140.499 28.5161L139.939 28.0963L136.901 33.446Z" fill="white"/>
<path d="M143.888 29.8485L143.468 30.4083L148.818 33.446L146.96 30.1743L143.888 29.8485Z" fill="white"/>
<path d="M143.899 27.0351L144.217 24.0346L142.407 26.4482L139.407 26.1304L141.82 27.9405L141.502 30.9406L143.313 28.5274L146.313 28.8453L143.899 27.0351Z" fill="white"/>
</svg>
