<svg width="286" height="65" viewBox="0 0 286 65" fill="none" xmlns="http://www.w3.org/2000/svg">
<path d="M0.0819661 27.6602L5.85547 33.4337L11.629 27.6602L5.85547 21.8867L0.0819661 27.6602ZM285.69 27.6602L279.916 21.8867L274.143 27.6602L279.916 33.4337L285.69 27.6602ZM5.85547 28.6602H279.916V26.6602H5.85547V28.6602Z" fill="#FFD67E"/>
<rect width="9.92549" height="9.92549" transform="matrix(0.701758 0.712415 -0.701758 0.712415 164.383 20.5898)" fill="#FFD67E"/>
<rect width="9.92549" height="9.92549" transform="matrix(0.701758 0.712415 -0.701758 0.712415 121.16 20.5898)" fill="#FFD67E"/>
<mask id="path-4-outside-1_554_3554" maskUnits="userSpaceOnUse" x="120.436" y="4.12695" width="46" height="61" fill="black">
<rect fill="white" x="120.436" y="4.12695" width="46" height="61"/>
<path d="M143.303 62.2178L126.383 49.0981C123.908 47.1794 122.436 44.0518 122.436 40.7153L122.436 12.4487L143.303 7.12695L163.572 12.4487L163.572 40.7153C163.572 44.0581 162.118 47.198 159.663 49.1579L143.303 62.2178Z"/>
</mask>
<path d="M143.303 62.2178L126.383 49.0981C123.908 47.1794 122.436 44.0518 122.436 40.7153L122.436 12.4487L143.303 7.12695L163.572 12.4487L163.572 40.7153C163.572 44.0581 162.118 47.198 159.663 49.1579L143.303 62.2178Z" fill="#653407"/>
<path d="M126.383 49.0981L125.157 50.6787L125.157 50.6787L126.383 49.0981ZM143.303 62.2178L142.078 63.7984L143.321 64.7626L144.551 63.7809L143.303 62.2178ZM122.436 12.4487L121.941 10.5107L120.436 10.8947L120.436 12.4487L122.436 12.4487ZM122.436 40.7153L124.436 40.7154L124.436 40.7153L122.436 40.7153ZM143.303 7.12695L143.811 5.19252L143.311 5.06108L142.809 5.18898L143.303 7.12695ZM163.572 12.4487L165.572 12.4487L165.572 10.906L164.08 10.5142L163.572 12.4487ZM163.572 40.7153L161.572 40.7153L161.572 40.7154L163.572 40.7153ZM159.663 49.1579L160.911 50.7209L160.911 50.7209L159.663 49.1579ZM125.157 50.6787L142.078 63.7984L144.529 60.6373L127.608 47.5176L125.157 50.6787ZM120.436 12.4487L120.436 40.7153L124.436 40.7153L124.436 12.4487L120.436 12.4487ZM142.809 5.18898L121.941 10.5107L122.93 14.3866L143.798 9.06493L142.809 5.18898ZM164.08 10.5142L143.811 5.19252L142.796 9.06139L163.064 14.3831L164.08 10.5142ZM165.572 40.7153L165.572 12.4487L161.572 12.4487L161.572 40.7153L165.572 40.7153ZM144.551 63.7809L160.911 50.7209L158.415 47.5948L142.056 60.6548L144.551 63.7809ZM160.911 50.7209C163.875 48.3543 165.572 44.6215 165.572 40.7153L161.572 40.7154C161.572 43.4947 160.361 46.0416 158.415 47.5948L160.911 50.7209ZM127.608 47.5176C125.658 46.0055 124.436 43.4805 124.436 40.7154L120.436 40.7153C120.436 44.6232 122.158 48.3533 125.157 50.6787L127.608 47.5176Z" fill="#0A0A0A" mask="url(#path-4-outside-1_554_3554)"/>
<mask id="path-6-inside-2_554_3554" fill="white">
<path d="M143.303 57.3077L126.383 44.188C123.908 42.2692 122.436 39.1417 122.436 35.8052L122.436 7.53851L143.303 2.2168L163.572 7.53851V14.6052V21.6719V28.7385L163.572 35.8052C163.572 39.1479 162.118 42.2878 159.663 44.2477L143.303 57.3077Z"/>
</mask>
<path d="M143.303 57.3077L126.383 44.188C123.908 42.2692 122.436 39.1417 122.436 35.8052L122.436 7.53851L143.303 2.2168L163.572 7.53851V14.6052V21.6719V28.7385L163.572 35.8052C163.572 39.1479 162.118 42.2878 159.663 44.2477L143.303 57.3077Z" fill="#0A0A0A"/>
<path d="M126.383 44.188L125.77 44.9783L125.77 44.9783L126.383 44.188ZM143.303 57.3077L142.691 58.098L143.312 58.5801L143.927 58.0892L143.303 57.3077ZM122.436 7.53851L122.188 6.56953L121.436 6.76153L121.436 7.53851L122.436 7.53851ZM122.436 35.8052L123.436 35.8052L123.436 35.8052L122.436 35.8052ZM143.303 2.2168L143.557 1.24958L143.307 1.18386L143.056 1.24781L143.303 2.2168ZM163.572 7.53851H164.572V6.76718L163.826 6.5713L163.572 7.53851ZM163.572 35.8052L164.572 35.8052L164.572 35.8052L163.572 35.8052ZM159.663 44.2477L160.287 45.0292L160.287 45.0292L159.663 44.2477ZM163.572 28.7385L162.572 28.7385L162.572 28.7385L163.572 28.7385ZM125.77 44.9783L142.691 58.098L143.916 56.5174L126.996 43.3977L125.77 44.9783ZM121.436 7.53851L121.436 35.8052L123.436 35.8052L123.436 7.53851L121.436 7.53851ZM143.056 1.24781L122.188 6.56953L122.683 8.5075L143.551 3.18578L143.056 1.24781ZM163.826 6.5713L143.557 1.24958L143.05 3.18401L163.318 8.50573L163.826 6.5713ZM143.927 58.0892L160.287 45.0292L159.039 43.4662L142.68 56.5262L143.927 58.0892ZM160.287 45.0292C162.997 42.866 164.572 39.4296 164.572 35.8052L162.572 35.8052C162.572 38.8662 161.24 41.7096 159.039 43.4662L160.287 45.0292ZM126.996 43.3977C124.783 41.6823 123.436 38.856 123.436 35.8052L121.436 35.8052C121.436 39.4273 123.033 42.8562 125.77 44.9783L126.996 43.3977ZM164.572 21.6719V14.6052H162.572V21.6719H164.572ZM164.572 14.6052V7.53851H162.572V14.6052H164.572ZM164.572 35.8052L164.572 28.7385L162.572 28.7385L162.572 35.8052L164.572 35.8052ZM164.572 28.7385V21.6719H162.572V28.7385H164.572Z" fill="#FFEF99" mask="url(#path-6-inside-2_554_3554)"/>
<path d="M125.707 20.1813L135.034 23.9199" stroke="#FFEF99" stroke-miterlimit="10"/>
<path d="M139.826 35.1181L136.072 44.4082" stroke="#FFEF99" stroke-miterlimit="10"/>
<path d="M135.724 10.0004L139.665 19.2129" stroke="#FFEF99" stroke-miterlimit="10"/>
<path d="M135.1 30.5061L125.851 34.4316" stroke="#FFEF99" stroke-miterlimit="10"/>
<path d="M124.755 23.3008L134.593 25.3633" stroke="#FFEF99" stroke-miterlimit="10"/>
<path d="M141.274 35.5582L139.203 45.3574" stroke="#FFEF99" stroke-miterlimit="10"/>
<path d="M132.838 11.5324L138.331 19.9199" stroke="#FFEF99" stroke-miterlimit="10"/>
<path d="M135.812 31.8416L127.392 37.3125" stroke="#FFEF99" stroke-miterlimit="10"/>
<path d="M127.516 16.7682L135.87 22.3398" stroke="#FFEF99" stroke-miterlimit="10"/>
<path d="M138.244 34.2885L132.65 42.6094" stroke="#FFEF99" stroke-miterlimit="10"/>
<path d="M139.423 8.86392L141.375 18.6875" stroke="#FFEF99" stroke-miterlimit="10"/>
<path d="M134.573 28.8039L124.71 30.748" stroke="#FFEF99" stroke-miterlimit="10"/>
<path d="M160.4 20.1813L151.073 23.9199" stroke="#FFEF99" stroke-miterlimit="10"/>
<path d="M146.281 35.124L150.034 44.4141" stroke="#FFEF99" stroke-miterlimit="10"/>
<path d="M150.384 9.99845L146.442 19.2109" stroke="#FFEF99" stroke-miterlimit="10"/>
<path d="M151.006 30.5061L160.256 34.4316" stroke="#FFEF99" stroke-miterlimit="10"/>
<path d="M161.352 23.2988L151.513 25.3613" stroke="#FFEF99" stroke-miterlimit="10"/>
<path d="M144.834 35.5582L146.904 45.3574" stroke="#FFEF99" stroke-miterlimit="10"/>
<path d="M153.27 11.5363L147.777 19.9238" stroke="#FFEF99" stroke-miterlimit="10"/>
<path d="M150.294 31.8396L158.715 37.3105" stroke="#FFEF99" stroke-miterlimit="10"/>
<path d="M158.591 16.7682L150.237 22.3398" stroke="#FFEF99" stroke-miterlimit="10"/>
<path d="M147.863 34.2905L153.457 42.6113" stroke="#FFEF99" stroke-miterlimit="10"/>
<path d="M146.684 8.86392L144.732 18.6875" stroke="#FFEF99" stroke-miterlimit="10"/>
<path d="M151.534 28.8058L161.396 30.75" stroke="#FFEF99" stroke-miterlimit="10"/>
<path d="M161.396 27.1309L124.633 27.1309" stroke="#FFEF99" stroke-miterlimit="10"/>
<path d="M143.015 8.35103L143.015 46.8887" stroke="#FFEF99" stroke-miterlimit="10"/>
<path d="M129.38 40.4082L156.103 13.5048" stroke="#FFEF99" stroke-miterlimit="10"/>
<path d="M156.825 40.4097L129.271 13.4668" stroke="#FFEF99" stroke-miterlimit="10"/>
<rect x="140.924" y="6.74219" width="3" height="3" transform="rotate(-45 140.924 6.74219)" fill="#FFEF99"/>
<rect x="155.324" y="11.5332" width="3" height="3" fill="#FFEF99"/>
<rect x="127.37" y="11.5488" width="3" height="3" fill="#FFEF99"/>
<rect x="155.324" y="38.957" width="3" height="3" fill="#FFEF99"/>
<rect x="127.37" y="38.9082" width="3" height="3" fill="#FFEF99"/>
<rect x="140.924" y="48.3594" width="3" height="3" transform="rotate(-45 140.924 48.3594)" fill="#FFEF99"/>
<mask id="path-42-outside-3_554_3554" maskUnits="userSpaceOnUse" x="126.481" y="10.2938" width="34.2159" height="34.2159" fill="black">
<rect fill="white" x="126.481" y="10.2938" width="34.2159" height="34.2159"/>
<path d="M156.643 25.02C157.789 32.4614 152.685 39.4226 145.244 40.5684C137.803 41.7141 130.841 36.6105 129.696 29.1691C128.55 21.7277 133.654 14.7665 141.095 13.6207C148.536 12.475 155.498 17.5786 156.643 25.02Z"/>
</mask>
<path d="M156.643 25.02C157.789 32.4614 152.685 39.4226 145.244 40.5684C137.803 41.7141 130.841 36.6105 129.696 29.1691C128.55 21.7277 133.654 14.7665 141.095 13.6207C148.536 12.475 155.498 17.5786 156.643 25.02Z" fill="#0A0A0A"/>
<path d="M157.137 24.9439C157.081 24.575 157.01 24.2115 156.926 23.854L155.953 24.0823C156.031 24.4147 156.096 24.7528 156.149 25.0961L157.137 24.9439ZM156.252 21.7411C155.97 21.0494 155.635 20.3877 155.254 19.7602L154.399 20.2794C154.753 20.8622 155.064 21.4767 155.326 22.1191L156.252 21.7411ZM153.957 17.9611C153.477 17.3952 152.954 16.8692 152.394 16.3874L151.742 17.1453C152.262 17.5932 152.748 18.0821 153.194 18.608L153.957 17.9611ZM150.606 15.0763C149.978 14.6875 149.319 14.3471 148.635 14.0595L148.247 14.9814C148.883 15.2486 149.496 15.565 150.079 15.9265L150.606 15.0763ZM146.529 13.3634C145.816 13.1886 145.084 13.0686 144.34 13.0074L144.258 14.004C144.949 14.0609 145.629 14.1724 146.291 14.3347L146.529 13.3634ZM142.122 13.0002C141.756 13.0278 141.388 13.0698 141.019 13.1266L141.171 14.1149C141.514 14.0621 141.857 14.023 142.197 13.9973L142.122 13.0002ZM141.019 13.1266C140.65 13.1834 140.286 13.254 139.929 13.3378L140.157 14.3114C140.49 14.2335 140.828 14.1678 141.171 14.1149L141.019 13.1266ZM137.816 14.0118C137.124 14.2942 136.463 14.6288 135.835 15.0099L136.354 15.8646C136.937 15.5106 137.552 15.1999 138.194 14.9376L137.816 14.0118ZM134.036 16.3073C133.47 16.7874 132.944 17.3102 132.462 17.8699L133.22 18.5223C133.668 18.0019 134.157 17.516 134.683 17.0699L134.036 16.3073ZM131.151 19.6582C130.762 20.286 130.422 20.9449 130.134 21.6291L131.056 22.0166C131.324 21.3808 131.64 20.7684 132.001 20.1848L131.151 19.6582ZM129.438 23.7351C129.264 24.4482 129.144 25.1799 129.082 25.9245L130.079 26.0065C130.136 25.3149 130.247 24.6354 130.41 23.9731L129.438 23.7351ZM129.075 28.1422C129.103 28.5084 129.145 28.8763 129.201 29.2452L130.19 29.093C130.137 28.7497 130.098 28.4075 130.072 28.0671L129.075 28.1422ZM129.201 29.2452C129.258 29.6141 129.329 29.9776 129.413 30.3352L130.386 30.1069C130.308 29.7745 130.243 29.4364 130.19 29.093L129.201 29.2452ZM130.087 32.448C130.369 33.1397 130.704 33.8014 131.085 34.4289L131.94 33.9098C131.585 33.3269 131.275 32.7125 131.013 32.07L130.087 32.448ZM132.382 36.228C132.862 36.794 133.385 37.32 133.945 37.8017L134.597 37.0438C134.077 36.5959 133.591 36.107 133.145 35.5811L132.382 36.228ZM135.733 39.1128C136.361 39.5017 137.02 39.8421 137.704 40.1296L138.091 39.2078C137.456 38.9405 136.843 38.6242 136.26 38.2627L135.733 39.1128ZM139.81 40.8257C140.523 41.0005 141.255 41.1205 141.999 41.1818L142.081 40.1851C141.39 40.1283 140.71 40.0168 140.048 39.8545L139.81 40.8257ZM144.217 41.189C144.583 41.1614 144.951 41.1194 145.32 41.0626L145.168 40.0742C144.825 40.1271 144.482 40.1661 144.142 40.1918L144.217 41.189ZM145.32 41.0626C145.689 41.0058 146.053 40.9352 146.41 40.8513L146.182 39.8777C145.849 39.9557 145.511 40.0214 145.168 40.0742L145.32 41.0626ZM148.523 40.1774C149.215 39.8949 149.876 39.5604 150.504 39.1792L149.985 38.3245C149.402 38.6786 148.787 38.9893 148.145 39.2515L148.523 40.1774ZM152.303 37.8818C152.869 37.4018 153.395 36.8789 153.877 36.3192L153.119 35.6669C152.671 36.1872 152.182 36.6731 151.656 37.1193L152.303 37.8818ZM155.188 34.531C155.577 33.9031 155.917 33.2442 156.205 32.5601L155.283 32.1726C155.015 32.8083 154.699 33.4207 154.338 34.0044L155.188 34.531ZM156.901 30.4541C157.075 29.7409 157.195 29.0093 157.257 28.2646L156.26 28.1827C156.203 28.8742 156.092 29.5537 155.929 30.216L156.901 30.4541ZM157.264 26.0469C157.236 25.6807 157.194 25.3128 157.137 24.9439L156.149 25.0961C156.202 25.4394 156.241 25.7816 156.267 26.1221L157.264 26.0469ZM157.632 24.8678C157.573 24.4861 157.5 24.11 157.413 23.7399L155.466 24.1964C155.541 24.5162 155.604 24.8416 155.655 25.1722L157.632 24.8678ZM156.715 21.5522C156.423 20.8358 156.076 20.1505 155.681 19.5007L153.972 20.539C154.313 21.0994 154.611 21.6903 154.864 22.3081L156.715 21.5522ZM154.338 17.6377C153.841 17.0517 153.3 16.5072 152.72 16.0085L151.416 17.5243C151.916 17.9552 152.384 18.4256 152.813 18.9315L154.338 17.6377ZM150.869 14.6513C150.219 14.2487 149.537 13.8963 148.829 13.5986L148.054 15.4423C148.665 15.6994 149.254 16.0037 149.816 16.3515L150.869 14.6513ZM146.648 12.8778C145.909 12.6968 145.152 12.5725 144.381 12.509L144.217 14.5023C144.882 14.557 145.535 14.6642 146.172 14.8203L146.648 12.8778ZM142.084 12.5016C141.705 12.5302 141.324 12.5736 140.943 12.6324L141.247 14.6091C141.578 14.5582 141.907 14.5206 142.235 14.4959L142.084 12.5016ZM140.943 12.6324C140.561 12.6912 140.185 12.7642 139.815 12.851L140.271 14.7982C140.591 14.7232 140.917 14.66 141.247 14.6091L140.943 12.6324ZM137.627 13.5489C136.911 13.8414 136.225 14.1878 135.576 14.5826L136.614 16.2919C137.174 15.9515 137.765 15.6527 138.383 15.4005L137.627 13.5489ZM133.713 15.926C133.127 16.4231 132.582 16.9643 132.083 17.5437L133.599 18.8485C134.03 18.3478 134.5 17.8803 135.006 17.4512L133.713 15.926ZM130.726 19.3949C130.324 20.0448 129.971 20.727 129.673 21.4353L131.517 22.2103C131.774 21.5988 132.079 21.0096 132.426 20.448L130.726 19.3949ZM128.953 23.6161C128.772 24.3546 128.647 25.1123 128.584 25.8835L130.577 26.0475C130.632 25.3824 130.739 24.729 130.895 24.0921L128.953 23.6161ZM128.576 28.1798C128.605 28.5589 128.649 28.9396 128.707 29.3213L130.684 29.017C130.633 28.6864 130.596 28.3571 130.571 28.0295L128.576 28.1798ZM128.707 29.3213C128.766 29.703 128.839 30.0792 128.926 30.4493L130.873 29.9927C130.798 29.6729 130.735 29.3475 130.684 29.017L128.707 29.3213ZM129.624 32.637C129.916 33.3534 130.263 34.0386 130.657 34.6885L132.367 33.6502C132.026 33.0897 131.728 32.4988 131.475 31.881L129.624 32.637ZM132.001 36.5515C132.498 37.1374 133.039 37.682 133.619 38.1807L134.923 36.6649C134.423 36.2339 133.955 35.7636 133.526 35.2577L132.001 36.5515ZM135.47 39.5379C136.12 39.9404 136.802 40.2928 137.51 40.5906L138.285 38.7469C137.674 38.4898 137.084 38.1854 136.523 37.8376L135.47 39.5379ZM139.691 41.3114C140.429 41.4924 141.187 41.6167 141.958 41.6801L142.122 39.6868C141.457 39.6321 140.804 39.5249 140.167 39.3689L139.691 41.3114ZM144.255 41.6876C144.634 41.659 145.015 41.6155 145.396 41.5567L145.092 39.58C144.761 39.6309 144.432 39.6685 144.104 39.6932L144.255 41.6876ZM145.396 41.5567C145.778 41.498 146.154 41.4249 146.524 41.3381L146.068 39.3909C145.748 39.4659 145.422 39.5291 145.092 39.58L145.396 41.5567ZM148.712 40.6403C149.428 40.3478 150.114 40.0013 150.763 39.6066L149.725 37.8972C149.165 38.2376 148.574 38.5364 147.956 38.7886L148.712 40.6403ZM152.626 38.2631C153.212 37.7661 153.757 37.2248 154.256 36.6454L152.74 35.3407C152.309 35.8413 151.838 36.3088 151.333 36.738L152.626 38.2631ZM155.613 34.7942C156.015 34.1443 156.368 33.4622 156.665 32.7538L154.822 31.9788C154.565 32.5904 154.26 33.1796 153.913 33.7411L155.613 34.7942ZM157.386 30.5731C157.567 29.8346 157.692 29.0768 157.755 28.3056L155.762 28.1417C155.707 28.8067 155.6 29.4601 155.444 30.097L157.386 30.5731ZM157.762 26.0093C157.734 25.6302 157.69 25.2495 157.632 24.8678L155.655 25.1722C155.706 25.5027 155.743 25.8321 155.768 26.1597L157.762 26.0093Z" fill="#FFEF99" mask="url(#path-42-outside-3_554_3554)"/>
<mask id="path-44-outside-4_554_3554" maskUnits="userSpaceOnUse" x="132.17" y="16.0977" width="22" height="22" fill="black">
<rect fill="white" x="132.17" y="16.0977" width="22" height="22"/>
<path d="M153.17 27.0977C153.17 32.6205 148.693 37.0977 143.17 37.0977C137.647 37.0977 133.17 32.6205 133.17 27.0977C133.17 21.5748 137.647 17.0977 143.17 17.0977C148.693 17.0977 153.17 21.5748 153.17 27.0977Z"/>
</mask>
<path d="M153.17 27.0977C153.17 32.6205 148.693 37.0977 143.17 37.0977C137.647 37.0977 133.17 32.6205 133.17 27.0977C133.17 21.5748 137.647 17.0977 143.17 17.0977C148.693 17.0977 153.17 21.5748 153.17 27.0977Z" fill="#0A0A0A"/>
<path d="M152.17 27.0977C152.17 32.0682 148.14 36.0977 143.17 36.0977V38.0977C149.245 38.0977 154.17 33.1728 154.17 27.0977H152.17ZM143.17 36.0977C138.199 36.0977 134.17 32.0682 134.17 27.0977H132.17C132.17 33.1728 137.095 38.0977 143.17 38.0977V36.0977ZM134.17 27.0977C134.17 22.1271 138.199 18.0977 143.17 18.0977V16.0977C137.095 16.0977 132.17 21.0225 132.17 27.0977H134.17ZM143.17 18.0977C148.14 18.0977 152.17 22.1271 152.17 27.0977H154.17C154.17 21.0225 149.245 16.0977 143.17 16.0977V18.0977Z" fill="#FFEF99" mask="url(#path-44-outside-4_554_3554)"/>
<path d="M136.439 21.0324L142.683 24.564L142.609 26.7879L136.439 21.0324ZM136.681 20.6093L136.105 21.3871L142.275 27.1426L143.098 26.8038L143.171 24.5799L142.925 24.1409L136.681 20.6093Z" fill="white"/>
<path d="M149.337 21.0353L146.199 23.9594C145.822 24.3112 145.368 24.4693 144.923 24.4689C144.539 24.4689 144.161 24.3508 143.846 24.138L149.337 21.0353ZM149.337 20.5488V20.9385L149.096 20.6123L143.605 23.7149L143.572 24.5406C143.974 24.8119 144.441 24.9554 144.923 24.9554C145.518 24.9554 146.09 24.728 146.533 24.3145L149.671 21.3904L149.337 20.9389V20.5492V20.5488Z" fill="white"/>
<path d="M136.439 21.0324L139.376 24.1559C140.034 24.8557 140.017 25.8208 139.556 26.4992L136.439 21.0324ZM136.796 20.6999L136.014 21.2723L139.131 26.7391L139.96 26.7721C140.252 26.3432 140.399 25.8245 140.374 25.3117C140.347 24.7551 140.125 24.2402 139.733 23.8234L136.796 20.6999H136.796Z" fill="white"/>
<path d="M149.337 21.0353L145.79 27.2519L143.556 27.1785L149.337 21.0353ZM149.337 20.5488V20.964L148.981 20.7028L143.2 26.8459L143.54 27.6646L145.774 27.738L146.215 27.4923L149.762 21.2757L149.337 20.9644V20.5492V20.5488Z" fill="white"/>
<path d="M146.217 28.409L149.334 33.8757L146.397 30.7522C145.739 30.0525 145.756 29.0874 146.217 28.409ZM145.813 28.1361C145.521 28.565 145.374 29.0836 145.399 29.5964C145.426 30.153 145.648 30.6679 146.04 31.0848L148.977 34.2083L149.758 33.6358L146.642 28.169L145.813 28.1361H145.813Z" fill="white"/>
<path d="M143.164 28.1202L149.334 33.8757L143.09 30.3442L143.164 28.1202ZM143.498 27.7656L142.675 28.1044L142.602 30.3283L142.848 30.7672L149.092 34.2988L149.668 33.5211L143.498 27.7656Z" fill="white"/>
<path d="M140.85 30.4393C141.234 30.4393 141.612 30.5574 141.927 30.7702L136.436 33.8728L139.574 30.9487C139.951 30.597 140.405 30.4389 140.85 30.4393M140.85 29.9532C140.255 29.9532 139.683 30.1806 139.24 30.5941L136.103 33.5182L136.678 34.2963L142.169 31.1937L142.202 30.3679C141.8 30.0967 141.333 29.9532 140.851 29.9532H140.85Z" fill="white"/>
<path d="M139.983 27.6567L142.217 27.7301L136.436 33.8732L139.983 27.6567ZM140 27.1701L139.559 27.4159L136.012 33.6325L136.793 34.2054L142.574 28.0622L142.234 27.2436L140 27.1701Z" fill="white"/>
</svg>
