<svg width="286" height="63" viewBox="0 0 286 63" fill="none" xmlns="http://www.w3.org/2000/svg">
<path d="M0.115169 26.6602L5.88867 32.4337L11.6622 26.6602L5.88867 20.8867L0.115169 26.6602ZM285.723 26.6602L279.95 20.8867L274.176 26.6602L279.95 32.4337L285.723 26.6602ZM5.88867 27.6602H279.95V25.6602H5.88867V27.6602Z" fill="#FFD67E"/>
<rect width="9.92549" height="9.92549" transform="matrix(0.701758 0.712415 -0.701758 0.712415 164.416 19.5898)" fill="#FFD67E"/>
<rect width="9.92549" height="9.92549" transform="matrix(0.701758 0.712415 -0.701758 0.712415 121.193 19.5898)" fill="#FFD67E"/>
<mask id="path-4-outside-1_554_3690" maskUnits="userSpaceOnUse" x="120.351" y="2.12891" width="46" height="61" fill="black">
<rect fill="white" x="120.351" y="2.12891" width="46" height="61"/>
<path d="M143.219 60.2198L126.298 47.1001C123.823 45.1813 122.351 42.0538 122.351 38.7173L122.351 10.4506L143.218 5.12891L163.487 10.4506L163.487 38.7173C163.487 42.06 162.033 45.1999 159.578 47.1598L143.219 60.2198Z"/>
</mask>
<path d="M143.219 60.2198L126.298 47.1001C123.823 45.1813 122.351 42.0538 122.351 38.7173L122.351 10.4506L143.218 5.12891L163.487 10.4506L163.487 38.7173C163.487 42.06 162.033 45.1999 159.578 47.1598L143.219 60.2198Z" fill="#653407"/>
<path d="M126.298 47.1001L125.072 48.6806L125.072 48.6806L126.298 47.1001ZM143.219 60.2198L141.993 61.8003L143.237 62.7645L144.466 61.7828L143.219 60.2198ZM122.351 10.4506L121.856 8.51265L120.351 8.89665L120.351 10.4506L122.351 10.4506ZM122.351 38.7173L124.351 38.7173L124.351 38.7173L122.351 38.7173ZM143.218 5.12891L143.726 3.19447L143.226 3.06303L142.724 3.19093L143.218 5.12891ZM163.487 10.4506L165.487 10.4506L165.487 8.90796L163.995 8.51619L163.487 10.4506ZM163.487 38.7173L161.487 38.7173L161.487 38.7173L163.487 38.7173ZM159.578 47.1598L160.826 48.7228L160.826 48.7228L159.578 47.1598ZM125.072 48.6806L141.993 61.8003L144.444 58.6392L127.523 45.5195L125.072 48.6806ZM120.351 10.4506L120.351 38.7173L124.351 38.7173L124.351 10.4506L120.351 10.4506ZM142.724 3.19093L121.856 8.51265L122.845 12.3886L143.713 7.06688L142.724 3.19093ZM163.995 8.51619L143.726 3.19447L142.711 7.06334L162.979 12.3851L163.995 8.51619ZM165.487 38.7173L165.487 10.4506L161.487 10.4506L161.487 38.7173L165.487 38.7173ZM144.466 61.7828L160.826 48.7228L158.33 45.5968L141.971 58.6568L144.466 61.7828ZM160.826 48.7228C163.79 46.3563 165.487 42.6234 165.487 38.7173L161.487 38.7173C161.487 41.4967 160.276 44.0436 158.33 45.5968L160.826 48.7228ZM127.523 45.5195C125.573 44.0074 124.351 41.4824 124.351 38.7173L120.351 38.7173C120.351 42.6251 122.073 46.3552 125.072 48.6806L127.523 45.5195Z" fill="#0A0A0A" mask="url(#path-4-outside-1_554_3690)"/>
<mask id="path-6-inside-2_554_3690" fill="white">
<path d="M143.219 55.3096L126.298 42.1899C123.823 40.2712 122.351 37.1436 122.351 33.8071L122.351 5.54047L143.218 0.21875L163.487 5.54047V12.6071V19.6738V26.7405L163.487 33.8071C163.487 37.1499 162.033 40.2898 159.578 42.2497L143.219 55.3096Z"/>
</mask>
<path d="M143.219 55.3096L126.298 42.1899C123.823 40.2712 122.351 37.1436 122.351 33.8071L122.351 5.54047L143.218 0.21875L163.487 5.54047V12.6071V19.6738V26.7405L163.487 33.8071C163.487 37.1499 162.033 40.2898 159.578 42.2497L143.219 55.3096Z" fill="#0A0A0A"/>
<path d="M126.298 42.1899L125.685 42.9802L125.685 42.9802L126.298 42.1899ZM143.219 55.3096L142.606 56.0999L143.228 56.582L143.842 56.0911L143.219 55.3096ZM122.351 5.54047L122.103 4.57148L121.351 4.76348L121.351 5.54047L122.351 5.54047ZM122.351 33.8071L123.351 33.8071L123.351 33.8071L122.351 33.8071ZM143.218 0.21875L143.472 -0.748466L143.222 -0.814186L142.971 -0.750237L143.218 0.21875ZM163.487 5.54047H164.487V4.76913L163.741 4.57325L163.487 5.54047ZM163.487 33.8071L164.487 33.8071L164.487 33.8071L163.487 33.8071ZM159.578 42.2497L160.202 43.0312L160.202 43.0312L159.578 42.2497ZM163.487 26.7405L162.487 26.7405L162.487 26.7405L163.487 26.7405ZM125.685 42.9802L142.606 56.0999L143.831 54.5194L126.911 41.3997L125.685 42.9802ZM121.351 5.54047L121.351 33.8071L123.351 33.8071L123.351 5.54047L121.351 5.54047ZM142.971 -0.750237L122.103 4.57148L122.598 6.50945L143.466 1.18774L142.971 -0.750237ZM163.741 4.57325L143.472 -0.748466L142.965 1.18597L163.233 6.50768L163.741 4.57325ZM143.842 56.0911L160.202 43.0312L158.954 41.4681L142.595 54.5281L143.842 56.0911ZM160.202 43.0312C162.912 40.868 164.487 37.4316 164.487 33.8071L162.487 33.8071C162.487 36.8682 161.155 39.7116 158.954 41.4681L160.202 43.0312ZM126.911 41.3997C124.698 39.6842 123.351 36.8579 123.351 33.8071L121.351 33.8071C121.351 37.4293 122.948 40.8581 125.685 42.9802L126.911 41.3997ZM164.487 19.6738V12.6071H162.487V19.6738H164.487ZM164.487 12.6071V5.54047H162.487V12.6071H164.487ZM164.487 33.8071L164.487 26.7405L162.487 26.7405L162.487 33.8071L164.487 33.8071ZM164.487 26.7405V19.6738H162.487V26.7405H164.487Z" fill="#FFEF99" mask="url(#path-6-inside-2_554_3690)"/>
<rect x="141.083" y="4.9043" width="3" height="3" transform="rotate(-45 141.083 4.9043)" fill="#FFEF99"/>
<rect x="141.07" y="48.748" width="3" height="3" transform="rotate(-45 141.07 48.748)" fill="#FFEF99"/>
<rect x="158.081" y="7.71289" width="3" height="3" fill="#FFEF99"/>
<rect x="154.485" y="37.3945" width="3" height="3" fill="#FFEF99"/>
<rect x="124.724" y="7.71289" width="3" height="3" fill="#FFEF99"/>
<rect x="128.261" y="37.3945" width="3" height="3" fill="#FFEF99"/>
<mask id="path-14-outside-3_554_3690" maskUnits="userSpaceOnUse" x="126.594" y="9.07812" width="33" height="33" fill="black">
<rect fill="white" x="126.594" y="9.07812" width="33" height="33"/>
<path d="M158.21 25.3862C158.21 33.8407 151.356 40.6944 142.902 40.6944C134.447 40.6944 127.594 33.8407 127.594 25.3862C127.594 16.9318 134.447 10.0781 142.902 10.0781C151.356 10.0781 158.21 16.9318 158.21 25.3862Z"/>
</mask>
<path d="M158.21 25.3862C158.21 33.8407 151.356 40.6944 142.902 40.6944C134.447 40.6944 127.594 33.8407 127.594 25.3862C127.594 16.9318 134.447 10.0781 142.902 10.0781C151.356 10.0781 158.21 16.9318 158.21 25.3862Z" fill="#0A0A0A"/>
<path d="M158.71 25.3862C158.71 25.2562 158.708 25.1266 158.705 24.9973L157.706 25.0215C157.709 25.1427 157.71 25.2643 157.71 25.3862H158.71ZM158.668 24.2227C158.649 23.9635 158.624 23.7061 158.593 23.4505L157.6 23.5718C157.629 23.8112 157.653 24.0524 157.67 24.2952L158.668 24.2227ZM158.48 22.6829C158.436 22.427 158.385 22.1732 158.329 21.9216L157.353 22.1398C157.406 22.3754 157.453 22.6131 157.494 22.8527L158.48 22.6829ZM158.141 21.1686C158.072 20.9185 157.997 20.6708 157.916 20.4258L156.966 20.7394C157.042 20.9688 157.112 21.2006 157.177 21.4348L158.141 21.1686ZM157.654 19.6951C157.561 19.4532 157.462 19.2142 157.357 18.9782L156.443 19.3839C156.541 19.6049 156.634 19.8287 156.722 20.0552L157.654 19.6951ZM157.025 18.2769C156.908 18.0455 156.786 17.8174 156.658 17.5928L155.789 18.0865C155.908 18.2969 156.023 18.5105 156.132 18.7272L157.025 18.2769ZM156.259 16.9276C156.12 16.709 155.976 16.494 155.827 16.2828L155.01 16.8593C155.15 17.0572 155.285 17.2586 155.415 17.4634L156.259 16.9276ZM155.365 15.66C155.205 15.4561 155.041 15.2562 154.872 15.0605L154.115 15.714C154.273 15.8974 154.427 16.0847 154.577 16.2758L155.365 15.66ZM154.351 14.4859C154.172 14.2986 153.99 14.1156 153.802 13.9373L153.113 14.6614C153.288 14.8286 153.46 15 153.627 15.1755L154.351 14.4859ZM153.228 13.4161C153.032 13.2471 152.832 13.0829 152.628 12.9236L152.012 13.7115C152.203 13.8608 152.391 14.0147 152.574 14.173L153.228 13.4161ZM152.005 12.4609C151.794 12.3119 151.579 12.168 151.361 12.0292L150.825 12.8736C151.03 13.0035 151.231 13.1384 151.429 13.278L152.005 12.4609ZM150.695 11.6297C150.471 11.5021 150.243 11.38 150.011 11.2633L149.561 12.1561C149.778 12.2654 149.991 12.3799 150.202 12.4993L150.695 11.6297ZM149.31 10.931C149.074 10.8262 148.835 10.7271 148.593 10.6337L148.233 11.5666C148.459 11.654 148.683 11.7469 148.904 11.845L149.31 10.931ZM147.862 10.3722C147.617 10.2913 147.37 10.2162 147.119 10.1471L146.853 11.111C147.087 11.1757 147.319 11.246 147.549 11.3217L147.862 10.3722ZM146.367 9.95908C146.115 9.90282 145.861 9.85256 145.605 9.80846L145.435 10.7939C145.675 10.8352 145.913 10.8823 146.148 10.935L146.367 9.95908ZM144.838 9.69551C144.582 9.66429 144.325 9.63918 144.065 9.62032L143.993 10.6177C144.236 10.6354 144.477 10.6589 144.716 10.6881L144.838 9.69551ZM143.291 9.58282C143.162 9.5797 143.032 9.57812 142.902 9.57812V10.5781C143.024 10.5781 143.145 10.5796 143.267 10.5825L143.291 9.58282ZM142.902 9.57812C142.772 9.57812 142.642 9.5797 142.513 9.58282L142.537 10.5825C142.658 10.5796 142.78 10.5781 142.902 10.5781V9.57812ZM141.738 9.62032C141.479 9.63918 141.222 9.66429 140.966 9.69551L141.087 10.6881C141.327 10.6589 141.568 10.6354 141.811 10.6177L141.738 9.62032ZM140.198 9.80846C139.943 9.85256 139.689 9.90282 139.437 9.95908L139.655 10.935C139.891 10.8823 140.129 10.8352 140.368 10.7939L140.198 9.80846ZM138.684 10.1471C138.434 10.2162 138.186 10.2913 137.941 10.3722L138.255 11.3217C138.484 11.246 138.716 11.1757 138.95 11.111L138.684 10.1471ZM137.211 10.6337C136.969 10.7271 136.73 10.8262 136.494 10.931L136.9 11.845C137.121 11.7469 137.344 11.654 137.571 11.5666L137.211 10.6337ZM135.792 11.2633C135.561 11.38 135.333 11.5021 135.108 11.6297L135.602 12.4993C135.813 12.3799 136.026 12.2654 136.243 12.1561L135.792 11.2633ZM134.443 12.0292C134.225 12.168 134.01 12.3119 133.798 12.4609L134.375 13.278C134.573 13.1384 134.774 13.0035 134.979 12.8736L134.443 12.0292ZM133.176 12.9236C132.972 13.0829 132.772 13.2471 132.576 13.4161L133.23 14.173C133.413 14.0147 133.6 13.8608 133.791 13.7115L133.176 12.9236ZM132.001 13.9373C131.814 14.1156 131.631 14.2986 131.453 14.4859L132.177 15.1755C132.344 15 132.516 14.8286 132.691 14.6614L132.001 13.9373ZM130.932 15.0605C130.763 15.2562 130.599 15.4561 130.439 15.66L131.227 16.2758C131.376 16.0847 131.53 15.8974 131.689 15.7141L130.932 15.0605ZM129.977 16.2828C129.828 16.494 129.684 16.709 129.545 16.9276L130.389 17.4634C130.519 17.2586 130.654 17.0572 130.794 16.8593L129.977 16.2828ZM129.145 17.5928C129.018 17.8174 128.896 18.0455 128.779 18.2769L129.672 18.7272C129.781 18.5105 129.895 18.2969 130.015 18.0865L129.145 17.5928ZM128.447 18.9782C128.342 19.2142 128.243 19.4532 128.149 19.6951L129.082 20.0552C129.17 19.8287 129.262 19.6049 129.361 19.384L128.447 18.9782ZM127.888 20.4258C127.807 20.6708 127.732 20.9185 127.663 21.1686L128.627 21.4348C128.691 21.2006 128.762 20.9688 128.837 20.7394L127.888 20.4258ZM127.475 21.9216C127.418 22.1732 127.368 22.427 127.324 22.6829L128.31 22.8527C128.351 22.6131 128.398 22.3754 128.451 22.1398L127.475 21.9216ZM127.211 23.4505C127.18 23.7061 127.155 23.9635 127.136 24.2226L128.133 24.2952C128.151 24.0524 128.175 23.8112 128.204 23.5718L127.211 23.4505ZM127.098 24.9973C127.095 25.1266 127.094 25.2562 127.094 25.3862H128.094C128.094 25.2643 128.095 25.1427 128.098 25.0215L127.098 24.9973ZM127.094 25.3862C127.094 25.5162 127.095 25.6459 127.098 25.7752L128.098 25.751C128.095 25.6298 128.094 25.5082 128.094 25.3862H127.094ZM127.136 26.5498C127.155 26.809 127.18 27.0664 127.211 27.322L128.204 27.2007C128.175 26.9613 128.151 26.7201 128.133 26.4772L127.136 26.5498ZM127.324 28.0896C127.368 28.3455 127.418 28.5993 127.475 28.8509L128.451 28.6326C128.398 28.3971 128.351 28.1594 128.31 27.9198L127.324 28.0896ZM127.663 29.6039C127.732 29.854 127.807 30.1016 127.888 30.3466L128.837 30.0331C128.762 29.8037 128.691 29.5718 128.627 29.3377L127.663 29.6039ZM128.149 31.0774C128.243 31.3193 128.342 31.5583 128.447 31.7943L129.361 31.3885C129.262 31.1676 129.17 30.9438 129.082 30.7173L128.149 31.0774ZM128.779 32.4956C128.896 32.727 129.018 32.9551 129.145 33.1797L130.015 32.686C129.895 32.4756 129.781 32.262 129.672 32.0453L128.779 32.4956ZM129.545 33.8449C129.684 34.0635 129.828 34.2785 129.977 34.4897L130.794 33.9132C130.654 33.7153 130.519 33.5139 130.389 33.3091L129.545 33.8449ZM130.439 35.1125C130.599 35.3164 130.763 35.5163 130.932 35.7119L131.689 35.0584C131.53 34.8751 131.376 34.6878 131.227 34.4967L130.439 35.1125ZM131.453 36.2866C131.631 36.4739 131.814 36.6569 132.001 36.8352L132.691 36.1111C132.516 35.9439 132.344 35.7725 132.177 35.597L131.453 36.2866ZM132.576 37.3564C132.772 37.5254 132.972 37.6896 133.176 37.8489L133.791 37.061C133.6 36.9117 133.413 36.7578 133.23 36.5995L132.576 37.3564ZM133.798 38.3116C134.01 38.4606 134.225 38.6045 134.443 38.7433L134.979 37.8989C134.774 37.7689 134.573 37.6341 134.375 37.4945L133.798 38.3116ZM135.108 39.1428C135.333 39.2703 135.561 39.3925 135.792 39.5092L136.243 38.6163C136.026 38.5071 135.813 38.3926 135.602 38.2732L135.108 39.1428ZM136.494 39.8415C136.73 39.9463 136.969 40.0454 137.211 40.1388L137.571 39.2059C137.344 39.1185 137.121 39.0256 136.9 38.9275L136.494 39.8415ZM137.941 40.4003C138.186 40.4812 138.434 40.5563 138.684 40.6254L138.95 39.6614C138.716 39.5968 138.484 39.5265 138.255 39.4507L137.941 40.4003ZM139.437 40.8134C139.689 40.8697 139.943 40.9199 140.198 40.964L140.368 39.9786C140.129 39.9373 139.891 39.8902 139.655 39.8375L139.437 40.8134ZM140.966 41.077C141.222 41.1082 141.479 41.1333 141.738 41.1522L141.811 40.1548C141.568 40.1371 141.327 40.1136 141.087 40.0844L140.966 41.077ZM142.513 41.1897C142.642 41.1928 142.772 41.1944 142.902 41.1944V40.1944C142.78 40.1944 142.658 40.1929 142.537 40.19L142.513 41.1897ZM142.902 41.1944C143.032 41.1944 143.162 41.1928 143.291 41.1897L143.267 40.19C143.145 40.1929 143.024 40.1944 142.902 40.1944V41.1944ZM144.065 41.1522C144.325 41.1333 144.582 41.1082 144.838 41.077L144.716 40.0844C144.477 40.1136 144.236 40.1371 143.993 40.1548L144.065 41.1522ZM145.605 40.964C145.861 40.9199 146.115 40.8697 146.367 40.8134L146.148 39.8375C145.913 39.8902 145.675 39.9373 145.435 39.9786L145.605 40.964ZM147.119 40.6254C147.37 40.5563 147.617 40.4812 147.862 40.4003L147.549 39.4507C147.319 39.5265 147.087 39.5968 146.853 39.6614L147.119 40.6254ZM148.593 40.1388C148.835 40.0454 149.074 39.9463 149.31 39.8415L148.904 38.9275C148.683 39.0256 148.459 39.1185 148.233 39.2059L148.593 40.1388ZM150.011 39.5092C150.243 39.3925 150.471 39.2703 150.695 39.1428L150.202 38.2732C149.991 38.3926 149.778 38.5071 149.561 38.6163L150.011 39.5092ZM151.361 38.7433C151.579 38.6045 151.794 38.4606 152.005 38.3116L151.429 37.4945C151.231 37.6341 151.03 37.7689 150.825 37.8989L151.361 38.7433ZM152.628 37.8489C152.832 37.6896 153.032 37.5253 153.228 37.3564L152.574 36.5995C152.391 36.7578 152.203 36.9117 152.012 37.061L152.628 37.8489ZM153.802 36.8352C153.99 36.6568 154.172 36.4739 154.351 36.2866L153.627 35.597C153.46 35.7725 153.288 35.9439 153.113 36.1111L153.802 36.8352ZM154.872 35.7119C155.041 35.5163 155.205 35.3164 155.365 35.1125L154.577 34.4967C154.427 34.6878 154.273 34.8751 154.115 35.0584L154.872 35.7119ZM155.827 34.4897C155.976 34.2785 156.12 34.0635 156.259 33.8449L155.415 33.3091C155.285 33.5139 155.15 33.7153 155.01 33.9131L155.827 34.4897ZM156.658 33.1797C156.786 32.955 156.908 32.727 157.025 32.4956L156.132 32.0453C156.023 32.262 155.908 32.4756 155.789 32.686L156.658 33.1797ZM157.357 31.7943C157.462 31.5583 157.561 31.3193 157.654 31.0774L156.722 30.7173C156.634 30.9438 156.541 31.1676 156.443 31.3885L157.357 31.7943ZM157.916 30.3466C157.997 30.1016 158.072 29.854 158.141 29.6039L157.177 29.3377C157.112 29.5718 157.042 29.8037 156.966 30.0331L157.916 30.3466ZM158.329 28.8509C158.385 28.5993 158.436 28.3455 158.48 28.0896L157.494 27.9198C157.453 28.1594 157.406 28.3971 157.353 28.6326L158.329 28.8509ZM158.593 27.322C158.624 27.0664 158.649 26.809 158.668 26.5498L157.67 26.4772C157.653 26.7201 157.629 26.9613 157.6 27.2007L158.593 27.322ZM158.705 25.7752C158.708 25.6459 158.71 25.5162 158.71 25.3862H157.71C157.71 25.5082 157.709 25.6298 157.706 25.751L158.705 25.7752ZM159.21 25.3862C159.21 25.2522 159.208 25.1185 159.205 24.9853L157.206 25.0336C157.209 25.1508 157.21 25.2683 157.21 25.3862H159.21ZM159.166 24.1864C159.147 23.9191 159.121 23.6536 159.089 23.3899L157.104 23.6324C157.132 23.8637 157.155 24.0968 157.172 24.3315L159.166 24.1864ZM158.972 22.5979C158.927 22.3339 158.875 22.072 158.817 21.8125L156.865 22.249C156.916 22.4765 156.962 22.7061 157.001 22.9376L158.972 22.5979ZM158.623 21.0355C158.552 20.7774 158.474 20.5219 158.391 20.2691L156.492 20.8962C156.565 21.1177 156.633 21.3417 156.695 21.5679L158.623 21.0355ZM158.121 19.515C158.025 19.2654 157.922 19.0188 157.814 18.7753L155.986 19.5868C156.081 19.8003 156.171 20.0165 156.255 20.2353L158.121 19.515ZM157.471 18.0517C157.351 17.813 157.225 17.5777 157.093 17.3459L155.354 18.3333C155.469 18.5366 155.58 18.743 155.686 18.9523L157.471 18.0517ZM156.681 16.6597C156.538 16.4342 156.389 16.2124 156.236 15.9946L154.602 17.1476C154.736 17.3388 154.867 17.5334 154.992 17.7313L156.681 16.6597ZM155.759 15.3521C155.594 15.1418 155.425 14.9356 155.25 14.7338L153.737 16.0408C153.89 16.218 154.038 16.399 154.183 16.5837L155.759 15.3521ZM154.713 14.141C154.529 13.9478 154.34 13.7592 154.147 13.5752L152.768 15.0235C152.937 15.185 153.103 15.3507 153.265 15.5203L154.713 14.141ZM153.554 13.0376C153.352 12.8634 153.146 12.694 152.936 12.5296L151.704 14.1055C151.889 14.2497 152.07 14.3985 152.247 14.5515L153.554 13.0376ZM152.294 12.0523C152.076 11.8987 151.854 11.7502 151.628 11.6071L150.557 13.2958C150.755 13.4213 150.949 13.5516 151.141 13.6865L152.294 12.0523ZM150.942 11.1949C150.71 11.0633 150.475 10.9372 150.236 10.8168L149.336 12.6026C149.545 12.7081 149.751 12.8187 149.955 12.9341L150.942 11.1949ZM149.513 10.474C149.269 10.3659 149.023 10.2636 148.773 10.1672L148.053 12.033C148.272 12.1175 148.488 12.2072 148.701 12.302L149.513 10.474ZM148.019 9.89739C147.766 9.81391 147.511 9.73645 147.253 9.66517L146.72 11.593C146.946 11.6555 147.17 11.7234 147.392 11.7965L148.019 9.89739ZM146.476 9.47113C146.216 9.41309 145.954 9.36123 145.69 9.31572L145.35 11.2867C145.582 11.3266 145.812 11.372 146.039 11.4229L146.476 9.47113ZM144.898 9.19919C144.635 9.167 144.369 9.14109 144.102 9.12164L143.957 11.1164C144.191 11.1334 144.424 11.1562 144.656 11.1844L144.898 9.19919ZM143.303 9.08296C143.17 9.07974 143.036 9.07812 142.902 9.07812V11.0781C143.02 11.0781 143.137 11.0795 143.255 11.0824L143.303 9.08296ZM142.902 9.07812C142.768 9.07812 142.634 9.07974 142.501 9.08296L142.549 11.0824C142.666 11.0795 142.784 11.0781 142.902 11.0781V9.07812ZM141.702 9.12164C141.435 9.14109 141.169 9.167 140.906 9.19919L141.148 11.1844C141.379 11.1562 141.612 11.1334 141.847 11.1164L141.702 9.12164ZM140.114 9.31572C139.85 9.36123 139.588 9.41309 139.328 9.47113L139.765 11.4229C139.992 11.372 140.222 11.3266 140.453 11.2867L140.114 9.31572ZM138.551 9.66517C138.293 9.73645 138.037 9.81391 137.785 9.89739L138.412 11.7965C138.633 11.7234 138.857 11.6555 139.084 11.593L138.551 9.66517ZM137.031 10.1672C136.781 10.2636 136.534 10.3659 136.291 10.474L137.102 12.302C137.316 12.2072 137.532 12.1175 137.751 12.033L137.031 10.1672ZM135.567 10.8168C135.329 10.9372 135.093 11.0633 134.862 11.1949L135.849 12.9341C136.052 12.8187 136.259 12.7081 136.468 12.6026L135.567 10.8168ZM134.175 11.6071C133.95 11.7502 133.728 11.8987 133.51 12.0523L134.663 13.6865C134.854 13.5516 135.049 13.4213 135.247 13.2958L134.175 11.6071ZM132.868 12.5296C132.657 12.694 132.451 12.8634 132.249 13.0376L133.556 14.5515C133.734 14.3985 133.915 14.2497 134.099 14.1055L132.868 12.5296ZM131.657 13.5752C131.463 13.7592 131.275 13.9479 131.091 14.141L132.539 15.5203C132.701 15.3507 132.866 15.185 133.036 15.0235L131.657 13.5752ZM130.553 14.7338C130.379 14.9356 130.21 15.1418 130.045 15.3521L131.621 16.5837C131.765 16.399 131.914 16.218 132.067 16.0408L130.553 14.7338ZM129.568 15.9946C129.414 16.2124 129.266 16.4342 129.123 16.6597L130.811 17.7313C130.937 17.5334 131.067 17.3388 131.202 17.1476L129.568 15.9946ZM128.71 17.3459C128.579 17.5777 128.453 17.813 128.332 18.0517L130.118 18.9523C130.224 18.743 130.334 18.5366 130.45 18.3333L128.71 17.3459ZM127.99 18.7753C127.882 19.0188 127.779 19.2654 127.683 19.515L129.549 20.2353C129.633 20.0165 129.723 19.8003 129.818 19.5868L127.99 18.7753ZM127.413 20.2691C127.33 20.5219 127.252 20.7774 127.181 21.0355L129.109 21.5679C129.171 21.3417 129.239 21.1177 129.312 20.8962L127.413 20.2691ZM126.987 21.8125C126.929 22.072 126.877 22.3339 126.831 22.5979L128.802 22.9376C128.842 22.7061 128.888 22.4765 128.939 22.249L126.987 21.8125ZM126.715 23.3899C126.683 23.6536 126.657 23.9191 126.637 24.1864L128.632 24.3315C128.649 24.0968 128.672 23.8637 128.7 23.6324L126.715 23.3899ZM126.599 24.9852C126.595 25.1185 126.594 25.2522 126.594 25.3862H128.594C128.594 25.2683 128.595 25.1508 128.598 25.0336L126.599 24.9852ZM126.594 25.3862C126.594 25.5203 126.595 25.6539 126.599 25.7872L128.598 25.7389C128.595 25.6217 128.594 25.5042 128.594 25.3862H126.594ZM126.637 26.5861C126.657 26.8534 126.683 27.1189 126.715 27.3826L128.7 27.1401C128.672 26.9088 128.649 26.6757 128.632 26.4409L126.637 26.5861ZM126.831 28.1745C126.877 28.4386 126.929 28.7004 126.987 28.96L128.939 28.5235C128.888 28.296 128.842 28.0664 128.802 27.8348L126.831 28.1745ZM127.181 29.737C127.252 29.9951 127.33 30.2506 127.413 30.5034L129.312 29.8763C129.239 29.6547 129.171 29.4308 129.109 29.2046L127.181 29.737ZM127.683 31.2574C127.779 31.5071 127.882 31.7537 127.99 31.9972L129.818 31.1857C129.723 30.9722 129.633 30.756 129.549 30.5372L127.683 31.2574ZM128.332 32.7208C128.453 32.9595 128.579 33.1948 128.71 33.4265L130.45 32.4392C130.334 32.2359 130.224 32.0295 130.118 31.8201L128.332 32.7208ZM129.123 34.1128C129.266 34.3383 129.414 34.5601 129.568 34.7779L131.202 33.6249C131.067 33.4337 130.937 33.2391 130.811 33.0412L129.123 34.1128ZM130.045 35.4204C130.21 35.6307 130.379 35.8369 130.553 36.0387L132.067 34.7317C131.914 34.5545 131.765 34.3735 131.621 34.1888L130.045 35.4204ZM131.091 36.6315C131.275 36.8246 131.463 37.0133 131.657 37.1973L133.036 35.749C132.866 35.5875 132.701 35.4218 132.539 35.2522L131.091 36.6315ZM132.249 37.7349C132.451 37.9091 132.657 38.0785 132.868 38.2429L134.099 36.667C133.915 36.5227 133.734 36.374 133.556 36.221L132.249 37.7349ZM133.51 38.7201C133.728 38.8738 133.95 39.0223 134.175 39.1654L135.247 37.4767C135.049 37.3512 134.854 37.2208 134.663 37.086L133.51 38.7201ZM134.862 39.5776C135.093 39.7092 135.329 39.8353 135.567 39.9556L136.468 38.1699C136.259 38.0643 136.052 37.9538 135.849 37.8384L134.862 39.5776ZM136.291 40.2985C136.534 40.4066 136.781 40.5089 137.031 40.6053L137.751 38.7394C137.532 38.655 137.316 38.5653 137.102 38.4705L136.291 40.2985ZM137.785 40.8751C138.038 40.9586 138.293 41.036 138.551 41.1073L139.084 39.1795C138.857 39.117 138.633 39.0491 138.412 38.976L137.785 40.8751ZM139.328 41.3014C139.588 41.3594 139.85 41.4113 140.114 41.4568L140.453 39.4858C140.222 39.4459 139.992 39.4005 139.765 39.3496L139.328 41.3014ZM140.906 41.5733C141.169 41.6055 141.435 41.6314 141.702 41.6508L141.847 39.6561C141.612 39.639 141.379 39.6163 141.148 39.588L140.906 41.5733ZM142.501 41.6895C142.634 41.6927 142.768 41.6944 142.902 41.6944V39.6944C142.784 39.6944 142.666 39.6929 142.549 39.6901L142.501 41.6895ZM142.902 41.6944C143.036 41.6944 143.17 41.6927 143.303 41.6895L143.255 39.6901C143.137 39.6929 143.02 39.6944 142.902 39.6944V41.6944ZM144.102 41.6508C144.369 41.6314 144.635 41.6055 144.898 41.5733L144.656 39.588C144.424 39.6163 144.191 39.639 143.957 39.6561L144.102 41.6508ZM145.69 41.4568C145.954 41.4113 146.216 41.3594 146.476 41.3014L146.039 39.3496C145.812 39.4005 145.582 39.4459 145.35 39.4858L145.69 41.4568ZM147.253 41.1073C147.511 41.036 147.766 40.9586 148.019 40.8751L147.392 38.976C147.17 39.0491 146.946 39.117 146.72 39.1795L147.253 41.1073ZM148.773 40.6053C149.023 40.5089 149.269 40.4066 149.513 40.2985L148.701 38.4705C148.488 38.5653 148.272 38.655 148.053 38.7394L148.773 40.6053ZM150.236 39.9556C150.475 39.8353 150.71 39.7092 150.942 39.5776L149.955 37.8384C149.751 37.9538 149.545 38.0643 149.336 38.1699L150.236 39.9556ZM151.628 39.1654C151.854 39.0223 152.076 38.8738 152.294 38.7201L151.141 37.086C150.949 37.2208 150.755 37.3512 150.557 37.4767L151.628 39.1654ZM152.936 38.2429C153.146 38.0785 153.352 37.9091 153.554 37.7349L152.247 36.221C152.07 36.374 151.889 36.5227 151.704 36.667L152.936 38.2429ZM154.147 37.1973C154.34 37.0133 154.529 36.8246 154.713 36.6315L153.265 35.2522C153.103 35.4218 152.937 35.5875 152.768 35.749L154.147 37.1973ZM155.25 36.0387C155.425 35.8369 155.594 35.6307 155.759 35.4204L154.183 34.1888C154.038 34.3735 153.89 34.5545 153.737 34.7317L155.25 36.0387ZM156.236 34.7779C156.389 34.5601 156.538 34.3383 156.681 34.1128L154.992 33.0412C154.867 33.2391 154.736 33.4337 154.602 33.6249L156.236 34.7779ZM157.093 33.4265C157.225 33.1948 157.351 32.9595 157.471 32.7208L155.686 31.8201C155.58 32.0295 155.469 32.2358 155.354 32.4391L157.093 33.4265ZM157.814 31.9972C157.922 31.7537 158.025 31.5071 158.121 31.2574L156.255 30.5372C156.171 30.756 156.081 30.9722 155.986 31.1857L157.814 31.9972ZM158.391 30.5034C158.474 30.2506 158.552 29.9951 158.623 29.737L156.695 29.2046C156.633 29.4308 156.565 29.6547 156.492 29.8763L158.391 30.5034ZM158.817 28.96C158.875 28.7004 158.927 28.4386 158.972 28.1745L157.001 27.8348C156.962 28.0664 156.916 28.296 156.865 28.5235L158.817 28.96ZM159.089 27.3826C159.121 27.1189 159.147 26.8534 159.166 26.5861L157.172 26.441C157.155 26.6757 157.132 26.9088 157.104 27.1401L159.089 27.3826ZM159.205 25.7872C159.208 25.6539 159.21 25.5203 159.21 25.3862H157.21C157.21 25.5042 157.209 25.6217 157.206 25.7389L159.205 25.7872Z" fill="#FFEF99" mask="url(#path-14-outside-3_554_3690)"/>
<path d="M135.935 12.8549L132.341 19.0804L135.935 25.3059H143.124L146.718 19.0804L143.124 12.8549H135.935Z" fill="#0A0A0A" stroke="#FFEF99"/>
<path d="M142.681 12.8549L139.087 19.0804L142.681 25.3059H149.87L153.464 19.0804L149.87 12.8549H142.681Z" fill="#0A0A0A" stroke="#FFEF99"/>
<path d="M149.869 38.2525L153.464 32.027L149.869 25.8015H142.681L139.086 32.027L142.681 38.2525H149.869Z" fill="#0A0A0A" stroke="#FFEF99"/>
<path d="M143.123 38.2525L146.718 32.027L143.123 25.8015H135.935L132.34 32.027L135.935 38.2525H143.123Z" fill="#0A0A0A" stroke="#FFEF99"/>
<path d="M146.365 19.3315L142.771 25.557L146.365 31.7824H153.554L157.148 25.557L153.554 19.3315H146.365Z" fill="#0A0A0A" stroke="#FFEF99"/>
<path d="M139.44 31.7779L143.034 25.5524L139.44 19.3269H132.251L128.657 25.5524L132.251 31.7779H139.44Z" fill="#0A0A0A" stroke="#FFEF99"/>
<mask id="path-22-outside-4_554_3690" maskUnits="userSpaceOnUse" x="131.946" y="14.7227" width="22" height="22" fill="black">
<rect fill="white" x="131.946" y="14.7227" width="22" height="22"/>
<path d="M152.946 25.7227C152.946 31.2455 148.469 35.7227 142.946 35.7227C137.423 35.7227 132.946 31.2455 132.946 25.7227C132.946 20.1998 137.423 15.7227 142.946 15.7227C148.469 15.7227 152.946 20.1998 152.946 25.7227Z"/>
</mask>
<path d="M152.946 25.7227C152.946 31.2455 148.469 35.7227 142.946 35.7227C137.423 35.7227 132.946 31.2455 132.946 25.7227C132.946 20.1998 137.423 15.7227 142.946 15.7227C148.469 15.7227 152.946 20.1998 152.946 25.7227Z" fill="#0A0A0A"/>
<path d="M151.946 25.7227C151.946 30.6932 147.917 34.7227 142.946 34.7227V36.7227C149.021 36.7227 153.946 31.7978 153.946 25.7227H151.946ZM142.946 34.7227C137.976 34.7227 133.946 30.6932 133.946 25.7227H131.946C131.946 31.7978 136.871 36.7227 142.946 36.7227V34.7227ZM133.946 25.7227C133.946 20.7521 137.976 16.7227 142.946 16.7227V14.7227C136.871 14.7227 131.946 19.6475 131.946 25.7227H133.946ZM142.946 16.7227C147.917 16.7227 151.946 20.7521 151.946 25.7227H153.946C153.946 19.6475 149.021 14.7227 142.946 14.7227V16.7227Z" fill="#FFEF99" mask="url(#path-22-outside-4_554_3690)"/>
<path d="M149.631 21.9583L144.089 23.7918L142.902 18.0625L141.715 23.7918L136.173 21.9583L140.527 25.8542L136.173 29.75L141.715 27.9162L142.902 33.6458L144.089 27.9162L149.631 29.75L145.276 25.8542L149.631 21.9583Z" fill="white"/>
</svg>
