<svg width="287" height="63" viewBox="0 0 287 63" fill="none" xmlns="http://www.w3.org/2000/svg">
<path d="M0.632747 26.6602L6.40625 32.4337L12.1798 26.6602L6.40625 20.8867L0.632747 26.6602ZM286.241 26.6602L280.467 20.8867L274.694 26.6602L280.467 32.4337L286.241 26.6602ZM6.40625 27.6602H280.467V25.6602H6.40625V27.6602Z" fill="#FFD67E"/>
<rect width="9.92549" height="9.92549" transform="matrix(0.701758 0.712415 -0.701758 0.712415 164.934 19.5898)" fill="#FFD67E"/>
<rect width="9.92549" height="9.92549" transform="matrix(0.701758 0.712415 -0.701758 0.712415 121.711 19.5898)" fill="#FFD67E"/>
<mask id="path-4-outside-1_554_3845" maskUnits="userSpaceOnUse" x="120.57" y="2.29688" width="46" height="61" fill="black">
<rect fill="white" x="120.57" y="2.29688" width="46" height="61"/>
<path d="M143.438 60.3878L126.518 47.2681C124.043 45.3493 122.57 42.2217 122.57 38.8853L122.57 10.6186L143.438 5.29688L163.707 10.6186L163.707 38.8853C163.707 42.228 162.253 45.3679 159.798 47.3278L143.438 60.3878Z"/>
</mask>
<path d="M143.438 60.3878L126.518 47.2681C124.043 45.3493 122.57 42.2217 122.57 38.8853L122.57 10.6186L143.438 5.29688L163.707 10.6186L163.707 38.8853C163.707 42.228 162.253 45.3679 159.798 47.3278L143.438 60.3878Z" fill="#653407"/>
<path d="M126.518 47.2681L125.292 48.8486L125.292 48.8486L126.518 47.2681ZM143.438 60.3878L142.213 61.9683L143.456 62.9325L144.686 61.9508L143.438 60.3878ZM122.57 10.6186L122.076 8.68062L120.57 9.06462L120.57 10.6186L122.57 10.6186ZM122.57 38.8853L124.57 38.8853L124.57 38.8853L122.57 38.8853ZM143.438 5.29688L143.946 3.36244L143.446 3.231L142.944 3.3589L143.438 5.29688ZM163.707 10.6186L165.707 10.6186L165.707 9.07593L164.214 8.68416L163.707 10.6186ZM163.707 38.8853L161.707 38.8853L161.707 38.8853L163.707 38.8853ZM159.798 47.3278L161.046 48.8908L161.046 48.8908L159.798 47.3278ZM125.292 48.8486L142.213 61.9683L144.664 58.8072L127.743 45.6875L125.292 48.8486ZM120.57 10.6186L120.57 38.8853L124.57 38.8853L124.57 10.6186L120.57 10.6186ZM142.944 3.3589L122.076 8.68062L123.065 12.5566L143.932 7.23485L142.944 3.3589ZM164.214 8.68416L143.946 3.36244L142.93 7.23131L163.199 12.553L164.214 8.68416ZM165.707 38.8853L165.707 10.6186L161.707 10.6186L161.707 38.8853L165.707 38.8853ZM144.686 61.9508L161.046 48.8908L158.55 45.7647L142.19 58.8247L144.686 61.9508ZM161.046 48.8908C164.01 46.5243 165.707 42.7914 165.707 38.8853L161.707 38.8853C161.707 41.6646 160.496 44.2115 158.55 45.7647L161.046 48.8908ZM127.743 45.6875C125.793 44.1754 124.57 41.6504 124.57 38.8853L120.57 38.8853C120.57 42.7931 122.293 46.5232 125.292 48.8486L127.743 45.6875Z" fill="#0A0A0A" mask="url(#path-4-outside-1_554_3845)"/>
<mask id="path-6-inside-2_554_3845" fill="white">
<path d="M143.438 55.4776L126.518 42.3579C124.043 40.4391 122.57 37.3116 122.57 33.9751L122.57 5.70844L143.438 0.386719L163.707 5.70844V12.7751V19.8418V26.9084L163.707 33.9751C163.707 37.3179 162.253 40.4577 159.798 42.4176L143.438 55.4776Z"/>
</mask>
<path d="M143.438 55.4776L126.518 42.3579C124.043 40.4391 122.57 37.3116 122.57 33.9751L122.57 5.70844L143.438 0.386719L163.707 5.70844V12.7751V19.8418V26.9084L163.707 33.9751C163.707 37.3179 162.253 40.4577 159.798 42.4176L143.438 55.4776Z" fill="#0A0A0A"/>
<path d="M126.518 42.3579L125.905 43.1482L125.905 43.1482L126.518 42.3579ZM143.438 55.4776L142.825 56.2679L143.447 56.75L144.062 56.2591L143.438 55.4776ZM122.57 5.70844L122.323 4.73945L121.57 4.93145L121.57 5.70844L122.57 5.70844ZM122.57 33.9751L123.57 33.9751L123.57 33.9751L122.57 33.9751ZM143.438 0.386719L143.692 -0.580497L143.442 -0.646218L143.191 -0.582269L143.438 0.386719ZM163.707 5.70844H164.707V4.9371L163.961 4.74122L163.707 5.70844ZM163.707 33.9751L164.707 33.9751L164.707 33.9751L163.707 33.9751ZM159.798 42.4176L160.422 43.1991L160.422 43.1991L159.798 42.4176ZM163.707 26.9084L162.707 26.9084L162.707 26.9084L163.707 26.9084ZM125.905 43.1482L142.825 56.2679L144.051 54.6873L127.13 41.5676L125.905 43.1482ZM121.57 5.70844L121.57 33.9751L123.57 33.9751L123.57 5.70844L121.57 5.70844ZM143.191 -0.582269L122.323 4.73945L122.817 6.67742L143.685 1.35571L143.191 -0.582269ZM163.961 4.74122L143.692 -0.580497L143.184 1.35393L163.453 6.67565L163.961 4.74122ZM144.062 56.2591L160.422 43.1991L159.174 41.6361L142.814 54.6961L144.062 56.2591ZM160.422 43.1991C163.131 41.0359 164.707 37.5996 164.707 33.9751L162.707 33.9751C162.707 37.0362 161.374 39.8796 159.174 41.6361L160.422 43.1991ZM127.13 41.5676C124.918 39.8522 123.57 37.0259 123.57 33.9751L121.57 33.9751C121.57 37.5973 123.168 41.0261 125.905 43.1482L127.13 41.5676ZM164.707 19.8418V12.7751H162.707V19.8418H164.707ZM164.707 12.7751V5.70844H162.707V12.7751H164.707ZM164.707 33.9751L164.707 26.9084L162.707 26.9084L162.707 33.9751L164.707 33.9751ZM164.707 26.9084V19.8418H162.707V26.9084H164.707Z" fill="#FFEF99" mask="url(#path-6-inside-2_554_3845)"/>
<rect x="141.139" y="5.29688" width="3" height="3" transform="rotate(-45 141.139 5.29688)" fill="#FFEF99"/>
<rect x="141.21" y="49.8281" width="3" height="3" transform="rotate(-45 141.21 49.8281)" fill="#FFEF99"/>
<rect x="158.301" y="8.79297" width="3" height="3" fill="#FFEF99"/>
<rect x="154.706" y="38.4746" width="3" height="3" fill="#FFEF99"/>
<rect x="124.943" y="8.79297" width="3" height="3" fill="#FFEF99"/>
<rect x="128.48" y="38.4746" width="3" height="3" fill="#FFEF99"/>
<path d="M127.064 10.6331L156.316 39.7676" stroke="#FFEF99" stroke-miterlimit="10"/>
<path d="M125.116 19.4186L134.807 23.3027" stroke="#FFEF99" stroke-miterlimit="10"/>
<path d="M139.785 34.9441L135.886 44.5957" stroke="#FFEF99" stroke-miterlimit="10"/>
<path d="M135.522 8.83913L139.617 18.4102" stroke="#FFEF99" stroke-miterlimit="10"/>
<path d="M134.876 30.1482L125.267 34.2266" stroke="#FFEF99" stroke-miterlimit="10"/>
<path d="M124.128 22.66L134.349 24.8027" stroke="#FFEF99" stroke-miterlimit="10"/>
<path d="M141.289 35.3975L139.138 45.5781" stroke="#FFEF99" stroke-miterlimit="10"/>
<path d="M132.524 10.4384L138.231 19.1523" stroke="#FFEF99" stroke-miterlimit="10"/>
<path d="M135.616 31.5349L126.867 37.2188" stroke="#FFEF99" stroke-miterlimit="10"/>
<path d="M126.996 15.8776L135.675 21.666" stroke="#FFEF99" stroke-miterlimit="10"/>
<path d="M138.141 34.078L132.329 42.7227" stroke="#FFEF99" stroke-miterlimit="10"/>
<path d="M139.366 7.66325L141.394 17.8691" stroke="#FFEF99" stroke-miterlimit="10"/>
<path d="M134.328 28.3766L124.081 30.3965" stroke="#FFEF99" stroke-miterlimit="10"/>
<path d="M159.409 26.6367L126.443 26.6367" stroke="#FFEF99" stroke-miterlimit="10"/>
<path d="M159.409 10.4299L129.958 39.7637" stroke="#FFEF99" stroke-miterlimit="10"/>
<path d="M161.16 19.4127L151.47 23.2969" stroke="#FFEF99" stroke-miterlimit="10"/>
<path d="M146.491 34.9363L150.391 44.5879" stroke="#FFEF99" stroke-miterlimit="10"/>
<path d="M150.754 8.83523L146.659 18.4062" stroke="#FFEF99" stroke-miterlimit="10"/>
<path d="M151.401 30.1462L161.011 34.2246" stroke="#FFEF99" stroke-miterlimit="10"/>
<path d="M162.148 22.6541L151.927 24.7969" stroke="#FFEF99" stroke-miterlimit="10"/>
<path d="M144.988 35.3897L147.139 45.5703" stroke="#FFEF99" stroke-miterlimit="10"/>
<path d="M153.752 10.4306L148.045 19.1445" stroke="#FFEF99" stroke-miterlimit="10"/>
<path d="M150.661 31.5251L159.409 37.209" stroke="#FFEF99" stroke-miterlimit="10"/>
<path d="M159.28 15.8737L150.601 21.6621" stroke="#FFEF99" stroke-miterlimit="10"/>
<path d="M148.136 34.0741L153.947 42.7188" stroke="#FFEF99" stroke-miterlimit="10"/>
<path d="M146.91 7.66129L144.883 17.8672" stroke="#FFEF99" stroke-miterlimit="10"/>
<path d="M151.948 28.3766L162.195 30.3965" stroke="#FFEF99" stroke-miterlimit="10"/>
<path d="M143.093 5.13556L143.093 49.9609" stroke="#FFEF99" stroke-miterlimit="10"/>
<mask id="path-42-outside-3_554_3845" maskUnits="userSpaceOnUse" x="126.685" y="10.1582" width="33" height="33" fill="black">
<rect fill="white" x="126.685" y="10.1582" width="33" height="33"/>
<path d="M158.301 26.4663C158.301 34.9208 151.447 41.7744 142.993 41.7744C134.538 41.7744 127.685 34.9208 127.685 26.4663C127.685 18.0119 134.538 11.1582 142.993 11.1582C151.447 11.1582 158.301 18.0119 158.301 26.4663Z"/>
</mask>
<path d="M158.301 26.4663C158.301 34.9208 151.447 41.7744 142.993 41.7744C134.538 41.7744 127.685 34.9208 127.685 26.4663C127.685 18.0119 134.538 11.1582 142.993 11.1582C151.447 11.1582 158.301 18.0119 158.301 26.4663Z" fill="#0A0A0A"/>
<path d="M158.801 26.4663C158.801 26.3363 158.799 26.2067 158.796 26.0774L157.796 26.1016C157.799 26.2228 157.801 26.3444 157.801 26.4663H158.801ZM158.759 25.3027C158.74 25.0436 158.715 24.7862 158.683 24.5306L157.691 24.6518C157.72 24.8913 157.744 25.1325 157.761 25.3753L158.759 25.3027ZM158.57 23.7629C158.526 23.507 158.476 23.2532 158.42 23.0017L157.444 23.2199C157.497 23.4555 157.544 23.6931 157.585 23.9328L158.57 23.7629ZM158.232 22.2487C158.163 21.9986 158.088 21.7509 158.007 21.5059L157.057 21.8195C157.133 22.0489 157.203 22.2807 157.268 22.5149L158.232 22.2487ZM157.745 20.7752C157.652 20.5333 157.553 20.2943 157.448 20.0583L156.534 20.464C156.632 20.685 156.725 20.9088 156.812 21.1353L157.745 20.7752ZM157.116 19.3569C156.999 19.1256 156.877 18.8975 156.749 18.6729L155.88 19.1666C155.999 19.377 156.114 19.5906 156.223 19.8073L157.116 19.3569ZM156.35 18.0077C156.211 17.789 156.067 17.5741 155.918 17.3629L155.101 17.9394C155.241 18.1373 155.375 18.3387 155.505 18.5435L156.35 18.0077ZM155.455 16.7401C155.296 16.5362 155.132 16.3363 154.963 16.1406L154.206 16.7941C154.364 16.9775 154.518 17.1648 154.667 17.3558L155.455 16.7401ZM154.442 15.5659C154.263 15.3786 154.08 15.1957 153.893 15.0173L153.203 15.7415C153.379 15.9086 153.55 16.0801 153.718 16.2556L154.442 15.5659ZM153.318 14.4962C153.123 14.3272 152.923 14.163 152.719 14.0036L152.103 14.7916C152.294 14.9409 152.482 15.0948 152.665 15.2531L153.318 14.4962ZM152.096 13.541C151.885 13.392 151.67 13.248 151.451 13.1093L150.916 13.9537C151.12 14.0836 151.322 14.2185 151.52 14.3581L152.096 13.541ZM150.786 12.7098C150.561 12.5822 150.333 12.46 150.102 12.3434L149.652 13.2362C149.868 13.3455 150.082 13.4599 150.292 13.5794L150.786 12.7098ZM149.401 12.0111C149.165 11.9063 148.926 11.8071 148.684 11.7138L148.324 12.6467C148.55 12.7341 148.774 12.8269 148.995 12.925L149.401 12.0111ZM147.953 11.4523C147.708 11.3714 147.46 11.2963 147.21 11.2272L146.944 12.1911C147.178 12.2558 147.41 12.3261 147.64 12.4018L147.953 11.4523ZM146.457 11.0392C146.206 10.9829 145.952 10.9326 145.696 10.8885L145.526 11.874C145.766 11.9153 146.004 11.9624 146.239 12.0151L146.457 11.0392ZM144.928 10.7756C144.673 10.7444 144.415 10.7193 144.156 10.7004L144.084 11.6978C144.327 11.7154 144.568 11.739 144.807 11.7682L144.928 10.7756ZM143.382 10.6629C143.252 10.6598 143.123 10.6582 142.993 10.6582V11.6582C143.115 11.6582 143.236 11.6597 143.357 11.6626L143.382 10.6629ZM142.993 10.6582C142.863 10.6582 142.733 10.6598 142.604 10.6629L142.628 11.6626C142.749 11.6597 142.871 11.6582 142.993 11.6582V10.6582ZM141.829 10.7004C141.57 10.7193 141.313 10.7444 141.057 10.7756L141.178 11.7682C141.418 11.739 141.659 11.7154 141.902 11.6978L141.829 10.7004ZM140.289 10.8885C140.033 10.9326 139.78 10.9829 139.528 11.0392L139.746 12.0151C139.982 11.9624 140.22 11.9153 140.459 11.874L140.289 10.8885ZM138.775 11.2272C138.525 11.2963 138.277 11.3714 138.032 11.4523L138.346 12.4018C138.575 12.3261 138.807 12.2558 139.041 12.1911L138.775 11.2272ZM137.302 11.7138C137.06 11.8071 136.821 11.9063 136.585 12.0111L136.99 12.925C137.211 12.8269 137.435 12.7341 137.662 12.6467L137.302 11.7138ZM135.883 12.3434C135.652 12.46 135.424 12.5822 135.199 12.7098L135.693 13.5794C135.903 13.4599 136.117 13.3455 136.334 13.2362L135.883 12.3434ZM134.534 13.1093C134.315 13.248 134.1 13.392 133.889 13.541L134.466 14.3581C134.664 14.2185 134.865 14.0836 135.07 13.9537L134.534 13.1093ZM133.266 14.0036C133.063 14.163 132.863 14.3272 132.667 14.4962L133.32 15.2531C133.504 15.0948 133.691 14.9409 133.882 14.7916L133.266 14.0036ZM132.092 15.0174C131.905 15.1957 131.722 15.3786 131.544 15.5659L132.268 16.2556C132.435 16.0801 132.606 15.9086 132.782 15.7415L132.092 15.0174ZM131.023 16.1406C130.854 16.3363 130.689 16.5362 130.53 16.7401L131.318 17.3559C131.467 17.1648 131.621 16.9775 131.779 16.7941L131.023 16.1406ZM130.067 17.3629C129.918 17.5741 129.774 17.7891 129.636 18.0077L130.48 18.5435C130.61 18.3387 130.745 18.1373 130.884 17.9394L130.067 17.3629ZM129.236 18.6729C129.109 18.8975 128.986 19.1256 128.87 19.3569L129.763 19.8073C129.872 19.5906 129.986 19.377 130.106 19.1666L129.236 18.6729ZM128.537 20.0583C128.433 20.2943 128.334 20.5333 128.24 20.7752L129.173 21.1353C129.26 20.9088 129.353 20.685 129.451 20.464L128.537 20.0583ZM127.979 21.5059C127.898 21.7509 127.823 21.9986 127.754 22.2487L128.717 22.5149C128.782 22.2807 128.852 22.0489 128.928 21.8195L127.979 21.5059ZM127.566 23.0017C127.509 23.2532 127.459 23.507 127.415 23.7629L128.4 23.9328C128.442 23.6931 128.489 23.4555 128.541 23.2199L127.566 23.0017ZM127.302 24.5306C127.271 24.7862 127.246 25.0436 127.227 25.3027L128.224 25.3753C128.242 25.1325 128.265 24.8913 128.295 24.6518L127.302 24.5306ZM127.189 26.0774C127.186 26.2067 127.185 26.3363 127.185 26.4663H128.185C128.185 26.3444 128.186 26.2228 128.189 26.1016L127.189 26.0774ZM127.185 26.4663C127.185 26.5963 127.186 26.726 127.189 26.8552L128.189 26.8311C128.186 26.7099 128.185 26.5883 128.185 26.4663H127.185ZM127.227 27.6299C127.246 27.889 127.271 28.1465 127.302 28.402L128.295 28.2808C128.265 28.0414 128.242 27.8002 128.224 27.5573L127.227 27.6299ZM127.415 29.1697C127.459 29.4256 127.509 29.6794 127.566 29.931L128.541 29.7127C128.489 29.4772 128.442 29.2395 128.4 28.9998L127.415 29.1697ZM127.754 30.6839C127.823 30.9341 127.898 31.1817 127.979 31.4267L128.928 31.1132C128.852 30.8838 128.782 30.6519 128.717 30.4177L127.754 30.6839ZM128.24 32.1575C128.334 32.3994 128.433 32.6384 128.537 32.8744L129.451 32.4686C129.353 32.2476 129.26 32.0238 129.173 31.7973L128.24 32.1575ZM128.87 33.5757C128.986 33.8071 129.109 34.0351 129.236 34.2598L130.106 33.7661C129.986 33.5557 129.872 33.342 129.763 33.1254L128.87 33.5757ZM129.636 34.925C129.774 35.1436 129.918 35.3586 130.067 35.5697L130.884 34.9932C130.745 34.7954 130.61 34.594 130.48 34.3892L129.636 34.925ZM130.53 36.1926C130.689 36.3965 130.854 36.5963 131.023 36.792L131.779 36.1385C131.621 35.9551 131.467 35.7678 131.318 35.5768L130.53 36.1926ZM131.544 37.3667C131.722 37.554 131.905 37.7369 132.092 37.9153L132.782 37.1912C132.606 37.024 132.435 36.8526 132.268 36.6771L131.544 37.3667ZM132.667 38.4365C132.863 38.6054 133.063 38.7697 133.266 38.929L133.882 38.1411C133.691 37.9918 133.504 37.8379 133.32 37.6796L132.667 38.4365ZM133.889 39.3917C134.1 39.5407 134.315 39.6846 134.534 39.8233L135.07 38.979C134.865 38.849 134.664 38.7142 134.466 38.5746L133.889 39.3917ZM135.199 40.2229C135.424 40.3504 135.652 40.4726 135.883 40.5893L136.334 39.6964C136.117 39.5872 135.903 39.4727 135.693 39.3533L135.199 40.2229ZM136.585 40.9216C136.821 41.0263 137.06 41.1255 137.302 41.2189L137.662 40.286C137.435 40.1985 137.211 40.1057 136.99 40.0076L136.585 40.9216ZM138.032 41.4804C138.277 41.5613 138.525 41.6364 138.775 41.7054L139.041 40.7415C138.807 40.6768 138.575 40.6066 138.346 40.5308L138.032 41.4804ZM139.528 41.8935C139.78 41.9497 140.033 42 140.289 42.0441L140.459 41.0586C140.22 41.0173 139.982 40.9703 139.746 40.9176L139.528 41.8935ZM141.057 42.1571C141.313 42.1883 141.57 42.2134 141.829 42.2322L141.902 41.2349C141.659 41.2172 141.418 41.1937 141.178 41.1644L141.057 42.1571ZM142.604 42.2697C142.733 42.2729 142.863 42.2744 142.993 42.2744V41.2744C142.871 41.2744 142.749 41.273 142.628 41.27L142.604 42.2697ZM142.993 42.2744C143.123 42.2744 143.252 42.2729 143.382 42.2697L143.357 41.27C143.236 41.273 143.115 41.2744 142.993 41.2744V42.2744ZM144.156 42.2322C144.415 42.2134 144.673 42.1883 144.928 42.1571L144.807 41.1644C144.568 41.1937 144.327 41.2172 144.084 41.2349L144.156 42.2322ZM145.696 42.0441C145.952 42 146.206 41.9497 146.457 41.8935L146.239 40.9176C146.004 40.9703 145.766 41.0173 145.526 41.0586L145.696 42.0441ZM147.21 41.7054C147.46 41.6364 147.708 41.5613 147.953 41.4804L147.64 40.5308C147.41 40.6066 147.178 40.6768 146.944 40.7415L147.21 41.7054ZM148.684 41.2189C148.926 41.1255 149.165 41.0263 149.401 40.9216L148.995 40.0076C148.774 40.1057 148.55 40.1985 148.324 40.286L148.684 41.2189ZM150.102 40.5893C150.333 40.4726 150.561 40.3504 150.786 40.2229L150.292 39.3533C150.082 39.4727 149.868 39.5871 149.652 39.6964L150.102 40.5893ZM151.451 39.8233C151.67 39.6846 151.885 39.5407 152.096 39.3917L151.52 38.5746C151.322 38.7142 151.12 38.849 150.916 38.979L151.451 39.8233ZM152.719 38.929C152.923 38.7697 153.123 38.6054 153.318 38.4365L152.665 37.6796C152.482 37.8379 152.294 37.9918 152.103 38.1411L152.719 38.929ZM153.893 37.9153C154.08 37.7369 154.263 37.554 154.442 37.3667L153.718 36.6771C153.55 36.8526 153.379 37.024 153.203 37.1912L153.893 37.9153ZM154.963 36.792C155.132 36.5963 155.296 36.3965 155.455 36.1926L154.667 35.5768C154.518 35.7678 154.364 35.9551 154.206 36.1385L154.963 36.792ZM155.918 35.5697C156.067 35.3586 156.211 35.1436 156.35 34.925L155.505 34.3892C155.375 34.594 155.241 34.7954 155.101 34.9932L155.918 35.5697ZM156.749 34.2598C156.877 34.0351 156.999 33.807 157.116 33.5757L156.223 33.1254C156.114 33.342 155.999 33.5557 155.88 33.7661L156.749 34.2598ZM157.448 32.8744C157.553 32.6384 157.652 32.3994 157.745 32.1575L156.812 31.7973C156.725 32.0238 156.632 32.2476 156.534 32.4686L157.448 32.8744ZM158.007 31.4267C158.088 31.1817 158.163 30.9341 158.232 30.6839L157.268 30.4177C157.203 30.6519 157.133 30.8838 157.057 31.1132L158.007 31.4267ZM158.42 29.931C158.476 29.6794 158.526 29.4256 158.57 29.1697L157.585 28.9998C157.544 29.2395 157.497 29.4772 157.444 29.7127L158.42 29.931ZM158.683 28.402C158.715 28.1465 158.74 27.8891 158.759 27.6299L157.761 27.5573C157.744 27.8002 157.72 28.0414 157.691 28.2808L158.683 28.402ZM158.796 26.8552C158.799 26.726 158.801 26.5963 158.801 26.4663H157.801C157.801 26.5883 157.799 26.7099 157.796 26.8311L158.796 26.8552ZM159.301 26.4663C159.301 26.3323 159.299 26.1986 159.296 26.0653L157.297 26.1136C157.299 26.2308 157.301 26.3484 157.301 26.4663H159.301ZM159.257 25.2664C159.238 24.9992 159.212 24.7336 159.18 24.47L157.194 24.7125C157.223 24.9438 157.245 25.1769 157.263 25.4116L159.257 25.2664ZM159.063 23.678C159.018 23.414 158.966 23.1521 158.908 22.8926L156.956 23.329C157.007 23.5566 157.052 23.7862 157.092 24.0177L159.063 23.678ZM158.714 22.1156C158.642 21.8575 158.565 21.602 158.482 21.3491L156.582 21.9763C156.656 22.1978 156.723 22.4218 156.786 22.648L158.714 22.1156ZM158.212 20.5951C158.115 20.3455 158.013 20.0989 157.905 19.8554L156.077 20.6669C156.172 20.8804 156.261 21.0966 156.346 21.3154L158.212 20.5951ZM157.562 19.1318C157.442 18.8931 157.316 18.6578 157.184 18.426L155.445 19.4134C155.56 19.6167 155.671 19.8231 155.776 20.0324L157.562 19.1318ZM156.772 17.7398C156.629 17.5142 156.48 17.2925 156.327 17.0747L154.692 18.2277C154.827 18.4188 154.958 18.6135 155.083 18.8114L156.772 17.7398ZM155.849 16.4322C155.685 16.2219 155.516 16.0157 155.341 15.8139L153.827 17.1209C153.98 17.2981 154.129 17.4791 154.273 17.6637L155.849 16.4322ZM154.804 15.2211C154.62 15.0279 154.431 14.8393 154.238 14.6553L152.859 16.1036C153.028 16.2651 153.194 16.4308 153.355 16.6004L154.804 15.2211ZM153.645 14.1177C153.443 13.9434 153.237 13.774 153.027 13.6097L151.795 15.1855C151.98 15.3298 152.161 15.4785 152.338 15.6316L153.645 14.1177ZM152.384 13.1324C152.167 12.9787 151.945 12.8302 151.719 12.6871L150.648 14.3758C150.846 14.5014 151.04 14.6317 151.231 14.7666L152.384 13.1324ZM151.033 12.2749C150.801 12.1434 150.566 12.0173 150.327 11.8969L149.427 13.6827C149.636 13.7882 149.842 13.8988 150.046 14.0142L151.033 12.2749ZM149.604 11.5541C149.36 11.446 149.113 11.3437 148.864 11.2473L148.144 13.1131C148.362 13.1976 148.579 13.2873 148.792 13.382L149.604 11.5541ZM148.11 10.9775C147.857 10.894 147.602 10.8165 147.343 10.7452L146.811 12.6731C147.037 12.7356 147.261 12.8034 147.483 12.8766L148.11 10.9775ZM146.566 10.5512C146.307 10.4932 146.045 10.4413 145.781 10.3958L145.441 12.3667C145.673 12.4066 145.902 12.4521 146.13 12.503L146.566 10.5512ZM144.989 10.2793C144.725 10.2471 144.46 10.2212 144.193 10.2017L144.047 12.1964C144.282 12.2135 144.515 12.2363 144.747 12.2645L144.989 10.2793ZM143.394 10.163C143.26 10.1598 143.127 10.1582 142.993 10.1582V12.1582C143.111 12.1582 143.228 12.1596 143.345 12.1625L143.394 10.163ZM142.993 10.1582C142.859 10.1582 142.725 10.1598 142.592 10.163L142.64 12.1625C142.757 12.1596 142.875 12.1582 142.993 12.1582V10.1582ZM141.793 10.2017C141.526 10.2212 141.26 10.2471 140.996 10.2793L141.239 12.2645C141.47 12.2363 141.703 12.2135 141.938 12.1964L141.793 10.2017ZM140.204 10.3958C139.94 10.4413 139.678 10.4932 139.419 10.5512L139.855 12.503C140.083 12.4521 140.313 12.4066 140.544 12.3667L140.204 10.3958ZM138.642 10.7452C138.384 10.8165 138.128 10.894 137.876 10.9775L138.503 12.8766C138.724 12.8034 138.948 12.7356 139.174 12.6731L138.642 10.7452ZM137.121 11.2473C136.872 11.3437 136.625 11.446 136.382 11.5541L137.193 13.382C137.407 13.2873 137.623 13.1976 137.842 13.1131L137.121 11.2473ZM135.658 11.8969C135.419 12.0173 135.184 12.1434 134.952 12.2749L135.94 14.0142C136.143 13.8988 136.349 13.7882 136.559 13.6827L135.658 11.8969ZM134.266 12.6871C134.041 12.8303 133.819 12.9787 133.601 13.1324L134.754 14.7666C134.945 14.6317 135.14 14.5014 135.338 14.3758L134.266 12.6871ZM132.959 13.6097C132.748 13.774 132.542 13.9434 132.34 14.1177L133.647 15.6316C133.824 15.4785 134.005 15.3298 134.19 15.1855L132.959 13.6097ZM131.747 14.6553C131.554 14.8393 131.366 15.0279 131.182 15.2211L132.63 16.6004C132.791 16.4308 132.957 16.2651 133.127 16.1036L131.747 14.6553ZM130.644 15.8139C130.47 16.0157 130.3 16.2219 130.136 16.4322L131.712 17.6637C131.856 17.4791 132.005 17.2981 132.158 17.1209L130.644 15.8139ZM129.659 17.0747C129.505 17.2925 129.357 17.5143 129.213 17.7398L130.902 18.8114C131.028 18.6135 131.158 18.4189 131.293 18.2277L129.659 17.0747ZM128.801 18.426C128.67 18.6578 128.544 18.8931 128.423 19.1318L130.209 20.0324C130.315 19.8231 130.425 19.6167 130.541 19.4134L128.801 18.426ZM128.08 19.8554C127.972 20.0989 127.87 20.3455 127.774 20.5951L129.639 21.3154C129.724 21.0966 129.814 20.8804 129.908 20.6669L128.08 19.8554ZM127.504 21.3491C127.42 21.602 127.343 21.8575 127.272 22.1156L129.199 22.648C129.262 22.4218 129.33 22.1978 129.403 21.9763L127.504 21.3491ZM127.078 22.8926C127.02 23.1521 126.968 23.414 126.922 23.678L128.893 24.0177C128.933 23.7862 128.978 23.5566 129.029 23.329L127.078 22.8926ZM126.806 24.47C126.773 24.7336 126.748 24.9992 126.728 25.2664L128.723 25.4116C128.74 25.1769 128.763 24.9438 128.791 24.7125L126.806 24.47ZM126.689 26.0653C126.686 26.1986 126.685 26.3323 126.685 26.4663H128.685C128.685 26.3484 128.686 26.2308 128.689 26.1136L126.689 26.0653ZM126.685 26.4663C126.685 26.6004 126.686 26.734 126.689 26.8673L128.689 26.819C128.686 26.7018 128.685 26.5842 128.685 26.4663H126.685ZM126.728 27.6662C126.748 27.9335 126.773 28.199 126.806 28.4627L128.791 28.2202C128.763 27.9888 128.74 27.7557 128.723 27.521L126.728 27.6662ZM126.922 29.2546C126.968 29.5186 127.02 29.7805 127.078 30.0401L129.029 29.6036C128.978 29.3761 128.933 29.1465 128.893 28.9149L126.922 29.2546ZM127.272 30.817C127.343 31.0751 127.42 31.3307 127.504 31.5835L129.403 30.9564C129.33 30.7348 129.262 30.5109 129.199 30.2846L127.272 30.817ZM127.774 32.3375C127.87 32.5871 127.972 32.8338 128.08 33.0772L129.908 32.2657C129.814 32.0523 129.724 31.8361 129.639 31.6173L127.774 32.3375ZM128.423 33.8009C128.544 34.0396 128.67 34.2749 128.801 34.5066L130.541 33.5192C130.425 33.3159 130.315 33.1095 130.209 32.9002L128.423 33.8009ZM129.214 35.1929C129.357 35.4184 129.505 35.6402 129.659 35.858L131.293 34.705C131.158 34.5138 131.028 34.3192 130.902 34.1213L129.214 35.1929ZM130.136 36.5005C130.3 36.7108 130.47 36.9169 130.644 37.1188L132.158 35.8118C132.005 35.6345 131.856 35.4535 131.712 35.2689L130.136 36.5005ZM131.182 37.7115C131.366 37.9047 131.554 38.0934 131.747 38.2774L133.127 36.8291C132.957 36.6675 132.791 36.5019 132.63 36.3322L131.182 37.7115ZM132.34 38.8149C132.542 38.9892 132.748 39.1586 132.959 39.323L134.19 37.7471C134.005 37.6028 133.824 37.4541 133.647 37.3011L132.34 38.8149ZM133.601 39.8002C133.819 39.9539 134.041 40.1024 134.266 40.2455L135.338 38.5568C135.14 38.4312 134.945 38.3009 134.754 38.166L133.601 39.8002ZM134.952 40.6577C135.184 40.7893 135.419 40.9153 135.658 41.0357L136.559 39.25C136.349 39.1444 136.143 39.0339 135.94 38.9184L134.952 40.6577ZM136.382 41.3786C136.625 41.4867 136.872 41.589 137.121 41.6853L137.842 39.8195C137.623 39.7351 137.407 39.6454 137.193 39.5506L136.382 41.3786ZM137.876 41.9552C138.128 42.0387 138.384 42.1161 138.642 42.1874L139.174 40.2596C138.948 40.1971 138.724 40.1292 138.503 40.056L137.876 41.9552ZM139.419 42.3814C139.678 42.4395 139.94 42.4913 140.204 42.5368L140.544 40.5659C140.313 40.526 140.083 40.4805 139.855 40.4296L139.419 42.3814ZM140.996 42.6534C141.26 42.6856 141.526 42.7115 141.793 42.7309L141.938 40.7362C141.703 40.7191 141.47 40.6964 141.239 40.6681L140.996 42.6534ZM142.592 42.7696C142.725 42.7728 142.859 42.7744 142.993 42.7744V40.7744C142.875 40.7744 142.757 40.773 142.64 40.7702L142.592 42.7696ZM142.993 42.7744C143.127 42.7744 143.26 42.7728 143.394 42.7696L143.345 40.7702C143.228 40.773 143.111 40.7744 142.993 40.7744V42.7744ZM144.193 42.7309C144.46 42.7115 144.725 42.6856 144.989 42.6534L144.747 40.6681C144.515 40.6964 144.282 40.7191 144.047 40.7362L144.193 42.7309ZM145.781 42.5368C146.045 42.4913 146.307 42.4395 146.566 42.3814L146.13 40.4296C145.902 40.4805 145.673 40.526 145.441 40.5659L145.781 42.5368ZM147.343 42.1874C147.602 42.1161 147.857 42.0387 148.11 41.9552L147.483 40.056C147.261 40.1292 147.037 40.1971 146.811 40.2596L147.343 42.1874ZM148.864 41.6853C149.114 41.589 149.36 41.4867 149.604 41.3786L148.792 39.5506C148.579 39.6454 148.362 39.7351 148.144 39.8195L148.864 41.6853ZM150.327 41.0357C150.566 40.9153 150.801 40.7893 151.033 40.6577L150.046 38.9184C149.842 39.0338 149.636 39.1444 149.427 39.25L150.327 41.0357ZM151.719 40.2455C151.945 40.1024 152.167 39.9539 152.384 39.8002L151.231 38.166C151.04 38.3009 150.846 38.4312 150.648 38.5568L151.719 40.2455ZM153.027 39.323C153.237 39.1586 153.443 38.9892 153.645 38.8149L152.338 37.3011C152.161 37.4541 151.98 37.6028 151.795 37.7471L153.027 39.323ZM154.238 38.2774C154.431 38.0934 154.62 37.9047 154.804 37.7115L153.355 36.3322C153.194 36.5019 153.028 36.6675 152.859 36.8291L154.238 38.2774ZM155.341 37.1188C155.516 36.9169 155.685 36.7108 155.849 36.5004L154.273 35.2689C154.129 35.4535 153.98 35.6345 153.827 35.8118L155.341 37.1188ZM156.327 35.858C156.48 35.6402 156.629 35.4184 156.772 35.1929L155.083 34.1213C154.958 34.3192 154.827 34.5138 154.692 34.705L156.327 35.858ZM157.184 34.5066C157.316 34.2749 157.442 34.0395 157.562 33.8009L155.776 32.9002C155.671 33.1095 155.56 33.3159 155.445 33.5192L157.184 34.5066ZM157.905 33.0772C158.013 32.8338 158.115 32.5871 158.212 32.3375L156.346 31.6173C156.261 31.8361 156.172 32.0523 156.077 32.2657L157.905 33.0772ZM158.482 31.5835C158.565 31.3307 158.642 31.0751 158.714 30.817L156.786 30.2846C156.723 30.5108 156.656 30.7348 156.582 30.9564L158.482 31.5835ZM158.908 30.0401C158.966 29.7805 159.018 29.5186 159.063 29.2546L157.092 28.9149C157.052 29.1465 157.007 29.3761 156.956 29.6036L158.908 30.0401ZM159.18 28.4627C159.212 28.199 159.238 27.9335 159.257 27.6662L157.263 27.521C157.245 27.7558 157.223 27.9888 157.194 28.2202L159.18 28.4627ZM159.296 26.8673C159.299 26.734 159.301 26.6004 159.301 26.4663H157.301C157.301 26.5842 157.299 26.7018 157.297 26.819L159.296 26.8673Z" fill="#FFEF99" mask="url(#path-42-outside-3_554_3845)"/>
<path d="M135.916 13.935L132.321 20.1605L135.916 26.386H143.104L146.699 20.1605L143.104 13.935H135.916Z" fill="#0A0A0A" stroke="#FFEF99"/>
<path d="M142.662 13.935L139.068 20.1605L142.662 26.386H149.85L153.445 20.1605L149.85 13.935H142.662Z" fill="#0A0A0A" stroke="#FFEF99"/>
<path d="M149.85 39.3326L153.444 33.1071L149.85 26.8816H142.661L139.067 33.1071L142.661 39.3326H149.85Z" fill="#0A0A0A" stroke="#FFEF99"/>
<path d="M143.104 39.3326L146.698 33.1071L143.104 26.8816H135.915L132.321 33.1071L135.915 39.3326H143.104Z" fill="#0A0A0A" stroke="#FFEF99"/>
<path d="M146.345 20.4115L142.751 26.637L146.345 32.8625H153.534L157.128 26.637L153.534 20.4115H146.345Z" fill="#0A0A0A" stroke="#FFEF99"/>
<path d="M139.42 32.858L143.014 26.6325L139.42 20.407H132.232L128.637 26.6325L132.232 32.858H139.42Z" fill="#0A0A0A" stroke="#FFEF99"/>
<mask id="path-50-outside-4_554_3845" maskUnits="userSpaceOnUse" x="131.927" y="15.8027" width="22" height="22" fill="black">
<rect fill="white" x="131.927" y="15.8027" width="22" height="22"/>
<path d="M152.927 26.8027C152.927 32.3256 148.45 36.8027 142.927 36.8027C137.404 36.8027 132.927 32.3256 132.927 26.8027C132.927 21.2799 137.404 16.8027 142.927 16.8027C148.45 16.8027 152.927 21.2799 152.927 26.8027Z"/>
</mask>
<path d="M152.927 26.8027C152.927 32.3256 148.45 36.8027 142.927 36.8027C137.404 36.8027 132.927 32.3256 132.927 26.8027C132.927 21.2799 137.404 16.8027 142.927 16.8027C148.45 16.8027 152.927 21.2799 152.927 26.8027Z" fill="#0A0A0A"/>
<path d="M151.927 26.8027C151.927 31.7733 147.897 35.8027 142.927 35.8027V37.8027C149.002 37.8027 153.927 32.8779 153.927 26.8027H151.927ZM142.927 35.8027C137.956 35.8027 133.927 31.7733 133.927 26.8027H131.927C131.927 32.8779 136.852 37.8027 142.927 37.8027V35.8027ZM133.927 26.8027C133.927 21.8322 137.956 17.8027 142.927 17.8027V15.8027C136.852 15.8027 131.927 20.7276 131.927 26.8027H133.927ZM142.927 17.8027C147.897 17.8027 151.927 21.8322 151.927 26.8027H153.927C153.927 20.7276 149.002 15.8027 142.927 15.8027V17.8027Z" fill="#FFEF99" mask="url(#path-50-outside-4_554_3845)"/>
<path d="M142.703 26.399L141.986 24.4657L137.629 21.3291L140.737 25.648L142.703 26.399Z" fill="white"/>
<path d="M143.578 26.4036L145.512 25.687L148.648 21.3291L144.329 24.4375L143.578 26.4036Z" fill="white"/>
<path d="M143.141 26.2199L144.002 24.3464L143.139 19.0469L142.282 24.2987L143.141 26.2199Z" fill="white"/>
<path d="M145.678 25.983L143.757 26.8418L145.631 27.7024L150.93 26.8387L145.678 25.983Z" fill="white"/>
<path d="M143.135 27.4575L142.275 29.3311L143.139 34.6306L143.994 29.3787L143.135 27.4575Z" fill="white"/>
<path d="M143.574 27.2784L144.29 29.2117L148.648 32.3483L145.539 28.0294L143.574 27.2784Z" fill="white"/>
<path d="M142.52 26.8356L140.646 25.975L135.347 26.8387L140.599 27.6948L142.52 26.8356Z" fill="white"/>
<path d="M142.698 27.2742L140.765 27.9904L137.629 32.3483L141.947 29.2399L142.698 27.2742Z" fill="white"/>
</svg>
