<svg width="286" height="63" viewBox="0 0 286 63" fill="none" xmlns="http://www.w3.org/2000/svg">
<path d="M0.196224 26.6602L5.96973 32.4337L11.7432 26.6602L5.96973 20.8867L0.196224 26.6602ZM285.804 26.6602L280.031 20.8867L274.257 26.6602L280.031 32.4337L285.804 26.6602ZM5.96973 27.6602H280.031V25.6602H5.96973V27.6602Z" fill="#FFD67E"/>
<rect width="9.92549" height="9.92549" transform="matrix(0.701758 0.712415 -0.701758 0.712415 164.497 19.5898)" fill="#FFD67E"/>
<rect width="9.92549" height="9.92549" transform="matrix(0.701758 0.712415 -0.701758 0.712415 121.274 19.5898)" fill="#FFD67E"/>
<mask id="path-4-outside-1_554_4001" maskUnits="userSpaceOnUse" x="120.432" y="2.30664" width="46" height="61" fill="black">
<rect fill="white" x="120.432" y="2.30664" width="46" height="61"/>
<path d="M143.3 60.3975L126.379 47.2778C123.904 45.3591 122.432 42.2315 122.432 38.895L122.432 10.6284L143.3 5.30664L163.568 10.6284L163.568 38.895C163.568 42.2378 162.114 45.3777 159.659 47.3375L143.3 60.3975Z"/>
</mask>
<path d="M143.3 60.3975L126.379 47.2778C123.904 45.3591 122.432 42.2315 122.432 38.895L122.432 10.6284L143.3 5.30664L163.568 10.6284L163.568 38.895C163.568 42.2378 162.114 45.3777 159.659 47.3375L143.3 60.3975Z" fill="#653407"/>
<path d="M126.379 47.2778L125.154 48.8584L125.154 48.8584L126.379 47.2778ZM143.3 60.3975L142.074 61.9781L143.318 62.9423L144.547 61.9606L143.3 60.3975ZM122.432 10.6284L121.937 8.69038L120.432 9.07439L120.432 10.6284L122.432 10.6284ZM122.432 38.895L124.432 38.895L124.432 38.895L122.432 38.895ZM143.3 5.30664L143.807 3.37221L143.307 3.24077L142.805 3.36867L143.3 5.30664ZM163.568 10.6284L165.568 10.6284L165.568 9.08569L164.076 8.69393L163.568 10.6284ZM163.568 38.895L161.568 38.895L161.568 38.895L163.568 38.895ZM159.659 47.3375L160.907 48.9006L160.907 48.9006L159.659 47.3375ZM125.154 48.8584L142.074 61.9781L144.525 58.817L127.605 45.6973L125.154 48.8584ZM120.432 10.6284L120.432 38.895L124.432 38.895L124.432 10.6284L120.432 10.6284ZM142.805 3.36867L121.937 8.69038L122.926 12.5663L143.794 7.24462L142.805 3.36867ZM164.076 8.69393L143.807 3.37221L142.792 7.24107L163.06 12.5628L164.076 8.69393ZM165.568 38.895L165.568 10.6284L161.568 10.6284L161.568 38.895L165.568 38.895ZM144.547 61.9606L160.907 48.9006L158.411 45.7745L142.052 58.8345L144.547 61.9606ZM160.907 48.9006C163.871 46.534 165.568 42.8012 165.568 38.895L161.568 38.895C161.568 41.6744 160.357 44.2213 158.411 45.7745L160.907 48.9006ZM127.605 45.6973C125.654 44.1852 124.432 41.6601 124.432 38.895L120.432 38.895C120.432 42.8029 122.154 46.533 125.154 48.8584L127.605 45.6973Z" fill="#0A0A0A" mask="url(#path-4-outside-1_554_4001)"/>
<mask id="path-6-inside-2_554_4001" fill="white">
<path d="M143.3 55.4874L126.379 42.3677C123.904 40.4489 122.432 37.3214 122.432 33.9849L122.432 5.7182L143.3 0.396484L163.568 5.7182V12.7849V19.8515V26.9182L163.568 33.9849C163.568 37.3276 162.114 40.4675 159.659 42.4274L143.3 55.4874Z"/>
</mask>
<path d="M143.3 55.4874L126.379 42.3677C123.904 40.4489 122.432 37.3214 122.432 33.9849L122.432 5.7182L143.3 0.396484L163.568 5.7182V12.7849V19.8515V26.9182L163.568 33.9849C163.568 37.3276 162.114 40.4675 159.659 42.4274L143.3 55.4874Z" fill="#0A0A0A"/>
<path d="M126.379 42.3677L125.766 43.1579L125.766 43.1579L126.379 42.3677ZM143.3 55.4874L142.687 56.2776L143.309 56.7597L143.923 56.2689L143.3 55.4874ZM122.432 5.7182L122.185 4.74921L121.432 4.94122L121.432 5.7182L122.432 5.7182ZM122.432 33.9849L123.432 33.9849L123.432 33.9849L122.432 33.9849ZM143.3 0.396484L143.554 -0.570732L143.303 -0.636452L143.052 -0.572503L143.3 0.396484ZM163.568 5.7182H164.568V4.94687L163.822 4.75099L163.568 5.7182ZM163.568 33.9849L164.568 33.9849L164.568 33.9849L163.568 33.9849ZM159.659 42.4274L160.283 43.2089L160.283 43.2089L159.659 42.4274ZM163.568 26.9182L162.568 26.9182L162.568 26.9182L163.568 26.9182ZM125.766 43.1579L142.687 56.2776L143.912 54.6971L126.992 41.5774L125.766 43.1579ZM121.432 5.7182L121.432 33.9849L123.432 33.9849L123.432 5.7182L121.432 5.7182ZM143.052 -0.572503L122.185 4.74921L122.679 6.68719L143.547 1.36547L143.052 -0.572503ZM163.822 4.75099L143.554 -0.570732L143.046 1.3637L163.314 6.68542L163.822 4.75099ZM143.923 56.2689L160.283 43.2089L159.035 41.6459L142.676 54.7059L143.923 56.2689ZM160.283 43.2089C162.993 41.0457 164.568 37.6093 164.568 33.9849L162.568 33.9849C162.568 37.0459 161.236 39.8893 159.035 41.6459L160.283 43.2089ZM126.992 41.5774C124.779 39.8619 123.432 37.0357 123.432 33.9849L121.432 33.9849C121.432 37.607 123.029 41.0358 125.766 43.1579L126.992 41.5774ZM164.568 19.8515V12.7849H162.568V19.8515H164.568ZM164.568 12.7849V5.7182H162.568V12.7849H164.568ZM164.568 33.9849L164.568 26.9182L162.568 26.9182L162.568 33.9849L164.568 33.9849ZM164.568 26.9182V19.8515H162.568V26.9182H164.568Z" fill="#FFEF99" mask="url(#path-6-inside-2_554_4001)"/>
<rect x="140.879" y="5.27734" width="3" height="3" transform="rotate(-45 140.879 5.27734)" fill="#FFEF99"/>
<rect x="140.879" y="49.8379" width="3" height="3" transform="rotate(-45 140.879 49.8379)" fill="#FFEF99"/>
<rect x="158.162" y="8.80273" width="3" height="3" fill="#FFEF99"/>
<rect x="154.567" y="38.4844" width="3" height="3" fill="#FFEF99"/>
<rect x="124.805" y="8.80273" width="3" height="3" fill="#FFEF99"/>
<rect x="128.342" y="38.4844" width="3" height="3" fill="#FFEF99"/>
<path d="M126.926 10.6429L156.177 39.7773" stroke="#FFEF99" stroke-miterlimit="10"/>
<path d="M124.978 19.4283L134.668 23.3125" stroke="#FFEF99" stroke-miterlimit="10"/>
<path d="M139.647 34.9538L135.747 44.6055" stroke="#FFEF99" stroke-miterlimit="10"/>
<path d="M135.384 8.8489L139.479 18.4199" stroke="#FFEF99" stroke-miterlimit="10"/>
<path d="M134.737 30.158L125.128 34.2363" stroke="#FFEF99" stroke-miterlimit="10"/>
<path d="M123.989 22.6697L134.211 24.8125" stroke="#FFEF99" stroke-miterlimit="10"/>
<path d="M141.15 35.4073L138.999 45.5879" stroke="#FFEF99" stroke-miterlimit="10"/>
<path d="M132.386 10.4481L138.092 19.1621" stroke="#FFEF99" stroke-miterlimit="10"/>
<path d="M135.477 31.5447L126.729 37.2285" stroke="#FFEF99" stroke-miterlimit="10"/>
<path d="M126.857 15.8873L135.537 21.6758" stroke="#FFEF99" stroke-miterlimit="10"/>
<path d="M138.002 34.0877L132.19 42.7324" stroke="#FFEF99" stroke-miterlimit="10"/>
<path d="M139.228 7.67301L141.255 17.8789" stroke="#FFEF99" stroke-miterlimit="10"/>
<path d="M134.189 28.3864L123.942 30.4062" stroke="#FFEF99" stroke-miterlimit="10"/>
<path d="M159.271 26.6465L126.305 26.6465" stroke="#FFEF99" stroke-miterlimit="10"/>
<path d="M159.271 10.4396L129.819 39.7734" stroke="#FFEF99" stroke-miterlimit="10"/>
<path d="M161.021 19.4225L151.331 23.3066" stroke="#FFEF99" stroke-miterlimit="10"/>
<path d="M146.352 34.946L150.252 44.5977" stroke="#FFEF99" stroke-miterlimit="10"/>
<path d="M150.615 8.84499L146.521 18.416" stroke="#FFEF99" stroke-miterlimit="10"/>
<path d="M151.263 30.156L160.872 34.2344" stroke="#FFEF99" stroke-miterlimit="10"/>
<path d="M162.01 22.6639L151.788 24.8066" stroke="#FFEF99" stroke-miterlimit="10"/>
<path d="M144.849 35.3995L147 45.5801" stroke="#FFEF99" stroke-miterlimit="10"/>
<path d="M153.613 10.4403L147.907 19.1543" stroke="#FFEF99" stroke-miterlimit="10"/>
<path d="M150.522 31.5349L159.271 37.2188" stroke="#FFEF99" stroke-miterlimit="10"/>
<path d="M159.142 15.8834L150.462 21.6719" stroke="#FFEF99" stroke-miterlimit="10"/>
<path d="M147.997 34.0838L153.809 42.7285" stroke="#FFEF99" stroke-miterlimit="10"/>
<path d="M146.771 7.67106L144.744 17.877" stroke="#FFEF99" stroke-miterlimit="10"/>
<path d="M151.81 28.3864L162.057 30.4062" stroke="#FFEF99" stroke-miterlimit="10"/>
<path d="M142.954 5.14532L142.954 49.9707" stroke="#FFEF99" stroke-miterlimit="10"/>
<mask id="path-42-outside-3_554_4001" maskUnits="userSpaceOnUse" x="126.546" y="10.168" width="33" height="33" fill="black">
<rect fill="white" x="126.546" y="10.168" width="33" height="33"/>
<path d="M158.162 26.4761C158.162 34.9305 151.308 41.7842 142.854 41.7842C134.4 41.7842 127.546 34.9305 127.546 26.4761C127.546 18.0216 134.4 11.168 142.854 11.168C151.308 11.168 158.162 18.0216 158.162 26.4761Z"/>
</mask>
<path d="M158.162 26.4761C158.162 34.9305 151.308 41.7842 142.854 41.7842C134.4 41.7842 127.546 34.9305 127.546 26.4761C127.546 18.0216 134.4 11.168 142.854 11.168C151.308 11.168 158.162 18.0216 158.162 26.4761Z" fill="#0A0A0A"/>
<path d="M158.662 26.4761C158.662 26.3461 158.661 26.2164 158.657 26.0872L157.658 26.1113C157.661 26.2325 157.662 26.3541 157.662 26.4761H158.662ZM158.62 25.3125C158.601 25.0534 158.576 24.7959 158.545 24.5404L157.552 24.6616C157.581 24.901 157.605 25.1422 157.623 25.3851L158.62 25.3125ZM158.432 23.7727C158.388 23.5168 158.337 23.263 158.281 23.0114L157.305 23.2297C157.358 23.4652 157.405 23.7029 157.446 23.9426L158.432 23.7727ZM158.093 22.2585C158.024 22.0083 157.949 21.7607 157.868 21.5157L156.919 21.8292C156.994 22.0586 157.065 22.2905 157.129 22.5247L158.093 22.2585ZM157.607 20.7849C157.513 20.543 157.414 20.304 157.309 20.068L156.395 20.4738C156.493 20.6948 156.586 20.9186 156.674 21.1451L157.607 20.7849ZM156.977 19.3667C156.86 19.1354 156.738 18.9073 156.611 18.6826L155.741 19.1763C155.86 19.3867 155.975 19.6004 156.084 19.817L156.977 19.3667ZM156.211 18.0174C156.072 17.7988 155.928 17.5838 155.779 17.3727L154.962 17.9492C155.102 18.147 155.237 18.3484 155.367 18.5532L156.211 18.0174ZM155.317 16.7498C155.157 16.546 154.993 16.3461 154.824 16.1504L154.067 16.8039C154.226 16.9873 154.379 17.1746 154.529 17.3656L155.317 16.7498ZM154.303 15.5757C154.125 15.3884 153.942 15.2055 153.754 15.0271L153.065 15.7513C153.24 15.9184 153.412 16.0898 153.579 16.2653L154.303 15.5757ZM153.18 14.5059C152.984 14.337 152.784 14.1727 152.58 14.0134L151.964 14.8013C152.156 14.9506 152.343 15.1045 152.526 15.2629L153.18 14.5059ZM151.957 13.5507C151.746 13.4017 151.531 13.2578 151.313 13.1191L150.777 13.9634C150.982 14.0934 151.183 14.2282 151.381 14.3678L151.957 13.5507ZM150.647 12.7195C150.423 12.592 150.195 12.4698 149.963 12.3531L149.513 13.246C149.73 13.3553 149.943 13.4697 150.154 13.5892L150.647 12.7195ZM149.262 12.0208C149.026 11.9161 148.787 11.8169 148.545 11.7235L148.185 12.6564C148.412 12.7439 148.635 12.8367 148.856 12.9348L149.262 12.0208ZM147.814 11.462C147.569 11.3811 147.322 11.306 147.072 11.237L146.805 12.2009C147.04 12.2656 147.271 12.3358 147.501 12.4116L147.814 11.462ZM146.319 11.0489C146.067 10.9927 145.813 10.9424 145.557 10.8983L145.388 11.8838C145.627 11.9251 145.865 11.9721 146.1 12.0248L146.319 11.0489ZM144.79 10.7854C144.534 10.7541 144.277 10.729 144.018 10.7102L143.945 11.7075C144.188 11.7252 144.429 11.7487 144.669 11.778L144.79 10.7854ZM143.243 10.6727C143.114 10.6695 142.984 10.668 142.854 10.668V11.668C142.976 11.668 143.098 11.6694 143.219 11.6724L143.243 10.6727ZM142.854 10.668C142.724 10.668 142.594 10.6695 142.465 10.6727L142.489 11.6724C142.61 11.6694 142.732 11.668 142.854 11.668V10.668ZM141.69 10.7102C141.431 10.729 141.174 10.7541 140.918 10.7854L141.04 11.778C141.279 11.7487 141.52 11.7252 141.763 11.7075L141.69 10.7102ZM140.151 10.8983C139.895 10.9424 139.641 10.9927 139.389 11.0489L139.608 12.0248C139.843 11.9721 140.081 11.9251 140.32 11.8838L140.151 10.8983ZM138.636 11.237C138.386 11.306 138.139 11.3811 137.894 11.462L138.207 12.4116C138.437 12.3358 138.668 12.2656 138.903 12.2009L138.636 11.237ZM137.163 11.7235C136.921 11.8169 136.682 11.9161 136.446 12.0208L136.852 12.9348C137.073 12.8367 137.297 12.7439 137.523 12.6564L137.163 11.7235ZM135.745 12.3531C135.513 12.4698 135.285 12.592 135.061 12.7195L135.554 13.5892C135.765 13.4697 135.978 13.3553 136.195 13.246L135.745 12.3531ZM134.395 13.1191C134.177 13.2578 133.962 13.4018 133.751 13.5507L134.327 14.3678C134.525 14.2282 134.726 14.0934 134.931 13.9634L134.395 13.1191ZM133.128 14.0134C132.924 14.1728 132.724 14.337 132.528 14.5059L133.182 15.2629C133.365 15.1045 133.552 14.9506 133.744 14.8013L133.128 14.0134ZM131.954 15.0271C131.766 15.2055 131.583 15.3884 131.405 15.5757L132.129 16.2653C132.296 16.0898 132.468 15.9184 132.643 15.7513L131.954 15.0271ZM130.884 16.1504C130.715 16.3461 130.551 16.546 130.391 16.7498L131.179 17.3656C131.329 17.1746 131.482 16.9873 131.641 16.8039L130.884 16.1504ZM129.929 17.3727C129.78 17.5838 129.636 17.7988 129.497 18.0174L130.341 18.5532C130.471 18.3484 130.606 18.147 130.746 17.9492L129.929 17.3727ZM129.097 18.6826C128.97 18.9073 128.848 19.1354 128.731 19.3667L129.624 19.817C129.733 19.6004 129.848 19.3868 129.967 19.1763L129.097 18.6826ZM128.399 20.068C128.294 20.304 128.195 20.543 128.101 20.7849L129.034 21.1451C129.122 20.9186 129.215 20.6948 129.313 20.4738L128.399 20.068ZM127.84 21.5157C127.759 21.7607 127.684 22.0083 127.615 22.2585L128.579 22.5247C128.643 22.2905 128.714 22.0586 128.79 21.8292L127.84 21.5157ZM127.427 23.0114C127.371 23.263 127.32 23.5168 127.276 23.7727L128.262 23.9426C128.303 23.7029 128.35 23.4652 128.403 23.2297L127.427 23.0114ZM127.163 24.5404C127.132 24.7959 127.107 25.0534 127.088 25.3125L128.085 25.3851C128.103 25.1422 128.127 24.901 128.156 24.6616L127.163 24.5404ZM127.051 26.0872C127.047 26.2164 127.046 26.3461 127.046 26.4761H128.046C128.046 26.3541 128.047 26.2325 128.05 26.1113L127.051 26.0872ZM127.046 26.4761C127.046 26.6061 127.047 26.7357 127.051 26.865L128.05 26.8409C128.047 26.7196 128.046 26.598 128.046 26.4761H127.046ZM127.088 27.6397C127.107 27.8988 127.132 28.1562 127.163 28.4118L128.156 28.2906C128.127 28.0512 128.103 27.8099 128.085 27.5671L127.088 27.6397ZM127.276 29.1795C127.32 29.4354 127.371 29.6892 127.427 29.9407L128.403 29.7225C128.35 29.4869 128.303 29.2493 128.262 29.0096L127.276 29.1795ZM127.615 30.6937C127.684 30.9438 127.759 31.1915 127.84 31.4365L128.79 31.1229C128.714 30.8936 128.643 30.6617 128.579 30.4275L127.615 30.6937ZM128.101 32.1672C128.195 32.4091 128.294 32.6482 128.399 32.8841L129.313 32.4784C129.215 32.2574 129.122 32.0336 129.034 31.8071L128.101 32.1672ZM128.731 33.5855C128.848 33.8168 128.97 34.0449 129.097 34.2695L129.967 33.7758C129.848 33.5654 129.733 33.3518 129.624 33.1351L128.731 33.5855ZM129.497 34.9347C129.636 35.1534 129.78 35.3683 129.929 35.5795L130.746 35.003C130.606 34.8052 130.471 34.6038 130.341 34.3989L129.497 34.9347ZM130.391 36.2023C130.551 36.4062 130.715 36.6061 130.884 36.8018L131.641 36.1483C131.482 35.9649 131.329 35.7776 131.179 35.5866L130.391 36.2023ZM131.405 37.3765C131.583 37.5638 131.766 37.7467 131.954 37.9251L132.643 37.2009C132.468 37.0338 132.296 36.8623 132.129 36.6868L131.405 37.3765ZM132.528 38.4462C132.724 38.6152 132.924 38.7794 133.128 38.9388L133.744 38.1508C133.552 38.0015 133.365 37.8476 133.182 37.6893L132.528 38.4462ZM133.751 39.4014C133.962 39.5504 134.177 39.6944 134.395 39.8331L134.931 38.9888C134.726 38.8588 134.525 38.7239 134.327 38.5844L133.751 39.4014ZM135.061 40.2327C135.285 40.3602 135.513 40.4824 135.745 40.5991L136.195 39.7062C135.978 39.5969 135.765 39.4825 135.554 39.363L135.061 40.2327ZM136.446 40.9313C136.682 41.0361 136.921 41.1353 137.163 41.2286L137.523 40.2957C137.297 40.2083 137.073 40.1155 136.852 40.0174L136.446 40.9313ZM137.894 41.4902C138.139 41.5711 138.386 41.6461 138.636 41.7152L138.903 40.7513C138.668 40.6866 138.437 40.6163 138.207 40.5406L137.894 41.4902ZM139.389 41.9033C139.641 41.9595 139.895 42.0098 140.151 42.0539L140.32 41.0684C140.081 41.0271 139.843 40.98 139.608 40.9274L139.389 41.9033ZM140.918 42.1668C141.174 42.198 141.431 42.2232 141.69 42.242L141.763 41.2447C141.52 41.227 141.279 41.2034 141.04 41.1742L140.918 42.1668ZM142.465 42.2795C142.594 42.2826 142.724 42.2842 142.854 42.2842V41.2842C142.732 41.2842 142.61 41.2827 142.489 41.2798L142.465 42.2795ZM142.854 42.2842C142.984 42.2842 143.114 42.2826 143.243 42.2795L143.219 41.2798C143.098 41.2827 142.976 41.2842 142.854 41.2842V42.2842ZM144.018 42.242C144.277 42.2232 144.534 42.198 144.79 42.1668L144.669 41.1742C144.429 41.2034 144.188 41.227 143.945 41.2447L144.018 42.242ZM145.557 42.0539C145.813 42.0098 146.067 41.9595 146.319 41.9033L146.1 40.9274C145.865 40.98 145.627 41.0271 145.388 41.0684L145.557 42.0539ZM147.072 41.7152C147.322 41.6461 147.569 41.5711 147.814 41.4902L147.501 40.5406C147.271 40.6163 147.04 40.6866 146.805 40.7513L147.072 41.7152ZM148.545 41.2286C148.787 41.1353 149.026 41.0361 149.262 40.9313L148.856 40.0174C148.635 40.1155 148.412 40.2083 148.185 40.2957L148.545 41.2286ZM149.963 40.5991C150.195 40.4824 150.423 40.3602 150.647 40.2327L150.154 39.363C149.943 39.4825 149.73 39.5969 149.513 39.7062L149.963 40.5991ZM151.313 39.8331C151.531 39.6944 151.746 39.5504 151.957 39.4014L151.381 38.5843C151.183 38.7239 150.982 38.8588 150.777 38.9887L151.313 39.8331ZM152.58 38.9388C152.784 38.7794 152.984 38.6152 153.18 38.4462L152.526 37.6893C152.343 37.8476 152.156 38.0015 151.964 38.1508L152.58 38.9388ZM153.754 37.9251C153.942 37.7467 154.125 37.5638 154.303 37.3765L153.579 36.6868C153.412 36.8623 153.24 37.0338 153.065 37.2009L153.754 37.9251ZM154.824 36.8018C154.993 36.6061 155.157 36.4062 155.317 36.2023L154.529 35.5866C154.379 35.7776 154.226 35.9649 154.067 36.1483L154.824 36.8018ZM155.779 35.5795C155.928 35.3683 156.072 35.1534 156.211 34.9347L155.367 34.3989C155.237 34.6037 155.102 34.8052 154.962 35.003L155.779 35.5795ZM156.611 34.2695C156.738 34.0449 156.86 33.8168 156.977 33.5855L156.084 33.1351C155.975 33.3518 155.86 33.5654 155.741 33.7758L156.611 34.2695ZM157.309 32.8841C157.414 32.6482 157.513 32.4091 157.607 32.1672L156.674 31.8071C156.586 32.0336 156.493 32.2574 156.395 32.4784L157.309 32.8841ZM157.868 31.4365C157.949 31.1915 158.024 30.9438 158.093 30.6937L157.129 30.4275C157.065 30.6617 156.994 30.8936 156.919 31.1229L157.868 31.4365ZM158.281 29.9407C158.337 29.6892 158.388 29.4354 158.432 29.1795L157.446 29.0096C157.405 29.2493 157.358 29.4869 157.305 29.7225L158.281 29.9407ZM158.545 28.4118C158.576 28.1562 158.601 27.8988 158.62 27.6397L157.623 27.5671C157.605 27.81 157.581 28.0512 157.552 28.2906L158.545 28.4118ZM158.657 26.865C158.661 26.7357 158.662 26.6061 158.662 26.4761H157.662C157.662 26.598 157.661 26.7196 157.658 26.8409L158.657 26.865ZM159.162 26.4761C159.162 26.3421 159.161 26.2084 159.157 26.0751L157.158 26.1234C157.161 26.2406 157.162 26.3582 157.162 26.4761H159.162ZM159.119 25.2762C159.099 25.0089 159.073 24.7434 159.041 24.4798L157.056 24.7222C157.084 24.9536 157.107 25.1867 157.124 25.4214L159.119 25.2762ZM158.925 23.6878C158.879 23.4238 158.827 23.1619 158.769 22.9023L156.817 23.3388C156.868 23.5663 156.914 23.796 156.954 24.0275L158.925 23.6878ZM158.575 22.1254C158.504 21.8673 158.426 21.6117 158.343 21.3589L156.444 21.986C156.517 22.2076 156.585 22.4316 156.647 22.6578L158.575 22.1254ZM158.073 20.6049C157.977 20.3553 157.874 20.1086 157.766 19.8652L155.938 20.6767C156.033 20.8901 156.123 21.1063 156.207 21.3251L158.073 20.6049ZM157.423 19.1415C157.303 18.9029 157.177 18.6675 157.045 18.4358L155.306 19.4232C155.422 19.6265 155.532 19.8329 155.638 20.0422L157.423 19.1415ZM156.633 17.7495C156.49 17.524 156.342 17.3022 156.188 17.0844L154.554 18.2374C154.689 18.4286 154.819 18.6232 154.945 18.8211L156.633 17.7495ZM155.711 16.442C155.546 16.2316 155.377 16.0255 155.203 15.8236L153.689 17.1306C153.842 17.3079 153.991 17.4889 154.135 17.6735L155.711 16.442ZM154.665 15.2309C154.481 15.0377 154.292 14.849 154.099 14.665L152.72 16.1133C152.89 16.2749 153.055 16.4405 153.217 16.6102L154.665 15.2309ZM153.506 14.1275C153.305 13.9532 153.098 13.7838 152.888 13.6194L151.657 15.1953C151.841 15.3396 152.022 15.4883 152.199 15.6413L153.506 14.1275ZM152.246 13.1422C152.028 12.9885 151.806 12.84 151.581 12.6969L150.509 14.3856C150.707 14.5112 150.901 14.6415 151.093 14.7764L152.246 13.1422ZM150.894 12.2847C150.663 12.1531 150.427 12.0271 150.189 11.9067L149.288 13.6924C149.497 13.798 149.704 13.9086 149.907 14.024L150.894 12.2847ZM149.465 11.5638C149.221 11.4557 148.975 11.3534 148.725 11.2571L148.005 13.1229C148.224 13.2073 148.44 13.297 148.653 13.3918L149.465 11.5638ZM147.971 10.9872C147.718 10.9038 147.463 10.8263 147.205 10.755L146.672 12.6828C146.899 12.7453 147.123 12.8132 147.344 12.8864L147.971 10.9872ZM146.428 10.561C146.168 10.5029 145.906 10.4511 145.642 10.4056L145.303 12.3765C145.534 12.4164 145.764 12.4619 145.991 12.5128L146.428 10.561ZM144.85 10.289C144.587 10.2568 144.321 10.2309 144.054 10.2115L143.909 12.2062C144.143 12.2233 144.377 12.246 144.608 12.2743L144.85 10.289ZM143.255 10.1728C143.122 10.1696 142.988 10.168 142.854 10.168V12.168C142.972 12.168 143.09 12.1694 143.207 12.1722L143.255 10.1728ZM142.854 10.168C142.72 10.168 142.586 10.1696 142.453 10.1728L142.501 12.1722C142.619 12.1694 142.736 12.168 142.854 12.168V10.168ZM141.654 10.2115C141.387 10.2309 141.121 10.2568 140.858 10.289L141.1 12.2743C141.331 12.246 141.565 12.2233 141.799 12.2062L141.654 10.2115ZM140.066 10.4056C139.802 10.4511 139.54 10.5029 139.28 10.561L139.717 12.5128C139.944 12.4619 140.174 12.4164 140.405 12.3765L140.066 10.4056ZM138.503 10.755C138.245 10.8263 137.99 10.9038 137.737 10.9872L138.364 12.8864C138.586 12.8132 138.809 12.7453 139.036 12.6828L138.503 10.755ZM136.983 11.2571C136.733 11.3534 136.487 11.4557 136.243 11.5638L137.055 13.3918C137.268 13.297 137.484 13.2073 137.703 13.1229L136.983 11.2571ZM135.519 11.9067C135.281 12.0271 135.045 12.1531 134.814 12.2847L135.801 14.024C136.004 13.9086 136.211 13.798 136.42 13.6924L135.519 11.9067ZM134.127 12.6969C133.902 12.84 133.68 12.9885 133.462 13.1422L134.615 14.7764C134.807 14.6415 135.001 14.5112 135.199 14.3856L134.127 12.6969ZM132.82 13.6194C132.61 13.7838 132.403 13.9532 132.202 14.1275L133.509 15.6413C133.686 15.4883 133.867 15.3396 134.051 15.1953L132.82 13.6194ZM131.609 14.665C131.416 14.849 131.227 15.0377 131.043 15.2309L132.491 16.6102C132.653 16.4405 132.818 16.2749 132.988 16.1133L131.609 14.665ZM130.505 15.8236C130.331 16.0255 130.162 16.2317 129.997 16.442L131.573 17.6735C131.718 17.4889 131.866 17.3079 132.019 17.1306L130.505 15.8236ZM129.52 17.0844C129.366 17.3022 129.218 17.524 129.075 17.7496L130.764 18.8211C130.889 18.6232 131.019 18.4286 131.154 18.2374L129.52 17.0844ZM128.663 18.4358C128.531 18.6675 128.405 18.9029 128.285 19.1416L130.07 20.0422C130.176 19.8329 130.286 19.6265 130.402 19.4232L128.663 18.4358ZM127.942 19.8652C127.834 20.1086 127.731 20.3553 127.635 20.6049L129.501 21.3251C129.585 21.1063 129.675 20.8901 129.77 20.6767L127.942 19.8652ZM127.365 21.3589C127.282 21.6117 127.204 21.8673 127.133 22.1254L129.061 22.6578C129.123 22.4316 129.191 22.2076 129.264 21.986L127.365 21.3589ZM126.939 22.9023C126.881 23.1619 126.829 23.4238 126.783 23.6878L128.754 24.0275C128.794 23.796 128.84 23.5663 128.891 23.3388L126.939 22.9023ZM126.667 24.4798C126.635 24.7434 126.609 25.0089 126.589 25.2762L128.584 25.4214C128.601 25.1867 128.624 24.9536 128.652 24.7222L126.667 24.4798ZM126.551 26.0751C126.548 26.2084 126.546 26.3421 126.546 26.4761H128.546C128.546 26.3582 128.547 26.2406 128.55 26.1234L126.551 26.0751ZM126.546 26.4761C126.546 26.6101 126.548 26.7438 126.551 26.8771L128.55 26.8288C128.547 26.7116 128.546 26.594 128.546 26.4761H126.546ZM126.589 27.676C126.609 27.9432 126.635 28.2088 126.667 28.4724L128.652 28.23C128.624 27.9986 128.601 27.7655 128.584 27.5308L126.589 27.676ZM126.783 29.2644C126.829 29.5284 126.881 29.7903 126.939 30.0499L128.891 29.6134C128.84 29.3858 128.794 29.1562 128.754 28.9247L126.783 29.2644ZM127.133 30.8268C127.204 31.0849 127.282 31.3405 127.365 31.5933L129.264 30.9662C129.191 30.7446 129.123 30.5206 129.061 30.2944L127.133 30.8268ZM127.635 32.3473C127.731 32.5969 127.834 32.8435 127.942 33.087L129.77 32.2755C129.675 32.062 129.585 31.8458 129.501 31.627L127.635 32.3473ZM128.285 33.8106C128.405 34.0493 128.531 34.2846 128.663 34.5164L130.402 33.529C130.286 33.3257 130.176 33.1193 130.07 32.91L128.285 33.8106ZM129.075 35.2026C129.218 35.4282 129.366 35.6499 129.52 35.8678L131.154 34.7147C131.019 34.5236 130.889 34.3289 130.764 34.1311L129.075 35.2026ZM129.997 36.5102C130.162 36.7205 130.331 36.9267 130.505 37.1285L132.019 35.8215C131.866 35.6443 131.718 35.4633 131.573 35.2787L129.997 36.5102ZM131.043 37.7213C131.227 37.9145 131.416 38.1032 131.609 38.2871L132.988 36.8389C132.818 36.6773 132.653 36.5116 132.491 36.342L131.043 37.7213ZM132.202 38.8247C132.403 38.999 132.61 39.1684 132.82 39.3327L134.051 37.7569C133.867 37.6126 133.686 37.4639 133.509 37.3109L132.202 38.8247ZM133.462 39.81C133.68 39.9637 133.902 40.1122 134.127 40.2553L135.199 38.5666C135.001 38.441 134.807 38.3107 134.615 38.1758L133.462 39.81ZM134.814 40.6675C135.045 40.799 135.281 40.9251 135.519 41.0455L136.42 39.2598C136.211 39.1542 136.004 39.0436 135.801 38.9282L134.814 40.6675ZM136.243 41.3883C136.487 41.4964 136.733 41.5987 136.983 41.6951L137.703 39.8293C137.484 39.7448 137.268 39.6551 137.055 39.5604L136.243 41.3883ZM137.737 41.9649C137.99 42.0484 138.245 42.1259 138.503 42.1972L139.036 40.2693C138.809 40.2069 138.586 40.139 138.364 40.0658L137.737 41.9649ZM139.28 42.3912C139.54 42.4492 139.802 42.5011 140.066 42.5466L140.405 40.5757C140.174 40.5358 139.944 40.4903 139.717 40.4394L139.28 42.3912ZM140.858 42.6631C141.121 42.6953 141.387 42.7212 141.654 42.7407L141.799 40.746C141.565 40.7289 141.331 40.7061 141.1 40.6779L140.858 42.6631ZM142.453 42.7794C142.586 42.7826 142.72 42.7842 142.854 42.7842V40.7842C142.736 40.7842 142.619 40.7828 142.501 40.78L142.453 42.7794ZM142.854 42.7842C142.988 42.7842 143.122 42.7826 143.255 42.7794L143.207 40.78C143.09 40.7828 142.972 40.7842 142.854 40.7842V42.7842ZM144.054 42.7407C144.321 42.7212 144.587 42.6953 144.85 42.6631L144.608 40.6779C144.377 40.7061 144.143 40.7289 143.909 40.746L144.054 42.7407ZM145.642 42.5466C145.906 42.5011 146.168 42.4492 146.428 42.3912L145.991 40.4394C145.764 40.4903 145.534 40.5358 145.303 40.5757L145.642 42.5466ZM147.205 42.1972C147.463 42.1259 147.718 42.0484 147.971 41.9649L147.344 40.0658C147.123 40.139 146.899 40.2069 146.672 40.2693L147.205 42.1972ZM148.725 41.6951C148.975 41.5987 149.221 41.4964 149.465 41.3883L148.653 39.5604C148.44 39.6551 148.224 39.7448 148.005 39.8293L148.725 41.6951ZM150.189 41.0455C150.427 40.9251 150.663 40.799 150.894 40.6675L149.907 38.9282C149.704 39.0436 149.497 39.1542 149.288 39.2598L150.189 41.0455ZM151.581 40.2553C151.806 40.1122 152.028 39.9637 152.246 39.81L151.093 38.1758C150.901 38.3107 150.707 38.441 150.509 38.5666L151.581 40.2553ZM152.888 39.3327C153.098 39.1684 153.305 38.999 153.506 38.8247L152.199 37.3109C152.022 37.4639 151.841 37.6126 151.657 37.7569L152.888 39.3327ZM154.099 38.2871C154.292 38.1032 154.481 37.9145 154.665 37.7213L153.217 36.342C153.055 36.5116 152.89 36.6773 152.72 36.8388L154.099 38.2871ZM155.203 37.1285C155.377 36.9267 155.546 36.7205 155.711 36.5102L154.135 35.2787C153.991 35.4633 153.842 35.6443 153.689 35.8215L155.203 37.1285ZM156.188 35.8677C156.342 35.6499 156.49 35.4282 156.633 35.2026L154.945 34.131C154.819 34.3289 154.689 34.5236 154.554 34.7147L156.188 35.8677ZM157.045 34.5164C157.177 34.2846 157.303 34.0493 157.423 33.8106L155.638 32.91C155.532 33.1193 155.422 33.3257 155.306 33.529L157.045 34.5164ZM157.766 33.087C157.874 32.8435 157.977 32.5969 158.073 32.3473L156.207 31.627C156.123 31.8458 156.033 32.062 155.938 32.2755L157.766 33.087ZM158.343 31.5933C158.426 31.3405 158.504 31.0849 158.575 30.8268L156.647 30.2944C156.585 30.5206 156.517 30.7446 156.444 30.9662L158.343 31.5933ZM158.769 30.0499C158.827 29.7903 158.879 29.5284 158.925 29.2644L156.954 28.9247C156.914 29.1562 156.868 29.3858 156.817 29.6134L158.769 30.0499ZM159.041 28.4724C159.073 28.2088 159.099 27.9432 159.119 27.676L157.124 27.5308C157.107 27.7655 157.084 27.9986 157.056 28.23L159.041 28.4724ZM159.157 26.8771C159.161 26.7438 159.162 26.6101 159.162 26.4761H157.162C157.162 26.594 157.161 26.7116 157.158 26.8288L159.157 26.8771Z" fill="#FFEF99" mask="url(#path-42-outside-3_554_4001)"/>
<path d="M139.523 14.5346C137.407 14.5346 135.451 15.6634 134.394 17.4959C133.336 19.3284 133.336 21.5861 134.394 23.4185C135.451 25.251 137.407 26.3798 139.523 26.3798C141.639 26.3798 143.594 25.251 144.652 23.4185C145.71 21.5861 145.71 19.3284 144.652 17.4959C143.594 15.6634 141.639 14.5346 139.523 14.5346Z" fill="#0A0A0A" stroke="#FFEF99"/>
<path d="M145.965 14.5346C143.849 14.5346 141.894 15.6634 140.836 17.4959C139.778 19.3284 139.778 21.5861 140.836 23.4185C141.894 25.251 143.849 26.3798 145.965 26.3798C148.081 26.3798 150.036 25.251 151.094 23.4185C152.152 21.5861 152.152 19.3284 151.094 17.4959C150.036 15.6634 148.081 14.5346 145.965 14.5346Z" fill="#0A0A0A" stroke="#FFEF99"/>
<path d="M145.965 38.7467C148.081 38.7467 150.036 37.6178 151.094 35.7853C152.152 33.9529 152.152 31.6952 151.094 29.8627C150.036 28.0303 148.081 26.9014 145.965 26.9014C143.849 26.9014 141.893 28.0303 140.836 29.8627C139.778 31.6952 139.778 33.9529 140.836 35.7853C141.893 37.6178 143.849 38.7467 145.965 38.7467Z" fill="#0A0A0A" stroke="#FFEF99"/>
<path d="M139.522 38.7467C141.638 38.7467 143.593 37.6178 144.651 35.7853C145.709 33.9529 145.709 31.6952 144.651 29.8627C143.593 28.0303 141.638 26.9014 139.522 26.9014C137.406 26.9014 135.451 28.0303 134.393 29.8627C133.335 31.6952 133.335 33.9529 134.393 35.7853C135.451 37.6178 137.406 38.7467 139.522 38.7467Z" fill="#0A0A0A" stroke="#FFEF99"/>
<path d="M149.483 20.7182C147.367 20.7182 145.411 21.847 144.353 23.6795C143.295 25.512 143.295 27.7697 144.353 29.6021C145.411 31.4346 147.367 32.5634 149.483 32.5634C151.599 32.5634 153.554 31.4346 154.612 29.6021C155.67 27.7697 155.67 25.512 154.612 23.6795C153.554 21.847 151.599 20.7182 149.483 20.7182Z" fill="#0A0A0A" stroke="#FFEF99"/>
<path d="M136.004 32.5631C138.12 32.5631 140.075 31.4342 141.133 29.6018C142.191 27.7693 142.191 25.5116 141.133 23.6791C140.075 21.8467 138.12 20.7178 136.004 20.7178C133.888 20.7178 131.933 21.8467 130.875 23.6791C129.817 25.5116 129.817 27.7693 130.875 29.6018C131.933 31.4342 133.888 32.5631 136.004 32.5631Z" fill="#0A0A0A" stroke="#FFEF99"/>
<path d="M137.227 16.5825L134.408 21.4641L137.227 26.3456H142.863L145.682 21.4641L142.863 16.5825H137.227Z" fill="#0A0A0A" stroke="#FFEF99"/>
<path d="M142.624 16.5825L139.806 21.4641L142.624 26.3456H148.261L151.079 21.4641L148.261 16.5825H142.624Z" fill="#0A0A0A" stroke="#FFEF99"/>
<path d="M148.261 36.7065L151.079 31.825L148.261 26.9435H142.624L139.805 31.825L142.624 36.7065H148.261Z" fill="#0A0A0A" stroke="#FFEF99"/>
<path d="M142.863 36.7065L145.681 31.825L142.863 26.9435H137.226L134.408 31.825L137.226 36.7065H142.863Z" fill="#0A0A0A" stroke="#FFEF99"/>
<path d="M145.572 21.7642L142.754 26.6457L145.572 31.5272H151.209L154.028 26.6457L151.209 21.7642H145.572Z" fill="#0A0A0A" stroke="#FFEF99"/>
<path d="M139.915 31.5249L142.733 26.6434L139.915 21.7618H134.278L131.46 26.6434L134.278 31.5249H139.915Z" fill="#0A0A0A" stroke="#FFEF99"/>
<mask id="path-56-outside-4_554_4001" maskUnits="userSpaceOnUse" x="131.788" y="15.8125" width="22" height="22" fill="black">
<rect fill="white" x="131.788" y="15.8125" width="22" height="22"/>
<path d="M152.788 26.8125C152.788 32.3353 148.311 36.8125 142.788 36.8125C137.265 36.8125 132.788 32.3353 132.788 26.8125C132.788 21.2897 137.265 16.8125 142.788 16.8125C148.311 16.8125 152.788 21.2897 152.788 26.8125Z"/>
</mask>
<path d="M152.788 26.8125C152.788 32.3353 148.311 36.8125 142.788 36.8125C137.265 36.8125 132.788 32.3353 132.788 26.8125C132.788 21.2897 137.265 16.8125 142.788 16.8125C148.311 16.8125 152.788 21.2897 152.788 26.8125Z" fill="#0A0A0A"/>
<path d="M151.788 26.8125C151.788 31.7831 147.759 35.8125 142.788 35.8125V37.8125C148.863 37.8125 153.788 32.8876 153.788 26.8125H151.788ZM142.788 35.8125C137.818 35.8125 133.788 31.7831 133.788 26.8125H131.788C131.788 32.8876 136.713 37.8125 142.788 37.8125V35.8125ZM133.788 26.8125C133.788 21.8419 137.818 17.8125 142.788 17.8125V15.8125C136.713 15.8125 131.788 20.7374 131.788 26.8125H133.788ZM142.788 17.8125C147.759 17.8125 151.788 21.8419 151.788 26.8125H153.788C153.788 20.7374 148.863 15.8125 142.788 15.8125V17.8125Z" fill="#FFEF99" mask="url(#path-56-outside-4_554_4001)"/>
<path d="M142.625 22.8893L142.639 22.0914L141.804 19.1289L141.589 23.5604C142.027 23.7449 142.615 23.4732 142.625 22.8893H142.625Z" fill="white"/>
<path d="M142.343 26.4028L141.404 24.0232L137.849 20.7505L139.39 23.5471L142.343 26.4028Z" fill="white"/>
<path d="M139.793 24.1153L139.239 23.5415L136.553 22.0371L139.535 25.3224C139.975 25.1432 140.199 24.535 139.793 24.1153H139.793Z" fill="white"/>
<path d="M142.811 26.3096L143.829 23.9633L143.629 19.1352L142.741 22.202L142.811 26.3096Z" fill="white"/>
<path d="M146.721 26.8565L147.518 26.8698L150.481 26.0348L146.049 25.8202C145.865 26.2582 146.137 26.8463 146.721 26.8562V26.8565Z" fill="white"/>
<path d="M145.495 24.0246L146.068 23.4701L147.573 20.7848L144.287 23.7666C144.467 24.207 145.075 24.4307 145.495 24.0246Z" fill="white"/>
<path d="M142.078 26.7991L139.732 25.7807L134.904 25.9806L137.971 26.868L142.078 26.7991Z" fill="white"/>
<path d="M143.207 26.5747L145.586 25.6354L148.859 22.0802L146.063 23.6213L143.207 26.5747Z" fill="white"/>
<path d="M143.035 27.4384L143.974 29.8179L147.53 33.0906L145.989 30.2941L143.035 27.4384Z" fill="white"/>
<path d="M145.585 29.7259L146.139 30.2997L148.825 31.804L145.843 28.5188C145.402 28.698 145.179 29.3061 145.585 29.7259Z" fill="white"/>
<path d="M142.753 30.9519L142.74 31.7497L143.575 34.7122L143.789 30.2808C143.351 30.0963 142.763 30.3679 142.753 30.9519H142.753Z" fill="white"/>
<path d="M143.3 27.042L145.646 28.0605L150.474 27.8606L147.407 26.9731L143.3 27.042Z" fill="white"/>
<path d="M139.884 29.8165L139.31 30.3714L137.806 33.0567L141.091 30.0749C140.912 29.6345 140.303 29.4108 139.884 29.8169V29.8165Z" fill="white"/>
<path d="M142.172 27.2665L139.792 28.2058L136.519 31.7609L139.316 30.2198L142.172 27.2665Z" fill="white"/>
<path d="M138.658 26.9846L137.86 26.9713L134.897 27.8063L139.329 28.0209C139.513 27.583 139.242 26.9948 138.658 26.9846Z" fill="white"/>
<path d="M142.567 27.5315L141.549 29.8778L141.749 34.7059L142.637 31.6391L142.567 27.5315Z" fill="white"/>
</svg>
