<svg width="286" height="63" viewBox="0 0 286 63" fill="none" xmlns="http://www.w3.org/2000/svg">
<path d="M0.1972 26.6602L5.9707 32.4337L11.7442 26.6602L5.9707 20.8867L0.1972 26.6602ZM285.805 26.6602L280.032 20.8867L274.258 26.6602L280.032 32.4337L285.805 26.6602ZM5.9707 27.6602H280.032V25.6602H5.9707V27.6602Z" fill="#FFD67E"/>
<rect width="9.92549" height="9.92549" transform="matrix(0.701758 0.712415 -0.701758 0.712415 164.498 19.5898)" fill="#FFD67E"/>
<rect width="9.92549" height="9.92549" transform="matrix(0.701758 0.712415 -0.701758 0.712415 121.275 19.5898)" fill="#FFD67E"/>
<mask id="path-4-outside-1_554_4155" maskUnits="userSpaceOnUse" x="120.433" y="1.97461" width="46" height="61" fill="black">
<rect fill="white" x="120.433" y="1.97461" width="46" height="61"/>
<path d="M143.301 60.0655L126.38 46.9458C123.905 45.027 122.433 41.8995 122.433 38.563L122.433 10.2963L143.301 4.97461L163.569 10.2963L163.569 38.563C163.569 41.9058 162.115 45.0456 159.66 47.0055L143.301 60.0655Z"/>
</mask>
<path d="M143.301 60.0655L126.38 46.9458C123.905 45.027 122.433 41.8995 122.433 38.563L122.433 10.2963L143.301 4.97461L163.569 10.2963L163.569 38.563C163.569 41.9058 162.115 45.0456 159.66 47.0055L143.301 60.0655Z" fill="#653407"/>
<path d="M126.38 46.9458L125.154 48.5263L125.154 48.5263L126.38 46.9458ZM143.301 60.0655L142.075 61.646L143.319 62.6102L144.548 61.6285L143.301 60.0655ZM122.433 10.2963L121.938 8.35835L120.433 8.74235L120.433 10.2963L122.433 10.2963ZM122.433 38.563L124.433 38.563L124.433 38.563L122.433 38.563ZM143.301 4.97461L143.808 3.04018L143.308 2.90874L142.806 3.03663L143.301 4.97461ZM163.569 10.2963L165.569 10.2963L165.569 8.75366L164.077 8.36189L163.569 10.2963ZM163.569 38.563L161.569 38.563L161.569 38.563L163.569 38.563ZM159.66 47.0055L160.908 48.5685L160.908 48.5685L159.66 47.0055ZM125.154 48.5263L142.075 61.646L144.526 58.4849L127.606 45.3652L125.154 48.5263ZM120.433 10.2963L120.433 38.563L124.433 38.563L124.433 10.2963L120.433 10.2963ZM142.806 3.03663L121.938 8.35835L122.927 12.2343L143.795 6.91258L142.806 3.03663ZM164.077 8.36189L143.808 3.04018L142.793 6.90904L163.061 12.2308L164.077 8.36189ZM165.569 38.563L165.569 10.2963L161.569 10.2963L161.569 38.563L165.569 38.563ZM144.548 61.6285L160.908 48.5685L158.412 45.4425L142.053 58.5025L144.548 61.6285ZM160.908 48.5685C163.872 46.202 165.569 42.4691 165.569 38.563L161.569 38.563C161.569 41.3424 160.358 43.8893 158.412 45.4425L160.908 48.5685ZM127.606 45.3652C125.655 43.8531 124.433 41.3281 124.433 38.563L120.433 38.563C120.433 42.4708 122.155 46.2009 125.154 48.5263L127.606 45.3652Z" fill="#0A0A0A" mask="url(#path-4-outside-1_554_4155)"/>
<mask id="path-6-inside-2_554_4155" fill="white">
<path d="M143.301 55.3098L126.38 42.1896C123.905 40.2708 122.433 37.1431 122.433 33.8065L122.433 5.53872L143.301 0.216797L163.57 5.53872V12.6057V19.6726V26.7395L163.57 33.8065C163.57 37.1494 162.117 40.2894 159.662 42.2493L143.301 55.3098Z"/>
</mask>
<path d="M143.301 55.3098L126.38 42.1896C123.905 40.2708 122.433 37.1431 122.433 33.8065L122.433 5.53872L143.301 0.216797L163.57 5.53872V12.6057V19.6726V26.7395L163.57 33.8065C163.57 37.1494 162.117 40.2894 159.662 42.2493L143.301 55.3098Z" fill="#0A0A0A"/>
<path d="M126.38 42.1896L125.767 42.9799L125.767 42.9799L126.38 42.1896ZM143.301 55.3098L142.689 56.1001L143.31 56.5822L143.925 56.0913L143.301 55.3098ZM122.433 5.53872L122.186 4.56973L121.433 4.76173L121.433 5.53872L122.433 5.53872ZM122.433 33.8065L123.433 33.8065L123.433 33.8065L122.433 33.8065ZM143.301 0.216797L143.555 -0.750419L143.305 -0.81614L143.054 -0.75219L143.301 0.216797ZM163.57 5.53872H164.57V4.76739L163.824 4.5715L163.57 5.53872ZM163.57 33.8065L164.57 33.8065L164.57 33.8065L163.57 33.8065ZM159.662 42.2493L160.285 43.0308L160.285 43.0308L159.662 42.2493ZM163.57 26.7395L162.57 26.7395L162.57 26.7395L163.57 26.7395ZM125.767 42.9799L142.689 56.1001L143.914 54.5195L126.993 41.3993L125.767 42.9799ZM121.433 5.53872L121.433 33.8065L123.433 33.8065L123.433 5.53872L121.433 5.53872ZM143.054 -0.75219L122.186 4.56973L122.68 6.50771L143.548 1.18578L143.054 -0.75219ZM163.824 4.5715L143.555 -0.750419L143.047 1.18401L163.317 6.50593L163.824 4.5715ZM143.925 56.0913L160.285 43.0308L159.038 41.4678L142.677 54.5283L143.925 56.0913ZM160.285 43.0308C162.995 40.8675 164.57 37.4311 164.57 33.8065L162.57 33.8065C162.57 36.8677 161.238 39.7112 159.038 41.4678L160.285 43.0308ZM126.993 41.3993C124.78 39.6838 123.433 36.8574 123.433 33.8065L121.433 33.8065C121.433 37.4288 123.03 40.8577 125.767 42.9799L126.993 41.3993ZM164.57 19.6726V12.6057H162.57V19.6726H164.57ZM164.57 12.6057V5.53872H162.57V12.6057H164.57ZM164.57 33.8065L164.57 26.7395L162.57 26.7395L162.57 33.8065L164.57 33.8065ZM164.57 26.7395V19.6726H162.57V26.7395H164.57Z" fill="#FFEF99" mask="url(#path-6-inside-2_554_4155)"/>
<path d="M125.967 9.48954L136.22 19.5488" stroke="#FFEF99" stroke-miterlimit="10"/>
<path d="M123.025 17.4106L134.924 22.7754" stroke="#FFEF99" stroke-miterlimit="10"/>
<path d="M139.754 34.0689L133.905 47.1309" stroke="#FFEF99" stroke-miterlimit="10"/>
<path d="M133.724 3.42503L139.591 18.0293" stroke="#FFEF99" stroke-miterlimit="10"/>
<path d="M134.991 29.4178L123.067 34.5977" stroke="#FFEF99" stroke-miterlimit="10"/>
<path d="M123.025 21.5171L134.481 24.2305" stroke="#FFEF99" stroke-miterlimit="10"/>
<path d="M141.213 34.5072L137.589 50.0938" stroke="#FFEF99" stroke-miterlimit="10"/>
<path d="M128.105 4.41393L138.246 18.748" stroke="#FFEF99" stroke-miterlimit="10"/>
<path d="M135.709 30.7576L124.041 38.3223" stroke="#FFEF99" stroke-miterlimit="10"/>
<path d="M123.025 12.6268L135.767 21.1875" stroke="#FFEF99" stroke-miterlimit="10"/>
<path d="M138.159 33.2279L130.477 44.4199" stroke="#FFEF99" stroke-miterlimit="10"/>
<path d="M138.476 2.04717L141.315 17.5039" stroke="#FFEF99" stroke-miterlimit="10"/>
<path d="M134.46 27.6969L123.025 30.4062" stroke="#FFEF99" stroke-miterlimit="10"/>
<path d="M143.164 3.98694L143.164 50.1348" stroke="#FFEF99" stroke-miterlimit="10"/>
<path d="M136.847 25.8516H125.525" stroke="#FFEF99" stroke-miterlimit="10"/>
<path d="M134.46 34.1517L129.386 39.2051" stroke="#FFEF99" stroke-miterlimit="10"/>
<path d="M160.332 9.48954L150.079 19.5488" stroke="#FFEF99" stroke-miterlimit="10"/>
<path d="M163.273 17.4106L151.374 22.7754" stroke="#FFEF99" stroke-miterlimit="10"/>
<path d="M146.545 34.0689L152.394 47.1309" stroke="#FFEF99" stroke-miterlimit="10"/>
<path d="M152.575 3.42503L146.708 18.0293" stroke="#FFEF99" stroke-miterlimit="10"/>
<path d="M151.308 29.4178L163.231 34.5977" stroke="#FFEF99" stroke-miterlimit="10"/>
<path d="M163.273 21.5171L151.818 24.2305" stroke="#FFEF99" stroke-miterlimit="10"/>
<path d="M145.086 34.5072L148.71 50.0938" stroke="#FFEF99" stroke-miterlimit="10"/>
<path d="M158.193 4.41393L148.052 18.748" stroke="#FFEF99" stroke-miterlimit="10"/>
<path d="M150.59 30.7576L162.258 38.3223" stroke="#FFEF99" stroke-miterlimit="10"/>
<path d="M163.273 12.6268L150.532 21.1875" stroke="#FFEF99" stroke-miterlimit="10"/>
<path d="M148.139 33.2279L155.822 44.4199" stroke="#FFEF99" stroke-miterlimit="10"/>
<path d="M147.823 2.04717L144.984 17.5039" stroke="#FFEF99" stroke-miterlimit="10"/>
<path d="M151.839 27.6969L163.273 30.4062" stroke="#FFEF99" stroke-miterlimit="10"/>
<path d="M143.135 3.98694L143.135 50.1348" stroke="#FFEF99" stroke-miterlimit="10"/>
<path d="M149.452 25.8516H160.774" stroke="#FFEF99" stroke-miterlimit="10"/>
<path d="M151.839 34.1517L156.913 39.2051" stroke="#FFEF99" stroke-miterlimit="10"/>
<path d="M130.778 34.3676L143.014 13.1738L155.25 34.3676H130.778Z" fill="#0A0A0A" stroke="#FFEF99"/>
<path d="M131.878 24.8723L128.27 31.1219L131.878 37.3715H139.094L142.703 31.1219L139.094 24.8723H131.878Z" fill="#0A0A0A" stroke="#FFEF99"/>
<path d="M133.103 26.9932L130.72 31.1209L133.103 35.2485H137.869L140.252 31.1209L137.869 26.9932H133.103Z" fill="#0A0A0A" stroke="#FFEF99"/>
<path d="M146.908 24.8723L143.3 31.1219L146.908 37.3715H154.125L157.733 31.1219L154.125 24.8723H146.908Z" fill="#0A0A0A" stroke="#FFEF99"/>
<path d="M148.133 26.9932L145.75 31.1208L148.133 35.2484H152.899L155.282 31.1208L152.899 26.9932H148.133Z" fill="#0A0A0A" stroke="#FFEF99"/>
<path d="M139.406 12.3879L135.798 18.6375L139.406 24.8871H146.623L150.231 18.6375L146.623 12.3879H139.406Z" fill="#0A0A0A" stroke="#FFEF99"/>
<path d="M140.529 14.3313L138.043 18.6368L140.529 22.9423H145.501L147.986 18.6368L145.501 14.3313H140.529Z" fill="#0A0A0A" stroke="#FFEF99"/>
<path d="M130.778 18.9058L143.014 40.0996L155.25 18.9058H130.778Z" fill="#0A0A0A" stroke="#FFEF99"/>
<path d="M131.878 28.4011L128.27 22.1516L131.878 15.902H139.094L142.703 22.1516L139.094 28.4011H131.878Z" fill="#0A0A0A" stroke="#FFEF99"/>
<path d="M133.103 26.2802L130.72 22.1526L133.103 18.0251H137.869L140.252 22.1526L137.869 26.2802H133.103Z" fill="#0A0A0A" stroke="#FFEF99"/>
<path d="M146.908 28.4011L143.3 22.1516L146.908 15.902H154.125L157.733 22.1516L154.125 28.4011H146.908Z" fill="#0A0A0A" stroke="#FFEF99"/>
<path d="M148.133 26.2802L145.75 22.1526L148.133 18.0251H152.899L155.282 22.1526L152.899 26.2802H148.133Z" fill="#0A0A0A" stroke="#FFEF99"/>
<path d="M139.406 40.8855L135.798 34.6359L139.406 28.3863H146.623L150.231 34.6359L146.623 40.8855H139.406Z" fill="#0A0A0A" stroke="#FFEF99"/>
<path d="M140.687 38.6684L138.361 34.6384L140.687 30.6085H145.341L147.667 34.6384L145.341 38.6684H140.687Z" fill="#0A0A0A" stroke="#FFEF99"/>
<mask id="path-54-outside-3_554_4155" maskUnits="userSpaceOnUse" x="130.352" y="13.9375" width="26" height="26" fill="black">
<rect fill="white" x="130.352" y="13.9375" width="26" height="26"/>
<path d="M154.65 26.5869C154.65 33.0207 149.435 38.2363 143.001 38.2363C136.567 38.2363 131.352 33.0207 131.352 26.5869C131.352 20.1531 136.567 14.9375 143.001 14.9375C149.435 14.9375 154.65 20.1531 154.65 26.5869Z"/>
</mask>
<path d="M154.65 26.5869C154.65 33.0207 149.435 38.2363 143.001 38.2363C136.567 38.2363 131.352 33.0207 131.352 26.5869C131.352 20.1531 136.567 14.9375 143.001 14.9375C149.435 14.9375 154.65 20.1531 154.65 26.5869Z" fill="#0A0A0A"/>
<path d="M155.15 26.5869C155.15 26.4093 155.147 26.2326 155.139 26.0568L154.14 26.0997C154.147 26.2612 154.15 26.4237 154.15 26.5869H155.15ZM155.048 25.0007C155.002 24.6478 154.941 24.2995 154.865 23.9567L153.888 24.1722C153.958 24.4867 154.014 24.8062 154.056 25.1301L155.048 25.0007ZM154.591 22.9326C154.484 22.5938 154.363 22.2614 154.228 21.9361L153.305 22.3192C153.428 22.6175 153.539 22.9223 153.637 23.233L154.591 22.9326ZM153.78 20.9755C153.616 20.6613 153.438 20.3552 153.249 20.0579L152.406 20.596C152.58 20.8688 152.743 21.1497 152.893 21.438L153.78 20.9755ZM152.64 19.1903C152.425 18.9098 152.197 18.6391 151.958 18.3788L151.221 19.0546C151.441 19.2936 151.649 19.5422 151.847 19.7996L152.64 19.1903ZM151.209 17.6294C150.949 17.3908 150.678 17.1633 150.398 16.9478L149.788 17.7407C150.046 17.9386 150.294 18.1474 150.533 18.3665L151.209 17.6294ZM149.53 16.3392C149.233 16.1494 148.927 15.9722 148.612 15.8083L148.15 16.6949C148.438 16.8453 148.719 17.0079 148.992 17.1821L149.53 16.3392ZM147.652 15.3596C147.327 15.2247 146.994 15.1036 146.655 14.9968L146.355 15.9506C146.666 16.0485 146.97 16.1596 147.269 16.2833L147.652 15.3596ZM145.631 14.7231C145.288 14.6474 144.94 14.5862 144.587 14.5402L144.458 15.5318C144.782 15.574 145.101 15.6302 145.416 15.6996L145.631 14.7231ZM143.531 14.4489C143.355 14.4413 143.179 14.4375 143.001 14.4375V15.4375C143.164 15.4375 143.327 15.441 143.488 15.4479L143.531 14.4489ZM143.001 14.4375C142.823 14.4375 142.647 14.4413 142.471 14.4489L142.514 15.4479C142.675 15.441 142.838 15.4375 143.001 15.4375V14.4375ZM141.415 14.5402C141.062 14.5862 140.714 14.6474 140.371 14.7231L140.586 15.6996C140.901 15.6302 141.22 15.574 141.544 15.5318L141.415 14.5402ZM139.347 14.9968C139.008 15.1036 138.675 15.2247 138.35 15.3596L138.733 16.2833C139.032 16.1596 139.336 16.0485 139.647 15.9506L139.347 14.9968ZM137.39 15.8083C137.075 15.9722 136.769 16.1494 136.472 16.3392L137.01 17.1821C137.283 17.0079 137.564 16.8453 137.852 16.6949L137.39 15.8083ZM135.604 16.9478C135.324 17.1633 135.053 17.3908 134.793 17.6294L135.469 18.3665C135.708 18.1474 135.956 17.9386 136.214 17.7407L135.604 16.9478ZM134.043 18.3788C133.805 18.6391 133.577 18.9098 133.362 19.1903L134.155 19.7996C134.353 19.5422 134.561 19.2936 134.781 19.0546L134.043 18.3788ZM132.753 20.0579C132.563 20.3552 132.386 20.6613 132.222 20.9755L133.109 21.438C133.259 21.1497 133.422 20.8688 133.596 20.596L132.753 20.0579ZM131.774 21.9361C131.639 22.2614 131.518 22.5938 131.411 22.9326L132.365 23.233C132.463 22.9223 132.574 22.6175 132.697 22.3192L131.774 21.9361ZM131.137 23.9567C131.061 24.2995 131 24.6478 130.954 25.0007L131.946 25.1301C131.988 24.8062 132.044 24.4867 132.114 24.1722L131.137 23.9567ZM130.863 26.0568C130.855 26.2326 130.852 26.4093 130.852 26.5869H131.852C131.852 26.4237 131.855 26.2612 131.862 26.0997L130.863 26.0568ZM130.852 26.5869C130.852 26.7645 130.855 26.9412 130.863 27.117L131.862 27.0741C131.855 26.9126 131.852 26.7502 131.852 26.5869H130.852ZM130.954 28.1731C131 28.5261 131.061 28.8743 131.137 29.2172L132.114 29.0016C132.044 28.6872 131.988 28.3677 131.946 28.0438L130.954 28.1731ZM131.411 30.2413C131.518 30.5801 131.639 30.9125 131.774 31.2377L132.697 30.8547C132.574 30.5563 132.463 30.2515 132.365 29.9408L131.411 30.2413ZM132.222 32.1984C132.386 32.5126 132.563 32.8187 132.753 33.1159L133.596 32.5778C133.422 32.305 133.259 32.0241 133.109 31.7359L132.222 32.1984ZM133.362 33.9836C133.577 34.264 133.805 34.5348 134.043 34.7951L134.781 34.1193C134.561 33.8803 134.353 33.6317 134.155 33.3742L133.362 33.9836ZM134.793 35.5444C135.053 35.7831 135.324 36.0105 135.604 36.226L136.214 35.4331C135.956 35.2353 135.708 35.0264 135.469 34.8073L134.793 35.5444ZM136.472 36.8347C136.769 37.0244 137.075 37.2016 137.39 37.3655L137.852 36.4789C137.564 36.3285 137.283 36.1659 137.01 35.9918L136.472 36.8347ZM138.35 37.8142C138.675 37.9491 139.008 38.0703 139.347 38.177L139.647 37.2232C139.336 37.1253 139.032 37.0142 138.733 36.8905L138.35 37.8142ZM140.371 38.4508C140.714 38.5264 141.062 38.5876 141.415 38.6337L141.544 37.6421C141.22 37.5998 140.901 37.5437 140.586 37.4743L140.371 38.4508ZM142.471 38.725C142.647 38.7325 142.823 38.7363 143.001 38.7363V37.7363C142.838 37.7363 142.675 37.7328 142.514 37.7259L142.471 38.725ZM143.001 38.7363C143.179 38.7363 143.355 38.7325 143.531 38.725L143.488 37.7259C143.327 37.7328 143.164 37.7363 143.001 37.7363V38.7363ZM144.587 38.6337C144.94 38.5876 145.288 38.5264 145.631 38.4508L145.416 37.4743C145.101 37.5437 144.782 37.5998 144.458 37.6421L144.587 38.6337ZM146.655 38.177C146.994 38.0703 147.327 37.9491 147.652 37.8142L147.269 36.8905C146.97 37.0142 146.666 37.1253 146.355 37.2232L146.655 38.177ZM148.612 37.3655C148.927 37.2016 149.233 37.0244 149.53 36.8347L148.992 35.9918C148.719 36.1659 148.438 36.3285 148.15 36.4789L148.612 37.3655ZM150.398 36.226C150.678 36.0105 150.949 35.7831 151.209 35.5444L150.533 34.8073C150.294 35.0264 150.046 35.2353 149.788 35.4331L150.398 36.226ZM151.958 34.7951C152.197 34.5348 152.425 34.264 152.64 33.9836L151.847 33.3742C151.649 33.6317 151.441 33.8803 151.221 34.1193L151.958 34.7951ZM153.249 33.1159C153.438 32.8187 153.616 32.5126 153.78 32.1984L152.893 31.7359C152.743 32.0241 152.58 32.305 152.406 32.5778L153.249 33.1159ZM154.228 31.2377C154.363 30.9125 154.484 30.5801 154.591 30.2413L153.637 29.9408C153.539 30.2515 153.428 30.5563 153.305 30.8547L154.228 31.2377ZM154.865 29.2172C154.941 28.8743 155.002 28.5261 155.048 28.1731L154.056 28.0438C154.014 28.3677 153.958 28.6872 153.888 29.0016L154.865 29.2172ZM155.139 27.117C155.147 26.9412 155.15 26.7645 155.15 26.5869H154.15C154.15 26.7502 154.147 26.9126 154.14 27.0741L155.139 27.117ZM155.65 26.5869C155.65 26.4022 155.646 26.2183 155.639 26.0354L153.64 26.1212C153.647 26.2755 153.65 26.4308 153.65 26.5869H155.65ZM155.544 24.9361C155.496 24.5686 155.432 24.2059 155.353 23.8489L153.4 24.28C153.466 24.5803 153.52 24.8854 153.56 25.1947L155.544 24.9361ZM155.068 22.7824C154.957 22.4295 154.831 22.0833 154.69 21.7446L152.843 22.5107C152.961 22.7956 153.067 23.0866 153.16 23.3833L155.068 22.7824ZM154.223 20.7442C154.052 20.4171 153.868 20.0984 153.67 19.7889L151.984 20.8651C152.151 21.1257 152.306 21.3939 152.45 21.6692L154.223 20.7442ZM153.037 18.8856C152.812 18.5937 152.575 18.3119 152.327 18.0409L150.853 19.3925C151.062 19.6208 151.262 19.8583 151.451 20.1043L153.037 18.8856ZM151.547 17.2609C151.276 17.0125 150.994 16.7757 150.702 16.5514L149.484 18.1372C149.73 18.3262 149.967 18.5257 150.195 18.7351L151.547 17.2609ZM149.799 15.9177C149.49 15.7202 149.171 15.5357 148.844 15.365L147.919 17.1383C148.194 17.2819 148.462 17.4372 148.723 17.6035L149.799 15.9177ZM147.843 14.8977C147.505 14.7573 147.158 14.6311 146.806 14.5199L146.205 16.4275C146.501 16.521 146.792 16.6271 147.077 16.7452L147.843 14.8977ZM145.739 14.2348C145.382 14.156 145.019 14.0923 144.652 14.0444L144.393 16.0276C144.703 16.0679 145.008 16.1215 145.308 16.1878L145.739 14.2348ZM143.553 13.9493C143.37 13.9415 143.186 13.9375 143.001 13.9375V15.9375C143.157 15.9375 143.312 15.9409 143.467 15.9475L143.553 13.9493ZM143.001 13.9375C142.816 13.9375 142.632 13.9415 142.449 13.9493L142.535 15.9475C142.69 15.9409 142.845 15.9375 143.001 15.9375V13.9375ZM141.35 14.0444C140.983 14.0923 140.62 14.156 140.263 14.2348L140.694 16.1878C140.994 16.1215 141.299 16.0679 141.609 16.0276L141.35 14.0444ZM139.196 14.5199C138.844 14.6311 138.497 14.7573 138.159 14.8977L138.925 16.7452C139.21 16.6271 139.501 16.521 139.797 16.4275L139.196 14.5199ZM137.158 15.365C136.831 15.5357 136.512 15.7202 136.203 15.9177L137.279 17.6035C137.54 17.4372 137.808 17.2819 138.083 17.1383L137.158 15.365ZM135.3 16.5514C135.008 16.7757 134.726 17.0125 134.455 17.2609L135.807 18.7351C136.035 18.5257 136.272 18.3262 136.518 18.1372L135.3 16.5514ZM133.675 18.0409C133.427 18.3119 133.19 18.5937 132.965 18.8856L134.551 20.1043C134.74 19.8583 134.94 19.6208 135.149 19.3925L133.675 18.0409ZM132.332 19.7889C132.134 20.0984 131.95 20.4171 131.779 20.7442L133.552 21.6692C133.696 21.3939 133.851 21.1257 134.018 20.8651L132.332 19.7889ZM131.312 21.7446C131.171 22.0833 131.045 22.4295 130.934 22.7824L132.842 23.3833C132.935 23.0866 133.041 22.7956 133.159 22.5107L131.312 21.7446ZM130.649 23.8489C130.57 24.2059 130.506 24.5686 130.458 24.9361L132.442 25.1947C132.482 24.8854 132.536 24.5803 132.602 24.28L130.649 23.8489ZM130.363 26.0354C130.356 26.2183 130.352 26.4022 130.352 26.5869H132.352C132.352 26.4308 132.355 26.2755 132.362 26.1212L130.363 26.0354ZM130.352 26.5869C130.352 26.7717 130.356 26.9556 130.363 27.1385L132.362 27.0527C132.355 26.8983 132.352 26.743 132.352 26.5869H130.352ZM130.458 28.2378C130.506 28.6053 130.57 28.9679 130.649 29.325L132.602 28.8939C132.536 28.5936 132.482 28.2885 132.442 27.9791L130.458 28.2378ZM130.934 30.3915C131.045 30.7443 131.171 31.0905 131.312 31.4292L133.159 30.6631C133.041 30.3783 132.935 30.0872 132.842 29.7906L130.934 30.3915ZM131.779 32.4296C131.95 32.7568 132.134 33.0755 132.332 33.385L134.018 32.3088C133.851 32.0482 133.696 31.7799 133.552 31.5046L131.779 32.4296ZM132.965 34.2882C133.19 34.5802 133.427 34.862 133.675 35.1329L135.149 33.7814C134.94 33.553 134.74 33.3155 134.551 33.0696L132.965 34.2882ZM134.455 35.913C134.726 36.1614 135.008 36.3982 135.3 36.6225L136.518 35.0367C136.272 34.8476 136.035 34.6481 135.807 34.4388L134.455 35.913ZM136.203 37.2561C136.512 37.4537 136.831 37.6382 137.158 37.8088L138.083 36.0356C137.808 35.892 137.54 35.7367 137.279 35.5703L136.203 37.2561ZM138.159 38.2761C138.497 38.4166 138.844 38.5428 139.196 38.6539L139.797 36.7463C139.501 36.6529 139.21 36.5468 138.925 36.4287L138.159 38.2761ZM140.263 38.939C140.62 39.0178 140.983 39.0815 141.35 39.1295L141.609 37.1463C141.299 37.1059 140.994 37.0523 140.694 36.986L140.263 38.939ZM142.449 39.2245C142.632 39.2324 142.816 39.2363 143.001 39.2363V37.2363C142.845 37.2363 142.69 37.233 142.535 37.2264L142.449 39.2245ZM143.001 39.2363C143.186 39.2363 143.37 39.2324 143.553 39.2245L143.467 37.2264C143.312 37.233 143.157 37.2363 143.001 37.2363V39.2363ZM144.652 39.1295C145.019 39.0815 145.382 39.0178 145.739 38.939L145.308 36.986C145.008 37.0523 144.703 37.1059 144.393 37.1463L144.652 39.1295ZM146.806 38.6539C147.158 38.5428 147.505 38.4166 147.843 38.2761L147.077 36.4287C146.792 36.5468 146.501 36.6529 146.205 36.7463L146.806 38.6539ZM148.844 37.8088C149.171 37.6382 149.49 37.4537 149.799 37.2561L148.723 35.5703C148.462 35.7367 148.194 35.892 147.919 36.0356L148.844 37.8088ZM150.702 36.6225C150.994 36.3982 151.276 36.1614 151.547 35.913L150.195 34.4388C149.967 34.6481 149.73 34.8476 149.484 35.0367L150.702 36.6225ZM152.327 35.1329C152.575 34.862 152.812 34.5802 153.037 34.2882L151.451 33.0696C151.262 33.3155 151.062 33.553 150.853 33.7814L152.327 35.1329ZM153.67 33.385C153.868 33.0755 154.052 32.7568 154.223 32.4296L152.45 31.5046C152.306 31.7799 152.151 32.0482 151.984 32.3088L153.67 33.385ZM154.69 31.4292C154.831 31.0905 154.957 30.7444 155.068 30.3915L153.16 29.7906C153.067 30.0872 152.961 30.3783 152.843 30.6631L154.69 31.4292ZM155.353 29.325C155.432 28.9679 155.496 28.6053 155.544 28.2378L153.56 27.9791C153.52 28.2885 153.466 28.5936 153.4 28.8939L155.353 29.325ZM155.639 27.1385C155.646 26.9556 155.65 26.7717 155.65 26.5869H153.65C153.65 26.743 153.647 26.8983 153.64 27.0527L155.639 27.1385Z" fill="#FFEF99" mask="url(#path-54-outside-3_554_4155)"/>
<rect x="141.013" y="5.30273" width="3" height="3" transform="rotate(-45 141.013 5.30273)" fill="#FFEF99"/>
<rect x="141.013" y="49.8633" width="3" height="3" transform="rotate(-45 141.013 49.8633)" fill="#FFEF99"/>
<rect x="125.164" y="8.82812" width="3" height="3" fill="#FFEF99"/>
<rect width="3" height="3" transform="matrix(-1 0 0 1 161.134 8.82812)" fill="#FFEF99"/>
<rect x="124.543" y="25.8379" width="3" height="3" transform="rotate(-45 124.543 25.8379)" fill="#FFEF99"/>
<rect width="3" height="3" transform="matrix(-0.707107 -0.707107 -0.707107 0.707107 161.756 25.8379)" fill="#FFEF99"/>
<rect x="127.739" y="37.707" width="3" height="3" fill="#FFEF99"/>
<rect width="3" height="3" transform="matrix(-1 0 0 1 158.559 37.707)" fill="#FFEF99"/>
<path d="M150.541 24.8659L146.164 26.323L146.954 25.3733L150.541 24.8659ZM150.541 24.4507V24.7021L150.483 24.4546L146.896 24.962L146.635 25.1077L145.845 26.0573L146.295 26.7168L150.672 25.2597L150.541 24.7028V24.4507Z" fill="white"/>
<path d="M149.168 21.9514L145.761 25.0632L146.087 23.881L149.168 21.9514ZM149.168 21.5362V21.8894L148.948 21.5996L145.867 23.5292L145.687 23.7706L145.361 24.9528L146.041 25.3697L149.448 22.258L149.168 21.8898V21.5362Z" fill="white"/>
<path d="M146.164 26.323L150.745 26.8617L147.13 27.0928L143.258 26.6926L146.164 26.3233M146.212 25.911H146.112L143.206 26.2806L143.216 27.1052L147.087 27.5055L147.156 27.5069L150.771 27.2758L150.793 26.4494L146.212 25.9106V25.911Z" fill="white"/>
<path d="M146.729 19.8474L144.885 24.0697L144.689 22.8779L146.729 19.8474ZM146.729 19.4322V19.8046L146.385 19.6155L144.345 22.6461L144.28 22.9456L144.476 24.1374L145.266 24.236L147.11 20.0136L146.73 19.8046V19.4322H146.729Z" fill="white"/>
<path d="M139.308 19.8441L141.345 22.9057L143.258 26.6922L141.106 24.022L139.308 19.8438M139.653 19.6141L138.927 20.0083L140.726 24.1865L140.784 24.283L142.935 26.9532L143.628 26.5056L141.716 22.7191L141.691 22.6764L139.653 19.6148V19.6141Z" fill="white"/>
<path d="M145.59 19.3524L144.689 22.8779L143.258 26.6926L143.677 23.5124L145.59 19.3524ZM145.591 19.3125L145.214 19.1786L143.301 23.3387L143.266 23.458L142.847 26.6381L143.647 26.8382L145.078 23.0236L145.091 22.9805L145.992 19.455L145.591 19.3125Z" fill="white"/>
<path d="M142.397 18.9305L143.01 22.5354L143.258 26.6922L142.341 23.4936L142.397 18.9305ZM142.806 18.861L141.982 18.9255L141.926 23.4886L141.942 23.6082L142.859 26.8069L143.672 26.6676L143.424 22.5108L143.419 22.4659L142.806 18.861Z" fill="white"/>
<path d="M148.336 21.0374L146.087 23.881L143.258 26.6926L144.885 24.0697L148.336 21.0374ZM148.336 20.6222V20.9857L148.062 20.7254L144.612 23.7578L144.533 23.8507L142.906 26.4736L143.551 26.987L146.38 24.1755L146.413 24.1384L148.662 21.2948L148.336 20.9857V20.6222H148.336Z" fill="white"/>
<path d="M143.645 18.9173L143.677 23.5121L143.01 22.5354L143.645 18.9173ZM143.236 18.8457L142.601 22.4638L142.667 22.77L143.335 23.7467L144.092 23.5096L144.06 18.9148L143.236 18.8461V18.8457Z" fill="white"/>
<path d="M150.159 23.6933L146.954 25.3737L143.258 26.6926L145.761 25.0635L150.159 23.6937M150.159 23.5954L150.036 23.297L145.638 24.6668L145.535 24.7153L143.032 26.3443L143.398 27.0832L147.094 25.7643L147.147 25.7411L150.352 24.0608L150.159 23.5954Z" fill="white"/>
<path d="M140.583 28.8148L140.596 29.9378L137.941 32.5062L140.583 28.8144M140.245 28.5734L137.604 32.2652L138.23 32.8053L140.885 30.2369L141.011 29.9336L140.998 28.8105L140.245 28.5741V28.5734Z" fill="white"/>
<path d="M142.994 29.8684L143.844 30.6731L143.974 34.3261L142.994 29.8684ZM143.279 29.5668L142.589 29.9574L143.569 34.4151L144.389 34.3112L144.259 30.6582L144.129 30.3715L143.279 29.5668Z" fill="white"/>
<path d="M144.298 29.5782L145.419 29.998L147.015 33.265L144.298 29.5782M144.444 29.1894L143.964 29.8246L146.682 33.5114L147.389 33.0827L145.793 29.8157L145.565 29.6092L144.444 29.1894H144.444Z" fill="white"/>
<path d="M146.585 28.7311L149.362 31.0584L145.367 28.7884L146.585 28.7311ZM146.566 28.3166L145.348 28.374L145.162 29.1495L149.158 31.4195L149.629 30.7404L146.852 28.4131L146.566 28.3166Z" fill="white"/>
<path d="M135.858 23.6396L140.192 25.0144L139.141 25.3822L135.858 23.6396ZM135.983 23.244L135.663 24.0063L138.946 25.749L139.278 25.7742L140.329 25.4064L140.318 24.6188L135.983 23.244Z" fill="white"/>
<path d="M137.695 20.9928L141.107 24.022L139.981 23.9141L137.695 20.9925M137.97 20.6823L137.368 21.2485L139.654 24.1701L139.941 24.3275L141.067 24.4354L141.382 23.7118L137.97 20.6827V20.6823Z" fill="white"/>
<path d="M140.449 19.3225L142.341 23.4936L141.346 22.9057L140.449 19.3225ZM140.827 19.1509L140.046 19.4233L140.943 23.0065L141.134 23.2632L142.13 23.8511L142.719 23.3219L140.827 19.1509H140.827Z" fill="white"/>
<path d="M139.766 26.2984L138.964 27.0611L135.256 26.8051L139.766 26.2987M139.766 25.8836V25.9857L139.72 25.886L135.21 26.3924L135.228 27.2192L138.935 27.4752L139.25 27.362L140.052 26.5993L139.767 25.9857V25.8832L139.766 25.8836Z" fill="white"/>
<path d="M139.905 27.6451L139.477 28.6695L135.993 29.9414L139.905 27.6451M139.905 27.2302V27.4709L139.695 27.2876L135.783 29.5839L136.135 30.332L139.619 29.0601L139.86 28.8301L140.288 27.8057L139.905 27.4713V27.2302Z" fill="white"/>
<path d="M141.679 29.6003L142.138 30.6489L140.764 34.058L141.679 29.6003M142.059 29.434L141.272 29.517L140.358 33.9747L141.149 34.2133L142.523 30.8042L142.518 30.4826L142.059 29.434H142.059Z" fill="white"/>
<path d="M143.258 26.6922L139.905 27.6451L135.385 28.0642L138.964 27.0607L143.258 26.6919M143.259 26.2774V26.4729L143.223 26.2788L138.928 26.6477L138.852 26.6616L135.273 27.665L135.423 28.4779L139.943 28.0588L140.018 28.0449L143.372 27.0921L143.259 26.4739V26.2774Z" fill="white"/>
<path d="M143.258 26.6922L144.298 29.5779L145.199 34.0858L143.844 30.6728L143.259 26.6919M143.648 26.5516L142.847 26.7527L143.433 30.7337L143.458 30.8262L144.812 34.2392L145.605 34.0046L144.705 29.4967L144.689 29.4372L143.648 26.5516Z" fill="white"/>
<path d="M143.258 26.6922L146.025 27.6379L149.992 29.9941L146.585 28.7307L143.258 26.6919M143.392 26.2995L143.041 27.0461L146.369 29.085L146.441 29.1203L149.847 30.3836L150.204 29.6377L146.237 27.2815L146.16 27.2456L143.393 26.2998L143.392 26.2995Z" fill="white"/>
<path d="M143.258 26.6922L145.367 28.7881L148.03 32.5497L145.42 29.998L143.258 26.6922ZM143.551 26.3977L142.911 26.9194L145.072 30.2252L145.13 30.295L147.739 32.8466L148.368 32.31L145.706 28.5484L145.66 28.4939L143.551 26.3981V26.3977Z" fill="white"/>
<path d="M143.258 26.6922L141.679 29.6003L138.952 33.2604L140.597 29.9378L143.258 26.6922ZM143.259 26.2774V26.6452L142.938 26.4291L140.276 29.6747L140.225 29.7538L138.581 33.0763L139.285 33.5086L142.012 29.8485L142.044 29.7986L143.623 26.8905L143.259 26.6452V26.2774H143.259Z" fill="white"/>
<path d="M143.258 26.6922L142.994 29.8684L141.987 34.3375L142.138 30.6489L143.258 26.6922ZM143.259 26.2774V26.652L142.859 26.5793L141.739 30.536L141.724 30.6322L141.573 34.3208L142.392 34.429L143.399 29.9599L143.408 29.9029L143.672 26.7267L143.259 26.6516V26.277L143.259 26.2774Z" fill="white"/>
<path d="M143.258 26.6922L140.583 28.8148L136.616 31.0417L139.477 28.6695L143.259 26.6922M143.259 26.2774V26.6206L143.066 26.3247L139.285 28.302L139.212 28.3505L136.351 30.7226L136.819 31.4042L140.786 29.1773L140.841 29.1406L143.516 27.018L143.258 26.621V26.2777L143.259 26.2774Z" fill="white"/>
<path d="M136.858 21.9357L139.981 23.9145L143.258 26.6922L140.192 25.0144L136.858 21.9357ZM137.08 21.585L136.577 22.2409L139.911 25.3195L139.993 25.3786L143.059 27.0565L143.527 26.3756L140.249 23.5979L140.203 23.5641L137.08 21.5854V21.585Z" fill="white"/>
<path d="M147.13 27.0924L150.61 28.0873L146.025 27.6379L147.129 27.0924M147.244 26.6936L146.946 26.7207L145.841 27.2662L145.984 28.0517L150.569 28.5011L150.724 27.6889L147.244 26.694V26.6936Z" fill="white"/>
<path d="M135.47 24.8435L139.141 25.3822L143.258 26.6922L139.766 26.2984L135.47 24.8435ZM135.53 24.4329L135.337 25.2369L139.633 26.6919L139.72 26.7111L143.212 27.1049L143.384 26.297L139.267 24.987L139.201 24.972L135.53 24.4333V24.4329Z" fill="white"/>
</svg>
