<svg width="1281" height="1819" viewBox="0 0 1281 1819" fill="none" xmlns="http://www.w3.org/2000/svg">
<g opacity="0.5">
<path d="M367.975 611.703L629.074 460.957L367.975 310.212L367.975 611.703Z" fill="#0B0B0D" fill-opacity="0.5"/>
<path d="M368.475 311.078L368.475 610.837L628.074 460.957L368.475 311.078Z" stroke="#FFEF99" stroke-opacity="0.2"/>
<path d="M280.656 762.943L541.754 612.198L280.656 461.452L280.656 762.943Z" fill="#0B0B0D" fill-opacity="0.5"/>
<path d="M281.156 462.318L281.156 762.077L540.754 612.198L281.156 462.318Z" stroke="#FFEF99" stroke-opacity="0.2"/>
<path d="M454.722 461.453L454.722 762.944L193.623 612.198L454.722 461.453Z" fill="#0B0B0D" fill-opacity="0.5"/>
<path d="M194.623 612.198L454.222 462.319L454.222 762.078L194.623 612.198Z" stroke="#FFEF99" stroke-opacity="0.2"/>
<path d="M541.292 311.508L541.292 612.998L280.194 462.253L541.292 311.508Z" fill="#0B0B0D" fill-opacity="0.5"/>
<path d="M281.194 462.253L540.792 312.374L540.792 612.132L281.194 462.253Z" stroke="#FFEF99" stroke-opacity="0.2"/>
<path d="M552.843 518.482L552.843 619.616L640.428 670.183L728.013 619.616L728.013 518.482L640.428 467.914L552.843 518.482Z" fill="#0B0B0D" fill-opacity="0.5"/>
<path d="M640.428 468.492L553.343 518.77L553.343 619.327L640.428 669.606L727.513 619.327L727.513 518.77L640.428 468.492Z" stroke="#FFEF99" stroke-opacity="0.2"/>
<path d="M181.052 303.829L181.052 404.964L268.637 455.531L356.222 404.964L356.222 303.829L268.637 253.262L181.052 303.829Z" fill="#0B0B0D" fill-opacity="0.5"/>
<path d="M268.637 253.839L181.552 304.118L181.552 404.675L268.637 454.954L355.722 404.675L355.722 304.118L268.637 253.839Z" stroke="#FFEF99" stroke-opacity="0.2"/>
<path d="M466.924 668.881L466.924 769.225L553.824 819.397L640.724 769.225L640.724 668.881L553.824 618.709L466.924 668.881Z" fill="#0B0B0D" fill-opacity="0.5"/>
<path d="M553.824 619.286L467.424 669.17L467.424 768.936L553.824 818.819L640.224 768.936L640.224 669.17L553.824 619.286Z" stroke="#FFEF99" stroke-opacity="0.2"/>
<path d="M268.951 555.27L181.679 605.657L94.407 555.27L94.407 454.497L181.679 404.11L268.951 454.497L268.951 555.27Z" fill="#0B0B0D" fill-opacity="0.5"/>
<path d="M268.451 454.786L268.451 554.982L181.679 605.079L94.907 554.982L94.907 454.786L181.679 404.688L268.451 454.786Z" stroke="#FFEF99" stroke-opacity="0.2"/>
<path d="M454.307 361.254L454.307 461.598L541.207 511.77L628.107 461.598L628.107 361.254L541.207 311.082L454.307 361.254Z" fill="#0B0B0D" fill-opacity="0.5"/>
<path d="M541.207 311.659L454.807 361.543L454.807 461.309L541.207 511.192L627.607 461.309L627.607 361.543L541.207 311.659Z" stroke="#FFEF99" stroke-opacity="0.2"/>
<path d="M367.723 311.266L367.723 411.609L454.623 461.781L541.523 411.61L541.523 311.266L454.623 261.094L367.723 311.266Z" fill="#0B0B0D" fill-opacity="0.5"/>
<path d="M454.623 261.671L368.223 311.554L368.223 411.321L454.623 461.204L541.023 411.321L541.023 311.554L454.623 261.671Z" stroke="#FFEF99" stroke-opacity="0.2"/>
<path d="M280.486 662.316L280.486 762.66L367.387 812.832L454.287 762.66L454.287 662.316L367.387 612.144L280.486 662.316Z" fill="#0B0B0D" fill-opacity="0.5"/>
<path d="M367.387 612.722L280.986 662.605L280.986 762.372L367.387 812.255L453.787 762.372L453.787 662.605L367.387 612.722Z" stroke="#FFEF99" stroke-opacity="0.2"/>
<path d="M193.902 612.328L193.902 712.672L280.803 762.844L367.703 712.672L367.703 612.328L280.803 562.156L193.902 612.328Z" fill="#0B0B0D" fill-opacity="0.5"/>
<path d="M280.803 562.734L194.402 612.617L194.402 712.383L280.803 762.267L367.203 712.383L367.203 612.617L280.803 562.734Z" stroke="#FFEF99" stroke-opacity="0.2"/>
</g>
<g opacity="0.5">
<path d="M912.772 611.703L651.673 460.957L912.772 310.212L912.772 611.703Z" fill="#0B0B0D" fill-opacity="0.5"/>
<path d="M912.272 311.078L912.272 610.837L652.673 460.957L912.272 311.078Z" stroke="#FFEF99" stroke-opacity="0.2"/>
<path d="M1000.09 762.943L738.993 612.198L1000.09 461.452L1000.09 762.943Z" fill="#0B0B0D" fill-opacity="0.5"/>
<path d="M999.592 462.318L999.592 762.077L739.993 612.198L999.592 462.318Z" stroke="#FFEF99" stroke-opacity="0.2"/>
<path d="M826.025 461.453L826.025 762.944L1087.12 612.198L826.025 461.453Z" fill="#0B0B0D" fill-opacity="0.5"/>
<path d="M1086.12 612.198L826.525 462.319L826.525 762.078L1086.12 612.198Z" stroke="#FFEF99" stroke-opacity="0.2"/>
<path d="M739.455 311.508L739.455 612.998L1000.55 462.253L739.455 311.508Z" fill="#0B0B0D" fill-opacity="0.5"/>
<path d="M999.553 462.253L739.955 312.374L739.955 612.132L999.553 462.253Z" stroke="#FFEF99" stroke-opacity="0.2"/>
<path d="M727.912 518.48L727.912 619.614L640.327 670.181L552.742 619.614L552.742 518.48L640.327 467.912L727.912 518.48Z" fill="#0B0B0D" fill-opacity="0.5"/>
<path d="M640.327 468.49L727.412 518.768L727.412 619.325L640.327 669.604L553.242 619.325L553.242 518.768L640.327 468.49Z" stroke="#FFEF99" stroke-opacity="0.2"/>
<path d="M1099.69 303.827L1099.69 404.962L1012.11 455.529L924.524 404.962L924.524 303.827L1012.11 253.26L1099.69 303.827Z" fill="#0B0B0D" fill-opacity="0.5"/>
<path d="M1012.11 253.837L1099.19 304.116L1099.19 404.673L1012.11 454.952L925.024 404.673L925.024 304.116L1012.11 253.837Z" stroke="#FFEF99" stroke-opacity="0.2"/>
<path d="M813.83 668.877L813.83 769.221L726.93 819.393L640.029 769.221L640.029 668.877L726.93 618.705L813.83 668.877Z" fill="#0B0B0D" fill-opacity="0.5"/>
<path d="M726.93 619.282L813.33 669.166L813.33 768.932L726.93 818.815L640.529 768.932L640.529 669.166L726.93 619.282Z" stroke="#FFEF99" stroke-opacity="0.2"/>
<path d="M1011.8 555.268L1099.07 605.655L1186.35 555.268L1186.35 454.495L1099.07 404.108L1011.8 454.495L1011.8 555.268Z" fill="#0B0B0D" fill-opacity="0.5"/>
<path d="M1012.3 454.784L1012.3 554.98L1099.07 605.077L1185.85 554.98L1185.85 454.784L1099.07 404.686L1012.3 454.784Z" stroke="#FFEF99" stroke-opacity="0.2"/>
<path d="M826.448 361.248L826.448 461.592L739.548 511.764L652.648 461.592L652.648 361.248L739.548 311.076L826.448 361.248Z" fill="#0B0B0D" fill-opacity="0.5"/>
<path d="M739.548 311.653L825.948 361.537L825.948 461.303L739.548 511.187L653.148 461.303L653.148 361.537L739.548 311.653Z" stroke="#FFEF99" stroke-opacity="0.2"/>
<path d="M913.032 311.26L913.032 411.604L826.132 461.776L739.232 411.604L739.232 311.26L826.132 261.088L913.032 311.26Z" fill="#0B0B0D" fill-opacity="0.5"/>
<path d="M826.132 261.665L912.532 311.548L912.532 411.315L826.132 461.198L739.732 411.315L739.732 311.548L826.132 261.665Z" stroke="#FFEF99" stroke-opacity="0.2"/>
<path d="M1000.27 662.312L1000.27 762.656L913.365 812.828L826.465 762.656L826.465 662.312L913.365 612.141L1000.27 662.312Z" fill="#0B0B0D" fill-opacity="0.5"/>
<path d="M913.365 612.718L999.766 662.601L999.766 762.368L913.365 812.251L826.965 762.368L826.965 662.601L913.365 612.718Z" stroke="#FFEF99" stroke-opacity="0.2"/>
<path d="M1086.85 612.324L1086.85 712.668L999.95 762.84L913.05 712.668L913.05 612.324L999.95 562.152L1086.85 612.324Z" fill="#0B0B0D" fill-opacity="0.5"/>
<path d="M999.95 562.73L1086.35 612.613L1086.35 712.379L999.95 762.263L913.55 712.379L913.55 612.613L999.95 562.73Z" stroke="#FFEF99" stroke-opacity="0.2"/>
</g>
<g filter="url(#filter0_f_556_4291)">
<ellipse cx="640" cy="387.001" rx="317.389" ry="86.3838" fill="#FFEF99" fill-opacity="0.1"/>
</g>
<g opacity="0.5">
<path d="M367.975 911.703L629.074 760.957L367.975 610.212L367.975 911.703Z" fill="#0B0B0D" fill-opacity="0.5"/>
<path d="M368.475 611.078L368.475 910.837L628.074 760.957L368.475 611.078Z" stroke="#FFEF99" stroke-opacity="0.2"/>
<path d="M280.656 1062.94L541.754 912.198L280.656 761.452L280.656 1062.94Z" fill="#0B0B0D" fill-opacity="0.5"/>
<path d="M281.156 762.318L281.156 1062.08L540.754 912.198L281.156 762.318Z" stroke="#FFEF99" stroke-opacity="0.2"/>
<path d="M454.722 761.453L454.722 1062.94L193.623 912.198L454.722 761.453Z" fill="#0B0B0D" fill-opacity="0.5"/>
<path d="M194.623 912.198L454.222 762.319L454.222 1062.08L194.623 912.198Z" stroke="#FFEF99" stroke-opacity="0.2"/>
<path d="M541.292 611.508L541.292 912.998L280.194 762.253L541.292 611.508Z" fill="#0B0B0D" fill-opacity="0.5"/>
<path d="M281.194 762.253L540.792 612.374L540.792 912.132L281.194 762.253Z" stroke="#FFEF99" stroke-opacity="0.2"/>
<path d="M552.843 818.482L552.843 919.616L640.428 970.183L728.013 919.616L728.013 818.482L640.428 767.914L552.843 818.482Z" fill="#0B0B0D" fill-opacity="0.5"/>
<path d="M640.428 768.492L553.343 818.77L553.343 919.327L640.428 969.606L727.513 919.327L727.513 818.77L640.428 768.492Z" stroke="#FFEF99" stroke-opacity="0.2"/>
<path d="M181.052 603.829L181.052 704.964L268.637 755.531L356.222 704.964L356.222 603.829L268.637 553.262L181.052 603.829Z" fill="#0B0B0D" fill-opacity="0.5"/>
<path d="M268.637 553.839L181.552 604.118L181.552 704.675L268.637 754.954L355.722 704.675L355.722 604.118L268.637 553.839Z" stroke="#FFEF99" stroke-opacity="0.2"/>
<path d="M466.924 968.881L466.924 1069.22L553.824 1119.4L640.724 1069.22L640.724 968.881L553.824 918.709L466.924 968.881Z" fill="#0B0B0D" fill-opacity="0.5"/>
<path d="M553.824 919.286L467.424 969.17L467.424 1068.94L553.824 1118.82L640.224 1068.94L640.224 969.17L553.824 919.286Z" stroke="#FFEF99" stroke-opacity="0.2"/>
<path d="M268.951 855.27L181.679 905.657L94.407 855.27L94.407 754.497L181.679 704.11L268.951 754.497L268.951 855.27Z" fill="#0B0B0D" fill-opacity="0.5"/>
<path d="M268.451 754.786L268.451 854.982L181.679 905.079L94.907 854.982L94.907 754.786L181.679 704.688L268.451 754.786Z" stroke="#FFEF99" stroke-opacity="0.2"/>
<path d="M454.307 661.254L454.307 761.598L541.207 811.77L628.107 761.598L628.107 661.254L541.207 611.082L454.307 661.254Z" fill="#0B0B0D" fill-opacity="0.5"/>
<path d="M541.207 611.659L454.807 661.543L454.807 761.309L541.207 811.192L627.607 761.309L627.607 661.543L541.207 611.659Z" stroke="#FFEF99" stroke-opacity="0.2"/>
<path d="M367.723 611.266L367.723 711.609L454.623 761.781L541.523 711.61L541.523 611.266L454.623 561.094L367.723 611.266Z" fill="#0B0B0D" fill-opacity="0.5"/>
<path d="M454.623 561.671L368.223 611.554L368.223 711.321L454.623 761.204L541.023 711.321L541.023 611.554L454.623 561.671Z" stroke="#FFEF99" stroke-opacity="0.2"/>
<path d="M280.486 962.316L280.486 1062.66L367.387 1112.83L454.287 1062.66L454.287 962.316L367.387 912.144L280.486 962.316Z" fill="#0B0B0D" fill-opacity="0.5"/>
<path d="M367.387 912.722L280.986 962.605L280.986 1062.37L367.387 1112.25L453.787 1062.37L453.787 962.605L367.387 912.722Z" stroke="#FFEF99" stroke-opacity="0.2"/>
<path d="M193.902 912.328L193.902 1012.67L280.803 1062.84L367.703 1012.67L367.703 912.328L280.803 862.156L193.902 912.328Z" fill="#0B0B0D" fill-opacity="0.5"/>
<path d="M280.803 862.734L194.402 912.617L194.402 1012.38L280.803 1062.27L367.203 1012.38L367.203 912.617L280.803 862.734Z" stroke="#FFEF99" stroke-opacity="0.2"/>
</g>
<g opacity="0.5">
<path d="M912.772 911.703L651.673 760.957L912.772 610.212L912.772 911.703Z" fill="#0B0B0D" fill-opacity="0.5"/>
<path d="M912.272 611.078L912.272 910.837L652.673 760.957L912.272 611.078Z" stroke="#FFEF99" stroke-opacity="0.2"/>
<path d="M1000.09 1062.94L738.993 912.198L1000.09 761.452L1000.09 1062.94Z" fill="#0B0B0D" fill-opacity="0.5"/>
<path d="M999.592 762.318L999.592 1062.08L739.993 912.198L999.592 762.318Z" stroke="#FFEF99" stroke-opacity="0.2"/>
<path d="M826.025 761.453L826.025 1062.94L1087.12 912.198L826.025 761.453Z" fill="#0B0B0D" fill-opacity="0.5"/>
<path d="M1086.12 912.198L826.525 762.319L826.525 1062.08L1086.12 912.198Z" stroke="#FFEF99" stroke-opacity="0.2"/>
<path d="M739.455 611.508L739.455 912.998L1000.55 762.253L739.455 611.508Z" fill="#0B0B0D" fill-opacity="0.5"/>
<path d="M999.553 762.253L739.955 612.374L739.955 912.132L999.553 762.253Z" stroke="#FFEF99" stroke-opacity="0.2"/>
<path d="M727.912 818.48L727.912 919.614L640.327 970.181L552.742 919.614L552.742 818.48L640.327 767.912L727.912 818.48Z" fill="#0B0B0D" fill-opacity="0.5"/>
<path d="M640.327 768.49L727.412 818.768L727.412 919.325L640.327 969.604L553.242 919.325L553.242 818.768L640.327 768.49Z" stroke="#FFEF99" stroke-opacity="0.2"/>
<path d="M1099.69 603.827L1099.69 704.962L1012.11 755.529L924.524 704.962L924.524 603.827L1012.11 553.26L1099.69 603.827Z" fill="#0B0B0D" fill-opacity="0.5"/>
<path d="M1012.11 553.837L1099.19 604.116L1099.19 704.673L1012.11 754.952L925.024 704.673L925.024 604.116L1012.11 553.837Z" stroke="#FFEF99" stroke-opacity="0.2"/>
<path d="M813.83 968.877L813.83 1069.22L726.93 1119.39L640.029 1069.22L640.029 968.877L726.93 918.705L813.83 968.877Z" fill="#0B0B0D" fill-opacity="0.5"/>
<path d="M726.93 919.282L813.33 969.166L813.33 1068.93L726.93 1118.82L640.529 1068.93L640.529 969.166L726.93 919.282Z" stroke="#FFEF99" stroke-opacity="0.2"/>
<path d="M1011.8 855.268L1099.07 905.655L1186.35 855.268L1186.35 754.495L1099.07 704.108L1011.8 754.495L1011.8 855.268Z" fill="#0B0B0D" fill-opacity="0.5"/>
<path d="M1012.3 754.784L1012.3 854.98L1099.07 905.077L1185.85 854.98L1185.85 754.784L1099.07 704.686L1012.3 754.784Z" stroke="#FFEF99" stroke-opacity="0.2"/>
<path d="M826.448 661.248L826.448 761.592L739.548 811.764L652.648 761.592L652.648 661.248L739.548 611.076L826.448 661.248Z" fill="#0B0B0D" fill-opacity="0.5"/>
<path d="M739.548 611.653L825.948 661.537L825.948 761.303L739.548 811.187L653.148 761.303L653.148 661.537L739.548 611.653Z" stroke="#FFEF99" stroke-opacity="0.2"/>
<path d="M913.032 611.26L913.032 711.604L826.132 761.776L739.232 711.604L739.232 611.26L826.132 561.088L913.032 611.26Z" fill="#0B0B0D" fill-opacity="0.5"/>
<path d="M826.132 561.665L912.532 611.548L912.532 711.315L826.132 761.198L739.732 711.315L739.732 611.548L826.132 561.665Z" stroke="#FFEF99" stroke-opacity="0.2"/>
<path d="M1000.27 962.312L1000.27 1062.66L913.365 1112.83L826.465 1062.66L826.465 962.312L913.365 912.141L1000.27 962.312Z" fill="#0B0B0D" fill-opacity="0.5"/>
<path d="M913.365 912.718L999.766 962.601L999.766 1062.37L913.365 1112.25L826.965 1062.37L826.965 962.601L913.365 912.718Z" stroke="#FFEF99" stroke-opacity="0.2"/>
<path d="M1086.85 912.324L1086.85 1012.67L999.95 1062.84L913.05 1012.67L913.05 912.324L999.95 862.152L1086.85 912.324Z" fill="#0B0B0D" fill-opacity="0.5"/>
<path d="M999.95 862.73L1086.35 912.613L1086.35 1012.38L999.95 1062.26L913.55 1012.38L913.55 912.613L999.95 862.73Z" stroke="#FFEF99" stroke-opacity="0.2"/>
</g>
<g filter="url(#filter1_f_556_4291)">
<ellipse cx="640" cy="687.001" rx="317.389" ry="86.3838" fill="#FFEF99" fill-opacity="0.1"/>
</g>
<g opacity="0.5">
<path d="M367.975 1211.7L629.074 1060.96L367.975 910.212L367.975 1211.7Z" fill="#0B0B0D" fill-opacity="0.5"/>
<path d="M368.475 911.078L368.475 1210.84L628.074 1060.96L368.475 911.078Z" stroke="#FFEF99" stroke-opacity="0.2"/>
<path d="M280.656 1362.94L541.754 1212.2L280.656 1061.45L280.656 1362.94Z" fill="#0B0B0D" fill-opacity="0.5"/>
<path d="M281.156 1062.32L281.156 1362.08L540.754 1212.2L281.156 1062.32Z" stroke="#FFEF99" stroke-opacity="0.2"/>
<path d="M454.722 1061.45L454.722 1362.94L193.623 1212.2L454.722 1061.45Z" fill="#0B0B0D" fill-opacity="0.5"/>
<path d="M194.623 1212.2L454.222 1062.32L454.222 1362.08L194.623 1212.2Z" stroke="#FFEF99" stroke-opacity="0.2"/>
<path d="M541.292 911.508L541.292 1213L280.194 1062.25L541.292 911.508Z" fill="#0B0B0D" fill-opacity="0.5"/>
<path d="M281.194 1062.25L540.792 912.374L540.792 1212.13L281.194 1062.25Z" stroke="#FFEF99" stroke-opacity="0.2"/>
<path d="M552.843 1118.48L552.843 1219.62L640.428 1270.18L728.013 1219.62L728.013 1118.48L640.428 1067.91L552.843 1118.48Z" fill="#0B0B0D" fill-opacity="0.5"/>
<path d="M640.428 1068.49L553.343 1118.77L553.343 1219.33L640.428 1269.61L727.513 1219.33L727.513 1118.77L640.428 1068.49Z" stroke="#FFEF99" stroke-opacity="0.2"/>
<path d="M181.052 903.829L181.052 1004.96L268.637 1055.53L356.222 1004.96L356.222 903.829L268.637 853.262L181.052 903.829Z" fill="#0B0B0D" fill-opacity="0.5"/>
<path d="M268.637 853.839L181.552 904.118L181.552 1004.68L268.637 1054.95L355.722 1004.68L355.722 904.118L268.637 853.839Z" stroke="#FFEF99" stroke-opacity="0.2"/>
<path d="M466.924 1268.88L466.924 1369.22L553.824 1419.4L640.724 1369.22L640.724 1268.88L553.824 1218.71L466.924 1268.88Z" fill="#0B0B0D" fill-opacity="0.5"/>
<path d="M553.824 1219.29L467.424 1269.17L467.424 1368.94L553.824 1418.82L640.224 1368.94L640.224 1269.17L553.824 1219.29Z" stroke="#FFEF99" stroke-opacity="0.2"/>
<path d="M268.951 1155.27L181.679 1205.66L94.407 1155.27L94.407 1054.5L181.679 1004.11L268.951 1054.5L268.951 1155.27Z" fill="#0B0B0D" fill-opacity="0.5"/>
<path d="M268.451 1054.79L268.451 1154.98L181.679 1205.08L94.907 1154.98L94.907 1054.79L181.679 1004.69L268.451 1054.79Z" stroke="#FFEF99" stroke-opacity="0.2"/>
<path d="M454.307 961.254L454.307 1061.6L541.207 1111.77L628.107 1061.6L628.107 961.254L541.207 911.082L454.307 961.254Z" fill="#0B0B0D" fill-opacity="0.5"/>
<path d="M541.207 911.659L454.807 961.543L454.807 1061.31L541.207 1111.19L627.607 1061.31L627.607 961.543L541.207 911.659Z" stroke="#FFEF99" stroke-opacity="0.2"/>
<path d="M367.723 911.266L367.723 1011.61L454.623 1061.78L541.523 1011.61L541.523 911.266L454.623 861.094L367.723 911.266Z" fill="#0B0B0D" fill-opacity="0.5"/>
<path d="M454.623 861.671L368.223 911.554L368.223 1011.32L454.623 1061.2L541.023 1011.32L541.023 911.554L454.623 861.671Z" stroke="#FFEF99" stroke-opacity="0.2"/>
<path d="M280.486 1262.32L280.486 1362.66L367.387 1412.83L454.287 1362.66L454.287 1262.32L367.387 1212.14L280.486 1262.32Z" fill="#0B0B0D" fill-opacity="0.5"/>
<path d="M367.387 1212.72L280.986 1262.61L280.986 1362.37L367.387 1412.25L453.787 1362.37L453.787 1262.61L367.387 1212.72Z" stroke="#FFEF99" stroke-opacity="0.2"/>
<path d="M193.902 1212.33L193.902 1312.67L280.803 1362.84L367.703 1312.67L367.703 1212.33L280.803 1162.16L193.902 1212.33Z" fill="#0B0B0D" fill-opacity="0.5"/>
<path d="M280.803 1162.73L194.402 1212.62L194.402 1312.38L280.803 1362.27L367.203 1312.38L367.203 1212.62L280.803 1162.73Z" stroke="#FFEF99" stroke-opacity="0.2"/>
</g>
<g opacity="0.5">
<path d="M912.772 1211.7L651.673 1060.96L912.772 910.212L912.772 1211.7Z" fill="#0B0B0D" fill-opacity="0.5"/>
<path d="M912.272 911.078L912.272 1210.84L652.673 1060.96L912.272 911.078Z" stroke="#FFEF99" stroke-opacity="0.2"/>
<path d="M1000.09 1362.94L738.993 1212.2L1000.09 1061.45L1000.09 1362.94Z" fill="#0B0B0D" fill-opacity="0.5"/>
<path d="M999.592 1062.32L999.592 1362.08L739.993 1212.2L999.592 1062.32Z" stroke="#FFEF99" stroke-opacity="0.2"/>
<path d="M826.025 1061.45L826.025 1362.94L1087.12 1212.2L826.025 1061.45Z" fill="#0B0B0D" fill-opacity="0.5"/>
<path d="M1086.12 1212.2L826.525 1062.32L826.525 1362.08L1086.12 1212.2Z" stroke="#FFEF99" stroke-opacity="0.2"/>
<path d="M739.455 911.508L739.455 1213L1000.55 1062.25L739.455 911.508Z" fill="#0B0B0D" fill-opacity="0.5"/>
<path d="M999.553 1062.25L739.955 912.374L739.955 1212.13L999.553 1062.25Z" stroke="#FFEF99" stroke-opacity="0.2"/>
<path d="M727.912 1118.48L727.912 1219.61L640.327 1270.18L552.742 1219.61L552.742 1118.48L640.327 1067.91L727.912 1118.48Z" fill="#0B0B0D" fill-opacity="0.5"/>
<path d="M640.327 1068.49L727.412 1118.77L727.412 1219.33L640.327 1269.6L553.242 1219.33L553.242 1118.77L640.327 1068.49Z" stroke="#FFEF99" stroke-opacity="0.2"/>
<path d="M1099.69 903.827L1099.69 1004.96L1012.11 1055.53L924.524 1004.96L924.524 903.827L1012.11 853.26L1099.69 903.827Z" fill="#0B0B0D" fill-opacity="0.5"/>
<path d="M1012.11 853.837L1099.19 904.116L1099.19 1004.67L1012.11 1054.95L925.024 1004.67L925.024 904.116L1012.11 853.837Z" stroke="#FFEF99" stroke-opacity="0.2"/>
<path d="M813.83 1268.88L813.83 1369.22L726.93 1419.39L640.029 1369.22L640.029 1268.88L726.93 1218.7L813.83 1268.88Z" fill="#0B0B0D" fill-opacity="0.5"/>
<path d="M726.93 1219.28L813.33 1269.17L813.33 1368.93L726.93 1418.82L640.529 1368.93L640.529 1269.17L726.93 1219.28Z" stroke="#FFEF99" stroke-opacity="0.2"/>
<path d="M1011.8 1155.27L1099.07 1205.65L1186.35 1155.27L1186.35 1054.5L1099.07 1004.11L1011.8 1054.5L1011.8 1155.27Z" fill="#0B0B0D" fill-opacity="0.5"/>
<path d="M1012.3 1054.78L1012.3 1154.98L1099.07 1205.08L1185.85 1154.98L1185.85 1054.78L1099.07 1004.69L1012.3 1054.78Z" stroke="#FFEF99" stroke-opacity="0.2"/>
<path d="M826.448 961.248L826.448 1061.59L739.548 1111.76L652.648 1061.59L652.648 961.248L739.548 911.076L826.448 961.248Z" fill="#0B0B0D" fill-opacity="0.5"/>
<path d="M739.548 911.653L825.948 961.537L825.948 1061.3L739.548 1111.19L653.148 1061.3L653.148 961.537L739.548 911.653Z" stroke="#FFEF99" stroke-opacity="0.2"/>
<path d="M913.032 911.26L913.032 1011.6L826.132 1061.78L739.232 1011.6L739.232 911.26L826.132 861.088L913.032 911.26Z" fill="#0B0B0D" fill-opacity="0.5"/>
<path d="M826.132 861.665L912.532 911.548L912.532 1011.31L826.132 1061.2L739.732 1011.31L739.732 911.548L826.132 861.665Z" stroke="#FFEF99" stroke-opacity="0.2"/>
<path d="M1000.27 1262.31L1000.27 1362.66L913.365 1412.83L826.465 1362.66L826.465 1262.31L913.365 1212.14L1000.27 1262.31Z" fill="#0B0B0D" fill-opacity="0.5"/>
<path d="M913.365 1212.72L999.766 1262.6L999.766 1362.37L913.365 1412.25L826.965 1362.37L826.965 1262.6L913.365 1212.72Z" stroke="#FFEF99" stroke-opacity="0.2"/>
<path d="M1086.85 1212.32L1086.85 1312.67L999.95 1362.84L913.05 1312.67L913.05 1212.32L999.95 1162.15L1086.85 1212.32Z" fill="#0B0B0D" fill-opacity="0.5"/>
<path d="M999.95 1162.73L1086.35 1212.61L1086.35 1312.38L999.95 1362.26L913.55 1312.38L913.55 1212.61L999.95 1162.73Z" stroke="#FFEF99" stroke-opacity="0.2"/>
</g>
<g filter="url(#filter2_f_556_4291)">
<ellipse cx="640" cy="987.001" rx="317.389" ry="86.3838" fill="#FFEF99" fill-opacity="0.1"/>
</g>
<g opacity="0.5">
<path d="M367.975 1511.7L629.074 1360.96L367.975 1210.21L367.975 1511.7Z" fill="#0B0B0D" fill-opacity="0.5"/>
<path d="M368.475 1211.08L368.475 1510.84L628.074 1360.96L368.475 1211.08Z" stroke="#FFEF99" stroke-opacity="0.2"/>
<path d="M280.656 1662.94L541.754 1512.2L280.656 1361.45L280.656 1662.94Z" fill="#0B0B0D" fill-opacity="0.5"/>
<path d="M281.156 1362.32L281.156 1662.08L540.754 1512.2L281.156 1362.32Z" stroke="#FFEF99" stroke-opacity="0.2"/>
<path d="M454.722 1361.45L454.722 1662.94L193.623 1512.2L454.722 1361.45Z" fill="#0B0B0D" fill-opacity="0.5"/>
<path d="M194.623 1512.2L454.222 1362.32L454.222 1662.08L194.623 1512.2Z" stroke="#FFEF99" stroke-opacity="0.2"/>
<path d="M541.292 1211.51L541.292 1513L280.194 1362.25L541.292 1211.51Z" fill="#0B0B0D" fill-opacity="0.5"/>
<path d="M281.194 1362.25L540.792 1212.37L540.792 1512.13L281.194 1362.25Z" stroke="#FFEF99" stroke-opacity="0.2"/>
<path d="M552.843 1418.48L552.843 1519.62L640.428 1570.18L728.013 1519.62L728.013 1418.48L640.428 1367.91L552.843 1418.48Z" fill="#0B0B0D" fill-opacity="0.5"/>
<path d="M640.428 1368.49L553.343 1418.77L553.343 1519.33L640.428 1569.61L727.513 1519.33L727.513 1418.77L640.428 1368.49Z" stroke="#FFEF99" stroke-opacity="0.2"/>
<path d="M181.052 1203.83L181.052 1304.96L268.637 1355.53L356.222 1304.96L356.222 1203.83L268.637 1153.26L181.052 1203.83Z" fill="#0B0B0D" fill-opacity="0.5"/>
<path d="M268.637 1153.84L181.552 1204.12L181.552 1304.68L268.637 1354.95L355.722 1304.68L355.722 1204.12L268.637 1153.84Z" stroke="#FFEF99" stroke-opacity="0.2"/>
<path d="M466.924 1568.88L466.924 1669.22L553.824 1719.4L640.724 1669.22L640.724 1568.88L553.824 1518.71L466.924 1568.88Z" fill="#0B0B0D" fill-opacity="0.5"/>
<path d="M553.824 1519.29L467.424 1569.17L467.424 1668.94L553.824 1718.82L640.224 1668.94L640.224 1569.17L553.824 1519.29Z" stroke="#FFEF99" stroke-opacity="0.2"/>
<path d="M268.951 1455.27L181.679 1505.66L94.407 1455.27L94.407 1354.5L181.679 1304.11L268.951 1354.5L268.951 1455.27Z" fill="#0B0B0D" fill-opacity="0.5"/>
<path d="M268.451 1354.79L268.451 1454.98L181.679 1505.08L94.907 1454.98L94.907 1354.79L181.679 1304.69L268.451 1354.79Z" stroke="#FFEF99" stroke-opacity="0.2"/>
<path d="M454.307 1261.25L454.307 1361.6L541.207 1411.77L628.107 1361.6L628.107 1261.25L541.207 1211.08L454.307 1261.25Z" fill="#0B0B0D" fill-opacity="0.5"/>
<path d="M541.207 1211.66L454.807 1261.54L454.807 1361.31L541.207 1411.19L627.607 1361.31L627.607 1261.54L541.207 1211.66Z" stroke="#FFEF99" stroke-opacity="0.2"/>
<path d="M367.723 1211.27L367.723 1311.61L454.623 1361.78L541.523 1311.61L541.523 1211.27L454.623 1161.09L367.723 1211.27Z" fill="#0B0B0D" fill-opacity="0.5"/>
<path d="M454.623 1161.67L368.223 1211.55L368.223 1311.32L454.623 1361.2L541.023 1311.32L541.023 1211.55L454.623 1161.67Z" stroke="#FFEF99" stroke-opacity="0.2"/>
<path d="M280.486 1562.32L280.486 1662.66L367.387 1712.83L454.287 1662.66L454.287 1562.32L367.387 1512.14L280.486 1562.32Z" fill="#0B0B0D" fill-opacity="0.5"/>
<path d="M367.387 1512.72L280.986 1562.61L280.986 1662.37L367.387 1712.25L453.787 1662.37L453.787 1562.61L367.387 1512.72Z" stroke="#FFEF99" stroke-opacity="0.2"/>
<path d="M193.902 1512.33L193.902 1612.67L280.803 1662.84L367.703 1612.67L367.703 1512.33L280.803 1462.16L193.902 1512.33Z" fill="#0B0B0D" fill-opacity="0.5"/>
<path d="M280.803 1462.73L194.402 1512.62L194.402 1612.38L280.803 1662.27L367.203 1612.38L367.203 1512.62L280.803 1462.73Z" stroke="#FFEF99" stroke-opacity="0.2"/>
</g>
<g opacity="0.5">
<path d="M912.772 1511.7L651.673 1360.96L912.772 1210.21L912.772 1511.7Z" fill="#0B0B0D" fill-opacity="0.5"/>
<path d="M912.272 1211.08L912.272 1510.84L652.673 1360.96L912.272 1211.08Z" stroke="#FFEF99" stroke-opacity="0.2"/>
<path d="M1000.09 1662.94L738.993 1512.2L1000.09 1361.45L1000.09 1662.94Z" fill="#0B0B0D" fill-opacity="0.5"/>
<path d="M999.592 1362.32L999.592 1662.08L739.993 1512.2L999.592 1362.32Z" stroke="#FFEF99" stroke-opacity="0.2"/>
<path d="M826.025 1361.45L826.025 1662.94L1087.12 1512.2L826.025 1361.45Z" fill="#0B0B0D" fill-opacity="0.5"/>
<path d="M1086.12 1512.2L826.525 1362.32L826.525 1662.08L1086.12 1512.2Z" stroke="#FFEF99" stroke-opacity="0.2"/>
<path d="M739.455 1211.51L739.455 1513L1000.55 1362.25L739.455 1211.51Z" fill="#0B0B0D" fill-opacity="0.5"/>
<path d="M999.553 1362.25L739.955 1212.37L739.955 1512.13L999.553 1362.25Z" stroke="#FFEF99" stroke-opacity="0.2"/>
<path d="M727.912 1418.48L727.912 1519.61L640.327 1570.18L552.742 1519.61L552.742 1418.48L640.327 1367.91L727.912 1418.48Z" fill="#0B0B0D" fill-opacity="0.5"/>
<path d="M640.327 1368.49L727.412 1418.77L727.412 1519.33L640.327 1569.6L553.242 1519.33L553.242 1418.77L640.327 1368.49Z" stroke="#FFEF99" stroke-opacity="0.2"/>
<path d="M1099.69 1203.83L1099.69 1304.96L1012.11 1355.53L924.524 1304.96L924.524 1203.83L1012.11 1153.26L1099.69 1203.83Z" fill="#0B0B0D" fill-opacity="0.5"/>
<path d="M1012.11 1153.84L1099.19 1204.12L1099.19 1304.67L1012.11 1354.95L925.024 1304.67L925.024 1204.12L1012.11 1153.84Z" stroke="#FFEF99" stroke-opacity="0.2"/>
<path d="M813.83 1568.88L813.83 1669.22L726.93 1719.39L640.029 1669.22L640.029 1568.88L726.93 1518.7L813.83 1568.88Z" fill="#0B0B0D" fill-opacity="0.5"/>
<path d="M726.93 1519.28L813.33 1569.17L813.33 1668.93L726.93 1718.82L640.529 1668.93L640.529 1569.17L726.93 1519.28Z" stroke="#FFEF99" stroke-opacity="0.2"/>
<path d="M1011.8 1455.27L1099.07 1505.65L1186.35 1455.27L1186.35 1354.5L1099.07 1304.11L1011.8 1354.5L1011.8 1455.27Z" fill="#0B0B0D" fill-opacity="0.5"/>
<path d="M1012.3 1354.78L1012.3 1454.98L1099.07 1505.08L1185.85 1454.98L1185.85 1354.78L1099.07 1304.69L1012.3 1354.78Z" stroke="#FFEF99" stroke-opacity="0.2"/>
<path d="M826.448 1261.25L826.448 1361.59L739.548 1411.76L652.648 1361.59L652.648 1261.25L739.548 1211.08L826.448 1261.25Z" fill="#0B0B0D" fill-opacity="0.5"/>
<path d="M739.548 1211.65L825.948 1261.54L825.948 1361.3L739.548 1411.19L653.148 1361.3L653.148 1261.54L739.548 1211.65Z" stroke="#FFEF99" stroke-opacity="0.2"/>
<path d="M913.032 1211.26L913.032 1311.6L826.132 1361.78L739.232 1311.6L739.232 1211.26L826.132 1161.09L913.032 1211.26Z" fill="#0B0B0D" fill-opacity="0.5"/>
<path d="M826.132 1161.67L912.532 1211.55L912.532 1311.31L826.132 1361.2L739.732 1311.31L739.732 1211.55L826.132 1161.67Z" stroke="#FFEF99" stroke-opacity="0.2"/>
<path d="M1000.27 1562.31L1000.27 1662.66L913.365 1712.83L826.465 1662.66L826.465 1562.31L913.365 1512.14L1000.27 1562.31Z" fill="#0B0B0D" fill-opacity="0.5"/>
<path d="M913.365 1512.72L999.766 1562.6L999.766 1662.37L913.365 1712.25L826.965 1662.37L826.965 1562.6L913.365 1512.72Z" stroke="#FFEF99" stroke-opacity="0.2"/>
<path d="M1086.85 1512.32L1086.85 1612.67L999.95 1662.84L913.05 1612.67L913.05 1512.32L999.95 1462.15L1086.85 1512.32Z" fill="#0B0B0D" fill-opacity="0.5"/>
<path d="M999.95 1462.73L1086.35 1512.61L1086.35 1612.38L999.95 1662.26L913.55 1612.38L913.55 1512.61L999.95 1462.73Z" stroke="#FFEF99" stroke-opacity="0.2"/>
</g>
<g filter="url(#filter3_f_556_4291)">
<ellipse cx="640" cy="1287" rx="317.389" ry="86.3838" fill="#FFEF99" fill-opacity="0.1"/>
</g>
<g opacity="0.5">
<path d="M367.975 1811.7L629.074 1660.96L367.975 1510.21L367.975 1811.7Z" fill="#0B0B0D" fill-opacity="0.5"/>
<path d="M368.475 1511.08L368.475 1810.84L628.074 1660.96L368.475 1511.08Z" stroke="#FFEF99" stroke-opacity="0.2"/>
<path d="M280.656 1962.94L541.754 1812.2L280.656 1661.45L280.656 1962.94Z" fill="#0B0B0D" fill-opacity="0.5"/>
<path d="M281.156 1662.32L281.156 1962.08L540.754 1812.2L281.156 1662.32Z" stroke="#FFEF99" stroke-opacity="0.2"/>
<path d="M454.722 1661.45L454.722 1962.94L193.623 1812.2L454.722 1661.45Z" fill="#0B0B0D" fill-opacity="0.5"/>
<path d="M194.623 1812.2L454.222 1662.32L454.222 1962.08L194.623 1812.2Z" stroke="#FFEF99" stroke-opacity="0.2"/>
<path d="M541.292 1511.51L541.292 1813L280.194 1662.25L541.292 1511.51Z" fill="#0B0B0D" fill-opacity="0.5"/>
<path d="M281.194 1662.25L540.792 1512.37L540.792 1812.13L281.194 1662.25Z" stroke="#FFEF99" stroke-opacity="0.2"/>
<path d="M552.843 1718.48L552.843 1819.62L640.428 1870.18L728.013 1819.62L728.013 1718.48L640.428 1667.91L552.843 1718.48Z" fill="#0B0B0D" fill-opacity="0.5"/>
<path d="M640.428 1668.49L553.343 1718.77L553.343 1819.33L640.428 1869.61L727.513 1819.33L727.513 1718.77L640.428 1668.49Z" stroke="#FFEF99" stroke-opacity="0.2"/>
<path d="M181.052 1503.83L181.052 1604.96L268.637 1655.53L356.222 1604.96L356.222 1503.83L268.637 1453.26L181.052 1503.83Z" fill="#0B0B0D" fill-opacity="0.5"/>
<path d="M268.637 1453.84L181.552 1504.12L181.552 1604.68L268.637 1654.95L355.722 1604.68L355.722 1504.12L268.637 1453.84Z" stroke="#FFEF99" stroke-opacity="0.2"/>
<path d="M466.924 1868.88L466.924 1969.22L553.824 2019.4L640.724 1969.22L640.724 1868.88L553.824 1818.71L466.924 1868.88Z" fill="#0B0B0D" fill-opacity="0.5"/>
<path d="M553.824 1819.29L467.424 1869.17L467.424 1968.94L553.824 2018.82L640.224 1968.94L640.224 1869.17L553.824 1819.29Z" stroke="#FFEF99" stroke-opacity="0.2"/>
<path d="M268.951 1755.27L181.679 1805.66L94.407 1755.27L94.407 1654.5L181.679 1604.11L268.951 1654.5L268.951 1755.27Z" fill="#0B0B0D" fill-opacity="0.5"/>
<path d="M268.451 1654.79L268.451 1754.98L181.679 1805.08L94.907 1754.98L94.907 1654.79L181.679 1604.69L268.451 1654.79Z" stroke="#FFEF99" stroke-opacity="0.2"/>
<path d="M454.307 1561.25L454.307 1661.6L541.207 1711.77L628.107 1661.6L628.107 1561.25L541.207 1511.08L454.307 1561.25Z" fill="#0B0B0D" fill-opacity="0.5"/>
<path d="M541.207 1511.66L454.807 1561.54L454.807 1661.31L541.207 1711.19L627.607 1661.31L627.607 1561.54L541.207 1511.66Z" stroke="#FFEF99" stroke-opacity="0.2"/>
<path d="M367.723 1511.27L367.723 1611.61L454.623 1661.78L541.523 1611.61L541.523 1511.27L454.623 1461.09L367.723 1511.27Z" fill="#0B0B0D" fill-opacity="0.5"/>
<path d="M454.623 1461.67L368.223 1511.55L368.223 1611.32L454.623 1661.2L541.023 1611.32L541.023 1511.55L454.623 1461.67Z" stroke="#FFEF99" stroke-opacity="0.2"/>
<path d="M280.486 1862.32L280.486 1962.66L367.387 2012.83L454.287 1962.66L454.287 1862.32L367.387 1812.14L280.486 1862.32Z" fill="#0B0B0D" fill-opacity="0.5"/>
<path d="M367.387 1812.72L280.986 1862.61L280.986 1962.37L367.387 2012.25L453.787 1962.37L453.787 1862.61L367.387 1812.72Z" stroke="#FFEF99" stroke-opacity="0.2"/>
<path d="M193.902 1812.33L193.902 1912.67L280.803 1962.84L367.703 1912.67L367.703 1812.33L280.803 1762.16L193.902 1812.33Z" fill="#0B0B0D" fill-opacity="0.5"/>
<path d="M280.803 1762.73L194.402 1812.62L194.402 1912.38L280.803 1962.27L367.203 1912.38L367.203 1812.62L280.803 1762.73Z" stroke="#FFEF99" stroke-opacity="0.2"/>
</g>
<g opacity="0.5">
<path d="M912.772 1811.7L651.673 1660.96L912.772 1510.21L912.772 1811.7Z" fill="#0B0B0D" fill-opacity="0.5"/>
<path d="M912.272 1511.08L912.272 1810.84L652.673 1660.96L912.272 1511.08Z" stroke="#FFEF99" stroke-opacity="0.2"/>
<path d="M1000.09 1962.94L738.993 1812.2L1000.09 1661.45L1000.09 1962.94Z" fill="#0B0B0D" fill-opacity="0.5"/>
<path d="M999.592 1662.32L999.592 1962.08L739.993 1812.2L999.592 1662.32Z" stroke="#FFEF99" stroke-opacity="0.2"/>
<path d="M826.025 1661.45L826.025 1962.94L1087.12 1812.2L826.025 1661.45Z" fill="#0B0B0D" fill-opacity="0.5"/>
<path d="M1086.12 1812.2L826.525 1662.32L826.525 1962.08L1086.12 1812.2Z" stroke="#FFEF99" stroke-opacity="0.2"/>
<path d="M739.455 1511.51L739.455 1813L1000.55 1662.25L739.455 1511.51Z" fill="#0B0B0D" fill-opacity="0.5"/>
<path d="M999.553 1662.25L739.955 1512.37L739.955 1812.13L999.553 1662.25Z" stroke="#FFEF99" stroke-opacity="0.2"/>
<path d="M727.912 1718.48L727.912 1819.61L640.327 1870.18L552.742 1819.61L552.742 1718.48L640.327 1667.91L727.912 1718.48Z" fill="#0B0B0D" fill-opacity="0.5"/>
<path d="M640.327 1668.49L727.412 1718.77L727.412 1819.33L640.327 1869.6L553.242 1819.33L553.242 1718.77L640.327 1668.49Z" stroke="#FFEF99" stroke-opacity="0.2"/>
<path d="M1099.69 1503.83L1099.69 1604.96L1012.11 1655.53L924.524 1604.96L924.524 1503.83L1012.11 1453.26L1099.69 1503.83Z" fill="#0B0B0D" fill-opacity="0.5"/>
<path d="M1012.11 1453.84L1099.19 1504.12L1099.19 1604.67L1012.11 1654.95L925.024 1604.67L925.024 1504.12L1012.11 1453.84Z" stroke="#FFEF99" stroke-opacity="0.2"/>
<path d="M813.83 1868.88L813.83 1969.22L726.93 2019.39L640.029 1969.22L640.029 1868.88L726.93 1818.7L813.83 1868.88Z" fill="#0B0B0D" fill-opacity="0.5"/>
<path d="M726.93 1819.28L813.33 1869.17L813.33 1968.93L726.93 2018.82L640.529 1968.93L640.529 1869.17L726.93 1819.28Z" stroke="#FFEF99" stroke-opacity="0.2"/>
<path d="M1011.8 1755.27L1099.07 1805.65L1186.35 1755.27L1186.35 1654.5L1099.07 1604.11L1011.8 1654.5L1011.8 1755.27Z" fill="#0B0B0D" fill-opacity="0.5"/>
<path d="M1012.3 1654.78L1012.3 1754.98L1099.07 1805.08L1185.85 1754.98L1185.85 1654.78L1099.07 1604.69L1012.3 1654.78Z" stroke="#FFEF99" stroke-opacity="0.2"/>
<path d="M826.448 1561.25L826.448 1661.59L739.548 1711.76L652.648 1661.59L652.648 1561.25L739.548 1511.08L826.448 1561.25Z" fill="#0B0B0D" fill-opacity="0.5"/>
<path d="M739.548 1511.65L825.948 1561.54L825.948 1661.3L739.548 1711.19L653.148 1661.3L653.148 1561.54L739.548 1511.65Z" stroke="#FFEF99" stroke-opacity="0.2"/>
<path d="M913.032 1511.26L913.032 1611.6L826.132 1661.78L739.232 1611.6L739.232 1511.26L826.132 1461.09L913.032 1511.26Z" fill="#0B0B0D" fill-opacity="0.5"/>
<path d="M826.132 1461.67L912.532 1511.55L912.532 1611.31L826.132 1661.2L739.732 1611.31L739.732 1511.55L826.132 1461.67Z" stroke="#FFEF99" stroke-opacity="0.2"/>
<path d="M1000.27 1862.31L1000.27 1962.66L913.365 2012.83L826.465 1962.66L826.465 1862.31L913.365 1812.14L1000.27 1862.31Z" fill="#0B0B0D" fill-opacity="0.5"/>
<path d="M913.365 1812.72L999.766 1862.6L999.766 1962.37L913.365 2012.25L826.965 1962.37L826.965 1862.6L913.365 1812.72Z" stroke="#FFEF99" stroke-opacity="0.2"/>
<path d="M1086.85 1812.32L1086.85 1912.67L999.95 1962.84L913.05 1912.67L913.05 1812.32L999.95 1762.15L1086.85 1812.32Z" fill="#0B0B0D" fill-opacity="0.5"/>
<path d="M999.95 1762.73L1086.35 1812.61L1086.35 1912.38L999.95 1962.26L913.55 1912.38L913.55 1812.61L999.95 1762.73Z" stroke="#FFEF99" stroke-opacity="0.2"/>
</g>
<g filter="url(#filter4_f_556_4291)">
<ellipse cx="640" cy="1587" rx="317.389" ry="86.3838" fill="#FFEF99" fill-opacity="0.1"/>
</g>
<defs>
<filter id="filter0_f_556_4291" x="22.6113" y="0.617188" width="1234.78" height="772.768" filterUnits="userSpaceOnUse" color-interpolation-filters="sRGB">
<feFlood flood-opacity="0" result="BackgroundImageFix"/>
<feBlend mode="normal" in="SourceGraphic" in2="BackgroundImageFix" result="shape"/>
<feGaussianBlur stdDeviation="150" result="effect1_foregroundBlur_556_4291"/>
</filter>
<filter id="filter1_f_556_4291" x="22.6113" y="300.617" width="1234.78" height="772.768" filterUnits="userSpaceOnUse" color-interpolation-filters="sRGB">
<feFlood flood-opacity="0" result="BackgroundImageFix"/>
<feBlend mode="normal" in="SourceGraphic" in2="BackgroundImageFix" result="shape"/>
<feGaussianBlur stdDeviation="150" result="effect1_foregroundBlur_556_4291"/>
</filter>
<filter id="filter2_f_556_4291" x="22.6113" y="600.617" width="1234.78" height="772.768" filterUnits="userSpaceOnUse" color-interpolation-filters="sRGB">
<feFlood flood-opacity="0" result="BackgroundImageFix"/>
<feBlend mode="normal" in="SourceGraphic" in2="BackgroundImageFix" result="shape"/>
<feGaussianBlur stdDeviation="150" result="effect1_foregroundBlur_556_4291"/>
</filter>
<filter id="filter3_f_556_4291" x="22.6113" y="900.617" width="1234.78" height="772.768" filterUnits="userSpaceOnUse" color-interpolation-filters="sRGB">
<feFlood flood-opacity="0" result="BackgroundImageFix"/>
<feBlend mode="normal" in="SourceGraphic" in2="BackgroundImageFix" result="shape"/>
<feGaussianBlur stdDeviation="150" result="effect1_foregroundBlur_556_4291"/>
</filter>
<filter id="filter4_f_556_4291" x="22.6113" y="1200.62" width="1234.78" height="772.768" filterUnits="userSpaceOnUse" color-interpolation-filters="sRGB">
<feFlood flood-opacity="0" result="BackgroundImageFix"/>
<feBlend mode="normal" in="SourceGraphic" in2="BackgroundImageFix" result="shape"/>
<feGaussianBlur stdDeviation="150" result="effect1_foregroundBlur_556_4291"/>
</filter>
</defs>
</svg>
