<svg width="255" height="179" viewBox="0 0 255 179" fill="none" xmlns="http://www.w3.org/2000/svg">
<path d="M254.97 171.693C254.97 174.638 252.582 177.026 249.637 177.026C246.691 177.026 244.303 174.638 244.303 171.693C244.303 168.747 246.691 166.359 249.637 166.359C252.582 166.359 254.97 168.747 254.97 171.693ZM140.093 86.3206L139.647 85.4259L140.093 86.3206ZM248.96 172.921C248.428 173.067 247.877 172.754 247.731 172.222C247.584 171.689 247.897 171.139 248.43 170.992L248.96 172.921ZM244.612 171.97C245.15 171.842 245.689 172.174 245.817 172.711C245.944 173.249 245.612 173.788 245.075 173.916L244.612 171.97ZM243.085 174.371C242.546 174.49 242.012 174.149 241.893 173.61C241.774 173.071 242.115 172.537 242.655 172.418L243.085 174.371ZM238.8 173.206C239.342 173.103 239.865 173.46 239.968 174.003C240.07 174.546 239.714 175.069 239.171 175.171L238.8 173.206ZM237.185 175.531C236.641 175.626 236.123 175.262 236.029 174.717C235.934 174.173 236.298 173.655 236.842 173.561L237.185 175.531ZM232.917 174.189C233.463 174.109 233.971 174.487 234.051 175.034C234.131 175.58 233.753 176.088 233.207 176.168L232.917 174.189ZM231.227 176.445C230.68 176.518 230.177 176.134 230.104 175.586C230.031 175.039 230.415 174.536 230.962 174.463L231.227 176.445ZM226.995 174.944C227.544 174.884 228.037 175.28 228.097 175.829C228.157 176.378 227.761 176.872 227.212 176.932L226.995 174.944ZM225.226 177.137C224.676 177.191 224.187 176.789 224.133 176.239C224.08 175.69 224.482 175.2 225.031 175.147L225.226 177.137ZM221.081 175.489C221.632 175.447 222.112 175.86 222.154 176.41C222.196 176.961 221.783 177.441 221.232 177.483L221.081 175.489ZM219.215 177.625C218.663 177.661 218.188 177.243 218.152 176.692C218.116 176.141 218.533 175.665 219.085 175.629L219.215 177.625ZM215.129 175.847C215.681 175.822 216.148 176.249 216.173 176.801C216.198 177.353 215.771 177.82 215.219 177.845L215.129 175.847ZM213.214 177.925C212.662 177.945 212.199 177.513 212.179 176.961C212.16 176.409 212.592 175.946 213.144 175.927L213.214 177.925ZM209.155 176.029C209.707 176.02 210.162 176.46 210.171 177.013C210.18 177.565 209.74 178.02 209.188 178.029L209.155 176.029ZM207.191 178.052C206.638 178.056 206.187 177.612 206.183 177.06C206.179 176.507 206.624 176.056 207.176 176.052L207.191 178.052ZM203.198 176.045C203.75 176.051 204.193 176.504 204.187 177.056C204.181 177.608 203.729 178.051 203.176 178.045L203.198 176.045ZM201.161 178.015C200.609 178.004 200.17 177.548 200.18 176.996C200.191 176.443 200.648 176.004 201.2 176.015L201.161 178.015ZM197.234 175.904C197.786 175.924 198.217 176.388 198.196 176.94C198.176 177.492 197.712 177.923 197.16 177.903L197.234 175.904ZM195.156 177.821C194.604 177.796 194.177 177.328 194.202 176.777C194.226 176.225 194.694 175.798 195.246 175.823L195.156 177.821ZM191.269 175.61C191.82 175.644 192.239 176.119 192.205 176.67C192.171 177.221 191.697 177.64 191.146 177.606L191.269 175.61ZM189.146 177.474C188.595 177.436 188.179 176.958 188.218 176.407C188.257 175.856 188.735 175.441 189.285 175.479L189.146 177.474ZM185.32 175.168C185.87 175.216 186.277 175.701 186.23 176.251C186.182 176.801 185.697 177.209 185.147 177.161L185.32 175.168ZM183.149 176.98C182.599 176.927 182.196 176.439 182.248 175.89C182.3 175.34 182.788 174.936 183.338 174.988L183.149 176.98ZM179.378 174.58C179.926 174.641 180.322 175.136 180.261 175.684C180.199 176.233 179.705 176.629 179.156 176.568L179.378 174.58ZM177.165 176.337C176.617 176.272 176.225 175.774 176.291 175.226C176.357 174.677 176.855 174.286 177.403 174.352L177.165 176.337ZM173.456 173.846C174.004 173.921 174.387 174.425 174.312 174.972C174.237 175.519 173.733 175.902 173.186 175.828L173.456 173.846ZM171.196 175.547C170.649 175.468 170.27 174.961 170.349 174.414C170.429 173.867 170.936 173.489 171.483 173.568L171.196 175.547ZM167.558 172.965C168.103 173.053 168.473 173.567 168.385 174.112C168.296 174.657 167.783 175.028 167.237 174.939L167.558 172.965ZM165.26 174.609C164.715 174.516 164.349 173.999 164.443 173.455C164.536 172.911 165.053 172.545 165.597 172.638L165.26 174.609ZM161.671 171.931C162.214 172.034 162.571 172.557 162.468 173.1C162.365 173.642 161.842 173.999 161.3 173.896L161.671 171.931ZM159.336 173.516C158.795 173.408 158.443 172.882 158.55 172.34C158.658 171.799 159.184 171.447 159.726 171.554L159.336 173.516ZM155.828 170.744C156.368 170.861 156.71 171.394 156.592 171.933C156.475 172.473 155.942 172.815 155.403 172.698L155.828 170.744ZM153.438 172.261C152.9 172.138 152.562 171.602 152.685 171.064C152.807 170.525 153.343 170.188 153.882 170.311L153.438 172.261ZM150.038 169.397C150.574 169.53 150.901 170.072 150.768 170.608C150.635 171.144 150.093 171.471 149.557 171.338L150.038 169.397ZM147.593 170.841C147.059 170.702 146.737 170.157 146.876 169.622C147.014 169.087 147.56 168.766 148.095 168.905L147.593 170.841ZM144.254 167.867C144.785 168.017 145.095 168.569 144.945 169.101C144.796 169.632 144.243 169.942 143.712 169.792L144.254 167.867ZM141.802 169.243C141.272 169.088 140.969 168.532 141.124 168.002C141.28 167.472 141.835 167.169 142.365 167.324L141.802 169.243ZM138.539 166.153C139.065 166.321 139.356 166.884 139.188 167.41C139.02 167.936 138.457 168.227 137.931 168.059L138.539 166.153ZM136.026 167.438C135.502 167.264 135.219 166.698 135.393 166.174C135.567 165.649 136.134 165.366 136.658 165.54L136.026 167.438ZM132.912 164.241C133.432 164.429 133.7 165.002 133.512 165.521C133.325 166.041 132.751 166.309 132.232 166.121L132.912 164.241ZM130.332 165.419C129.815 165.224 129.555 164.647 129.75 164.13C129.945 163.613 130.522 163.353 131.039 163.548L130.332 165.419ZM127.392 162.109C127.903 162.319 128.146 162.904 127.936 163.415C127.725 163.925 127.141 164.169 126.63 163.958L127.392 162.109ZM124.739 163.161C124.232 162.942 123.998 162.353 124.217 161.846C124.436 161.339 125.024 161.106 125.531 161.324L124.739 163.161ZM121.937 159.699C122.436 159.936 122.649 160.532 122.413 161.031C122.176 161.53 121.58 161.743 121.081 161.507L121.937 159.699ZM119.27 160.627C118.775 160.381 118.574 159.781 118.82 159.286C119.066 158.792 119.666 158.591 120.161 158.837L119.27 160.627ZM116.644 156.993C117.127 157.26 117.303 157.869 117.036 158.352C116.769 158.836 116.16 159.011 115.677 158.744L116.644 156.993ZM113.955 157.767C113.478 157.489 113.317 156.876 113.595 156.399C113.874 155.922 114.486 155.761 114.963 156.039L113.955 157.767ZM111.572 153.94C112.033 154.243 112.161 154.864 111.857 155.325C111.554 155.786 110.934 155.914 110.472 155.61L111.572 153.94ZM108.831 154.496C108.379 154.178 108.27 153.555 108.587 153.103C108.904 152.65 109.528 152.541 109.98 152.858L108.831 154.496ZM106.812 150.47C107.241 150.819 107.306 151.448 106.958 151.877C106.61 152.306 105.98 152.371 105.551 152.023L106.812 150.47ZM104.031 150.739C103.616 150.374 103.576 149.742 103.941 149.328C104.305 148.913 104.937 148.872 105.352 149.237L104.031 150.739ZM102.517 146.504C102.895 146.906 102.876 147.539 102.473 147.918C102.071 148.296 101.438 148.276 101.06 147.874L102.517 146.504ZM99.714 146.363C99.3581 145.941 99.412 145.31 99.8344 144.954C100.257 144.598 100.888 144.652 101.243 145.075L99.714 146.363ZM98.9405 141.965C99.2385 142.43 99.1032 143.049 98.6382 143.347C98.1733 143.645 97.5547 143.51 97.2567 143.045L98.9405 141.965ZM96.1996 141.251C95.9379 140.764 96.12 140.158 96.6063 139.896C97.0927 139.634 97.6991 139.817 97.9608 140.303L96.1996 141.251ZM96.448 136.816C96.6218 137.34 96.3377 137.906 95.8134 138.08C95.2892 138.254 94.7233 137.97 94.5496 137.445L96.448 136.816ZM93.9857 135.424C93.8635 134.885 94.201 134.35 94.7396 134.227C95.2782 134.105 95.8139 134.443 95.9361 134.981L93.9857 135.424ZM95.4743 131.243C95.4863 131.795 95.0484 132.252 94.4962 132.264C93.9441 132.276 93.4867 131.838 93.4747 131.286L95.4743 131.243ZM93.5358 129.177C93.5794 128.626 94.0611 128.215 94.6117 128.259C95.1622 128.303 95.5732 128.784 95.5295 129.335L93.5358 129.177ZM96.1815 125.615C96.0376 126.148 95.4887 126.464 94.9555 126.32C94.4223 126.176 94.1067 125.627 94.2506 125.094L96.1815 125.615ZM94.884 123.088C95.0719 122.569 95.6452 122.3 96.1646 122.488C96.6839 122.676 96.9527 123.249 96.7648 123.769L94.884 123.088ZM98.3282 120.27C98.0691 120.758 97.4637 120.943 96.976 120.684C96.4882 120.425 96.3028 119.82 96.5619 119.332L98.3282 120.27ZM97.5777 117.552C97.8655 117.081 98.4809 116.932 98.9523 117.22C99.4237 117.508 99.5725 118.123 99.2848 118.594L97.5777 117.552ZM101.481 115.389C101.147 115.829 100.52 115.915 100.08 115.58C99.6404 115.246 99.5547 114.619 99.8888 114.179L101.481 115.389ZM101.168 112.57C101.521 112.145 102.151 112.086 102.576 112.439C103.001 112.792 103.06 113.423 102.707 113.847L101.168 112.57ZM105.283 110.971C104.901 111.369 104.268 111.382 103.869 110.999C103.471 110.616 103.458 109.983 103.841 109.585L105.283 110.971ZM105.336 108.08C105.731 107.695 106.364 107.703 106.75 108.098C107.135 108.494 107.127 109.127 106.732 109.512L105.336 108.08ZM109.539 106.922C109.124 107.285 108.492 107.244 108.128 106.828C107.764 106.413 107.806 105.781 108.221 105.417L109.539 106.922ZM109.772 104.092C110.196 103.738 110.827 103.795 111.18 104.219C111.534 104.643 111.477 105.274 111.053 105.628L109.772 104.092ZM114.175 103.137C113.736 103.472 113.109 103.389 112.773 102.95C112.438 102.511 112.522 101.883 112.96 101.548L114.175 103.137ZM114.52 100.378C114.965 100.051 115.591 100.146 115.919 100.591C116.246 101.035 116.151 101.661 115.706 101.989L114.52 100.378ZM118.968 99.6738C118.513 99.9859 117.89 99.8695 117.578 99.4139C117.266 98.9583 117.382 98.3359 117.838 98.0238L118.968 99.6738ZM119.597 96.8398C120.057 96.535 120.678 96.6612 120.982 97.1218C121.287 97.5823 121.161 98.2028 120.7 98.5076L119.597 96.8398ZM123.903 96.4491C123.434 96.7417 122.818 96.5992 122.525 96.1308C122.232 95.6625 122.375 95.0455 122.843 94.7529L123.903 96.4491ZM124.545 93.7042C125.017 93.4174 125.632 93.5675 125.919 94.0395C126.206 94.5115 126.056 95.1266 125.584 95.4134L124.545 93.7042ZM129.108 93.3296C128.629 93.6052 128.018 93.4407 127.742 92.9621C127.466 92.4835 127.631 91.8721 128.11 91.5965L129.108 93.3296ZM129.838 90.6131C130.319 90.3425 130.929 90.5134 131.2 90.9948C131.47 91.4762 131.299 92.0859 130.818 92.3566L129.838 90.6131ZM134.201 90.4973C133.714 90.7588 133.108 90.5765 132.846 90.0901C132.585 89.6036 132.767 88.9973 133.254 88.7357L134.201 90.4973ZM135.026 87.7932C135.515 87.5361 136.119 87.7238 136.376 88.2126C136.634 88.7013 136.446 89.306 135.957 89.5632L135.026 87.7932ZM139.601 87.6863C139.108 87.9351 138.507 87.7369 138.258 87.2438C138.009 86.7507 138.207 86.1493 138.701 85.9006L139.601 87.6863ZM140.573 84.9612C141.066 84.7124 141.667 84.9105 141.916 85.4036C142.165 85.8967 141.967 86.498 141.474 86.7468L140.573 84.9612ZM145.101 84.8768C144.613 85.1342 144.008 84.9468 143.751 84.4582C143.493 83.9696 143.681 83.3648 144.169 83.1074L145.101 84.8768ZM145.903 82.1837C146.389 81.9217 146.996 82.1035 147.258 82.5897C147.52 83.076 147.338 83.6825 146.852 83.9444L145.903 82.1837ZM150.253 82.0694C149.772 82.3408 149.162 82.1709 148.891 81.6899C148.62 81.2089 148.789 80.5989 149.27 80.3276L150.253 82.0694ZM151.055 79.3074C151.533 79.0306 152.145 79.1936 152.422 79.6715C152.699 80.1494 152.535 80.7612 152.058 81.038L151.055 79.3074ZM155.512 78.9826C155.041 79.2707 154.426 79.1224 154.137 78.6512C153.849 78.1801 153.998 77.5646 154.469 77.2764L155.512 78.9826ZM156.098 76.2658C156.566 75.9717 157.183 76.1122 157.477 76.5797C157.771 77.0472 157.631 77.6645 157.163 77.9586L156.098 76.2658ZM160.558 75.7548C160.1 76.0623 159.479 75.9397 159.171 75.481C158.864 75.0222 158.986 74.401 159.445 74.0935L160.558 75.7548ZM161.086 72.9742C161.54 72.6594 162.163 72.772 162.478 73.2258C162.793 73.6796 162.68 74.3027 162.227 74.6175L161.086 72.9742ZM165.386 72.3465C164.943 72.6767 164.316 72.5855 163.986 72.1428C163.656 71.7001 163.747 71.0736 164.19 70.7433L165.386 72.3465ZM165.823 69.4988C166.259 69.1595 166.887 69.2377 167.227 69.6734C167.566 70.1092 167.488 70.7375 167.052 71.0768L165.823 69.4988ZM170.153 68.5516C169.733 68.9101 169.102 68.8602 168.743 68.4401C168.385 68.02 168.435 67.3888 168.855 67.0303L170.153 68.5516ZM170.297 65.768C170.708 65.3991 171.341 65.4332 171.71 65.8441C172.079 66.2551 172.044 66.8874 171.633 67.2563L170.297 65.768ZM174.603 64.4296C174.215 64.8227 173.582 64.8269 173.189 64.4389C172.796 64.0509 172.792 63.4178 173.18 63.0247L174.603 64.4296ZM174.475 61.6689C174.85 61.2632 175.482 61.238 175.888 61.6127C176.294 61.9874 176.319 62.6201 175.944 63.0258L174.475 61.6689ZM178.622 59.8828C178.282 60.3183 177.654 60.3958 177.219 60.0561C176.783 59.7164 176.706 59.088 177.045 58.6525L178.622 59.8828ZM178.158 57.1566C178.478 56.7058 179.102 56.5991 179.552 56.9182C180.003 57.2372 180.11 57.8614 179.791 58.3121L178.158 57.1566ZM181.989 54.8009C181.725 55.2861 181.118 55.4655 180.633 55.2017C180.148 54.9379 179.968 54.3307 180.232 53.8455L181.989 54.8009ZM181.078 52.1574C181.308 51.6552 181.901 51.4344 182.403 51.6642C182.905 51.8941 183.126 52.4875 182.896 52.9897L181.078 52.1574ZM184.305 49.1236C184.161 49.6568 183.612 49.9724 183.079 49.8286C182.545 49.6847 182.23 49.1359 182.374 48.6026L184.305 49.1236ZM182.784 46.7234C182.874 46.1786 183.389 45.8104 183.934 45.9009C184.479 45.9914 184.847 46.5065 184.757 47.0513L182.784 46.7234ZM185.003 42.8961C185.03 43.4477 184.605 43.9171 184.054 43.9446C183.502 43.972 183.033 43.547 183.005 42.9954L185.003 42.8961ZM182.808 41.1356C182.719 40.5905 183.089 40.0765 183.634 39.9875C184.179 39.8986 184.693 40.2683 184.782 40.8134L182.808 41.1356ZM183.663 36.7886C183.866 37.3021 183.615 37.8832 183.102 38.0866C182.588 38.2901 182.007 38.0388 181.804 37.5253L183.663 36.7886ZM181.03 35.8215C180.778 35.3301 180.972 34.7274 181.463 34.4754C181.955 34.2234 182.557 34.4174 182.809 34.9089L181.03 35.8215ZM180.609 31.4051C180.939 31.8475 180.849 32.4741 180.406 32.8048C179.964 33.1354 179.337 33.0449 179.007 32.6025L180.609 31.4051ZM177.811 31.1172C177.45 30.6991 177.497 30.0677 177.915 29.7068C178.333 29.3459 178.964 29.3922 179.325 29.8103L177.811 31.1172ZM176.476 26.8918C176.884 27.2645 176.912 27.897 176.539 28.3046C176.166 28.7121 175.534 28.7404 175.126 28.3677L176.476 26.8918ZM173.642 27.0779C173.216 26.7261 173.156 26.0958 173.508 25.6701C173.86 25.2444 174.49 25.1845 174.916 25.5363L173.642 27.0779ZM171.708 23.1087C172.161 23.4241 172.273 24.0473 171.958 24.5007C171.642 24.954 171.019 25.0659 170.566 24.7505L171.708 23.1087ZM168.905 23.64C168.44 23.3414 168.306 22.7226 168.604 22.2581C168.903 21.7935 169.522 21.6591 169.986 21.9578L168.905 23.64ZM166.569 19.9086C167.05 20.1786 167.222 20.788 166.952 21.2698C166.682 21.7516 166.073 21.9234 165.591 21.6535L166.569 19.9086ZM163.83 20.6987C163.341 20.442 163.152 19.8375 163.409 19.3485C163.666 18.8595 164.27 18.6711 164.759 18.9277L163.83 20.6987ZM161.197 17.1662C161.698 17.3997 161.914 17.9947 161.681 18.4952C161.447 18.9957 160.852 19.2121 160.352 18.9786L161.197 17.1662ZM158.538 18.1559C158.032 17.9331 157.803 17.3429 158.026 16.8375C158.249 16.3322 158.839 16.1031 159.345 16.3259L158.538 18.1559ZM155.664 14.787C156.177 14.9906 156.428 15.5719 156.225 16.0852C156.021 16.5986 155.44 16.8497 154.926 16.646L155.664 14.787ZM153.088 15.9351C152.571 15.7402 152.31 15.1633 152.505 14.6465C152.7 14.1298 153.277 13.8688 153.794 14.0637L153.088 15.9351ZM150.003 12.703C150.525 12.8815 150.804 13.45 150.626 13.9726C150.447 14.4952 149.879 14.7741 149.356 14.5955L150.003 12.703ZM147.51 13.9794C146.985 13.8082 146.698 13.2437 146.87 12.7186C147.041 12.1935 147.605 11.9067 148.13 12.0779L147.51 13.9794ZM144.26 10.8737C144.79 11.0309 145.092 11.5875 144.934 12.117C144.777 12.6464 144.221 12.9482 143.691 12.791L144.26 10.8737ZM141.82 12.2479C141.289 12.0971 140.98 11.5442 141.131 11.0129C141.282 10.4816 141.835 10.1731 142.366 10.3239L141.82 12.2479ZM138.528 9.28206C139.063 9.4208 139.384 9.96663 139.245 10.5012C139.106 11.0358 138.56 11.3567 138.026 11.2179L138.528 9.28206ZM136.076 10.7231C135.54 10.5902 135.213 10.0478 135.346 9.51179C135.479 8.97575 136.021 8.64898 136.557 8.78194L136.076 10.7231ZM132.707 7.86783C133.246 7.99015 133.583 8.52591 133.461 9.06448C133.338 9.60305 132.803 9.94048 132.264 9.81815L132.707 7.86783ZM130.337 9.39012C129.798 9.27285 129.455 8.74029 129.572 8.2006C129.69 7.6609 130.222 7.31845 130.762 7.43572L130.337 9.39012ZM126.799 6.61245C127.34 6.71994 127.692 7.24623 127.585 7.78795C127.477 8.32968 126.951 8.68169 126.409 8.5742L126.799 6.61245ZM124.506 8.20468C123.963 8.10168 123.607 7.57832 123.71 7.03572C123.813 6.49313 124.336 6.13677 124.879 6.23977L124.506 8.20468ZM120.964 5.52942C121.508 5.6237 121.872 6.14127 121.778 6.68545C121.684 7.22963 121.166 7.59435 120.622 7.50007L120.964 5.52942ZM118.643 7.16518C118.098 7.07515 117.729 6.56043 117.819 6.01554C117.91 5.47064 118.424 5.1019 118.969 5.19193L118.643 7.16518ZM115.051 4.57425C115.597 4.6563 115.974 5.16557 115.891 5.71172C115.809 6.25788 115.3 6.63411 114.754 6.55205L115.051 4.57425ZM112.806 6.26645C112.26 6.18824 111.88 5.68162 111.958 5.13491C112.036 4.58819 112.543 4.2084 113.09 4.28662L112.806 6.26645ZM109.103 3.74436C109.651 3.81508 110.038 4.31645 109.967 4.86419C109.896 5.41192 109.395 5.79861 108.847 5.72789L109.103 3.74436ZM106.877 5.48004C106.329 5.4129 105.939 4.91408 106.006 4.36589C106.073 3.8177 106.572 3.42773 107.12 3.49487L106.877 5.48004ZM103.2 3.03979C103.749 3.10007 104.145 3.59398 104.085 4.14297C104.024 4.69195 103.53 5.08812 102.981 5.02784L103.2 3.03979ZM101.006 4.81708C100.457 4.76015 100.058 4.26868 100.115 3.71933C100.172 3.16999 100.663 2.7708 101.212 2.82773L101.006 4.81708ZM97.2045 2.43677C97.7545 2.48713 98.1595 2.9738 98.1092 3.52378C98.0588 4.07377 97.5721 4.4788 97.0222 4.42844L97.2045 2.43677ZM95.0782 4.256C94.5279 4.20875 94.1202 3.72437 94.1674 3.17411C94.2147 2.62385 94.699 2.21608 95.2493 2.26333L95.0782 4.256ZM91.2915 1.94576C91.8423 1.98689 92.2554 2.46671 92.2142 3.01746C92.1731 3.56821 91.6933 3.98134 91.1425 3.9402L91.2915 1.94576ZM89.1513 3.79697C88.6003 3.75885 88.1846 3.2813 88.2227 2.73033C88.2608 2.17937 88.7384 1.76362 89.2894 1.80175L89.1513 3.79697ZM85.3024 1.54723C85.8537 1.57951 86.2745 2.05263 86.2422 2.60397C86.2099 3.15531 85.7368 3.57609 85.1855 3.54381L85.3024 1.54723ZM83.2266 3.43417C82.6751 3.40471 82.2519 2.93375 82.2814 2.38225C82.3108 1.83075 82.7818 1.40756 83.3333 1.43702L83.2266 3.43417ZM79.3546 1.24469C79.9064 1.26859 80.3343 1.73526 80.3104 2.28703C80.2865 2.83879 79.8198 3.26672 79.2681 3.24282L79.3546 1.24469ZM77.2687 3.16122C76.7168 3.14007 76.2866 2.67554 76.3077 2.12366C76.3289 1.57178 76.7934 1.14154 77.3453 1.16269L77.2687 3.16122ZM73.3706 1.02963C73.9227 1.04546 74.3574 1.50582 74.3415 2.05788C74.3257 2.60994 73.8654 3.04464 73.3133 3.02881L73.3706 1.02963ZM71.3463 2.97705C70.7942 2.96382 70.3573 2.50551 70.3705 1.95338C70.3838 1.40125 70.8421 0.964394 71.3942 0.977627L71.3463 2.97705ZM67.4065 0.900691C67.9587 0.908785 68.3998 1.36301 68.3917 1.91524C68.3836 2.46747 67.9294 2.90857 67.3772 2.90048L67.4065 0.900691ZM65.3754 2.87576C64.8231 2.87021 64.3799 2.41802 64.3855 1.86576C64.391 1.3135 64.8432 0.870309 65.3954 0.875858L65.3754 2.87576ZM61.4256 0.853789C61.9779 0.854398 62.4251 1.30261 62.4245 1.85489C62.4239 2.40718 61.9757 2.8544 61.4234 2.85379L61.4256 0.853789ZM59.4531 2.85594C58.9008 2.85776 58.4516 2.41152 58.4498 1.85924C58.448 1.30695 58.8942 0.85777 59.4465 0.855956L59.4531 2.85594ZM55.4582 0.886486C56.0104 0.879861 56.4635 1.32217 56.4701 1.87442C56.4767 2.42666 56.0344 2.87972 55.4821 2.88634L55.4582 0.886486ZM53.4819 2.91467C52.9296 2.92368 52.4747 2.48334 52.4657 1.93112C52.4566 1.37891 52.897 0.923951 53.4492 0.914938L53.4819 2.91467ZM49.4785 0.996544C50.0306 0.982875 50.4892 1.41937 50.5029 1.97149C50.5166 2.5236 50.0801 2.98226 49.528 2.99593L49.4785 0.996544ZM47.5578 3.0488C47.0058 3.06476 46.5453 2.63017 46.5293 2.07812C46.5134 1.52606 46.948 1.0656 47.5 1.04964L47.5578 3.0488ZM43.5171 1.18128C44.069 1.16076 44.533 1.59154 44.5536 2.14344C44.5741 2.69534 44.1433 3.15938 43.5914 3.17989L43.5171 1.18128ZM41.5954 3.2582C41.0436 3.28097 40.5778 2.85211 40.555 2.30029C40.5322 1.74848 40.9611 1.28268 41.5129 1.2599L41.5954 3.2582ZM37.5374 1.4401C38.089 1.41287 38.5582 1.83797 38.5854 2.38959C38.6127 2.9412 38.1876 3.41044 37.6359 3.43767L37.5374 1.4401ZM35.6685 3.53868C35.117 3.5681 34.6461 3.14486 34.6167 2.59336C34.5873 2.04186 35.0105 1.57093 35.562 1.54152L35.6685 3.53868ZM31.5888 1.76918C32.1401 1.73542 32.6143 2.15492 32.6481 2.70617C32.6819 3.25742 32.2624 3.73167 31.7111 3.76544L31.5888 1.76918ZM29.7214 3.89126C29.1703 3.92719 28.6944 3.50956 28.6584 2.95844C28.6225 2.40733 29.0401 1.93143 29.5912 1.89549L29.7214 3.89126ZM25.6088 2.17077C26.1596 2.13055 26.6387 2.54447 26.679 3.09528C26.7192 3.6461 26.3053 4.12524 25.7545 4.16546L25.6088 2.17077ZM23.7916 4.31258C23.2409 4.35491 22.7602 3.94283 22.7179 3.39217C22.6756 2.84151 23.0876 2.36079 23.6383 2.31846L23.7916 4.31258ZM19.678 2.63813C20.2283 2.5916 20.7121 3 20.7587 3.55032C20.8052 4.10064 20.3968 4.58449 19.8465 4.63102L19.678 2.63813ZM17.8644 4.8024C17.3143 4.85103 16.8289 4.44447 16.7803 3.89433C16.7316 3.34419 17.1382 2.85879 17.6883 2.81017L17.8644 4.8024ZM13.6985 3.1781C14.2482 3.1253 14.7367 3.52817 14.7895 4.07792C14.8423 4.62768 14.4394 5.11614 13.8897 5.16894L13.6985 3.1781ZM11.9327 5.36056C11.3832 5.4154 10.8932 5.01436 10.8384 4.4648C10.7835 3.91525 11.1846 3.42529 11.7341 3.37044L11.9327 5.36056ZM7.78885 3.77897C8.33798 3.72005 8.8309 4.11745 8.88983 4.66658C8.94875 5.21571 8.55135 5.70864 8.00221 5.76756L7.78885 3.77897ZM6.02888 5.983C5.47998 6.04396 4.98558 5.64839 4.92462 5.09948C4.86366 4.55057 5.25923 4.05618 5.80814 3.99522L6.02888 5.983ZM1.83109 4.45184C2.37952 4.38681 2.87685 4.7787 2.94188 5.32714C3.0069 5.87558 2.61502 6.3729 2.06657 6.43793L1.83109 4.45184ZM249.911 172.654C249.596 172.744 249.279 172.833 248.96 172.921L248.43 170.992C248.742 170.906 249.053 170.819 249.362 170.731L249.911 172.654ZM245.075 173.916C244.417 174.072 243.753 174.224 243.085 174.371L242.655 172.418C243.313 172.273 243.965 172.124 244.612 171.97L245.075 173.916ZM239.171 175.171C238.513 175.295 237.851 175.415 237.185 175.531L236.842 173.561C237.499 173.446 238.152 173.328 238.8 173.206L239.171 175.171ZM233.207 176.168C232.55 176.264 231.89 176.357 231.227 176.445L230.962 174.463C231.617 174.375 232.269 174.284 232.917 174.189L233.207 176.168ZM227.212 176.932C226.552 177.004 225.89 177.072 225.226 177.137L225.031 175.147C225.689 175.083 226.343 175.015 226.995 174.944L227.212 176.932ZM221.232 177.483C220.562 177.534 219.889 177.581 219.215 177.625L219.085 175.629C219.752 175.586 220.418 175.539 221.081 175.489L221.232 177.483ZM215.219 177.845C214.552 177.875 213.884 177.902 213.214 177.925L213.144 175.927C213.807 175.903 214.469 175.877 215.129 175.847L215.219 177.845ZM209.188 178.029C208.523 178.04 207.857 178.048 207.191 178.052L207.176 176.052C207.837 176.048 208.497 176.04 209.155 176.029L209.188 178.029ZM203.176 178.045C202.505 178.038 201.833 178.028 201.161 178.015L201.2 176.015C201.867 176.028 202.533 176.038 203.198 176.045L203.176 178.045ZM197.16 177.903C196.493 177.878 195.824 177.851 195.156 177.821L195.246 175.823C195.909 175.853 196.571 175.88 197.234 175.904L197.16 177.903ZM191.146 177.606C190.479 177.565 189.812 177.521 189.146 177.474L189.285 175.479C189.947 175.526 190.608 175.569 191.269 175.61L191.146 177.606ZM185.147 177.161C184.481 177.103 183.815 177.043 183.149 176.98L183.338 174.988C183.998 175.051 184.659 175.111 185.32 175.168L185.147 177.161ZM179.156 176.568C178.492 176.494 177.828 176.417 177.165 176.337L177.403 174.352C178.06 174.43 178.719 174.506 179.378 174.58L179.156 176.568ZM173.186 175.828C172.521 175.737 171.858 175.643 171.196 175.547L171.483 173.568C172.139 173.663 172.797 173.756 173.456 173.846L173.186 175.828ZM167.237 174.939C166.577 174.832 165.917 174.722 165.26 174.609L165.597 172.638C166.249 172.75 166.903 172.859 167.558 172.965L167.237 174.939ZM161.3 173.896C160.643 173.772 159.989 173.645 159.336 173.516L159.726 171.554C160.372 171.682 161.021 171.808 161.671 171.931L161.3 173.896ZM155.403 172.698C154.745 172.555 154.09 172.409 153.438 172.261L153.882 170.311C154.528 170.458 155.177 170.602 155.828 170.744L155.403 172.698ZM149.557 171.338C148.899 171.175 148.245 171.009 147.593 170.841L148.095 168.905C148.739 169.071 149.387 169.236 150.038 169.397L149.557 171.338ZM143.712 169.792C143.072 169.612 142.435 169.429 141.802 169.243L142.365 167.324C142.991 167.508 143.621 167.689 144.254 167.867L143.712 169.792ZM137.931 168.059C137.292 167.855 136.657 167.648 136.026 167.438L136.658 165.54C137.28 165.747 137.908 165.952 138.539 166.153L137.931 168.059ZM132.232 166.121C131.593 165.89 130.96 165.656 130.332 165.419L131.039 163.548C131.658 163.782 132.282 164.013 132.912 164.241L132.232 166.121ZM126.63 163.958C125.993 163.696 125.363 163.43 124.739 163.161L125.531 161.324C126.145 161.589 126.765 161.851 127.392 162.109L126.63 163.958ZM121.081 161.507C120.469 161.217 119.866 160.924 119.27 160.627L120.161 158.837C120.745 159.127 121.337 159.415 121.937 159.699L121.081 161.507ZM115.677 158.744C115.094 158.422 114.52 158.096 113.955 157.767L114.963 156.039C115.514 156.36 116.074 156.679 116.644 156.993L115.677 158.744ZM110.472 155.61C109.914 155.243 109.367 154.871 108.831 154.496L109.98 152.858C110.499 153.222 111.03 153.583 111.572 153.94L110.472 155.61ZM105.551 152.023C105.03 151.6 104.523 151.172 104.031 150.739L105.352 149.237C105.824 149.652 106.31 150.063 106.812 150.47L105.551 152.023ZM101.06 147.874C100.592 147.376 100.143 146.873 99.714 146.363L101.243 145.075C101.648 145.555 102.073 146.032 102.517 146.504L101.06 147.874ZM97.2567 143.045C96.8778 142.454 96.5251 141.856 96.1996 141.251L97.9608 140.303C98.2613 140.861 98.588 141.416 98.9405 141.965L97.2567 143.045ZM94.5496 137.445C94.3286 136.779 94.1402 136.105 93.9857 135.424L95.9361 134.981C96.076 135.598 96.2469 136.209 96.448 136.816L94.5496 137.445ZM93.4747 131.286C93.4595 130.588 93.4796 129.885 93.5358 129.177L95.5295 129.335C95.4786 129.976 95.4605 130.612 95.4743 131.243L93.4747 131.286ZM94.2506 125.094C94.4302 124.428 94.6412 123.76 94.884 123.088L96.7648 123.769C96.5403 124.389 96.3462 125.005 96.1815 125.615L94.2506 125.094ZM96.5619 119.332C96.8758 118.741 97.2143 118.148 97.5777 117.552L99.2848 118.594C98.9414 119.157 98.6228 119.715 98.3282 120.27L96.5619 119.332ZM99.8888 114.179C100.295 113.644 100.721 113.108 101.168 112.57L102.707 113.847C102.278 114.364 101.87 114.878 101.481 115.389L99.8888 114.179ZM103.841 109.585C104.321 109.085 104.82 108.583 105.336 108.08L106.732 109.512C106.231 110 105.748 110.487 105.283 110.971L103.841 109.585ZM108.221 105.417C108.724 104.977 109.241 104.535 109.772 104.092L111.053 105.628C110.534 106.06 110.03 106.492 109.539 106.922L108.221 105.417ZM112.96 101.548C113.469 101.159 113.989 100.769 114.52 100.378L115.706 101.989C115.185 102.372 114.674 102.755 114.175 103.137L112.96 101.548ZM117.838 98.0238C118.413 97.6299 118.999 97.2353 119.597 96.8398L120.7 98.5076C120.112 98.8973 119.534 99.286 118.968 99.6738L117.838 98.0238ZM122.843 94.7529C123.402 94.4039 123.969 94.0543 124.545 93.7042L125.584 95.4134C125.015 95.7593 124.454 96.1045 123.903 96.4491L122.843 94.7529ZM128.11 91.5965C128.678 91.2692 129.254 90.9414 129.838 90.6131L130.818 92.3566C130.24 92.6815 129.67 93.0058 129.108 93.3296L128.11 91.5965ZM133.254 88.7357C133.837 88.422 134.428 88.1078 135.026 87.7932L135.957 89.5632C135.364 89.875 134.779 90.1864 134.201 90.4973L133.254 88.7357ZM138.701 85.9006C139.014 85.7425 139.329 85.5843 139.647 85.4259L140.54 87.2154C140.225 87.3725 139.912 87.5295 139.601 87.6863L138.701 85.9006ZM139.647 85.4259C139.957 85.2709 140.266 85.116 140.573 84.9612L141.474 86.7468C141.164 86.9029 140.853 87.0591 140.54 87.2154L139.647 85.4259ZM144.169 83.1074C144.754 82.7991 145.332 82.4912 145.903 82.1837L146.852 83.9444C146.275 84.2549 145.692 84.5657 145.101 84.8768L144.169 83.1074ZM149.27 80.3276C149.874 79.987 150.469 79.647 151.055 79.3074L152.058 81.038C151.465 81.3814 150.863 81.7252 150.253 82.0694L149.27 80.3276ZM154.469 77.2764C155.02 76.939 155.564 76.6021 156.098 76.2658L157.163 77.9586C156.621 78.2995 156.071 78.6408 155.512 78.9826L154.469 77.2764ZM159.445 74.0935C160.003 73.7196 160.55 73.3465 161.086 72.9742L162.227 74.6175C161.681 74.996 161.125 75.3751 160.558 75.7548L159.445 74.0935ZM164.19 70.7433C164.747 70.3274 165.292 69.9125 165.823 69.4988L167.052 71.0768C166.509 71.4993 165.954 71.9225 165.386 72.3465L164.19 70.7433ZM168.855 67.0303C169.349 66.6082 169.83 66.1874 170.297 65.768L171.633 67.2563C171.153 67.6872 170.66 68.119 170.153 68.5516L168.855 67.0303ZM173.18 63.0247C173.627 62.571 174.059 62.119 174.475 61.6689L175.944 63.0258C175.513 63.4927 175.066 63.9606 174.603 64.4296L173.18 63.0247ZM177.045 58.6525C177.436 58.1512 177.807 57.6525 178.158 57.1566L179.791 58.3121C179.421 58.8343 179.032 59.3579 178.622 59.8828L177.045 58.6525ZM180.232 53.8455C180.54 53.2785 180.822 52.7158 181.078 52.1574L182.896 52.9897C182.621 53.5914 182.319 54.1952 181.989 54.8009L180.232 53.8455ZM182.374 48.6026C182.544 47.9703 182.681 47.3439 182.784 46.7234L184.757 47.0513C184.642 47.7385 184.492 48.4294 184.305 49.1236L182.374 48.6026ZM183.005 42.9954C182.974 42.3701 182.908 41.7501 182.808 41.1356L184.782 40.8134C184.894 41.5016 184.968 42.1959 185.003 42.8961L183.005 42.9954ZM181.804 37.5253C181.577 36.9532 181.319 36.3852 181.03 35.8215L182.809 34.9089C183.127 35.5281 183.412 36.1547 183.663 36.7886L181.804 37.5253ZM179.007 32.6025C178.634 32.1035 178.235 31.6083 177.811 31.1172L179.325 29.8103C179.778 30.3354 180.207 30.867 180.609 31.4051L179.007 32.6025ZM175.126 28.3677C174.652 27.9339 174.157 27.5039 173.642 27.0779L174.916 25.5363C175.456 25.9827 175.976 26.4346 176.476 26.8918L175.126 28.3677ZM170.566 24.7505C170.028 24.3767 169.475 24.0065 168.905 23.64L169.986 21.9578C170.576 22.3369 171.15 22.7206 171.708 23.1087L170.566 24.7505ZM165.591 21.6535C165.017 21.3319 164.43 21.0136 163.83 20.6987L164.759 18.9277C165.375 19.2509 165.978 19.5779 166.569 19.9086L165.591 21.6535ZM160.352 18.9786C159.758 18.7014 159.153 18.4272 158.538 18.1559L159.345 16.3259C159.972 16.6027 160.59 16.8828 161.197 17.1662L160.352 18.9786ZM154.926 16.646C154.322 16.4064 153.709 16.1694 153.088 15.9351L153.794 14.0637C154.425 14.3019 155.049 14.543 155.664 14.787L154.926 16.646ZM149.356 14.5955C148.748 14.3877 148.133 14.1823 147.51 13.9794L148.13 12.0779C148.761 12.2837 149.386 12.4921 150.003 12.703L149.356 14.5955ZM143.691 12.791C143.074 12.6078 142.45 12.4267 141.82 12.2479L142.366 10.3239C143.004 10.5049 143.635 10.6881 144.26 10.8737L143.691 12.791ZM138.026 11.2179C137.382 11.0507 136.731 10.8858 136.076 10.7231L136.557 8.78194C137.22 8.94631 137.877 9.11303 138.528 9.28206L138.026 11.2179ZM132.264 9.81815C131.627 9.67341 130.985 9.53073 130.337 9.39012L130.762 7.43572C131.415 7.57764 132.064 7.72168 132.707 7.86783L132.264 9.81815ZM126.409 8.5742C125.779 8.44913 125.144 8.32595 124.506 8.20468L124.879 6.23977C125.523 6.36206 126.163 6.48629 126.799 6.61245L126.409 8.5742ZM120.622 7.50007C119.967 7.38649 119.307 7.27486 118.643 7.16518L118.969 5.19193C119.638 5.30245 120.303 5.41495 120.964 5.52942L120.622 7.50007ZM114.754 6.55205C114.108 6.45506 113.459 6.35985 112.806 6.26645L113.09 4.28662C113.747 4.38067 114.401 4.47655 115.051 4.57425L114.754 6.55205ZM108.847 5.72789C108.194 5.6435 107.537 5.56088 106.877 5.48004L107.12 3.49487C107.784 3.57624 108.446 3.65941 109.103 3.74436L108.847 5.72789ZM102.981 5.02784C102.326 4.95587 101.668 4.88561 101.006 4.81708L101.212 2.82773C101.878 2.89668 102.54 2.96737 103.2 3.03979L102.981 5.02784ZM97.0222 4.42844C96.3768 4.36935 95.7289 4.31187 95.0782 4.256L95.2493 2.26333C95.9037 2.31952 96.5554 2.37734 97.2045 2.43677L97.0222 4.42844ZM91.1425 3.9402C90.4814 3.89082 89.8176 3.84308 89.1513 3.79697L89.2894 1.80175C89.9593 1.8481 90.6267 1.89611 91.2915 1.94576L91.1425 3.9402ZM85.1855 3.54381C84.5348 3.50572 83.8819 3.46917 83.2266 3.43417L83.3333 1.43702C83.9919 1.4722 84.6483 1.50894 85.3024 1.54723L85.1855 3.54381ZM79.2681 3.24282C78.6038 3.21405 77.9374 3.18685 77.2687 3.16122L77.3453 1.16269C78.0173 1.18844 78.687 1.21578 79.3546 1.24469L79.2681 3.24282ZM73.3133 3.02881C72.6596 3.01007 72.0039 2.99281 71.3463 2.97705L71.3942 0.977627C72.055 0.993463 72.7138 1.0108 73.3706 1.02963L73.3133 3.02881ZM67.3772 2.90048C66.7118 2.89072 66.0445 2.88248 65.3754 2.87576L65.3954 0.875858C66.0677 0.882613 66.738 0.890893 67.4065 0.900691L67.3772 2.90048ZM61.4234 2.85379C60.7683 2.85307 60.1115 2.85378 59.4531 2.85594L59.4465 0.855956C60.1079 0.853783 60.7676 0.853063 61.4256 0.853789L61.4234 2.85379ZM55.4821 2.88634C54.817 2.89432 54.1502 2.90376 53.4819 2.91467L53.4492 0.914938C54.1205 0.903981 54.7901 0.8945 55.4582 0.886486L55.4821 2.88634ZM49.528 2.99593C48.8727 3.01215 48.216 3.02978 47.5578 3.0488L47.5 1.04964C48.161 1.03053 48.8204 1.01284 49.4785 0.996544L49.528 2.99593ZM43.5914 3.17989C42.9275 3.20457 42.2621 3.23067 41.5954 3.2582L41.5129 1.2599C42.1824 1.23226 42.8504 1.20606 43.5171 1.18128L43.5914 3.17989ZM37.6359 3.43767C36.9814 3.46997 36.3256 3.50364 35.6685 3.53868L35.562 1.54152C36.2217 1.50634 36.8802 1.47253 37.5374 1.4401L37.6359 3.43767ZM31.7111 3.76544C31.0491 3.80599 30.3858 3.84793 29.7214 3.89126L29.5912 1.89549C30.2583 1.852 30.9242 1.8099 31.5888 1.76918L31.7111 3.76544ZM25.7545 4.16546C25.1013 4.21316 24.447 4.2622 23.7916 4.31258L23.6383 2.31846C24.2962 2.26789 24.9531 2.21866 25.6088 2.17077L25.7545 4.16546ZM19.8465 4.63102C19.1868 4.68679 18.5261 4.74391 17.8644 4.8024L17.6883 2.81017C18.3526 2.75146 19.0158 2.69411 19.678 2.63813L19.8465 4.63102ZM13.8897 5.16894C13.2383 5.2315 12.586 5.29537 11.9327 5.36056L11.7341 3.37044C12.3898 3.30501 13.0446 3.2409 13.6985 3.1781L13.8897 5.16894ZM8.00221 5.76756C7.34532 5.83804 6.68755 5.90985 6.02888 5.983L5.80814 3.99522C6.46925 3.9218 7.1295 3.84972 7.78885 3.77897L8.00221 5.76756ZM2.06657 6.43793C1.73557 6.47718 1.40433 6.51677 1.07289 6.55669L0.83371 4.57104C1.16638 4.53097 1.49884 4.49124 1.83109 4.45184L2.06657 6.43793Z" fill="url(#paint0_linear_562_4814)"/>
<defs>
<linearGradient id="paint0_linear_562_4814" x1="-5.08134" y1="160.573" x2="-39.7629" y2="12.7161" gradientUnits="userSpaceOnUse">
<stop stop-color="#FFEF99"/>
<stop offset="1" stop-color="#FFEF99" stop-opacity="0"/>
</linearGradient>
</defs>
</svg>
