<svg width="252" height="127" viewBox="0 0 252 127" fill="none" xmlns="http://www.w3.org/2000/svg">
<path d="M251.97 6.19484C251.97 3.24932 249.582 0.861504 246.637 0.861504C243.691 0.861504 241.303 3.24932 241.303 6.19484C241.303 9.14036 243.691 11.5282 246.637 11.5282C249.582 11.5282 251.97 9.14036 251.97 6.19484ZM148.283 93.5206L147.961 92.5738L148.283 93.5206ZM3.60814 126.299L11.8085 118.169L0.667984 115.132L3.60814 126.299ZM245.706 5.06886C245.158 5.00074 244.658 5.38982 244.59 5.93789C244.522 6.48595 244.911 6.98547 245.459 7.05358L245.706 5.06886ZM241.392 6.589C241.942 6.64599 242.433 6.24687 242.49 5.69754C242.547 5.1482 242.148 4.65667 241.599 4.59967L241.392 6.589ZM239.622 4.4052C239.072 4.35413 238.585 4.75853 238.534 5.30845C238.483 5.85837 238.887 6.34556 239.437 6.39663L239.622 4.4052ZM235.413 6.07192C235.964 6.10935 236.441 5.69302 236.479 5.142C236.516 4.59099 236.1 4.11395 235.549 4.07652L235.413 6.07192ZM233.501 3.95156C232.95 3.92181 232.479 4.34476 232.449 4.89624C232.419 5.44772 232.842 5.91891 233.394 5.94865L233.501 3.95156ZM229.467 5.79545C230.019 5.8083 230.477 5.37112 230.49 4.81898C230.503 4.26685 230.066 3.80884 229.514 3.79599L229.467 5.79545ZM227.408 3.76603C226.856 3.76332 226.406 4.20883 226.403 4.76112C226.4 5.31339 226.846 5.7633 227.398 5.76601L227.408 3.76603ZM223.483 5.82255C224.035 5.80321 224.467 5.34009 224.447 4.78814C224.428 4.23619 223.965 3.80444 223.413 3.82378L223.483 5.82255ZM221.305 3.92289C220.754 3.95565 220.333 4.42914 220.366 4.98045C220.399 5.53176 220.872 5.95213 221.424 5.91937L221.305 3.92289ZM217.513 6.25458C218.062 6.19198 218.456 5.6964 218.394 5.14767C218.331 4.59895 217.836 4.20486 217.287 4.26746L217.513 6.25458ZM215.193 4.54101C214.647 4.62183 214.269 5.13023 214.35 5.67657C214.431 6.22292 214.939 6.6003 215.486 6.51948L215.193 4.54101ZM211.637 7.23324C212.175 7.11121 212.513 6.57564 212.391 6.037C212.269 5.49837 211.733 5.16064 211.195 5.28266L211.637 7.23324ZM209.142 5.79739C208.61 5.9445 208.298 6.49529 208.445 7.02763C208.592 7.55996 209.143 7.87225 209.675 7.72514L209.142 5.79739ZM205.96 8.96439C206.473 8.76028 206.723 8.17879 206.519 7.66561C206.315 7.15243 205.734 6.90187 205.22 7.10597L205.96 8.96439ZM203.335 7.92502C202.836 8.16132 202.623 8.75755 202.859 9.25673C203.095 9.75591 203.692 9.969 204.191 9.7327L203.335 7.92502ZM200.811 11.6426C201.27 11.3348 201.392 10.7136 201.084 10.255C200.776 9.79639 200.155 9.6741 199.697 9.98185L200.811 11.6426ZM197.989 11.2338C197.557 11.5789 197.487 12.2082 197.833 12.6394C198.178 13.0706 198.807 13.1405 199.238 12.7955L197.989 11.2338ZM196.45 15.4534C196.815 15.0389 196.775 14.4071 196.36 14.042C195.946 13.677 195.314 13.717 194.949 14.1315L196.45 15.4534ZM193.632 15.7632C193.303 16.2072 193.397 16.8334 193.841 17.1618C194.285 17.4902 194.911 17.3964 195.24 16.9523L193.632 15.7632ZM193.191 20.2445C193.446 19.755 193.257 19.1508 192.767 18.8952C192.278 18.6395 191.674 18.8291 191.418 19.3187L193.191 20.2445ZM190.513 21.2051C190.291 21.7107 190.52 22.3008 191.026 22.5232C191.531 22.7456 192.121 22.5161 192.344 22.0106L190.513 21.2051ZM190.968 25.6911C191.135 25.1646 190.843 24.6026 190.317 24.436C189.79 24.2694 189.228 24.5612 189.061 25.0878L190.968 25.6911ZM188.484 27.0608C188.339 27.5938 188.654 28.143 189.187 28.2874C189.72 28.4319 190.27 28.1168 190.414 27.5837L188.484 27.0608ZM189.503 31.4584C189.614 30.9173 189.265 30.389 188.724 30.2784C188.183 30.1678 187.654 30.5167 187.544 31.0578L189.503 31.4584ZM187.158 33.0627C187.059 33.6061 187.42 34.1266 187.963 34.2253C188.507 34.3239 189.027 33.9634 189.126 33.42L187.158 33.0627ZM188.472 37.3798C188.555 36.8338 188.18 36.3238 187.634 36.2406C187.088 36.1574 186.578 36.5325 186.494 37.0785L188.472 37.3798ZM186.196 39.0896C186.117 39.6361 186.495 40.1435 187.042 40.2228C187.589 40.3021 188.096 39.9233 188.175 39.3767L186.196 39.0896ZM187.604 43.3768C187.682 42.8301 187.303 42.3235 186.756 42.2452C186.209 42.167 185.703 42.5467 185.624 43.0934L187.604 43.3768ZM185.335 45.0852C185.254 45.6316 185.631 46.14 186.178 46.2209C186.724 46.3018 187.233 45.9245 187.313 45.3782L185.335 45.0852ZM186.682 49.3921C186.774 48.8475 186.407 48.3315 185.863 48.2395C185.318 48.1475 184.802 48.5144 184.71 49.059L186.682 49.3921ZM184.361 51.0364C184.261 51.5795 184.62 52.1011 185.163 52.2014C185.706 52.3018 186.227 51.9428 186.328 51.3997L184.361 51.0364ZM185.509 55.3989C185.631 54.8604 185.294 54.3246 184.755 54.2022C184.217 54.0798 183.681 54.4172 183.559 54.9557L185.509 55.3989ZM183.093 56.8945C182.957 57.4298 183.28 57.974 183.816 58.11C184.351 58.2459 184.895 57.9222 185.031 57.387L183.093 56.8945ZM183.906 61.3304C184.074 60.8043 183.784 60.2416 183.258 60.0737C182.732 59.9057 182.169 60.1961 182.001 60.7222L183.906 61.3304ZM181.365 62.6044C181.178 63.1243 181.449 63.6968 181.969 63.8829C182.489 64.069 183.062 63.7983 183.248 63.2783L181.365 62.6044ZM181.714 67.0983C181.94 66.5943 181.715 66.0026 181.211 65.7767C180.707 65.5508 180.115 65.7763 179.889 66.2802L181.714 67.0983ZM179.043 68.0671C178.796 68.561 178.996 69.1617 179.49 69.4088C179.984 69.6559 180.584 69.4558 180.831 68.9618L179.043 68.0671ZM178.82 72.5703C179.111 72.1007 178.966 71.4843 178.496 71.1937C178.026 70.903 177.41 71.0481 177.119 71.5177L178.82 72.5703ZM176.047 73.1633C175.735 73.6188 175.851 74.2412 176.306 74.5535C176.762 74.8658 177.384 74.7498 177.696 74.2943L176.047 73.1633ZM175.203 77.5843C175.557 77.1605 175.501 76.5298 175.077 76.1757C174.653 75.8216 174.022 75.8782 173.668 76.302L175.203 77.5843ZM172.355 77.7994C171.982 78.2059 172.008 78.8385 172.415 79.2124C172.821 79.5862 173.454 79.5598 173.828 79.1533L172.355 77.7994ZM170.908 82.0496C171.317 81.6788 171.348 81.0464 170.977 80.6371C170.606 80.2279 169.974 80.1968 169.565 80.5677L170.908 82.0496ZM168.065 81.8683C167.64 82.2209 167.581 82.8514 167.933 83.2764C168.286 83.7014 168.917 83.7601 169.342 83.4075L168.065 81.8683ZM166.057 85.9099C166.51 85.5932 166.62 84.9696 166.303 84.5172C165.986 84.0648 165.363 83.9549 164.91 84.2717L166.057 85.9099ZM163.288 85.3625C162.824 85.6622 162.691 86.2812 162.991 86.7451C163.291 87.209 163.91 87.3421 164.374 87.0424L163.288 85.3625ZM160.806 89.17C161.29 88.9036 161.466 88.2955 161.2 87.8117C160.933 87.3279 160.325 87.1516 159.841 87.4179L160.806 89.17ZM158.132 88.3244C157.64 88.5756 157.445 89.178 157.696 89.6698C157.947 90.1616 158.55 90.3567 159.042 90.1055L158.132 88.3244ZM155.291 91.8813C155.797 91.6594 156.027 91.0696 155.805 90.5638C155.583 90.0581 154.994 89.828 154.488 90.0499L155.291 91.8813ZM152.698 90.8077C152.186 91.0165 151.941 91.6002 152.15 92.1115C152.359 92.6228 152.943 92.868 153.454 92.6592L152.698 90.8077ZM149.611 94.1189C150.132 93.9351 150.405 93.3639 150.221 92.8431C150.037 92.3223 149.466 92.0491 148.945 92.233L149.611 94.1189ZM147.008 92.8852C146.481 93.0502 146.187 93.6113 146.352 94.1383C146.517 94.6654 147.078 94.9588 147.605 94.7938L147.008 92.8852ZM143.612 95.8358C144.153 95.7224 144.499 95.1923 144.386 94.6517C144.272 94.1112 143.742 93.765 143.202 93.8784L143.612 95.8358ZM141.257 94.2371C140.712 94.324 140.34 94.8367 140.427 95.3821C140.514 95.9275 141.027 96.2991 141.572 96.2121L141.257 94.2371ZM137.474 96.6662C138.025 96.6314 138.443 96.1563 138.409 95.6051C138.374 95.0539 137.899 94.6354 137.348 94.6702L137.474 96.6662ZM135.372 94.7494C134.82 94.7589 134.38 95.2142 134.389 95.7664C134.399 96.3186 134.854 96.7586 135.406 96.7491L135.372 94.7494ZM131.287 96.639C131.838 96.6773 132.316 96.2618 132.354 95.7108C132.393 95.1599 131.977 94.6822 131.426 94.6439L131.287 96.639ZM129.456 94.4665C128.907 94.406 128.413 94.8019 128.352 95.3509C128.292 95.8998 128.688 96.3939 129.237 96.4544L129.456 94.4665ZM125.172 95.8502C125.715 95.9511 126.237 95.5928 126.338 95.0499C126.439 94.5069 126.08 93.9849 125.537 93.8839L125.172 95.8502ZM123.59 93.4873C123.051 93.3682 122.517 93.7087 122.398 94.248C122.279 94.7872 122.619 95.321 123.158 95.4402L123.59 93.4873ZM119.188 94.4331C119.719 94.5846 120.273 94.2769 120.424 93.7458C120.576 93.2147 120.268 92.6613 119.737 92.5098L119.188 94.4331ZM117.823 91.9354C117.296 91.7696 116.735 92.0623 116.569 92.5891C116.403 93.1159 116.696 93.6774 117.223 93.8432L117.823 91.9354ZM113.36 92.5236C113.879 92.7141 114.454 92.4484 114.644 91.93C114.835 91.4117 114.569 90.837 114.051 90.6464L113.36 92.5236ZM112.173 89.9337C111.659 89.7323 111.079 89.986 110.878 90.5003C110.676 91.0146 110.93 91.5947 111.444 91.796L112.173 89.9337ZM107.684 90.2428C108.191 90.4625 108.78 90.2298 108.999 89.7231C109.219 89.2164 108.986 88.6275 108.48 88.4078L107.684 90.2428ZM106.643 87.5944C106.14 87.3669 105.548 87.5904 105.32 88.0937C105.093 88.5969 105.316 89.1893 105.819 89.4168L106.643 87.5944ZM102.139 87.6929C102.637 87.9334 103.235 87.7253 103.475 87.2282C103.716 86.731 103.508 86.133 103.01 85.8925L102.139 87.6929ZM101.206 85.0071C100.711 84.7613 100.111 84.9629 99.8651 85.4574C99.6193 85.952 99.8209 86.5522 100.315 86.798L101.206 85.0071ZM96.6991 84.9595C97.1894 85.2138 97.793 85.0224 98.0472 84.5322C98.3015 84.0419 98.1101 83.4383 97.6199 83.184L96.6991 84.9595ZM95.8345 82.2506C95.3459 81.9932 94.7411 82.1806 94.4837 82.6692C94.2263 83.1578 94.4137 83.7626 94.9023 84.02L95.8345 82.2506ZM91.3314 82.1167C91.8177 82.3784 92.4241 82.1962 92.6858 81.7099C92.9475 81.2235 92.7654 80.6171 92.2791 80.3554L91.3314 82.1167ZM90.4995 79.3949C90.0138 79.1321 89.407 79.3128 89.1441 79.7985C88.8813 80.2843 89.062 80.8911 89.5477 81.1539L90.4995 79.3949ZM85.999 79.2303C86.4846 79.4934 87.0915 79.313 87.3546 78.8275C87.6177 78.3419 87.4373 77.7349 86.9518 77.4718L85.999 79.2303ZM85.1671 76.5068C84.681 76.2446 84.0744 76.4261 83.8122 76.9122C83.55 77.3983 83.7316 78.0049 84.2176 78.2671L85.1671 76.5068ZM80.6652 76.3676C81.1534 76.6257 81.7585 76.4392 82.0166 75.9509C82.2747 75.4627 82.0882 74.8576 81.6 74.5995L80.6652 76.3676ZM79.8003 73.6552C79.3104 73.4002 78.7066 73.5907 78.4516 74.0807C78.1967 74.5706 78.3872 75.1744 78.8771 75.4294L79.8003 73.6552ZM75.2942 73.604C75.7888 73.8498 76.389 73.6482 76.6348 73.1537C76.8807 72.6591 76.6791 72.0589 76.1845 71.8131L75.2942 73.604ZM74.3594 70.9192C73.8619 70.6793 73.2642 70.8882 73.0244 71.3857C72.7846 71.8832 72.9934 72.4809 73.4909 72.7207L74.3594 70.9192ZM69.8507 71.0315C70.3554 71.2558 70.9464 71.0285 71.1707 70.5238C71.3949 70.0191 71.1676 69.4281 70.6629 69.2038L69.8507 71.0315ZM68.8023 68.3978C68.2934 68.1833 67.7069 68.4219 67.4924 68.9308C67.2778 69.4397 67.5164 70.0262 68.0253 70.2407L68.8023 68.3978ZM64.3038 68.7704C64.8224 68.9605 65.3968 68.6942 65.5869 68.1757C65.7771 67.6572 65.5108 67.0827 64.9923 66.8926L64.3038 68.7704ZM63.0717 66.2188C62.548 66.0436 61.9814 66.3261 61.8061 66.8499C61.6309 67.3736 61.9135 67.9402 62.4372 68.1155L63.0717 66.2188ZM58.6351 66.9828C59.1698 67.1212 59.7154 66.8 59.8539 66.2654C59.9923 65.7307 59.6711 65.1851 59.1364 65.0466L58.6351 66.9828ZM57.1161 64.5675C56.5761 64.4515 56.0444 64.7953 55.9284 65.3352C55.8124 65.8752 56.1562 66.407 56.6961 66.5229L57.1161 64.5675ZM52.8153 65.8796C53.3641 65.9421 53.8596 65.5479 53.9221 64.9992C53.9846 64.4505 53.5905 63.955 53.0417 63.8924L52.8153 65.8796ZM50.9728 63.7155C50.4214 63.6844 49.9492 64.1063 49.9181 64.6577C49.887 65.2091 50.3088 65.6813 50.8602 65.7124L50.9728 63.7155ZM46.9576 65.7389C47.5084 65.6985 47.9221 65.2192 47.8817 64.6684C47.8413 64.1176 47.362 63.7039 46.8112 63.7443L46.9576 65.7389ZM44.7385 63.9703C44.192 64.0498 43.8134 64.5573 43.8929 65.1039C43.9725 65.6504 44.48 66.029 45.0265 65.9494L44.7385 63.9703ZM41.2323 66.7946C41.7607 66.6341 42.059 66.0756 41.8985 65.5471C41.7379 65.0187 41.1794 64.7204 40.651 64.881L41.2323 66.7946ZM38.6889 65.5587C38.1741 65.7584 37.9186 66.3378 38.1184 66.8527C38.3182 67.3676 38.8975 67.623 39.4124 67.4232L38.6889 65.5587ZM35.9095 69.0885C36.39 68.8163 36.5589 68.2061 36.2866 67.7256C36.0144 67.245 35.4042 67.0761 34.9236 67.3484L35.9095 69.0885ZM33.1317 68.4464C32.6707 68.7506 32.5437 69.3709 32.8479 69.8319C33.1521 70.2928 33.7724 70.4199 34.2334 70.1156L33.1317 68.4464ZM31.1272 72.4529C31.5483 72.0956 31.6002 71.4646 31.2429 71.0434C30.8857 70.6222 30.2546 70.5704 29.8334 70.9277L31.1272 72.4529ZM28.2438 72.3539C27.8428 72.7336 27.8256 73.3666 28.2054 73.7676C28.5852 74.1685 29.2181 74.1857 29.6191 73.806L28.2438 72.3539ZM26.93 76.6035C27.2948 76.1889 27.2545 75.557 26.8398 75.1922C26.4252 74.8273 25.7934 74.8677 25.4285 75.2823L26.93 76.6035ZM24.0644 76.8996C23.7169 77.3289 23.7832 77.9586 24.2125 78.306C24.6417 78.6535 25.2714 78.5872 25.6189 78.1579L24.0644 76.8996ZM23.2739 81.273C23.5913 80.821 23.4822 80.1973 23.0303 79.8799C22.5783 79.5625 21.9546 79.6715 21.6372 80.1235L23.2739 81.273ZM20.4402 81.8868C20.1371 82.3484 20.2657 82.9684 20.7274 83.2715C21.189 83.5746 21.809 83.4461 22.1121 82.9844L20.4402 81.8868ZM20.0671 86.2861C20.3461 85.8095 20.1859 85.197 19.7093 84.9179C19.2327 84.6389 18.6201 84.7991 18.3411 85.2757L20.0671 86.2861ZM17.3092 87.0876C17.0415 87.5707 17.2161 88.1793 17.6992 88.447C18.1822 88.7147 18.7908 88.5401 19.0585 88.0571L17.3092 87.0876ZM17.2109 91.561C17.4588 91.0675 17.2597 90.4665 16.7662 90.2185C16.2727 89.9706 15.6717 90.1697 15.4237 90.6632L17.2109 91.561ZM14.5327 92.4776C14.2937 92.9755 14.5036 93.5729 15.0014 93.8119C15.4993 94.0509 16.0967 93.8411 16.3357 93.3432L14.5327 92.4776ZM14.6203 97.0782C14.8427 96.5727 14.6131 95.9826 14.1075 95.7602C13.602 95.5379 13.0119 95.7675 12.7896 96.273L14.6203 97.0782ZM12.0173 98.0628C11.802 98.5714 12.0398 99.1582 12.5484 99.3735C13.0569 99.5888 13.6438 99.3511 13.8591 98.8425L12.0173 98.0628ZM12.3498 102.545C12.5517 102.031 12.2986 101.451 11.7846 101.249C11.2705 101.047 10.6901 101.3 10.4882 101.814L12.3498 102.545ZM9.73137 103.777C9.5358 104.293 9.79596 104.87 10.3125 105.066C10.8289 105.261 11.4062 105.001 11.6018 104.485L9.73137 103.777ZM10.2463 108.185C10.4309 107.665 10.1585 107.093 9.63797 106.908C9.11743 106.724 8.54584 106.996 8.3613 107.517L10.2463 108.185ZM7.70099 109.409C7.52156 109.931 7.79951 110.5 8.32184 110.68C8.84416 110.859 9.41306 110.581 9.59248 110.059L7.70099 109.409ZM8.29587 113.953C8.46556 113.427 8.17706 112.864 7.65149 112.694C7.12593 112.524 6.5623 112.813 6.39261 113.338L8.29587 113.953ZM5.7679 115.302C5.60268 115.829 5.89597 116.39 6.42296 116.555C6.94995 116.721 7.51109 116.427 7.67632 115.9L5.7679 115.302ZM6.53723 119.634C6.69449 119.104 6.39279 118.547 5.86337 118.39C5.33395 118.233 4.77728 118.535 4.62003 119.064L6.53723 119.634ZM4.05101 121.005C3.89757 121.536 4.20326 122.09 4.7338 122.244C5.26433 122.397 5.81882 122.092 5.97226 121.561L4.05101 121.005ZM4.85158 125.54C4.99773 125.007 4.68443 124.457 4.15184 124.311C3.61925 124.165 3.06902 124.478 2.92287 125.01L4.85158 125.54ZM246.765 5.20308C246.41 5.1572 246.057 5.11246 245.706 5.06886L245.459 7.05358C245.807 7.09679 246.157 7.14113 246.509 7.1866L246.765 5.20308ZM241.599 4.59967C240.931 4.53043 240.272 4.46561 239.622 4.4052L239.437 6.39663C240.08 6.45637 240.732 6.52047 241.392 6.589L241.599 4.59967ZM235.549 4.07652C234.856 4.02946 234.174 3.98783 233.501 3.95156L233.394 5.94865C234.057 5.98441 234.73 6.02547 235.413 6.07192L235.549 4.07652ZM229.514 3.79599C228.799 3.77937 228.098 3.76942 227.408 3.76603L227.398 5.76601C228.075 5.76933 228.765 5.77911 229.467 5.79545L229.514 3.79599ZM223.413 3.82378C222.696 3.84891 221.993 3.88199 221.305 3.92289L221.424 5.91937C222.095 5.87946 222.782 5.84713 223.483 5.82255L223.413 3.82378ZM217.287 4.26746C216.572 4.34903 215.874 4.44027 215.193 4.54101L215.486 6.51948C216.144 6.4221 216.82 6.33371 217.513 6.25458L217.287 4.26746ZM211.195 5.28266C210.49 5.44228 209.806 5.61395 209.142 5.79739L209.675 7.72514C210.308 7.55029 210.961 7.3862 211.637 7.23324L211.195 5.28266ZM205.22 7.10597C204.569 7.36507 203.941 7.6382 203.335 7.92502L204.191 9.7327C204.757 9.46454 205.346 9.20826 205.96 8.96439L205.22 7.10597ZM199.697 9.98185C199.1 10.3823 198.531 10.7999 197.989 11.2338L199.238 12.7955C199.736 12.3968 200.26 12.0122 200.811 11.6426L199.697 9.98185ZM194.949 14.1315C194.483 14.6598 194.045 15.2041 193.632 15.7632L195.24 16.9523C195.62 16.4379 196.023 15.938 196.45 15.4534L194.949 14.1315ZM191.418 19.3187C191.096 19.9354 190.795 20.5646 190.513 21.2051L192.344 22.0106C192.609 21.4085 192.89 20.8195 193.191 20.2445L191.418 19.3187ZM189.061 25.0878C188.856 25.7371 188.664 26.395 188.484 27.0608L190.414 27.5837C190.588 26.9427 190.772 26.3116 190.968 25.6911L189.061 25.0878ZM187.544 31.0578C187.408 31.7204 187.28 32.389 187.158 33.0627L189.126 33.42C189.246 32.7589 189.371 32.1049 189.503 31.4584L187.544 31.0578ZM186.494 37.0785C186.393 37.7452 186.294 38.4159 186.196 39.0896L188.175 39.3767C188.273 38.7062 188.371 38.0405 188.472 37.3798L186.494 37.0785ZM185.624 43.0934C185.53 43.7557 185.434 44.4197 185.335 45.0852L187.313 45.3782C187.413 44.7083 187.509 44.0409 187.604 43.3768L185.624 43.0934ZM184.71 49.059C184.599 49.7179 184.483 50.3772 184.361 51.0364L186.328 51.3997C186.452 50.7294 186.569 50.0599 186.682 49.3921L184.71 49.059ZM183.559 54.9557C183.411 55.6033 183.256 56.2497 183.093 56.8945L185.031 57.387C185.199 56.7247 185.358 56.0618 185.509 55.3989L183.559 54.9557ZM182.001 60.7222C181.8 61.3522 181.588 61.9797 181.365 62.6044L183.248 63.2783C183.479 62.6309 183.699 61.9814 183.906 61.3304L182.001 60.7222ZM179.889 66.2802C179.621 66.8795 179.339 67.4752 179.043 68.0671L180.831 68.9618C181.141 68.3439 181.435 67.7226 181.714 67.0983L179.889 66.2802ZM177.119 71.5177C176.777 72.0706 176.42 72.6192 176.047 73.1633L177.696 74.2943C178.087 73.7241 178.462 73.1493 178.82 72.5703L177.119 71.5177ZM173.668 76.302C173.247 76.806 172.81 77.3053 172.355 77.7994L173.828 79.1533C174.304 78.6357 174.762 78.1126 175.203 77.5843L173.668 76.302ZM169.565 80.5677C169.081 81.0061 168.581 81.4398 168.065 81.8683L169.342 83.4075C169.88 82.9604 170.402 82.5077 170.908 82.0496L169.565 80.5677ZM164.91 84.2717C164.384 84.6399 163.844 85.0035 163.288 85.3625L164.374 87.0424C164.95 86.6701 165.511 86.2926 166.057 85.9099L164.91 84.2717ZM159.841 87.4179C159.285 87.7243 158.715 88.0265 158.132 88.3244L159.042 90.1055C159.643 89.7983 160.231 89.4865 160.806 89.17L159.841 87.4179ZM154.488 90.0499C153.903 90.3064 153.306 90.5591 152.698 90.8077L153.454 92.6592C154.078 92.4042 154.691 92.1449 155.291 91.8813L154.488 90.0499ZM148.945 92.233C148.62 92.3476 148.292 92.4613 147.961 92.5738L148.605 94.4674C148.943 94.3524 149.279 94.2362 149.611 94.1189L148.945 92.233ZM147.961 92.5738C147.643 92.682 147.326 92.7857 147.008 92.8852L147.605 94.7938C147.939 94.6895 148.272 94.5807 148.605 94.4674L147.961 92.5738ZM143.202 93.8784C142.553 94.0145 141.905 94.1338 141.257 94.2371L141.572 96.2121C142.252 96.1038 142.932 95.9786 143.612 95.8358L143.202 93.8784ZM137.348 94.6702C136.689 94.7119 136.03 94.7381 135.372 94.7494L135.406 96.7491C136.095 96.7373 136.784 96.7099 137.474 96.6662L137.348 94.6702ZM131.426 94.6439C130.769 94.5982 130.112 94.5388 129.456 94.4665L129.237 96.4544C129.919 96.5297 130.603 96.5914 131.287 96.639L131.426 94.6439ZM125.537 93.8839C124.888 93.7631 124.239 93.6307 123.59 93.4873L123.158 95.4402C123.828 95.5883 124.499 95.7252 125.172 95.8502L125.537 93.8839ZM119.737 92.5098C119.099 92.3277 118.46 92.136 117.823 91.9354L117.223 93.8432C117.877 94.049 118.532 94.2458 119.188 94.4331L119.737 92.5098ZM114.051 90.6464C113.424 90.4162 112.799 90.1784 112.173 89.9337L111.444 91.796C112.082 92.0456 112.721 92.2883 113.36 92.5236L114.051 90.6464ZM108.48 88.4078C107.867 88.1422 107.255 87.8708 106.643 87.5944L105.819 89.4168C106.44 89.6973 107.061 89.9728 107.684 90.2428L108.48 88.4078ZM103.01 85.8925C102.408 85.6011 101.807 85.3058 101.206 85.0071L100.315 86.798C100.922 87.0997 101.53 87.3981 102.139 87.6929L103.01 85.8925ZM97.6199 83.184C97.0239 82.875 96.4288 82.5637 95.8345 82.2506L94.9023 84.02C95.5 84.3349 96.099 84.6483 96.6991 84.9595L97.6199 83.184ZM92.2791 80.3554C91.685 80.0358 91.0918 79.7155 90.4995 79.3949L89.5477 81.1539C90.141 81.4749 90.7355 81.7961 91.3314 82.1167L92.2791 80.3554ZM86.9518 77.4718C86.3559 77.149 85.761 76.8271 85.1671 76.5068L84.2176 78.2671C84.81 78.5866 85.4038 78.9078 85.999 79.2303L86.9518 77.4718ZM81.6 74.5995C80.999 74.2817 80.3991 73.9668 79.8003 73.6552L78.8771 75.4294C79.4716 75.7387 80.0676 76.0516 80.6652 76.3676L81.6 74.5995ZM76.1845 71.8131C75.575 71.5101 74.9666 71.2119 74.3594 70.9192L73.4909 72.7207C74.0903 73.0097 74.6914 73.3043 75.2942 73.604L76.1845 71.8131ZM70.6629 69.2038C70.0415 68.9277 69.4212 68.6588 68.8023 68.3978L68.0253 70.2407C68.6318 70.4964 69.2402 70.7602 69.8507 71.0315L70.6629 69.2038ZM64.9923 66.8926C64.3508 66.6574 63.7106 66.4325 63.0717 66.2188L62.4372 68.1155C63.057 68.3228 63.6792 68.5413 64.3038 68.7704L64.9923 66.8926ZM59.1364 65.0466C58.4615 64.8719 57.788 64.7118 57.1161 64.5675L56.6961 66.5229C57.3394 66.6611 57.9858 66.8147 58.6351 66.9828L59.1364 65.0466ZM53.0417 63.8924C52.3503 63.8137 51.6606 63.7543 50.9728 63.7155L50.8602 65.7124C51.5085 65.7489 52.1602 65.805 52.8153 65.8796L53.0417 63.8924ZM46.8112 63.7443C46.118 63.7952 45.4271 63.8701 44.7385 63.9703L45.0265 65.9494C45.6669 65.8563 46.3106 65.7864 46.9576 65.7389L46.8112 63.7443ZM40.651 64.881C39.994 65.0805 39.3399 65.3061 38.6889 65.5587L39.4124 67.4232C40.0165 67.1889 40.6231 66.9797 41.2323 66.7946L40.651 64.881ZM34.9236 67.3484C34.323 67.6886 33.7257 68.0544 33.1317 68.4464L34.2334 70.1156C34.7902 69.7481 35.3489 69.4061 35.9095 69.0885L34.9236 67.3484ZM29.8334 70.9277C29.3006 71.3796 28.7707 71.8548 28.2438 72.3539L29.6191 73.806C30.1202 73.3314 30.6229 72.8806 31.1272 72.4529L29.8334 70.9277ZM25.4285 75.2823C24.9715 75.8018 24.5168 76.3407 24.0644 76.8996L25.6189 78.1579C26.0546 77.6197 26.4916 77.1017 26.93 76.6035L25.4285 75.2823ZM21.6372 80.1235C21.2364 80.6942 20.8374 81.2819 20.4402 81.8868L22.1121 82.9844C22.4981 82.3965 22.8854 81.8261 23.2739 81.273L21.6372 80.1235ZM18.3411 85.2757C17.9957 85.8656 17.6518 86.4695 17.3092 87.0876L19.0585 88.0571C19.3937 87.4524 19.7298 86.8622 20.0671 86.2861L18.3411 85.2757ZM15.4237 90.6632C15.1256 91.2565 14.8286 91.8613 14.5327 92.4776L16.3357 93.3432C16.6266 92.7374 16.9183 92.1434 17.2109 91.561L15.4237 90.6632ZM12.7896 96.273C12.5313 96.8602 12.2739 97.4568 12.0173 98.0628L13.8591 98.8425C14.1121 98.2448 14.3658 97.6567 14.6203 97.0782L12.7896 96.273ZM10.4882 101.814C10.2351 102.458 9.9828 103.113 9.73137 103.777L11.6018 104.485C11.8504 103.828 12.0997 103.182 12.3498 102.545L10.4882 101.814ZM8.3613 107.517C8.14052 108.14 7.92041 108.77 7.70099 109.409L9.59248 110.059C9.80983 109.426 10.0278 108.802 10.2463 108.185L8.3613 107.517ZM6.39261 113.338C6.18375 113.985 5.97549 114.64 5.7679 115.302L7.67632 115.9C7.88225 115.243 8.08876 114.594 8.29587 113.953L6.39261 113.338ZM4.62003 119.064C4.42981 119.704 4.24014 120.352 4.05101 121.005L5.97226 121.561C6.16008 120.912 6.3484 120.269 6.53723 119.634L4.62003 119.064Z" fill="url(#paint0_linear_562_4816)"/>
<defs>
<linearGradient id="paint0_linear_562_4816" x1="244.867" y1="6.19578" x2="92.8897" y2="280.968" gradientUnits="userSpaceOnUse">
<stop stop-color="#FFEF99"/>
<stop offset="1" stop-color="#FFEF99" stop-opacity="0"/>
</linearGradient>
</defs>
</svg>
