<svg width="250" height="127" viewBox="0 0 250 127" fill="none" xmlns="http://www.w3.org/2000/svg">
<path d="M0.651042 5.76515C0.651042 2.81963 3.03886 0.431816 5.98438 0.431816C8.92989 0.431816 11.3177 2.81963 11.3177 5.76515C11.3177 8.71067 8.92989 11.0985 5.98438 11.0985C3.03886 11.0985 0.651042 8.71067 0.651042 5.76515ZM104.338 93.0909L104.66 92.1442L104.338 93.0909ZM6.9154 4.63917C7.46347 4.57105 7.96298 4.96013 8.03109 5.5082C8.09921 6.05627 7.71013 6.55578 7.16206 6.62389L6.9154 4.63917ZM11.2287 6.15931C10.6794 6.2163 10.1878 5.81718 10.1308 5.26785C10.0738 4.71851 10.473 4.22698 11.0223 4.16998L11.2287 6.15931ZM12.9993 3.97551C13.5492 3.92444 14.0364 4.32884 14.0875 4.87876C14.1385 5.42868 13.7341 5.91587 13.1842 5.96694L12.9993 3.97551ZM17.2077 5.64223C16.6567 5.67966 16.1796 5.26333 16.1422 4.71231C16.1048 4.1613 16.5211 3.68427 17.0721 3.64684L17.2077 5.64223ZM19.1197 3.52187C19.6712 3.49213 20.1424 3.91507 20.1721 4.46655C20.2018 5.01804 19.7789 5.48922 19.2274 5.51897L19.1197 3.52187ZM23.1538 5.36576C22.6017 5.37861 22.1437 4.94143 22.1309 4.38929C22.118 3.83716 22.5552 3.37915 23.1073 3.3663L23.1538 5.36576ZM25.2133 3.33634C25.7655 3.33363 26.2154 3.77914 26.2182 4.33143C26.2209 4.88371 25.7754 5.33361 25.2231 5.33632L25.2133 3.33634ZM29.138 5.39286C28.5861 5.37352 28.1543 4.9104 28.1737 4.35845C28.193 3.8065 28.6561 3.37475 29.2081 3.39409L29.138 5.39286ZM31.316 3.4932C31.8673 3.52596 32.2877 3.99945 32.2549 4.55076C32.2222 5.10207 31.7487 5.52245 31.1974 5.48969L31.316 3.4932ZM35.1076 5.82489C34.5589 5.76229 34.1648 5.26672 34.2274 4.71799C34.29 4.16927 34.7856 3.77518 35.3343 3.83778L35.1076 5.82489ZM37.428 4.11132C37.9744 4.19214 38.3517 4.70055 38.2709 5.24689C38.1901 5.79323 37.6817 6.17061 37.1354 6.08979L37.428 4.11132ZM40.9845 6.80355C40.4458 6.68152 40.1081 6.14595 40.2301 5.60732C40.3522 5.06868 40.8877 4.73095 41.4264 4.85297L40.9845 6.80355ZM43.4786 5.36771C44.011 5.51482 44.3233 6.06561 44.1762 6.59794C44.0291 7.13027 43.4783 7.44256 42.9459 7.29546L43.4786 5.36771ZM46.6615 8.5347C46.1483 8.33059 45.8977 7.74911 46.1018 7.23592C46.3059 6.72274 46.8874 6.47218 47.4006 6.67628L46.6615 8.5347ZM49.2861 7.49533C49.7853 7.73164 49.9984 8.32787 49.7621 8.82704C49.5258 9.32622 48.9295 9.53931 48.4303 9.30301L49.2861 7.49533ZM51.8101 11.2129C51.3515 10.9051 51.2293 10.2839 51.537 9.8253C51.8448 9.36671 52.466 9.24442 52.9246 9.55216L51.8101 11.2129ZM54.6325 10.8041C55.0638 11.1492 55.1336 11.7785 54.7886 12.2097C54.4435 12.641 53.8142 12.7108 53.383 12.3658L54.6325 10.8041ZM56.1714 15.0237C55.8064 14.6093 55.8464 13.9774 56.2609 13.6123C56.6753 13.2473 57.3072 13.2873 57.6722 13.7018L56.1714 15.0237ZM58.9895 15.3335C59.3178 15.7775 59.2241 16.4037 58.78 16.7321C58.336 17.0605 57.7098 16.9667 57.3814 16.5227L58.9895 15.3335ZM59.4304 19.8148C59.1748 19.3253 59.3644 18.7212 59.8539 18.4655C60.3435 18.2098 60.9476 18.3994 61.2032 18.889L59.4304 19.8148ZM62.108 20.7755C62.3305 21.281 62.101 21.8711 61.5955 22.0935C61.0899 22.3159 60.4998 22.0864 60.2774 21.5809L62.108 20.7755ZM61.6528 25.2614C61.4862 24.7349 61.778 24.173 62.3046 24.0063C62.8311 23.8397 63.393 24.1315 63.5596 24.6581L61.6528 25.2614ZM64.1374 26.6311C64.2818 27.1641 63.9668 27.7133 63.4337 27.8578C62.9006 28.0022 62.3514 27.6871 62.207 27.154L64.1374 26.6311ZM63.1178 31.0287C63.0072 30.4877 63.3561 29.9593 63.8972 29.8487C64.4383 29.7381 64.9666 30.087 65.0773 30.6281L63.1178 31.0287ZM65.4632 32.633C65.5618 33.1765 65.2013 33.6969 64.6579 33.7956C64.1145 33.8942 63.594 33.5337 63.4953 32.9903L65.4632 32.633ZM64.1496 36.9501C64.0664 36.4041 64.4415 35.8941 64.9875 35.8109C65.5335 35.7277 66.0436 36.1028 66.1268 36.6488L64.1496 36.9501ZM66.4251 38.6599C66.5044 39.2065 66.1256 39.7138 65.579 39.7931C65.0325 39.8724 64.5251 39.4936 64.4458 38.947L66.4251 38.6599ZM65.0169 42.9472C64.9386 42.4005 65.3184 41.8938 65.8651 41.8155C66.4118 41.7373 66.9184 42.117 66.9967 42.6637L65.0169 42.9472ZM67.2861 44.6555C67.367 45.2019 66.9897 45.7103 66.4433 45.7912C65.897 45.8721 65.3886 45.4948 65.3077 44.9485L67.2861 44.6555ZM65.9389 48.9624C65.847 48.4178 66.2139 47.9018 66.7584 47.8098C67.303 47.7178 67.819 48.0847 67.911 48.6293L65.9389 48.9624ZM68.2601 50.6067C68.3604 51.1498 68.0015 51.6714 67.4584 51.7717C66.9153 51.8721 66.3937 51.5132 66.2933 50.9701L68.2601 50.6067ZM67.1122 54.9692C66.9899 54.4307 67.3272 53.8949 67.8658 53.7725C68.4043 53.6501 68.9401 53.9875 69.0625 54.526L67.1122 54.9692ZM69.5284 56.4649C69.6644 57.0001 69.3407 57.5443 68.8054 57.6803C68.2701 57.8163 67.726 57.4925 67.59 56.9573L69.5284 56.4649ZM68.7147 60.9007C68.5468 60.3746 68.8372 59.8119 69.3633 59.644C69.8894 59.476 70.4521 59.7664 70.62 60.2925L68.7147 60.9007ZM71.2565 62.1747C71.4426 62.6947 71.1719 63.2671 70.652 63.4532C70.132 63.6393 69.5596 63.3686 69.3735 62.8486L71.2565 62.1747ZM70.9067 66.6686C70.6808 66.1646 70.9062 65.5729 71.4102 65.347C71.9142 65.1211 72.5059 65.3466 72.7318 65.8505L70.9067 66.6686ZM73.5783 67.6374C73.8254 68.1313 73.6253 68.732 73.1313 68.9791C72.6374 69.2262 72.0367 69.0261 71.7896 68.5322L73.5783 67.6374ZM73.8011 72.1406C73.5105 71.671 73.6555 71.0547 74.1251 70.764C74.5947 70.4733 75.2111 70.6184 75.5017 71.088L73.8011 72.1406ZM76.5742 72.7336C76.8865 73.1891 76.7704 73.8115 76.3149 74.1238C75.8594 74.4362 75.237 74.3201 74.9247 73.8646L76.5742 72.7336ZM77.4179 77.1546C77.0638 76.7308 77.1204 76.1001 77.5442 75.7461C77.968 75.392 78.5987 75.4485 78.9528 75.8723L77.4179 77.1546ZM80.2657 77.3697C80.6395 77.7762 80.6131 78.4088 80.2066 78.7827C79.8 79.1566 79.1674 79.1301 78.7936 78.7236L80.2657 77.3697ZM81.7135 81.62C81.3042 81.2491 81.2732 80.6167 81.644 80.2074C82.0149 79.7982 82.6473 79.7671 83.0565 80.138L81.7135 81.62ZM84.5565 81.4386C84.9816 81.7912 85.0403 82.4217 84.6876 82.8467C84.3349 83.2718 83.7045 83.3304 83.2795 82.9778L84.5565 81.4386ZM86.5637 85.4803C86.1113 85.1635 86.0014 84.5399 86.3182 84.0875C86.635 83.6351 87.2585 83.5252 87.7109 83.842L86.5637 85.4803ZM89.3329 84.9328C89.7968 85.2325 89.9299 85.8515 89.6302 86.3154C89.3305 86.7793 88.7115 86.9124 88.2476 86.6127L89.3329 84.9328ZM91.8154 88.7403C91.3315 88.474 91.1552 87.8658 91.4216 87.382C91.6879 86.8982 92.296 86.7219 92.7799 86.9882L91.8154 88.7403ZM94.4892 87.8947C94.9811 88.1459 95.1761 88.7483 94.9249 89.2401C94.6736 89.7319 94.0713 89.927 93.5794 89.6758L94.4892 87.8947ZM97.3297 91.4516C96.824 91.2297 96.5939 90.6399 96.8158 90.1341C97.0377 89.6284 97.6275 89.3983 98.1333 89.6202L97.3297 91.4516ZM99.9234 90.378C100.435 90.5868 100.68 91.1705 100.471 91.6818C100.262 92.1931 99.6786 92.4383 99.1673 92.2295L99.9234 90.378ZM103.01 93.6892C102.489 93.5054 102.216 92.9342 102.4 92.4134C102.584 91.8926 103.155 91.6195 103.676 91.8033L103.01 93.6892ZM105.613 92.4555C106.14 92.6205 106.434 93.1816 106.269 93.7086C106.104 94.2357 105.543 94.5292 105.016 94.3641L105.613 92.4555ZM109.009 95.4061C108.468 95.2927 108.122 94.7626 108.235 94.2221C108.349 93.6815 108.879 93.3353 109.419 93.4487L109.009 95.4061ZM111.364 93.8074C111.909 93.8944 112.281 94.407 112.194 94.9524C112.107 95.4978 111.594 95.8694 111.049 95.7824L111.364 93.8074ZM115.147 96.2365C114.596 96.2017 114.178 95.7266 114.212 95.1754C114.247 94.6242 114.722 94.2057 115.274 94.2405L115.147 96.2365ZM117.249 94.3197C117.801 94.3292 118.241 94.7845 118.232 95.3368C118.222 95.889 117.767 96.3289 117.215 96.3194L117.249 94.3197ZM121.334 96.2093C120.783 96.2477 120.305 95.8321 120.267 95.2811C120.228 94.7302 120.644 94.2525 121.195 94.2142L121.334 96.2093ZM123.165 94.0368C123.714 93.9763 124.208 94.3722 124.269 94.9212C124.329 95.4702 123.933 95.9642 123.384 96.0247L123.165 94.0368ZM127.449 95.4205C126.906 95.5215 126.384 95.1631 126.283 94.6202C126.182 94.0772 126.541 93.5552 127.084 93.4542L127.449 95.4205ZM129.031 93.0577C129.57 92.9385 130.104 93.279 130.223 93.8183C130.343 94.3576 130.002 94.8913 129.463 95.0105L129.031 93.0577ZM133.433 94.0034C132.902 94.1549 132.348 93.8472 132.197 93.3161C132.045 92.785 132.353 92.2316 132.884 92.0801L133.433 94.0034ZM134.798 91.5057C135.325 91.3399 135.886 91.6326 136.052 92.1594C136.218 92.6862 135.925 93.2477 135.399 93.4135L134.798 91.5057ZM139.261 92.0939C138.742 92.2844 138.168 92.0187 137.977 91.5003C137.786 90.982 138.052 90.4073 138.571 90.2167L139.261 92.0939ZM140.448 89.504C140.962 89.3026 141.542 89.5563 141.743 90.0706C141.945 90.5849 141.691 91.165 141.177 91.3663L140.448 89.504ZM144.937 89.8131C144.43 90.0328 143.841 89.8001 143.622 89.2934C143.402 88.7867 143.635 88.1978 144.141 87.9781L144.937 89.8131ZM145.978 87.1647C146.481 86.9372 147.073 87.1607 147.301 87.664C147.528 88.1672 147.305 88.7596 146.802 88.9871L145.978 87.1647ZM150.482 87.2632C149.984 87.5037 149.386 87.2957 149.146 86.7985C148.905 86.3013 149.113 85.7033 149.611 85.4628L150.482 87.2632ZM151.415 84.5774C151.91 84.3316 152.51 84.5332 152.756 85.0277C153.002 85.5223 152.8 86.1225 152.306 86.3683L151.415 84.5774ZM155.922 84.5298C155.432 84.7841 154.828 84.5927 154.574 84.1025C154.32 83.6122 154.511 83.0086 155.001 82.7544L155.922 84.5298ZM156.787 81.8209C157.275 81.5635 157.88 81.7509 158.137 82.2395C158.395 82.7281 158.207 83.3329 157.719 83.5904L156.787 81.8209ZM161.29 81.687C160.803 81.9487 160.197 81.7666 159.935 81.2802C159.674 80.7939 159.856 80.1875 160.342 79.9258L161.29 81.687ZM162.122 78.9653C162.607 78.7024 163.214 78.8831 163.477 79.3688C163.74 79.8546 163.559 80.4614 163.073 80.7243L162.122 78.9653ZM166.622 78.8006C166.136 79.0637 165.53 78.8834 165.266 78.3978C165.003 77.9122 165.184 77.3052 165.669 77.0422L166.622 78.8006ZM167.454 76.0771C167.94 75.8149 168.547 75.9964 168.809 76.4825C169.071 76.9686 168.89 77.5752 168.403 77.8374L167.454 76.0771ZM171.956 75.9379C171.468 76.196 170.863 76.0095 170.604 75.5212C170.346 75.033 170.533 74.4279 171.021 74.1698L171.956 75.9379ZM172.821 73.2255C173.311 72.9706 173.915 73.1611 174.169 73.651C174.424 74.1409 174.234 74.7447 173.744 74.9997L172.821 73.2255ZM177.327 73.1743C176.832 73.4201 176.232 73.2185 175.986 72.724C175.74 72.2295 175.942 71.6292 176.437 71.3834L177.327 73.1743ZM178.262 70.4895C178.759 70.2496 179.357 70.4585 179.597 70.956C179.837 71.4535 179.628 72.0512 179.13 72.2911L178.262 70.4895ZM182.77 70.6018C182.266 70.8261 181.675 70.5988 181.45 70.0941C181.226 69.5894 181.454 68.9984 181.958 68.7742L182.77 70.6018ZM183.819 67.9681C184.328 67.7536 184.914 67.9922 185.129 68.5011C185.343 69.01 185.105 69.5965 184.596 69.8111L183.819 67.9681ZM188.317 68.3407C187.799 68.5308 187.224 68.2646 187.034 67.746C186.844 67.2275 187.11 66.653 187.629 66.4629L188.317 68.3407ZM189.549 65.7891C190.073 65.6139 190.64 65.8964 190.815 66.4202C190.99 66.9439 190.708 67.5106 190.184 67.6858L189.549 65.7891ZM193.986 66.5531C193.451 66.6915 192.906 66.3703 192.767 65.8357C192.629 65.301 192.95 64.7554 193.485 64.617L193.986 66.5531ZM195.505 64.1378C196.045 64.0219 196.577 64.3656 196.693 64.9056C196.809 65.4455 196.465 65.9773 195.925 66.0932L195.505 64.1378ZM199.806 65.4499C199.257 65.5124 198.762 65.1183 198.699 64.5695C198.636 64.0208 199.031 63.5253 199.579 63.4628L199.806 65.4499ZM201.648 63.2858C202.2 63.2548 202.672 63.6766 202.703 64.228C202.734 64.7794 202.312 65.2516 201.761 65.2827L201.648 63.2858ZM205.663 65.3093C205.113 65.2688 204.699 64.7895 204.739 64.2387C204.78 63.6879 205.259 63.2742 205.81 63.3146L205.663 65.3093ZM207.883 63.5406C208.429 63.6201 208.808 64.1277 208.728 64.6742C208.649 65.2207 208.141 65.5993 207.595 65.5198L207.883 63.5406ZM211.389 66.3649C210.86 66.2044 210.562 65.6459 210.723 65.1174C210.883 64.589 211.442 64.2907 211.97 64.4513L211.389 66.3649ZM213.932 65.129C214.447 65.3288 214.702 65.9081 214.503 66.423C214.303 66.9379 213.724 67.1933 213.209 66.9936L213.932 65.129ZM216.712 68.6589C216.231 68.3866 216.062 67.7764 216.334 67.2959C216.607 66.8153 217.217 66.6465 217.697 66.9187L216.712 68.6589ZM219.489 68.0167C219.95 68.321 220.077 68.9412 219.773 69.4022C219.469 69.8631 218.849 69.9902 218.388 69.686L219.489 68.0167ZM221.494 72.0232C221.073 71.6659 221.021 71.0349 221.378 70.6137C221.735 70.1925 222.366 70.1407 222.788 70.498L221.494 72.0232ZM224.377 71.9242C224.778 72.3039 224.795 72.9369 224.416 73.3379C224.036 73.7389 223.403 73.7561 223.002 73.3763L224.377 71.9242ZM225.691 76.1738C225.326 75.7592 225.367 75.1273 225.781 74.7625C226.196 74.3977 226.828 74.438 227.193 74.8527L225.691 76.1738ZM228.557 76.4699C228.904 76.8992 228.838 77.5289 228.409 77.8764C227.979 78.2238 227.35 78.1575 227.002 77.7282L228.557 76.4699ZM229.347 80.8433C229.03 80.3913 229.139 79.7676 229.591 79.4502C230.043 79.1328 230.667 79.2419 230.984 79.6938L229.347 80.8433ZM232.181 81.4571C232.484 81.9187 232.355 82.5387 231.894 82.8418C231.432 83.1449 230.812 83.0164 230.509 82.5547L232.181 81.4571ZM232.554 85.8565C232.275 85.3798 232.435 84.7673 232.912 84.4882C233.388 84.2092 234.001 84.3694 234.28 84.846L232.554 85.8565ZM235.312 86.6579C235.58 87.141 235.405 87.7496 234.922 88.0173C234.439 88.285 233.83 88.1105 233.563 87.6274L235.312 86.6579ZM235.41 91.1313C235.162 90.6378 235.361 90.0368 235.855 89.7888C236.348 89.5409 236.949 89.74 237.197 90.2335L235.41 91.1313ZM238.088 92.048C238.327 92.5458 238.118 93.1432 237.62 93.3822C237.122 93.6213 236.524 93.4114 236.285 92.9135L238.088 92.048ZM238.001 96.6485C237.778 96.143 238.008 95.5529 238.514 95.3305C239.019 95.1082 239.609 95.3378 239.832 95.8433L238.001 96.6485ZM240.604 97.6331C240.819 98.1417 240.581 98.7285 240.073 98.9438C239.564 99.1591 238.977 98.9214 238.762 98.4128L240.604 97.6331ZM240.271 102.115C240.069 101.601 240.322 101.021 240.837 100.819C241.351 100.617 241.931 100.87 242.133 101.384L240.271 102.115ZM242.89 103.347C243.085 103.863 242.825 104.441 242.309 104.636C241.792 104.832 241.215 104.572 241.019 104.055L242.89 103.347ZM242.375 107.755C242.19 107.235 242.463 106.663 242.983 106.479C243.504 106.294 244.075 106.567 244.26 107.087L242.375 107.755ZM244.92 108.979C245.1 109.502 244.822 110.07 244.299 110.25C243.777 110.429 243.208 110.151 243.029 109.629L244.92 108.979ZM244.325 113.523C244.156 112.998 244.444 112.434 244.97 112.264C245.495 112.095 246.059 112.383 246.228 112.909L244.325 113.523ZM246.853 114.872C247.018 115.399 246.725 115.96 246.198 116.126C245.671 116.291 245.11 115.998 244.945 115.471L246.853 114.872ZM246.084 119.204C245.927 118.674 246.228 118.118 246.758 117.961C247.287 117.803 247.844 118.105 248.001 118.634L246.084 119.204ZM248.57 120.576C248.724 121.106 248.418 121.661 247.887 121.814C247.357 121.968 246.802 121.662 246.649 121.131L248.57 120.576ZM247.77 125.11C247.623 124.577 247.937 124.027 248.469 123.881C249.002 123.735 249.552 124.048 249.698 124.581L247.77 125.11ZM5.85628 4.77339C6.2115 4.72751 6.56454 4.68277 6.9154 4.63917L7.16206 6.62389C6.81441 6.6671 6.46455 6.71144 6.11247 6.75691L5.85628 4.77339ZM11.0223 4.16998C11.6897 4.10074 12.3487 4.03593 12.9993 3.97551L13.1842 5.96694C12.5409 6.02668 11.8891 6.09078 11.2287 6.15931L11.0223 4.16998ZM17.0721 3.64684C17.7648 3.59978 18.4473 3.55814 19.1197 3.52187L19.2274 5.51897C18.5645 5.55473 17.8913 5.59579 17.2077 5.64223L17.0721 3.64684ZM23.1073 3.3663C23.8216 3.34969 24.5235 3.33973 25.2133 3.33634L25.2231 5.33632C24.5459 5.33965 23.8562 5.34942 23.1538 5.36576L23.1073 3.3663ZM29.2081 3.39409C29.9251 3.41922 30.6277 3.4523 31.316 3.4932L31.1974 5.48969C30.5257 5.44977 29.8394 5.41744 29.138 5.39286L29.2081 3.39409ZM35.3343 3.83778C36.0493 3.91934 36.747 4.01058 37.428 4.11132L37.1354 6.08979C36.477 5.99241 35.8013 5.90402 35.1076 5.82489L35.3343 3.83778ZM41.4264 4.85297C42.1309 5.0126 42.8148 5.18426 43.4786 5.36771L42.9459 7.29546C42.3132 7.12061 41.6597 6.95651 40.9845 6.80355L41.4264 4.85297ZM47.4006 6.67628C48.052 6.93538 48.6802 7.20851 49.2861 7.49533L48.4303 9.30301C47.8639 9.03485 47.2746 8.77857 46.6615 8.5347L47.4006 6.67628ZM52.9246 9.55216C53.5214 9.95265 54.0902 10.3702 54.6325 10.8041L53.383 12.3658C52.8847 11.9671 52.361 11.5825 51.8101 11.2129L52.9246 9.55216ZM57.6722 13.7018C58.1376 14.2301 58.576 14.7744 58.9895 15.3335L57.3814 16.5227C57.0009 16.0082 56.5982 15.5083 56.1714 15.0237L57.6722 13.7018ZM61.2032 18.889C61.5253 19.5057 61.8262 20.1349 62.108 20.7755L60.2774 21.5809C60.0125 20.9788 59.7307 20.3899 59.4304 19.8148L61.2032 18.889ZM63.5596 24.6581C63.7651 25.3074 63.9571 25.9653 64.1374 26.6311L62.207 27.154C62.0334 26.513 61.8492 25.8819 61.6528 25.2614L63.5596 24.6581ZM65.0773 30.6281C65.2127 31.2907 65.3409 31.9593 65.4632 32.633L63.4953 32.9903C63.3753 32.3292 63.25 31.6752 63.1178 31.0287L65.0773 30.6281ZM66.1268 36.6488C66.2284 37.3156 66.3274 37.9862 66.4251 38.6599L64.4458 38.947C64.3486 38.2765 64.2503 37.6108 64.1496 36.9501L66.1268 36.6488ZM66.9967 42.6637C67.0915 43.326 67.1876 43.99 67.2861 44.6555L65.3077 44.9485C65.2085 44.2786 65.112 43.6112 65.0169 42.9472L66.9967 42.6637ZM67.911 48.6293C68.0223 49.2882 68.1383 49.9475 68.2601 50.6067L66.2933 50.9701C66.1695 50.2997 66.0517 49.6303 65.9389 48.9624L67.911 48.6293ZM69.0625 54.526C69.2097 55.1736 69.3646 55.82 69.5284 56.4649L67.59 56.9573C67.4217 56.295 67.2629 55.6321 67.1122 54.9692L69.0625 54.526ZM70.62 60.2925C70.8211 60.9225 71.0329 61.55 71.2565 62.1747L69.3735 62.8486C69.1417 62.2012 68.9225 61.5517 68.7147 60.9007L70.62 60.2925ZM72.7318 65.8505C73.0004 66.4498 73.2822 67.0455 73.5783 67.6374L71.7896 68.5322C71.4805 67.9143 71.1865 67.2929 70.9067 66.6686L72.7318 65.8505ZM75.5017 71.088C75.844 71.6409 76.2011 72.1895 76.5742 72.7336L74.9247 73.8646C74.5337 73.2944 74.1595 72.7196 73.8011 72.1406L75.5017 71.088ZM78.9528 75.8723C79.3738 76.3763 79.8112 76.8756 80.2657 77.3697L78.7936 78.7236C78.3176 78.206 77.8593 77.6829 77.4179 77.1546L78.9528 75.8723ZM83.0565 80.138C83.5403 80.5765 84.0401 81.0101 84.5565 81.4386L83.2795 82.9778C82.7407 82.5308 82.2189 82.0781 81.7135 81.62L83.0565 80.138ZM87.7109 83.842C88.2368 84.2102 88.7772 84.5738 89.3329 84.9328L88.2476 86.6127C87.6713 86.2404 87.1102 85.8629 86.5637 85.4803L87.7109 83.842ZM92.7799 86.9882C93.3364 87.2946 93.9061 87.5968 94.4892 87.8947L93.5794 89.6758C92.9782 89.3687 92.3903 89.0568 91.8154 88.7403L92.7799 86.9882ZM98.1333 89.6202C98.718 89.8767 99.3147 90.1294 99.9234 90.378L99.1673 92.2295C98.5429 91.9745 97.9304 91.7152 97.3297 91.4516L98.1333 89.6202ZM103.676 91.8033C104.001 91.918 104.329 92.0316 104.66 92.1442L104.016 94.0377C103.678 93.9227 103.342 93.8065 103.01 93.6892L103.676 91.8033ZM104.66 92.1442C104.978 92.2523 105.296 92.356 105.613 92.4555L105.016 94.3641C104.682 94.2598 104.349 94.151 104.016 94.0377L104.66 92.1442ZM109.419 93.4487C110.068 93.5848 110.716 93.7041 111.364 93.8074L111.049 95.7824C110.369 95.6741 109.689 95.5489 109.009 95.4061L109.419 93.4487ZM115.274 94.2405C115.933 94.2822 116.591 94.3084 117.249 94.3197L117.215 96.3194C116.527 96.3076 115.837 96.2802 115.147 96.2365L115.274 94.2405ZM121.195 94.2142C121.852 94.1685 122.509 94.1091 123.165 94.0368L123.384 96.0247C122.702 96.1 122.018 96.1617 121.334 96.2093L121.195 94.2142ZM127.084 93.4542C127.733 93.3334 128.382 93.201 129.031 93.0577L129.463 95.0105C128.793 95.1586 128.122 95.2955 127.449 95.4205L127.084 93.4542ZM132.884 92.0801C133.523 91.898 134.161 91.7063 134.798 91.5057L135.399 93.4135C134.744 93.6193 134.089 93.8161 133.433 94.0034L132.884 92.0801ZM138.571 90.2167C139.197 89.9865 139.823 89.7487 140.448 89.504L141.177 91.3663C140.539 91.6159 139.901 91.8586 139.261 92.0939L138.571 90.2167ZM144.141 87.9781C144.754 87.7125 145.366 87.4411 145.978 87.1647L146.802 88.9871C146.181 89.2676 145.56 89.5431 144.937 89.8131L144.141 87.9781ZM149.611 85.4628C150.213 85.1714 150.815 84.8761 151.415 84.5774L152.306 86.3683C151.699 86.67 151.091 86.9685 150.482 87.2632L149.611 85.4628ZM155.001 82.7544C155.597 82.4453 156.192 82.134 156.787 81.8209L157.719 83.5904C157.121 83.9052 156.522 84.2186 155.922 84.5298L155.001 82.7544ZM160.342 79.9258C160.936 79.6061 161.529 79.2858 162.122 78.9653L163.073 80.7243C162.48 81.0453 161.886 81.3664 161.29 81.687L160.342 79.9258ZM165.669 77.0422C166.265 76.7193 166.86 76.3974 167.454 76.0771L168.403 77.8374C167.811 78.1569 167.217 78.4782 166.622 78.8006L165.669 77.0422ZM171.021 74.1698C171.622 73.8521 172.222 73.5371 172.821 73.2255L173.744 74.9997C173.15 75.309 172.554 75.6219 171.956 75.9379L171.021 74.1698ZM176.437 71.3834C177.046 71.0804 177.654 70.7822 178.262 70.4895L179.13 72.2911C178.531 72.58 177.93 72.8746 177.327 73.1743L176.437 71.3834ZM181.958 68.7742C182.58 68.498 183.2 68.2291 183.819 67.9681L184.596 69.8111C183.989 70.0667 183.381 70.3305 182.77 70.6018L181.958 68.7742ZM187.629 66.4629C188.27 66.2277 188.911 66.0028 189.549 65.7891L190.184 67.6858C189.564 67.8931 188.942 68.1116 188.317 68.3407L187.629 66.4629ZM193.485 64.617C194.16 64.4422 194.833 64.2821 195.505 64.1378L195.925 66.0932C195.282 66.2314 194.635 66.385 193.986 66.5531L193.485 64.617ZM199.579 63.4628C200.271 63.384 200.96 63.3246 201.648 63.2858L201.761 65.2827C201.113 65.3192 200.461 65.3753 199.806 65.4499L199.579 63.4628ZM205.81 63.3146C206.503 63.3655 207.194 63.4404 207.883 63.5406L207.595 65.5198C206.954 65.4266 206.311 65.3568 205.663 65.3093L205.81 63.3146ZM211.97 64.4513C212.627 64.6509 213.281 64.8764 213.932 65.129L213.209 66.9936C212.605 66.7592 211.998 66.55 211.389 66.3649L211.97 64.4513ZM217.697 66.9187C218.298 67.2589 218.895 67.6247 219.489 68.0167L218.388 69.686C217.831 69.3185 217.272 68.9764 216.712 68.6589L217.697 66.9187ZM222.788 70.498C223.32 70.9499 223.85 71.4251 224.377 71.9242L223.002 73.3763C222.501 72.9017 221.998 72.4509 221.494 72.0232L222.788 70.498ZM227.193 74.8527C227.65 75.3721 228.104 75.911 228.557 76.4699L227.002 77.7282C226.567 77.19 226.129 76.6721 225.691 76.1738L227.193 74.8527ZM230.984 79.6938C231.385 80.2645 231.784 80.8522 232.181 81.4571L230.509 82.5547C230.123 81.9668 229.736 81.3964 229.347 80.8433L230.984 79.6938ZM234.28 84.846C234.625 85.4359 234.969 86.0398 235.312 86.6579L233.563 87.6274C233.227 87.0227 232.891 86.4325 232.554 85.8565L234.28 84.846ZM237.197 90.2335C237.495 90.8268 237.792 91.4316 238.088 92.048L236.285 92.9135C235.995 92.3077 235.703 91.7137 235.41 91.1313L237.197 90.2335ZM239.832 95.8433C240.09 96.4305 240.347 97.0271 240.604 97.6331L238.762 98.4128C238.509 97.8151 238.255 97.2271 238.001 96.6485L239.832 95.8433ZM242.133 101.384C242.386 102.029 242.638 102.683 242.89 103.347L241.019 104.055C240.771 103.399 240.521 102.752 240.271 102.115L242.133 101.384ZM244.26 107.087C244.481 107.71 244.701 108.341 244.92 108.979L243.029 109.629C242.811 108.996 242.593 108.372 242.375 107.755L244.26 107.087ZM246.228 112.909C246.437 113.556 246.646 114.21 246.853 114.872L244.945 115.471C244.739 114.814 244.532 114.165 244.325 113.523L246.228 112.909ZM248.001 118.634C248.191 119.275 248.381 119.922 248.57 120.576L246.649 121.131C246.461 120.482 246.273 119.84 246.084 119.204L248.001 118.634ZM249.698 124.581C249.792 124.921 249.885 125.264 249.978 125.608L248.048 126.131C247.955 125.789 247.862 125.448 247.77 125.11L249.698 124.581Z" fill="url(#paint0_linear_562_4815)"/>
<defs>
<linearGradient id="paint0_linear_562_4815" x1="7.75385" y1="5.76609" x2="159.731" y2="280.539" gradientUnits="userSpaceOnUse">
<stop stop-color="#FFEF99"/>
<stop offset="1" stop-color="#FFEF99" stop-opacity="0"/>
</linearGradient>
</defs>
</svg>
