<svg width="249" height="179" viewBox="0 0 249 179" fill="none" xmlns="http://www.w3.org/2000/svg">
<path d="M0.033854 171.693C0.033854 174.638 2.42167 177.026 5.36719 177.026C8.31271 177.026 10.7005 174.638 10.7005 171.693C10.7005 168.747 8.31271 166.359 5.36719 166.359C2.42167 166.359 0.033854 168.747 0.033854 171.693ZM112.23 86.3206L112.685 85.4304L112.23 86.3206ZM6.04275 172.927C6.57432 173.077 7.1267 172.767 7.27652 172.236C7.42634 171.704 7.11687 171.152 6.58529 171.002L6.04275 172.927ZM10.4242 172.006C9.88745 171.876 9.34687 172.206 9.21678 172.743C9.08669 173.279 9.41635 173.82 9.9531 173.95L10.4242 172.006ZM11.9574 174.417C12.4963 174.538 13.031 174.199 13.1518 173.66C13.2725 173.121 12.9335 172.586 12.3945 172.466L11.9574 174.417ZM16.269 173.268C15.7265 173.165 15.2027 173.52 15.0991 174.063C14.9955 174.605 15.3513 175.129 15.8938 175.233L16.269 173.268ZM17.8963 175.6C18.4402 175.695 18.9586 175.331 19.054 174.787C19.1495 174.243 18.7859 173.725 18.2419 173.63L17.8963 175.6ZM22.1846 174.264C21.6381 174.184 21.1302 174.562 21.05 175.108C20.9699 175.654 21.3479 176.162 21.8943 176.243L22.1846 174.264ZM23.8923 176.522C24.4397 176.595 24.9427 176.21 25.0156 175.663C25.0885 175.115 24.7038 174.613 24.1564 174.54L23.8923 176.522ZM28.1513 175.02C27.6022 174.961 27.1092 175.358 27.0501 175.907C26.991 176.456 27.3882 176.949 27.9374 177.008L28.1513 175.02ZM29.9308 177.211C30.4806 177.264 30.9689 176.861 31.0215 176.311C31.0741 175.761 30.671 175.273 30.1212 175.22L29.9308 177.211ZM34.1091 175.555C33.5583 175.515 33.0793 175.929 33.0392 176.48C32.9992 177.031 33.4133 177.51 33.9641 177.55L34.1091 175.555ZM35.9968 177.686C36.5481 177.72 37.0225 177.301 37.0564 176.75C37.0904 176.199 36.6711 175.724 36.1198 175.69L35.9968 177.686ZM40.0953 175.893C39.5434 175.871 39.0779 176.3 39.0555 176.852C39.0331 177.403 39.4623 177.869 40.0141 177.891L40.0953 175.893ZM42.0389 177.963C42.5909 177.98 43.0521 177.546 43.0689 176.994C43.0856 176.442 42.6518 175.981 42.0997 175.964L42.0389 177.963ZM46.1041 176.046C45.5519 176.04 45.0994 176.483 45.0935 177.035C45.0876 177.588 45.5305 178.04 46.0828 178.046L46.1041 176.046ZM48.0986 178.058C48.6509 178.059 49.0991 177.611 49.0997 177.059C49.1003 176.507 48.6531 176.059 48.1008 176.058L48.0986 178.058ZM52.1141 176.025C51.5619 176.034 51.1221 176.49 51.1318 177.042C51.1416 177.594 51.5971 178.034 52.1493 178.024L52.1141 176.025ZM54.166 177.98C54.7181 177.965 55.1537 177.505 55.1389 176.953C55.1241 176.401 54.6646 175.965 54.1125 175.98L54.166 177.98ZM58.1103 175.837C57.5585 175.862 57.1313 176.329 57.156 176.881C57.1807 177.433 57.648 177.86 58.1998 177.835L58.1103 175.837ZM60.2205 177.736C60.772 177.706 61.1951 177.235 61.1655 176.683C61.1359 176.132 60.6648 175.709 60.1133 175.738L60.2205 177.736ZM64.1097 175.489C63.5588 175.528 63.1441 176.006 63.1834 176.557C63.2226 177.108 63.7011 177.523 64.252 177.483L64.1097 175.489ZM66.2655 177.331C66.816 177.287 67.2266 176.805 67.1825 176.254C67.1384 175.704 66.6564 175.293 66.1059 175.337L66.2655 177.331ZM70.0953 174.983C69.5457 175.037 69.1435 175.526 69.1971 176.076C69.2507 176.625 69.7398 177.027 70.2895 176.974L70.0953 174.983ZM72.3009 176.769C72.8501 176.71 73.248 176.218 73.1897 175.669C73.1313 175.12 72.6388 174.722 72.0896 174.78L72.3009 176.769ZM76.0669 174.322C75.5188 174.39 75.1295 174.89 75.1973 175.438C75.2652 175.986 75.7646 176.375 76.3127 176.307L76.0669 174.322ZM78.3113 176.051C78.8588 175.978 79.2437 175.476 79.1711 174.928C79.0984 174.381 78.5957 173.996 78.0482 174.068L78.3113 176.051ZM82.0227 173.505C81.4766 173.588 81.1005 174.097 81.1828 174.643C81.265 175.189 81.7745 175.565 82.3206 175.483L82.0227 173.505ZM84.3146 175.174C84.86 175.087 85.2315 174.574 85.1444 174.029C85.0572 173.483 84.5445 173.112 83.9991 173.199L84.3146 175.174ZM87.9449 172.532C87.4012 172.629 87.039 173.148 87.1359 173.692C87.2329 174.236 87.7522 174.598 88.2959 174.501L87.9449 172.532ZM90.2901 174.136C90.8329 174.034 91.1903 173.512 91.0883 172.969C90.9864 172.426 90.4637 172.069 89.9209 172.17L90.2901 174.136ZM93.8372 171.397C93.2964 171.509 92.9489 172.038 93.061 172.579C93.1731 173.12 93.7023 173.468 94.2431 173.355L93.8372 171.397ZM96.2216 172.935C96.7613 172.818 97.1037 172.285 96.9863 171.746C96.869 171.206 96.3364 170.864 95.7967 170.981L96.2216 172.935ZM99.7103 170.09C99.1731 170.218 98.8414 170.757 98.9695 171.294C99.0975 171.831 99.6368 172.163 100.174 172.035L99.7103 170.09ZM102.126 171.559C102.662 171.426 102.988 170.883 102.854 170.347C102.721 169.811 102.178 169.485 101.642 169.619L102.126 171.559ZM105.528 168.606C104.995 168.751 104.68 169.301 104.825 169.834C104.97 170.367 105.52 170.681 106.053 170.536L105.528 168.606ZM108.002 169.994C108.533 169.843 108.841 169.29 108.69 168.759C108.539 168.228 107.986 167.919 107.455 168.07L108.002 169.994ZM111.273 166.938C110.745 167.101 110.45 167.661 110.613 168.189C110.776 168.716 111.336 169.012 111.864 168.849L111.273 166.938ZM113.811 168.233C114.337 168.063 114.625 167.499 114.456 166.974C114.286 166.448 113.722 166.16 113.196 166.329L113.811 168.233ZM116.962 165.059C116.441 165.243 116.167 165.814 116.351 166.335C116.534 166.856 117.105 167.129 117.626 166.946L116.962 165.059ZM119.539 166.257C120.057 166.067 120.323 165.492 120.132 164.974C119.942 164.455 119.367 164.19 118.849 164.38L119.539 166.257ZM122.586 162.944C122.073 163.15 121.825 163.732 122.031 164.244C122.237 164.757 122.819 165.005 123.331 164.799L122.586 162.944ZM125.176 164.041C125.685 163.827 125.924 163.241 125.71 162.732C125.496 162.223 124.91 161.984 124.401 162.198L125.176 164.041ZM128.088 160.573C127.586 160.804 127.368 161.399 127.6 161.9C127.831 162.401 128.425 162.62 128.927 162.388L128.088 160.573ZM130.742 161.529C131.239 161.288 131.446 160.689 131.205 160.193C130.964 159.696 130.366 159.488 129.869 159.729L130.742 161.529ZM133.434 157.909C132.948 158.171 132.765 158.777 133.027 159.264C133.289 159.75 133.895 159.932 134.381 159.671L133.434 157.909ZM136.153 158.692C136.633 158.419 136.801 157.809 136.528 157.328C136.256 156.848 135.645 156.68 135.165 156.953L136.153 158.692ZM138.574 154.902C138.108 155.199 137.972 155.817 138.269 156.283C138.566 156.748 139.184 156.885 139.65 156.588L138.574 154.902ZM141.351 155.467C141.808 155.157 141.926 154.535 141.615 154.078C141.305 153.621 140.683 153.503 140.226 153.813L141.351 155.467ZM143.425 151.484C142.99 151.824 142.913 152.452 143.253 152.888C143.594 153.323 144.222 153.4 144.657 153.059L143.425 151.484ZM146.244 151.77C146.666 151.413 146.719 150.783 146.362 150.361C146.006 149.939 145.375 149.886 144.953 150.242L146.244 151.77ZM147.848 147.574C147.46 147.967 147.463 148.6 147.856 148.989C148.248 149.377 148.881 149.374 149.27 148.982L147.848 147.574ZM150.671 147.493C151.039 147.081 151.003 146.449 150.592 146.081C150.18 145.713 149.548 145.748 149.18 146.16L150.671 147.493ZM151.608 143.097C151.293 143.551 151.405 144.174 151.859 144.489C152.312 144.804 152.935 144.692 153.251 144.239L151.608 143.097ZM154.358 142.523C154.64 142.048 154.485 141.435 154.011 141.152C153.536 140.869 152.923 141.024 152.64 141.499L154.358 142.523ZM154.351 138.027C154.15 138.541 154.403 139.122 154.918 139.323C155.432 139.524 156.012 139.271 156.213 138.757L154.351 138.027ZM156.889 136.77C157.043 136.24 156.737 135.685 156.206 135.532C155.676 135.378 155.121 135.684 154.968 136.214L156.889 136.77ZM155.667 132.469C155.62 133.019 156.028 133.504 156.578 133.551C157.128 133.598 157.613 133.19 157.66 132.64L155.667 132.469ZM157.735 130.539C157.727 129.987 157.273 129.546 156.721 129.553C156.169 129.561 155.727 130.015 155.735 130.567L157.735 130.539ZM155.317 126.784C155.428 127.325 155.957 127.674 156.498 127.562C157.039 127.451 157.387 126.923 157.276 126.382L155.317 126.784ZM156.758 124.324C156.6 123.795 156.043 123.494 155.514 123.651C154.985 123.809 154.684 124.366 154.841 124.895L156.758 124.324ZM153.47 121.323C153.705 121.823 154.3 122.039 154.8 121.804C155.3 121.57 155.516 120.975 155.282 120.475L153.47 121.323ZM154.306 118.563C154.039 118.079 153.431 117.903 152.947 118.17C152.464 118.437 152.288 119.046 152.555 119.529L154.306 118.563ZM150.523 116.285C150.84 116.738 151.463 116.848 151.916 116.531C152.368 116.214 152.478 115.591 152.161 115.138L150.523 116.285ZM150.892 113.416C150.554 112.979 149.926 112.899 149.489 113.238C149.052 113.576 148.972 114.204 149.31 114.64L150.892 113.416ZM146.841 111.7C147.212 112.109 147.844 112.141 148.254 111.77C148.663 111.4 148.695 110.768 148.325 110.358L146.841 111.7ZM146.893 108.83C146.508 108.433 145.875 108.423 145.479 108.808C145.082 109.192 145.072 109.825 145.457 110.222L146.893 108.83ZM142.65 107.494C143.057 107.868 143.69 107.841 144.063 107.435C144.437 107.028 144.41 106.396 144.004 106.022L142.65 107.494ZM142.495 104.671C142.079 104.308 141.448 104.351 141.084 104.767C140.721 105.183 140.764 105.814 141.18 106.178L142.495 104.671ZM138.051 103.573C138.483 103.917 139.113 103.845 139.456 103.413C139.8 102.981 139.728 102.352 139.296 102.008L138.051 103.573ZM137.763 100.812C137.324 100.477 136.697 100.56 136.361 100.999C136.026 101.438 136.109 102.065 136.548 102.401L137.763 100.812ZM133.338 100.037C133.788 100.356 134.412 100.251 134.732 99.8003C135.052 99.35 134.946 98.7257 134.496 98.406L133.338 100.037ZM132.76 97.1956C132.305 96.8834 131.682 96.9996 131.37 97.4552C131.058 97.9108 131.174 98.5332 131.63 98.8454L132.76 97.1956ZM128.396 96.6964C128.86 96.9957 129.479 96.8621 129.778 96.398C130.077 95.9339 129.944 95.315 129.48 95.0156L128.396 96.6964ZM127.79 93.9414C127.322 93.6481 126.705 93.7897 126.411 94.2577C126.118 94.7257 126.26 95.3428 126.728 95.6361L127.79 93.9414ZM123.226 93.5023C123.701 93.784 124.315 93.6273 124.596 93.1522C124.878 92.6772 124.721 92.0637 124.246 91.782L123.226 93.5023ZM122.49 90.754C122.012 90.4775 121.4 90.641 121.124 91.1192C120.848 91.5973 121.011 92.209 121.489 92.4854L122.49 90.754ZM118.113 90.5782C118.597 90.8452 119.205 90.6698 119.472 90.1863C119.739 89.7028 119.564 89.0945 119.08 88.8275L118.113 90.5782ZM117.309 87.8602C116.823 87.5978 116.216 87.7789 115.954 88.2649C115.691 88.7508 115.873 89.3575 116.358 89.62L117.309 87.8602ZM112.714 87.6942C113.204 87.9479 113.808 87.7559 114.062 87.2654C114.315 86.7748 114.123 86.1714 113.633 85.9177L112.714 87.6942ZM111.762 84.9551C111.271 84.7014 110.668 84.8933 110.414 85.3839C110.16 85.8744 110.352 86.4778 110.843 86.7315L111.762 84.9551ZM107.225 84.8186C107.711 85.0813 108.318 84.9004 108.58 84.4146C108.843 83.9288 108.662 83.322 108.176 83.0593L107.225 84.8186ZM106.449 82.1147C105.966 81.8474 105.358 82.0224 105.09 82.5057C104.823 82.9889 104.998 83.5974 105.481 83.8648L106.449 82.1147ZM102.073 81.9344C102.551 82.2116 103.163 82.0491 103.44 81.5714C103.717 81.0937 103.555 80.4818 103.077 80.2046L102.073 81.9344ZM101.306 79.1629C100.831 78.8801 100.217 79.0354 99.9347 79.5098C99.6519 79.9842 99.8072 80.598 100.282 80.8808L101.306 79.1629ZM96.8549 78.7812C97.3221 79.0757 97.9396 78.9356 98.2341 78.4684C98.5286 78.0012 98.3886 77.3837 97.9214 77.0892L96.8549 78.7812ZM96.3079 76.0575C95.8446 75.7569 95.2253 75.8888 94.9247 76.3521C94.6241 76.8154 94.756 77.4347 95.2193 77.7353L96.3079 76.0575ZM91.8237 75.4595C92.2777 75.7741 92.9007 75.6612 93.2153 75.2072C93.5299 74.7533 93.4169 74.1303 92.963 73.8157L91.8237 75.4595ZM91.3461 72.6752C90.8975 72.3531 90.2727 72.4557 89.9506 72.9043C89.6285 73.3529 89.731 73.9777 90.1796 74.2998L91.3461 72.6752ZM87.0142 71.9404C87.4507 72.2787 88.0789 72.199 88.4171 71.7624C88.7554 71.3259 88.6757 70.6977 88.2392 70.3595L87.0142 71.9404ZM86.642 69.0945C86.2129 68.7469 85.5832 68.813 85.2356 69.2422C84.8879 69.6713 84.9541 70.301 85.3832 70.6487L86.642 69.0945ZM82.3551 68.0799C82.7675 68.4472 83.3997 68.4106 83.7669 67.9981C84.1342 67.5857 84.0976 66.9536 83.6852 66.5863L82.3551 68.0799ZM82.2184 65.2441C81.8161 64.8657 81.1833 64.8849 80.8048 65.2872C80.4263 65.6894 80.4456 66.3223 80.8478 66.7007L82.2184 65.2441ZM77.9805 63.8334C78.3582 64.2364 78.991 64.257 79.394 63.8793C79.797 63.5017 79.8176 62.8689 79.44 62.4659L77.9805 63.8334ZM78.1484 61.0376C77.7856 60.6213 77.1539 60.5779 76.7375 60.9408C76.3212 61.3036 76.2778 61.9353 76.6407 62.3517L78.1484 61.0376ZM74.0792 59.151C74.4045 59.5974 75.03 59.6955 75.4763 59.3702C75.9227 59.045 76.0208 58.4195 75.6955 57.9731L74.0792 59.151ZM74.6016 56.3905C74.2994 55.9282 73.6797 55.7983 73.2174 56.1004C72.7551 56.4026 72.6252 57.0223 72.9274 57.4846L74.6016 56.3905ZM70.8944 53.9333C71.1377 54.4291 71.7369 54.6338 72.2327 54.3904C72.7285 54.1471 72.9331 53.5479 72.6898 53.0521L70.8944 53.9333ZM71.8944 51.2694C71.6888 50.7568 71.1066 50.508 70.594 50.7136C70.0814 50.9193 69.8326 51.5015 70.0382 52.0141L71.8944 51.2694ZM68.8246 48.0627C68.9391 48.603 69.4699 48.9481 70.0102 48.8336C70.5505 48.7191 70.8957 48.1883 70.7811 47.648L68.8246 48.0627ZM70.4792 45.7732C70.419 45.2242 69.9252 44.8279 69.3762 44.8881C68.8272 44.9482 68.4309 45.4421 68.4911 45.9911L70.4792 45.7732ZM68.4786 41.8099C68.4205 42.3591 68.8185 42.8515 69.3678 42.9096C69.917 42.9678 70.4093 42.5697 70.4675 42.0205L68.4786 41.8099ZM70.7664 40.1703C70.8841 39.6307 70.542 39.0979 70.0024 38.9803C69.4628 38.8626 68.93 39.2047 68.8123 39.7443L70.7664 40.1703ZM70.1286 35.7703C69.9028 36.2744 70.1284 36.866 70.6324 37.0918C71.1364 37.3176 71.728 37.092 71.9538 36.588L70.1286 35.7703ZM72.803 34.9063C73.0738 34.425 72.9032 33.8153 72.4219 33.5444C71.9406 33.2736 71.3308 33.4442 71.06 33.9255L72.803 34.9063ZM73.373 30.5029C73.0298 30.9357 73.1024 31.5647 73.5352 31.9078C73.9679 32.251 74.5969 32.1783 74.94 31.7456L73.373 30.5029ZM76.2083 30.2549C76.5799 29.8463 76.5499 29.2139 76.1413 28.8423C75.7328 28.4707 75.1003 28.5007 74.7287 28.9092L76.2083 30.2549ZM77.6344 26.0624C77.2198 26.4273 77.1795 27.0592 77.5444 27.4737C77.9093 27.8883 78.5412 27.9286 78.9558 27.5637L77.6344 26.0624ZM80.4686 26.2959C80.9001 25.9512 80.9704 25.3219 80.6257 24.8905C80.2809 24.459 79.6517 24.3887 79.2202 24.7334L80.4686 26.2959ZM82.4854 22.3379C82.0279 22.6473 81.9078 23.2689 82.2171 23.7265C82.5264 24.184 83.1481 24.3041 83.6056 23.9948L82.4854 22.3379ZM85.2499 22.9245C85.7178 22.631 85.8591 22.0138 85.5657 21.546C85.2722 21.0781 84.6551 20.9367 84.1872 21.2301L85.2499 22.9245ZM87.6774 19.1874C87.1929 19.4525 87.0151 20.0601 87.2802 20.5446C87.5453 21.0291 88.1529 21.207 88.6375 20.9419L87.6774 19.1874ZM90.3807 20.0179C90.872 19.7655 91.0657 19.1627 90.8133 18.6714C90.561 18.1802 89.9582 17.9865 89.4669 18.2388L90.3807 20.0179ZM93.0811 16.4888C92.5788 16.7183 92.3576 17.3116 92.5871 17.8139C92.8166 18.3163 93.4098 18.5375 93.9122 18.308L93.0811 16.4888ZM95.749 17.4924C96.256 17.2735 96.4896 16.685 96.2708 16.1779C96.0519 15.6709 95.4634 15.4373 94.9563 15.6561L95.749 17.4924ZM98.6329 14.1502C98.1181 14.3503 97.8631 14.9298 98.0632 15.4446C98.2634 15.9593 98.8429 16.2144 99.3576 16.0142L98.6329 14.1502ZM101.242 15.3005C101.76 15.1092 102.025 14.5341 101.833 14.016C101.642 13.4979 101.067 13.233 100.549 13.4242L101.242 15.3005ZM104.302 12.1047C103.778 12.2801 103.496 12.8468 103.671 13.3705C103.846 13.8942 104.413 14.1766 104.937 14.0012L104.302 12.1047ZM106.825 13.3837C107.352 13.2158 107.642 12.6532 107.474 12.127C107.306 11.6009 106.743 11.3105 106.217 11.4784L106.825 13.3837ZM110.072 10.3048C109.541 10.4588 109.236 11.0136 109.39 11.544C109.544 12.0744 110.099 12.3795 110.629 12.2254L110.072 10.3048ZM112.513 11.6906C113.046 11.5429 113.357 10.9918 113.21 10.4596C113.062 9.92746 112.511 9.61574 111.979 9.76339L112.513 11.6906ZM115.9 8.72445C115.365 8.85984 115.04 9.40366 115.176 9.93909C115.311 10.4745 115.855 10.7988 116.39 10.6634L115.9 8.72445ZM118.298 10.1918C118.835 10.062 119.165 9.52168 119.035 8.98485C118.905 8.44803 118.365 8.11802 117.828 8.24777L118.298 10.1918ZM121.708 7.35126C121.169 7.4703 120.828 8.00399 120.947 8.54329C121.066 9.0826 121.6 9.42329 122.139 9.30426L121.708 7.35126ZM124.106 8.88017C124.646 8.76631 124.992 8.23591 124.878 7.69549C124.764 7.15507 124.234 6.80928 123.693 6.92314L124.106 8.88017ZM127.6 6.13685C127.057 6.24106 126.702 6.76521 126.806 7.30757C126.911 7.84994 127.435 8.20514 127.977 8.10093L127.6 6.13685ZM129.918 7.73652C130.462 7.63692 130.821 7.1158 130.722 6.57257C130.622 6.02934 130.101 5.66971 129.558 5.76931L129.918 7.73652ZM133.55 5.07159C133.005 5.16225 132.637 5.67738 132.728 6.22217C132.818 6.76697 133.333 7.13512 133.878 7.04446L133.55 5.07159ZM135.818 6.7294C136.363 6.64293 136.735 6.13064 136.649 5.58517C136.562 5.0397 136.05 4.6676 135.505 4.75406L135.818 6.7294ZM139.436 4.16086C138.89 4.23925 138.51 4.74598 138.588 5.29267C138.667 5.83936 139.174 6.219 139.72 6.14061L139.436 4.16086ZM141.704 5.86342C142.252 5.78898 142.635 5.285 142.561 4.73775C142.486 4.19051 141.982 3.80723 141.435 3.88168L141.704 5.86342ZM145.408 3.3693C144.859 3.4362 144.469 3.93485 144.536 4.48307C144.603 5.03129 145.102 5.42147 145.65 5.35458L145.408 3.3693ZM147.604 5.12264C148.153 5.05935 148.546 4.56327 148.483 4.01462C148.42 3.46598 147.924 3.07252 147.375 3.13581L147.604 5.12264ZM151.366 2.70164C150.816 2.75786 150.417 3.24883 150.473 3.79824C150.529 4.34766 151.02 4.74747 151.569 4.69125L151.366 2.70164ZM153.58 4.49195C154.13 4.4392 154.533 3.95077 154.48 3.40101C154.427 2.85125 153.939 2.44835 153.389 2.5011L153.58 4.49195ZM157.327 2.147C156.777 2.1932 156.368 2.6768 156.414 3.22715C156.461 3.7775 156.944 4.18619 157.495 4.13999L157.327 2.147ZM159.472 3.97983C160.023 3.93684 160.434 3.45564 160.391 2.90503C160.348 2.35442 159.867 1.94291 159.316 1.9859L159.472 3.97983ZM163.342 1.69501C162.791 1.73166 162.374 2.20811 162.411 2.75917C162.447 3.31024 162.924 3.72725 163.475 3.6906L163.342 1.69501ZM165.453 3.56454C166.004 3.53093 166.424 3.0568 166.39 2.50554C166.356 1.95428 165.882 1.53464 165.331 1.56825L165.453 3.56454ZM169.292 1.3482C168.741 1.37589 168.316 1.84548 168.344 2.39707C168.371 2.94866 168.841 3.37337 169.392 3.34568L169.292 1.3482ZM171.383 3.25104C171.935 3.22628 172.362 2.75893 172.337 2.20721C172.313 1.65548 171.845 1.22829 171.294 1.25305L171.383 3.25104ZM175.328 1.09315C174.776 1.11215 174.344 1.57501 174.363 2.12697C174.382 2.67893 174.845 3.11097 175.397 3.09196L175.328 1.09315ZM177.358 3.02934C177.91 3.01309 178.345 2.5524 178.328 2.00035C178.312 1.44831 177.851 1.01396 177.299 1.03021L177.358 3.02934ZM181.278 0.932831C180.726 0.943629 180.287 1.40001 180.298 1.95219C180.309 2.50437 180.765 2.94325 181.317 2.93245L181.278 0.932831ZM183.315 2.89828C183.867 2.89018 184.308 2.43595 184.3 1.88372C184.292 1.3315 183.838 0.890395 183.285 0.898494L183.315 2.89828ZM187.306 0.858934C186.754 0.861723 186.308 1.31169 186.311 1.86397C186.314 2.41625 186.764 2.8617 187.316 2.85891L187.306 0.858934ZM189.284 2.85355C189.836 2.85333 190.284 2.40543 190.284 1.85315C190.283 1.30086 189.836 0.853328 189.283 0.85355L189.284 2.85355ZM193.269 0.870386C192.717 0.865516 192.265 1.30927 192.261 1.86153C192.256 2.41379 192.699 2.86544 193.252 2.87031L193.269 0.870386ZM195.251 2.89252C195.803 2.89992 196.257 2.45824 196.264 1.906C196.272 1.35377 195.83 0.900098 195.278 0.892701L195.251 2.89252ZM199.29 0.964589C198.738 0.952216 198.281 1.38979 198.268 1.94193C198.256 2.49408 198.693 2.95171 199.246 2.96409L199.29 0.964589ZM201.216 3.01257C201.768 3.02737 202.228 2.59181 202.242 2.03972C202.257 1.48763 201.822 1.02808 201.27 1.01329L201.216 3.01257ZM205.255 1.13753C204.703 1.11793 204.24 1.54946 204.22 2.1014C204.201 2.65334 204.632 3.11666 205.184 3.13627L205.255 1.13753ZM207.182 3.21157C207.734 3.23357 208.199 2.80405 208.221 2.2522C208.243 1.70036 207.813 1.23516 207.261 1.21316L207.182 3.21157ZM211.27 1.39023C210.719 1.36351 210.25 1.78903 210.223 2.34067C210.196 2.8923 210.622 3.36116 211.173 3.38789L211.27 1.39023ZM213.143 3.48747C213.695 3.51651 214.165 3.09295 214.194 2.54143C214.223 1.98991 213.8 1.51927 213.248 1.49024L213.143 3.48747ZM217.228 1.71643C216.677 1.6828 216.203 2.10242 216.169 2.65368C216.135 3.20494 216.555 3.67908 217.106 3.71272L217.228 1.71643ZM219.099 3.83847C219.65 3.87439 220.126 3.45674 220.162 2.90562C220.198 2.35451 219.781 1.87862 219.229 1.8427L219.099 3.83847ZM223.237 2.12057C222.687 2.08011 222.207 2.49382 222.167 3.04462C222.126 3.59542 222.54 4.07473 223.091 4.1152L223.237 2.12057ZM225.058 4.26367C225.608 4.30635 226.089 3.89458 226.132 3.34395C226.175 2.79331 225.763 2.31234 225.212 2.26965L225.058 4.26367ZM229.182 2.59346C228.632 2.54635 228.147 2.95424 228.1 3.50451C228.053 4.05478 228.461 4.53906 229.011 4.58617L229.182 2.59346ZM230.998 4.76027C231.548 4.80959 232.034 4.40365 232.083 3.85357C232.132 3.30349 231.727 2.81758 231.176 2.76826L230.998 4.76027ZM235.185 3.14385C234.635 3.09013 234.146 3.49217 234.092 4.04183C234.038 4.5915 234.44 5.08064 234.99 5.13437L235.185 3.14385ZM236.952 5.33003C237.502 5.38591 237.992 4.98579 238.048 4.43634C238.104 3.88689 237.704 3.39617 237.155 3.34029L236.952 5.33003ZM241.111 3.75832C240.562 3.69814 240.068 4.09441 240.008 4.64341C239.948 5.19241 240.344 5.68624 240.893 5.74641L241.111 3.75832ZM242.872 5.96723C243.421 6.02955 243.916 5.63521 243.978 5.08646C244.041 4.5377 243.646 4.04232 243.098 3.98L242.872 5.96723ZM247.087 4.44887C246.539 4.38226 246.04 4.77271 245.974 5.32097C245.907 5.86922 246.297 6.36766 246.846 6.43427L247.087 4.44887ZM5.08658 172.652C5.40383 172.745 5.72256 172.837 6.04275 172.927L6.58529 171.002C6.27127 170.913 5.95876 170.824 5.6478 170.733L5.08658 172.652ZM9.9531 173.95C10.6159 174.111 11.284 174.266 11.9574 174.417L12.3945 172.466C11.7323 172.317 11.0755 172.164 10.4242 172.006L9.9531 173.95ZM15.8938 175.233C16.557 175.359 17.2246 175.482 17.8963 175.6L18.2419 173.63C17.5799 173.513 16.9222 173.393 16.269 173.268L15.8938 175.233ZM21.8943 176.243C22.5569 176.34 23.2229 176.433 23.8923 176.522L24.1564 174.54C23.4956 174.452 22.8383 174.36 22.1846 174.264L21.8943 176.243ZM27.9374 177.008C28.5991 177.08 29.2636 177.147 29.9308 177.211L30.1212 175.22C29.4618 175.157 28.8051 175.09 28.1513 175.02L27.9374 177.008ZM33.9641 177.55C34.6394 177.599 35.3171 177.645 35.9968 177.686L36.1198 175.69C35.4473 175.649 34.777 175.604 34.1091 175.555L33.9641 177.55ZM40.0141 177.891C40.6873 177.919 41.3623 177.943 42.0389 177.963L42.0997 175.964C41.4299 175.944 40.7617 175.92 40.0953 175.893L40.0141 177.891ZM46.0828 178.046C46.7535 178.053 47.4255 178.057 48.0986 178.058L48.1008 176.058C47.4341 176.057 46.7685 176.053 46.1041 176.046L46.0828 178.046ZM52.1493 178.024C52.8208 178.012 53.4931 177.998 54.166 177.98L54.1125 175.98C53.4456 175.998 52.7794 176.013 52.1141 176.025L52.1493 178.024ZM58.1998 177.835C58.873 177.805 59.5466 177.772 60.2205 177.736L60.1133 175.738C59.4453 175.774 58.7776 175.807 58.1103 175.837L58.1998 177.835ZM64.252 177.483C64.9232 177.436 65.5944 177.385 66.2655 177.331L66.1059 175.337C65.4406 175.391 64.7751 175.441 64.1097 175.489L64.252 177.483ZM70.2895 176.974C70.9604 176.908 71.631 176.84 72.3009 176.769L72.0896 174.78C71.4253 174.851 70.7606 174.918 70.0953 174.983L70.2895 176.974ZM76.3127 176.307C76.9798 176.225 77.646 176.139 78.3113 176.051L78.0482 174.068C77.3887 174.156 76.7282 174.241 76.0669 174.322L76.3127 176.307ZM82.3206 175.483C82.9866 175.383 83.6513 175.28 84.3146 175.174L83.9991 173.199C83.3417 173.304 82.6828 173.406 82.0227 173.505L82.3206 175.483ZM88.2959 174.501C88.9625 174.382 89.6272 174.261 90.2901 174.136L89.9209 172.17C89.2641 172.294 88.6054 172.414 87.9449 172.532L88.2959 174.501ZM94.2431 173.355C94.9049 173.218 95.5645 173.078 96.2216 172.935L95.7967 170.981C95.1459 171.123 94.4927 171.261 93.8372 171.397L94.2431 173.355ZM100.174 172.035C100.827 171.879 101.478 171.721 102.126 171.559L101.642 169.619C101.001 169.778 100.357 169.935 99.7103 170.09L100.174 172.035ZM106.053 170.536C106.706 170.358 107.356 170.178 108.002 169.994L107.455 168.07C106.816 168.252 106.174 168.431 105.528 168.606L106.053 170.536ZM111.864 168.849C112.517 168.646 113.167 168.441 113.811 168.233L113.196 166.329C112.56 166.535 111.918 166.738 111.273 166.938L111.864 168.849ZM117.626 166.946C118.269 166.719 118.907 166.49 119.539 166.257L118.849 164.38C118.225 164.61 117.596 164.836 116.962 165.059L117.626 166.946ZM123.331 164.799C123.952 164.55 124.567 164.297 125.176 164.041L124.401 162.198C123.802 162.449 123.197 162.698 122.586 162.944L123.331 164.799ZM128.927 162.388C129.539 162.105 130.144 161.819 130.742 161.529L129.869 159.729C129.283 160.014 128.689 160.295 128.088 160.573L128.927 162.388ZM134.381 159.671C134.981 159.348 135.571 159.022 136.153 158.692L135.165 156.953C134.597 157.275 134.02 157.594 133.434 157.909L134.381 159.671ZM139.65 156.588C140.228 156.218 140.795 155.845 141.351 155.467L140.226 153.813C139.687 154.18 139.136 154.543 138.574 154.902L139.65 156.588ZM144.657 153.059C145.201 152.634 145.73 152.205 146.244 151.77L144.953 150.242C144.459 150.66 143.949 151.074 143.425 151.484L144.657 153.059ZM149.27 148.982C149.755 148.491 150.223 147.995 150.671 147.493L149.18 146.16C148.755 146.636 148.311 147.107 147.848 147.574L149.27 148.982ZM153.251 144.239C153.643 143.673 154.013 143.101 154.358 142.523L152.64 141.499C152.32 142.036 151.976 142.569 151.608 143.097L153.251 144.239ZM156.213 138.757C156.47 138.102 156.696 137.439 156.889 136.77L154.968 136.214C154.792 136.823 154.586 137.428 154.351 138.027L156.213 138.757ZM157.66 132.64C157.719 131.945 157.744 131.245 157.735 130.539L155.735 130.567C155.744 131.207 155.721 131.841 155.667 132.469L157.66 132.64ZM157.276 126.382C157.136 125.699 156.964 125.014 156.758 124.324L154.841 124.895C155.031 125.531 155.189 126.16 155.317 126.784L157.276 126.382ZM155.282 120.475C154.984 119.84 154.659 119.202 154.306 118.563L152.555 119.529C152.887 120.132 153.192 120.73 153.47 121.323L155.282 120.475ZM152.161 115.138C151.761 114.566 151.338 113.992 150.892 113.416L149.31 114.64C149.737 115.192 150.141 115.74 150.523 116.285L152.161 115.138ZM148.325 110.358C147.865 109.85 147.388 109.341 146.893 108.83L145.457 110.222C145.936 110.717 146.398 111.209 146.841 111.7L148.325 110.358ZM144.004 106.022C143.515 105.573 143.012 105.122 142.495 104.671L141.18 106.178C141.684 106.618 142.174 107.057 142.65 107.494L144.004 106.022ZM139.296 102.008C138.796 101.61 138.285 101.211 137.763 100.812L136.548 102.401C137.06 102.793 137.561 103.183 138.051 103.573L139.296 102.008ZM134.496 98.406C133.929 98.0033 133.35 97.5999 132.76 97.1956L131.63 98.8454C132.211 99.2435 132.78 99.6406 133.338 100.037L134.496 98.406ZM129.48 95.0156C128.925 94.6581 128.362 94.3001 127.79 93.9414L126.728 95.6361C127.293 95.9903 127.849 96.3437 128.396 96.6964L129.48 95.0156ZM124.246 91.782C123.669 91.4399 123.084 91.0972 122.49 90.754L121.489 92.4854C122.077 92.825 122.656 93.164 123.226 93.5023L124.246 91.782ZM119.08 88.8275C118.497 88.5055 117.907 88.1831 117.309 87.8602L116.358 89.62C116.951 89.9399 117.536 90.2593 118.113 90.5782L119.08 88.8275ZM113.633 85.9177C113.319 85.7554 113.003 85.593 112.685 85.4304L111.774 87.2109C112.089 87.3721 112.403 87.5332 112.714 87.6942L113.633 85.9177ZM112.685 85.4304C112.376 85.2719 112.068 85.1135 111.762 84.9551L110.843 86.7315C111.151 86.8912 111.462 87.051 111.774 87.2109L112.685 85.4304ZM108.176 83.0593C107.593 82.7441 107.018 82.4292 106.449 82.1147L105.481 83.8648C106.055 84.1824 106.636 84.5003 107.225 84.8186L108.176 83.0593ZM103.077 80.2046C102.478 79.8568 101.887 79.5096 101.306 79.1629L100.282 80.8808C100.87 81.2316 101.467 81.5828 102.073 81.9344L103.077 80.2046ZM97.9214 77.0892C97.3748 76.7447 96.837 76.4008 96.3079 76.0575L95.2193 77.7353C95.7559 78.0835 96.3011 78.4321 96.8549 78.7812L97.9214 77.0892ZM92.963 73.8157C92.4134 73.4347 91.8744 73.0546 91.3461 72.6752L90.1796 74.2998C90.7171 74.6858 91.2651 75.0723 91.8237 75.4595L92.963 73.8157ZM88.2392 70.3595C87.6935 69.9367 87.1612 69.515 86.642 69.0945L85.3832 70.6487C85.9138 71.0784 86.4574 71.509 87.0142 71.9404L88.2392 70.3595ZM83.6852 66.5863C83.1811 66.1374 82.6922 65.69 82.2184 65.2441L80.8478 66.7007C81.3354 67.1594 81.8377 67.6192 82.3551 68.0799L83.6852 66.5863ZM79.44 62.4659C78.992 61.9877 78.5615 61.5116 78.1484 61.0376L76.6407 62.3517C77.0701 62.8444 77.5166 63.3383 77.9805 63.8334L79.44 62.4659ZM75.6955 57.9731C75.3088 57.4425 74.9443 56.9149 74.6016 56.3905L72.9274 57.4846C73.2894 58.0385 73.6732 58.594 74.0792 59.151L75.6955 57.9731ZM72.6898 53.0521C72.3958 52.4531 72.1309 51.8588 71.8944 51.2694L70.0382 52.0141C70.2939 52.6514 70.5793 53.2912 70.8944 53.9333L72.6898 53.0521ZM70.7811 47.648C70.6474 47.0172 70.5471 46.3922 70.4792 45.7732L68.4911 45.9911C68.5664 46.6777 68.6774 47.3683 68.8246 48.0627L70.7811 47.648ZM70.4675 42.0205C70.5333 41.3985 70.6331 40.7818 70.7664 40.1703L68.8123 39.7443C68.6636 40.4264 68.5522 41.115 68.4786 41.8099L70.4675 42.0205ZM71.9538 36.588C72.2068 36.0232 72.49 35.4626 72.803 34.9063L71.06 33.9255C70.7181 34.5331 70.4073 35.1481 70.1286 35.7703L71.9538 36.588ZM74.94 31.7456C75.3374 31.2445 75.7602 30.7476 76.2083 30.2549L74.7287 28.9092C74.2516 29.4338 73.7995 29.9651 73.373 30.5029L74.94 31.7456ZM78.9558 27.5637C79.4404 27.1371 79.9447 26.7145 80.4686 26.2959L79.2202 24.7334C78.6724 25.171 78.1437 25.614 77.6344 26.0624L78.9558 27.5637ZM83.6056 23.9948C84.1386 23.6345 84.6867 23.2777 85.2499 22.9245L84.1872 21.2301C83.6053 21.5951 83.038 21.9644 82.4854 22.3379L83.6056 23.9948ZM88.6375 20.9419C89.2063 20.6306 89.7875 20.3226 90.3807 20.0179L89.4669 18.2388C88.8586 18.5513 88.262 18.8675 87.6774 19.1874L88.6375 20.9419ZM93.9122 18.308C94.5141 18.033 95.1264 17.7611 95.749 17.4924L94.9563 15.6561C94.3212 15.9303 93.6961 16.2079 93.0811 16.4888L93.9122 18.308ZM99.3576 16.0142C99.9769 15.7734 100.605 15.5355 101.242 15.3005L100.549 13.4242C99.9017 13.6632 99.263 13.9052 98.6329 14.1502L99.3576 16.0142ZM104.937 14.0012C105.559 13.7928 106.189 13.587 106.825 13.3837L106.217 11.4784C105.572 11.6845 104.933 11.8933 104.302 12.1047L104.937 14.0012ZM110.629 12.2254C111.251 12.0448 111.879 11.8665 112.513 11.6906L111.979 9.76339C111.337 9.94144 110.701 10.1219 110.072 10.3048L110.629 12.2254ZM116.39 10.6634C117.021 10.504 117.657 10.3468 118.298 10.1918L117.828 8.24777C117.18 8.40438 116.538 8.56328 115.9 8.72445L116.39 10.6634ZM122.139 9.30426C122.79 9.16069 123.445 9.01933 124.106 8.88017L123.693 6.92314C123.027 7.06359 122.365 7.20631 121.708 7.35126L122.139 9.30426ZM127.977 8.10093C128.62 7.97744 129.267 7.85596 129.918 7.73652L129.558 5.76931C128.901 5.88976 128.248 6.01228 127.6 6.13685L127.977 8.10093ZM133.878 7.04446C134.521 6.93752 135.167 6.8325 135.818 6.7294L135.505 4.75406C134.849 4.85795 134.198 4.9638 133.55 5.07159L133.878 7.04446ZM139.72 6.14061C140.378 6.04629 141.039 5.95389 141.704 5.86342L141.435 3.88168C140.765 3.97279 140.099 4.06585 139.436 4.16086L139.72 6.14061ZM145.65 5.35458C146.298 5.27547 146.95 5.19815 147.604 5.12264L147.375 3.13581C146.716 3.21183 146.06 3.28966 145.408 3.3693L145.65 5.35458ZM151.569 4.69125C152.237 4.62299 152.907 4.55655 153.58 4.49195L153.389 2.5011C152.712 2.56609 152.037 2.63295 151.366 2.70164L151.569 4.69125ZM157.495 4.13999C158.151 4.08489 158.81 4.0315 159.472 3.97983L159.316 1.9859C158.651 2.03787 157.988 2.09157 157.327 2.147L157.495 4.13999ZM163.475 3.6906C164.132 3.64691 164.791 3.60489 165.453 3.56454L165.331 1.56825C164.666 1.60882 164.003 1.65107 163.342 1.69501L163.475 3.6906ZM169.392 3.34568C170.054 3.31249 170.717 3.28094 171.383 3.25104L171.294 1.25305C170.624 1.28311 169.957 1.31482 169.292 1.3482L169.392 3.34568ZM175.397 3.09196C176.049 3.06952 176.702 3.04865 177.358 3.02934L177.299 1.03021C176.64 1.04961 175.983 1.07059 175.328 1.09315L175.397 3.09196ZM181.317 2.93245C181.981 2.91947 182.647 2.90807 183.315 2.89828L183.285 0.898494C182.614 0.908337 181.945 0.919785 181.278 0.932831L181.317 2.93245ZM187.316 2.85891C187.97 2.8556 188.626 2.85382 189.284 2.85355L189.283 0.85355C188.622 0.853817 187.963 0.855614 187.306 0.858934L187.316 2.85891ZM193.252 2.87031C193.916 2.87617 194.583 2.88357 195.251 2.89252L195.278 0.892701C194.607 0.883711 193.937 0.876275 193.269 0.870386L193.252 2.87031ZM199.246 2.96409C199.901 2.97877 200.558 2.99493 201.216 3.01257L201.27 1.01329C200.608 0.995571 199.949 0.979339 199.29 0.964589L199.246 2.96409ZM205.184 3.13627C205.849 3.15987 206.514 3.18497 207.182 3.21157L207.261 1.21316C206.591 1.18644 205.922 1.16124 205.255 1.13753L205.184 3.13627ZM211.173 3.38789C211.829 3.41964 212.485 3.45283 213.143 3.48747L213.248 1.49024C212.588 1.45545 211.928 1.42212 211.27 1.39023L211.173 3.38789ZM217.106 3.71272C217.769 3.75317 218.434 3.79508 219.099 3.83847L219.229 1.8427C218.561 1.79914 217.894 1.75705 217.228 1.71643L217.106 3.71272ZM223.091 4.1152C223.745 4.16327 224.401 4.21276 225.058 4.26367L225.212 2.26965C224.553 2.21854 223.895 2.16885 223.237 2.12057L223.091 4.1152ZM229.011 4.58617C229.672 4.64277 230.335 4.7008 230.998 4.76027L231.176 2.76826C230.51 2.70856 229.846 2.65029 229.182 2.59346L229.011 4.58617ZM234.99 5.13437C235.643 5.1982 236.297 5.26342 236.952 5.33003L237.155 3.34029C236.497 3.27342 235.84 3.20794 235.185 3.14385L234.99 5.13437ZM240.893 5.74641C241.552 5.81861 242.211 5.89221 242.872 5.96723L243.098 3.98C242.434 3.90469 241.772 3.8308 241.111 3.75832L240.893 5.74641ZM246.846 6.43427C247.178 6.4746 247.51 6.51529 247.842 6.55633L248.087 4.5714C247.754 4.5302 247.42 4.48936 247.087 4.44887L246.846 6.43427Z" fill="url(#paint0_linear_562_4813)"/>
<defs>
<linearGradient id="paint0_linear_562_4813" x1="253.852" y1="160.573" x2="289.309" y2="13.1068" gradientUnits="userSpaceOnUse">
<stop stop-color="#FFEF99"/>
<stop offset="1" stop-color="#FFEF99" stop-opacity="0"/>
</linearGradient>
</defs>
</svg>
