<svg width="40" height="41" viewBox="0 0 40 41" fill="none" xmlns="http://www.w3.org/2000/svg">
<path d="M27.6148 13.4117C26.2214 12.7919 24.7128 12.342 23.1413 12.0821C23.1275 12.0817 23.1138 12.0841 23.1012 12.0893C23.0885 12.0945 23.0772 12.1023 23.068 12.1121C22.8794 12.442 22.6594 12.8719 22.5127 13.2018C20.8459 12.9618 19.1508 12.9618 17.484 13.2018C17.3374 12.8619 17.1173 12.442 16.9183 12.1121C16.9078 12.0921 16.8764 12.0821 16.845 12.0821C15.2735 12.342 13.7754 12.7919 12.3715 13.4117C12.361 13.4117 12.3505 13.4217 12.3401 13.4317C9.49047 17.5007 8.70474 21.4596 9.09236 25.3786C9.09236 25.3986 9.10284 25.4186 9.12379 25.4286C11.0096 26.7482 12.822 27.548 14.6135 28.0779C14.6449 28.0879 14.6763 28.0779 14.6868 28.0579C15.1059 27.508 15.483 26.9282 15.8078 26.3183C15.8287 26.2784 15.8078 26.2384 15.7659 26.2284C15.1687 26.0084 14.603 25.7485 14.0477 25.4486C14.0058 25.4286 14.0058 25.3686 14.0373 25.3386C14.1525 25.2586 14.2677 25.1686 14.383 25.0887C14.4039 25.0687 14.4354 25.0687 14.4563 25.0787C18.0602 26.6483 21.947 26.6483 25.509 25.0787C25.53 25.0687 25.5614 25.0687 25.5823 25.0887C25.6976 25.1786 25.8128 25.2586 25.9281 25.3486C25.97 25.3786 25.97 25.4386 25.9176 25.4586C25.3728 25.7685 24.7966 26.0184 24.1994 26.2384C24.1575 26.2484 24.1471 26.2984 24.1575 26.3283C24.4928 26.9382 24.8699 27.518 25.2785 28.0679C25.31 28.0779 25.3414 28.0879 25.3728 28.0779C27.1748 27.548 28.9872 26.7482 30.873 25.4286C30.8939 25.4186 30.9044 25.3986 30.9044 25.3786C31.3654 20.8498 30.1396 16.9208 27.6567 13.4317C27.6462 13.4217 27.6357 13.4117 27.6148 13.4117ZM16.3526 22.9892C15.2735 22.9892 14.3725 22.0395 14.3725 20.8698C14.3725 19.7001 15.2525 18.7503 16.3526 18.7503C17.4631 18.7503 18.3431 19.7101 18.3326 20.8698C18.3326 22.0395 17.4526 22.9892 16.3526 22.9892ZM23.6547 22.9892C22.5756 22.9892 21.6746 22.0395 21.6746 20.8698C21.6746 19.7001 22.5546 18.7503 23.6547 18.7503C24.7652 18.7503 25.6452 19.7101 25.6347 20.8698C25.6347 22.0395 24.7652 22.9892 23.6547 22.9892Z" fill="url(#paint0_linear_506_2580)"/>
<defs>
<linearGradient id="paint0_linear_506_2580" x1="20" y1="12.082" x2="20" y2="28.082" gradientUnits="userSpaceOnUse">
<stop stop-color="#CCA858"/>
<stop offset="1" stop-color="#EFEBBA"/>
</linearGradient>
</defs>
</svg>
