<svg width="40" height="41" viewBox="0 0 40 41" fill="none" xmlns="http://www.w3.org/2000/svg">
<path fill-rule="evenodd" clip-rule="evenodd" d="M27.7767 12.512C28.0238 12.408 28.2943 12.3721 28.5599 12.4081C28.8256 12.4441 29.0768 12.5507 29.2873 12.7167C29.4979 12.8827 29.6601 13.1021 29.757 13.3521C29.854 13.602 29.8822 13.8734 29.8387 14.138L27.5707 27.895C27.3507 29.222 25.8947 29.983 24.6777 29.322C23.6597 28.769 22.1477 27.917 20.7877 27.028C20.1077 26.583 18.0247 25.158 18.2807 24.144C18.5007 23.277 22.0007 20.019 24.0007 18.082C24.7857 17.321 24.4277 16.882 23.5007 17.582C21.1987 19.32 17.5027 21.963 16.2807 22.707C15.2027 23.363 14.6407 23.475 13.9687 23.363C12.7427 23.159 11.6057 22.843 10.6777 22.458C9.42365 21.938 9.48465 20.214 10.6767 19.712L27.7767 12.512Z" fill="url(#paint0_linear_506_2582)"/>
<defs>
<linearGradient id="paint0_linear_506_2582" x1="19.8092" y1="12.3945" x2="19.8092" y2="29.5645" gradientUnits="userSpaceOnUse">
<stop stop-color="#CCA858"/>
<stop offset="1" stop-color="#EFEBBA"/>
</linearGradient>
</defs>
</svg>
